<svg id="Layer_1" data-name="Layer 1" xmlns="http://www.w3.org/2000/svg" viewBox="0 0 43.18 42"><metadata><?xpacket begin="﻿" id="W5M0MpCehiHzreSzNTczkc9d"?>
<x:xmpmeta xmlns:x="adobe:ns:meta/" x:xmptk="Adobe XMP Core 6.0-c006 79.164648, 2021/01/12-15:52:29        ">
   <rdf:RDF xmlns:rdf="http://www.w3.org/1999/02/22-rdf-syntax-ns#">
      <rdf:Description rdf:about=""
            xmlns:dc="http://purl.org/dc/elements/1.1/"
            xmlns:xmp="http://ns.adobe.com/xap/1.0/"
            xmlns:xmpMM="http://ns.adobe.com/xap/1.0/mm/"
            xmlns:stEvt="http://ns.adobe.com/xap/1.0/sType/ResourceEvent#"
            xmlns:xmpRights="http://ns.adobe.com/xap/1.0/rights/"
            xmlns:lr="http://ns.adobe.com/lightroom/1.0/">
         <dc:subject>
            <rdf:Bag>
               <rdf:li>Connectivity</rdf:li>
               <rdf:li>Network</rdf:li>
               <rdf:li>Content</rdf:li>
               <rdf:li>Delivery</rdf:li>
               <rdf:li>CDN</rdf:li>
               <rdf:li>Networking</rdf:li>
               <rdf:li>icon</rdf:li>
               <rdf:li>world</rdf:li>
            </rdf:Bag>
         </dc:subject>
         <dc:rights>
            <rdf:Alt>
               <rdf:li xml:lang="x-default">Oracle All Rights</rdf:li>
            </rdf:Alt>
         </dc:rights>
         <xmp:MetadataDate>2023-08-02T14:36:31-06:00</xmp:MetadataDate>
         <xmpMM:InstanceID>xmp.iid:27a40963-4fb5-472e-bd6b-2a1bc300542e</xmpMM:InstanceID>
         <xmpMM:DocumentID>xmp.did:9e415a93-5ba0-4896-ad06-f2073c826373</xmpMM:DocumentID>
         <xmpMM:OriginalDocumentID>xmp.did:9e415a93-5ba0-4896-ad06-f2073c826373</xmpMM:OriginalDocumentID>
         <xmpMM:History>
            <rdf:Seq>
               <rdf:li>
                  <rdf:Description>
                     <stEvt:action>saved</stEvt:action>
                     <stEvt:instanceID>xmp.iid:9e415a93-5ba0-4896-ad06-f2073c826373</stEvt:instanceID>
                     <stEvt:when>2023-08-02T13:40:57-06:00</stEvt:when>
                     <stEvt:softwareAgent>Adobe Bridge 2021 (Macintosh)</stEvt:softwareAgent>
                     <stEvt:changed>/metadata</stEvt:changed>
                  </rdf:Description>
               </rdf:li>
               <rdf:li>
                  <rdf:Description>
                     <stEvt:action>saved</stEvt:action>
                     <stEvt:instanceID>xmp.iid:27a40963-4fb5-472e-bd6b-2a1bc300542e</stEvt:instanceID>
                     <stEvt:when>2023-08-02T14:36:31-06:00</stEvt:when>
                     <stEvt:softwareAgent>Adobe Bridge 2021 (Macintosh)</stEvt:softwareAgent>
                     <stEvt:changed>/metadata</stEvt:changed>
                  </rdf:Description>
               </rdf:li>
            </rdf:Seq>
         </xmpMM:History>
         <xmpRights:Marked>True</xmpRights:Marked>
         <lr:hierarchicalSubject>
            <rdf:Bag>
               <rdf:li>Other Keywords|icon</rdf:li>
            </rdf:Bag>
         </lr:hierarchicalSubject>
      </rdf:Description>
   </rdf:RDF>
</x:xmpmeta>
                                                                                                    
                                                                                                    
                                                                                                    
                                                                                                    
                                                                                                    
                                                                                                    
                                                                                                    
                                                                                                    
                                                                                                    
                                                                                                    
                            
<?xpacket end="w"?></metadata>
<path d="M21,41.5A20.38,20.38,0,0,1,1.39,27a.74.74,0,0,1,0-.14C1.14,26.1,1,25.56.9,25.05c0-.15-.05-.31-.07-.47L.74,24c-.05-.32-.1-.64-.14-1C.54,22.38.5,21.68.5,21a19.49,19.49,0,0,1,.1-2c0-.16,0-.32.06-.48l0-.23c.05-.4.11-.79.18-1.18s.11-.5.17-.75l0-.13q.1-.46.24-.93c.09-.33.2-.65.31-1L1.73,14l.45-1.2A5.06,5.06,0,0,1,4.08,7a5.24,5.24,0,0,1,2.84-.92,20.46,20.46,0,0,1,31.59,4.25l.21.36c.2.34.38.68.56,1,.1.19.19.39.28.58s.3.65.44,1,.2.53.29.8l.05.13a20.12,20.12,0,0,1,.58,2,5.71,5.71,0,0,1,.84.94,5.17,5.17,0,0,1,0,5.85l-.26.38-.68,2.7c0,.1-.14.49-.14.49-.08.29-.17.58-.26.86s-.19.52-.28.77l-.06.16c-.11.28-.21.56-.33.83l-.06.12a20.45,20.45,0,0,1-2.36,4l-.11.14c-.31.41-.64.8-1,1.19A20.57,20.57,0,0,1,21,41.5Z" fill="#fff"/><path d="M21,1a20,20,0,0,1,17.08,9.63l.21.35c.19.33.37.66.55,1l.27.56c.15.32.29.63.42.95s.23.6.33.9a19.36,19.36,0,0,1,.61,2.1,5,5,0,0,1,.88.95,4.69,4.69,0,0,1,0,5.29l-.56.82A20.33,20.33,0,0,1,40.34,26l0-.05c0,.16-.1.31-.14.47s-.16.57-.26.85-.18.51-.28.77-.23.63-.37.94c0,.06-.06.11-.08.17A20.58,20.58,0,0,1,37,33l-.1.14c-.31.39-.63.78-1,1.15l0,0a20,20,0,0,1-34-7.52l-.06-.2c-.16-.55-.3-1.1-.42-1.66,0-.25-.07-.49-.11-.74s-.14-.8-.18-1.21A19.05,19.05,0,0,1,1,21c0-.65,0-1.28.1-1.91,0-.24.06-.46.09-.7s.1-.77.17-1.15.13-.57.2-.85.14-.61.23-.91.19-.63.3-.94c0-.12.07-.25.11-.36l.52-1.36a4.67,4.67,0,0,1-.25-2.37,4.48,4.48,0,0,1,1.89-3,4.77,4.77,0,0,1,2.71-.83h0A20,20,0,0,1,21,1m0-1A20.88,20.88,0,0,0,6.71,5.63a5.71,5.71,0,0,0-2.92,1,5.52,5.52,0,0,0-2.31,3.66,5.62,5.62,0,0,0,.18,2.5l-.16.41c-.12.33-.23.63-.24.63l-.08.26a.56.56,0,0,1,0,.12c-.11.33-.22.66-.31,1s-.17.64-.25,1l0,.11q-.11.39-.18.78c-.07.41-.13.81-.18,1.21l0,.23L.1,19C0,19.7,0,20.36,0,21s0,1.41.11,2.11c0,.35.09.69.14,1l0,.26,0,.27c0,.17,0,.34.08.5.11.53.25,1.08.44,1.75,0,.1,0,.16.06.21A21,21,0,0,0,36.62,35c.38-.43.71-.84,1-1.24l.07-.1,0-.05a20.42,20.42,0,0,0,2.4-4l0,0c0-.05,0-.09.07-.14q.18-.42.33-.84l.06-.15c.11-.29.21-.55.29-.81s.19-.59.27-.89a.84.84,0,0,0,.05-.17,3,3,0,0,0,.1-.32L42,23.57l.18-.26a5.68,5.68,0,0,0,0-6.43,6.28,6.28,0,0,0-.8-.92c-.15-.62-.34-1.25-.56-1.89l-.05-.13c-.1-.27-.19-.55-.3-.82s-.28-.63-.42-.95h0l0-.07-.27-.57c-.18-.36-.38-.71-.58-1,0-.1-.11-.19-.16-.28l-.06-.09A20.85,20.85,0,0,0,21,0Z" fill="#fff"/><path d="M37.57,30.06l-.38-.56H33.75a23.59,23.59,0,0,0,1.18-3.29l-1-1.49a23.28,23.28,0,0,1-1.63,4.78H27.63a30.31,30.31,0,0,0,1.21-7.83h3.31a5.53,5.53,0,0,1-.23-1.34H28.84a30.31,30.31,0,0,0-1.21-7.83h4.65A24.4,24.4,0,0,1,33.6,16a4.75,4.75,0,0,1,.69-.57,4.34,4.34,0,0,1,.46-.28,22.86,22.86,0,0,0-1-2.68h3.86a17.61,17.61,0,0,1,.9,2,5.43,5.43,0,0,1,1.58.52A20,20,0,0,0,21.7,1,5.48,5.48,0,0,0,21,1a5.63,5.63,0,0,0-.71,0A19.86,19.86,0,0,0,8.14,5.72a5.41,5.41,0,0,1,1.48.51,18.53,18.53,0,0,1,5.69-3,20.38,20.38,0,0,0-4.09,4.23,6.26,6.26,0,0,1,.45.57c.13.19.24.38.35.58,2.19-3.05,4.91-5.33,7.38-6.05a30.35,30.35,0,0,0-4.61,8.59H12.68a5.46,5.46,0,0,1-.13,1.33h1.82a30.31,30.31,0,0,0-1.21,7.83H7.69l-.62.9-.72-1.05v.15h-4a18.21,18.21,0,0,1,.81-4.81l-.72-1a4,4,0,0,1-.22-.34A20,20,0,0,0,20.29,41,5.63,5.63,0,0,0,21,41a5.48,5.48,0,0,0,.7,0A20,20,0,0,0,40.37,26L39,28.06Zm-6,.77a25.38,25.38,0,0,1-1.82,2.88c-2.21,3-4.84,5-7.19,5.72a30.19,30.19,0,0,0,4.62-8.6ZM26.24,29.5H23.47a5.56,5.56,0,0,1-.57,1.33h2.89A28.92,28.92,0,0,1,21,39.3a28.06,28.06,0,0,1-2-2.77l-.82,1.19c.38.58.79,1.15,1.21,1.7-3.12-.91-6.62-4.29-9-8.59h2.82a6.06,6.06,0,0,1-.59-1.33H9.73a20.54,20.54,0,0,1-2.05-7.83h5.48c0,1,.1,2,.22,3a5.6,5.6,0,0,1,1.21-1.27c-.05-.59-.08-1.18-.1-1.77h13A29.47,29.47,0,0,1,26.24,29.5ZM2.35,21.67h4A21.78,21.78,0,0,0,8.29,29.5H4.39A18.45,18.45,0,0,1,2.35,21.67Zm24.86-10.5a30.19,30.19,0,0,0-4.62-8.6c2.35.68,5,2.74,7.19,5.72a25.38,25.38,0,0,1,1.82,2.88Zm9.64,0H33.12A26.89,26.89,0,0,0,30.85,7.5a20.81,20.81,0,0,0-4.11-4.24A18.76,18.76,0,0,1,36.85,11.17ZM21,2.7a28.92,28.92,0,0,1,4.79,8.47H16.21A28.92,28.92,0,0,1,21,2.7Zm-5.24,9.8H26.24a29.47,29.47,0,0,1,1.27,7.83h-13A29.47,29.47,0,0,1,15.76,12.5ZM5.15,30.83H8.93a23.38,23.38,0,0,0,6.38,7.92A18.72,18.72,0,0,1,5.15,30.83Zm21.59,7.91a20.81,20.81,0,0,0,4.11-4.24,26.89,26.89,0,0,0,2.27-3.67h3.73A18.76,18.76,0,0,1,26.74,38.74Z" fill="#2c5967"/><path d="M3.26,13.91l3.81,5.55,3.81-5.55a4.69,4.69,0,0,0,0-5.29,4.57,4.57,0,0,0-3.78-2,4.77,4.77,0,0,0-2.71.83,4.48,4.48,0,0,0-1.89,3A4.7,4.7,0,0,0,3.26,13.91ZM7.07,8A3.23,3.23,0,0,1,9.75,9.38a3.33,3.33,0,0,1,0,3.77l-2.71,4-2.71-4h0a3.31,3.31,0,0,1,.76-4.61A3.5,3.5,0,0,1,7.07,8Z" fill="#2c5967"/><path d="M5,11.33a2,2,0,1,0,2-2A2,2,0,0,0,5,11.33Zm2-.66a.67.67,0,1,1-.67.66A.67.67,0,0,1,7,10.67Z" fill="#2c5967"/><path d="M41.38,22.74a4.69,4.69,0,0,0,0-5.29,4.57,4.57,0,0,0-3.78-2,4.77,4.77,0,0,0-2.71.83,4.5,4.5,0,0,0-1.89,3,4.69,4.69,0,0,0,.79,3.46l3.81,5.55ZM34.86,22a3.3,3.3,0,0,1,.76-4.6,3.51,3.51,0,0,1,2-.6,3.23,3.23,0,0,1,2.68,1.43,3.35,3.35,0,0,1,0,3.78l-2.71,4-2.71-4Z" fill="#2c5967"/><path d="M37.5,22.17a2,2,0,1,0-2-2A2,2,0,0,0,37.5,22.17Zm0-2.67a.67.67,0,1,1-.67.67A.67.67,0,0,1,37.5,19.5Z" fill="#2c5967"/><path d="M21.85,25.29a4.55,4.55,0,0,0-3.78-2,4.84,4.84,0,0,0-2.71.83,4.52,4.52,0,0,0-1.89,3,4.69,4.69,0,0,0,.79,3.46l3.81,5.56,3.81-5.56A4.67,4.67,0,0,0,21.85,25.29Zm-3.78,8.48-2.71-4h0a3.31,3.31,0,0,1,.76-4.61,3.5,3.5,0,0,1,1.95-.59,3.23,3.23,0,0,1,2.68,1.43,3.33,3.33,0,0,1,0,3.77Z" fill="#2c5967"/><path d="M18,30a2,2,0,1,0-2-2A2,2,0,0,0,18,30Zm0-2.67a.67.67,0,1,1-.67.67A.67.67,0,0,1,18,27.33Z" fill="#2c5967"/></svg>