<?xml version="1.0" encoding="utf-8"?>
<!-- Generator: Adobe Illustrator 24.0.2, SVG Export Plug-In . SVG Version: 6.00 Build 0)  -->
<svg version="1.1" id="Layer_1" xmlns="http://www.w3.org/2000/svg" xmlns:xlink="http://www.w3.org/1999/xlink" x="0px" y="0px"
	 viewBox="0 0 42.1 22" style="enable-background:new 0 0 42.1 22;" xml:space="preserve">
<metadata><?xpacket begin="﻿" id="W5M0MpCehiHzreSzNTczkc9d"?>
<x:xmpmeta xmlns:x="adobe:ns:meta/" x:xmptk="Adobe XMP Core 6.0-c006 79.164648, 2021/01/12-15:52:29        ">
   <rdf:RDF xmlns:rdf="http://www.w3.org/1999/02/22-rdf-syntax-ns#">
      <rdf:Description rdf:about=""
            xmlns:xmp="http://ns.adobe.com/xap/1.0/"
            xmlns:xmpMM="http://ns.adobe.com/xap/1.0/mm/"
            xmlns:stEvt="http://ns.adobe.com/xap/1.0/sType/ResourceEvent#"
            xmlns:xmpRights="http://ns.adobe.com/xap/1.0/rights/"
            xmlns:dc="http://purl.org/dc/elements/1.1/"
            xmlns:lr="http://ns.adobe.com/lightroom/1.0/">
         <xmp:MetadataDate>2022-10-21T13:51:20-05:00</xmp:MetadataDate>
         <xmpMM:InstanceID>xmp.iid:ae8532c1-df36-4ecd-878c-597c63cceb5c</xmpMM:InstanceID>
         <xmpMM:DocumentID>xmp.did:b69d5601-628c-43b2-84f2-95cdbf1a6c7b</xmpMM:DocumentID>
         <xmpMM:OriginalDocumentID>xmp.did:b69d5601-628c-43b2-84f2-95cdbf1a6c7b</xmpMM:OriginalDocumentID>
         <xmpMM:History>
            <rdf:Seq>
               <rdf:li>
                  <rdf:Description>
                     <stEvt:action>saved</stEvt:action>
                     <stEvt:instanceID>xmp.iid:b69d5601-628c-43b2-84f2-95cdbf1a6c7b</stEvt:instanceID>
                     <stEvt:when>2021-04-27T13:41:29-05:00</stEvt:when>
                     <stEvt:softwareAgent>Adobe Bridge 2021 (Macintosh)</stEvt:softwareAgent>
                     <stEvt:changed>/metadata</stEvt:changed>
                  </rdf:Description>
               </rdf:li>
               <rdf:li>
                  <rdf:Description>
                     <stEvt:action>saved</stEvt:action>
                     <stEvt:instanceID>xmp.iid:ae8532c1-df36-4ecd-878c-597c63cceb5c</stEvt:instanceID>
                     <stEvt:when>2022-10-21T13:51:20-05:00</stEvt:when>
                     <stEvt:softwareAgent>Adobe Bridge 2021 (Macintosh)</stEvt:softwareAgent>
                     <stEvt:changed>/metadata</stEvt:changed>
                  </rdf:Description>
               </rdf:li>
            </rdf:Seq>
         </xmpMM:History>
         <xmpRights:Marked>True</xmpRights:Marked>
         <dc:subject>
            <rdf:Bag>
               <rdf:li>Service</rdf:li>
               <rdf:li>Cloud</rdf:li>
               <rdf:li>icon</rdf:li>
               <rdf:li>network</rdf:li>
               <rdf:li>internet</rdf:li>
               <rdf:li>sharing</rdf:li>
               <rdf:li>remote</rdf:li>
            </rdf:Bag>
         </dc:subject>
         <dc:rights>
            <rdf:Alt>
               <rdf:li xml:lang="x-default">Oracle All Rights Reserved</rdf:li>
            </rdf:Alt>
         </dc:rights>
         <lr:hierarchicalSubject>
            <rdf:Bag>
               <rdf:li>Service</rdf:li>
               <rdf:li>Cloud</rdf:li>
               <rdf:li>icon</rdf:li>
            </rdf:Bag>
         </lr:hierarchicalSubject>
      </rdf:Description>
   </rdf:RDF>
</x:xmpmeta>
                                                                                                    
                                                                                                    
                                                                                                    
                                                                                                    
                                                                                                    
                                                                                                    
                                                                                                    
                    
<?xpacket end="w"?></metadata>
<g>
	<path style="fill:#FFFFFF;" d="M0.5,21.5L0.6,20c0.3-3.4,2.2-6.5,5.3-8.1c0.7-0.3,1.1-1,1.3-1.7c0.5-2.4,2.1-4.5,4.4-5.5
		c1-0.4,2-0.6,3.1-0.6c0.2,0,0.5,0,0.7,0c0.1,0,0.2,0,0.2,0c0.7,0,1.3-0.3,1.7-0.7c1.8-1.9,4.2-3,6.8-3c3.5,0,6.7,2,8.3,5.2
		c0.3,0.7,0.9,1.1,1.7,1.3c1.1,0.2,2.1,0.7,3,1.2c4.2,2.7,5.7,8.2,3.3,12.6l-0.4,0.7H0.5z"/>
	<path style="fill:#FFFFFF;" d="M24.1,1c3.4,0,6.4,1.9,7.9,4.9c0.4,0.8,1.1,1.4,2,1.6c1,0.2,2,0.6,2.9,1.2c4,2.5,5.4,7.8,3.1,11.9
		L39.8,21H24.3h-2.6h-15H6.5H1.1l0.1-0.9c0.2-3.3,2.1-6.1,5-7.7c0.8-0.4,1.3-1.2,1.5-2c0.4-2.3,2-4.2,4.1-5.1
		c0.9-0.4,1.9-0.6,2.9-0.6c0.2,0,0.4,0,0.7,0c0.1,0,0.2,0,0.3,0c0.8,0,1.5-0.3,2-0.9C19.3,2,21.7,1,24.1,1 M24.1,0
		c-2.7,0-5.3,1.1-7.2,3.1c-0.3,0.4-0.8,0.6-1.3,0.6c-0.1,0-0.1,0-0.2,0c-0.3,0-0.5,0-0.8,0c-1.1,0-2.2,0.2-3.3,0.7
		C9,5.4,7.2,7.6,6.7,10.2c-0.1,0.6-0.5,1-1,1.3c-3.2,1.7-5.3,4.9-5.6,8.5l-0.1,0.9L0,22h1.1h5.4h0.2h15h2.6h15.5h0.6l0.3-0.5
		l0.2-0.5c2.5-4.6,1-10.4-3.5-13.2c-1-0.6-2-1.1-3.2-1.3c-0.6-0.1-1.1-0.5-1.3-1C31.2,2.1,27.8,0,24.1,0L24.1,0z"/>
</g>
<g>
	<path style="fill:#2C5967;" d="M40,20.5L39.8,21h-18c-3.2,0-5.7-2.6-5.7-5.8h1.7c0,2.3,1.8,4.1,4,4.1h17C40.2,16,39,12,36,10.1
		c-0.7-0.5-1.5-0.8-2.3-1c-1.4-0.3-2.6-1.2-3.2-2.5c-1.2-2.4-3.6-3.9-6.3-3.9c-2,0-3.9,0.8-5.2,2.3c-1,1-2.3,1.5-3.8,1.4
		c-0.9-0.1-1.8,0.1-2.7,0.4C10.9,7.5,9.7,9,9.4,10.7c-0.3,1.4-1.1,2.5-2.4,3.2C4.9,15,3.4,17,3,19.3h3.5h0.2H16
		c0.5,0.7,1,1.2,1.7,1.7h-11H6.5H1.1l0.1-0.9c0.2-3.3,2.1-6.1,5-7.7c0.8-0.4,1.3-1.2,1.5-2c0.4-2.3,2-4.2,4.1-5.1
		c1.1-0.5,2.3-0.7,3.5-0.6c0.9,0.1,1.7-0.2,2.3-0.9C19.3,2,21.7,1,24.1,1c3.4,0,6.4,1.9,7.9,4.9c0.4,0.8,1.1,1.4,2,1.6
		c1,0.2,2,0.6,2.9,1.2C40.9,11.1,42.2,16.4,40,20.5"/>
</g>
</svg>
