<svg id="Layer_1" data-name="Layer 1" xmlns="http://www.w3.org/2000/svg" viewBox="0 0 25.8 42"><metadata><?xpacket begin="﻿" id="W5M0MpCehiHzreSzNTczkc9d"?>
<x:xmpmeta xmlns:x="adobe:ns:meta/" x:xmptk="Adobe XMP Core 6.0-c006 79.164648, 2021/01/12-15:52:29        ">
   <rdf:RDF xmlns:rdf="http://www.w3.org/1999/02/22-rdf-syntax-ns#">
      <rdf:Description rdf:about=""
            xmlns:dc="http://purl.org/dc/elements/1.1/"
            xmlns:xmp="http://ns.adobe.com/xap/1.0/"
            xmlns:xmpMM="http://ns.adobe.com/xap/1.0/mm/"
            xmlns:stEvt="http://ns.adobe.com/xap/1.0/sType/ResourceEvent#"
            xmlns:xmpRights="http://ns.adobe.com/xap/1.0/rights/"
            xmlns:lr="http://ns.adobe.com/lightroom/1.0/">
         <dc:subject>
            <rdf:Bag>
               <rdf:li>Server</rdf:li>
               <rdf:li>recovery</rdf:li>
               <rdf:li>icon</rdf:li>
            </rdf:Bag>
         </dc:subject>
         <dc:rights>
            <rdf:Alt>
               <rdf:li xml:lang="x-default">Oracle All Rights</rdf:li>
            </rdf:Alt>
         </dc:rights>
         <xmp:MetadataDate>2023-08-02T14:36:32-06:00</xmp:MetadataDate>
         <xmpMM:InstanceID>xmp.iid:21e5ab1e-332c-4c8e-8c65-5e37046aebc6</xmpMM:InstanceID>
         <xmpMM:DocumentID>xmp.did:854b4f09-d851-4a8d-8db9-e5f71695e1c0</xmpMM:DocumentID>
         <xmpMM:OriginalDocumentID>xmp.did:854b4f09-d851-4a8d-8db9-e5f71695e1c0</xmpMM:OriginalDocumentID>
         <xmpMM:History>
            <rdf:Seq>
               <rdf:li>
                  <rdf:Description>
                     <stEvt:action>saved</stEvt:action>
                     <stEvt:instanceID>xmp.iid:854b4f09-d851-4a8d-8db9-e5f71695e1c0</stEvt:instanceID>
                     <stEvt:when>2023-08-02T14:34:28-06:00</stEvt:when>
                     <stEvt:softwareAgent>Adobe Bridge 2021 (Macintosh)</stEvt:softwareAgent>
                     <stEvt:changed>/metadata</stEvt:changed>
                  </rdf:Description>
               </rdf:li>
               <rdf:li>
                  <rdf:Description>
                     <stEvt:action>saved</stEvt:action>
                     <stEvt:instanceID>xmp.iid:21e5ab1e-332c-4c8e-8c65-5e37046aebc6</stEvt:instanceID>
                     <stEvt:when>2023-08-02T14:36:32-06:00</stEvt:when>
                     <stEvt:softwareAgent>Adobe Bridge 2021 (Macintosh)</stEvt:softwareAgent>
                     <stEvt:changed>/metadata</stEvt:changed>
                  </rdf:Description>
               </rdf:li>
            </rdf:Seq>
         </xmpMM:History>
         <xmpRights:Marked>True</xmpRights:Marked>
         <lr:hierarchicalSubject>
            <rdf:Bag>
               <rdf:li>Other Keywords|icon</rdf:li>
            </rdf:Bag>
         </lr:hierarchicalSubject>
      </rdf:Description>
   </rdf:RDF>
</x:xmpmeta>
                                                                                                    
                                                                                                    
                                                                                                    
                                                                                                    
                                                                                                    
                                                                                                    
                                                                                                    
                                                                                                    
                                                                                                    
                                                                                            
<?xpacket end="w"?></metadata>
<polygon points="0.5 41.5 0.5 39.68 2.52 38.67 2.52 0.5 23.27 0.5 23.27 38.67 25.3 39.68 25.3 41.5 0.5 41.5" fill="#fff"/><path d="M22.77,1V39l2,1v1H1V40l2-1V1H22.77m1-1H2V38.36l-1.48.73L0,39.37V42H25.8V39.37l-.56-.28-1.47-.73V0Z" fill="#fff"/><path d="M22.77,39V1H3V39L1,40v1H24.8V40ZM5.05,39V3h15.7V39Z" fill="#2c5967"/><rect x="6.57" y="4.54" width="12.66" height="2.03" fill="#2c5967"/><path d="M17.71,8.09H8.09V9.86H6.57v2H8.09v1.77h9.62V11.89h1.52v-2H17.71Zm-2,3.54H10.11V10.11h5.57Z" fill="#2c5967"/><rect x="6.57" y="15.18" width="2.03" height="2.03" fill="#2c5967"/><rect x="10.11" y="15.18" width="2.03" height="2.03" fill="#2c5967"/><rect x="13.66" y="15.18" width="2.03" height="2.03" fill="#2c5967"/><rect x="17.2" y="15.18" width="2.03" height="2.03" fill="#2c5967"/><rect x="6.57" y="18.72" width="2.03" height="2.03" fill="#2c5967"/><rect x="10.11" y="18.72" width="2.03" height="2.03" fill="#2c5967"/><rect x="13.66" y="18.72" width="2.03" height="2.03" fill="#2c5967"/><rect x="17.2" y="18.72" width="2.03" height="2.03" fill="#2c5967"/><path d="M9.53,35.69V24.28h3.16a4.27,4.27,0,0,1,3,.89,3.31,3.31,0,0,1,1,2.59,3.8,3.8,0,0,1-.45,1.91,2.82,2.82,0,0,1-1.53,1.19L17,35.69H14.46l-1.9-4.38-.75-.19v4.57Zm2.28-6h.85c1.13,0,1.69-.6,1.69-1.79s-.56-1.77-1.69-1.77h-.85Z" fill="#2c5967"/></svg>