<svg id="Layer_1" data-name="Layer 1" xmlns="http://www.w3.org/2000/svg" viewBox="0 0 42 45.81"><metadata><?xpacket begin="﻿" id="W5M0MpCehiHzreSzNTczkc9d"?>
<x:xmpmeta xmlns:x="adobe:ns:meta/" x:xmptk="Adobe XMP Core 6.0-c006 79.164648, 2021/01/12-15:52:29        ">
   <rdf:RDF xmlns:rdf="http://www.w3.org/1999/02/22-rdf-syntax-ns#">
      <rdf:Description rdf:about=""
            xmlns:dc="http://purl.org/dc/elements/1.1/"
            xmlns:xmp="http://ns.adobe.com/xap/1.0/"
            xmlns:xmpMM="http://ns.adobe.com/xap/1.0/mm/"
            xmlns:stEvt="http://ns.adobe.com/xap/1.0/sType/ResourceEvent#"
            xmlns:xmpRights="http://ns.adobe.com/xap/1.0/rights/"
            xmlns:lr="http://ns.adobe.com/lightroom/1.0/">
         <dc:subject>
            <rdf:Bag>
               <rdf:li>planet</rdf:li>
               <rdf:li>world</rdf:li>
               <rdf:li>globe</rdf:li>
               <rdf:li>configuration</rdf:li>
               <rdf:li>icon</rdf:li>
            </rdf:Bag>
         </dc:subject>
         <dc:rights>
            <rdf:Alt>
               <rdf:li xml:lang="x-default">Oracle All Rights</rdf:li>
            </rdf:Alt>
         </dc:rights>
         <xmp:MetadataDate>2023-08-02T14:36:32-06:00</xmp:MetadataDate>
         <xmpMM:InstanceID>xmp.iid:af6c08d7-c27a-4a15-92d9-20f2641e596b</xmpMM:InstanceID>
         <xmpMM:DocumentID>xmp.did:d38a6e21-140a-4a64-adbc-a73c90d72b7d</xmpMM:DocumentID>
         <xmpMM:OriginalDocumentID>xmp.did:d38a6e21-140a-4a64-adbc-a73c90d72b7d</xmpMM:OriginalDocumentID>
         <xmpMM:History>
            <rdf:Seq>
               <rdf:li>
                  <rdf:Description>
                     <stEvt:action>saved</stEvt:action>
                     <stEvt:instanceID>xmp.iid:d38a6e21-140a-4a64-adbc-a73c90d72b7d</stEvt:instanceID>
                     <stEvt:when>2023-08-02T14:23:11-06:00</stEvt:when>
                     <stEvt:softwareAgent>Adobe Bridge 2021 (Macintosh)</stEvt:softwareAgent>
                     <stEvt:changed>/metadata</stEvt:changed>
                  </rdf:Description>
               </rdf:li>
               <rdf:li>
                  <rdf:Description>
                     <stEvt:action>saved</stEvt:action>
                     <stEvt:instanceID>xmp.iid:af6c08d7-c27a-4a15-92d9-20f2641e596b</stEvt:instanceID>
                     <stEvt:when>2023-08-02T14:36:32-06:00</stEvt:when>
                     <stEvt:softwareAgent>Adobe Bridge 2021 (Macintosh)</stEvt:softwareAgent>
                     <stEvt:changed>/metadata</stEvt:changed>
                  </rdf:Description>
               </rdf:li>
            </rdf:Seq>
         </xmpMM:History>
         <xmpRights:Marked>True</xmpRights:Marked>
         <lr:hierarchicalSubject>
            <rdf:Bag>
               <rdf:li>Other Keywords|icon</rdf:li>
            </rdf:Bag>
         </lr:hierarchicalSubject>
      </rdf:Description>
   </rdf:RDF>
</x:xmpmeta>
                                                                                                    
                                                                                                    
                                                                                                    
                                                                                                    
                                                                                                    
                                                                                                    
                                                                                                    
                                                                                                    
                                                                                                    
                                                                                            
<?xpacket end="w"?></metadata>
<path d="M9.84,13.3,10,11.15a5.66,5.66,0,0,1,3-4.64A.73.73,0,0,0,13.36,6,4.48,4.48,0,0,1,16,2.77a4.6,4.6,0,0,1,1.8-.37,2.82,2.82,0,0,1,.41,0h0a.7.7,0,0,0,.55-.21,5.36,5.36,0,0,1,8.72,1.26.75.75,0,0,0,.52.39,5.57,5.57,0,0,1,1.73.72,5.48,5.48,0,0,1,1.9,7.22l-.82,1.46-.75,1-1-.67a14.2,14.2,0,0,0-17.21.7L9.84,16Z" fill="#fff"/><path d="M22.65,1A4.83,4.83,0,0,1,27,3.69a1.24,1.24,0,0,0,.86.66A5.12,5.12,0,0,1,29.43,5a5,5,0,0,1,1.73,6.56L30.35,13l-.43.57-.58-.4a14.68,14.68,0,0,0-17.8.72l-1.2,1V13.3l.11-2.12A5.14,5.14,0,0,1,13.21,7a1.23,1.23,0,0,0,.64-.85,4,4,0,0,1,3.9-3.2h.49a1.13,1.13,0,0,0,.85-.37A4.91,4.91,0,0,1,22.65,1m0-1a5.88,5.88,0,0,0-4.29,1.87.17.17,0,0,1-.12,0,4.27,4.27,0,0,0-.49,0,4.88,4.88,0,0,0-2,.42,5,5,0,0,0-2.88,3.59.22.22,0,0,1-.12.15,6.18,6.18,0,0,0-3.3,5l-.11,2.15V17L11,15.66l1.19-1A13.68,13.68,0,0,1,28.76,14l.6.4.79.54.57-.76.42-.56,0-.06,0-.06L32,12.05A6,6,0,0,0,30,4.15a5.89,5.89,0,0,0-1.89-.77.24.24,0,0,1-.17-.14A5.83,5.83,0,0,0,22.65,0Z" fill="#fff"/><path d="M29.42,45.29a5.5,5.5,0,0,1-5.09-3.46l-.59-1.56-.29-1.22,1.15-.32A14.18,14.18,0,0,0,35.16,25.14l0-3,2.09,2.14,1.52,1.41A5.7,5.7,0,0,1,40.38,31a.72.72,0,0,0,.14.62,4.47,4.47,0,0,1,.8,4,4.55,4.55,0,0,1-1.16,1.93.68.68,0,0,0-.21.56,5.39,5.39,0,0,1-1.22,4.11,5.33,5.33,0,0,1-4.08,1.9h0A5.53,5.53,0,0,1,33.37,44a.55.55,0,0,0-.18,0,.79.79,0,0,0-.46.15,5.28,5.28,0,0,1-1.66.87A5.41,5.41,0,0,1,29.42,45.29Z" fill="#fff"/><path d="M35.68,23.37l1.23,1.27,1.54,1.43a5.19,5.19,0,0,1,1.44,4.84,1.25,1.25,0,0,0,.24,1,4,4,0,0,1-.32,5.31,1.14,1.14,0,0,0-.35,1A4.87,4.87,0,0,1,38.35,42a4.81,4.81,0,0,1-3.7,1.73,5.11,5.11,0,0,1-1.16-.14l-.3,0a1.25,1.25,0,0,0-.76.26,5,5,0,0,1-3,1,5,5,0,0,1-4.63-3.14l-.58-1.56-.16-.69.68-.19a14.58,14.58,0,0,0,7.47-4.72,14.76,14.76,0,0,0,3.46-9.35l0-1.77m-1-2.44,0,2.43,0,1.78A13.71,13.71,0,0,1,24.47,38.25l-.69.19-.92.26.21.93.16.69,0,.06,0,.07L23.86,42a6,6,0,0,0,5.56,3.79A6,6,0,0,0,33,44.57a.21.21,0,0,1,.15,0h.06a6,6,0,0,0,1.4.17,5.86,5.86,0,0,0,5.8-6.57.14.14,0,0,1,.06-.14,5,5,0,0,0,.4-6.66.21.21,0,0,1,0-.19,6.18,6.18,0,0,0-1.72-5.77L37.59,23.9l-1.2-1.23L34.7,20.93Z" fill="#fff"/><path d="M12.59,45.31A5.65,5.65,0,0,1,11,45.06a5.4,5.4,0,0,1-1.67-.86A.7.7,0,0,0,8.83,44l-.18,0a5.12,5.12,0,0,1-1.29.16,5.36,5.36,0,0,1-5.3-6,.71.71,0,0,0-.21-.56A4.33,4.33,0,0,1,.69,35.74a4.43,4.43,0,0,1,.79-4.06.75.75,0,0,0,.13-.62,5.67,5.67,0,0,1,1.56-5.3L4.73,24.3l2.05-2.11,0,3A14.15,14.15,0,0,0,17.41,38.73l1.16.31-.31,1.27-.56,1.51A5.53,5.53,0,0,1,12.59,45.31Z" fill="#fff"/><path d="M6.3,23.41l0,1.77a14.68,14.68,0,0,0,11,14l.69.18-.19.79-.55,1.46a5,5,0,0,1-4.64,3.16,4.76,4.76,0,0,1-1.48-.23,5.09,5.09,0,0,1-1.52-.78,1.25,1.25,0,0,0-.76-.26,1,1,0,0,0-.3,0,5.2,5.2,0,0,1-1.17.14A4.83,4.83,0,0,1,3.67,42a4.88,4.88,0,0,1-1.12-3.72,1.18,1.18,0,0,0-.36-1,4.08,4.08,0,0,1-1-1.7A4,4,0,0,1,1.87,32a1.24,1.24,0,0,0,.23-1,5.17,5.17,0,0,1,1.42-4.83l1.55-1.45L6.3,23.41m1-2.43L5.58,22.71,4.35,24,2.84,25.39a6.17,6.17,0,0,0-1.72,5.78.21.21,0,0,1,0,.2A5,5,0,0,0,1.5,38a.18.18,0,0,1,.06.14,5.91,5.91,0,0,0,1.35,4.49,5.84,5.84,0,0,0,4.45,2.07,6.11,6.11,0,0,0,1.41-.17h.06A.25.25,0,0,1,9,44.6a6,6,0,0,0,1.81.93,5.72,5.72,0,0,0,1.79.28A6,6,0,0,0,18.16,42l.55-1.46,0-.06v-.07l.19-.79.23-1-1-.24-.69-.18A13.68,13.68,0,0,1,7.32,25.16l0-1.76,0-2.42Z" fill="#fff"/><path d="M21,37.9A12.86,12.86,0,0,1,9.09,29.8H8.93v-.44a12.82,12.82,0,1,1,24.17,0v.41h-.16A12.86,12.86,0,0,1,21,37.9Z" fill="#fff"/><path d="M21,12.81A12.29,12.29,0,0,1,32.59,29.27v0h0a12.32,12.32,0,0,1-23.15,0h0v0A12.29,12.29,0,0,1,21,12.81m0-1A13.29,13.29,0,0,0,8.42,29.44v.83h.33a13.31,13.31,0,0,0,24.51,0h.32v-.85A13.3,13.3,0,0,0,21,11.81Z" fill="#fff"/><path d="M20.91,10.52a14.59,14.59,0,0,1,8.43,2.66l.58.4.43-.57.81-1.45A5,5,0,0,0,29.43,5a5.12,5.12,0,0,0-1.57-.65A1.24,1.24,0,0,1,27,3.69,4.83,4.83,0,0,0,22.65,1a4.91,4.91,0,0,0-3.56,1.55,1.13,1.13,0,0,1-1,.36,4,4,0,0,0-2,.32,4,4,0,0,0-2.3,2.87,1.23,1.23,0,0,1-.64.85,5.14,5.14,0,0,0-2.76,4.23l-.11,2.12v1.59l1.2-1A14.68,14.68,0,0,1,20.91,10.52Zm-9,.75a3.74,3.74,0,0,1,2-3,2.68,2.68,0,0,0,1.4-1.86,2.5,2.5,0,0,1,2.45-2H18a2.6,2.6,0,0,0,2.18-.82,3.4,3.4,0,0,1,5.54.79,2.69,2.69,0,0,0,1.84,1.44,3.37,3.37,0,0,1,1.11.45,3.52,3.52,0,0,1,1.23,4.63l-.38.68a16,16,0,0,0-8.59-2.48,16.22,16.22,0,0,0-9,2.77Z" fill="#2c5967"/><path d="M40.13,32a1.25,1.25,0,0,1-.24-1,5.19,5.19,0,0,0-1.44-4.84l-1.54-1.43-1.23-1.27,0,1.77a14.76,14.76,0,0,1-3.46,9.35,14.58,14.58,0,0,1-7.47,4.72l-.68.19.16.69.58,1.56a5,5,0,0,0,4.63,3.14,5,5,0,0,0,3-1,1.23,1.23,0,0,1,1.06-.23,4.86,4.86,0,0,0,6-5.31,1.14,1.14,0,0,1,.35-1A4,4,0,0,0,40.13,32Zm-.69,3.19a2.55,2.55,0,0,1-.65,1.08,2.59,2.59,0,0,0-.78,2.2,3.4,3.4,0,0,1-4.18,3.71,2.74,2.74,0,0,0-2.29.49,3.45,3.45,0,0,1-1.06.55,3.52,3.52,0,0,1-4.33-2.05l-.27-.72a16.06,16.06,0,0,0,7.43-5A16.25,16.25,0,0,0,37,26.74l.41.38a3.74,3.74,0,0,1,1,3.48A2.66,2.66,0,0,0,39,32.86,2.53,2.53,0,0,1,39.44,35.14Z" fill="#2c5967"/><path d="M9.8,34.51a14.67,14.67,0,0,1-3.48-9.33l0-1.77L5.07,24.67,3.52,26.12A5.17,5.17,0,0,0,2.1,31a1.24,1.24,0,0,1-.23,1,4,4,0,0,0-.71,3.61,4.08,4.08,0,0,0,1,1.7,1.19,1.19,0,0,1,.36,1,4.86,4.86,0,0,0,6,5.3,1.25,1.25,0,0,1,1.06.22,5.09,5.09,0,0,0,1.52.78,4.76,4.76,0,0,0,1.48.23,5,5,0,0,0,4.64-3.16l.55-1.46L18,39.4l-.69-.18A14.63,14.63,0,0,1,9.8,34.51Zm6.07,6.61a3.53,3.53,0,0,1-4.33,2.07,3.57,3.57,0,0,1-1.06-.55,2.7,2.7,0,0,0-1.65-.56,2.8,2.8,0,0,0-.64.08,3.39,3.39,0,0,1-3.41-1.1A3.43,3.43,0,0,1,4,38.45a2.59,2.59,0,0,0-.79-2.19A2.51,2.51,0,0,1,3,32.9a2.71,2.71,0,0,0,.51-2.27,3.72,3.72,0,0,1,1-3.46L5,26.78A16.15,16.15,0,0,0,16.14,40.4Z" fill="#2c5967"/><path d="M32.58,29.3h0v0a12.32,12.32,0,1,0-23.17,0v0h0a12.32,12.32,0,0,0,23.15,0Zm-6.94-.83-1.38,1.39-.53.52A17,17,0,0,1,21,35.53a16.74,16.74,0,0,1-2.68-5l-.68-.68-1.39-1.39-.63-.63H10.5a11.18,11.18,0,0,1-.35-2.74,10.73,10.73,0,0,1,.31-2.55h5.12l.68-.69,1.39-1.38.62-.62A16.92,16.92,0,0,1,21,14.67,17.13,17.13,0,0,1,23.79,20l.47.47,1.38,1.38.69.69h5.22a10.77,10.77,0,0,1,0,5.29H26.28Zm5.44-7.38H25.59a18.29,18.29,0,0,0-3-6.7A10.86,10.86,0,0,1,31.08,21.09ZM19.4,14.39a18.29,18.29,0,0,0-3,6.7H10.93A10.86,10.86,0,0,1,19.4,14.39ZM11,29.3h5.46a18.39,18.39,0,0,0,2.94,6.52A10.9,10.9,0,0,1,11,29.3Zm11.61,6.52a18.39,18.39,0,0,0,2.94-6.52H31A10.9,10.9,0,0,1,22.61,35.82Z" fill="#2c5967"/><path d="M22.05,28.63a2.87,2.87,0,0,0,.57-.24l.87.69,1.38-1.38-.69-.86a4.53,4.53,0,0,0,.23-.57l1.1-.12v-2l-1.1-.12a3.57,3.57,0,0,0-.23-.57l.69-.86-1.38-1.39-.87.69a3.57,3.57,0,0,0-.57-.23l-.12-1.1H20l-.13,1.1a3.88,3.88,0,0,0-.56.23l-.87-.69L17,22.64l.69.86a3.61,3.61,0,0,0-.24.57l-1.1.12v2l1.1.12a4.62,4.62,0,0,0,.24.57L17,27.7l1.38,1.38.87-.69a3,3,0,0,0,.56.24l.13,1.1h1.95ZM21,23.19a2,2,0,1,1-2,2A2,2,0,0,1,21,23.19Z" fill="#2c5967"/></svg>