<svg id="Layer_1" data-name="Layer 1" xmlns="http://www.w3.org/2000/svg" viewBox="0 0 54.26 42"><metadata><?xpacket begin="﻿" id="W5M0MpCehiHzreSzNTczkc9d"?>
<x:xmpmeta xmlns:x="adobe:ns:meta/" x:xmptk="Adobe XMP Core 6.0-c006 79.164648, 2021/01/12-15:52:29        ">
   <rdf:RDF xmlns:rdf="http://www.w3.org/1999/02/22-rdf-syntax-ns#">
      <rdf:Description rdf:about=""
            xmlns:dc="http://purl.org/dc/elements/1.1/"
            xmlns:xmp="http://ns.adobe.com/xap/1.0/"
            xmlns:xmpMM="http://ns.adobe.com/xap/1.0/mm/"
            xmlns:stEvt="http://ns.adobe.com/xap/1.0/sType/ResourceEvent#"
            xmlns:xmpRights="http://ns.adobe.com/xap/1.0/rights/"
            xmlns:lr="http://ns.adobe.com/lightroom/1.0/">
         <dc:subject>
            <rdf:Bag>
               <rdf:li>lock</rdf:li>
               <rdf:li>domain</rdf:li>
               <rdf:li>security</rdf:li>
               <rdf:li>icon</rdf:li>
            </rdf:Bag>
         </dc:subject>
         <dc:rights>
            <rdf:Alt>
               <rdf:li xml:lang="x-default">Oracle All Rights</rdf:li>
            </rdf:Alt>
         </dc:rights>
         <xmp:MetadataDate>2023-08-02T14:36:31-06:00</xmp:MetadataDate>
         <xmpMM:InstanceID>xmp.iid:9cb5c86f-133e-42bc-a0cb-1eeea26b749c</xmpMM:InstanceID>
         <xmpMM:DocumentID>xmp.did:c596a056-1763-4021-aad1-dcfa10892d17</xmpMM:DocumentID>
         <xmpMM:OriginalDocumentID>xmp.did:c596a056-1763-4021-aad1-dcfa10892d17</xmpMM:OriginalDocumentID>
         <xmpMM:History>
            <rdf:Seq>
               <rdf:li>
                  <rdf:Description>
                     <stEvt:action>saved</stEvt:action>
                     <stEvt:instanceID>xmp.iid:c596a056-1763-4021-aad1-dcfa10892d17</stEvt:instanceID>
                     <stEvt:when>2023-08-02T13:41:14-06:00</stEvt:when>
                     <stEvt:softwareAgent>Adobe Bridge 2021 (Macintosh)</stEvt:softwareAgent>
                     <stEvt:changed>/metadata</stEvt:changed>
                  </rdf:Description>
               </rdf:li>
               <rdf:li>
                  <rdf:Description>
                     <stEvt:action>saved</stEvt:action>
                     <stEvt:instanceID>xmp.iid:9cb5c86f-133e-42bc-a0cb-1eeea26b749c</stEvt:instanceID>
                     <stEvt:when>2023-08-02T14:36:31-06:00</stEvt:when>
                     <stEvt:softwareAgent>Adobe Bridge 2021 (Macintosh)</stEvt:softwareAgent>
                     <stEvt:changed>/metadata</stEvt:changed>
                  </rdf:Description>
               </rdf:li>
            </rdf:Seq>
         </xmpMM:History>
         <xmpRights:Marked>True</xmpRights:Marked>
         <lr:hierarchicalSubject>
            <rdf:Bag>
               <rdf:li>Other Keywords|icon</rdf:li>
            </rdf:Bag>
         </lr:hierarchicalSubject>
      </rdf:Description>
   </rdf:RDF>
</x:xmpmeta>
                                                                                                    
                                                                                                    
                                                                                                    
                                                                                                    
                                                                                                    
                                                                                                    
                                                                                                    
                                                                                                    
                                                                                                    
                                                                                            
<?xpacket end="w"?></metadata>
<path d="M18.42,41.5l-2-1V24.29h-5.3L13,26.16,11.22,28l-5-5,5-5L13,19.75l-2,2h5.41V15.21H19.7V11.88a11.39,11.39,0,0,1,22.77,0v3.33H45.7V26.32h2.88l-1.87-1.86,1.82-1.82,5,5-5,5-1.82-1.82,2-2h-3V40.53l-2,1Z" fill="#fff"/><path d="M31.08,1A10.9,10.9,0,0,1,42,11.88v3.83H45.2V26.82h4.58l-2.36-2.36,1.11-1.11,4.31,4.31L48.53,32l-1.11-1.11,2.47-2.47H45.2V40.22L43.63,41H18.54L17,40.22V23.79H10l2.37,2.37-1.11,1.11L6.91,23l4.31-4.31,1.11,1.1L9.85,22.23H17V15.71H20.2V11.88A10.89,10.89,0,0,1,31.08,1m0-1A11.89,11.89,0,0,0,19.2,11.88v2.83H16v6.52h-3.7l.76-.77.71-.71-.71-.7-1.11-1.11-.7-.71-.71.71L6.2,22.25,5.49,23l.71.7L10.51,28l.71.71.7-.71L13,26.86l.71-.7L13,25.45l-.65-.66H16v16l.56.28,1.57.78.21.11H43.87l.21-.11,1.57-.78.56-.28V31.06l.51.51,1.11,1.11.71.71.71-.71,4.31-4.31.71-.71L53.55,27l-4.31-4.31-.71-.7-.71.7-1.11,1.11-.51.51V14.71H43V11.88A11.9,11.9,0,0,0,31.08,0ZM46.2,25.82V24.65l.51.52.66.65Zm0,3.57h1.28l-.77.77-.51.51V29.39Z" fill="#fff"/><circle cx="2.91" cy="31.72" r="2.41" fill="#fff"/><path d="M2.91,29.81A1.91,1.91,0,1,1,1,31.72a1.91,1.91,0,0,1,1.91-1.91m0-1a2.91,2.91,0,1,0,2.9,2.91,2.91,2.91,0,0,0-2.9-2.91Z" fill="#fff"/><circle cx="7.68" cy="31.72" r="2.41" fill="#fff"/><path d="M7.68,29.81a1.91,1.91,0,1,1-1.91,1.91,1.91,1.91,0,0,1,1.91-1.91m0-1a2.91,2.91,0,1,0,2.9,2.91,2.91,2.91,0,0,0-2.9-2.91Z" fill="#fff"/><path d="M12.44,34.13a2.41,2.41,0,1,1,2.41-2.41A2.41,2.41,0,0,1,12.44,34.13Z" fill="#fff"/><path d="M12.44,29.81a1.91,1.91,0,1,1-1.9,1.91,1.91,1.91,0,0,1,1.9-1.91m0-1a2.91,2.91,0,1,0,2.91,2.91,2.91,2.91,0,0,0-2.91-2.91Z" fill="#fff"/><path d="M52.84,27.66,51.13,26l-.3-.31-2.3-2.3-1.11,1.11,1.19,1.19,1.17,1.17H45.2V15.71H42V11.88a10.89,10.89,0,0,0-21.77,0v3.83H17v5.34h1.57V17.27H43.63V36.69H18.54V25H17V38.26H45.2V28.39h4.69l-1.17,1.18-1.3,1.29L48.53,32l2.4-2.4.2-.2ZM21.77,11.88a9.32,9.32,0,0,1,18.63,0v3.83H39.22V11.88a8.14,8.14,0,0,0-16.27,0v3.83H21.77Zm15.88,3.83H24.52V11.88a6.57,6.57,0,1,1,13.13,0Z" fill="#2c5967"/><polygon points="43.63 39.43 18.54 39.43 18.54 39.43 16.96 39.43 16.96 40.22 18.54 41 18.54 41 43.63 41 43.63 41 45.2 40.22 45.2 39.43 43.63 39.43 43.63 39.43" fill="#2c5967"/><path d="M2.91,29.81a1.91,1.91,0,1,0,1.9,1.91A1.91,1.91,0,0,0,2.91,29.81Z" fill="#2c5967"/><path d="M7.68,29.81a1.91,1.91,0,1,0,1.9,1.91A1.91,1.91,0,0,0,7.68,29.81Z" fill="#2c5967"/><path d="M12.44,29.81a1.91,1.91,0,1,0,1.91,1.91A1.91,1.91,0,0,0,12.44,29.81Z" fill="#2c5967"/><polygon points="20.49 29.05 23.21 31.78 20.49 34.5 21.6 35.61 25.43 31.78 21.6 27.94 20.49 29.05" fill="#2c5967"/><path d="M31.54,23.79a3.63,3.63,0,0,1,0,7.26H27v1.57h4.55a5.2,5.2,0,0,0,0-10.39H9.85L11,21.05l1.3-1.3-1.11-1.1L6.91,23l4.31,4.31,1.11-1.11L11.14,25,10,23.79Z" fill="#2c5967"/></svg>