<?xml version="1.0" encoding="UTF-8" standalone="no"?>
<svg
   id="Layer_1"
   data-name="Layer 1"
   viewBox="0 0 41.85 42"
   version="1.1"
   sodipodi:docname="Technology - IoT.svg"
   inkscape:version="1.3.2 (091e20e, 2023-11-25, custom)"
   xmlns:inkscape="http://www.inkscape.org/namespaces/inkscape"
   xmlns:x="adobe:ns:meta/"
   xmlns:sodipodi="http://sodipodi.sourceforge.net/DTD/sodipodi-0.dtd"
   xmlns="http://www.w3.org/2000/svg"
   xmlns:svg="http://www.w3.org/2000/svg"
   xmlns:rdf="http://www.w3.org/1999/02/22-rdf-syntax-ns#"
   xmlns:dc="http://purl.org/dc/elements/1.1/"
   xmlns:xmp="http://ns.adobe.com/xap/1.0/"
   xmlns:xmpMM="http://ns.adobe.com/xap/1.0/mm/"
   xmlns:stEvt="http://ns.adobe.com/xap/1.0/sType/ResourceEvent#"
   xmlns:xmpRights="http://ns.adobe.com/xap/1.0/rights/"
   xmlns:lr="http://ns.adobe.com/lightroom/1.0/">
  <sodipodi:namedview
     id="namedview3"
     pagecolor="#ffffff"
     bordercolor="#666666"
     borderopacity="1.0"
     inkscape:showpageshadow="2"
     inkscape:pageopacity="0.0"
     inkscape:pagecheckerboard="0"
     inkscape:deskcolor="#d1d1d1"
     inkscape:zoom="8.7933098"
     inkscape:cx="20.924999"
     inkscape:cy="20.981861"
     inkscape:window-width="1920"
     inkscape:window-height="1009"
     inkscape:window-x="1072"
     inkscape:window-y="425"
     inkscape:window-maximized="1"
     inkscape:current-layer="Layer_1" />
  <defs
     id="defs1">
    <style
       id="style1">.cls-1{fill:#fff;}.cls-2{fill:#2c5967;}</style>
  </defs>
  <title
     id="title1">Technology - IoT</title>
  <metadata
     id="metadata1">
<?xpacket begin="﻿" id="W5M0MpCehiHzreSzNTczkc9d"?>    <x:xmpmeta
       x:xmptk="Adobe XMP Core 6.0-c006 79.164648, 2021/01/12-15:52:29        ">
      <rdf:RDF>
        <rdf:Description
           rdf:about="">
          <xmp:MetadataDate>2021-06-24T19:46:03-05:00</xmp:MetadataDate>
          <xmpMM:InstanceID>xmp.iid:cb9eabe8-0eb0-4c9f-9de3-6f6724e48c74</xmpMM:InstanceID>
          <xmpMM:DocumentID>xmp.did:8e6d2049-fc03-4656-87c3-889bad9816bb</xmpMM:DocumentID>
          <xmpMM:OriginalDocumentID>xmp.did:8e6d2049-fc03-4656-87c3-889bad9816bb</xmpMM:OriginalDocumentID>
          <xmpMM:History>
            <rdf:Seq>
              <rdf:li>
                <rdf:Description>
                  <stEvt:action>saved</stEvt:action>
                  <stEvt:instanceID>xmp.iid:8e6d2049-fc03-4656-87c3-889bad9816bb</stEvt:instanceID>
                  <stEvt:when>2021-06-18T11:42:16-05:00</stEvt:when>
                  <stEvt:softwareAgent>Adobe Bridge 2021 (Macintosh)</stEvt:softwareAgent>
                  <stEvt:changed>/metadata</stEvt:changed>
                </rdf:Description>
              </rdf:li>
              <rdf:li>
                <rdf:Description>
                  <stEvt:action>saved</stEvt:action>
                  <stEvt:instanceID>xmp.iid:cb9eabe8-0eb0-4c9f-9de3-6f6724e48c74</stEvt:instanceID>
                  <stEvt:when>2021-06-24T19:46:03-05:00</stEvt:when>
                  <stEvt:softwareAgent>Adobe Bridge 2021 (Macintosh)</stEvt:softwareAgent>
                  <stEvt:changed>/metadata</stEvt:changed>
                </rdf:Description>
              </rdf:li>
            </rdf:Seq>
          </xmpMM:History>
          <xmpRights:Marked>True</xmpRights:Marked>
          <dc:title>
            <rdf:Alt>
              <rdf:li
                 xml:lang="x-default">Technology - IoT</rdf:li>
            </rdf:Alt>
          </dc:title>
          <dc:subject>
            <rdf:Bag>
              <rdf:li>icon</rdf:li>
              <rdf:li>technology</rdf:li>
              <rdf:li>AI</rdf:li>
              <rdf:li>Artificial Intelligence</rdf:li>
              <rdf:li>internet of things</rdf:li>
            </rdf:Bag>
          </dc:subject>
          <dc:rights>
            <rdf:Alt>
              <rdf:li
                 xml:lang="x-default">Oracle All Rights Reserved</rdf:li>
            </rdf:Alt>
          </dc:rights>
          <lr:hierarchicalSubject>
            <rdf:Bag>
              <rdf:li>icon</rdf:li>
              <rdf:li>technology</rdf:li>
              <rdf:li>AI</rdf:li>
              <rdf:li>Artificial Intelligence</rdf:li>
            </rdf:Bag>
          </lr:hierarchicalSubject>
        </rdf:Description>
      </rdf:RDF>
    </x:xmpmeta>
<?xpacket end="w"?>  </metadata>
  <path
     class="cls-1"
     d="M 28.7,41.5 A 3.73,3.73 0 0 1 26.07,40.41 3.68,3.68 0 0 1 25,37.79 3.61,3.61 0 0 1 25.3,36.35 L 5.67,16.7 A 3.55,3.55 0 0 1 4.21,17 3.64,3.64 0 0 1 1.59,15.91 3.68,3.68 0 0 1 0.5,13.3 a 3.73,3.73 0 0 1 1.09,-2.63 3.73,3.73 0 0 1 5.25,0 4.15,4.15 0 0 1 0.27,0.32 L 33.94,3.82 a 3.72,3.72 0 1 1 4.16,4.07 l -7.23,26.9 a 2.91,2.91 0 0 1 0.46,0.38 3.72,3.72 0 0 1 -2.63,6.33 z"
     id="path1"
     style="fill:white" />
  <path
     class="cls-2"
     d="M 39.9,1.94 A 3.21,3.21 0 0 0 34.42,4.21 3.22,3.22 0 1 0 39.9,1.94 m -1.23,3.31 a 1.43,1.43 0 0 1 -1,0.43 1.46,1.46 0 0 1 -1,-0.43 1.48,1.48 0 0 1 -0.43,-1 1.5,1.5 0 0 1 0.43,-1 v 0 a 1.5,1.5 0 0 1 1,-0.43 1.47,1.47 0 0 1 1.43,1.39 1.44,1.44 0 0 1 -0.43,1 M 6.48,11 a 3.21,3.21 0 0 0 -4.54,0 3.22,3.22 0 0 0 0,4.54 A 3.2102648,3.2102648 0 1 0 6.48,11 m -1.23,3.34 a 1.47,1.47 0 0 1 -2.08,0 1.48,1.48 0 0 1 0,-2.08 1.47,1.47 0 0 1 2.08,0 1.48,1.48 0 0 1 0,2.08 m 21.18,21.18 a 3.21,3.21 0 1 0 4.54,0 3.2,3.2 0 0 0 -4.54,0 m 3.31,3.31 a 1.48,1.48 0 0 1 -2.08,0 1.47,1.47 0 0 1 0,-2.08 v 0 a 1.4707821,1.4707821 0 0 1 2.08,2.08 m 5.9,-30.56 a 4.62,4.62 0 0 0 1.69,0.45 l -6.7,25 A 4.54,4.54 0 0 0 28.94,33.29 Z M 25.5,34.59 a 4.43,4.43 0 0 0 -0.55,0.68 L 6.73,17.05 A 4.43,4.43 0 0 0 7.41,16.5 5,5 0 0 0 8,15.82 L 26.18,34 A 4.43,4.43 0 0 0 25.5,34.55 M 8.71,12.87 A 4.59,4.59 0 0 0 8.21,11.19 L 33.13,4.52 A 4.51,4.51 0 0 0 33.58,6.2 Z M 34.44,7.41 A 4.5,4.5 0 0 1 33.88,6.73 L 25.65,15 a 3.28,3.28 0 0 0 -1.57,-0.41 3.2,3.2 0 0 0 -2.27,0.94 3.11,3.11 0 0 0 -0.56,0.76 L 8.73,13.33 A 4.63,4.63 0 0 1 8.38,15 l 12.5,3 a 3.19,3.19 0 0 0 3.06,3 l 2.91,12.7 a 4.63,4.63 0 0 1 1.7,-0.39 l -2.91,-12.7 a 3.41,3.41 0 0 0 0.71,-0.54 3.19,3.19 0 0 0 0.94,-2.27 3.14,3.14 0 0 0 -0.41,-1.57 L 35.11,8 A 4.89,4.89 0 0 1 34.44,7.45 M 22.61,17.77 a 1.43,1.43 0 0 1 0.43,-1 v 0 a 1.47,1.47 0 0 1 2.08,0 1.43,1.43 0 0 1 0.43,1 1.46,1.46 0 0 1 -0.43,1 1.47,1.47 0 0 1 -2.08,0 1.46,1.46 0 0 1 -0.43,-1"
     id="path3"
     style="fill:#2c5967" />
</svg>
