<svg id="Layer_1" data-name="Layer 1" xmlns="http://www.w3.org/2000/svg" viewBox="0 0 52.45 42"><defs><style>.cls-1{fill:#fff;}.cls-2{fill:#2c5967;}</style></defs><title>Transaction Manager</title><metadata><?xpacket begin="﻿" id="W5M0MpCehiHzreSzNTczkc9d"?>
<x:xmpmeta xmlns:x="adobe:ns:meta/" x:xmptk="Adobe XMP Core 6.0-c006 79.164648, 2021/01/12-15:52:29        ">
   <rdf:RDF xmlns:rdf="http://www.w3.org/1999/02/22-rdf-syntax-ns#">
      <rdf:Description rdf:about=""
            xmlns:xmp="http://ns.adobe.com/xap/1.0/"
            xmlns:xmpMM="http://ns.adobe.com/xap/1.0/mm/"
            xmlns:stEvt="http://ns.adobe.com/xap/1.0/sType/ResourceEvent#"
            xmlns:xmpRights="http://ns.adobe.com/xap/1.0/rights/"
            xmlns:dc="http://purl.org/dc/elements/1.1/"
            xmlns:lr="http://ns.adobe.com/lightroom/1.0/">
         <xmp:MetadataDate>2022-11-28T16:51:51-06:00</xmp:MetadataDate>
         <xmpMM:InstanceID>xmp.iid:7793a772-b8d5-4d3e-899a-011456fd7a76</xmpMM:InstanceID>
         <xmpMM:DocumentID>xmp.did:c3980a98-1a30-4e3f-977a-bcb056f4f5b5</xmpMM:DocumentID>
         <xmpMM:OriginalDocumentID>xmp.did:c3980a98-1a30-4e3f-977a-bcb056f4f5b5</xmpMM:OriginalDocumentID>
         <xmpMM:History>
            <rdf:Seq>
               <rdf:li>
                  <rdf:Description>
                     <stEvt:action>saved</stEvt:action>
                     <stEvt:instanceID>xmp.iid:c3980a98-1a30-4e3f-977a-bcb056f4f5b5</stEvt:instanceID>
                     <stEvt:when>2021-06-18T11:41:55-05:00</stEvt:when>
                     <stEvt:softwareAgent>Adobe Bridge 2021 (Macintosh)</stEvt:softwareAgent>
                     <stEvt:changed>/metadata</stEvt:changed>
                  </rdf:Description>
               </rdf:li>
               <rdf:li>
                  <rdf:Description>
                     <stEvt:action>saved</stEvt:action>
                     <stEvt:instanceID>xmp.iid:7793a772-b8d5-4d3e-899a-011456fd7a76</stEvt:instanceID>
                     <stEvt:when>2022-11-28T16:51:51-06:00</stEvt:when>
                     <stEvt:softwareAgent>Adobe Bridge 2021 (Macintosh)</stEvt:softwareAgent>
                     <stEvt:changed>/metadata</stEvt:changed>
                  </rdf:Description>
               </rdf:li>
            </rdf:Seq>
         </xmpMM:History>
         <xmpRights:Marked>True</xmpRights:Marked>
         <dc:title>
            <rdf:Alt>
               <rdf:li xml:lang="x-default">Transaction Manager</rdf:li>
            </rdf:Alt>
         </dc:title>
         <dc:subject>
            <rdf:Bag>
               <rdf:li>icon</rdf:li>
               <rdf:li>technology</rdf:li>
               <rdf:li>finance</rdf:li>
               <rdf:li>transform</rdf:li>
               <rdf:li>folder</rdf:li>
               <rdf:li>file</rdf:li>
               <rdf:li>convert</rdf:li>
            </rdf:Bag>
         </dc:subject>
         <dc:rights>
            <rdf:Alt>
               <rdf:li xml:lang="x-default">Oracle All Rights Reserved</rdf:li>
            </rdf:Alt>
         </dc:rights>
         <lr:hierarchicalSubject>
            <rdf:Bag>
               <rdf:li>icon</rdf:li>
               <rdf:li>technology</rdf:li>
            </rdf:Bag>
         </lr:hierarchicalSubject>
      </rdf:Description>
   </rdf:RDF>
</x:xmpmeta>
                                                                                                    
                                                                                                    
                                                                                                    
                                                                                                    
                                                                                                    
                                                                                                    
                                                                                                    
                                                                                                    
                                                                                                    
                                                            
<?xpacket end="w"?></metadata>
<path class="cls-1" d="M.5,41.5V3.37A2.87,2.87,0,0,1,3.36.5h13.1a2.87,2.87,0,0,1,2.3,1.16l2.67,3.6H49.09A2.86,2.86,0,0,1,52,8.12V41.5Z"/><path class="cls-1" d="M16.46,1a2.38,2.38,0,0,1,1.89,1l2.83,3.81H49.09a2.36,2.36,0,0,1,2.36,2.36V41H1V3.36A2.36,2.36,0,0,1,3.36,1h13.1m0-1H3.36A3.37,3.37,0,0,0,0,3.36V42H52.45V8.12a3.37,3.37,0,0,0-3.36-3.36H21.69l-2.53-3.4A3.38,3.38,0,0,0,16.46,0Z"/><path class="cls-2" d="M49.09,5.76H21.18L18.35,2A2.38,2.38,0,0,0,16.46,1H3.36A2.37,2.37,0,0,0,1,3.37V41H51.45V8.12A2.36,2.36,0,0,0,49.09,5.76ZM3.36,3.1h13.1a.26.26,0,0,1,.21.11l2.68,3.61-2.68,3.56a.26.26,0,0,1-.21.11H3.1V3.37A.27.27,0,0,1,3.36,3.1Zm46,35.8H3.1V12.59H16.46a2.37,2.37,0,0,0,1.89-.94L21.2,7.86H49.09a.26.26,0,0,1,.26.26Z"/><rect class="cls-2" x="5.47" y="5.76" width="9.72" height="2.1"/><path class="cls-2" d="M32.7,16H30.85v2.1H36.4V12.57H34.3v2a12.65,12.65,0,0,0-15-.87,8.41,8.41,0,0,1,1.91,1.31A10.55,10.55,0,0,1,32.7,16Z"/><path class="cls-2" d="M22.66,34.19l-.71,2a12.44,12.44,0,0,0,4.28.75h.22l0-2.1A10.19,10.19,0,0,1,22.66,34.19Z"/><path class="cls-2" d="M28.31,34.61l.42,2.06A12.66,12.66,0,0,0,33,35l-.15-.24a8.43,8.43,0,0,1-1.6-1.17A10.6,10.6,0,0,1,28.31,34.61Z"/><path class="cls-2" d="M16.09,36.07h2.1V34a11.62,11.62,0,0,0,1.69,1.18l1.05-1.81a10.72,10.72,0,0,1-1.13-.77h1.84v-2.1H16.09Z"/><path class="cls-2" d="M37.14,19.87a7.22,7.22,0,1,0,7.22,7.21A7.21,7.21,0,0,0,37.14,19.87Zm0,12.32a5.11,5.11,0,1,1,5.12-5.11A5.11,5.11,0,0,1,37.14,32.19Z"/><polygon class="cls-2" points="38.62 24.38 37.26 25.74 35.91 24.38 34.42 25.86 35.78 27.22 34.42 28.58 35.91 30.07 37.26 28.71 38.62 30.07 40.11 28.58 38.75 27.22 40.11 25.86 38.62 24.38"/><path class="cls-2" d="M15.33,14.35a7.22,7.22,0,1,0,7.22,7.21A7.21,7.21,0,0,0,15.33,14.35Zm0,2.1a5.12,5.12,0,1,1-5.11,5.11A5.12,5.12,0,0,1,15.33,16.45Z"/><polygon class="cls-2" points="14.7 24.67 18.61 20.78 17.13 19.29 14.7 21.71 13.54 20.55 12.05 22.04 14.7 24.67"/></svg>