<svg xmlns="http://www.w3.org/2000/svg" viewBox="0 0 42 26.35"><metadata><?xpacket begin="﻿" id="W5M0MpCehiHzreSzNTczkc9d"?>
<x:xmpmeta xmlns:x="adobe:ns:meta/" x:xmptk="Adobe XMP Core 6.0-c006 79.164648, 2021/01/12-15:52:29        ">
   <rdf:RDF xmlns:rdf="http://www.w3.org/1999/02/22-rdf-syntax-ns#">
      <rdf:Description rdf:about=""
            xmlns:dc="http://purl.org/dc/elements/1.1/"
            xmlns:xmp="http://ns.adobe.com/xap/1.0/"
            xmlns:xmpMM="http://ns.adobe.com/xap/1.0/mm/"
            xmlns:stEvt="http://ns.adobe.com/xap/1.0/sType/ResourceEvent#"
            xmlns:lr="http://ns.adobe.com/lightroom/1.0/"
            xmlns:xmpRights="http://ns.adobe.com/xap/1.0/rights/">
         <dc:subject>
            <rdf:Bag>
               <rdf:li>icon</rdf:li>
               <rdf:li>Ip</rdf:li>
               <rdf:li>letter</rdf:li>
               <rdf:li>Document</rdf:li>
               <rdf:li>file</rdf:li>
            </rdf:Bag>
         </dc:subject>
         <dc:rights>
            <rdf:Alt>
               <rdf:li xml:lang="x-default">Oracle All rights reserved</rdf:li>
            </rdf:Alt>
         </dc:rights>
         <xmp:MetadataDate>2022-07-28T15:45:39-05:00</xmp:MetadataDate>
         <xmpMM:InstanceID>xmp.iid:4919905f-3aa3-4a28-9a94-69c01c70fd9e</xmpMM:InstanceID>
         <xmpMM:DocumentID>xmp.did:8d86ac0b-0e05-4fa1-a760-a543d3f5ce9f</xmpMM:DocumentID>
         <xmpMM:OriginalDocumentID>xmp.did:8d86ac0b-0e05-4fa1-a760-a543d3f5ce9f</xmpMM:OriginalDocumentID>
         <xmpMM:History>
            <rdf:Seq>
               <rdf:li>
                  <rdf:Description>
                     <stEvt:action>saved</stEvt:action>
                     <stEvt:instanceID>xmp.iid:8d86ac0b-0e05-4fa1-a760-a543d3f5ce9f</stEvt:instanceID>
                     <stEvt:when>2022-07-28T15:35:33-05:00</stEvt:when>
                     <stEvt:softwareAgent>Adobe Bridge 2021 (Macintosh)</stEvt:softwareAgent>
                     <stEvt:changed>/metadata</stEvt:changed>
                  </rdf:Description>
               </rdf:li>
               <rdf:li>
                  <rdf:Description>
                     <stEvt:action>saved</stEvt:action>
                     <stEvt:instanceID>xmp.iid:4919905f-3aa3-4a28-9a94-69c01c70fd9e</stEvt:instanceID>
                     <stEvt:when>2022-07-28T15:45:39-05:00</stEvt:when>
                     <stEvt:softwareAgent>Adobe Bridge 2021 (Macintosh)</stEvt:softwareAgent>
                     <stEvt:changed>/metadata</stEvt:changed>
                  </rdf:Description>
               </rdf:li>
            </rdf:Seq>
         </xmpMM:History>
         <lr:hierarchicalSubject>
            <rdf:Bag>
               <rdf:li>Other Keywords|icon</rdf:li>
            </rdf:Bag>
         </lr:hierarchicalSubject>
         <xmpRights:Marked>True</xmpRights:Marked>
      </rdf:Description>
   </rdf:RDF>
</x:xmpmeta>
                                                                                                    
                                                                                                    
                                                                                                    
                                                                                                    
                                                                                                    
                                                                                                    
                                                                                                    
                                                                                                    
                                                                     
<?xpacket end="w"?></metadata>
<g id="Layer_2" data-name="Layer 2"><g id="Layer_1-2" data-name="Layer 1"><polygon points="29.02 25.85 29.02 23.41 0.5 23.41 0.5 0.5 39.06 0.5 39.06 12.67 41.5 12.67 41.5 25.85 29.02 25.85" fill="#fff"/><path d="M38.57,1V13.17H41V25.35H29.52V22.91H1V1H38.57m1-1H0V23.91H28.52v2.44H42V12.17H39.57V0Z" fill="#fff"/><polygon points="2.39 21.52 2.39 2.39 3.44 2.39 3.44 1 1 1 1 22.91 3.44 22.91 3.44 21.52 2.39 21.52" fill="#2c5967"/><polygon points="5.87 21.52 5.87 2.39 6.91 2.39 6.91 1 4.48 1 4.48 22.91 6.91 22.91 6.91 21.52 5.87 21.52" fill="#2c5967"/><polygon points="9.35 1 9.17 1 7.96 1 7.96 2.39 7.96 21.52 7.96 22.91 9.17 22.91 9.35 22.91 28.48 22.91 28.48 21.52 9.35 21.52 9.35 2.39 37.17 2.39 37.17 12.13 38.56 12.13 38.56 1 9.35 1" fill="#2c5967"/><rect x="10.74" y="3.78" width="9.04" height="1.39" fill="#2c5967"/><rect x="10.74" y="6.22" width="9.04" height="1.39" fill="#2c5967"/><rect x="10.74" y="8.65" width="9.04" height="1.39" fill="#2c5967"/><rect x="24.3" y="16.3" width="4.17" height="1.39" fill="#2c5967"/><rect x="24.3" y="18.74" width="4.17" height="1.39" fill="#2c5967"/><path d="M29.52,13.17V25.35H41V13.17ZM39.61,24h-8.7V14.57h8.7Z" fill="#2c5967"/><rect x="32.62" y="17.19" width="1" height="4.68" fill="#2c5967"/><path d="M36.21,17.19H34.53v4.68h1V20.36h.68a1.91,1.91,0,0,0,1.3-.4A1.55,1.55,0,0,0,38,18.77a1.53,1.53,0,0,0-.44-1.18A1.86,1.86,0,0,0,36.21,17.19Zm.52,2.17a1.15,1.15,0,0,1-.73.18h-.47V18H36a1.22,1.22,0,0,1,.73.17.75.75,0,0,1,.22.59A.72.72,0,0,1,36.73,19.36Z" fill="#2c5967"/><path d="M29.52,3.78V10h6.26V3.78Zm4.87,4.87H30.91V5.17h3.48Z" fill="#2c5967"/></g></g></svg>