<svg xmlns="http://www.w3.org/2000/svg" viewBox="0 0 42 29.48"><metadata><?xpacket begin="﻿" id="W5M0MpCehiHzreSzNTczkc9d"?>
<x:xmpmeta xmlns:x="adobe:ns:meta/" x:xmptk="Adobe XMP Core 6.0-c006 79.164648, 2021/01/12-15:52:29        ">
   <rdf:RDF xmlns:rdf="http://www.w3.org/1999/02/22-rdf-syntax-ns#">
      <rdf:Description rdf:about=""
            xmlns:lr="http://ns.adobe.com/lightroom/1.0/"
            xmlns:dc="http://purl.org/dc/elements/1.1/"
            xmlns:xmp="http://ns.adobe.com/xap/1.0/"
            xmlns:xmpMM="http://ns.adobe.com/xap/1.0/mm/"
            xmlns:stEvt="http://ns.adobe.com/xap/1.0/sType/ResourceEvent#"
            xmlns:xmpRights="http://ns.adobe.com/xap/1.0/rights/">
         <lr:hierarchicalSubject>
            <rdf:Bag>
               <rdf:li>Other Keywords|icon</rdf:li>
            </rdf:Bag>
         </lr:hierarchicalSubject>
         <dc:subject>
            <rdf:Bag>
               <rdf:li>Ip</rdf:li>
               <rdf:li>letter</rdf:li>
               <rdf:li>Document</rdf:li>
               <rdf:li>file</rdf:li>
               <rdf:li>icon</rdf:li>
            </rdf:Bag>
         </dc:subject>
         <dc:rights>
            <rdf:Alt>
               <rdf:li xml:lang="x-default">Oracle All rights reserved</rdf:li>
            </rdf:Alt>
         </dc:rights>
         <xmp:MetadataDate>2022-07-28T15:45:39-05:00</xmp:MetadataDate>
         <xmpMM:InstanceID>xmp.iid:0dfd2b1d-d2f2-4b7b-9cbf-f51440147fe8</xmpMM:InstanceID>
         <xmpMM:DocumentID>xmp.did:7713a17a-3a7f-4b66-aad1-77baea465251</xmpMM:DocumentID>
         <xmpMM:OriginalDocumentID>xmp.did:7713a17a-3a7f-4b66-aad1-77baea465251</xmpMM:OriginalDocumentID>
         <xmpMM:History>
            <rdf:Seq>
               <rdf:li>
                  <rdf:Description>
                     <stEvt:action>saved</stEvt:action>
                     <stEvt:instanceID>xmp.iid:7713a17a-3a7f-4b66-aad1-77baea465251</stEvt:instanceID>
                     <stEvt:when>2022-07-28T15:35:49-05:00</stEvt:when>
                     <stEvt:softwareAgent>Adobe Bridge 2021 (Macintosh)</stEvt:softwareAgent>
                     <stEvt:changed>/metadata</stEvt:changed>
                  </rdf:Description>
               </rdf:li>
               <rdf:li>
                  <rdf:Description>
                     <stEvt:action>saved</stEvt:action>
                     <stEvt:instanceID>xmp.iid:0dfd2b1d-d2f2-4b7b-9cbf-f51440147fe8</stEvt:instanceID>
                     <stEvt:when>2022-07-28T15:45:39-05:00</stEvt:when>
                     <stEvt:softwareAgent>Adobe Bridge 2021 (Macintosh)</stEvt:softwareAgent>
                     <stEvt:changed>/metadata</stEvt:changed>
                  </rdf:Description>
               </rdf:li>
            </rdf:Seq>
         </xmpMM:History>
         <xmpRights:Marked>True</xmpRights:Marked>
      </rdf:Description>
   </rdf:RDF>
</x:xmpmeta>
                                                                                                    
                                                                                                    
                                                                                                    
                                                                                                    
                                                                                                    
                                                                                                    
                                                                                                    
                                                                                                    
                                                                                                    
                                                                                                    
                                                                                           
<?xpacket end="w"?></metadata>
<g id="Layer_2" data-name="Layer 2"><g id="Layer_1-2" data-name="Layer 1"><polygon points="29.02 28.98 29.02 26.54 11.12 26.54 10.67 26.16 9.52 25.26 10.98 23.41 0.5 23.41 0.5 0.5 29.57 0.5 29.75 0.61 31.2 1.76 29.75 3.63 39.06 3.63 39.06 15.8 41.5 15.8 41.5 28.98 29.02 28.98" fill="#fff"/><path d="M29.43,1l1.07.85L28.72,4.13h9.85V16.3H41V28.48H29.52V26H11.3l-.3-.26-.78-.6L12,22.91H1V1H29.43m.35-1H0V23.91H10l-.51.65-.63.79.8.62.75.58.29.25.28.24H28.52v2.44H42V15.3H39.57V3.13h-8.8l.52-.67.61-.78-.78-.61L30.06.22,29.78,0Z" fill="#fff"/><polygon points="2.39 21.52 2.39 2.39 3.44 2.39 3.44 1 1 1 1 22.91 3.44 22.91 3.44 21.52 2.39 21.52" fill="#2c5967"/><polygon points="5.87 21.52 5.87 2.39 6.91 2.39 6.91 1 4.48 1 4.48 22.91 6.91 22.91 6.91 21.52 5.87 21.52" fill="#2c5967"/><polygon points="10.69 22.91 11.79 21.52 10.39 21.52 9.35 21.52 9.35 20.48 9.35 2.39 26.96 2.39 28.06 1 26.74 1 9.35 1 7.96 1 7.96 2.39 7.96 21.52 7.96 22.91 9.35 22.91 10.69 22.91" fill="#2c5967"/><rect x="10.74" y="3.78" width="9.04" height="1.39" fill="#2c5967"/><rect x="10.74" y="6.22" width="9.04" height="1.39" fill="#2c5967"/><rect x="10.74" y="8.65" width="9.04" height="1.39" fill="#2c5967"/><polygon points="30.02 4.13 28.92 5.52 30.39 5.52 37.17 5.52 37.17 15.26 38.56 15.26 38.56 4.13 30.02 4.13" fill="#2c5967"/><polygon points="13.75 24.65 12.64 26.04 14.04 26.04 28.48 26.04 28.48 24.65 13.75 24.65" fill="#2c5967"/><polygon points="11.32 26.04 11.31 26.04 30.5 1.85 29.41 0.98 10.22 25.18 11.3 26.03 11.3 26.04 11.32 26.04" fill="#2c5967"/><rect x="24.3" y="19.43" width="4.17" height="1.39" fill="#2c5967"/><rect x="24.3" y="21.87" width="4.17" height="1.39" fill="#2c5967"/><path d="M29.52,16.3V28.48H41V16.3ZM39.61,27.09h-8.7V17.7h8.7Z" fill="#2c5967"/><rect x="32.62" y="20.32" width="1" height="4.68" fill="#2c5967"/><path d="M36.21,20.32H34.53V25h1V23.49h.68a1.91,1.91,0,0,0,1.3-.4A1.55,1.55,0,0,0,38,21.9a1.53,1.53,0,0,0-.44-1.18A1.86,1.86,0,0,0,36.21,20.32Zm.52,2.17a1.15,1.15,0,0,1-.73.18h-.47V21.14H36a1.22,1.22,0,0,1,.73.17.75.75,0,0,1,.22.59A.72.72,0,0,1,36.73,22.49Z" fill="#2c5967"/><path d="M29.52,6.91v6.26h6.26V6.91Zm4.87,4.87H30.91V8.3h3.48Z" fill="#2c5967"/></g></g></svg>