<svg id="Layer_1" data-name="Layer 1" xmlns="http://www.w3.org/2000/svg" viewBox="0 0 23.38 42"><title>Customer Data Center</title><metadata><?xpacket begin="﻿" id="W5M0MpCehiHzreSzNTczkc9d"?>
<x:xmpmeta xmlns:x="adobe:ns:meta/" x:xmptk="Adobe XMP Core 6.0-c006 79.164648, 2021/01/12-15:52:29        ">
   <rdf:RDF xmlns:rdf="http://www.w3.org/1999/02/22-rdf-syntax-ns#">
      <rdf:Description rdf:about=""
            xmlns:xmp="http://ns.adobe.com/xap/1.0/"
            xmlns:xmpMM="http://ns.adobe.com/xap/1.0/mm/"
            xmlns:stEvt="http://ns.adobe.com/xap/1.0/sType/ResourceEvent#"
            xmlns:dc="http://purl.org/dc/elements/1.1/">
         <xmp:MetadataDate>2022-11-11T14:08:20-06:00</xmp:MetadataDate>
         <xmpMM:InstanceID>xmp.iid:1d54ef81-5784-4436-ac7c-dffbe75baa6b</xmpMM:InstanceID>
         <xmpMM:DocumentID>xmp.did:bd57e441-681b-460d-9c40-2025c3708d98</xmpMM:DocumentID>
         <xmpMM:OriginalDocumentID>xmp.did:bd57e441-681b-460d-9c40-2025c3708d98</xmpMM:OriginalDocumentID>
         <xmpMM:History>
            <rdf:Seq>
               <rdf:li>
                  <rdf:Description>
                     <stEvt:action>saved</stEvt:action>
                     <stEvt:instanceID>xmp.iid:bd57e441-681b-460d-9c40-2025c3708d98</stEvt:instanceID>
                     <stEvt:when>2021-08-31T15:42:54-05:00</stEvt:when>
                     <stEvt:softwareAgent>Adobe Bridge 2021 (Macintosh)</stEvt:softwareAgent>
                     <stEvt:changed>/metadata</stEvt:changed>
                  </rdf:Description>
               </rdf:li>
               <rdf:li>
                  <rdf:Description>
                     <stEvt:action>saved</stEvt:action>
                     <stEvt:instanceID>xmp.iid:1d54ef81-5784-4436-ac7c-dffbe75baa6b</stEvt:instanceID>
                     <stEvt:when>2022-11-11T14:08:20-06:00</stEvt:when>
                     <stEvt:softwareAgent>Adobe Bridge 2021 (Macintosh)</stEvt:softwareAgent>
                     <stEvt:changed>/metadata</stEvt:changed>
                  </rdf:Description>
               </rdf:li>
            </rdf:Seq>
         </xmpMM:History>
         <dc:title>
            <rdf:Alt>
               <rdf:li xml:lang="x-default">Customer Data Center</rdf:li>
            </rdf:Alt>
         </dc:title>
         <dc:subject>
            <rdf:Bag>
               <rdf:li>Customer</rdf:li>
               <rdf:li>Data</rdf:li>
               <rdf:li>Center</rdf:li>
               <rdf:li>icon</rdf:li>
               <rdf:li>server</rdf:li>
               <rdf:li>machine</rdf:li>
            </rdf:Bag>
         </dc:subject>
      </rdf:Description>
   </rdf:RDF>
</x:xmpmeta>
                                                                                                    
                                                                                                    
                                                                                                    
                                                                                                    
                                                                                                    
                                                                                                    
                                                                                                    
                                                                                                    
                                                                                                    
                                                                                                    
                                                                                                    
                                                                                                    
                                                                                                    
                                                      
<?xpacket end="w"?></metadata>
<rect x="0.5" y="0.5" width="22.38" height="41" rx="2.05" fill="#fff"/><path d="M20.83,1a1.56,1.56,0,0,1,1.55,1.55v36.9A1.56,1.56,0,0,1,20.83,41H2.55A1.56,1.56,0,0,1,1,39.45V2.55A1.56,1.56,0,0,1,2.55,1H20.83m0-1H2.55A2.55,2.55,0,0,0,0,2.55v36.9A2.55,2.55,0,0,0,2.55,42H20.83a2.55,2.55,0,0,0,2.55-2.55V2.55A2.55,2.55,0,0,0,20.83,0Z" fill="#fff"/><path d="M20.83,1H2.55A1.56,1.56,0,0,0,1,2.55v36.9A1.56,1.56,0,0,0,2.55,41H20.83a1.56,1.56,0,0,0,1.55-1.55V2.55A1.56,1.56,0,0,0,20.83,1ZM21,39.45a.18.18,0,0,1-.17.17H2.55a.18.18,0,0,1-.17-.17V2.55a.18.18,0,0,1,.17-.17H20.83a.18.18,0,0,1,.17.17Z" fill="#2c5967"/><path d="M3.41,9.62H20V3.41H3.41ZM4.79,4.79h13.8V8.24H4.79Z" fill="#2c5967"/><circle cx="16.86" cy="6.52" r="0.69" fill="#2c5967"/><path d="M3.41,16.86H20v-6.2H3.41ZM4.79,12h13.8v3.45H4.79Z" fill="#2c5967"/><circle cx="16.86" cy="13.76" r="0.69" fill="#2c5967"/><path d="M3.41,24.1H20V17.9H3.41Zm1.38-4.82h13.8v3.44H4.79Z" fill="#2c5967"/><circle cx="16.86" cy="21" r="0.69" fill="#2c5967"/><path d="M3.41,31.34H20v-6.2H3.41Zm1.38-4.82h13.8V30H4.79Z" fill="#2c5967"/><circle cx="16.86" cy="28.24" r="0.69" fill="#2c5967"/><path d="M3.41,38.59H20V32.38H3.41Zm1.38-4.83h13.8v3.45H4.79Z" fill="#2c5967"/><circle cx="16.86" cy="35.48" r="0.69" fill="#2c5967"/></svg>