<svg id="Layer_1" data-name="Layer 1" xmlns="http://www.w3.org/2000/svg" viewBox="0 0 43.18 42"><defs><style>.cls-1{fill:#fff;}.cls-2{fill:#2c5967;}</style></defs><title>Active Directory</title><metadata><?xpacket begin="﻿" id="W5M0MpCehiHzreSzNTczkc9d"?>
<x:xmpmeta xmlns:x="adobe:ns:meta/" x:xmptk="Adobe XMP Core 6.0-c006 79.164648, 2021/01/12-15:52:29        ">
   <rdf:RDF xmlns:rdf="http://www.w3.org/1999/02/22-rdf-syntax-ns#">
      <rdf:Description rdf:about=""
            xmlns:xmp="http://ns.adobe.com/xap/1.0/"
            xmlns:xmpMM="http://ns.adobe.com/xap/1.0/mm/"
            xmlns:stEvt="http://ns.adobe.com/xap/1.0/sType/ResourceEvent#"
            xmlns:xmpRights="http://ns.adobe.com/xap/1.0/rights/"
            xmlns:dc="http://purl.org/dc/elements/1.1/"
            xmlns:lr="http://ns.adobe.com/lightroom/1.0/">
         <xmp:MetadataDate>2022-11-28T11:38:17-06:00</xmp:MetadataDate>
         <xmpMM:InstanceID>xmp.iid:68c03c5a-19a1-46ca-88b7-6829e07e842a</xmpMM:InstanceID>
         <xmpMM:DocumentID>xmp.did:e00c43e7-56b5-49f2-87a1-84baa70abca1</xmpMM:DocumentID>
         <xmpMM:OriginalDocumentID>xmp.did:e00c43e7-56b5-49f2-87a1-84baa70abca1</xmpMM:OriginalDocumentID>
         <xmpMM:History>
            <rdf:Seq>
               <rdf:li>
                  <rdf:Description>
                     <stEvt:action>saved</stEvt:action>
                     <stEvt:instanceID>xmp.iid:e00c43e7-56b5-49f2-87a1-84baa70abca1</stEvt:instanceID>
                     <stEvt:when>2021-06-18T11:41:54-05:00</stEvt:when>
                     <stEvt:softwareAgent>Adobe Bridge 2021 (Macintosh)</stEvt:softwareAgent>
                     <stEvt:changed>/metadata</stEvt:changed>
                  </rdf:Description>
               </rdf:li>
               <rdf:li>
                  <rdf:Description>
                     <stEvt:action>saved</stEvt:action>
                     <stEvt:instanceID>xmp.iid:68c03c5a-19a1-46ca-88b7-6829e07e842a</stEvt:instanceID>
                     <stEvt:when>2022-11-28T11:38:17-06:00</stEvt:when>
                     <stEvt:softwareAgent>Adobe Bridge 2021 (Macintosh)</stEvt:softwareAgent>
                     <stEvt:changed>/metadata</stEvt:changed>
                  </rdf:Description>
               </rdf:li>
            </rdf:Seq>
         </xmpMM:History>
         <xmpRights:Marked>True</xmpRights:Marked>
         <dc:title>
            <rdf:Alt>
               <rdf:li xml:lang="x-default">Active Directory</rdf:li>
            </rdf:Alt>
         </dc:title>
         <dc:subject>
            <rdf:Bag>
               <rdf:li>icon</rdf:li>
               <rdf:li>Directory</rdf:li>
               <rdf:li>Folder</rdf:li>
               <rdf:li>Database</rdf:li>
               <rdf:li>Structure</rdf:li>
               <rdf:li>technology</rdf:li>
               <rdf:li>file</rdf:li>
               <rdf:li>database</rdf:li>
               <rdf:li>connection</rdf:li>
               <rdf:li>network</rdf:li>
            </rdf:Bag>
         </dc:subject>
         <dc:rights>
            <rdf:Alt>
               <rdf:li xml:lang="x-default">Oracle All Rights Reserved</rdf:li>
            </rdf:Alt>
         </dc:rights>
         <lr:hierarchicalSubject>
            <rdf:Bag>
               <rdf:li>icon</rdf:li>
               <rdf:li>Directory </rdf:li>
               <rdf:li>Folder</rdf:li>
               <rdf:li>Database</rdf:li>
               <rdf:li>Structure</rdf:li>
               <rdf:li>technology</rdf:li>
            </rdf:Bag>
         </lr:hierarchicalSubject>
      </rdf:Description>
   </rdf:RDF>
</x:xmpmeta>
                                                                                                    
                                                                                                    
                                                                                                    
                                                                                                    
                                                                                                    
                                                                                                    
                                                                       
<?xpacket end="w"?></metadata>
<path class="cls-1" d="M38.09,41.5a4.59,4.59,0,0,1-1.25-9V30.07H24a2.69,2.69,0,0,1-1.18,1.18V32.5a4.59,4.59,0,1,1-2.49,0V31.25a2.69,2.69,0,0,1-1.18-1.18H6.39v2.44a4.59,4.59,0,1,1-2.49,0v-4.9H19.17a2.77,2.77,0,0,1,1.18-1.19V24.83H6.42V2.5a2,2,0,0,1,2-2H16a2,2,0,0,1,1.61.81L19,3.24H34.78a2,2,0,0,1,2,2V24.83H22.84v1.56A2.77,2.77,0,0,1,24,27.58H39.33V32.5a4.58,4.58,0,0,1-1.24,9Z"/><path class="cls-1" d="M16,1a1.51,1.51,0,0,1,1.21.61l1.59,2.13h16a1.51,1.51,0,0,1,1.5,1.5V24.33H22.34v2.39a2.29,2.29,0,0,1,1.36,1.36H38.83v4.81a4.09,4.09,0,1,1-1.48,0V29.57H23.7a2.24,2.24,0,0,1-1.36,1.35v2a4.09,4.09,0,1,1-1.49,0v-2a2.2,2.2,0,0,1-1.35-1.35H5.89V32.9a4.09,4.09,0,1,1-1.49,0v-4.8H19.5a2.24,2.24,0,0,1,1.35-1.36V24.33H6.92V2.5A1.5,1.5,0,0,1,8.42,1H16m0-1H8.42a2.5,2.5,0,0,0-2.5,2.5V25.33H19.85v.78a3.21,3.21,0,0,0-1,1H3.4v5a5.09,5.09,0,1,0,3.49,0V30.57h12a3.21,3.21,0,0,0,1,1v.59a5.09,5.09,0,1,0,3.49,0v-.59a3.21,3.21,0,0,0,1-1h12v1.56a5.09,5.09,0,1,0,3.48,0V27.08H24.31a3.21,3.21,0,0,0-1-1v-.78H37.28V5.24a2.51,2.51,0,0,0-2.5-2.5H19.26L18,1a2.52,2.52,0,0,0-2-1Z"/><path class="cls-2" d="M38.83,32.89V28.08H23.7a2.29,2.29,0,0,0-1.36-1.36V24.33H36.28V5.24a1.51,1.51,0,0,0-1.5-1.5h-16L17.17,1.61A1.51,1.51,0,0,0,16,1H8.42A1.51,1.51,0,0,0,6.91,2.5V24.33H20.85v2.39a2.24,2.24,0,0,0-1.35,1.36H4.4v4.8a4.09,4.09,0,1,0,1.49,0V29.57H19.5a2.2,2.2,0,0,0,1.35,1.35v2a4.09,4.09,0,1,0,1.49,0v-2a2.24,2.24,0,0,0,1.36-1.35H37.35v3.32a4.09,4.09,0,1,0,1.48,0ZM8.4,2.5H16l2,2.74H34.79V22.85H8.4ZM2.49,36.91a2.6,2.6,0,1,1,2.6,2.6A2.6,2.6,0,0,1,2.49,36.91ZM21.6,29.57a.76.76,0,0,1-.75-.75.75.75,0,0,1,.75-.74.74.74,0,0,1,.74.74A.75.75,0,0,1,21.6,29.57Zm0,9.94a2.6,2.6,0,1,1,2.6-2.6A2.6,2.6,0,0,1,21.6,39.51Zm13.89-2.6a2.6,2.6,0,1,1,2.6,2.6A2.6,2.6,0,0,1,35.49,36.91Z"/><path class="cls-2" d="M28.66,18.28h0V9.82l0-.12a2,2,0,0,0-1.13-1.53,8.41,8.41,0,0,0-2.62-.89A17.29,17.29,0,0,0,21.6,7a17.5,17.5,0,0,0-3.34.3,8.08,8.08,0,0,0-2.64.93,1.93,1.93,0,0,0-1.08,1.6v8.46h0a1.91,1.91,0,0,0,1.08,1.59,7.84,7.84,0,0,0,2.64.94,17.5,17.5,0,0,0,3.34.3,17.5,17.5,0,0,0,3.34-.3,7.84,7.84,0,0,0,2.64-.94A1.91,1.91,0,0,0,28.66,18.28ZM16,9.78c0-.1.15-.22.4-.37A5.17,5.17,0,0,1,17.52,9a10.41,10.41,0,0,1,1.76-.39,17.87,17.87,0,0,1,2.38-.15,16.89,16.89,0,0,1,2.44.17A10.44,10.44,0,0,1,25.88,9,5.22,5.22,0,0,1,27,9.44c.23.15.35.27.35.38s-.12.22-.35.37a4.73,4.73,0,0,1-1.07.47,10.44,10.44,0,0,1-1.78.39,15.58,15.58,0,0,1-2.44.17,15.45,15.45,0,0,1-2.43-.17,10.44,10.44,0,0,1-1.78-.39,4.73,4.73,0,0,1-1.07-.47C16.14,10,16,9.92,16,9.82Zm-.19,1.8a9.18,9.18,0,0,0,2.57.8,17.83,17.83,0,0,0,3.1.26l.66,0,.58,0,.92-.07c.26,0,.51-.07.76-.12l.91-.17.25-.07A3.17,3.17,0,0,0,26,12l.48-.15L27,11.7l.07,0,.15-.09v2.47c0,.1-.11.23-.35.38a4.73,4.73,0,0,1-1.07.47,10.79,10.79,0,0,1-1.79.39,15.76,15.76,0,0,1-2.45.18,15.66,15.66,0,0,1-2.45-.18,10.57,10.57,0,0,1-1.79-.39,4.73,4.73,0,0,1-1.07-.47c-.24-.15-.36-.28-.36-.38Zm5.67,8a17,17,0,0,1-2.45-.17,10.57,10.57,0,0,1-1.79-.39,5.19,5.19,0,0,1-1.07-.48c-.24-.14-.36-.27-.36-.37V15.77a8.58,8.58,0,0,0,2.57.79,17.83,17.83,0,0,0,3.1.26h.71A16.94,16.94,0,0,0,25,16.6a7.38,7.38,0,0,0,2.17-.7v2.32c0,.1-.11.23-.35.37a5.19,5.19,0,0,1-1.07.48,10.79,10.79,0,0,1-1.79.39A17.14,17.14,0,0,1,21.51,19.63Z"/></svg>