<svg id="Layer_1" data-name="Layer 1" xmlns="http://www.w3.org/2000/svg" viewBox="0 0 38.43 40"><title>Certificates-Service</title><metadata><?xpacket begin="﻿" id="W5M0MpCehiHzreSzNTczkc9d"?>
<x:xmpmeta xmlns:x="adobe:ns:meta/" x:xmptk="Adobe XMP Core 6.0-c002 79.164352, 2020/01/30-15:50:38        ">
   <rdf:RDF xmlns:rdf="http://www.w3.org/1999/02/22-rdf-syntax-ns#">
      <rdf:Description rdf:about=""
            xmlns:dc="http://purl.org/dc/elements/1.1/"
            xmlns:lr="http://ns.adobe.com/lightroom/1.0/"
            xmlns:xmp="http://ns.adobe.com/xap/1.0/"
            xmlns:xmpMM="http://ns.adobe.com/xap/1.0/mm/"
            xmlns:stEvt="http://ns.adobe.com/xap/1.0/sType/ResourceEvent#">
         <dc:title>
            <rdf:Alt>
               <rdf:li xml:lang="x-default">Certificates-Service</rdf:li>
            </rdf:Alt>
         </dc:title>
         <dc:subject>
            <rdf:Bag>
               <rdf:li>icon</rdf:li>
               <rdf:li>certificates</rdf:li>
               <rdf:li>service</rdf:li>
               <rdf:li>TLS</rdf:li>
               <rdf:li>security</rdf:li>
            </rdf:Bag>
         </dc:subject>
         <lr:hierarchicalSubject>
            <rdf:Bag>
               <rdf:li>icon</rdf:li>
            </rdf:Bag>
         </lr:hierarchicalSubject>
         <xmp:MetadataDate>2022-03-10T20:17:37-06:00</xmp:MetadataDate>
         <xmpMM:InstanceID>xmp.iid:41b3eb5b-b6c6-3f4a-85f4-effb5954464c</xmpMM:InstanceID>
         <xmpMM:DocumentID>xmp.did:9d0c3d2e-6bb7-3149-a29f-576fe5873e8c</xmpMM:DocumentID>
         <xmpMM:OriginalDocumentID>xmp.did:9d0c3d2e-6bb7-3149-a29f-576fe5873e8c</xmpMM:OriginalDocumentID>
         <xmpMM:History>
            <rdf:Seq>
               <rdf:li>
                  <rdf:Description>
                     <stEvt:action>saved</stEvt:action>
                     <stEvt:instanceID>xmp.iid:9d0c3d2e-6bb7-3149-a29f-576fe5873e8c</stEvt:instanceID>
                     <stEvt:when>2022-03-10T20:02:43-06:00</stEvt:when>
                     <stEvt:softwareAgent>Adobe Bridge 2020 (Windows)</stEvt:softwareAgent>
                     <stEvt:changed>/metadata</stEvt:changed>
                  </rdf:Description>
               </rdf:li>
               <rdf:li>
                  <rdf:Description>
                     <stEvt:action>saved</stEvt:action>
                     <stEvt:instanceID>xmp.iid:41b3eb5b-b6c6-3f4a-85f4-effb5954464c</stEvt:instanceID>
                     <stEvt:when>2022-03-10T20:17:37-06:00</stEvt:when>
                     <stEvt:softwareAgent>Adobe Bridge 2020 (Windows)</stEvt:softwareAgent>
                     <stEvt:changed>/metadata</stEvt:changed>
                  </rdf:Description>
               </rdf:li>
            </rdf:Seq>
         </xmpMM:History>
      </rdf:Description>
   </rdf:RDF>
</x:xmpmeta>
                                                                                                    
                                                                                                    
                                                                                                    
                                                                                                    
                                                                                                    
                                                                                                    
                                                                                                    
                                                                                                    
                                                                                                    
                                                                                                    
                                                                                                    
                                                                                                    
                                                                                                    
                                                                 
<?xpacket end="w"?></metadata>
<polygon points="28.36 28.87 25.56 35.6 24.61 34.25 26.82 28.95 25.69 28.48 23.51 33.74 21.79 34.03 24.47 27.58 23.34 27.11 19.81 35.61 23.62 34.96 25.84 38.12 29.48 29.34 28.36 28.87" fill="#2c5967"/><polygon points="33.42 27.11 32.29 27.58 34.97 34.03 33.25 33.74 31.05 28.39 29.92 28.85 32.15 34.25 31.2 35.6 29.51 31.53 28.85 33.12 30.92 38.12 33.14 34.96 36.95 35.61 33.42 27.11" fill="#2c5967"/><path d="M37.79,35.26l-3.12-7.52a8.26,8.26,0,0,0,.1-10.66A17.39,17.39,0,1,0,17.4,34.79c.61,0,1.21,0,1.81-.09l-.24.56-.64,1.54L20,36.51,23.2,36l1.89,2.68,1,1.36.63-1.53,1.7-4.09,1.7,4.09L30.71,40l1-1.36L33.56,36l3.23.55,1.64.29Z" fill="#fff"/><path d="M20.16,32.4a15.35,15.35,0,0,1-2.16.24V18h3.34a8.39,8.39,0,0,1,.92-1.21H18V2.15A15.32,15.32,0,0,1,22.41,3,41.29,41.29,0,0,1,25.46,14.6a8.13,8.13,0,0,1,1.19-.35A41.86,41.86,0,0,0,24,3.62a15.29,15.29,0,0,1,8.51,11.53,7.84,7.84,0,0,1,1.33,1A16.48,16.48,0,1,0,17.4,33.88a16.07,16.07,0,0,0,2.21-.17ZM11.07,3.51A38.27,38.27,0,0,0,8.19,16.79h-6A15.29,15.29,0,0,1,11.07,3.51ZM2.15,18h6a39.3,39.3,0,0,0,2.89,13.29A15.28,15.28,0,0,1,2.15,18ZM16.79,32.64a14.78,14.78,0,0,1-4.17-.75A39.17,39.17,0,0,1,9.4,18h7.39Zm0-15.85H9.4A38.3,38.3,0,0,1,12.62,2.9a15.27,15.27,0,0,1,1.51-.41,14.91,14.91,0,0,1,2.11-.31,4.93,4.93,0,0,1,.55,0Z" fill="#2c5967"/><path d="M34.54,22.35a6.16,6.16,0,1,0-6.16,6.15A6.16,6.16,0,0,0,34.54,22.35ZM27,21.09H25.8v3.17H25V21.09H23.83v-.71H27ZM30,24.26H27.51V20.38h.83v3.14H30Zm1.21,0a3.14,3.14,0,0,1-.46-.08,1.23,1.23,0,0,1-.34-.11v-.74a3.47,3.47,0,0,0,1.18.23,1.1,1.1,0,0,0,.53-.11.35.35,0,0,0,.19-.31.28.28,0,0,0-.12-.23,1.4,1.4,0,0,0-.47-.21l-.41-.14a1.64,1.64,0,0,1-.72-.44,1.15,1.15,0,0,1,0-1.32,1.12,1.12,0,0,1,.52-.4,2.12,2.12,0,0,1,.8-.14,3.66,3.66,0,0,1,.57.05,2.1,2.1,0,0,1,.5.16v.74a2.66,2.66,0,0,0-.55-.16,2.52,2.52,0,0,0-.52-.06c-.45,0-.67.13-.67.39a.29.29,0,0,0,.13.24,2,2,0,0,0,.47.21l.41.14a1.7,1.7,0,0,1,.74.44,1.08,1.08,0,0,1,.22.7,1,1,0,0,1-.39.86,1.69,1.69,0,0,1-1.09.32Z" fill="none"/><path d="M23.51,33.74l1.92-4.64a7.79,7.79,0,0,1-1.29-.73L21.79,34Z" fill="none"/><path d="M33.25,33.74,35,34l-2.35-5.67a7,7,0,0,1-1.28.73Z" fill="none"/><path d="M25.56,35.6,28,29.71a7.37,7.37,0,0,1-1.42-.21l-2,4.75Z" fill="none"/><path d="M33.6,27.55a7.37,7.37,0,1,0-10.44,0l-3.35,8.06L23.62,35l2.22,3.15,3.51-8.46a7.35,7.35,0,0,0,.84-.15l2,4.75L31.2,35.6l-1.69-4.07-.66,1.59,2.07,5L33.14,35l3.81.65ZM23.51,33.74,21.79,34l2.35-5.66a7.79,7.79,0,0,0,1.29.73Zm2,1.86-.95-1.35,2-4.75a8.24,8.24,0,0,0,1.42.21Zm2.82-7.1a6.16,6.16,0,1,1,6.16-6.15A6.16,6.16,0,0,1,28.38,28.5Zm3,.6a7,7,0,0,0,1.28-.73L35,34l-1.72-.3Z" fill="#2c5967"/><polygon points="23.82 21.09 24.97 21.09 24.97 24.26 25.8 24.26 25.8 21.09 26.95 21.09 26.95 20.38 23.82 20.38 23.82 21.09" fill="#2c5967"/><polygon points="28.34 20.38 27.51 20.38 27.51 24.26 30.04 24.26 30.04 23.52 28.34 23.52 28.34 20.38" fill="#2c5967"/><path d="M33.21,23.16a1.08,1.08,0,0,0-.22-.7,1.7,1.7,0,0,0-.74-.44l-.41-.14a2,2,0,0,1-.47-.21.29.29,0,0,1-.13-.24c0-.26.22-.39.67-.39a2.52,2.52,0,0,1,.52.06,2.66,2.66,0,0,1,.55.16v-.74a2.1,2.1,0,0,0-.5-.16,3.66,3.66,0,0,0-.57-.05,2.12,2.12,0,0,0-.8.14,1.12,1.12,0,0,0-.52.4,1.15,1.15,0,0,0,0,1.32,1.64,1.64,0,0,0,.72.44l.41.14a1.4,1.4,0,0,1,.47.21.28.28,0,0,1,.12.23.35.35,0,0,1-.19.31,1.1,1.1,0,0,1-.53.11,3.47,3.47,0,0,1-1.18-.23v.74a1.23,1.23,0,0,0,.34.11,3.14,3.14,0,0,0,.46.08l.48,0A1.69,1.69,0,0,0,32.82,24,1,1,0,0,0,33.21,23.16Z" fill="#2c5967"/></svg>