<svg width="81" height="80" viewBox="0 0 81 80" fill="none" xmlns="http://www.w3.org/2000/svg">
<metadata><?xpacket begin="﻿" id="W5M0MpCehiHzreSzNTczkc9d"?>
<x:xmpmeta xmlns:x="adobe:ns:meta/" x:xmptk="Adobe XMP Core 6.0-c006 79.164648, 2021/01/12-15:52:29        ">
   <rdf:RDF xmlns:rdf="http://www.w3.org/1999/02/22-rdf-syntax-ns#">
      <rdf:Description rdf:about=""
            xmlns:dc="http://purl.org/dc/elements/1.1/"
            xmlns:xmp="http://ns.adobe.com/xap/1.0/"
            xmlns:xmpMM="http://ns.adobe.com/xap/1.0/mm/"
            xmlns:stEvt="http://ns.adobe.com/xap/1.0/sType/ResourceEvent#"
            xmlns:xmpRights="http://ns.adobe.com/xap/1.0/rights/">
         <dc:subject>
            <rdf:Bag>
               <rdf:li>Network</rdf:li>
               <rdf:li>Connectivity</rdf:li>
               <rdf:li>Security</rdf:li>
               <rdf:li>List</rdf:li>
               <rdf:li>Shield</rdf:li>
               <rdf:li>Protection</rdf:li>
               <rdf:li>Privacy</rdf:li>
               <rdf:li>Networking</rdf:li>
               <rdf:li>icon</rdf:li>
            </rdf:Bag>
         </dc:subject>
         <dc:rights>
            <rdf:Alt>
               <rdf:li xml:lang="x-default">Oracle All Rights</rdf:li>
            </rdf:Alt>
         </dc:rights>
         <xmp:MetadataDate>2022-10-28T15:53:44-05:00</xmp:MetadataDate>
         <xmpMM:InstanceID>xmp.iid:2695eccf-756c-4b10-9028-3855fffd58f2</xmpMM:InstanceID>
         <xmpMM:DocumentID>xmp.did:0022e207-e560-4151-adca-3405ab379863</xmpMM:DocumentID>
         <xmpMM:OriginalDocumentID>xmp.did:0022e207-e560-4151-adca-3405ab379863</xmpMM:OriginalDocumentID>
         <xmpMM:History>
            <rdf:Seq>
               <rdf:li>
                  <rdf:Description>
                     <stEvt:action>saved</stEvt:action>
                     <stEvt:instanceID>xmp.iid:0022e207-e560-4151-adca-3405ab379863</stEvt:instanceID>
                     <stEvt:when>2022-10-28T15:53:30-05:00</stEvt:when>
                     <stEvt:softwareAgent>Adobe Bridge 2021 (Macintosh)</stEvt:softwareAgent>
                     <stEvt:changed>/metadata</stEvt:changed>
                  </rdf:Description>
               </rdf:li>
               <rdf:li>
                  <rdf:Description>
                     <stEvt:action>saved</stEvt:action>
                     <stEvt:instanceID>xmp.iid:2695eccf-756c-4b10-9028-3855fffd58f2</stEvt:instanceID>
                     <stEvt:when>2022-10-28T15:53:44-05:00</stEvt:when>
                     <stEvt:softwareAgent>Adobe Bridge 2021 (Macintosh)</stEvt:softwareAgent>
                     <stEvt:changed>/metadata</stEvt:changed>
                  </rdf:Description>
               </rdf:li>
            </rdf:Seq>
         </xmpMM:History>
         <xmpRights:Marked>True</xmpRights:Marked>
      </rdf:Description>
   </rdf:RDF>
</x:xmpmeta>
                                                                                                    
                                                                                                    
                                                                                                    
                                                                                                    
                                                                                                    
                                                                                                    
                                                                                                    
                                                                                                    
                                                                                                    
                                                                                                    
                                                                                                    
                                                                                                    
                                                  
<?xpacket end="w"?></metadata>
<path d="M39.7434 78.673C24.9779 73.1754 17.9738 63.6967 14.5664 56.4929C10.7804 48.3412 10.7804 41.5166 10.7804 41.1375V13.8389L40.5006 1.13745L70.0314 13.8389V41.327C70.0314 42.4645 69.6528 68.2465 41.4471 78.673L40.6899 79.0521L39.7434 78.673Z" fill="white"/>
<path d="M40.4992 2.08531L69.0835 14.4076V41.327C69.0835 42.4645 68.7049 67.4881 41.0671 77.7251L40.4992 77.9147L40.1206 77.7251C25.5445 72.4171 18.7296 63.128 15.5115 56.1137C11.9148 48.3412 11.7255 41.5166 11.7255 41.327V14.4076L40.4992 2.08531ZM40.4992 0L39.742 0.379147L10.9683 12.7014L9.83252 13.0806V14.4076V41.327C9.83252 41.7062 9.83252 48.7204 13.8078 57.0616C17.2152 64.2654 24.4087 74.1232 39.5527 79.6209L40.1206 79.8104L40.6885 80L41.2564 79.8104L41.8243 79.6209C70.7872 69.0047 71.1659 42.4645 71.1659 41.327V14.4076V13.0806L70.03 12.5118L41.2564 0.379147L40.4992 0Z" fill="white"/>
<path d="M40.4991 2.08521L11.7255 14.4075V41.3269C11.7255 41.5165 11.7255 48.3411 15.5115 56.1136C18.7296 63.1278 25.7337 72.4169 40.1205 77.725L40.6884 77.9146L41.2563 77.725C68.8942 67.488 69.2728 42.2748 69.2728 41.3269V14.4075L40.4991 2.08521ZM66.244 41.3269C66.244 42.2748 65.8654 65.2132 40.4991 74.8814C29.8983 70.9004 22.3263 64.2653 17.9724 54.9762C14.565 47.5828 14.565 41.5165 14.565 41.3269V16.3032L40.4991 5.11838L66.244 16.3032C66.244 16.3032 66.244 41.3269 66.244 41.3269Z" fill="#2D5967"/>
<path d="M40.3091 24.0752H23.0828V26.9188H40.3091V24.0752Z" fill="#2D5967"/>
<path d="M57.9141 22.7483L55.8318 20.8525L50.3421 26.3502L48.0705 24.0753L45.9882 26.1606L50.3421 30.3312L57.9141 22.7483Z" fill="#2D5967"/>
<path d="M40.3091 37.9143H23.0828V40.7579H40.3091V37.9143Z" fill="#2D5967"/>
<path d="M54.885 34.3118L52.0455 37.3449L49.0167 34.3118L47.1237 36.3971L49.9632 39.2407L47.1237 42.0843L49.0167 44.1696L52.0455 41.326L54.885 44.1696L56.778 42.0843L53.9385 39.2407L56.778 36.3971L54.885 34.3118Z" fill="#2D5967"/>
<path d="M40.3091 50.8049H23.0828V53.6485H40.3091V50.8049Z" fill="#2D5967"/>
<path d="M57.9141 49.478L55.8318 47.5823L50.3421 53.0799L48.0705 50.805L45.9882 52.8903L50.3421 57.061L57.9141 49.478Z" fill="#2D5967"/>
</svg>
