<svg id="Layer_1" data-name="Layer 1" xmlns="http://www.w3.org/2000/svg" viewBox="0 0 32.23 42"><metadata><?xpacket begin="﻿" id="W5M0MpCehiHzreSzNTczkc9d"?>
<x:xmpmeta xmlns:x="adobe:ns:meta/" x:xmptk="Adobe XMP Core 6.0-c006 79.164648, 2021/01/12-15:52:29        ">
   <rdf:RDF xmlns:rdf="http://www.w3.org/1999/02/22-rdf-syntax-ns#">
      <rdf:Description rdf:about=""
            xmlns:lr="http://ns.adobe.com/lightroom/1.0/"
            xmlns:dc="http://purl.org/dc/elements/1.1/"
            xmlns:xmp="http://ns.adobe.com/xap/1.0/"
            xmlns:xmpMM="http://ns.adobe.com/xap/1.0/mm/"
            xmlns:stEvt="http://ns.adobe.com/xap/1.0/sType/ResourceEvent#"
            xmlns:xmpRights="http://ns.adobe.com/xap/1.0/rights/">
         <lr:hierarchicalSubject>
            <rdf:Bag>
               <rdf:li>Other Keywords|icon</rdf:li>
            </rdf:Bag>
         </lr:hierarchicalSubject>
         <dc:subject>
            <rdf:Bag>
               <rdf:li>threat intelligence</rdf:li>
               <rdf:li>threat</rdf:li>
               <rdf:li>intelligence</rdf:li>
               <rdf:li>brain</rdf:li>
               <rdf:li>ai</rdf:li>
               <rdf:li>shield</rdf:li>
               <rdf:li>icon</rdf:li>
            </rdf:Bag>
         </dc:subject>
         <dc:rights>
            <rdf:Alt>
               <rdf:li xml:lang="x-default">Oracle All rights reserved</rdf:li>
            </rdf:Alt>
         </dc:rights>
         <xmp:MetadataDate>2022-07-28T15:45:39-05:00</xmp:MetadataDate>
         <xmpMM:InstanceID>xmp.iid:dfc3aac6-1ad0-4ec7-8f0c-9231e3452553</xmpMM:InstanceID>
         <xmpMM:DocumentID>xmp.did:43359955-5c28-4936-bd79-837dc1aa0737</xmpMM:DocumentID>
         <xmpMM:OriginalDocumentID>xmp.did:43359955-5c28-4936-bd79-837dc1aa0737</xmpMM:OriginalDocumentID>
         <xmpMM:History>
            <rdf:Seq>
               <rdf:li>
                  <rdf:Description>
                     <stEvt:action>saved</stEvt:action>
                     <stEvt:instanceID>xmp.iid:43359955-5c28-4936-bd79-837dc1aa0737</stEvt:instanceID>
                     <stEvt:when>2022-07-28T15:35:49-05:00</stEvt:when>
                     <stEvt:softwareAgent>Adobe Bridge 2021 (Macintosh)</stEvt:softwareAgent>
                     <stEvt:changed>/metadata</stEvt:changed>
                  </rdf:Description>
               </rdf:li>
               <rdf:li>
                  <rdf:Description>
                     <stEvt:action>saved</stEvt:action>
                     <stEvt:instanceID>xmp.iid:dfc3aac6-1ad0-4ec7-8f0c-9231e3452553</stEvt:instanceID>
                     <stEvt:when>2022-07-28T15:45:39-05:00</stEvt:when>
                     <stEvt:softwareAgent>Adobe Bridge 2021 (Macintosh)</stEvt:softwareAgent>
                     <stEvt:changed>/metadata</stEvt:changed>
                  </rdf:Description>
               </rdf:li>
            </rdf:Seq>
         </xmpMM:History>
         <xmpRights:Marked>True</xmpRights:Marked>
      </rdf:Description>
   </rdf:RDF>
</x:xmpmeta>
                                                                                                    
                                                                                                    
                                                                                                    
                                                                                                    
                                                                                                    
                                                                                                    
                                                                                                    
                                                                                                    
                                                                                                    
                                                                                                
<?xpacket end="w"?></metadata>
<path d="M1,7.17V21.43c.44,7.66,6,14.88,14.81,19.3l.3.15.3-.15c8.84-4.42,14.38-11.64,14.82-19.3V7.17L16.11,1.08Zm28.89.9V21.38a16.79,16.79,0,0,1-1.72,6.46c-.1.21-.2.42-.31.62-.22.41-.45.82-.7,1.22A22,22,0,0,1,25.48,32c-.31.38-.64.76-1,1.13a30,30,0,0,1-8.39,6.23c-8.22-4.22-13.37-10.93-13.78-18V8.07L16.11,2.51Z" fill="#2d5967"/><path d="M31.6,6.24,16.49.15,16.11,0l-.37.15L.63,6.24,0,6.49V21.38H0v.09c.46,8,6.2,15.55,15.37,20.14l.29.15.45.22.45-.22.3-.15C26,37,31.77,29.51,32.22,21.49v-15Zm-.37,15.19c-.44,7.66-6,14.88-14.82,19.3l-.3.15-.3-.15C7,36.31,1.44,29.09,1,21.43V7.17L16.11,1.08,31.23,7.17Z" fill="#fff"/><path d="M2.33,21.38c.41,7.08,5.56,13.79,13.78,18a30,30,0,0,0,8.39-6.23c.34-.37.67-.75,1-1.13a22,22,0,0,0,1.68-2.35c.25-.4.48-.81.7-1.22.11-.2.21-.41.31-.62a16.79,16.79,0,0,0,1.72-6.46V8.07L16.11,2.51,2.33,8.07Z" fill="#fff"/><path d="M9.85,28.08A4.8,4.8,0,0,0,14,30.39h.16a1.7,1.7,0,0,0,1.47-1,2.75,2.75,0,0,1-.1-.7V10.76a3.19,3.19,0,0,1,.09-.7,1,1,0,0,0-.12-.23,1.71,1.71,0,0,0-1.38-.76H14a4.72,4.72,0,0,0-1.65.3L12,9.52a6,6,0,0,0-.7.4,5,5,0,0,0-1.38,1.44,4.79,4.79,0,0,0-1,.28,3.77,3.77,0,0,0-.57.28l-.19.1a5.43,5.43,0,0,0-1,.8,5,5,0,0,0-.74,1,2.64,2.64,0,0,0-.18.38,1.19,1.19,0,0,0-.08.2,3.17,3.17,0,0,0-.14.4,4.69,4.69,0,0,0-.18,1.3c0,.13,0,.26,0,.4a4.84,4.84,0,0,0,0,6.4c0,.13,0,.26,0,.38A4.86,4.86,0,0,0,9.85,28.08ZM7,17.23,7.19,17l-.05-.34a3.61,3.61,0,0,1,0-.53,3.5,3.5,0,0,1,3.24-3.48l.36,0,.18-.32a3.55,3.55,0,0,1,1.61-1.55l.31-.13a3,3,0,0,1,.88-.2l.29,0h.09a.4.4,0,0,1,.33.22.59.59,0,0,1,0,.14h0v5.56H11.65l-.11-.11a1.75,1.75,0,0,0,.17-.75,1.86,1.86,0,1,0-1.86,1.86,1.72,1.72,0,0,0,.75-.17l.5.5h3.3v1.41H10.23a1.85,1.85,0,1,0,0,1.34H14.4v1.34H11.1l-.5.5a1.86,1.86,0,1,0,1.11,1.7,1.76,1.76,0,0,0-.17-.76l.11-.11H14.4V28.7a.34.34,0,0,1-.32.35H14a3.5,3.5,0,0,1-3.11-1.9l-.17-.33-.37,0a3.53,3.53,0,0,1-3.22-3.49,3.36,3.36,0,0,1,0-.51l.05-.34-.25-.24a3.5,3.5,0,0,1,0-5Zm3.42-1.77a.52.52,0,0,1-.52.52.52.52,0,0,1-.53-.52.37.37,0,0,1,0-.11.54.54,0,0,1,.14-.27.56.56,0,0,1,.38-.15.56.56,0,0,1,.37.15.54.54,0,0,1,.14.27A.37.37,0,0,1,10.37,15.46ZM9,19.73a.53.53,0,0,1-1.06,0,.53.53,0,0,1,1.06,0Zm1.34,4.21a.52.52,0,0,1-.52.52.52.52,0,0,1-.53-.52.53.53,0,0,1,.53-.53A.52.52,0,0,1,10.37,23.94Z" fill="#2d5967"/><path d="M9.32,23.94a.52.52,0,0,0,.53.52.52.52,0,0,0,.52-.52.52.52,0,0,0-.52-.53A.53.53,0,0,0,9.32,23.94Z" fill="#fff"/><path d="M9.85,14.93a.56.56,0,0,0-.38.15.54.54,0,0,0-.14.27.37.37,0,0,0,0,.11.52.52,0,0,0,.53.52.52.52,0,0,0,.52-.52.37.37,0,0,0,0-.11.54.54,0,0,0-.14-.27A.56.56,0,0,0,9.85,14.93Z" fill="#fff"/><path d="M7.19,22.46l-.05.34a3.36,3.36,0,0,0,0,.51,3.53,3.53,0,0,0,3.22,3.49l.37,0,.17.33A3.5,3.5,0,0,0,14,29.06h.12a.34.34,0,0,0,.32-.35V23.07H11.65l-.11.11a1.76,1.76,0,0,1,.17.76,1.87,1.87,0,1,1-1.11-1.7l.5-.5h3.3V20.4H10.24a1.87,1.87,0,1,1,0-1.34H14.4V17.65H11.1l-.5-.5a1.72,1.72,0,0,1-.75.17,1.86,1.86,0,1,1,1.86-1.86,1.75,1.75,0,0,1-.17.75l.11.11H14.4V10.76h0a.59.59,0,0,0,0-.14.4.4,0,0,0-.33-.22H14l-.29,0a3,3,0,0,0-.88.2l-.31.13a3.55,3.55,0,0,0-1.61,1.55l-.18.32-.36,0a3.5,3.5,0,0,0-3.24,3.48,3.61,3.61,0,0,0,0,.53l.05.34L7,17.23a3.5,3.5,0,0,0,0,5Z" fill="#fff"/><path d="M8,19.73a.53.53,0,0,0,1.06,0,.53.53,0,0,0-1.06,0Z" fill="#fff"/><path d="M18.1,30.39h.17a4.82,4.82,0,0,0,4.11-2.31,4.86,4.86,0,0,0,4.09-4.77c0-.12,0-.25,0-.38a4.8,4.8,0,0,0,1.09-2.11,4.92,4.92,0,0,0,.12-1.09,5.14,5.14,0,0,0-.08-.88,2.86,2.86,0,0,0-.1-.42,4.71,4.71,0,0,0-1-1.9c0-.14,0-.27,0-.4a4.85,4.85,0,0,0-3.07-4.49,4.51,4.51,0,0,0-1-.28A5,5,0,0,0,21,9.92a5.15,5.15,0,0,0-1.07-.55,4.62,4.62,0,0,0-1.64-.3h-.12a1.69,1.69,0,0,0-1.65,1.69V28.7A1.69,1.69,0,0,0,18.1,30.39Zm7.18-13.16a3.49,3.49,0,0,1,0,5l-.24.24.05.33a3.46,3.46,0,0,1,0,.52,3.52,3.52,0,0,1-3.22,3.49l-.37,0-.17.33a3.48,3.48,0,0,1-3.1,1.9h-.12a.34.34,0,0,1-.33-.35V23.07h2.76l.1.11a1.91,1.91,0,0,0-.16.76,1.86,1.86,0,1,0,1.86-1.86,2,2,0,0,0-.76.16l-.49-.5H17.82V20.4H22a1.86,1.86,0,1,0,0-1.34H17.82V17.65h3.31l.49-.5a1.8,1.8,0,0,0,.76.17,1.86,1.86,0,0,0,1.86-1.86,2,2,0,0,0-.08-.56,2.41,2.41,0,0,0-.15-.33,1.66,1.66,0,0,0-.32-.43,2,2,0,0,0-.27-.23l-.15-.09a2,2,0,0,0-.34-.14,1.93,1.93,0,0,0-1.1,0,2,2,0,0,0-.34.14l-.15.09a2,2,0,0,0-.27.23,2,2,0,0,0-.33.43c0,.11-.1.22-.14.33a2,2,0,0,0-.08.56,1.9,1.9,0,0,0,.16.75l-.1.11H17.82V10.76a.36.36,0,0,1,.36-.36h.09a3.33,3.33,0,0,1,.88.12l.29.1a3.59,3.59,0,0,1,1.92,1.68l.17.32.37,0a3.49,3.49,0,0,1,3.19,4L25,17Zm-3.43,6.71a.53.53,0,1,1,1.06,0,.53.53,0,0,1-1.06,0Zm1.35-4.21a.52.52,0,0,1,.53-.52.52.52,0,0,1,.52.52.52.52,0,0,1-.52.53A.53.53,0,0,1,23.2,19.73Zm-1.35-4.27a.53.53,0,1,1,1.06,0,.53.53,0,0,1-1.06,0Z" fill="#2d5967"/><path d="M22.91,15.46a.53.53,0,1,0-1.06,0,.53.53,0,0,0,1.06,0Z" fill="#fff"/><path d="M24.25,19.73a.52.52,0,0,0-.52-.52.52.52,0,0,0-.53.52.53.53,0,0,0,.53.53A.52.52,0,0,0,24.25,19.73Z" fill="#fff"/><path d="M25.13,16.13a3.5,3.5,0,0,0-3.23-3.48l-.37,0-.17-.32a3.59,3.59,0,0,0-1.92-1.68l-.29-.1a3.33,3.33,0,0,0-.88-.12h-.09a.36.36,0,0,0-.36.36v5.56h2.76l.1-.11a1.9,1.9,0,0,1-.16-.75,2,2,0,0,1,.08-.56c0-.11.09-.22.14-.33a2,2,0,0,1,.33-.43,2,2,0,0,1,.27-.23l.15-.09a2,2,0,0,1,.34-.14,1.93,1.93,0,0,1,1.1,0,2,2,0,0,1,.34.14l.15.09a2,2,0,0,1,.27.23,1.66,1.66,0,0,1,.32.43,2.41,2.41,0,0,1,.15.33,2,2,0,0,1,.08.56,1.86,1.86,0,0,1-1.86,1.86,1.8,1.8,0,0,1-.76-.17l-.49.5H17.82v1.41H22a1.86,1.86,0,1,1,0,1.34H17.82v1.34h3.31l.49.5a2,2,0,0,1,.76-.16,1.86,1.86,0,1,1-1.86,1.86,1.91,1.91,0,0,1,.16-.76l-.1-.11H17.82V28.7a.34.34,0,0,0,.33.35h.12a3.48,3.48,0,0,0,3.1-1.9l.17-.33.37,0a3.52,3.52,0,0,0,3.22-3.49,3.46,3.46,0,0,0,0-.52L25,22.46l.24-.24a3.49,3.49,0,0,0,0-5L25,17l.05-.34A3.49,3.49,0,0,0,25.13,16.13Z" fill="#fff"/><path d="M22.91,23.94a.53.53,0,1,0-1.06,0,.53.53,0,0,0,1.06,0Z" fill="#fff"/></svg>