<svg id="Layer_1" data-name="Layer 1" xmlns="http://www.w3.org/2000/svg" viewBox="0 0 37.75 42"><title>Personas_End-User-Female</title><metadata><?xpacket begin="﻿" id="W5M0MpCehiHzreSzNTczkc9d"?>
<x:xmpmeta xmlns:x="adobe:ns:meta/" x:xmptk="Adobe XMP Core 6.0-c006 79.164648, 2021/01/12-15:52:29        ">
   <rdf:RDF xmlns:rdf="http://www.w3.org/1999/02/22-rdf-syntax-ns#">
      <rdf:Description rdf:about=""
            xmlns:xmpRights="http://ns.adobe.com/xap/1.0/rights/"
            xmlns:xmp="http://ns.adobe.com/xap/1.0/"
            xmlns:xmpMM="http://ns.adobe.com/xap/1.0/mm/"
            xmlns:stEvt="http://ns.adobe.com/xap/1.0/sType/ResourceEvent#"
            xmlns:dc="http://purl.org/dc/elements/1.1/"
            xmlns:lr="http://ns.adobe.com/lightroom/1.0/">
         <xmpRights:Marked>True</xmpRights:Marked>
         <xmp:MetadataDate>2022-03-02T16:50:49-06:00</xmp:MetadataDate>
         <xmpMM:InstanceID>xmp.iid:d8fd5e7b-8659-470d-be11-391031f20541</xmpMM:InstanceID>
         <xmpMM:DocumentID>xmp.did:1e20807c-66d6-e34e-970b-58b3fbbde60c</xmpMM:DocumentID>
         <xmpMM:OriginalDocumentID>xmp.did:1e20807c-66d6-e34e-970b-58b3fbbde60c</xmpMM:OriginalDocumentID>
         <xmpMM:History>
            <rdf:Seq>
               <rdf:li>
                  <rdf:Description>
                     <stEvt:action>saved</stEvt:action>
                     <stEvt:instanceID>xmp.iid:1e20807c-66d6-e34e-970b-58b3fbbde60c</stEvt:instanceID>
                     <stEvt:when>2022-01-28T20:44:44-06:00</stEvt:when>
                     <stEvt:softwareAgent>Adobe Bridge 2020 (Windows)</stEvt:softwareAgent>
                     <stEvt:changed>/metadata</stEvt:changed>
                  </rdf:Description>
               </rdf:li>
               <rdf:li>
                  <rdf:Description>
                     <stEvt:action>saved</stEvt:action>
                     <stEvt:instanceID>xmp.iid:d8fd5e7b-8659-470d-be11-391031f20541</stEvt:instanceID>
                     <stEvt:when>2022-03-02T16:50:49-06:00</stEvt:when>
                     <stEvt:softwareAgent>Adobe Bridge 2021 (Macintosh)</stEvt:softwareAgent>
                     <stEvt:changed>/metadata</stEvt:changed>
                  </rdf:Description>
               </rdf:li>
            </rdf:Seq>
         </xmpMM:History>
         <dc:title>
            <rdf:Alt>
               <rdf:li xml:lang="x-default">Personas_End-User-Female</rdf:li>
            </rdf:Alt>
         </dc:title>
         <dc:rights>
            <rdf:Alt>
               <rdf:li xml:lang="x-default">Oracle, All rights reserved</rdf:li>
            </rdf:Alt>
         </dc:rights>
         <dc:subject>
            <rdf:Bag>
               <rdf:li>icon</rdf:li>
               <rdf:li>user</rdf:li>
               <rdf:li>person</rdf:li>
               <rdf:li>persona</rdf:li>
               <rdf:li>women</rdf:li>
               <rdf:li>woman</rdf:li>
               <rdf:li>client</rdf:li>
               <rdf:li>employee</rdf:li>
            </rdf:Bag>
         </dc:subject>
         <lr:hierarchicalSubject>
            <rdf:Bag>
               <rdf:li>icon</rdf:li>
               <rdf:li>Other Keywords|user</rdf:li>
               <rdf:li>Other Keywords|person</rdf:li>
               <rdf:li>Other Keywords|persona</rdf:li>
               <rdf:li>Other Keywords|women</rdf:li>
               <rdf:li>man</rdf:li>
               <rdf:li>woman</rdf:li>
            </rdf:Bag>
         </lr:hierarchicalSubject>
      </rdf:Description>
   </rdf:RDF>
</x:xmpmeta>
                                                                                                    
                                                                                                    
                                                                                                    
                                                                                                    
                                                                                                    
                                                                                                    
                                   
<?xpacket end="w"?></metadata>
<path d="M.5,41.5v-7a9.23,9.23,0,0,1,8.22-9.22,12.14,12.14,0,0,1-2.25-2.91l-.26-.46,4-16.59h0A7,7,0,0,1,16.85.5h4a7.07,7.07,0,0,1,6.59,4.81h0l.13.47,3.93,16.11-.26.46A12,12,0,0,1,29,25.27a9.23,9.23,0,0,1,8.21,9.21v7Z" fill="#fff"/><path d="M20.88,1a6.57,6.57,0,0,1,6.25,4.91h0L31,21.81l-.17.3a10.6,10.6,0,0,1-3.14,3.57h.07a8.78,8.78,0,0,1,9,8.79V41H1V34.47a8.78,8.78,0,0,1,9-8.79h.09a10.6,10.6,0,0,1-3.14-3.57l-.17-.3L10.6,5.9h0A6.55,6.55,0,0,1,16.85,1h4m0-1h-4A7.53,7.53,0,0,0,10,4.72l-.09,0-.25,1L5.77,21.58l-.1.38.2.35L6,22.6a13,13,0,0,0,1.65,2.33A9.7,9.7,0,0,0,0,34.47V42H37.75V34.47a9.71,9.71,0,0,0-7.68-9.54,13.6,13.6,0,0,0,1.66-2.33l.17-.29.2-.35-.1-.39L28.12,5.67l-.24-1-.1,0A7.56,7.56,0,0,0,20.88,0Z" fill="#fff"/><path d="M27.79,25.68h-.07a10.6,10.6,0,0,0,3.14-3.57l.17-.3L27.15,5.9h0A6.57,6.57,0,0,0,20.88,1h-4a6.55,6.55,0,0,0-6.23,4.91h0L6.74,21.81l.17.3a10.6,10.6,0,0,0,3.14,3.57H10a8.78,8.78,0,0,0-9,8.8V41H2.7V34.48A7.11,7.11,0,0,1,10,27.38h4a4.93,4.93,0,0,0,9.77,0h4a7.11,7.11,0,0,1,7.26,7.1V41h1.7V34.48a8.79,8.79,0,0,0-9-8.8M12.07,12.93V10a7.38,7.38,0,0,0,1.28.19,8,8,0,0,0,5.52-1.82,8.14,8.14,0,0,0,5.07,1.83h.46A7.53,7.53,0,0,0,25.68,10v2.92a7,7,0,0,1-6.81,7.22,7,7,0,0,1-6.8-7.22m11.7,12.54V20.21a9,9,0,0,0,3.57-6.35l1.87,7.69a8,8,0,0,1-5.44,3.92M16.85,2.7h4a5,5,0,0,1,4.8,5.1v.46a6.3,6.3,0,0,1-6.23-1.63l-.58-.52-.57.52a6.29,6.29,0,0,1-6.23,1.63V7.8a5,5,0,0,1,4.78-5.1M8.55,21.55l1.86-7.66A9,9,0,0,0,14,20.21v5.26a8,8,0,0,1-5.43-3.92m10.32,8.37A3.24,3.24,0,0,1,15.67,27V21.19a8.11,8.11,0,0,0,6.41,0V27a3.25,3.25,0,0,1-3.21,2.94" fill="#2c5967"/></svg>