<svg id="Layer_1" data-name="Layer 1" xmlns="http://www.w3.org/2000/svg" viewBox="0 0 42 22.91"><title>User Group Female</title><metadata><?xpacket begin="﻿" id="W5M0MpCehiHzreSzNTczkc9d"?>
<x:xmpmeta xmlns:x="adobe:ns:meta/" x:xmptk="Adobe XMP Core 6.0-c006 79.164648, 2021/01/12-15:52:29        ">
   <rdf:RDF xmlns:rdf="http://www.w3.org/1999/02/22-rdf-syntax-ns#">
      <rdf:Description rdf:about=""
            xmlns:xmpRights="http://ns.adobe.com/xap/1.0/rights/"
            xmlns:xmp="http://ns.adobe.com/xap/1.0/"
            xmlns:xmpMM="http://ns.adobe.com/xap/1.0/mm/"
            xmlns:stEvt="http://ns.adobe.com/xap/1.0/sType/ResourceEvent#"
            xmlns:dc="http://purl.org/dc/elements/1.1/"
            xmlns:lr="http://ns.adobe.com/lightroom/1.0/">
         <xmpRights:Marked>True</xmpRights:Marked>
         <xmp:MetadataDate>2022-01-29T10:33:09-06:00</xmp:MetadataDate>
         <xmpMM:InstanceID>xmp.iid:c7748e33-e4c5-4336-94b5-6896639cc1e9</xmpMM:InstanceID>
         <xmpMM:DocumentID>xmp.did:3ff321a2-cbd6-224f-8cec-e4586a575a42</xmpMM:DocumentID>
         <xmpMM:OriginalDocumentID>xmp.did:3ff321a2-cbd6-224f-8cec-e4586a575a42</xmpMM:OriginalDocumentID>
         <xmpMM:History>
            <rdf:Seq>
               <rdf:li>
                  <rdf:Description>
                     <stEvt:action>saved</stEvt:action>
                     <stEvt:instanceID>xmp.iid:3ff321a2-cbd6-224f-8cec-e4586a575a42</stEvt:instanceID>
                     <stEvt:when>2022-01-28T20:44:46-06:00</stEvt:when>
                     <stEvt:softwareAgent>Adobe Bridge 2020 (Windows)</stEvt:softwareAgent>
                     <stEvt:changed>/metadata</stEvt:changed>
                  </rdf:Description>
               </rdf:li>
               <rdf:li>
                  <rdf:Description>
                     <stEvt:action>saved</stEvt:action>
                     <stEvt:instanceID>xmp.iid:c7748e33-e4c5-4336-94b5-6896639cc1e9</stEvt:instanceID>
                     <stEvt:when>2022-01-29T10:33:09-06:00</stEvt:when>
                     <stEvt:softwareAgent>Adobe Bridge 2021 (Macintosh)</stEvt:softwareAgent>
                     <stEvt:changed>/metadata</stEvt:changed>
                  </rdf:Description>
               </rdf:li>
            </rdf:Seq>
         </xmpMM:History>
         <dc:title>
            <rdf:Alt>
               <rdf:li xml:lang="x-default">User Group Female</rdf:li>
            </rdf:Alt>
         </dc:title>
         <dc:rights>
            <rdf:Alt>
               <rdf:li xml:lang="x-default">Oracle, All rights reserved</rdf:li>
            </rdf:Alt>
         </dc:rights>
         <dc:subject>
            <rdf:Bag>
               <rdf:li>Governance</rdf:li>
               <rdf:li>icon</rdf:li>
               <rdf:li>user</rdf:li>
               <rdf:li>person</rdf:li>
               <rdf:li>persona</rdf:li>
               <rdf:li>team</rdf:li>
               <rdf:li>group</rdf:li>
               <rdf:li>Data Management</rdf:li>
               <rdf:li>women</rdf:li>
               <rdf:li>men</rdf:li>
               <rdf:li>man</rdf:li>
               <rdf:li>woman</rdf:li>
            </rdf:Bag>
         </dc:subject>
         <lr:hierarchicalSubject>
            <rdf:Bag>
               <rdf:li>icon</rdf:li>
               <rdf:li>Other Keywords|user</rdf:li>
               <rdf:li>Other Keywords|person</rdf:li>
               <rdf:li>Other Keywords|persona</rdf:li>
               <rdf:li>Other Keywords|team</rdf:li>
               <rdf:li>Data Management</rdf:li>
               <rdf:li>Other Keywords|women</rdf:li>
               <rdf:li>men</rdf:li>
               <rdf:li>man</rdf:li>
               <rdf:li>woman</rdf:li>
            </rdf:Bag>
         </lr:hierarchicalSubject>
      </rdf:Description>
   </rdf:RDF>
</x:xmpmeta>
                                                                                                    
                                                                                                    
                                                                                                    
                                            
<?xpacket end="w"?></metadata>
<path d="M.5,22.4V16.55a4.87,4.87,0,0,1,4.86-4.86H6.1V10.61A4.81,4.81,0,0,1,4.94,7.48v-3C4.94,2,6.33.5,8.57.5h6.26V7.35a5,5,0,0,1-1.48,3.52v.82h1.47l-.18-.29-.23-.4,1.8-7.24a4.1,4.1,0,0,1,.11-.4l.13-.43h0A3.69,3.69,0,0,1,19.84.66h1.83A3.7,3.7,0,0,1,25,2.88h0l.13.46L27.1,11l-.23.4a1.75,1.75,0,0,1-.18.29h1.79V10.61a4.85,4.85,0,0,1-1.15-3.13v-3c0-2.44,1.39-4,3.63-4h6.26V7.35a5.07,5.07,0,0,1-1.48,3.52v.82h.9a4.87,4.87,0,0,1,4.86,4.86V22.4Z" fill="#fff"/><path d="M36.72,1V7.35a4.58,4.58,0,0,1-1.48,3.31v1.53h1.4A4.37,4.37,0,0,1,41,16.55v5.36H1V16.55a4.37,4.37,0,0,1,4.36-4.36H6.6V10.43A4.38,4.38,0,0,1,5.44,7.48v-3C5.44,2.29,6.61,1,8.57,1h5.76V7.35a4.58,4.58,0,0,1-1.48,3.31v1.53h3a5.3,5.3,0,0,1-.77-1L15,10.92l1.75-7c0-.13.06-.25.09-.37l0,0h0a3.23,3.23,0,0,1,3-2.3h1.83a3.24,3.24,0,0,1,3,2.3h0l1.86,7.46-.13.23a5.3,5.3,0,0,1-.77,1H29V10.43a4.42,4.42,0,0,1-1.15-2.95v-3C27.83,2.29,29,1,31,1h5.76m1-1H31c-2.51,0-4.13,1.75-4.13,4.46v3c0,.14,0,.29,0,.43l-1.17-4.7-.24-1-.18,0A4.15,4.15,0,0,0,21.67.16H19.84a4.17,4.17,0,0,0-3.6,2.13l-.16,0-.24,1v0c0,.14-.08.28-.11.43l-.39,1.56V0H8.57C6.06,0,4.44,1.75,4.44,4.46v3A5.29,5.29,0,0,0,5.6,10.79v.4H5.36A5.37,5.37,0,0,0,0,16.55v6.36H42V16.55a5.37,5.37,0,0,0-5.36-5.36h-.4v-.12a5.52,5.52,0,0,0,1.48-3.72V0ZM27.57,11.19l.07-.12-.1-.39-.27-1.09a5.2,5.2,0,0,0,.71,1.2v.4Zm-13.72-.12,0,0v0l.07.12h-.1v-.12Z" fill="#fff"/><path d="M20.31,3.79l.44-.4.45.4a2.63,2.63,0,0,0,2.35.73,2,2,0,0,0-1.88-2H19.84a1.91,1.91,0,0,0-1.78,1.39L18,4.16a2.19,2.19,0,0,0,0,.36A2.63,2.63,0,0,0,20.31,3.79Z" fill="none"/><polygon points="17.13 4.94 17.13 4.94 17.13 4.94 17.13 4.94" fill="none"/><path d="M23.55,5.86a4.12,4.12,0,0,1-.51,0,3.84,3.84,0,0,1-2.29-.76,3.82,3.82,0,0,1-2.8.73v1a2.94,2.94,0,0,0,2.8,3.05,2.93,2.93,0,0,0,2.8-3Z" fill="none"/><path d="M19.77,11.1v2.17a1.13,1.13,0,0,0,1.14,1,1.14,1.14,0,0,0,1.16-1V11a3.86,3.86,0,0,1-1.32.23A3.93,3.93,0,0,1,19.77,11.1Z" fill="none"/><path d="M16.92,8.45l-.57,2.27a3.38,3.38,0,0,0,2.1,1.56V10.47A4.31,4.31,0,0,1,16.92,8.45Z" fill="none"/><path d="M13,2.32H8.57A1.61,1.61,0,0,0,6.81,3.8h4.66C11.81,3.8,12.76,3.8,13,2.32Z" fill="none"/><path d="M13,4.69a2.79,2.79,0,0,1-1.55.43H6.76V7.48a3,3,0,0,0,1,2.22,3.15,3.15,0,0,0,2.39.84A3.25,3.25,0,0,0,13,7.35Z" fill="none"/><path d="M9.89,11.86a4.46,4.46,0,0,1-2-.45v1.26l1.8,1.91,1.82-1.93V11.53a3.93,3.93,0,0,1-1.33.32Z" fill="none"/><path d="M35.4,4.69a2.73,2.73,0,0,1-1.54.43H29.15V7.48a3,3,0,0,0,1,2.22,3.14,3.14,0,0,0,2.38.84,3.24,3.24,0,0,0,2.9-3.19Z" fill="none"/><path d="M32.28,11.86a4.46,4.46,0,0,1-2-.45v1.26l1.8,1.91,1.82-1.93V11.53a4,4,0,0,1-1.33.32Z" fill="none"/><path d="M35.36,2.32H31A1.61,1.61,0,0,0,29.2,3.8h4.66C34.2,3.8,35.15,3.8,35.36,2.32Z" fill="none"/><path d="M23.38,10.22h0v2a3.36,3.36,0,0,0,1.77-1.46l-.57-2.29A4.38,4.38,0,0,1,23.38,10.22Z" fill="none"/><path d="M36.64,12.19h-1.4V10.66a4.58,4.58,0,0,0,1.48-3.31V1H31c-2,0-3.13,1.29-3.13,3.46v3A4.42,4.42,0,0,0,29,10.43v1.76H27.85a5.77,5.77,0,0,1,1,.86c.13.15.26.3.38.46h.05l2.82,3,2.82-3h1.72a3,3,0,0,1,3,3v5.36H41V16.55A4.37,4.37,0,0,0,36.64,12.19ZM31,2.32h4.4C35.15,3.8,34.2,3.8,33.86,3.8H29.2A1.61,1.61,0,0,1,31,2.32Zm3,10.33L32.1,14.58l-1.8-1.91V11.41a4.46,4.46,0,0,0,2,.45h.31a4,4,0,0,0,1.33-.32ZM32.5,10.54a3.14,3.14,0,0,1-2.38-.84,3,3,0,0,1-1-2.22V5.12h4.71a2.73,2.73,0,0,0,1.54-.43V7.35A3.24,3.24,0,0,1,32.5,10.54Z" fill="#2c5967"/><polygon points="37.38 16.64 36.72 16.64 36.06 17.95 36.06 17.95 36.06 21.91 37.38 21.91 37.38 16.64" fill="#2c5967"/><path d="M12.6,13.51c.09-.11.17-.22.26-.32a5.74,5.74,0,0,1,1.15-1H12.85V10.66a4.58,4.58,0,0,0,1.48-3.31V1H8.57c-2,0-3.13,1.29-3.13,3.46v3A4.38,4.38,0,0,0,6.6,10.43v1.76H5.36A4.37,4.37,0,0,0,1,16.55v5.36H2.32V16.55a3,3,0,0,1,3-3H6.89l2.82,3,2.82-3Zm-4-11.19H13c-.21,1.48-1.16,1.48-1.5,1.48H6.81A1.61,1.61,0,0,1,8.57,2.32Zm3,10.33L9.71,14.58l-1.8-1.91V11.41a4.46,4.46,0,0,0,2,.45h.31a3.93,3.93,0,0,0,1.33-.32Zm-1.41-2.11A3.15,3.15,0,0,1,7.73,9.7a3,3,0,0,1-1-2.22V5.12h4.71A2.79,2.79,0,0,0,13,4.69V7.35A3.25,3.25,0,0,1,10.12,10.54Z" fill="#2c5967"/><polygon points="5.12 16.64 4.46 16.64 4.46 21.91 5.77 21.91 5.77 17.95 5.77 17.95 5.12 16.64" fill="#2c5967"/><path d="M25.5,12.39a5.53,5.53,0,0,0,.94-1.24l.13-.23L24.71,3.46h0a3.24,3.24,0,0,0-3-2.3H19.84a3.23,3.23,0,0,0-3,2.3h0l0,0c0,.12-.07.24-.09.37l-1.75,7,.13.23a5.47,5.47,0,0,0,1,1.29,4.36,4.36,0,0,0-3.54,4.28v5.19h1.32V16.72a3,3,0,0,1,3-3h1.61a2.49,2.49,0,0,0,4.86,0H25a3.06,3.06,0,0,1,3.05,3v5.19h1.31V16.72A4.37,4.37,0,0,0,25.5,12.39ZM18,4.16l.07-.29a1.91,1.91,0,0,1,1.78-1.39h1.83a2,2,0,0,1,1.88,2,2.63,2.63,0,0,1-2.35-.73l-.45-.4-.44.4A2.63,2.63,0,0,1,18,4.52,2.19,2.19,0,0,1,18,4.16Zm-.86.78Zm1.32,7.34a3.38,3.38,0,0,1-2.1-1.56l.57-2.27a4.31,4.31,0,0,0,1.53,2Zm3.62,1a1.14,1.14,0,0,1-1.16,1,1.13,1.13,0,0,1-1.14-1V11.1a3.93,3.93,0,0,0,1,.12A3.86,3.86,0,0,0,22.07,11ZM20.75,9.91a2.94,2.94,0,0,1-2.8-3v-1a3.82,3.82,0,0,0,2.8-.73A3.84,3.84,0,0,0,23,5.89a4.12,4.12,0,0,0,.51,0v1A2.93,2.93,0,0,1,20.75,9.91Zm2.64,2.27v-2h0a4.38,4.38,0,0,0,1.21-1.79l.57,2.29A3.36,3.36,0,0,1,23.39,12.18Z" fill="#2c5967"/><polygon points="16.47 16.64 15.81 16.64 15.81 21.91 17.13 21.91 17.13 17.95 17.13 17.95 16.47 16.64" fill="#2c5967"/><polygon points="24.7 17.95 24.7 17.95 24.7 21.91 26.02 21.91 26.02 16.64 25.36 16.64 24.7 17.95" fill="#2c5967"/></svg>