<svg id="Layer_1" data-name="Layer 1" xmlns="http://www.w3.org/2000/svg" viewBox="0 0 42 22.16"><title>User Group Male</title><metadata><?xpacket begin="﻿" id="W5M0MpCehiHzreSzNTczkc9d"?>
<x:xmpmeta xmlns:x="adobe:ns:meta/" x:xmptk="Adobe XMP Core 6.0-c006 79.164648, 2021/01/12-15:52:29        ">
   <rdf:RDF xmlns:rdf="http://www.w3.org/1999/02/22-rdf-syntax-ns#">
      <rdf:Description rdf:about=""
            xmlns:xmpRights="http://ns.adobe.com/xap/1.0/rights/"
            xmlns:xmp="http://ns.adobe.com/xap/1.0/"
            xmlns:xmpMM="http://ns.adobe.com/xap/1.0/mm/"
            xmlns:stEvt="http://ns.adobe.com/xap/1.0/sType/ResourceEvent#"
            xmlns:dc="http://purl.org/dc/elements/1.1/"
            xmlns:lr="http://ns.adobe.com/lightroom/1.0/">
         <xmpRights:Marked>True</xmpRights:Marked>
         <xmp:MetadataDate>2022-01-29T10:33:09-06:00</xmp:MetadataDate>
         <xmpMM:InstanceID>xmp.iid:433af91f-e6f8-4b8b-9412-e1beb212a6c8</xmpMM:InstanceID>
         <xmpMM:DocumentID>xmp.did:8221ff8e-7935-494d-b91c-b1df0d9dc69c</xmpMM:DocumentID>
         <xmpMM:OriginalDocumentID>xmp.did:8221ff8e-7935-494d-b91c-b1df0d9dc69c</xmpMM:OriginalDocumentID>
         <xmpMM:History>
            <rdf:Seq>
               <rdf:li>
                  <rdf:Description>
                     <stEvt:action>saved</stEvt:action>
                     <stEvt:instanceID>xmp.iid:8221ff8e-7935-494d-b91c-b1df0d9dc69c</stEvt:instanceID>
                     <stEvt:when>2022-01-28T20:44:46-06:00</stEvt:when>
                     <stEvt:softwareAgent>Adobe Bridge 2020 (Windows)</stEvt:softwareAgent>
                     <stEvt:changed>/metadata</stEvt:changed>
                  </rdf:Description>
               </rdf:li>
               <rdf:li>
                  <rdf:Description>
                     <stEvt:action>saved</stEvt:action>
                     <stEvt:instanceID>xmp.iid:433af91f-e6f8-4b8b-9412-e1beb212a6c8</stEvt:instanceID>
                     <stEvt:when>2022-01-29T10:33:09-06:00</stEvt:when>
                     <stEvt:softwareAgent>Adobe Bridge 2021 (Macintosh)</stEvt:softwareAgent>
                     <stEvt:changed>/metadata</stEvt:changed>
                  </rdf:Description>
               </rdf:li>
            </rdf:Seq>
         </xmpMM:History>
         <dc:title>
            <rdf:Alt>
               <rdf:li xml:lang="x-default">User Group Male</rdf:li>
            </rdf:Alt>
         </dc:title>
         <dc:rights>
            <rdf:Alt>
               <rdf:li xml:lang="x-default">Oracle, All rights reserved</rdf:li>
            </rdf:Alt>
         </dc:rights>
         <dc:subject>
            <rdf:Bag>
               <rdf:li>Governance</rdf:li>
               <rdf:li>icon</rdf:li>
               <rdf:li>user</rdf:li>
               <rdf:li>person</rdf:li>
               <rdf:li>persona</rdf:li>
               <rdf:li>team</rdf:li>
               <rdf:li>group</rdf:li>
               <rdf:li>Data Management</rdf:li>
               <rdf:li>women</rdf:li>
               <rdf:li>men</rdf:li>
               <rdf:li>man</rdf:li>
               <rdf:li>woman</rdf:li>
            </rdf:Bag>
         </dc:subject>
         <lr:hierarchicalSubject>
            <rdf:Bag>
               <rdf:li>icon</rdf:li>
               <rdf:li>Other Keywords|user</rdf:li>
               <rdf:li>Other Keywords|person</rdf:li>
               <rdf:li>Other Keywords|persona</rdf:li>
               <rdf:li>Other Keywords|team</rdf:li>
               <rdf:li>Data Management</rdf:li>
               <rdf:li>Other Keywords|women</rdf:li>
               <rdf:li>men</rdf:li>
               <rdf:li>man</rdf:li>
               <rdf:li>woman</rdf:li>
            </rdf:Bag>
         </lr:hierarchicalSubject>
      </rdf:Description>
   </rdf:RDF>
</x:xmpmeta>
                                                                                                    
                                                                                                    
                                                                                                    
                                            
<?xpacket end="w"?></metadata>
<path d="M.5,21.66v-5.5a4.69,4.69,0,0,1,3.1-4.43A5.86,5.86,0,0,1,3.15,11l-.23-.4,2-7.87.1,0A3.57,3.57,0,0,1,8.21.66H10A3.64,3.64,0,0,1,13.54,4l1.79,7.51a4.51,4.51,0,0,1,1.46-.24h.85v-.83a4.74,4.74,0,0,1-1.27-3.21V4.33C16.37,2,17.72.5,19.89.5h6.05V7.12a4.93,4.93,0,0,1-1.27,3.24v.93h.7a4.6,4.6,0,0,1,1.22.17L28.47,4A3.62,3.62,0,0,1,32,.66h1.77A3.57,3.57,0,0,1,37,2.79h0l.17.47,1.84,7.39-.23.4a5.86,5.86,0,0,1-.45.69,4.69,4.69,0,0,1,3.1,4.43v5.5Z" fill="#fff"/><path d="M25.44,1V7.12a4.39,4.39,0,0,1-1.27,3v1.63h1.2A4.36,4.36,0,0,1,27,12.1l2-8A3.17,3.17,0,0,1,32,1.16h1.77a3.11,3.11,0,0,1,2.92,2.22h0l1.79,7.2-.12.22A5.4,5.4,0,0,1,37.48,12,4.21,4.21,0,0,1,41,16.16v5H1v-5A4.21,4.21,0,0,1,4.52,12a5.4,5.4,0,0,1-.94-1.22l-.12-.22,1.79-7.2h0A3.11,3.11,0,0,1,8.21,1.16H10a3.17,3.17,0,0,1,3.07,2.91L15,12.21a4.27,4.27,0,0,1,1.82-.42h1.35V10.25a4.25,4.25,0,0,1-1.27-3V4.33C16.87,2.25,18,1,19.89,1h5.55m1-1H19.91c-2.46,0-4,1.7-4,4.33V7.25a5.25,5.25,0,0,0,1.27,3.4v.14h-.35a5.08,5.08,0,0,0-1.1.12L14,3.9A4.13,4.13,0,0,0,10,.16H8.21A4,4,0,0,0,4.72,2.21l-.16,0-.28,1-1.79,7.2-.1.39.2.35.13.22a2.53,2.53,0,0,0,.13.22A5.2,5.2,0,0,0,0,16.16v6H42v-6a5.2,5.2,0,0,0-2.85-4.65,2.53,2.53,0,0,0,.13-.22l.13-.22.2-.35-.1-.39-1.79-7.2-.24-1-.2,0a4,4,0,0,0-3.49-2H32A4.13,4.13,0,0,0,28,3.9l-1.75,7a4.8,4.8,0,0,0-.85-.08h-.2v-.25a5.34,5.34,0,0,0,1.27-3.42V0Z" fill="#fff"/><path d="M37.48,12a5.4,5.4,0,0,0,.94-1.22l.12-.22-1.79-7.2h0a3.11,3.11,0,0,0-2.92-2.22H32A3.17,3.17,0,0,0,29,4.07l-1.61,6.5.12.22a6.83,6.83,0,0,0,.54.79,5.29,5.29,0,0,1,1.69,1.64h.87a2.41,2.41,0,0,0,4.69,0H36.8a2.94,2.94,0,0,1,2.93,2.94v5H41v-5A4.21,4.21,0,0,0,37.48,12ZM30.21,6.65v-1a4.24,4.24,0,0,0,.53,0A3.68,3.68,0,0,0,32.94,5a3.68,3.68,0,0,0,2.66.71v1a2.71,2.71,0,1,1-5.39,0Zm5.08,5.19V10a4.17,4.17,0,0,0,1.33-1.9l.57,2.25A3.23,3.23,0,0,1,35.29,11.84ZM32,2.43h1.77a1.9,1.9,0,0,1,1.81,2,2.54,2.54,0,0,1-2.23-.71l-.43-.39-.42.39a2.56,2.56,0,0,1-2.31.7V4.27l.15-.6h0A1.82,1.82,0,0,1,32,2.43Zm-2.79,5.8A4.24,4.24,0,0,0,30.52,10v1.8a3.23,3.23,0,0,1-1.83-1.45Zm3.68,5.59a1.11,1.11,0,0,1-1.12-1V10.69a3.74,3.74,0,0,0,2.23,0v2.14A1.1,1.1,0,0,1,32.91,13.82Z" fill="#2c5967"/><polygon points="36.56 17.35 36.56 17.35 36.56 21.16 37.83 21.16 37.83 17.35 37.83 17.35 37.83 16.08 37.19 16.08 36.56 17.35" fill="#2c5967"/><path d="M13.78,11.83a5.58,5.58,0,0,0,.76-1l.12-.22-1.61-6.5A3.17,3.17,0,0,0,10,1.16H8.21A3.11,3.11,0,0,0,5.29,3.38h0l-1.79,7.2.12.22A5.4,5.4,0,0,0,4.52,12,4.21,4.21,0,0,0,1,16.16v5H2.27v-5A2.94,2.94,0,0,1,5.2,13.22H6.75a2.41,2.41,0,0,0,4.69,0h1A5.42,5.42,0,0,1,13.78,11.83ZM6.4,6.65v-1A3.68,3.68,0,0,0,9.06,5a3.7,3.7,0,0,0,2.2.74,4.24,4.24,0,0,0,.53,0v1A2.83,2.83,0,0,1,9.1,9.59,2.83,2.83,0,0,1,6.4,6.65Zm5.08,5.17V10a4.24,4.24,0,0,0,1.29-1.79l.54,2.14A3.23,3.23,0,0,1,11.48,11.82ZM8.21,2.43H10a1.82,1.82,0,0,1,1.68,1.24h0l.15.6v.12a2.56,2.56,0,0,1-2.31-.7L9.06,3.3l-.43.39a2.58,2.58,0,0,1-2.23.72A1.9,1.9,0,0,1,8.21,2.43ZM5.38,8.12A4.17,4.17,0,0,0,6.71,10v1.82a3.23,3.23,0,0,1-1.9-1.47Zm3.71,5.7a1.1,1.1,0,0,1-1.11-1V10.69a3.74,3.74,0,0,0,2.23,0v2.14A1.11,1.11,0,0,1,9.09,13.82Z" fill="#2c5967"/><polygon points="4.81 16.08 4.17 16.08 4.17 17.35 4.17 17.35 4.17 21.16 5.44 21.16 5.44 17.35 5.44 17.35 4.81 16.08" fill="#2c5967"/><path d="M25.37,11.79h-1.2V10.16a4.39,4.39,0,0,0,1.27-3V1H19.89c-1.89,0-3,1.25-3,3.33V7.25a4.25,4.25,0,0,0,1.27,3v1.54H16.79A4.21,4.21,0,0,0,12.59,16v5.16h1.27V16a2.94,2.94,0,0,1,2.93-2.94h1.64L21.15,16l2.72-2.89h1.5A2.94,2.94,0,0,1,28.3,16v5.16h1.27V16A4.21,4.21,0,0,0,25.37,11.79Zm-4-1.59a3,3,0,0,1-2.3-.81,2.87,2.87,0,0,1-.94-2.14V5h4.55a2.63,2.63,0,0,0,1.48-.41V7.12A3.13,3.13,0,0,1,21.38,10.2Zm2.75-7.93C23.93,3.7,23,3.7,22.69,3.7h-4.5a1.56,1.56,0,0,1,1.7-1.43Zm-3,11.83-1.74-1.84V11.11a4.36,4.36,0,0,0,1.75.37h.3a3.9,3.9,0,0,0,1.44-.39v1.15Z" fill="#2c5967"/><polygon points="17.19 17.35 17.19 17.35 16.55 16.08 15.92 16.08 15.92 17.35 15.92 17.35 15.92 21.16 17.19 21.16 17.19 17.35" fill="#2c5967"/><polygon points="26.08 21.16 26.08 17.35 26.08 17.35 26.08 16.08 25.45 16.08 24.81 17.35 24.81 17.35 24.81 21.16 26.08 21.16" fill="#2c5967"/></svg>