<svg id="Layer_1" data-name="Layer 1" xmlns="http://www.w3.org/2000/svg" viewBox="0 0 41.15 42"><title>Personas_End-User-Male</title><metadata><?xpacket begin="﻿" id="W5M0MpCehiHzreSzNTczkc9d"?>
<x:xmpmeta xmlns:x="adobe:ns:meta/" x:xmptk="Adobe XMP Core 6.0-c006 79.164648, 2021/01/12-15:52:29        ">
   <rdf:RDF xmlns:rdf="http://www.w3.org/1999/02/22-rdf-syntax-ns#">
      <rdf:Description rdf:about=""
            xmlns:xmpRights="http://ns.adobe.com/xap/1.0/rights/"
            xmlns:xmp="http://ns.adobe.com/xap/1.0/"
            xmlns:xmpMM="http://ns.adobe.com/xap/1.0/mm/"
            xmlns:stEvt="http://ns.adobe.com/xap/1.0/sType/ResourceEvent#"
            xmlns:dc="http://purl.org/dc/elements/1.1/"
            xmlns:lr="http://ns.adobe.com/lightroom/1.0/">
         <xmpRights:Marked>True</xmpRights:Marked>
         <xmp:MetadataDate>2022-03-02T16:50:49-06:00</xmp:MetadataDate>
         <xmpMM:InstanceID>xmp.iid:28b96082-ce74-45cf-b90e-56bef376bca3</xmpMM:InstanceID>
         <xmpMM:DocumentID>xmp.did:051be65a-ac2d-6e4e-a93c-5aa63aee17db</xmpMM:DocumentID>
         <xmpMM:OriginalDocumentID>xmp.did:051be65a-ac2d-6e4e-a93c-5aa63aee17db</xmpMM:OriginalDocumentID>
         <xmpMM:History>
            <rdf:Seq>
               <rdf:li>
                  <rdf:Description>
                     <stEvt:action>saved</stEvt:action>
                     <stEvt:instanceID>xmp.iid:051be65a-ac2d-6e4e-a93c-5aa63aee17db</stEvt:instanceID>
                     <stEvt:when>2022-01-28T20:44:45-06:00</stEvt:when>
                     <stEvt:softwareAgent>Adobe Bridge 2020 (Windows)</stEvt:softwareAgent>
                     <stEvt:changed>/metadata</stEvt:changed>
                  </rdf:Description>
               </rdf:li>
               <rdf:li>
                  <rdf:Description>
                     <stEvt:action>saved</stEvt:action>
                     <stEvt:instanceID>xmp.iid:28b96082-ce74-45cf-b90e-56bef376bca3</stEvt:instanceID>
                     <stEvt:when>2022-03-02T16:50:49-06:00</stEvt:when>
                     <stEvt:softwareAgent>Adobe Bridge 2021 (Macintosh)</stEvt:softwareAgent>
                     <stEvt:changed>/metadata</stEvt:changed>
                  </rdf:Description>
               </rdf:li>
            </rdf:Seq>
         </xmpMM:History>
         <dc:title>
            <rdf:Alt>
               <rdf:li xml:lang="x-default">Personas_End-User-Male</rdf:li>
            </rdf:Alt>
         </dc:title>
         <dc:rights>
            <rdf:Alt>
               <rdf:li xml:lang="x-default">Oracle, All rights reserved</rdf:li>
            </rdf:Alt>
         </dc:rights>
         <dc:subject>
            <rdf:Bag>
               <rdf:li>icon</rdf:li>
               <rdf:li>user</rdf:li>
               <rdf:li>person</rdf:li>
               <rdf:li>persona</rdf:li>
               <rdf:li>men</rdf:li>
               <rdf:li>man</rdf:li>
               <rdf:li>client</rdf:li>
               <rdf:li>employee</rdf:li>
            </rdf:Bag>
         </dc:subject>
         <lr:hierarchicalSubject>
            <rdf:Bag>
               <rdf:li>icon</rdf:li>
               <rdf:li>Other Keywords|user</rdf:li>
               <rdf:li>Other Keywords|person</rdf:li>
               <rdf:li>Other Keywords|persona</rdf:li>
               <rdf:li>men</rdf:li>
               <rdf:li>man</rdf:li>
            </rdf:Bag>
         </lr:hierarchicalSubject>
      </rdf:Description>
   </rdf:RDF>
</x:xmpmeta>
                                                                                                    
                                                                                                    
                                                                                                    
                                                                                                    
                                                                                                    
                                                                                                    
                                                                                              
<?xpacket end="w"?></metadata>
<path d="M.5,41.5V34.8A10.6,10.6,0,0,1,11,24.12h3.12V20.34a9.25,9.25,0,0,1-2.77-6.57V7.6c0-4.38,2.5-7.1,6.51-7.1H29.8V13.77A9.24,9.24,0,0,1,27,20.28v3.84h2.91A10.71,10.71,0,0,1,40.65,34.8v6.7Z" fill="#fff"/><path d="M29.29,1V13.77a8.71,8.71,0,0,1-2.77,6.3v4.55h3.41A10.2,10.2,0,0,1,40.15,34.8V41H1V34.8A10.1,10.1,0,0,1,11,24.62h3.62V20.13a8.7,8.7,0,0,1-2.77-6.36V7.6c0-4.13,2.25-6.6,6-6.6H29.29m1-1H17.86c-4.32,0-7,2.91-7,7.6v6.17a9.73,9.73,0,0,0,2.77,6.78v3.07H11A11.1,11.1,0,0,0,0,34.8V42H41.15V34.8A11.21,11.21,0,0,0,29.94,23.62H27.53V20.49a9.76,9.76,0,0,0,2.77-6.72V0Z" fill="#fff"/><path d="M29.94,24.62H26.53V20.07a8.71,8.71,0,0,0,2.77-6.3V1H17.86c-3.76,0-6,2.47-6,6.6v6.17a8.7,8.7,0,0,0,2.77,6.36v4.49H11A10.1,10.1,0,0,0,1,34.8V41H2.7V34.8A8.4,8.4,0,0,1,11,26.32h4.29L20.57,32l5.29-5.72h4.08a8.5,8.5,0,0,1,8.51,8.48V41h1.7V34.8A10.2,10.2,0,0,0,29.94,24.62M17.81,2.7H27.6c-.22,2.69-1.53,4-3.83,4H13.59c.19-2,1.1-4,4.22-4M13.55,13.77V8.45H23.77A5.2,5.2,0,0,0,27.6,7v6.77a7.12,7.12,0,0,1-7,7,7,7,0,0,1-7-7m7,15.76-4.25-4.61V21.38a8.74,8.74,0,0,0,4.25,1.11,8.52,8.52,0,0,0,4.26-1.15v3.58Z" fill="#2c5967"/></svg>