<svg id="Layer_1" data-name="Layer 1" xmlns="http://www.w3.org/2000/svg" viewBox="0 0 39.97 42"><title>Full-Stack-Disaster-Recovery</title><metadata><?xpacket begin="﻿" id="W5M0MpCehiHzreSzNTczkc9d"?>
<x:xmpmeta xmlns:x="adobe:ns:meta/" x:xmptk="Adobe XMP Core 6.0-c006 79.164648, 2021/01/12-15:52:29        ">
   <rdf:RDF xmlns:rdf="http://www.w3.org/1999/02/22-rdf-syntax-ns#">
      <rdf:Description rdf:about=""
            xmlns:dc="http://purl.org/dc/elements/1.1/"
            xmlns:xmpRights="http://ns.adobe.com/xap/1.0/rights/"
            xmlns:xmp="http://ns.adobe.com/xap/1.0/"
            xmlns:xmpMM="http://ns.adobe.com/xap/1.0/mm/"
            xmlns:stEvt="http://ns.adobe.com/xap/1.0/sType/ResourceEvent#"
            xmlns:lr="http://ns.adobe.com/lightroom/1.0/">
         <dc:title>
            <rdf:Alt>
               <rdf:li xml:lang="x-default">Full-Stack-Disaster-Recovery</rdf:li>
            </rdf:Alt>
         </dc:title>
         <dc:rights>
            <rdf:Alt>
               <rdf:li xml:lang="x-default">Oracle All Rights Reserved</rdf:li>
            </rdf:Alt>
         </dc:rights>
         <dc:subject>
            <rdf:Bag>
               <rdf:li>full stack</rdf:li>
               <rdf:li>disaster</rdf:li>
               <rdf:li>recovery</rdf:li>
               <rdf:li>icon</rdf:li>
            </rdf:Bag>
         </dc:subject>
         <xmpRights:Marked>True</xmpRights:Marked>
         <xmp:MetadataDate>2022-10-21T13:45:29-05:00</xmp:MetadataDate>
         <xmpMM:InstanceID>xmp.iid:7bb73732-1c03-4569-9aae-d9feadb56962</xmpMM:InstanceID>
         <xmpMM:DocumentID>xmp.did:671f1152-0c9c-eb4e-9573-971be1c6f4f4</xmpMM:DocumentID>
         <xmpMM:OriginalDocumentID>xmp.did:671f1152-0c9c-eb4e-9573-971be1c6f4f4</xmpMM:OriginalDocumentID>
         <xmpMM:History>
            <rdf:Seq>
               <rdf:li>
                  <rdf:Description>
                     <stEvt:action>saved</stEvt:action>
                     <stEvt:instanceID>xmp.iid:671f1152-0c9c-eb4e-9573-971be1c6f4f4</stEvt:instanceID>
                     <stEvt:when>2022-05-16T17:06:06-05:00</stEvt:when>
                     <stEvt:softwareAgent>Adobe Bridge 2021 (Windows)</stEvt:softwareAgent>
                     <stEvt:changed>/metadata</stEvt:changed>
                  </rdf:Description>
               </rdf:li>
               <rdf:li>
                  <rdf:Description>
                     <stEvt:action>saved</stEvt:action>
                     <stEvt:instanceID>xmp.iid:7bb73732-1c03-4569-9aae-d9feadb56962</stEvt:instanceID>
                     <stEvt:when>2022-10-21T13:45:29-05:00</stEvt:when>
                     <stEvt:softwareAgent>Adobe Bridge 2021 (Macintosh)</stEvt:softwareAgent>
                     <stEvt:changed>/metadata</stEvt:changed>
                  </rdf:Description>
               </rdf:li>
            </rdf:Seq>
         </xmpMM:History>
         <lr:hierarchicalSubject>
            <rdf:Bag>
               <rdf:li>icon</rdf:li>
            </rdf:Bag>
         </lr:hierarchicalSubject>
      </rdf:Description>
   </rdf:RDF>
</x:xmpmeta>
                                                                                                    
                                                                                                    
                                                                                                    
                                                                                                    
                                                                                                    
                                                                                                    
                                                                                                    
                                                                                                    
                                                                                                    

<?xpacket end="w"?></metadata>
<polygon points="18.32 25.64 13.84 18.22 16.69 18.22 14.93 13.7 16.72 13.7 21.49 21.12 18.57 21.12 20.08 25.64 18.32 25.64" fill="#2c5967"/><path d="M16.45,14.2l2.58,4,1.54,2.41H17.88l1.51,4.52h-.78l-3-4.88-.93-1.54h2.7l-.21-.53-1.55-4h.79m.54-1H14.2l.53,1.36L16,17.72H13l.92,1.52.93,1.54,2.95,4.88.29.48h2.73l-.43-1.31-1.07-3.21H22.4l-1-1.54-1.54-2.41-2.58-4L17,13.2Z" fill="#fff"/><path d="M37.19,28.77h-.9V24c0-.94-.4-2.6-2.95-3.52l.1-.1-.7-.71-.89-.89h2.58l.28-.53.21-.38a8.6,8.6,0,0,0-3-11.32,8.49,8.49,0,0,0-2.72-1.11,1.51,1.51,0,0,1-1-.78A8.35,8.35,0,0,0,20.7,0a8.44,8.44,0,0,0-6.15,2.68,1.32,1.32,0,0,1-1,.42h-.14l-.65,0a7.06,7.06,0,0,0-2.8.59,7,7,0,0,0-4,5,1.42,1.42,0,0,1-.75,1A8.84,8.84,0,0,0,.45,16.91l-.06.79L.31,18.77H6.46c-.07.36-.13.73-.17,1.1l-.28,0c-3.87.43-6,1.88-6,4.1V34.27c0,1.48,1.51,2.67,4.26,3.34l.33.09v1.52A2.79,2.79,0,0,0,7.37,42h9.36a2.79,2.79,0,0,0,2.79-2.78l-.05-4.95h1a7.54,7.54,0,0,0,4.22,3.33l.33.09v1.53A2.79,2.79,0,0,0,27.83,42h9.36A2.79,2.79,0,0,0,40,39.22V31.57A2.8,2.8,0,0,0,37.19,28.77Z" fill="#fff"/><polygon points="14.72 18.72 15.65 20.26 18.61 25.14 19.39 25.14 17.88 20.62 20.57 20.62 19.03 18.21 16.45 14.2 15.66 14.2 17.21 18.19 17.42 18.72 14.72 18.72" fill="#2c5967"/><path d="M23,34.18V31.13a10,10,0,0,0,2,.63v-.19a2.89,2.89,0,0,1,.28-1.24A5.55,5.55,0,0,1,23,29.44V26a11.48,11.48,0,0,0,5.44,1.23A11.48,11.48,0,0,0,33.83,26v2.72h1.46V24c0-.82-.43-2-2.64-2.7l-1.21,1.22c1.39.27,2.39.75,2.39,1.48,0,.51-2.11,1.73-5.44,1.73S23,24.5,23,24s.95-1.11,2.5-1.45l-1.19-1.19c-1.54.47-2.77,1.29-2.77,2.64V34.27c0,1,1.51,1.88,3.46,2.36V35.12A4.88,4.88,0,0,1,23,34.18Z" fill="#2c5967"/><path d="M9.76,22.34c2,.2,3.58.73,3.58,1.65,0,.51-2.11,1.73-5.44,1.73S2.46,24.5,2.46,24s1.44-1.38,3.66-1.64V20.89C3.72,21.15,1,22,1,24V34.27c0,1,1.53,1.89,3.5,2.37V35.13a4.84,4.84,0,0,1-2-1V31.13a9.23,9.23,0,0,0,2,.63v-.19a3,3,0,0,1,.27-1.23,5.58,5.58,0,0,1-2.31-.9V26A11.6,11.6,0,0,0,7.9,27.18,11.62,11.62,0,0,0,13.34,26v2.71h1.45V24c0-1.06-.7-2.75-5-3.12,0,.11,0,.22,0,.33Z" fill="#2c5967"/><path d="M3,16.31a6.43,6.43,0,0,1,3.35-4.46,3.92,3.92,0,0,0,2-2.7A4.49,4.49,0,0,1,13.2,5.54a3.76,3.76,0,0,0,3.15-1.18A5.93,5.93,0,0,1,26,5.74a3.94,3.94,0,0,0,2.68,2.09,6.2,6.2,0,0,1,1.94.79,6.13,6.13,0,0,1,2.31,7.69H29.21a12.13,12.13,0,0,1,.54,1.46h4.08l.21-.38a7.6,7.6,0,0,0-5-11,2.45,2.45,0,0,1-1.69-1.31,7.4,7.4,0,0,0-12-1.73,2.31,2.31,0,0,1-1.95.73,5.88,5.88,0,0,0-2.95.48,6,6,0,0,0-3.45,4.3,2.4,2.4,0,0,1-1.26,1.68A7.92,7.92,0,0,0,1.44,17l-.06.78H6.62a12.13,12.13,0,0,1,.54-1.46Z" fill="#2c5967"/><path d="M32,20.37l-1-1-1.85,1.84a11,11,0,0,0-21.94,0V23H8.67V21.2a9.51,9.51,0,0,1,19,0l-1.85-1.85-1,1L28.43,24Z" fill="#2c5967"/><polygon points="35 34.91 33.48 36.4 32.85 35.77 31.82 36.8 33.48 38.45 33.48 38.45 36.02 35.95 35 34.91" fill="#2c5967"/><path d="M37.19,29.77H27.83A1.8,1.8,0,0,0,26,31.57v7.65A1.79,1.79,0,0,0,27.83,41h9.36A1.78,1.78,0,0,0,39,39.22V31.57A1.79,1.79,0,0,0,37.19,29.77Zm-9.36,9.77a.32.32,0,0,1-.33-.32V33.78H29v5.76Zm9.68-.32a.32.32,0,0,1-.32.32H30.42V33.78h7.09Zm0-6.9h-10v-.75a.35.35,0,0,1,.33-.35h9.36a.35.35,0,0,1,.32.35Z" fill="#2c5967"/><path d="M7.37,29.77a1.79,1.79,0,0,0-1.78,1.8v7.65A1.78,1.78,0,0,0,7.37,41h9.36a1.79,1.79,0,0,0,1.79-1.78V31.57a1.8,1.8,0,0,0-1.79-1.8Zm0,9.77a.32.32,0,0,1-.32-.32V33.78H8.51v5.76Zm9.69-.32a.32.32,0,0,1-.33.32H10V33.78h7.09Zm-.33-8a.35.35,0,0,1,.33.35v.75h-10v-.75a.35.35,0,0,1,.32-.35Z" fill="#2c5967"/></svg>