<svg width="157" height="180" viewBox="0 0 157 180" fill="none" xmlns="http://www.w3.org/2000/svg">
<g clip-path="url(#clip0_28831_143725)">
<mask id="mask0_28831_143725" style="mask-type:luminance" maskUnits="userSpaceOnUse" x="0" y="0" width="157" height="180">
<path d="M157 0H0V180H157V0Z" fill="white"/>
</mask>
<g mask="url(#mask0_28831_143725)">
<path d="M111.51 94.0912C87.908 94.0912 68.7533 113.182 68.7533 136.704C68.7533 160.227 87.908 179.318 111.51 179.318C135.11 179.318 154.265 160.227 154.265 136.704C154.265 113.182 135.11 94.0912 111.51 94.0912ZM125.619 156.733L107.234 138.409V111.136H115.785V134.914L131.605 150.681L125.619 156.733ZM120.061 17.3863H92.8674C89.2762 7.49991 79.8699 0.34082 68.7533 0.34082C57.6367 0.34082 48.2305 7.49991 44.6389 17.3863H17.4462C8.03983 17.3863 0.34375 25.0567 0.34375 34.4317V162.272C0.34375 171.648 8.03983 179.318 17.4462 179.318H69.694C64.6349 174.424 60.5192 168.646 57.5513 162.272H17.4462V34.4317H34.5485V59.9999H102.958V34.4317H120.061V77.7272C126.132 78.5794 131.861 80.3693 137.163 82.8408V34.4317C137.163 25.0567 129.466 17.3863 120.061 17.3863ZM68.7533 34.4317C64.0502 34.4317 60.2022 30.5965 60.2022 25.909C60.2022 21.2215 64.0502 17.3863 68.7533 17.3863C73.4565 17.3863 77.3045 21.2215 77.3045 25.909C77.3045 30.5965 73.4565 34.4317 68.7533 34.4317Z" fill="#73818F"/>
<path d="M157.002 88.9766H68.7539V178.977H157.002V88.9766Z" fill="white"/>
<mask id="mask1_28831_143725" style="mask-type:luminance" maskUnits="userSpaceOnUse" x="73" y="90" width="68" height="90">
<path d="M140.582 90H73.8828V180H140.582V90Z" fill="white"/>
</mask>
<g mask="url(#mask1_28831_143725)">
<path d="M140.582 90H73.8828V180H140.582V90Z" fill="white"/>
<path d="M140.582 126H113.296L119.36 90L73.8828 144H101.169L95.1051 180L140.582 126Z" fill="#73818F"/>
</g>
</g>
</g>
<defs>
<clipPath id="clip0_28831_143725">
<rect width="157" height="180" fill="white"/>
</clipPath>
</defs>
</svg>
