<svg width="20" height="20" viewBox="0 0 20 20" fill="none" xmlns="http://www.w3.org/2000/svg">
<g clip-path="url(#clip0_21996_40194)">
<path d="M7.29297 6.66669H12.7096C12.8754 6.66669 13.0344 6.73254 13.1516 6.84975C13.2688 6.96696 13.3346 7.12593 13.3346 7.29169V12.7084C13.3346 12.8741 13.2688 13.0331 13.1516 13.1503C13.0344 13.2675 12.8754 13.3334 12.7096 13.3334H7.29297C7.12721 13.3334 6.96824 13.2675 6.85103 13.1503C6.73382 13.0331 6.66797 12.8741 6.66797 12.7084V7.29169C6.66797 7.12593 6.73382 6.96696 6.85103 6.84975C6.96824 6.73254 7.12721 6.66669 7.29297 6.66669ZM7.91797 12.0834H12.0846V7.91669H7.91797V12.0834Z" fill="#73818F" stroke="#73818F" stroke-width="0.5"/>
<path d="M12.707 0.833313C12.8728 0.833313 13.0318 0.899161 13.149 1.01637C13.2662 1.13358 13.332 1.29255 13.332 1.45831V3.33331H15.207C16.012 3.33331 16.6654 3.98665 16.6654 4.79165V6.66665H18.5404C18.7061 6.66665 18.8651 6.73249 18.9823 6.8497C19.0995 6.96691 19.1654 7.12589 19.1654 7.29165C19.1654 7.45741 19.0995 7.61638 18.9823 7.73359C18.8651 7.8508 18.7061 7.91665 18.5404 7.91665H16.6654V12.0833H18.5404C18.7061 12.0833 18.8651 12.1492 18.9823 12.2664C19.0995 12.3836 19.1654 12.5426 19.1654 12.7083C19.1654 12.8741 19.0995 13.033 18.9823 13.1503C18.8651 13.2675 18.7061 13.3333 18.5404 13.3333H16.6654V15.2083C16.6654 15.5951 16.5117 15.966 16.2382 16.2395C15.9647 16.513 15.5938 16.6666 15.207 16.6666H13.332V18.5416C13.332 18.7074 13.2662 18.8664 13.149 18.9836C13.0318 19.1008 12.8728 19.1666 12.707 19.1666C12.5413 19.1666 12.3823 19.1008 12.2651 18.9836C12.1479 18.8664 12.082 18.7074 12.082 18.5416V16.6666H7.91536V18.5416C7.91536 18.7074 7.84952 18.8664 7.73231 18.9836C7.6151 19.1008 7.45612 19.1666 7.29036 19.1666C7.1246 19.1666 6.96563 19.1008 6.84842 18.9836C6.73121 18.8664 6.66536 18.7074 6.66536 18.5416V16.6666H4.79036C4.40359 16.6666 4.03266 16.513 3.75917 16.2395C3.48568 15.966 3.33203 15.5951 3.33203 15.2083V13.3333H1.45703C1.29127 13.3333 1.1323 13.2675 1.01509 13.1503C0.897879 13.033 0.832031 12.8741 0.832031 12.7083C0.832031 12.5426 0.897879 12.3836 1.01509 12.2664C1.1323 12.1492 1.29127 12.0833 1.45703 12.0833H3.33203V7.91665H1.45703C1.29127 7.91665 1.1323 7.8508 1.01509 7.73359C0.897879 7.61638 0.832031 7.45741 0.832031 7.29165C0.832031 7.12589 0.897879 6.96691 1.01509 6.8497C1.1323 6.73249 1.29127 6.66665 1.45703 6.66665H3.33203V4.79165C3.33203 3.98665 3.98536 3.33331 4.79036 3.33331H6.66536V1.45831C6.66536 1.29255 6.73121 1.13358 6.84842 1.01637C6.96563 0.899161 7.1246 0.833313 7.29036 0.833313C7.45612 0.833313 7.6151 0.899161 7.73231 1.01637C7.84952 1.13358 7.91536 1.29255 7.91536 1.45831V3.33331H12.082V1.45831C12.082 1.29255 12.1479 1.13358 12.2651 1.01637C12.3823 0.899161 12.5413 0.833313 12.707 0.833313ZM15.207 15.4166C15.2623 15.4166 15.3153 15.3947 15.3543 15.3556C15.3934 15.3166 15.4154 15.2636 15.4154 15.2083V4.79165C15.4154 4.73639 15.3934 4.6834 15.3543 4.64433C15.3153 4.60526 15.2623 4.58331 15.207 4.58331H4.79036C4.73511 4.58331 4.68212 4.60526 4.64305 4.64433C4.60398 4.6834 4.58203 4.73639 4.58203 4.79165V15.2083C4.58203 15.3233 4.67536 15.4166 4.79036 15.4166H15.207Z" fill="#73818F" stroke="#73818F" stroke-width="0.5"/>
</g>
<defs>
<clipPath id="clip0_21996_40194">
<rect width="20" height="20" fill="white"/>
</clipPath>
</defs>
</svg>
