<svg width="188" height="180" viewBox="0 0 188 180" fill="none" xmlns="http://www.w3.org/2000/svg">
<g clip-path="url(#clip0_28831_143739)">
<path d="M156.613 63.7339L154.558 68.4479C153.055 71.899 148.281 71.899 146.777 68.4479L144.723 63.7339C141.06 55.3286 134.464 48.6364 126.232 44.9753L119.901 42.1598C116.479 40.6374 116.479 35.6564 119.901 34.134L125.878 31.4758C134.321 27.7206 141.036 20.7808 144.635 12.0899L146.745 6.99576C148.216 3.44542 153.12 3.44542 154.59 6.99576L156.7 12.0899C160.3 20.7808 167.015 27.7206 175.458 31.4758L181.434 34.134C184.857 35.6564 184.857 40.6374 181.434 42.1598L175.104 44.9753C166.872 48.6364 160.275 55.3286 156.613 63.7339ZM84.0013 29.333C47.1823 29.333 17.3346 59.1807 17.3346 95.9997C17.3346 132.819 47.1823 162.666 84.0013 162.666C120.82 162.666 150.668 132.819 150.668 95.9997C150.668 93.3038 150.509 90.6488 150.199 88.043L166.75 86.078C167.136 89.3347 167.335 92.6455 167.335 95.9997C167.335 142.023 130.025 179.333 84.0013 179.333C37.9776 179.333 0.667969 142.023 0.667969 95.9997C0.667969 49.9759 37.9776 12.6663 84.0013 12.6663C91.1796 12.6663 98.1571 13.5758 104.82 15.2903L100.668 31.4313C95.3496 30.063 89.7671 29.333 84.0013 29.333ZM92.3346 87.6663H117.335L75.668 146V104.333H50.668L92.3346 45.9997V87.6663Z" fill="#73818F"/>
<path d="M156.613 63.7339L154.558 68.4479C153.055 71.899 148.281 71.899 146.777 68.4479L144.723 63.7339C141.06 55.3286 134.464 48.6364 126.232 44.9753L119.901 42.1598C116.479 40.6374 116.479 35.6564 119.901 34.134L125.878 31.4758C134.321 27.7206 141.036 20.7808 144.635 12.0899L146.745 6.99576C148.216 3.44542 153.12 3.44542 154.59 6.99576L156.7 12.0899C160.3 20.7808 167.015 27.7206 175.458 31.4758L181.434 34.134C184.857 35.6564 184.857 40.6374 181.434 42.1598L175.104 44.9753C166.872 48.6364 160.275 55.3286 156.613 63.7339ZM84.0013 29.333C47.1823 29.333 17.3346 59.1807 17.3346 95.9997C17.3346 132.819 47.1823 162.666 84.0013 162.666C120.82 162.666 150.668 132.819 150.668 95.9997C150.668 93.3038 150.509 90.6488 150.199 88.043L166.75 86.078C167.136 89.3347 167.335 92.6455 167.335 95.9997C167.335 142.023 130.025 179.333 84.0013 179.333C37.9776 179.333 0.667969 142.023 0.667969 95.9997C0.667969 49.9759 37.9776 12.6663 84.0013 12.6663C91.1796 12.6663 98.1571 13.5758 104.82 15.2903L100.668 31.4313C95.3496 30.063 89.7671 29.333 84.0013 29.333ZM92.3346 87.6663H117.335L75.668 146V104.333H50.668L92.3346 45.9997V87.6663Z" fill="#73818F"/>
<ellipse cx="139" cy="29" rx="26" ry="29" fill="white"/>
<ellipse cx="162" cy="48" rx="26" ry="29" fill="white"/>
<path d="M110.634 40.5513L104.253 60H99.1128L107.83 36.5391H111.101L110.634 40.5513ZM115.935 60L109.538 40.5513L109.022 36.5391H112.326L121.091 60H115.935ZM115.645 51.2666V55.0532H103.254V51.2666H115.645ZM128.407 36.5391V60H123.589V36.5391H128.407ZM135.142 36.5391H139.235L145.261 53.7642L151.288 36.5391H155.38L146.905 60H143.618L135.142 36.5391ZM132.935 36.5391H137.011L137.752 53.3291V60H132.935V36.5391ZM153.511 36.5391H157.604V60H152.77V53.3291L153.511 36.5391ZM176.924 56.2295V60H165.113V56.2295H176.924ZM166.676 36.5391V60H161.842V36.5391H166.676Z" fill="#73818F"/>
</g>
<defs>
<clipPath id="clip0_28831_143739">
<rect width="188" height="180" fill="white"/>
</clipPath>
</defs>
</svg>
