<svg width="23" height="23" viewBox="0 0 23 23" fill="none" xmlns="http://www.w3.org/2000/svg">
<g clip-path="url(#clip0_21132_31840)">
<path d="M20.1907 15.3939C19.592 16.8097 18.6557 18.0572 17.4635 19.0275C16.2713 19.9978 14.8596 20.6612 13.3518 20.9599C11.8439 21.2585 10.2859 21.1832 8.81388 20.7406C7.34186 20.298 6.00067 19.5016 4.90757 18.4209C3.81448 17.3402 3.00275 16.0082 2.54336 14.5413C2.08398 13.0745 1.99092 11.5174 2.27231 10.0062C2.55371 8.4951 3.20101 7.07589 4.1576 5.8727C5.1142 4.66951 6.35097 3.71897 7.7598 3.10419" stroke="#73818F" stroke-width="2" stroke-linecap="round" stroke-linejoin="round"/>
<path d="M20.9337 11.7333C20.9337 10.4976 20.6903 9.27391 20.2174 8.13221C19.7444 6.99051 19.0513 5.95313 18.1775 5.07931C17.3037 4.20549 16.2663 3.51234 15.1246 3.03943C13.9829 2.56652 12.7592 2.32312 11.5234 2.32312V11.7333H20.9337Z" stroke="#73818F" stroke-width="2" stroke-linecap="round" stroke-linejoin="round"/>
</g>
<defs>
<clipPath id="clip0_21132_31840">
<rect width="22" height="22" fill="white" transform="translate(0.785156 0.880005)"/>
</clipPath>
</defs>
</svg>
