<svg width="18" height="20" viewBox="0 0 18 20" fill="none" xmlns="http://www.w3.org/2000/svg">
<g clip-path="url(#clip0_21996_48825)">
<path d="M1 4.0476C1 4.57383 1.21071 5.0785 1.58579 5.45059C1.96086 5.82269 2.46957 6.03173 3 6.03173C3.53043 6.03173 4.03914 5.82269 4.41421 5.45059C4.78929 5.0785 5 4.57383 5 4.0476C5 3.52138 4.78929 3.01671 4.41421 2.64461C4.03914 2.27252 3.53043 2.06348 3 2.06348C2.46957 2.06348 1.96086 2.27252 1.58579 2.64461C1.21071 3.01671 1 3.52138 1 4.0476Z" stroke="#73818F" stroke-width="1.5" stroke-linecap="round" stroke-linejoin="round"/>
<path d="M13 15.9524C13 16.4786 13.2107 16.9833 13.5858 17.3554C13.9609 17.7275 14.4696 17.9365 15 17.9365C15.5304 17.9365 16.0391 17.7275 16.4142 17.3554C16.7893 16.9833 17 16.4786 17 15.9524C17 15.4262 16.7893 14.9215 16.4142 14.5494C16.0391 14.1773 15.5304 13.9683 15 13.9683C14.4696 13.9683 13.9609 14.1773 13.5858 14.5494C13.2107 14.9215 13 15.4262 13 15.9524Z" stroke="#73818F" stroke-width="1.5" stroke-linecap="round" stroke-linejoin="round"/>
<path d="M8 4.04761H13C13.5304 4.04761 14.0391 4.25665 14.4142 4.62874C14.7893 5.00084 15 5.50551 15 6.03173V13.9682" stroke="#73818F" stroke-width="1.5" stroke-linecap="round" stroke-linejoin="round"/>
<path d="M11 7.02379L8 4.0476L11 1.07141" stroke="#73818F" stroke-width="1.5" stroke-linecap="round" stroke-linejoin="round"/>
<path d="M10 15.9524H5C4.46957 15.9524 3.96086 15.7433 3.58579 15.3712C3.21071 14.9991 3 14.4945 3 13.9682V6.03174" stroke="#73818F" stroke-width="1.5" stroke-linecap="round" stroke-linejoin="round"/>
<path d="M7 12.9762L10 15.9524L7 18.9286" stroke="#73818F" stroke-width="1.5" stroke-linecap="round" stroke-linejoin="round"/>
</g>
<defs>
<clipPath id="clip0_21996_48825">
<rect width="18" height="20" fill="white"/>
</clipPath>
</defs>
</svg>
