<svg width="50" height="50" viewBox="0 0 50 50" fill="none" xmlns="http://www.w3.org/2000/svg">
<g clip-path="url(#clip0_28643_8180)">
<path d="M48.7671 21.7986C48.0454 16.6666 45.6359 11.9114 41.91 8.26559C38.1841 4.61977 33.3484 2.28554 28.1478 1.62248C22.9472 0.959415 17.6702 2.0043 13.1297 4.59619C8.58924 7.18807 5.03715 11.1832 3.02062 15.966M1.54492 4.30093V15.966H13.3505" stroke="#73818F" stroke-width="3" stroke-linecap="round" stroke-linejoin="round"/>
<path d="M1.54492 27.354C2.26671 32.7193 4.67614 37.6906 8.40206 41.5021C12.128 45.3137 16.9637 47.754 22.1643 48.4472C27.3649 49.1404 32.6419 48.048 37.1823 45.3383C41.7228 42.6286 45.2749 38.452 47.2914 33.4517M48.7671 45.647V33.4517H36.9616" stroke="#73818F" stroke-width="3" stroke-linecap="round" stroke-linejoin="round"/>
<path d="M31.1152 11.1198C31.2842 11.2191 31.415 11.3735 31.4862 11.5578C31.5574 11.7422 31.5649 11.9455 31.5072 12.1347L28.3965 22.3751H34.136C34.3047 22.3751 34.4697 22.425 34.6107 22.5189C34.7516 22.6127 34.8624 22.7463 34.9292 22.9032C34.9961 23.0601 35.0162 23.2334 34.9869 23.4017C34.9577 23.57 34.8805 23.726 34.7648 23.8503L20.9471 38.7244C20.8134 38.8685 20.6355 38.9624 20.4423 38.9909C20.2492 39.0194 20.0523 38.9807 19.8836 38.8813C19.7149 38.7818 19.5844 38.6274 19.5135 38.4432C19.4425 38.259 19.4352 38.0559 19.4928 37.867L22.6035 27.6248H16.8639C16.6953 27.6249 16.5303 27.5749 16.3893 27.4811C16.2484 27.3872 16.1376 27.2536 16.0708 27.0967C16.0039 26.9398 15.9838 26.7665 16.0131 26.5982C16.0423 26.4299 16.1195 26.274 16.2352 26.1497L30.0529 11.2755C30.1865 11.1317 30.3641 11.0378 30.557 11.0092C30.7498 10.9806 30.9465 11.019 31.1152 11.118V11.1198Z" fill="#73818F"/>
</g>
<defs>
<clipPath id="clip0_28643_8180">
<rect width="50" height="50" fill="white"/>
</clipPath>
</defs>
</svg>
