<svg width="23" height="18" viewBox="0 0 23 18" fill="none" xmlns="http://www.w3.org/2000/svg">
<g clip-path="url(#clip0_21033_209390)">
<path d="M15.3158 2.59622L13.4222 2.59622C11.4476 2.59622 9.84142 4.25605 9.84142 6.29647C9.84142 7.17079 9.1529 7.88229 8.30683 7.88229H6.75484C6.33026 6.65487 5.20591 5.76787 3.87388 5.76787C2.18173 5.76787 0.804688 7.19088 0.804688 8.93951C0.804688 10.6881 2.18173 12.1111 3.87388 12.1111C5.20591 12.1111 6.33026 11.2241 6.75381 9.99672H8.30683C9.1529 9.99672 9.84142 10.7082 9.84142 11.5825C9.84142 13.623 11.4476 15.2828 13.4222 15.2828H15.3158C15.7404 16.5102 16.8648 17.3972 18.1968 17.3972C19.8889 17.3972 21.266 15.9742 21.266 14.2256C21.266 12.4769 19.8889 11.0539 18.1968 11.0539C16.8648 11.0539 15.7404 11.9409 15.3158 13.1684H13.4222C12.5761 13.1684 11.8876 12.4569 11.8876 11.5825C11.8876 10.5475 11.4712 9.61189 10.8052 8.93951C11.4712 8.26712 11.8876 7.33148 11.8876 6.29647C11.8876 5.42216 12.5761 4.71065 13.4222 4.71065L15.3158 4.71065C15.7404 5.93808 16.8648 6.82508 18.1968 6.82508C19.8889 6.82508 21.266 5.40207 21.266 3.65344C21.266 1.90481 19.8889 0.481796 18.1968 0.481796C16.8648 0.481796 15.7404 1.3688 15.3158 2.59622ZM19.2199 14.2256C19.2199 14.8092 18.7605 15.2828 18.1968 15.2828C17.6331 15.2828 17.1737 14.8092 17.1737 14.2256C17.1737 13.642 17.6331 13.1684 18.1968 13.1684C18.7605 13.1684 19.2199 13.642 19.2199 14.2256ZM2.85082 8.93951C2.85082 8.35592 3.31017 7.88229 3.87388 7.88229C4.43759 7.88229 4.89695 8.35592 4.89695 8.93951C4.89695 9.52309 4.43759 9.99672 3.87388 9.99672C3.31017 9.99672 2.85082 9.52309 2.85082 8.93951ZM19.2199 3.65344C19.2199 4.23702 18.7605 4.71065 18.1968 4.71065C17.6331 4.71065 17.1737 4.23702 17.1737 3.65344C17.1737 3.06986 17.6331 2.59622 18.1968 2.59622C18.7605 2.59622 19.2199 3.06986 19.2199 3.65344Z" fill="#73818F"/>
</g>
<defs>
<clipPath id="clip0_21033_209390">
<rect width="17" height="22" fill="white" transform="matrix(0 -1 1 0 0.59375 17.475)"/>
</clipPath>
</defs>
</svg>
