<svg width="188" height="180" viewBox="0 0 188 180" fill="none" xmlns="http://www.w3.org/2000/svg">
<g clip-path="url(#clip0_28831_143687)">
<path d="M156.613 63.7339L154.558 68.4479C153.055 71.899 148.281 71.899 146.777 68.4479L144.723 63.7339C141.06 55.3286 134.464 48.6364 126.232 44.9753L119.901 42.1598C116.479 40.6374 116.479 35.6564 119.901 34.134L125.878 31.4758C134.321 27.7206 141.036 20.7808 144.635 12.0899L146.745 6.99576C148.216 3.44542 153.12 3.44542 154.59 6.99576L156.7 12.0899C160.3 20.7808 167.015 27.7206 175.458 31.4758L181.434 34.134C184.857 35.6564 184.857 40.6374 181.434 42.1598L175.104 44.9753C166.872 48.6364 160.275 55.3286 156.613 63.7339ZM84.0013 29.333C47.1823 29.333 17.3346 59.1807 17.3346 95.9997C17.3346 132.819 47.1823 162.666 84.0013 162.666C120.82 162.666 150.668 132.819 150.668 95.9997C150.668 93.3038 150.509 90.6488 150.199 88.043L166.75 86.078C167.136 89.3347 167.335 92.6455 167.335 95.9997C167.335 142.023 130.025 179.333 84.0013 179.333C37.9776 179.333 0.667969 142.023 0.667969 95.9997C0.667969 49.9759 37.9776 12.6663 84.0013 12.6663C91.1796 12.6663 98.1571 13.5758 104.82 15.2903L100.668 31.4313C95.3496 30.063 89.7671 29.333 84.0013 29.333ZM92.3346 87.6663H117.335L75.668 146V104.333H50.668L92.3346 45.9997V87.6663Z" fill="#73818F"/>
<path d="M156.613 63.7339L154.558 68.4479C153.055 71.899 148.281 71.899 146.777 68.4479L144.723 63.7339C141.06 55.3286 134.464 48.6364 126.232 44.9753L119.901 42.1598C116.479 40.6374 116.479 35.6564 119.901 34.134L125.878 31.4758C134.321 27.7206 141.036 20.7808 144.635 12.0899L146.745 6.99576C148.216 3.44542 153.12 3.44542 154.59 6.99576L156.7 12.0899C160.3 20.7808 167.015 27.7206 175.458 31.4758L181.434 34.134C184.857 35.6564 184.857 40.6374 181.434 42.1598L175.104 44.9753C166.872 48.6364 160.275 55.3286 156.613 63.7339ZM84.0013 29.333C47.1823 29.333 17.3346 59.1807 17.3346 95.9997C17.3346 132.819 47.1823 162.666 84.0013 162.666C120.82 162.666 150.668 132.819 150.668 95.9997C150.668 93.3038 150.509 90.6488 150.199 88.043L166.75 86.078C167.136 89.3347 167.335 92.6455 167.335 95.9997C167.335 142.023 130.025 179.333 84.0013 179.333C37.9776 179.333 0.667969 142.023 0.667969 95.9997C0.667969 49.9759 37.9776 12.6663 84.0013 12.6663C91.1796 12.6663 98.1571 13.5758 104.82 15.2903L100.668 31.4313C95.3496 30.063 89.7671 29.333 84.0013 29.333ZM92.3346 87.6663H117.335L75.668 146V104.333H50.668L92.3346 45.9997V87.6663Z" fill="#73818F"/>
<ellipse cx="139" cy="29" rx="26" ry="29" fill="white"/>
<ellipse cx="162" cy="48" rx="26" ry="29" fill="white"/>
<g clip-path="url(#clip1_28831_143687)">
<path d="M109.786 63.2929C111.238 61.8405 113.207 61.023 115.258 61.0203C117.309 61.0175 119.275 61.8298 120.724 63.2783C122.172 64.7268 122.985 66.6929 122.982 68.7442C122.979 70.7954 122.162 72.7637 120.709 74.2161L124.35 77.8572C125.316 78.8228 126.627 79.3643 127.994 79.3625C129.362 79.3607 130.674 78.8157 131.642 77.8474L160.849 48.6408C161.817 47.6726 162.362 46.3604 162.364 44.9929C162.366 43.6254 161.824 42.3146 160.859 41.3489L157.217 37.7079C155.765 39.1603 153.797 39.9777 151.746 39.9805C149.694 39.9832 147.728 39.171 146.28 37.7225C144.831 36.274 144.019 34.3079 144.022 32.2566C144.024 30.2054 144.842 28.237 146.294 26.7847L142.653 23.1436C141.688 22.1779 140.377 21.6364 139.009 21.6383C137.642 21.6401 136.33 22.1851 135.361 23.1533L106.155 52.3599C105.186 53.3282 104.641 54.6404 104.64 56.0079C104.638 57.3754 105.179 58.6861 106.145 59.6518L109.786 63.2929Z" stroke="#73818F" stroke-width="6" stroke-linecap="round" stroke-linejoin="round"/>
<path d="M128.023 55.9766L138.976 45.0241" stroke="#73818F" stroke-width="6" stroke-linecap="round" stroke-linejoin="round"/>
</g>
</g>
<defs>
<clipPath id="clip0_28831_143687">
<rect width="188" height="180" fill="white"/>
</clipPath>
<clipPath id="clip1_28831_143687">
<rect width="63" height="63" fill="white" transform="translate(102 19)"/>
</clipPath>
</defs>
</svg>
