<svg width="32" height="24" viewBox="0 0 32 24" fill="none" xmlns="http://www.w3.org/2000/svg">
<g clip-path="url(#clip0_28739_21926)">
<path d="M1 7.03822C2.19352 7.03822 3.33808 7.51531 4.18201 8.3647C5.02595 9.21392 5.50004 10.3659 5.50004 11.5668C5.50004 12.7679 5.02595 13.9198 4.18201 14.7691C3.33808 15.6185 2.19352 16.0955 1 16.0955V19.1147C1 19.9153 1.31607 20.6831 1.87863 21.2493C2.44131 21.8155 3.20441 22.1336 3.99991 22.1336H27.9999C28.7956 22.1336 29.5587 21.8155 30.1214 21.2493C30.6839 20.6831 31 19.9153 31 19.1147V16.0955C29.8065 16.0955 28.6619 15.6185 27.818 14.7691C26.9741 13.9198 26.5 12.7679 26.5 11.5668C26.5 10.3659 26.9741 9.21392 27.818 8.3647C28.6619 7.51531 29.8065 7.03822 31 7.03822V4.01911C31 3.2185 30.6839 2.45047 30.1214 1.88426C29.5587 1.31824 28.7956 1 27.9999 1H3.99991C3.20441 1 2.44131 1.31824 1.87863 1.88426C1.31607 2.45047 1 3.2185 1 4.01911V7.03822Z" stroke="#73818F" stroke-width="2" stroke-linecap="round" stroke-linejoin="round"/>
<path d="M11.3848 11.5667L14.4616 15.089L20.6156 8.04443" stroke="#73818F" stroke-width="2" stroke-linecap="round" stroke-linejoin="round"/>
</g>
<defs>
<clipPath id="clip0_28739_21926">
<rect width="32" height="24" fill="white"/>
</clipPath>
</defs>
</svg>
