<svg width="188" height="180" viewBox="0 0 188 180" fill="none" xmlns="http://www.w3.org/2000/svg">
<g clip-path="url(#clip0_28831_143687)">
<path d="M156.613 63.7339L154.558 68.4479C153.055 71.899 148.281 71.899 146.777 68.4479L144.723 63.7339C141.06 55.3286 134.464 48.6364 126.232 44.9753L119.901 42.1598C116.479 40.6374 116.479 35.6564 119.901 34.134L125.878 31.4758C134.321 27.7206 141.036 20.7808 144.635 12.0899L146.745 6.99576C148.216 3.44542 153.12 3.44542 154.59 6.99576L156.7 12.0899C160.3 20.7808 167.015 27.7206 175.458 31.4758L181.434 34.134C184.857 35.6564 184.857 40.6374 181.434 42.1598L175.104 44.9753C166.872 48.6364 160.275 55.3286 156.613 63.7339ZM84.0013 29.333C47.1823 29.333 17.3346 59.1807 17.3346 95.9997C17.3346 132.819 47.1823 162.666 84.0013 162.666C120.82 162.666 150.668 132.819 150.668 95.9997C150.668 93.3038 150.509 90.6488 150.199 88.043L166.75 86.078C167.136 89.3347 167.335 92.6455 167.335 95.9997C167.335 142.023 130.025 179.333 84.0013 179.333C37.9776 179.333 0.667969 142.023 0.667969 95.9997C0.667969 49.9759 37.9776 12.6663 84.0013 12.6663C91.1796 12.6663 98.1571 13.5758 104.82 15.2903L100.668 31.4313C95.3496 30.063 89.7671 29.333 84.0013 29.333ZM92.3346 87.6663H117.335L75.668 146V104.333H50.668L92.3346 45.9997V87.6663Z" fill="#73818F"/>
<path d="M156.613 63.7339L154.558 68.4479C153.055 71.899 148.281 71.899 146.777 68.4479L144.723 63.7339C141.06 55.3286 134.464 48.6364 126.232 44.9753L119.901 42.1598C116.479 40.6374 116.479 35.6564 119.901 34.134L125.878 31.4758C134.321 27.7206 141.036 20.7808 144.635 12.0899L146.745 6.99576C148.216 3.44542 153.12 3.44542 154.59 6.99576L156.7 12.0899C160.3 20.7808 167.015 27.7206 175.458 31.4758L181.434 34.134C184.857 35.6564 184.857 40.6374 181.434 42.1598L175.104 44.9753C166.872 48.6364 160.275 55.3286 156.613 63.7339ZM84.0013 29.333C47.1823 29.333 17.3346 59.1807 17.3346 95.9997C17.3346 132.819 47.1823 162.666 84.0013 162.666C120.82 162.666 150.668 132.819 150.668 95.9997C150.668 93.3038 150.509 90.6488 150.199 88.043L166.75 86.078C167.136 89.3347 167.335 92.6455 167.335 95.9997C167.335 142.023 130.025 179.333 84.0013 179.333C37.9776 179.333 0.667969 142.023 0.667969 95.9997C0.667969 49.9759 37.9776 12.6663 84.0013 12.6663C91.1796 12.6663 98.1571 13.5758 104.82 15.2903L100.668 31.4313C95.3496 30.063 89.7671 29.333 84.0013 29.333ZM92.3346 87.6663H117.335L75.668 146V104.333H50.668L92.3346 45.9997V87.6663Z" fill="#73818F"/>
<ellipse cx="139" cy="29" rx="26" ry="29" fill="white"/>
<ellipse cx="162" cy="48" rx="26" ry="29" fill="white"/>
<g clip-path="url(#clip1_28831_143687)">
<path d="M112.684 44.777C114.738 44.777 116.707 45.5908 118.16 47.0393C119.612 48.4878 120.428 50.4524 120.428 52.5009C120.428 54.5494 119.612 56.514 118.16 57.9625C116.707 59.411 114.738 60.2248 112.684 60.2248V65.374C112.684 66.7397 113.228 68.0494 114.196 69.0151C115.164 69.9808 116.477 70.5233 117.847 70.5233H159.151C160.52 70.5233 161.834 69.9808 162.802 69.0151C163.77 68.0494 164.314 66.7397 164.314 65.374V60.2248C162.26 60.2248 160.29 59.411 158.838 57.9625C157.385 56.514 156.569 54.5494 156.569 52.5009C156.569 50.4524 157.385 48.4878 158.838 47.0393C160.29 45.5908 162.26 44.777 164.314 44.777V39.6278C164.314 38.2621 163.77 36.9524 162.802 35.9867C161.834 35.021 160.52 34.4785 159.151 34.4785H117.847C116.477 34.4785 115.164 35.021 114.196 35.9867C113.228 36.9524 112.684 38.2621 112.684 39.6278V44.777Z" stroke="#73818F" stroke-width="6" stroke-linecap="round" stroke-linejoin="round"/>
<path d="M130.754 52.501H146.243" stroke="#73818F" stroke-width="6" stroke-linecap="round" stroke-linejoin="round"/>
</g>
</g>
<defs>
<clipPath id="clip0_28831_143687">
<rect width="188" height="180" fill="white"/>
</clipPath>
<clipPath id="clip1_28831_143687">
<rect width="63" height="63" fill="white" transform="translate(138.5 7.95215) rotate(45)"/>
</clipPath>
</defs>
</svg>
