<svg width="35" height="35" viewBox="0 0 35 35" fill="none" xmlns="http://www.w3.org/2000/svg">
<rect x="0.5" y="0.5" width="34" height="34" rx="17" fill="#EAF4FD"/>
<rect x="0.5" y="0.5" width="34" height="34" rx="17" stroke="#378AD8"/>
<g clip-path="url(#clip0_28809_180883)">
<path d="M17.6328 14.5963C21.0846 14.5963 23.8828 13.6716 23.8828 12.531C23.8828 11.3904 21.0846 10.4658 17.6328 10.4658C14.181 10.4658 11.3828 11.3904 11.3828 12.531C11.3828 13.6716 14.181 14.5963 17.6328 14.5963Z" stroke="#378AD8" stroke-linecap="round" stroke-linejoin="round"/>
<path d="M23.8828 17.3496C23.8828 18.4924 21.105 19.4148 17.6328 19.4148C14.1606 19.4148 11.3828 18.4924 11.3828 17.3496" stroke="#378AD8" stroke-linecap="round" stroke-linejoin="round"/>
<path d="M11.5 13V22.6377C11.5 23.7804 14.2778 24.7029 17.75 24.7029C21.2222 24.7029 24 23.7804 24 22.6377V13" stroke="#378AD8" stroke-linecap="round" stroke-linejoin="round"/>
</g>
<defs>
<clipPath id="clip0_28809_180883">
<rect width="14" height="16" fill="white" transform="translate(10.5 9.5)"/>
</clipPath>
</defs>
</svg>
