<svg width="17" height="19" viewBox="0 0 17 19" fill="none" xmlns="http://www.w3.org/2000/svg">
<g clip-path="url(#clip0_21996_12316)">
<path d="M1.05469 5.1086C1.05469 4.65652 1.24199 4.22297 1.57539 3.9033C1.90878 3.58364 2.36097 3.40405 2.83247 3.40405H13.4991C13.9706 3.40405 14.4228 3.58364 14.7562 3.9033C15.0896 4.22297 15.2769 4.65652 15.2769 5.1086V15.3359C15.2769 15.7879 15.0896 16.2215 14.7562 16.5412C14.4228 16.8608 13.9706 17.0404 13.4991 17.0404H2.83247C2.36097 17.0404 1.90878 16.8608 1.57539 16.5412C1.24199 16.2215 1.05469 15.7879 1.05469 15.3359V5.1086Z" stroke="#5C6873" stroke-width="2" stroke-linecap="round" stroke-linejoin="round"/>
<path d="M11.7188 1.69946V5.10855" stroke="#5C6873" stroke-width="2" stroke-linecap="round" stroke-linejoin="round"/>
<path d="M4.60938 1.69946V5.10855" stroke="#73818F" stroke-width="1.5" stroke-linecap="round" stroke-linejoin="round"/>
<path d="M1.05469 8.5177H15.2769" stroke="#73818F" stroke-width="1.5" stroke-linecap="round" stroke-linejoin="round"/>
<path d="M4.60938 11.9268H6.38715V13.6313H4.60938V11.9268Z" stroke="#73818F" stroke-width="1.5" stroke-linecap="round" stroke-linejoin="round"/>
</g>
<defs>
<clipPath id="clip0_21996_12316">
<rect width="16" height="18" fill="white" transform="translate(0.164062 0.594971)"/>
</clipPath>
</defs>
</svg>
