<svg width="20" height="19" viewBox="0 0 20 19" fill="none" xmlns="http://www.w3.org/2000/svg">
<g clip-path="url(#clip0_21996_14557)">
<path d="M6.54395 8.94527C6.54395 9.03458 6.50778 9.12023 6.4434 9.18338C6.37902 9.24653 6.2917 9.28201 6.20065 9.28201C6.1096 9.28201 6.02229 9.24653 5.95791 9.18338C5.89353 9.12023 5.85736 9.03458 5.85736 8.94527C5.85736 8.85596 5.89353 8.77031 5.95791 8.70716C6.02229 8.64401 6.1096 8.60854 6.20065 8.60854C6.2917 8.60854 6.37902 8.64401 6.4434 8.70716C6.50778 8.77031 6.54395 8.85596 6.54395 8.94527ZM6.54395 8.94527H6.20065M9.97689 8.94527C9.97689 9.03458 9.94072 9.12023 9.87634 9.18338C9.81196 9.24653 9.72464 9.28201 9.6336 9.28201C9.54255 9.28201 9.45523 9.24653 9.39085 9.18338C9.32647 9.12023 9.2903 9.03458 9.2903 8.94527C9.2903 8.85596 9.32647 8.77031 9.39085 8.70716C9.45523 8.64401 9.54255 8.60854 9.6336 8.60854C9.72464 8.60854 9.81196 8.64401 9.87634 8.70716C9.94072 8.77031 9.97689 8.85596 9.97689 8.94527ZM9.97689 8.94527H9.6336M13.4098 8.94527C13.4098 9.03458 13.3737 9.12023 13.3093 9.18338C13.2449 9.24653 13.1576 9.28201 13.0665 9.28201C12.9755 9.28201 12.8882 9.24653 12.8238 9.18338C12.7594 9.12023 12.7232 9.03458 12.7232 8.94527C12.7232 8.85596 12.7594 8.77031 12.8238 8.70716C12.8882 8.64401 12.9755 8.60854 13.0665 8.60854C13.1576 8.60854 13.2449 8.64401 13.3093 8.70716C13.3737 8.77031 13.4098 8.85596 13.4098 8.94527ZM13.4098 8.94527H13.0665M17.8727 8.94527C17.8727 13.0364 14.1834 16.3534 9.6336 16.3534C8.84373 16.3544 8.05722 16.2526 7.29462 16.0508C6.21966 16.7924 4.90833 17.1294 3.60077 17C3.45539 16.9862 3.31063 16.9667 3.16685 16.9416C3.61804 16.42 3.92619 15.7942 4.06216 15.1232C4.14455 14.7129 3.9404 14.3142 3.63464 14.0223C2.2459 12.6969 1.39453 10.9109 1.39453 8.94527C1.39453 4.85417 5.0838 1.53711 9.6336 1.53711C14.1834 1.53711 17.8727 4.85417 17.8727 8.94527Z" stroke="#5C6873" stroke-width="2" stroke-linecap="round" stroke-linejoin="round"/>
</g>
<defs>
<clipPath id="clip0_21996_14557">
<rect width="19" height="18" fill="white" transform="translate(0.257812 0.189941)"/>
</clipPath>
</defs>
</svg>
