<svg width="20" height="20" viewBox="0 0 20 20" fill="none" xmlns="http://www.w3.org/2000/svg">
<g clip-path="url(#clip0_24300_80132)">
<path d="M18.9201 9.50396C19.1288 9.98739 19.2612 10.5042 19.3154 11.0314C19.3676 11.5586 19.3415 12.092 19.2331 12.6109C19.1268 13.1297 18.9421 13.6277 18.6853 14.0862C18.5167 14.3925 18.318 14.68 18.0892 14.9447C17.8625 15.2072 17.6096 15.4448 17.3346 15.6532C17.0577 15.8615 16.7627 16.0366 16.4496 16.1803C16.1385 16.322 15.8134 16.4304 15.4803 16.5012C15.3238 17.0055 15.091 17.4827 14.7899 17.912C14.4909 18.3412 14.1277 18.7184 13.7142 19.0289C13.3008 19.3414 12.8433 19.5831 12.3576 19.7457C11.8719 19.9103 11.3642 19.9916 10.8524 19.9916C10.5133 19.9936 10.1721 19.9561 9.83897 19.8853C9.50784 19.8124 9.18273 19.7019 8.87166 19.5581C8.5606 19.4144 8.26559 19.2352 7.99065 19.0268C7.71771 18.8184 7.46484 18.5788 7.24007 18.3141C6.73836 18.4266 6.2246 18.4537 5.71686 18.3996C5.20912 18.3433 4.71142 18.2058 4.24381 17.9891C3.77822 17.7744 3.34674 17.4827 2.96744 17.1264C2.58814 16.7701 2.26504 16.3533 2.01016 15.8949C1.83958 15.5886 1.6991 15.2656 1.59274 14.9301C1.48637 14.5946 1.41613 14.2487 1.38001 13.8965C1.34388 13.5465 1.34589 13.1922 1.38201 12.8401C1.41814 12.49 1.49239 12.1441 1.59876 11.8086C1.25759 11.4148 0.976625 10.9668 0.767911 10.4833C0.561203 9.99781 0.426742 9.48312 0.374564 8.95593C0.320378 8.42873 0.348474 7.89529 0.454839 7.37643C0.561203 6.85757 0.745835 6.35955 1.00271 5.90112C1.17129 5.59481 1.36997 5.30517 1.59675 5.04261C1.82353 4.78006 2.0784 4.54251 2.35334 4.33413C2.62828 4.12575 2.9253 3.94863 3.23636 3.80694C3.54944 3.66316 3.87455 3.55689 4.20769 3.48604C4.36423 2.97968 4.59702 2.50458 4.89605 2.07533C5.19708 1.64607 5.56032 1.26891 5.97374 0.956343C6.38715 0.645862 6.84472 0.404145 7.33038 0.239527C7.81605 0.0769935 8.32379 -0.00635714 8.83554 -0.00427338C9.1747 -0.00635714 9.51587 0.0290669 9.84901 0.101999C10.1821 0.174931 10.5073 0.283287 10.8183 0.427067C11.1294 0.57293 11.4244 0.75005 11.6993 0.958427C11.9743 1.16889 12.2272 1.40644 12.4519 1.67108C12.9516 1.56064 13.4654 1.53355 13.9731 1.58773C14.4809 1.6419 14.9766 1.78152 15.4442 1.99614C15.9098 2.21286 16.3412 2.5025 16.7205 2.85882C17.0998 3.21306 17.4229 3.62773 17.6778 4.08825C17.8484 4.39248 17.9889 4.71546 18.0952 5.05303C18.2016 5.38852 18.2739 5.73442 18.308 6.08658C18.3441 6.43874 18.3441 6.79298 18.306 7.14513C18.2698 7.49729 18.1956 7.8432 18.0892 8.17868C18.4324 8.57251 18.7114 9.01844 18.9201 9.50396ZM12.2332 18.3996C12.6707 18.212 13.068 17.9349 13.4032 17.5869C13.7383 17.2389 14.0052 16.8263 14.1859 16.37C14.3665 15.9157 14.4608 15.4281 14.4608 14.9363V10.2895C14.4595 10.2854 14.4581 10.2805 14.4568 10.275C14.4555 10.2708 14.4534 10.2666 14.4508 10.2625C14.4481 10.2583 14.4447 10.2548 14.4407 10.252C14.4367 10.2479 14.4327 10.2451 14.4287 10.2437L12.8091 9.27266V14.8863C12.8091 14.9426 12.8011 15.0009 12.7871 15.0551C12.773 15.1114 12.753 15.1635 12.7249 15.2135C12.6968 15.2635 12.6646 15.3093 12.6245 15.3489C12.5855 15.3893 12.5417 15.4243 12.4941 15.4531L8.65893 17.7515C8.62682 17.7723 8.57264 17.8015 8.54454 17.8182C8.70308 17.9578 8.87568 18.0807 9.05629 18.1891C9.23892 18.2975 9.42757 18.3891 9.62424 18.4642C9.82091 18.5371 10.0236 18.5934 10.2283 18.6309C10.435 18.6684 10.6437 18.6871 10.8524 18.6871C11.3261 18.6871 11.7957 18.5892 12.2332 18.3996ZM3.0999 15.2447C3.33871 15.6719 3.65379 16.0428 4.02908 16.3429C4.40637 16.6429 4.83383 16.8617 5.2914 16.9889C5.74897 17.116 6.2266 17.1493 6.69621 17.0847C7.16582 17.0201 7.61737 16.8617 8.02878 16.6159L11.9061 14.2925L11.9161 14.282C11.9188 14.2793 11.9208 14.2751 11.9221 14.2695C11.9248 14.2654 11.9268 14.2612 11.9281 14.257V12.2983L7.2481 15.1093C7.19994 15.1385 7.14977 15.1593 7.09759 15.176C7.0434 15.1906 6.98922 15.1968 6.93302 15.1968C6.87884 15.1968 6.82465 15.1906 6.77047 15.176C6.71829 15.1593 6.66611 15.1385 6.61794 15.1093L2.78281 12.8088C2.74869 12.788 2.69852 12.7567 2.67043 12.738C2.6343 12.9526 2.61624 13.1693 2.61624 13.386C2.61624 13.6027 2.63631 13.8194 2.67243 14.0341C2.70856 14.2466 2.76475 14.4571 2.83499 14.6613C2.90724 14.8655 2.99554 15.0614 3.0999 15.2489V15.2447ZM2.09245 6.55543C1.85564 6.9826 1.70311 7.45353 1.6409 7.94113C1.57869 8.42873 1.6108 8.92259 1.73322 9.39977C1.85564 9.87487 2.06636 10.3187 2.35535 10.7105C2.64434 11.1001 3.00357 11.4273 3.41297 11.6732L7.28824 13.9986C7.29225 14 7.29694 14.0014 7.30229 14.0028H7.31634C7.32169 14.0028 7.32637 14.0014 7.33038 13.9986C7.3344 13.9973 7.33841 13.9952 7.34243 13.9924L8.96799 13.0172L4.28797 10.2124C4.24181 10.1833 4.19766 10.1478 4.15752 10.1083C4.11863 10.0677 4.08491 10.0222 4.05717 9.97281C4.03109 9.9228 4.00901 9.8707 3.99496 9.81444C3.98091 9.76026 3.97289 9.704 3.97489 9.64565V4.91342C3.77822 4.98843 3.58757 5.08012 3.40695 5.18848C3.22633 5.29891 3.05575 5.42394 2.8952 5.56355C2.73665 5.70317 2.58814 5.85736 2.45368 6.02407C2.31922 6.18868 2.20082 6.36789 2.09646 6.55543H2.09245ZM15.404 9.77276C15.4522 9.80194 15.4963 9.83528 15.5365 9.87695C15.5746 9.91654 15.6087 9.96239 15.6368 10.0124C15.6629 10.0624 15.685 10.1166 15.699 10.1708C15.7111 10.227 15.7191 10.2833 15.7171 10.3416V15.0739C16.3613 14.828 16.9232 14.3966 17.3387 13.8299C17.7561 13.2631 18.0069 12.5859 18.0651 11.8774C18.1233 11.1689 17.9869 10.4562 17.6698 9.82486C17.3527 9.19348 16.869 8.66837 16.275 8.31413L12.3997 5.98864C12.3957 5.98725 12.391 5.98586 12.3857 5.98447H12.3716C12.3676 5.98586 12.363 5.98725 12.3576 5.98864C12.3536 5.99003 12.3496 5.99212 12.3456 5.99489L10.728 6.96593L15.408 9.77276H15.404ZM17.0196 7.25141H17.0176V7.25349L17.0196 7.25141ZM17.0176 7.24932C17.134 6.54918 17.0557 5.82819 16.7908 5.1718C16.5279 4.51542 16.0884 3.95072 15.5265 3.5423C14.9645 3.13596 14.3023 2.90258 13.6179 2.87133C12.9316 2.84215 12.2532 3.01511 11.6592 3.36935L7.78394 5.69275C7.77992 5.69553 7.77658 5.699 7.7739 5.70317L7.76588 5.71567C7.76454 5.71984 7.7632 5.7247 7.76186 5.73026C7.76052 5.73442 7.75986 5.73928 7.75986 5.74484V7.68691L12.4399 4.88008C12.488 4.8509 12.5402 4.83007 12.5924 4.8134C12.6466 4.79881 12.7008 4.79256 12.755 4.79256C12.8112 4.79256 12.8653 4.79881 12.9195 4.8134C12.9717 4.83007 13.0219 4.8509 13.07 4.88008L16.9052 7.18056C16.9393 7.2014 16.9895 7.23057 17.0176 7.24932ZM6.87683 5.09887C6.87683 5.04261 6.88486 4.98635 6.89891 4.93009C6.91295 4.87591 6.93302 4.82173 6.96112 4.77172C6.98922 4.72379 7.02133 4.67795 7.06146 4.63628C7.09959 4.59669 7.14374 4.56126 7.19191 4.53417L11.027 2.23578C11.0632 2.21286 11.1133 2.18368 11.1414 2.1691C10.6156 1.71275 9.97344 1.42102 9.29311 1.33142C8.61278 1.23974 7.92241 1.35226 7.30229 1.65441C6.68016 1.95655 6.15436 2.4379 5.7871 3.03803C5.41984 3.64024 5.22517 4.33621 5.22517 5.04886V9.69567C5.22651 9.70122 5.22785 9.70608 5.22919 9.71025C5.23053 9.71442 5.23253 9.71859 5.23521 9.72275C5.23788 9.72692 5.24123 9.73109 5.24524 9.73526C5.24792 9.73804 5.25193 9.74081 5.25728 9.74359L6.87683 10.7146V5.09887ZM7.75584 11.2397L9.84098 12.49L11.9261 11.2397V8.7413L9.84299 7.49104L7.75785 8.7413L7.75584 11.2397Z" fill="black"/>
</g>
<defs>
<clipPath id="clip0_24300_80132">
<rect width="19" height="20" fill="white" transform="translate(0.347656 -0.00499725)"/>
</clipPath>
</defs>
</svg>
