<svg width="17" height="17" viewBox="0 0 17 17" fill="none" xmlns="http://www.w3.org/2000/svg">
<g clip-path="url(#clip0_21996_28905)">
<rect width="16" height="16" transform="translate(0.078125 0.360046)" fill="white"/>
<path d="M8.08344 0.411743C3.66978 0.411743 0.09375 3.96944 0.09375 8.36046C0.09375 12.7515 3.66978 16.3092 8.08344 16.3092C12.4971 16.3092 16.0731 12.7515 16.0731 8.36046C16.0731 3.96944 12.4971 0.411743 8.08344 0.411743ZM11.8109 9.12969L6.14079 12.3669C5.63177 12.6489 4.99066 12.2867 4.99066 11.6938V5.02713C4.99066 4.43738 5.62854 4.072 6.14079 4.35405L11.8109 7.78354C12.3392 8.07841 12.3392 8.83803 11.8109 9.12969Z" fill="#FA4B42"/>
</g>
<defs>
<clipPath id="clip0_21996_28905">
<rect width="16" height="16" fill="white" transform="translate(0.078125 0.360046)"/>
</clipPath>
</defs>
</svg>
