<svg width="18" height="14" viewBox="0 0 18 14" fill="none" xmlns="http://www.w3.org/2000/svg">
<g clip-path="url(#clip0_21996_40156)">
<path d="M1.63393 0.0348511L3.64286 0.0348511C3.82046 0.0348511 3.99078 0.103647 4.11637 0.226106C4.24195 0.348564 4.3125 0.514654 4.3125 0.687836C4.3125 0.861019 4.24195 1.02711 4.11637 1.14957C3.99078 1.27202 3.82046 1.34082 3.64286 1.34082L1.63393 1.34082C1.51071 1.34082 1.41071 1.43833 1.41071 1.55848L1.41071 12.4416C1.41071 12.4993 1.43423 12.5547 1.47609 12.5955C1.51795 12.6363 1.57473 12.6592 1.63393 12.6592H3.64286C3.82046 12.6592 3.99078 12.728 4.11637 12.8505C4.24195 12.9729 4.3125 13.139 4.3125 13.3122C4.3125 13.4854 4.24195 13.6515 4.11637 13.7739C3.99078 13.8964 3.82046 13.9652 3.64286 13.9652H1.63393C1.21953 13.9652 0.822101 13.8047 0.529075 13.5189C0.23605 13.2332 0.0714288 12.8457 0.0714288 12.4416L0.0714288 1.55848C0.0714288 1.15439 0.23605 0.766849 0.529075 0.481113C0.822101 0.195376 1.21953 0.0348511 1.63393 0.0348511Z" fill="#73818F" stroke="#73818F" stroke-width="0.2"/>
<path d="M11.2067 1.09703C11.2688 1.03638 11.3426 0.988259 11.4238 0.955429C11.505 0.922599 11.592 0.905701 11.6799 0.905701C11.7678 0.905701 11.8548 0.922599 11.936 0.955429C12.0172 0.988259 12.091 1.03638 12.1531 1.09703L17.7335 6.53857C17.7957 6.59914 17.845 6.67107 17.8787 6.75025C17.9124 6.82942 17.9297 6.9143 17.9297 7.00001C17.9297 7.08573 17.9124 7.1706 17.8787 7.24978C17.845 7.32896 17.7957 7.40089 17.7335 7.46146L12.1531 12.903C12.091 12.9636 12.0172 13.0117 11.936 13.0445C11.8548 13.0773 11.7678 13.0941 11.6799 13.0941C11.592 13.0941 11.505 13.0773 11.4238 13.0445C11.3426 13.0117 11.2688 12.9636 11.2067 12.903C11.1445 12.8424 11.0953 12.7705 11.0616 12.6913C11.028 12.6121 11.0107 12.5273 11.0107 12.4416C11.0107 12.3559 11.028 12.271 11.0616 12.1918C11.0953 12.1126 11.1445 12.0407 11.2067 11.9801L15.6433 7.653L4.76026 7.653C4.58266 7.653 4.41234 7.5842 4.28675 7.46174C4.16117 7.33929 4.09062 7.1732 4.09062 7.00001C4.09062 6.82683 4.16117 6.66074 4.28675 6.53828C4.41234 6.41583 4.58266 6.34703 4.76026 6.34703L15.6433 6.34703L11.2067 2.01991C11.1445 1.95935 11.0951 1.88742 11.0615 1.80824C11.0278 1.72906 11.0105 1.64419 11.0105 1.55847C11.0105 1.47276 11.0278 1.38788 11.0615 1.3087C11.0951 1.22953 11.1445 1.1576 11.2067 1.09703Z" fill="#73818F" stroke="#73818F" stroke-width="0.2"/>
</g>
<defs>
<clipPath id="clip0_21996_40156">
<rect width="14" height="18" fill="white" transform="matrix(0 1 -1 0 18 0)"/>
</clipPath>
</defs>
</svg>
