<svg width="18" height="18" viewBox="0 0 18 18" fill="none" xmlns="http://www.w3.org/2000/svg">
<path d="M9 0.9375C10.8652 0.9375 12.5798 1.239 13.8495 1.74675C14.4825 1.9995 15.0322 2.31525 15.4335 2.69475C15.8355 3.075 16.125 3.558 16.125 4.125V13.8652L16.1055 13.875H16.125C16.125 14.442 15.8355 14.925 15.4335 15.3053C15.0322 15.6847 14.4825 16.0005 13.8495 16.2533C12.5798 16.761 10.8652 17.0625 9 17.0625C7.13475 17.0625 5.4195 16.761 4.1505 16.2533C3.5175 16.0005 2.96775 15.6847 2.5665 15.3053C2.1645 14.925 1.875 14.442 1.875 13.875H1.8945L1.875 13.8652V4.125C1.875 3.558 2.1645 3.075 2.5665 2.69475C2.96775 2.31525 3.5175 1.9995 4.1505 1.74675C5.4195 1.239 7.13475 0.9375 9 0.9375ZM3 10.7782V13.8652L2.99025 13.875H3C3 14.0332 3.07725 14.2402 3.33975 14.4877C3.603 14.7367 4.01325 14.9872 4.56825 15.2092C5.6745 15.651 7.24125 15.9375 9 15.9375C10.7587 15.9375 12.3255 15.6517 13.4318 15.2092C13.986 14.9872 14.3978 14.7367 14.6603 14.4877C14.922 14.2402 15 14.0325 15 13.875H15.0098L15 13.8652V10.7782C14.6398 11.02 14.2539 11.2212 13.8495 11.3783C12.5798 11.886 10.8652 12.1875 9 12.1875C7.13475 12.1875 5.4195 11.886 4.1505 11.3783C3.74605 11.2213 3.3602 11.0201 3 10.7782ZM15 9V5.90325C14.6398 6.14503 14.2539 6.34625 13.8495 6.50325C12.5798 7.011 10.8652 7.3125 9 7.3125C7.13475 7.3125 5.4195 7.011 4.1505 6.50325C3.74606 6.34625 3.36022 6.14503 3 5.90325V9C3 9.1575 3.078 9.36525 3.33975 9.61275C3.60225 9.86175 4.014 10.1123 4.56825 10.3335C5.6745 10.776 7.24125 11.0625 9 11.0625C10.7587 11.0625 12.3255 10.776 13.4318 10.3335C13.9868 10.1123 14.397 9.86175 14.6603 9.6135C14.9228 9.366 15 9.15825 15 9ZM3 4.125C3 4.28325 3.07725 4.49025 3.33975 4.73775C3.603 4.98675 4.01325 5.23725 4.56825 5.45925C5.6745 5.901 7.24125 6.1875 9 6.1875C10.7587 6.1875 12.3255 5.90175 13.4318 5.45925C13.986 5.23725 14.3978 4.98675 14.6603 4.73775C14.922 4.49025 15 4.2825 15 4.125C15 3.96675 14.9228 3.75975 14.6603 3.51225C14.397 3.26325 13.9868 3.01275 13.4318 2.79075C12.3255 2.349 10.7587 2.0625 9 2.0625C7.24125 2.0625 5.6745 2.34825 4.56825 2.79075C4.014 3.01275 3.60225 3.26325 3.33975 3.51225C3.078 3.75975 3 3.9675 3 4.125Z" fill="#73818F" stroke="#73818F" stroke-width="0.5"/>
</svg>
