<svg width="23" height="18" viewBox="0 0 23 18" fill="none" xmlns="http://www.w3.org/2000/svg">
<g clip-path="url(#clip0_21132_31782)">
<path d="M16.2559 13.1089H15.5095C14.5841 13.1089 13.7689 12.5676 13.2757 11.7482C12.9679 12.4534 12.5478 13.1004 12.0414 13.6745C12.9297 14.6302 14.1563 15.2233 15.5095 15.2233H16.2559C16.7088 16.4507 17.9081 17.3377 19.3289 17.3377C21.1339 17.3377 22.6027 15.9147 22.6027 14.1661C22.6027 12.4174 21.1339 10.9944 19.3289 10.9944C17.9081 10.9944 16.7088 11.8814 16.2559 13.1089ZM20.4202 14.1661C20.4202 14.7496 19.9302 15.2233 19.3289 15.2233C18.7276 15.2233 18.2377 14.7496 18.2377 14.1661C18.2377 13.5825 18.7276 13.1089 19.3289 13.1089C19.9302 13.1089 20.4202 13.5825 20.4202 14.1661ZM7.12308 4.65114H7.50611C8.58101 4.65114 9.52714 5.21675 10.0815 6.07309C10.3805 5.37005 10.7865 4.72092 11.2819 4.14579C10.3238 3.15624 8.98806 2.53671 7.5072 2.53671H7.12417C6.67129 1.30929 5.47199 0.422285 4.05115 0.422285C2.24619 0.422285 0.777344 1.84529 0.777344 3.59393C0.777344 5.34256 2.24619 6.76557 4.05115 6.76557C5.47199 6.76557 6.67129 5.87857 7.12308 4.65114ZM2.95988 3.59393C2.95988 3.01034 3.44986 2.53671 4.05115 2.53671C4.65244 2.53671 5.14242 3.01034 5.14242 3.59393C5.14242 4.17751 4.65244 4.65114 4.05115 4.65114C3.44986 4.65114 2.95988 4.17751 2.95988 3.59393ZM16.2341 2.60543C13.0552 3.03889 10.5988 5.68298 10.5988 8.88C10.5988 10.9268 9.09173 12.6352 7.09689 13.0243C6.62109 11.8402 5.43925 10.9944 4.05115 10.9944C2.24619 10.9944 0.777344 12.4174 0.777344 14.1661C0.777344 15.9147 2.24619 17.3377 4.05115 17.3377C5.49818 17.3377 6.71385 16.4179 7.14599 15.1546C10.3249 14.7211 12.7813 12.077 12.7813 8.88C12.7813 6.83323 14.2884 5.12477 16.2832 4.73572C16.759 5.9198 17.9408 6.76557 19.3289 6.76557C21.1339 6.76557 22.6027 5.34256 22.6027 3.59393C22.6027 1.84529 21.1339 0.422285 19.3289 0.422285C17.8819 0.422285 16.6662 1.34206 16.2341 2.60543ZM2.95988 14.1661C2.95988 13.5825 3.44986 13.1089 4.05115 13.1089C4.65244 13.1089 5.14242 13.5825 5.14242 14.1661C5.14242 14.7496 4.65244 15.2233 4.05115 15.2233C3.44986 15.2233 2.95988 14.7496 2.95988 14.1661ZM20.4202 3.59393C20.4202 4.17751 19.9302 4.65114 19.3289 4.65114C18.7276 4.65114 18.2377 4.17751 18.2377 3.59393C18.2377 3.01034 18.7276 2.53671 19.3289 2.53671C19.9302 2.53671 20.4202 3.01034 20.4202 3.59393Z" fill="#73818F"/>
</g>
<defs>
<clipPath id="clip0_21132_31782">
<rect width="17" height="22" fill="white" transform="matrix(0 -1 1 0 0.691406 17.38)"/>
</clipPath>
</defs>
</svg>
