<svg width="22" height="18" viewBox="0 0 22 18" fill="none" xmlns="http://www.w3.org/2000/svg">
<g clip-path="url(#clip0_21996_4515)">
<path d="M0.143808 1.30648C0.143808 0.985653 0.271725 0.677967 0.499418 0.451108C0.727111 0.22425 1.03593 0.0968018 1.35794 0.0968018H7.42858C7.75058 0.0968018 8.0594 0.22425 8.28709 0.451108C8.51479 0.677967 8.6427 0.985653 8.6427 1.30648V7.35487C8.6427 7.67569 8.51479 7.98338 8.28709 8.21024C8.0594 8.4371 7.75058 8.56454 7.42858 8.56454H1.35794C1.03593 8.56454 0.727111 8.4371 0.499418 8.21024C0.271725 7.98338 0.143808 7.67569 0.143808 7.35487V1.30648ZM1.965 6.75003H6.82151V1.91132H1.965V6.75003ZM11.9816 0.70164C11.7401 0.70164 11.5084 0.797226 11.3377 0.96737C11.1669 1.13751 11.071 1.36828 11.071 1.6089C11.071 1.84952 11.1669 2.08028 11.3377 2.25043C11.5084 2.42057 11.7401 2.51616 11.9816 2.51616H21.0875C21.329 2.51616 21.5606 2.42057 21.7314 2.25043C21.9022 2.08028 21.9981 1.84952 21.9981 1.6089C21.9981 1.36828 21.9022 1.13751 21.7314 0.96737C21.5606 0.797226 21.329 0.70164 21.0875 0.70164H11.9816ZM11.9816 7.95971C11.7401 7.95971 11.5084 8.05529 11.3377 8.22544C11.1669 8.39558 11.071 8.62634 11.071 8.86696C11.071 9.10758 11.1669 9.33835 11.3377 9.50849C11.5084 9.67863 11.7401 9.77422 11.9816 9.77422H21.0875C21.329 9.77422 21.5606 9.67863 21.7314 9.50849C21.9022 9.33835 21.9981 9.10758 21.9981 8.86696C21.9981 8.62634 21.9022 8.39558 21.7314 8.22544C21.5606 8.05529 21.329 7.95971 21.0875 7.95971H11.9816ZM11.9816 15.2178C11.7401 15.2178 11.5084 15.3134 11.3377 15.4835C11.1669 15.6536 11.071 15.8844 11.071 16.125C11.071 16.3656 11.1669 16.5964 11.3377 16.7666C11.5084 16.9367 11.7401 17.0323 11.9816 17.0323H21.0875C21.329 17.0323 21.5606 16.9367 21.7314 16.7666C21.9022 16.5964 21.9981 16.3656 21.9981 16.125C21.9981 15.8844 21.9022 15.6536 21.7314 15.4835C21.5606 15.3134 21.329 15.2178 21.0875 15.2178H11.9816ZM8.3756 12.1573C8.54612 12.3274 8.6419 12.558 8.6419 12.7984C8.6419 13.0388 8.54612 13.2694 8.3756 13.4395L4.12615 17.6734C3.95541 17.8433 3.72397 17.9387 3.48266 17.9387C3.24135 17.9387 3.00991 17.8433 2.83917 17.6734L0.410916 15.2541C0.321451 15.171 0.249693 15.0708 0.199924 14.9596C0.150155 14.8483 0.123393 14.7281 0.121235 14.6063C0.119078 14.4845 0.14157 14.3635 0.187368 14.2505C0.233166 14.1375 0.301332 14.0349 0.387801 13.9488C0.47427 13.8626 0.577269 13.7947 0.690654 13.7491C0.80404 13.7034 0.925488 13.681 1.04775 13.6832C1.17002 13.6853 1.2906 13.712 1.4023 13.7616C1.514 13.8112 1.61453 13.8827 1.69789 13.9718L3.48266 15.75L7.08862 12.1573C7.25936 11.9874 7.4908 11.892 7.73211 11.892C7.97342 11.892 8.20486 11.9874 8.3756 12.1573Z" fill="#73818F"/>
</g>
<defs>
<clipPath id="clip0_21996_4515">
<rect width="22" height="18" fill="white"/>
</clipPath>
</defs>
</svg>
