<svg width="25" height="26" viewBox="0 0 25 26" fill="none" xmlns="http://www.w3.org/2000/svg">
<path d="M10.4154 17.6875L16.6654 13L10.4154 8.31254V17.6875ZM12.4987 2.58337C6.7487 2.58337 2.08203 7.25004 2.08203 13C2.08203 18.75 6.7487 23.4167 12.4987 23.4167C18.2487 23.4167 22.9154 18.75 22.9154 13C22.9154 7.25004 18.2487 2.58337 12.4987 2.58337ZM12.4987 21.3334C7.90495 21.3334 4.16536 17.5938 4.16536 13C4.16536 8.40629 7.90495 4.66671 12.4987 4.66671C17.0924 4.66671 20.832 8.40629 20.832 13C20.832 17.5938 17.0924 21.3334 12.4987 21.3334Z" fill="#73818F"/>
</svg>
