<svg width="50" height="46" viewBox="0 0 50 46" fill="none" xmlns="http://www.w3.org/2000/svg">
<path d="M36.8054 37.9788C34.2591 37.9788 32.1758 35.9088 32.1758 33.3788C32.1758 30.8488 34.2591 28.7788 36.8054 28.7788C39.3517 28.7788 41.435 30.8488 41.435 33.3788C41.435 35.9088 39.3517 37.9788 36.8054 37.9788Z" fill="#73818F"/>
<path d="M36.8053 44.8786C33.3331 44.8786 29.9766 43.2686 27.7776 40.6236L31.3655 37.7486C32.6387 39.3586 34.722 40.3936 36.8053 40.3936C40.6248 40.3936 43.7498 37.2886 43.7498 33.4936C43.7498 29.6986 40.6248 26.5936 36.8053 26.5936C35.6479 26.5936 34.4905 26.9386 33.4489 27.3986L31.4813 28.5486L23.2637 13.8286L27.3146 11.6436L33.4489 22.4536C34.6063 22.1086 35.7637 21.8786 36.9211 21.8786C43.2868 21.8786 48.4952 27.0536 48.4952 33.3786C48.4952 39.7036 43.1711 44.8786 36.8053 44.8786Z" fill="#73818F"/>
<path d="M12.4999 44.8786C6.13411 44.8786 0.925781 39.7036 0.925781 33.3786C0.925781 28.0886 4.51374 23.6036 9.60634 22.2236L10.7637 26.7086C7.75449 27.5136 5.55541 30.2736 5.55541 33.3786C5.55541 37.1736 8.68041 40.2786 12.4999 40.2786C16.3193 40.2786 19.4443 37.1736 19.4443 33.3786V31.0786H36.8054V35.6786H23.8424C22.8008 40.9686 18.0554 44.8786 12.4999 44.8786Z" fill="#73818F"/>
<path d="M12.5007 37.9788C9.95443 37.9788 7.87109 35.9088 7.87109 33.3788C7.87109 30.8488 9.95443 28.7788 12.5007 28.7788C15.047 28.7788 17.1304 30.8488 17.1304 33.3788C17.1304 35.9088 15.047 37.9788 12.5007 37.9788Z" fill="#73818F"/>
<path d="M25.2312 17.2786C22.6849 17.2786 20.6016 15.2086 20.6016 12.6786C20.6016 10.1486 22.6849 8.07861 25.2312 8.07861C27.7775 8.07861 29.8608 10.1486 29.8608 12.6786C29.8608 15.2086 27.7775 17.2786 25.2312 17.2786Z" fill="#73818F"/>
<path d="M14.4684 34.5287L10.5332 32.2287L17.3619 21.0737C15.0471 18.8887 13.6582 15.8987 13.6582 12.6787C13.6582 6.35367 18.8665 1.17871 25.2323 1.17871C31.598 1.17871 36.8064 6.35367 36.8064 12.6787C36.8064 13.7137 36.6906 14.6337 36.4591 15.5537L31.9452 14.4037C32.061 13.8287 32.1767 13.2537 32.1767 12.6787C32.1767 8.88367 29.0517 5.77867 25.2323 5.77867C21.4128 5.77867 18.2878 8.88367 18.2878 12.6787C18.2878 15.0937 19.561 17.2787 21.6443 18.5437L23.6119 19.6937L14.4684 34.5287Z" fill="#73818F"/>
</svg>
