<svg id="Layer_1" data-name="Layer 1" xmlns="http://www.w3.org/2000/svg" viewBox="0 0 42.08 33.38"><title>ERP</title><metadata><?xpacket begin="﻿" id="W5M0MpCehiHzreSzNTczkc9d"?>
<x:xmpmeta xmlns:x="adobe:ns:meta/" x:xmptk="Adobe XMP Core 6.0-c006 79.164648, 2021/01/12-15:52:29        ">
   <rdf:RDF xmlns:rdf="http://www.w3.org/1999/02/22-rdf-syntax-ns#">
      <rdf:Description rdf:about=""
            xmlns:xmp="http://ns.adobe.com/xap/1.0/"
            xmlns:xmpMM="http://ns.adobe.com/xap/1.0/mm/"
            xmlns:stEvt="http://ns.adobe.com/xap/1.0/sType/ResourceEvent#"
            xmlns:dc="http://purl.org/dc/elements/1.1/"
            xmlns:lr="http://ns.adobe.com/lightroom/1.0/">
         <xmp:MetadataDate>2022-10-21T13:45:28-05:00</xmp:MetadataDate>
         <xmpMM:InstanceID>xmp.iid:788ef7d7-f39b-4029-8b03-f0a4e32c0177</xmpMM:InstanceID>
         <xmpMM:DocumentID>xmp.did:8be205e2-1b13-49b1-b14c-b3b8ae316b43</xmpMM:DocumentID>
         <xmpMM:OriginalDocumentID>xmp.did:8be205e2-1b13-49b1-b14c-b3b8ae316b43</xmpMM:OriginalDocumentID>
         <xmpMM:History>
            <rdf:Seq>
               <rdf:li>
                  <rdf:Description>
                     <stEvt:action>saved</stEvt:action>
                     <stEvt:instanceID>xmp.iid:8be205e2-1b13-49b1-b14c-b3b8ae316b43</stEvt:instanceID>
                     <stEvt:when>2021-08-31T15:43:57-05:00</stEvt:when>
                     <stEvt:softwareAgent>Adobe Bridge 2021 (Macintosh)</stEvt:softwareAgent>
                     <stEvt:changed>/metadata</stEvt:changed>
                  </rdf:Description>
               </rdf:li>
               <rdf:li>
                  <rdf:Description>
                     <stEvt:action>saved</stEvt:action>
                     <stEvt:instanceID>xmp.iid:788ef7d7-f39b-4029-8b03-f0a4e32c0177</stEvt:instanceID>
                     <stEvt:when>2022-10-21T13:45:28-05:00</stEvt:when>
                     <stEvt:softwareAgent>Adobe Bridge 2021 (Macintosh)</stEvt:softwareAgent>
                     <stEvt:changed>/metadata</stEvt:changed>
                  </rdf:Description>
               </rdf:li>
            </rdf:Seq>
         </xmpMM:History>
         <dc:title>
            <rdf:Alt>
               <rdf:li xml:lang="x-default">ERP</rdf:li>
            </rdf:Alt>
         </dc:title>
         <dc:subject>
            <rdf:Bag>
               <rdf:li>icon</rdf:li>
               <rdf:li>ERP</rdf:li>
               <rdf:li>layers</rdf:li>
               <rdf:li>Business</rdf:li>
               <rdf:li>administration</rdf:li>
               <rdf:li>Enterprise</rdf:li>
               <rdf:li>service</rdf:li>
            </rdf:Bag>
         </dc:subject>
         <lr:hierarchicalSubject>
            <rdf:Bag>
               <rdf:li>service</rdf:li>
            </rdf:Bag>
         </lr:hierarchicalSubject>
      </rdf:Description>
   </rdf:RDF>
</x:xmpmeta>
                                                                                                    
                                                                                                    
                                                                                                    
                                                                                                    
                                                                                                    
                                                                                                    
                                                                                                    
                                                                                                    
                                                                                                    
                                                                                                    
                                                                                               
<?xpacket end="w"?></metadata>
<path d="M9.82,27.2l4.75-2.38L9.82,22.45l1.94-1H.54L.65,20A9.87,9.87,0,0,1,6,12a2.41,2.41,0,0,0,1.26-1.67,7.58,7.58,0,0,1,7.44-6.13,5.53,5.53,0,0,1,.71,0h.24a2.26,2.26,0,0,0,1.68-.72A9.31,9.31,0,0,1,32.44,5.65,2.46,2.46,0,0,0,34.12,7a9.22,9.22,0,0,1,3,1.24,9.53,9.53,0,0,1,3.31,12.57l-.38.71H30.69l1.81,1-4.75,2.33,4.79,2.4L21.08,32.82Z" fill="#fff"/><path d="M24.11,1A8.76,8.76,0,0,1,32,5.88a2.94,2.94,0,0,0,2,1.56,9.16,9.16,0,0,1,2.86,1.18A9,9,0,0,1,40,20.53l-.24.45h-11l2.66,1.48-4.8,2.35,1.45.72,3.35,1.67L21.08,32.27,10.94,27.2l3.31-1.66,1.44-.72-4.75-2.37L13.87,21H1.08l.07-.92a9.4,9.4,0,0,1,5-7.67,2.91,2.91,0,0,0,1.52-2,7.09,7.09,0,0,1,4.1-5.13,7.22,7.22,0,0,1,2.86-.6l.66,0,.29,0a2.8,2.8,0,0,0,2-.88A8.85,8.85,0,0,1,24.11,1m0-1a9.82,9.82,0,0,0-7.19,3.14,1.78,1.78,0,0,1-1.31.56h-.2a6.28,6.28,0,0,0-.75,0,8.12,8.12,0,0,0-7.95,6.54,1.91,1.91,0,0,1-1,1.32A10.41,10.41,0,0,0,.15,20l-.07.92L0,22H9.64l-.93.47,1.78.89,3,1.48-3,1.48-1.78.9,1.78.89,10.14,5.07.45.22.44-.22L31.86,28.1l1.81-.89-1.81-.9-3-1.5,3-1.46,1.72-.84-1-.53h7.74l.28-.52.24-.45A10,10,0,0,0,34.23,6.47a2,2,0,0,1-1.34-1A9.77,9.77,0,0,0,24.11,0Z" fill="#fff"/><polygon points="26.13 26.48 27.54 27.19 21.09 30.35 14.79 27.2 16.17 26.5 14.25 25.54 10.94 27.2 21.08 32.27 31.42 27.2 28.07 25.53 26.13 26.48" fill="#2c5967"/><polygon points="21.08 27.52 31.42 22.46 28.07 20.78 26.13 21.73 27.54 22.44 21.09 25.6 14.79 22.45 16.17 21.76 14.25 20.8 10.94 22.45 21.08 27.52" fill="#2c5967"/><path d="M31.42,17.71,21.17,12.59,10.94,17.7l10.14,5.07Zm-10.25-3.2,6.37,3.18-6.45,3.16-6.3-3.15Z" fill="#2c5967"/><polygon points="26.13 21.73 27.54 22.44 21.09 25.6 14.79 22.45 16.17 21.76 14.25 20.8 10.94 22.45 21.08 27.52 31.42 22.46 28.07 20.78 26.13 21.73" fill="#2c5967"/><polygon points="26.13 26.48 27.54 27.19 21.09 30.35 14.79 27.2 16.17 26.5 14.25 25.54 10.94 27.2 21.08 32.27 31.42 27.2 28.07 25.53 26.13 26.48" fill="#2c5967"/><path d="M36.87,8.62A9.16,9.16,0,0,0,34,7.44a2.94,2.94,0,0,1-2-1.56A8.76,8.76,0,0,0,24.11,1a8.85,8.85,0,0,0-6.46,2.82,2.78,2.78,0,0,1-2.33.86,7.21,7.21,0,0,0-3.52.57,7.09,7.09,0,0,0-4.1,5.13,2.91,2.91,0,0,1-1.52,2,9.4,9.4,0,0,0-5,7.67L1.08,21H9.5V19.26H3a7.7,7.7,0,0,1,4-5.34,4.6,4.6,0,0,0,2.4-3.21,5.37,5.37,0,0,1,3.11-3.88,5.42,5.42,0,0,1,2.66-.44A4.49,4.49,0,0,0,18.91,5a7.12,7.12,0,0,1,5.2-2.27,7,7,0,0,1,6.34,3.92,4.7,4.7,0,0,0,3.19,2.48,7.19,7.19,0,0,1,2.31,1,7.32,7.32,0,0,1,2.76,9.19h-6V21h7.06l.24-.45A9,9,0,0,0,36.87,8.62Z" fill="#2c5967"/></svg>