<svg id="Layer_1" data-name="Layer 1" xmlns="http://www.w3.org/2000/svg" viewBox="0 0 42 42"><title>Fusion Middleware</title><metadata><?xpacket begin="﻿" id="W5M0MpCehiHzreSzNTczkc9d"?>
<x:xmpmeta xmlns:x="adobe:ns:meta/" x:xmptk="Adobe XMP Core 6.0-c006 79.164648, 2021/01/12-15:52:29        ">
   <rdf:RDF xmlns:rdf="http://www.w3.org/1999/02/22-rdf-syntax-ns#">
      <rdf:Description rdf:about=""
            xmlns:xmp="http://ns.adobe.com/xap/1.0/"
            xmlns:xmpMM="http://ns.adobe.com/xap/1.0/mm/"
            xmlns:stEvt="http://ns.adobe.com/xap/1.0/sType/ResourceEvent#"
            xmlns:dc="http://purl.org/dc/elements/1.1/">
         <xmp:MetadataDate>2022-10-21T13:45:28-05:00</xmp:MetadataDate>
         <xmpMM:InstanceID>xmp.iid:4f71e5ce-3ea5-4eb2-b0e5-151e6643a4bc</xmpMM:InstanceID>
         <xmpMM:DocumentID>xmp.did:ccf8ead7-61f0-4d01-baa6-5547f805fdc1</xmpMM:DocumentID>
         <xmpMM:OriginalDocumentID>xmp.did:ccf8ead7-61f0-4d01-baa6-5547f805fdc1</xmpMM:OriginalDocumentID>
         <xmpMM:History>
            <rdf:Seq>
               <rdf:li>
                  <rdf:Description>
                     <stEvt:action>saved</stEvt:action>
                     <stEvt:instanceID>xmp.iid:ccf8ead7-61f0-4d01-baa6-5547f805fdc1</stEvt:instanceID>
                     <stEvt:when>2021-08-31T15:44:04-05:00</stEvt:when>
                     <stEvt:softwareAgent>Adobe Bridge 2021 (Macintosh)</stEvt:softwareAgent>
                     <stEvt:changed>/metadata</stEvt:changed>
                  </rdf:Description>
               </rdf:li>
               <rdf:li>
                  <rdf:Description>
                     <stEvt:action>saved</stEvt:action>
                     <stEvt:instanceID>xmp.iid:4f71e5ce-3ea5-4eb2-b0e5-151e6643a4bc</stEvt:instanceID>
                     <stEvt:when>2022-10-21T13:45:28-05:00</stEvt:when>
                     <stEvt:softwareAgent>Adobe Bridge 2021 (Macintosh)</stEvt:softwareAgent>
                     <stEvt:changed>/metadata</stEvt:changed>
                  </rdf:Description>
               </rdf:li>
            </rdf:Seq>
         </xmpMM:History>
         <dc:title>
            <rdf:Alt>
               <rdf:li xml:lang="x-default">Fusion Middleware</rdf:li>
            </rdf:Alt>
         </dc:title>
         <dc:subject>
            <rdf:Bag>
               <rdf:li>icon</rdf:li>
               <rdf:li>fusion</rdf:li>
               <rdf:li>middleware</rdf:li>
               <rdf:li>FMW Java</rdf:li>
               <rdf:li>developer</rdf:li>
            </rdf:Bag>
         </dc:subject>
      </rdf:Description>
   </rdf:RDF>
</x:xmpmeta>
                                                                                                    
                                                                                                    
                                                                                                    
                                                                                                    
                                                                                                    
                                                                                                    
                                                                                                    
                                                                                                    
                                                                                                    
                                                                                                    
                                                                                                    
                                                                                                    
                                                                                                    
                                                                                     
<?xpacket end="w"?></metadata>
<rect x="0.5" y="0.5" width="41" height="41" rx="3.5" fill="#fff"/><path d="M38,1a3,3,0,0,1,3,3V38a3,3,0,0,1-3,3H4a3,3,0,0,1-3-3V4A3,3,0,0,1,4,1H38m0-1H4A4,4,0,0,0,0,4V38a4,4,0,0,0,4,4H38a4,4,0,0,0,4-4V4a4,4,0,0,0-4-4Z" fill="#fff"/><path d="M38,1H4A3,3,0,0,0,1,4V19.11l0,0,0,0V38a3,3,0,0,0,3,3H38a3,3,0,0,0,3-3V4A3,3,0,0,0,38,1ZM16.25,25.3a23.18,23.18,0,0,1,2.56,1.56C18,28.11,17.24,29.49,16.5,31c-.94-1.23-1.93-2.43-2.94-3.56A27.34,27.34,0,0,1,16.25,25.3Zm2-1.2a24.31,24.31,0,0,0,3.15-1c-.46.62-.95,1.31-1.46,2.07C19.32,24.79,18.76,24.43,18.21,24.1ZM12.2,26c-.46-.48-.92-.93-1.38-1.36a15.2,15.2,0,0,0,2.18.16h.65C13.16,25.12,12.68,25.53,12.2,26ZM7.31,24.23a31.43,31.43,0,0,1,3.42,3.1A45.38,45.38,0,0,0,7.5,30.86a49.37,49.37,0,0,0-3.44-5.35A8.82,8.82,0,0,1,7.31,24.23ZM5.22,22.72A10.44,10.44,0,0,0,3,23.82V21.08a17.29,17.29,0,0,0,2.26,1.55Zm.93,9.84A45.42,45.42,0,0,0,3,37.21V27.46A51.23,51.23,0,0,1,6.15,32.56Zm1,2A43.28,43.28,0,0,1,9.12,39H4.28A43.45,43.45,0,0,1,7.17,34.54Zm1.36-1.76a45.35,45.35,0,0,1,3.57-4c1.17,1.32,2.35,2.76,3.43,4.24a37,37,0,0,0-2.06,6H11.24A47.3,47.3,0,0,0,8.53,32.78ZM16.9,35a40.36,40.36,0,0,1,2.39,4H15.53A35.35,35.35,0,0,1,16.9,35Zm.94-2.15a48,48,0,0,1,2.61-4.77,58.43,58.43,0,0,1,4.63,4,63.62,63.62,0,0,0-1.2,7H21.51A42.21,42.21,0,0,0,17.84,32.82Zm8.93.88A65.49,65.49,0,0,1,31.49,39h-5.6C26.12,37.14,26.42,35.38,26.77,33.7Zm-5.24-7.34c1-1.56,2-2.84,2.78-3.76a17.63,17.63,0,0,1,3.41.87,60.46,60.46,0,0,0-2.09,6.34C24.27,28.56,22.89,27.39,21.53,26.36ZM26,20.88a38.93,38.93,0,0,0,3.81-2.55v0a1.91,1.91,0,0,1,.32-.17c-.53,1-1.08,2.19-1.63,3.45A22.73,22.73,0,0,0,26,20.88Zm9.81-8ZM32.7,17.64a17.32,17.32,0,0,1,6.3.54V28a31.65,31.65,0,0,0-8.64-5.56A52.88,52.88,0,0,1,32.7,17.64ZM39,16.1a19.19,19.19,0,0,0-5.08-.53c.76-1.22,1.36-2,1.65-2.43C37,11.68,38.13,10.33,39,9.25ZM4,3H38a1,1,0,0,1,1,1V5.94a53.11,53.11,0,0,1-4.76,5.68h0l-.08.1c-4.74,4.91-12.4,11-21.15,11A14.52,14.52,0,0,1,3,18.38V4A1,1,0,0,1,4,3ZM38,39H34a64.86,64.86,0,0,0-6.71-7.6,59.68,59.68,0,0,1,2.3-7.18A27.22,27.22,0,0,1,39,30.85V38A1,1,0,0,1,38,39Z" fill="#2c5967"/></svg>