<svg id="Layer_1" data-name="Layer 1" xmlns="http://www.w3.org/2000/svg" viewBox="0 0 42.08 32.29"><title>Human Capital Management Unisex HCM</title><metadata><?xpacket begin="﻿" id="W5M0MpCehiHzreSzNTczkc9d"?>
<x:xmpmeta xmlns:x="adobe:ns:meta/" x:xmptk="Adobe XMP Core 6.0-c006 79.164648, 2021/01/12-15:52:29        ">
   <rdf:RDF xmlns:rdf="http://www.w3.org/1999/02/22-rdf-syntax-ns#">
      <rdf:Description rdf:about=""
            xmlns:dc="http://purl.org/dc/elements/1.1/"
            xmlns:xmp="http://ns.adobe.com/xap/1.0/"
            xmlns:xmpMM="http://ns.adobe.com/xap/1.0/mm/"
            xmlns:stEvt="http://ns.adobe.com/xap/1.0/sType/ResourceEvent#"
            xmlns:lr="http://ns.adobe.com/lightroom/1.0/">
         <dc:title>
            <rdf:Alt>
               <rdf:li xml:lang="x-default">Human Capital Management Unisex HCM</rdf:li>
            </rdf:Alt>
         </dc:title>
         <dc:subject>
            <rdf:Bag>
               <rdf:li>icon</rdf:li>
               <rdf:li>human</rdf:li>
               <rdf:li>capital</rdf:li>
               <rdf:li>Data Management</rdf:li>
               <rdf:li>User</rdf:li>
               <rdf:li>Person</rdf:li>
               <rdf:li>People</rdf:li>
               <rdf:li>Persona</rdf:li>
               <rdf:li>service</rdf:li>
            </rdf:Bag>
         </dc:subject>
         <xmp:MetadataDate>2022-10-21T13:49:18-05:00</xmp:MetadataDate>
         <xmpMM:InstanceID>xmp.iid:78facfbc-0c0d-4de3-9df0-54830c66d100</xmpMM:InstanceID>
         <xmpMM:DocumentID>xmp.did:ea6fd933-e37c-4a95-a68e-85360448c82e</xmpMM:DocumentID>
         <xmpMM:OriginalDocumentID>xmp.did:ea6fd933-e37c-4a95-a68e-85360448c82e</xmpMM:OriginalDocumentID>
         <xmpMM:History>
            <rdf:Seq>
               <rdf:li>
                  <rdf:Description>
                     <stEvt:action>saved</stEvt:action>
                     <stEvt:instanceID>xmp.iid:ea6fd933-e37c-4a95-a68e-85360448c82e</stEvt:instanceID>
                     <stEvt:when>2021-08-31T15:44:19-05:00</stEvt:when>
                     <stEvt:softwareAgent>Adobe Bridge 2021 (Macintosh)</stEvt:softwareAgent>
                     <stEvt:changed>/metadata</stEvt:changed>
                  </rdf:Description>
               </rdf:li>
               <rdf:li>
                  <rdf:Description>
                     <stEvt:action>saved</stEvt:action>
                     <stEvt:instanceID>xmp.iid:78facfbc-0c0d-4de3-9df0-54830c66d100</stEvt:instanceID>
                     <stEvt:when>2022-10-21T13:49:18-05:00</stEvt:when>
                     <stEvt:softwareAgent>Adobe Bridge 2021 (Macintosh)</stEvt:softwareAgent>
                     <stEvt:changed>/metadata</stEvt:changed>
                  </rdf:Description>
               </rdf:li>
            </rdf:Seq>
         </xmpMM:History>
         <lr:hierarchicalSubject>
            <rdf:Bag>
               <rdf:li>service</rdf:li>
            </rdf:Bag>
         </lr:hierarchicalSubject>
      </rdf:Description>
   </rdf:RDF>
</x:xmpmeta>
                                                                                                    
                                                                                                    
                                                                                                    
                                                                                                    
                                                                                                    
                                                                                                    
                                                                                                    
                                                                                                    
                                                                                                    
                                                                                                    
                    
<?xpacket end="w"?></metadata>
<path d="M5.34,31.79V27.24a3.12,3.12,0,0,1,3.12-3.11h6a3.5,3.5,0,0,1,3-1.77h7.26a3.51,3.51,0,0,1,3,1.77h6a3.12,3.12,0,0,1,3.12,3.11v4.55Z" fill="#fff"/><path d="M24.77,22.86a3,3,0,0,1,2.73,1.76h6.32a2.63,2.63,0,0,1,2.62,2.62v4.05H5.84V27.24a2.63,2.63,0,0,1,2.62-2.62h6.32a3,3,0,0,1,2.73-1.76h7.26m0-1H17.51a4,4,0,0,0-3.31,1.76H8.46a3.62,3.62,0,0,0-3.62,3.62v5.05h32.6V27.24a3.62,3.62,0,0,0-3.62-3.62H28.08a4,4,0,0,0-3.31-1.76Z" fill="#fff"/><path d="M31.49,23.19a3.71,3.71,0,0,1-3.11-1.71H23a4.42,4.42,0,0,1-3.76,0H13.9a3.69,3.69,0,0,1-6.23,0H.54L.65,20A9.87,9.87,0,0,1,6,12,2.35,2.35,0,0,0,7.2,10.28a7.59,7.59,0,0,1,7.45-6.13,5.53,5.53,0,0,1,.71,0h.24a2.26,2.26,0,0,0,1.68-.72A9.31,9.31,0,0,1,32.44,5.65,2.46,2.46,0,0,0,34.12,7a9.31,9.31,0,0,1,3,1.24,9.53,9.53,0,0,1,3.31,12.57l-.38.71H34.61A3.73,3.73,0,0,1,31.49,23.19Z" fill="#fff"/><path d="M24.11,1A8.76,8.76,0,0,1,32,5.88a2.94,2.94,0,0,0,2,1.56,9.16,9.16,0,0,1,2.86,1.18A9,9,0,0,1,40,20.53l-.24.45H34.32a3.19,3.19,0,0,1-5.65,0H22.91a3.94,3.94,0,0,1-3.54,0H13.61A3.19,3.19,0,0,1,8,21H1.08l.07-.92a9.4,9.4,0,0,1,5-7.67,2.91,2.91,0,0,0,1.52-2,7.09,7.09,0,0,1,4.1-5.13,7.22,7.22,0,0,1,2.86-.6l.66,0,.28,0a2.8,2.8,0,0,0,2-.88A8.85,8.85,0,0,1,24.11,1m0-1a9.82,9.82,0,0,0-7.19,3.14,1.78,1.78,0,0,1-1.32.56h-.19a6.28,6.28,0,0,0-.75,0,8.12,8.12,0,0,0-7.95,6.54,1.91,1.91,0,0,1-1,1.32A10.41,10.41,0,0,0,.15,20l-.07.92L0,22H7.41a4.19,4.19,0,0,0,6.75,0h5a4.92,4.92,0,0,0,4,0h5a4.19,4.19,0,0,0,6.75,0h5.49l.28-.52.24-.45A10,10,0,0,0,37.4,7.77a9.74,9.74,0,0,0-3.17-1.3,2,2,0,0,1-1.34-1A9.77,9.77,0,0,0,24.11,0Z" fill="#fff"/><path d="M33.82,24.62H28.88a4.35,4.35,0,0,1,.19,1.25v.47h4.75a.9.9,0,0,1,.9.9v4.05h1.72V27.24A2.63,2.63,0,0,0,33.82,24.62Z" fill="#2c5967"/><path d="M36.87,8.62A9.16,9.16,0,0,0,34,7.44a2.94,2.94,0,0,1-2-1.56A8.76,8.76,0,0,0,24.11,1a8.85,8.85,0,0,0-6.46,2.82,2.78,2.78,0,0,1-2.33.86,7.21,7.21,0,0,0-3.52.57,7.09,7.09,0,0,0-4.1,5.13,2.91,2.91,0,0,1-1.52,2,9.4,9.4,0,0,0-5,7.67L1.08,21H6.54a4.44,4.44,0,0,1-.27-1.51c0-.07,0-.14,0-.21H3a7.7,7.7,0,0,1,4-5.34,4.6,4.6,0,0,0,2.4-3.21,5.37,5.37,0,0,1,3.11-3.88,5.42,5.42,0,0,1,2.66-.44A4.49,4.49,0,0,0,18.91,5a7.12,7.12,0,0,1,5.2-2.27,7,7,0,0,1,6.34,3.92,4.7,4.7,0,0,0,3.19,2.48,7.3,7.3,0,0,1,5.07,10.14H36c0,.07,0,.14,0,.21A4.44,4.44,0,0,1,35.74,21h4l.24-.45A9,9,0,0,0,36.87,8.62Z" fill="#2c5967"/><path d="M13.4,24.62H8.46a2.63,2.63,0,0,0-2.62,2.62v4.05H7.56V27.24a.9.9,0,0,1,.9-.9h4.75v-.47A4.35,4.35,0,0,1,13.4,24.62Z" fill="#2c5967"/><path d="M27.78,25.87a3,3,0,0,0-3-3H17.51a3,3,0,0,0-3,3v5.42h1.72V25.87a1.29,1.29,0,0,1,1.29-1.29h7.26a1.29,1.29,0,0,1,1.29,1.29v5.42h1.72Z" fill="#2c5967"/><path d="M21.14,21.4a4.08,4.08,0,1,0-4.08-4.08A4.08,4.08,0,0,0,21.14,21.4Zm0-6.44a2.36,2.36,0,1,1-2.36,2.36A2.36,2.36,0,0,1,21.14,15Z" fill="#2c5967"/><path d="M7.56,19.47a3.23,3.23,0,1,0,3.23-3.23A3.23,3.23,0,0,0,7.56,19.47ZM10.79,18a1.51,1.51,0,1,1-1.51,1.51A1.51,1.51,0,0,1,10.79,18Z" fill="#2c5967"/><path d="M34.72,19.47a3.23,3.23,0,1,0-3.23,3.22A3.23,3.23,0,0,0,34.72,19.47ZM31.49,21a1.51,1.51,0,0,1,0-3,1.51,1.51,0,1,1,0,3Z" fill="#2c5967"/></svg>