<svg id="Layer_1" data-name="Layer 1" xmlns="http://www.w3.org/2000/svg" viewBox="0 0 44.17 40"><title>OCI-Media-Stream</title><metadata><?xpacket begin="﻿" id="W5M0MpCehiHzreSzNTczkc9d"?>
<x:xmpmeta xmlns:x="adobe:ns:meta/" x:xmptk="Adobe XMP Core 6.0-c006 79.164648, 2021/01/12-15:52:29        ">
   <rdf:RDF xmlns:rdf="http://www.w3.org/1999/02/22-rdf-syntax-ns#">
      <rdf:Description rdf:about=""
            xmlns:xmp="http://ns.adobe.com/xap/1.0/"
            xmlns:xmpMM="http://ns.adobe.com/xap/1.0/mm/"
            xmlns:stEvt="http://ns.adobe.com/xap/1.0/sType/ResourceEvent#"
            xmlns:dc="http://purl.org/dc/elements/1.1/"
            xmlns:lr="http://ns.adobe.com/lightroom/1.0/">
         <xmp:MetadataDate>2022-03-11T13:01:46-06:00</xmp:MetadataDate>
         <xmpMM:InstanceID>xmp.iid:de8c6689-2d32-4722-879a-0c5f00e61298</xmpMM:InstanceID>
         <xmpMM:DocumentID>xmp.did:fd19bfab-165d-a142-bf51-e7ff6d842849</xmpMM:DocumentID>
         <xmpMM:OriginalDocumentID>xmp.did:fd19bfab-165d-a142-bf51-e7ff6d842849</xmpMM:OriginalDocumentID>
         <xmpMM:History>
            <rdf:Seq>
               <rdf:li>
                  <rdf:Description>
                     <stEvt:action>saved</stEvt:action>
                     <stEvt:instanceID>xmp.iid:fd19bfab-165d-a142-bf51-e7ff6d842849</stEvt:instanceID>
                     <stEvt:when>2022-03-10T20:02:44-06:00</stEvt:when>
                     <stEvt:softwareAgent>Adobe Bridge 2020 (Windows)</stEvt:softwareAgent>
                     <stEvt:changed>/metadata</stEvt:changed>
                  </rdf:Description>
               </rdf:li>
               <rdf:li>
                  <rdf:Description>
                     <stEvt:action>saved</stEvt:action>
                     <stEvt:instanceID>xmp.iid:de8c6689-2d32-4722-879a-0c5f00e61298</stEvt:instanceID>
                     <stEvt:when>2022-03-11T13:01:46-06:00</stEvt:when>
                     <stEvt:softwareAgent>Adobe Bridge 2021 (Macintosh)</stEvt:softwareAgent>
                     <stEvt:changed>/metadata</stEvt:changed>
                  </rdf:Description>
               </rdf:li>
            </rdf:Seq>
         </xmpMM:History>
         <dc:title>
            <rdf:Alt>
               <rdf:li xml:lang="x-default">OCI-Media-Stream</rdf:li>
            </rdf:Alt>
         </dc:title>
         <dc:subject>
            <rdf:Bag>
               <rdf:li>icon</rdf:li>
               <rdf:li>Media</rdf:li>
               <rdf:li>stream</rdf:li>
               <rdf:li>streaming media</rdf:li>
               <rdf:li>play</rdf:li>
               <rdf:li>technology</rdf:li>
               <rdf:li>video</rdf:li>
               <rdf:li>reproduce</rdf:li>
               <rdf:li>audio</rdf:li>
               <rdf:li>online</rdf:li>
               <rdf:li>multimedia</rdf:li>
               <rdf:li>volume</rdf:li>
            </rdf:Bag>
         </dc:subject>
         <lr:hierarchicalSubject>
            <rdf:Bag>
               <rdf:li>icon</rdf:li>
            </rdf:Bag>
         </lr:hierarchicalSubject>
      </rdf:Description>
   </rdf:RDF>
</x:xmpmeta>
                                                                                                    
                                                                                                    
                                                                                                    
                                                                                                    
                                                                                                    
                                                                                                    
                                                                                                    
                                                                                                    
                                                                                                    
                                                                                                    
                                                                                    
<?xpacket end="w"?></metadata>
<path d="M43.25.92A3.1,3.1,0,0,0,41,0H3.13A3.13,3.13,0,0,0,0,3.13V29.58a3.13,3.13,0,0,0,3.13,3.13h9.13a4.13,4.13,0,0,0-.61.83H5a2.09,2.09,0,0,0,0,4.17h6.62a4.34,4.34,0,0,0,7.65,0H39.38a2.09,2.09,0,0,0,0-4.17H19.24a4.55,4.55,0,0,0-.61-.83H41a3.13,3.13,0,0,0,3.13-3.13V3.13A3.1,3.1,0,0,0,43.25.92Z" fill="#fff"/><path d="M41,31.46H3.13a1.88,1.88,0,0,1-1.88-1.88V3.13A1.88,1.88,0,0,1,3.13,1.25H41a1.9,1.9,0,0,1,1.33.55,1.87,1.87,0,0,1,.55,1.33V29.58A1.88,1.88,0,0,1,41,31.46ZM3.13,2.92a.21.21,0,0,0-.21.21V29.58a.21.21,0,0,0,.21.21H41a.21.21,0,0,0,.21-.21V3.13A.19.19,0,0,0,41.19,3,.21.21,0,0,0,41,2.92Z" fill="#2c5967"/><path d="M39.38,36.46H5a.84.84,0,0,1,0-1.67H39.38a.84.84,0,0,1,0,1.67Z" fill="#2c5967"/><circle cx="15.44" cy="35.65" r="2.26" fill="#fff"/><path d="M15.44,38.75a3.1,3.1,0,1,1,3.1-3.1A3.1,3.1,0,0,1,15.44,38.75Zm0-4.52a1.43,1.43,0,1,0,1.43,1.42A1.43,1.43,0,0,0,15.44,34.23Z" fill="#2c5967"/><path d="M22.1,10.69a5.69,5.69,0,1,0,5.69,5.69A5.7,5.7,0,0,0,22.1,10.69Z" fill="#fff"/><path d="M22.08,22.18a5.8,5.8,0,1,1,5.8-5.8A5.8,5.8,0,0,1,22.08,22.18Zm0-9.93a4.13,4.13,0,1,0,4.13,4.13A4.13,4.13,0,0,0,22.08,12.25Z" fill="#2c5967"/><polygon points="24.38 16.39 20.63 14.26 20.63 18.52 24.38 16.39" fill="#2c5967"/><path d="M30.11,22l-1.37-1a8,8,0,0,0,1.48-4.65,8.05,8.05,0,0,0-1.58-4.8l1.34-1A9.73,9.73,0,0,1,30.11,22Z" fill="#2c5967"/><path d="M34.19,24.85l-1.36-1a13.09,13.09,0,0,0-.14-15.25l1.35-1a14.77,14.77,0,0,1,.15,17.18Z" fill="#2c5967"/><path d="M30.11,22l-1.37-1a8,8,0,0,0,1.48-4.65,8.05,8.05,0,0,0-1.58-4.8l1.34-1A9.73,9.73,0,0,1,30.11,22Z" fill="#2c5967"/><path d="M14.06,22a9.73,9.73,0,0,1,0-11.25l1.36,1a8.09,8.09,0,0,0,0,9.33Z" fill="#2c5967"/><path d="M14.06,22a9.73,9.73,0,0,1,0-11.25l1.36,1a8.09,8.09,0,0,0,0,9.33Z" fill="#2c5967"/><path d="M10,24.86a14.75,14.75,0,0,1,0-17l1.36,1a13.11,13.11,0,0,0,0,15.08Z" fill="#2c5967"/></svg>