<svg id="Layer_1" data-name="Layer 1" xmlns="http://www.w3.org/2000/svg" viewBox="0 0 39.35 42"><metadata><?xpacket begin="﻿" id="W5M0MpCehiHzreSzNTczkc9d"?>
<x:xmpmeta xmlns:x="adobe:ns:meta/" x:xmptk="Adobe XMP Core 6.0-c006 79.164648, 2021/01/12-15:52:29        ">
   <rdf:RDF xmlns:rdf="http://www.w3.org/1999/02/22-rdf-syntax-ns#">
      <rdf:Description rdf:about=""
            xmlns:dc="http://purl.org/dc/elements/1.1/"
            xmlns:xmp="http://ns.adobe.com/xap/1.0/"
            xmlns:xmpMM="http://ns.adobe.com/xap/1.0/mm/"
            xmlns:stEvt="http://ns.adobe.com/xap/1.0/sType/ResourceEvent#">
         <dc:subject>
            <rdf:Bag>
               <rdf:li>icon</rdf:li>
               <rdf:li>flow</rdf:li>
               <rdf:li>process</rdf:li>
               <rdf:li>automatic</rdf:li>
               <rdf:li>decision</rdf:li>
               <rdf:li>tree</rdf:li>
               <rdf:li>end</rdf:li>
               <rdf:li>start</rdf:li>
               <rdf:li>finish</rdf:li>
               <rdf:li>task</rdf:li>
               <rdf:li>user</rdf:li>
            </rdf:Bag>
         </dc:subject>
         <xmp:MetadataDate>2022-11-11T13:00:32-06:00</xmp:MetadataDate>
         <xmpMM:InstanceID>xmp.iid:9c993491-901f-42d7-b4aa-ad5fc75d3ace</xmpMM:InstanceID>
         <xmpMM:DocumentID>xmp.did:9c993491-901f-42d7-b4aa-ad5fc75d3ace</xmpMM:DocumentID>
         <xmpMM:OriginalDocumentID>xmp.did:9c993491-901f-42d7-b4aa-ad5fc75d3ace</xmpMM:OriginalDocumentID>
         <xmpMM:History>
            <rdf:Seq>
               <rdf:li>
                  <rdf:Description>
                     <stEvt:action>saved</stEvt:action>
                     <stEvt:instanceID>xmp.iid:9c993491-901f-42d7-b4aa-ad5fc75d3ace</stEvt:instanceID>
                     <stEvt:when>2022-11-11T13:00:32-06:00</stEvt:when>
                     <stEvt:softwareAgent>Adobe Bridge 2021 (Macintosh)</stEvt:softwareAgent>
                     <stEvt:changed>/metadata</stEvt:changed>
                  </rdf:Description>
               </rdf:li>
            </rdf:Seq>
         </xmpMM:History>
      </rdf:Description>
   </rdf:RDF>
</x:xmpmeta>
                                                                                                    
                                                                                                    
                                                                                                    
                                                                                                    
                                                                                                    
                                                                                                    
                                                                                                    
                                                                                                    
                                                                                                    
                                                                                                    
                                                                                                    
                                                                                                    
                                                                                                    
                                                                                                    
                                                                                                    
                                                                                                    
                                                                                                    
                                                                                                    
                                                                                                    
                                                                                                    
                           
<?xpacket end="w"?></metadata>
<path d="M31.53,41.5a4.47,4.47,0,0,1-4.24-3.11H18.5V35.21L8.65,25.33v1.59H6.41V23.08L4.47,21.13l.34-.36,6.35-6.35L18.5,7.07v-1H12.13A4.44,4.44,0,0,1,7.82,9.4H5A4.45,4.45,0,0,1,5,.5H7.82a4.49,4.49,0,0,1,4.31,3.34h8.61V7l9.74,9.75V15.31h2.24V19l2.13,2.12-14.1,14.1v.92h6.43a5.82,5.82,0,0,1,.26-.81,5.16,5.16,0,0,1,.36-.68l.1-.16a5.37,5.37,0,0,1,.37-.44l.18-.2a2.72,2.72,0,0,1,.42-.34l.22-.17a4.1,4.1,0,0,1,.54-.3l.18-.09a4.44,4.44,0,0,1,1.72-.35H34.4a4.78,4.78,0,0,1,.84.08l.79.15.81-.82,1.6,1.57-.61.62a4.29,4.29,0,0,1,.8,1.49l.06.19a3.24,3.24,0,0,1,.09.4,4.76,4.76,0,0,1,.07.66v.11a.41.41,0,0,1,0,.11,4.31,4.31,0,0,1-1.94,3.57,4.42,4.42,0,0,1-2.5.77Z" fill="#fff"/><path d="M7.82,1a4,4,0,0,1,3.9,3.34h8.52V7.21L31,18V15.81h1.24V19.2l1.92,1.92L20.25,35v1.62H27.6a3.88,3.88,0,0,1,.31-1.12.25.25,0,0,1,0-.07,3.29,3.29,0,0,1,.29-.52l.09-.15a4.12,4.12,0,0,1,.33-.4l.16-.17a3.79,3.79,0,0,1,.37-.31l.2-.15a3.67,3.67,0,0,1,.48-.26l.15-.07a3.92,3.92,0,0,1,1.53-.32H34.4a3.74,3.74,0,0,1,.75.07h0a3.84,3.84,0,0,1,1,.3l.3-.3.46-.47.88.87-.46.48-.13.13a3.85,3.85,0,0,1,1,1.65l.06.17a2.17,2.17,0,0,1,.07.35,3,3,0,0,1,.06.59v0h0v.1h0a3.87,3.87,0,0,1-1.72,3.21A4,4,0,0,1,34.4,41H31.53a4,4,0,0,1-3.86-3.11H19V35L8.15,24.12v2.3H6.91V22.87L5.18,21.13h0l6.34-6.34L19,7.28V5.58H11.72A4,4,0,0,1,7.82,8.9H5A4,4,0,0,1,5,1H7.82m0-1H5A5,5,0,0,0,5,9.9H7.82A4.93,4.93,0,0,0,12.5,6.58H18v.28l-7.19,7.21L4.46,20.42l-.71.7.71.71,1.45,1.45v4.14H9.15v-.88L18,35.42v3.47h8.94A5,5,0,0,0,31.53,42H34.4a5,5,0,0,0,2.79-.86,4.87,4.87,0,0,0,2.16-4v-.27a5,5,0,0,0-.07-.69c0-.14-.06-.29-.09-.43s0-.14-.07-.21a5.2,5.2,0,0,0-.62-1.3l.66-.68-.72-.7L37.55,32l-.72-.7-.7.71-.27.28-.53-.1a4.88,4.88,0,0,0-.93-.09H31.53a5,5,0,0,0-1.92.39l-.17.09a4.27,4.27,0,0,0-.62.34,1.49,1.49,0,0,0-.2.15l-.05,0a4.59,4.59,0,0,0-.46.38l-.17.18,0,0a5.1,5.1,0,0,0-.4.49l-.1.15a5.5,5.5,0,0,0-.38.7v0l0,.06a5.38,5.38,0,0,0-.2.51H21.25v-.21l13.6-13.6.7-.71-.7-.7-1.63-1.63v-4H30v.73L21.24,6.8V3.34H12.5A5,5,0,0,0,7.82,0Z" fill="#fff"/><path d="M6.93,21.12,19.65,8.4,30.18,18.92H27.87v1.24h4.35v-.93h0l0,0v-3.4H31V18L20.24,7.22V4.34H11.72A4,4,0,0,0,7.82,1H5A4,4,0,0,0,5,8.9H7.82a4,4,0,0,0,3.9-3.32H19V7.29L5.17,21.12H6.93ZM7.82,7.66H5A2.71,2.71,0,0,1,5,2.24H7.82a2.71,2.71,0,0,1,0,5.42Z" fill="#2c5967"/><path d="M19.65,21a3.27,3.27,0,1,0-3.26-3.27A3.26,3.26,0,0,0,19.65,21Zm0-5.29a2,2,0,1,1-2,2A2,2,0,0,1,19.65,15.68Z" fill="#2c5967"/><path d="M22.12,22.06H17.19a2.11,2.11,0,0,0-2.12,2.11v2.55h1.24V24.17a.87.87,0,0,1,.88-.87h4.93a.87.87,0,0,1,.88.87v2.55h1.24V24.17A2.11,2.11,0,0,0,22.12,22.06Z" fill="#2c5967"/><path d="M37.75,35l-.91.92a2.68,2.68,0,0,1,.27,1.17,2.72,2.72,0,0,1-2.71,2.71H31.53a2.71,2.71,0,1,1,0-5.42H34l1.18-1.17a3.74,3.74,0,0,0-.75-.07H31.53a4,4,0,0,0-3.93,3.54H20.25V35l13.89-13.9,0,0H32.35l0,0L19.65,33.85,9.12,23.31h2.14V22.07H6.91v4.35H8.15V24.11L19,35v2.93h8.67A4,4,0,0,0,31.53,41H34.4a3.95,3.95,0,0,0,3.35-6Z" fill="#2c5967"/><polygon points="32.96 36.66 31.98 35.68 31.1 36.56 32.97 38.43 37.27 34.06 37.73 33.59 36.85 32.71 36.39 33.18 32.96 36.66" fill="#2c5967"/></svg>