<svg id="Layer_1" data-name="Layer 1" xmlns="http://www.w3.org/2000/svg" viewBox="0 0 40.87 42.15"><metadata><?xpacket begin="﻿" id="W5M0MpCehiHzreSzNTczkc9d"?>
<x:xmpmeta xmlns:x="adobe:ns:meta/" x:xmptk="Adobe XMP Core 6.0-c006 79.164648, 2021/01/12-15:52:29        ">
   <rdf:RDF xmlns:rdf="http://www.w3.org/1999/02/22-rdf-syntax-ns#">
      <rdf:Description rdf:about=""
            xmlns:dc="http://purl.org/dc/elements/1.1/"
            xmlns:xmp="http://ns.adobe.com/xap/1.0/"
            xmlns:xmpMM="http://ns.adobe.com/xap/1.0/mm/"
            xmlns:stEvt="http://ns.adobe.com/xap/1.0/sType/ResourceEvent#">
         <dc:subject>
            <rdf:Bag>
               <rdf:li>icon</rdf:li>
               <rdf:li>gear</rdf:li>
               <rdf:li>architecture</rdf:li>
               <rdf:li>service</rdf:li>
               <rdf:li>oriented</rdf:li>
               <rdf:li>node</rdf:li>
               <rdf:li>service</rdf:li>
            </rdf:Bag>
         </dc:subject>
         <xmp:MetadataDate>2022-11-11T13:05:25-06:00</xmp:MetadataDate>
         <xmpMM:InstanceID>xmp.iid:ce32f4de-adbb-4169-bf69-ba96476b1230</xmpMM:InstanceID>
         <xmpMM:DocumentID>xmp.did:ce32f4de-adbb-4169-bf69-ba96476b1230</xmpMM:DocumentID>
         <xmpMM:OriginalDocumentID>xmp.did:ce32f4de-adbb-4169-bf69-ba96476b1230</xmpMM:OriginalDocumentID>
         <xmpMM:History>
            <rdf:Seq>
               <rdf:li>
                  <rdf:Description>
                     <stEvt:action>saved</stEvt:action>
                     <stEvt:instanceID>xmp.iid:ce32f4de-adbb-4169-bf69-ba96476b1230</stEvt:instanceID>
                     <stEvt:when>2022-11-11T13:05:25-06:00</stEvt:when>
                     <stEvt:softwareAgent>Adobe Bridge 2021 (Macintosh)</stEvt:softwareAgent>
                     <stEvt:changed>/metadata</stEvt:changed>
                  </rdf:Description>
               </rdf:li>
            </rdf:Seq>
         </xmpMM:History>
      </rdf:Description>
   </rdf:RDF>
</x:xmpmeta>
                                                                                                    
                                                                                                    
                                                                                                    
                                                                                                    
                                                                                                    
                                                                                                    
                                                                                                    
                                                                                                    
                                                                                                    
                                                                                                    
                                                                                                    
                                                                                                    
                                                                                                    
                                                                                                    
                                                                                                    
                                                                                                    
                                                                                                    
                                                                                                    
                                                                                                    
                                                                                                    
                           
<?xpacket end="w"?></metadata>
<path d="M16.05,39V33.85l3.13-1.8v-1H12.67v1l3.13,1.8V39l-4.46,2.58L6.88,39V33.85L10,32.05v-1H7.38a1.33,1.33,0,0,1-.5-2.57V21.76l3.33-.37a.54.54,0,0,1,0-.11l-.32-.4H.54l.1-1.43a9.62,9.62,0,0,1,5.15-7.84A2.34,2.34,0,0,0,7,10a7.4,7.4,0,0,1,7.24-6,5.32,5.32,0,0,1,.69,0h.23a2.2,2.2,0,0,0,1.62-.7A9,9,0,0,1,31.51,5.51a2.37,2.37,0,0,0,1.62,1.25A9.37,9.37,0,0,1,36.06,8a9.27,9.27,0,0,1,3.21,12.21l-.38.7H31.08l-.32.4a1.17,1.17,0,0,1,0,.11l3.33.37v6.76A1.34,1.34,0,0,1,35,29.76a1.31,1.31,0,0,1-.16.63,1.34,1.34,0,0,1-.51.52,1.28,1.28,0,0,1-.66.18H31v1l3.13,1.8V39l-4.46,2.58L25.22,39V33.85l3.12-1.8v-1h-6.5v1L25,33.85V39l-4.46,2.58Z" fill="#fff"/><path d="M23.41,1a8.5,8.5,0,0,1,7.65,4.73,2.86,2.86,0,0,0,2,1.52,8.75,8.75,0,0,1,5.81,12.69l-.24.44H30.84l-.66.82c.1.22.19.43.27.65l3.19.36v6.71a.84.84,0,0,1,.83.84.87.87,0,0,1-.1.39.78.78,0,0,1-.32.33.81.81,0,0,1-.41.11H30.51v1.75l3.13,1.8v4.57l-.37.22L29.68,41l-3.59-2.07-.37-.22V34.14l3.12-1.8V30.59h-7.5v1.75l3.13,1.8v4.57L22.29,40l-1.78,1-1.79-1-2.17-1.26V34.14l3.13-1.8V30.59H12.17v1.75l3.13,1.8v4.57l-.37.22L11.34,41,7.75,38.93l-.37-.22V34.14l3.13-1.8V30.59H7.38a.83.83,0,0,1-.83-.83.84.84,0,0,1,.83-.84V22.21l3.18-.36c.09-.22.18-.43.28-.65l-.66-.82H1.08l.06-.89A9.11,9.11,0,0,1,6,12.05a2.83,2.83,0,0,0,1.47-2,6.87,6.87,0,0,1,6.75-5.56l.64,0,.28,0a2.68,2.68,0,0,0,2-.86A8.6,8.6,0,0,1,23.41,1m0-1a9.57,9.57,0,0,0-7,3.05,1.68,1.68,0,0,1-1.25.54H15a6,6,0,0,0-.73,0A7.89,7.89,0,0,0,6.52,9.9a1.87,1.87,0,0,1-1,1.27A10.08,10.08,0,0,0,.15,19.41l-.07.9L0,21.38H6.38v6.84a1.83,1.83,0,0,0,1,3.37H9.51v.17L6.88,33.28l-.5.28v5.73l.5.29.37.21,3.59,2.08.5.28.5-.28,3.59-2.08.37-.21.12-.07.13.07,2.17,1.26,1.79,1,.5.28.5-.28,1.78-1L25,39.58l.12-.07.13.07.37.21,3.59,2.08.5.28.5-.28,3.59-2.08.37-.21.5-.29V33.56l-.5-.28-2.63-1.52v-.17h2.13a1.87,1.87,0,0,0,.92-.25,1.84,1.84,0,0,0,.69-.72,1.75,1.75,0,0,0,.22-.86,1.85,1.85,0,0,0-.83-1.54V21.38h4.55l.28-.52.24-.44A9.77,9.77,0,0,0,36.32,7.54a9.61,9.61,0,0,0-3.09-1.27,1.87,1.87,0,0,1-1.28-1A9.48,9.48,0,0,0,23.41,0ZM22.34,31.59h5.5v.17l-2.62,1.52-.13.07L25,33.28l-2.63-1.52v-.17Zm-9.17,0h5.51v.17l-2.63,1.52-.13.07-.12-.07-2.63-1.52v-.17Z" fill="#fff"/><path d="M35.79,8.39A8.82,8.82,0,0,0,33,7.25a2.86,2.86,0,0,1-2-1.52A8.5,8.5,0,0,0,23.41,1a8.6,8.6,0,0,0-6.26,2.73,2.67,2.67,0,0,1-2.26.84A6.87,6.87,0,0,0,7.5,10.1a2.83,2.83,0,0,1-1.47,2,9.11,9.11,0,0,0-4.89,7.44l-.06.89h7.5L7.24,18.71H2.93A7.44,7.44,0,0,1,6.8,13.53a4.48,4.48,0,0,0,2.33-3.11,5.22,5.22,0,0,1,5.6-4.19,4.34,4.34,0,0,0,3.64-1.36,6.88,6.88,0,0,1,11.2,1.6,4.53,4.53,0,0,0,3.09,2.41,6.85,6.85,0,0,1,2.24.92,7.11,7.11,0,0,1,2.68,8.91H33.77l-1.33,1.67h6.15l.24-.44A8.76,8.76,0,0,0,35.79,8.39Z" fill="#2c5967"/><path d="M7.38,22.21v5.05h8.54V25.8h0a4.58,4.58,0,0,1,9.16,0h0v1.46h8.55V22.21l-3.19-.36c-.08-.22-.17-.43-.27-.65l2-2.5L27.4,13.92l-2.5,2c-.22-.1-.43-.19-.65-.27l-.36-3.19H17.13l-.36,3.19c-.22.08-.44.17-.65.27l-2.5-2L8.83,18.7l2,2.5c-.1.22-.19.43-.28.65Zm3.69-3.39,2.67-2.67,2.17,1.74.48-.25a7.89,7.89,0,0,1,1.41-.58l.51-.17.31-2.76H22.4l.31,2.76.51.17a7.79,7.79,0,0,1,1.4.58l.49.25,2.17-1.74L30,18.82,28.21,21l.25.48A8.2,8.2,0,0,1,29,22.88l.17.51L32,23.7v1.89H26.75a6.25,6.25,0,0,0-12.48,0H9.05V23.7l2.76-.31.16-.51a9.14,9.14,0,0,1,.59-1.41L12.8,21Z" fill="#2c5967"/><path d="M33.64,28.92H21.34V26a.71.71,0,0,0,0-.21.82.82,0,0,0-1.6,0,.71.71,0,0,0,0,.21v2.91H7.38a.84.84,0,0,0-.83.84.83.83,0,0,0,.83.83h3.13v1.75l-3.13,1.8v4.57l.37.22L11.34,41l3.59-2.07.37-.22V34.14l-3.13-1.8V30.59h7.51v1.75l-3.13,1.8v4.57L18.72,40l1.79,1,1.78-1,2.18-1.26V34.14l-3.13-1.8V30.59h7.5v1.75l-3.12,1.8v4.57l.37.22L29.68,41l3.59-2.07.37-.22V34.14l-3.13-1.8V30.59h3.13a.81.81,0,0,0,.41-.11.78.78,0,0,0,.32-.33.87.87,0,0,0,.1-.39A.84.84,0,0,0,33.64,28.92Zm-20,6.18v2.65l-2,1.18-.26.15-.26-.15-2-1.18V35.1l2.29-1.32Zm9.17,0v2.65l-2.29,1.33-2.29-1.33V35.1l2.29-1.32Zm9.17,0v2.65l-2,1.18-.25.15-.26-.15-2-1.18V35.1l2.29-1.32Z" fill="#2c5967"/></svg>