<?xml version="1.0" encoding="UTF-8" standalone="no"?>
<!-- Generated by Microsoft Visio, SVG Export Healthcare.svg Page-1 -->

<svg
   width="0.63591027in"
   height="0.54042995in"
   viewBox="0 0 45.78552 38.911016"
   xml:space="preserve"
   color-interpolation-filters="sRGB"
   class="st2"
   version="1.1"
   id="svg5"
   sodipodi:docname="Healthcare.svg"
   inkscape:version="1.3.2 (091e20e, 2023-11-25, custom)"
   xmlns:inkscape="http://www.inkscape.org/namespaces/inkscape"
   xmlns:sodipodi="http://sodipodi.sourceforge.net/DTD/sodipodi-0.dtd"
   xmlns="http://www.w3.org/2000/svg"
   xmlns:svg="http://www.w3.org/2000/svg"><defs
   id="defs5">
		
		
		
		
		
	
			
			
		
			
			
		
			
			
		
			
			
		</defs><sodipodi:namedview
   id="namedview5"
   pagecolor="#ffffff"
   bordercolor="#666666"
   borderopacity="1.0"
   inkscape:showpageshadow="2"
   inkscape:pageopacity="0.0"
   inkscape:pagecheckerboard="0"
   inkscape:deskcolor="#d1d1d1"
   inkscape:document-units="in"
   inkscape:zoom="16.077709"
   inkscape:cx="30.508077"
   inkscape:cy="25.96763"
   inkscape:window-width="1920"
   inkscape:window-height="1009"
   inkscape:window-x="1072"
   inkscape:window-y="425"
   inkscape:window-maximized="1"
   inkscape:current-layer="svg5" />
	<style
   type="text/css"
   id="style1">
	<![CDATA[
		.st1 {fill:#2d5967;stroke:none;stroke-linecap:round;stroke-linejoin:round;stroke-width:0.75}
		.st2 {fill:none;fill-rule:evenodd;font-size:12px;overflow:visible;stroke-linecap:square;stroke-miterlimit:3}
	]]>
	</style>

	<path
   id="path5-6"
   style="fill:#fcfbfa;stroke:none;stroke-width:0.75;stroke-linecap:round;stroke-linejoin:round;stroke-opacity:1"
   class="st1"
   d="M 11.752607,0.01284303 C 6.4885368,0.16293183 1.6290801,4.1117999 0.39107496,9.2272867 -0.75935824,13.528253 0.68359215,18.366448 3.9898412,21.346793 L 21.215498,38.534327 c 0.591126,0.152552 1.200968,0.655503 1.758057,0.170773 0.880169,-0.462698 1.448103,-1.366995 2.200834,-2.00993 1.740914,-1.728078 3.481843,-3.497866 5.222749,-5.199905 1.201792,1.250699 2.76262,2.114892 4.465822,2.449597 2.749986,0.751362 5.780069,-0.158631 7.893553,-2.000379 1.3966,-1.252491 2.425442,-2.911741 2.768501,-4.768893 0.655396,-2.409363 0.03079,-5.059397 -1.385133,-7.073942 -0.35115,-0.510043 -0.771927,-0.990761 -1.219305,-1.407165 C 45.933045,13.966051 45.085777,7.1789341 40.921204,3.4009353 37.500129,0.13718403 32.174834,-0.92414267 27.785635,0.85986089 25.604531,1.6581384 23.937934,3.3204011 22.361982,4.9581554 20.702284,3.3221189 18.965673,1.6526576 16.721728,0.83988826 15.149687,0.21302293 13.442107,-0.06075797 11.752607,0.01284303 Z"
   sodipodi:nodetypes="ccccccccccccccccc" /><path
   id="path5"
   class="st1"
   d="m 35.87576,26.109634 -1.27,-1.4 -1.18,1.19 2.45,2.58 4.57,-4.63 -1.17,-1.19 z m 7.9931,-3.21871 c 0,-0.11 -0.11,-0.21 -0.11,-0.32 -0.11,-0.43 -0.32,-0.75 -0.54,-1.17 -0.11,-0.11 -0.11,-0.21 -0.21,-0.32 l -0.11,-0.11 c -0.11,-0.11 -0.11,-0.21 -0.21,-0.32 -0.33,-0.43 -0.75,-0.85 -1.28,-1.28 -0.11,-0.11 -0.22,-0.11 -0.32,-0.22 l -0.11,-0.1 c -0.11,-0.1 -0.22,-0.1 -0.32,-0.21 -0.33,-0.22 -0.75,-0.43 -1.18,-0.54 -0.1,0 -0.22,-0.11 -0.32,-0.11 -0.75,-0.21 -1.49,-0.43 -2.35,-0.43 -0.86,0 -1.6,0.11 -2.35,0.43 -0.11,0 -0.22,0.11 -0.32,0.11 -0.43,0.11 -0.75,0.32 -1.18,0.54 -0.1,0.11 -0.21,0.11 -0.32,0.21 l -0.11,0.1 c -0.11,0.11 -0.21,0.11 -0.32,0.22 -0.43,0.32 -0.85,0.75 -1.28,1.28 -0.1,0.11 -0.1,0.21 -0.21,0.32 l -0.12,0.11 c -0.1,0.11 -0.1,0.21 -0.2,0.32 -0.22,0.31 -0.43,0.74 -0.54,1.17 0,0.11 -0.11,0.21 -0.11,0.32 -0.21,0.75 -0.43,1.49 -0.43,2.35 0,0.85 0.12,1.6 0.43,2.35 0,0.11 0.11,0.21 0.11,0.31 0.11,0.43 0.32,0.76 0.54,1.18 0.1,0.11 0.1,0.21 0.2,0.32 l 0.12,0.11 c 0.11,0.11 0.11,0.21 0.21,0.32 0.32,0.42 0.75,0.85 1.28,1.28 0.11,0.11 0.21,0.11 0.32,0.22 l 0.11,0.1 c 0.11,0.1 0.22,0.1 0.32,0.21 0.33,0.21 0.75,0.43 1.18,0.54 0.1,0 0.21,0.1 0.32,0.1 0.75,0.22 1.49,0.43 2.35,0.43 0.86,0 1.6,-0.1 2.35,-0.43 0.1,0 0.22,-0.1 0.32,-0.1 0.43,-0.11 0.75,-0.33 1.18,-0.54 0.1,-0.11 0.21,-0.11 0.32,-0.21 l 0.11,-0.1 c 0.1,-0.11 0.21,-0.11 0.32,-0.22 0.43,-0.32 0.85,-0.75 1.28,-1.28 0.1,-0.11 0.1,-0.21 0.21,-0.32 l 0.11,-0.11 c 0.1,-0.11 0.1,-0.21 0.21,-0.32 0.22,-0.32 0.43,-0.75 0.54,-1.18 0,-0.1 0.11,-0.2 0.11,-0.31 0.2,-0.75 0.42,-1.5 0.42,-2.35 0,-0.86 -0.11,-1.6 -0.42,-2.35 z m -6.95,8.11 c -3.1,0 -5.67,-2.56 -5.67,-5.66 0,-3.09 2.57,-5.65 5.67,-5.65 3.1,0 5.66,2.56 5.66,5.65 0,3.1 -2.56,5.66 -5.66,5.66 z m -11.64153,-19.4492 -3.1,11.47 -2.25,-8.04 h -1.81 l -1.39,4.07 H 7.8573305 l 1.71,1.71 H 17.79733 l 0.96,-2.89 2.35,8.36 h 1.71 l 3.31,-11.36 1.5,5.79 h 2.03 c 0.43,-0.64 0.85,-1.18 1.38,-1.71 h -2.12 l -1.93,-7.4 z m -3.00277,23.5694 -16.3599995,-16.43 c -3.53,-3.53 -3.53,-9.2899998 0,-12.8099998 1.71,-1.71 3.95,-2.67 6.4099995,-2.67 2.46,0 4.71,0.96 6.42,2.67 l 3.64,3.63 3.63,-3.63 c 1.71,-1.71 3.96,-2.67 6.42,-2.67 2.46,0 4.7,0.96 6.41,2.67 3.11,3.09 3.53,7.7899998 1.29,11.3099998 0.54,0.22 1.07,0.43 1.49,0.75 1.07,-1.7 1.6,-3.63 1.6,-5.66 0,-2.7699998 -1.06,-5.5499998 -3.09,-7.5699998 -2.25,-2.14 -4.92,-3.21 -7.81,-3.21 -2.88,0 -5.56,1.07 -7.59,3.21 l -2.35,2.34 -2.46,-2.34 c -2.03,-2.03 -4.71,-3.21 -7.6,-3.21 -2.8899995,0 -5.5499995,1.07 -7.6999995,3.21 -4.16000004,4.16 -4.16000004,10.9899998 0,15.1499998 l 17.6499995,17.61 7.38,-7.37 c -0.33,-0.53 -0.64,-0.96 -0.86,-1.59 z" />
</svg>
