<svg width="25" height="25" viewBox="0 0 25 25" fill="none" xmlns="http://www.w3.org/2000/svg">
<path d="M2.27054 3.14453C2.07523 3.22754 1.83109 3.47656 1.69437 3.73047L1.58695 3.93066L1.5723 11.6943C1.55765 20.4834 1.52836 19.7949 1.94828 20.2148C2.09476 20.3613 2.2559 20.4736 2.37308 20.5029C2.64652 20.5811 12.4952 20.5762 12.7491 20.5029C13.0225 20.4199 13.2569 20.2002 13.4131 19.8828C13.545 19.6143 13.5498 19.5703 13.5645 18.7695L13.584 17.9346L14.0528 17.8564C14.7705 17.7393 15.3272 17.5342 16.0254 17.1289L16.3037 16.9678L16.8702 17.5293C17.1778 17.8369 17.4317 18.1104 17.4317 18.1348C17.4317 18.1592 17.3828 18.2324 17.3291 18.291C17.1924 18.4375 17.1534 18.7842 17.251 18.9746C17.295 19.0527 17.959 19.7461 18.7354 20.5176L20.1465 21.9238H20.376C20.5078 21.9238 20.669 21.8945 20.7422 21.8555C20.8155 21.8164 21.2256 21.4258 21.6602 20.9863C22.3096 20.332 22.4512 20.1611 22.4707 20.0195C22.5244 19.6484 22.4756 19.5801 21.0743 18.1738C20.3467 17.4414 19.6778 16.7969 19.5899 16.7383C19.375 16.6064 18.9942 16.6357 18.8184 16.8018L18.6963 16.9141L18.1104 16.3281L17.5196 15.7373L17.7686 15.3076C17.9004 15.0732 18.0616 14.7412 18.125 14.5703L18.2373 14.2578H19.2969H20.3565L20.4737 14.5215C20.752 15.1221 21.2403 15.4492 21.875 15.4492C22.7588 15.4541 23.4131 14.7998 23.4131 13.916C23.4082 12.3486 21.333 11.7969 20.5567 13.1543C20.4737 13.291 20.4102 13.4424 20.4102 13.4863C20.4102 13.5693 20.3321 13.5742 19.419 13.5742H18.4229L18.4473 12.915C18.4815 11.9336 18.3252 11.1572 17.9395 10.3906C17.8467 10.21 17.7735 10.0488 17.7735 10.0342C17.7735 10 18.9453 10.0049 19.7412 10.0439C20.2637 10.0684 20.4102 10.0879 20.4102 10.1416C20.4102 10.3516 20.7618 10.835 21.0547 11.0156C21.8457 11.5186 22.8809 11.2109 23.2862 10.3516C23.3887 10.1367 23.4131 10.0098 23.4131 9.7168C23.4082 8.38379 21.8848 7.7002 20.8594 8.56934C20.6836 8.71582 20.4102 9.15527 20.4102 9.28711C20.4102 9.37012 20.3028 9.375 18.8721 9.375H17.334L16.9532 8.99414C16.7432 8.78418 16.4014 8.49609 16.1866 8.35449C15.9717 8.21289 15.7959 8.07617 15.7959 8.05664C15.7959 8.03223 16.2744 7.5293 16.8653 6.93848L17.9297 5.85938H19.17C20.3174 5.85938 20.4102 5.86426 20.4102 5.94238C20.4102 6.0791 20.6836 6.51855 20.8594 6.66504C21.4893 7.20215 22.4024 7.17773 22.9688 6.61133C23.5694 6.01074 23.5694 5.03418 22.9737 4.42383C22.7588 4.2041 22.3877 4.02344 22.0655 3.97949C21.7578 3.93555 21.2842 4.0625 21.001 4.2627C20.7569 4.43848 20.4688 4.82422 20.4248 5.03906L20.4004 5.17578H19.0235H17.6514L16.3819 6.47461L15.1123 7.77344L14.6778 7.64648C14.4385 7.57812 14.0918 7.50488 13.9112 7.49023L13.5743 7.45605V6.92383V6.3916L13.3448 6.1377C13.0225 5.79102 10.8741 3.54004 10.6153 3.28125L10.4053 3.07617H6.41117C3.21293 3.08105 2.38773 3.09082 2.27054 3.14453ZM9.91215 5.08789C9.91215 5.84961 9.92679 6.51855 9.94144 6.58203C10.0049 6.81152 10.1465 6.83594 11.5723 6.83594H12.8907V7.14844V7.45605L12.5635 7.48535C12.1436 7.51953 11.4551 7.71973 10.9912 7.93945C8.38871 9.16016 7.25101 12.2949 8.47172 14.8779C8.7598 15.4932 8.98929 15.8203 9.46293 16.3184C10.3077 17.1973 11.4014 17.7441 12.6123 17.8955L12.8907 17.9297V18.6816C12.8907 19.458 12.8662 19.6045 12.6953 19.7754C12.5977 19.873 12.5635 19.873 7.58793 19.873C4.24808 19.873 2.54886 19.8584 2.48539 19.8242C2.23636 19.6875 2.24613 20.0928 2.24613 11.7627V4.04297L2.41215 3.87695L2.57816 3.71094H6.24515H9.91215V5.08789ZM11.543 5.2002L12.461 6.15234H11.5284H10.5957V5.2002C10.5957 4.67773 10.6006 4.24805 10.6104 4.24805C10.6202 4.24805 11.0401 4.67773 11.543 5.2002ZM22.2022 4.69238C22.2754 4.7168 22.4024 4.7998 22.4805 4.87305C23.0567 5.41504 22.6709 6.40137 21.8848 6.39648C21.6016 6.3916 21.3135 6.23535 21.1573 6.00098C20.8692 5.56641 21.0352 4.94629 21.4991 4.73145C21.7286 4.62891 21.9971 4.61426 22.2022 4.69238ZM14.4678 8.27148C16.2891 8.81348 17.5489 10.293 17.7784 12.168C17.9053 13.2178 17.6075 14.4189 16.9971 15.3027C16.3916 16.1768 15.3516 16.8848 14.2774 17.1436C13.667 17.29 12.7881 17.2949 12.1875 17.1484C10.1856 16.6553 8.77933 14.9854 8.65726 12.959C8.52054 10.6494 10.0977 8.61816 12.378 8.17383C12.9248 8.06641 13.9356 8.11523 14.4678 8.27148ZM22.2022 8.8916C22.5342 9.01367 22.7539 9.35547 22.7539 9.74121C22.7539 10.3809 22.1045 10.7764 21.4991 10.5029C21.0401 10.293 20.8692 9.66797 21.1524 9.24316C21.3721 8.91113 21.8409 8.75488 22.2022 8.8916ZM22.2412 13.1299C22.5928 13.291 22.7539 13.5498 22.7539 13.9453C22.7539 14.5801 22.0606 14.9902 21.4893 14.6973C20.8496 14.375 20.8496 13.457 21.4942 13.1396C21.753 13.0127 21.9825 13.0078 22.2412 13.1299ZM17.6758 16.8213L18.2325 17.3828L18.0909 17.5293L17.9493 17.6758L17.3731 17.1045L16.7969 16.5332L16.9287 16.3965C17.002 16.3232 17.0703 16.2598 17.0899 16.2598C17.1045 16.2598 17.3682 16.5137 17.6758 16.8213ZM20.5469 18.6182L21.8262 19.8975L21.128 20.5957L20.4346 21.2891L19.1407 19.9951L17.8467 18.7012L18.5303 18.0176C18.9063 17.6416 19.2237 17.334 19.2383 17.334C19.253 17.334 19.8389 17.9102 20.5469 18.6182Z" fill="#378AD8"/>
<path d="M3.80848 7.27527C3.68153 7.40222 3.68153 7.62683 3.81336 7.74402C3.91102 7.83191 4.03797 7.83679 6.39149 7.85144C7.74891 7.85632 8.91102 7.85144 8.96961 7.83679C9.13563 7.79773 9.2284 7.67566 9.2284 7.495C9.2284 7.16785 9.30653 7.17761 6.45985 7.17761C3.96961 7.17761 3.90125 7.1825 3.80848 7.27527Z" fill="#378AD8"/>
<path d="M3.80856 9.76562C3.68649 9.8877 3.6816 10.1172 3.79879 10.2197C3.8818 10.293 4.07223 10.3027 5.53219 10.3027C7.17281 10.3027 7.17281 10.3027 7.24606 10.1953C7.35348 10.0439 7.34371 9.88281 7.22652 9.76562C7.13375 9.67285 7.06539 9.66797 5.51754 9.66797C3.96969 9.66797 3.90133 9.67285 3.80856 9.76562Z" fill="#378AD8"/>
<path d="M3.80856 12.2559C3.68649 12.3779 3.6816 12.6074 3.79879 12.71C3.87692 12.7832 4.05758 12.793 5.33688 12.793C6.55758 12.793 6.79195 12.7832 6.85543 12.7197C6.98238 12.5879 6.99703 12.4463 6.89449 12.3096L6.80172 12.1826L5.35641 12.168C3.95992 12.1582 3.90621 12.1582 3.80856 12.2559Z" fill="#378AD8"/>
<path d="M3.78906 14.7559C3.74512 14.8145 3.71094 14.9121 3.71094 14.9658C3.71094 15.0195 3.74512 15.1172 3.78906 15.1758C3.8623 15.2832 3.8623 15.2832 5.4834 15.2832C6.37695 15.2832 7.12891 15.2637 7.1582 15.2441C7.25586 15.1807 7.3291 14.9902 7.2998 14.8926C7.22168 14.6484 7.23145 14.6484 5.49316 14.6484C3.8623 14.6484 3.8623 14.6484 3.78906 14.7559Z" fill="#378AD8"/>
<path d="M3.79382 17.2266C3.68152 17.3486 3.69128 17.5586 3.80847 17.6758C3.90124 17.7686 3.9696 17.7734 6.48425 17.7734C8.92566 17.7734 9.07214 17.7686 9.14538 17.6855C9.25281 17.5635 9.24792 17.3193 9.1405 17.2217C9.05749 17.1484 8.80359 17.1387 6.45984 17.1387C4.01355 17.1387 3.86706 17.1436 3.79382 17.2266Z" fill="#378AD8"/>
<path d="M12.5244 8.64746C11.7041 8.79883 11.0254 9.15039 10.4053 9.73633C9.85352 10.2637 9.52148 10.8105 9.29687 11.5576C9.18457 11.9287 9.16504 12.0752 9.16016 12.6465C9.16016 13.4424 9.2334 13.7793 9.57031 14.4775C10.2588 15.8984 11.6455 16.7578 13.2373 16.7578C14.6436 16.7529 15.8887 16.084 16.6504 14.9121C17.1094 14.2139 17.3047 13.5205 17.2998 12.6465C17.2803 10.3662 15.4443 8.56934 13.1592 8.59863C12.9443 8.60352 12.6611 8.62305 12.5244 8.64746ZM14.0381 9.35059C14.1992 9.38965 14.5361 9.52637 14.7852 9.64844C15.8496 10.1709 16.5625 11.2598 16.6357 12.4805C16.6992 13.5205 16.333 14.4385 15.5566 15.1758C14.707 15.9814 13.4668 16.2939 12.334 15.9912C11.1377 15.6738 10.1709 14.668 9.88281 13.4424C9.76562 12.9346 9.80957 12.1045 9.98047 11.5967C10.3613 10.4932 11.2305 9.67773 12.3535 9.37012C12.7637 9.25781 13.6377 9.24805 14.0381 9.35059Z" fill="#378AD8"/>
<path d="M15.1027 11.0255C15.0539 11.0694 14.4581 11.7433 13.7746 12.5148C13.091 13.2862 12.5197 13.9161 12.5001 13.9161C12.4806 13.9161 12.2072 13.6085 11.8947 13.2374C11.5773 12.8614 11.2843 12.5441 11.2453 12.5294C11.1085 12.4757 10.9865 12.5001 10.8888 12.5978C10.6886 12.798 10.7472 12.9103 11.5285 13.8282C11.9289 14.3067 12.3048 14.7218 12.3634 14.7511C12.4171 14.7804 12.5099 14.7901 12.5734 14.7755C12.6417 14.756 13.2716 14.087 14.1554 13.086C15.3761 11.7042 15.6251 11.3966 15.6251 11.2794C15.6251 10.9962 15.2882 10.8302 15.1027 11.0255Z" fill="#378AD8"/>
</svg>
