<svg width="25" height="24" viewBox="0 0 25 24" fill="none" xmlns="http://www.w3.org/2000/svg">
<circle cx="12.1406" cy="12" r="11.5" stroke="#CC0000"/>
<g clip-path="url(#clip0_17944_193254)">
<path d="M17.264 14.594C17.6245 15.2189 17.172 16 16.452 16H7.07919C6.35776 16 5.90733 15.2177 6.26713 14.594L10.9536 6.46846C11.3143 5.84328 12.2176 5.84441 12.5777 6.46846L17.264 14.594ZM11.7656 12.9141C11.2694 12.9141 10.8672 13.3163 10.8672 13.8125C10.8672 14.3087 11.2694 14.7109 11.7656 14.7109C12.2618 14.7109 12.6641 14.3087 12.6641 13.8125C12.6641 13.3163 12.2618 12.9141 11.7656 12.9141ZM10.9126 9.68465L11.0575 12.3409C11.0643 12.4652 11.1671 12.5625 11.2915 12.5625H12.2397C12.3642 12.5625 12.467 12.4652 12.4737 12.3409L12.6186 9.68465C12.6259 9.55039 12.519 9.4375 12.3846 9.4375H11.1466C11.0122 9.4375 10.9053 9.55039 10.9126 9.68465Z" fill="#CC0000"/>
</g>
<defs>
<clipPath id="clip0_17944_193254">
<rect width="11.4286" height="10" fill="white" transform="translate(6.14062 6)"/>
</clipPath>
</defs>
</svg>
