<svg width="27" height="27" viewBox="0 0 27 27" fill="none" xmlns="http://www.w3.org/2000/svg">
<circle cx="13.5" cy="13.5" r="13" stroke="#378AD8"/>
<g clip-path="url(#clip0_17974_49967)">
<path d="M18.2422 11.6299H9.13281C8.99102 11.6299 8.875 11.5139 8.875 11.3721V10.5986C8.875 10.0293 9.33691 9.56738 9.90625 9.56738H10.9375V8.4502C10.9375 8.3084 11.0535 8.19238 11.1953 8.19238H12.0547C12.1965 8.19238 12.3125 8.3084 12.3125 8.4502V9.56738H15.0625V8.4502C15.0625 8.3084 15.1785 8.19238 15.3203 8.19238H16.1797C16.3215 8.19238 16.4375 8.3084 16.4375 8.4502V9.56738H17.4688C18.0381 9.56738 18.5 10.0293 18.5 10.5986V11.3721C18.5 11.5139 18.384 11.6299 18.2422 11.6299ZM9.13281 12.3174H18.2422C18.384 12.3174 18.5 12.4334 18.5 12.5752V18.1611C18.5 18.7305 18.0381 19.1924 17.4688 19.1924H9.90625C9.33691 19.1924 8.875 18.7305 8.875 18.1611V12.5752C8.875 12.4334 8.99102 12.3174 9.13281 12.3174ZM14.6607 15.7549L15.6941 14.7215C15.7951 14.6205 15.7951 14.4572 15.6941 14.3562L15.0861 13.7482C14.9852 13.6473 14.8219 13.6473 14.7209 13.7482L13.6875 14.7816L12.6541 13.7482C12.5531 13.6473 12.3898 13.6473 12.2889 13.7482L11.6809 14.3562C11.5799 14.4572 11.5799 14.6205 11.6809 14.7215L12.7143 15.7549L11.6809 16.7883C11.5799 16.8893 11.5799 17.0525 11.6809 17.1535L12.2889 17.7615C12.3898 17.8625 12.5531 17.8625 12.6541 17.7615L13.6875 16.7281L14.7209 17.7615C14.8219 17.8625 14.9852 17.8625 15.0861 17.7615L15.6941 17.1535C15.7951 17.0525 15.7951 16.8893 15.6941 16.7883L14.6607 15.7549Z" fill="#378AD8"/>
</g>
<defs>
<clipPath id="clip0_17974_49967">
<rect width="11" height="11" fill="white" transform="translate(8.1875 8.19238)"/>
</clipPath>
</defs>
</svg>
