<svg width="27" height="27" viewBox="0 0 27 27" fill="none" xmlns="http://www.w3.org/2000/svg">
<circle cx="13.5" cy="13.5" r="13" stroke="#C8CED3"/>
<g clip-path="url(#clip0_17974_49923)">
<path d="M12.7143 8.625V10.25C12.7143 10.6994 13.0654 11.0625 13.5 11.0625H15.0714C15.506 11.0625 15.8571 10.6994 15.8571 10.25V8.625C15.8571 8.17559 15.506 7.8125 15.0714 7.8125H13.5C13.0654 7.8125 12.7143 8.17559 12.7143 8.625ZM10.0306 12.2559C9.65491 12.4793 9.52723 12.977 9.7433 13.3654L10.529 14.7721C10.7451 15.1605 11.2263 15.2926 11.602 15.0691L12.9623 14.2566C13.3379 14.0332 13.4656 13.5355 13.2496 13.1471L12.4638 11.7404C12.2478 11.352 11.7665 11.2199 11.3908 11.4434L10.0306 12.2559ZM15.0714 11.875C14.6368 11.875 14.2857 12.2381 14.2857 12.6875V14.3125C14.2857 14.7619 14.6368 15.125 15.0714 15.125H16.6429C17.0775 15.125 17.4286 14.7619 17.4286 14.3125V12.6875C17.4286 12.2381 17.0775 11.875 16.6429 11.875H15.0714ZM16.6429 15.9375C16.2083 15.9375 15.8571 16.3006 15.8571 16.75V18.375C15.8571 18.8244 16.2083 19.1875 16.6429 19.1875H18.2143C18.6489 19.1875 19 18.8244 19 18.375V16.75C19 16.3006 18.6489 15.9375 18.2143 15.9375H16.6429ZM11.9286 16.75V18.375C11.9286 18.8244 12.2797 19.1875 12.7143 19.1875H14.2857C14.7203 19.1875 15.0714 18.8244 15.0714 18.375V16.75C15.0714 16.3006 14.7203 15.9375 14.2857 15.9375H12.7143C12.2797 15.9375 11.9286 16.3006 11.9286 16.75ZM8.78571 15.9375C8.35112 15.9375 8 16.3006 8 16.75V18.375C8 18.8244 8.35112 19.1875 8.78571 19.1875H10.3571C10.7917 19.1875 11.1429 18.8244 11.1429 18.375V16.75C11.1429 16.3006 10.7917 15.9375 10.3571 15.9375H8.78571Z" fill="#378AD8"/>
</g>
<defs>
<clipPath id="clip0_17974_49923">
<rect width="11" height="13" fill="white" transform="translate(8 7)"/>
</clipPath>
</defs>
</svg>
