<svg width="27" height="27" viewBox="0 0 27 27" fill="none" xmlns="http://www.w3.org/2000/svg">
<circle cx="13.5" cy="13.5" r="13" stroke="#C8CED3"/>
<g clip-path="url(#clip0_17974_49922)">
<path d="M14.657 16.4617C14.1391 16.6492 13.5813 16.75 13 16.75C12.4187 16.75 11.8586 16.6469 11.343 16.4617L11.3242 16.4547C10.6211 16.1969 9.99297 15.782 9.48203 15.25C8.64062 14.3734 8.125 13.1852 8.125 11.875C8.125 9.18203 10.307 7 13 7C15.693 7 17.875 9.18203 17.875 11.875C17.875 13.1852 17.3594 14.3734 16.518 15.25C16.4945 15.2734 16.4711 15.2992 16.4477 15.3227C15.9461 15.8242 15.3367 16.2156 14.6594 16.4617H14.657ZM13 9.15391C12.7398 9.15391 12.5289 9.36484 12.5289 9.625V9.76562C12.3977 9.79375 12.2734 9.83359 12.1562 9.88516C11.8047 10.0445 11.5023 10.3398 11.4273 10.7688C11.3852 11.0078 11.4086 11.2375 11.507 11.4484C11.6055 11.6547 11.7578 11.8 11.9125 11.9055C12.1844 12.0906 12.543 12.1984 12.8172 12.2805L12.8687 12.2969C13.1945 12.3953 13.4172 12.4703 13.5555 12.5711C13.6141 12.6133 13.6352 12.6461 13.6422 12.6648C13.6492 12.6836 13.6633 12.7258 13.6469 12.8219C13.6328 12.9039 13.5883 12.9719 13.4594 13.0281C13.3164 13.0891 13.0844 13.1195 12.7844 13.0727C12.6438 13.0492 12.393 12.9648 12.1703 12.8875C12.1188 12.8711 12.0695 12.8523 12.0203 12.8383C11.7742 12.7563 11.5094 12.8898 11.4273 13.1359C11.3453 13.382 11.4789 13.6469 11.725 13.7289C11.7531 13.7383 11.7883 13.75 11.8281 13.7641C12.0133 13.8273 12.3039 13.9258 12.5266 13.9773V14.1273C12.5266 14.3875 12.7375 14.5984 12.9977 14.5984C13.2578 14.5984 13.4688 14.3875 13.4688 14.1273V13.9984C13.593 13.975 13.7148 13.9398 13.8297 13.8906C14.1977 13.7336 14.4953 13.4289 14.5703 12.9836C14.6125 12.7398 14.5938 12.5078 14.5 12.2945C14.4086 12.0836 14.2609 11.9289 14.1039 11.8141C13.818 11.6078 13.4406 11.493 13.157 11.4062L13.1383 11.4016C12.8055 11.3008 12.5805 11.2305 12.4375 11.1344C12.3766 11.0922 12.3578 11.0641 12.3531 11.0523C12.3484 11.0453 12.3367 11.0148 12.3508 10.9352C12.3578 10.8906 12.3953 10.8133 12.543 10.7453C12.693 10.6773 12.9273 10.6398 13.2133 10.6844C13.3141 10.7008 13.6328 10.7617 13.7219 10.7852C13.9727 10.8508 14.2281 10.7031 14.2961 10.4523C14.3641 10.2016 14.2141 9.94609 13.9633 9.87813C13.8602 9.85 13.6258 9.80313 13.4711 9.775V9.62734C13.4711 9.36719 13.2602 9.15625 13 9.15625V9.15391ZM8.125 15.25H8.5C8.95703 15.857 9.53125 16.368 10.1922 16.75H8.5V17.5H13H17.5V16.75H15.8078C16.4688 16.368 17.0453 15.857 17.5 15.25H17.875C18.4961 15.25 19 15.7539 19 16.375V17.875C19 18.4961 18.4961 19 17.875 19H8.125C7.50391 19 7 18.4961 7 17.875V16.375C7 15.7539 7.50391 15.25 8.125 15.25Z" fill="#378AD8"/>
</g>
<defs>
<clipPath id="clip0_17974_49922">
<rect width="12" height="12" fill="white" transform="translate(7 7)"/>
</clipPath>
</defs>
</svg>
