<?xml version="1.0" encoding="utf-8"?>
<!-- Generator: Adobe Illustrator 24.0.2, SVG Export Plug-In . SVG Version: 6.00 Build 0)  -->
<svg version="1.1" id="Layer_1" xmlns="http://www.w3.org/2000/svg" xmlns:xlink="http://www.w3.org/1999/xlink" x="0px" y="0px"
	 viewBox="0 0 43.51 42" style="enable-background:new 0 0 43.51 42;" xml:space="preserve">
<metadata><?xpacket begin="﻿" id="W5M0MpCehiHzreSzNTczkc9d"?>
<x:xmpmeta xmlns:x="adobe:ns:meta/" x:xmptk="Adobe XMP Core 6.0-c006 79.164648, 2021/01/12-15:52:29        ">
   <rdf:RDF xmlns:rdf="http://www.w3.org/1999/02/22-rdf-syntax-ns#">
      <rdf:Description rdf:about=""
            xmlns:xmp="http://ns.adobe.com/xap/1.0/"
            xmlns:xmpMM="http://ns.adobe.com/xap/1.0/mm/"
            xmlns:stEvt="http://ns.adobe.com/xap/1.0/sType/ResourceEvent#"
            xmlns:xmpRights="http://ns.adobe.com/xap/1.0/rights/"
            xmlns:dc="http://purl.org/dc/elements/1.1/"
            xmlns:lr="http://ns.adobe.com/lightroom/1.0/">
         <xmp:MetadataDate>2022-10-21T13:51:20-05:00</xmp:MetadataDate>
         <xmpMM:InstanceID>xmp.iid:24238399-2477-45ba-8ec2-d0ff2aa37aa5</xmpMM:InstanceID>
         <xmpMM:DocumentID>xmp.did:44c03cd5-2b25-492c-8751-f0e72a4f64ec</xmpMM:DocumentID>
         <xmpMM:OriginalDocumentID>xmp.did:44c03cd5-2b25-492c-8751-f0e72a4f64ec</xmpMM:OriginalDocumentID>
         <xmpMM:History>
            <rdf:Seq>
               <rdf:li>
                  <rdf:Description>
                     <stEvt:action>saved</stEvt:action>
                     <stEvt:instanceID>xmp.iid:44c03cd5-2b25-492c-8751-f0e72a4f64ec</stEvt:instanceID>
                     <stEvt:when>2021-04-27T13:41:30-05:00</stEvt:when>
                     <stEvt:softwareAgent>Adobe Bridge 2021 (Macintosh)</stEvt:softwareAgent>
                     <stEvt:changed>/metadata</stEvt:changed>
                  </rdf:Description>
               </rdf:li>
               <rdf:li>
                  <rdf:Description>
                     <stEvt:action>saved</stEvt:action>
                     <stEvt:instanceID>xmp.iid:24238399-2477-45ba-8ec2-d0ff2aa37aa5</stEvt:instanceID>
                     <stEvt:when>2022-10-21T13:51:20-05:00</stEvt:when>
                     <stEvt:softwareAgent>Adobe Bridge 2021 (Macintosh)</stEvt:softwareAgent>
                     <stEvt:changed>/metadata</stEvt:changed>
                  </rdf:Description>
               </rdf:li>
            </rdf:Seq>
         </xmpMM:History>
         <xmpRights:Marked>True</xmpRights:Marked>
         <dc:subject>
            <rdf:Bag>
               <rdf:li>Roving</rdf:li>
               <rdf:li>Edge</rdf:li>
               <rdf:li>Device</rdf:li>
               <rdf:li>icon</rdf:li>
            </rdf:Bag>
         </dc:subject>
         <dc:rights>
            <rdf:Alt>
               <rdf:li xml:lang="x-default">Oracle All Rights Reserved</rdf:li>
            </rdf:Alt>
         </dc:rights>
         <lr:hierarchicalSubject>
            <rdf:Bag>
               <rdf:li>Device</rdf:li>
               <rdf:li>icon</rdf:li>
            </rdf:Bag>
         </lr:hierarchicalSubject>
      </rdf:Description>
   </rdf:RDF>
</x:xmpmeta>
                                                                                                    
                                                                                                    
                                                                                                    
                                                                                                    
                                                                                                    
                                                                                                    
                                                                                                    
                                                                                                    
                                                                                 
<?xpacket end="w"?></metadata>
<style type="text/css">
	.st0{fill:#FFFFFF;}
	.st1{fill:#2C5967;}
</style>
<g>
	<g>
		<g>
			<polygon class="st0" points="38.8,41.5 38.8,41.12 23.76,41.12 23.76,41.5 19.75,41.5 19.75,41.12 4.71,41.12 4.71,41.5 
				0.5,41.5 0.5,37.29 0.88,37.29 0.88,33.58 0.5,33.58 0.5,29.56 0.88,29.56 0.88,25.46 0.5,25.46 0.5,16.54 0.88,16.54 
				0.88,12.82 0.5,12.82 0.5,8.8 0.88,8.8 0.88,4.71 0.5,4.71 0.5,0.5 4.71,0.5 4.71,0.88 19.75,0.88 19.75,0.5 23.76,0.5 
				23.76,0.88 38.8,0.88 38.8,0.5 43.01,0.5 43.01,4.71 42.63,4.71 42.63,8.8 43.01,8.8 43.01,12.82 42.63,12.82 42.63,16.54 
				43.01,16.54 43.01,25.46 42.63,25.46 42.63,29.56 43.01,29.56 43.01,33.58 42.63,33.58 42.63,37.29 43.01,37.29 43.01,41.5 			
				"/>
			<path class="st0" d="M42.51,1v3.21h-0.38V9.3h0.38v3.02h-0.38v4.72h0.38v7.92h-0.38v5.09h0.38v3.02h-0.38v4.72h0.38V41H39.3
				v-0.38H23.26V41h-3.02v-0.38H4.21V41H1v-3.21h0.38v-4.72H1v-3.02h0.38v-5.09H1v-7.92h0.38v-4.72H1V9.3h0.38V4.21H1V1h3.21v0.38
				h16.04V1h3.02v0.38H39.3V1H42.51 M43.51,0h-1H39.3h-1v0.38H24.26V0h-1h-3.02h-1v0.38H5.21V0h-1H1H0v1v3.21v1h0.38V8.3H0v1v3.02v1
				h0.38v2.72H0v1v7.92v1h0.38v3.09H0v1v3.02v1h0.38v2.72H0v1V41v1h1h3.21h1v-0.38h14.04V42h1h3.02h1v-0.38H38.3V42h1h3.21h1v-1
				v-3.21v-1h-0.38v-2.72h0.38v-1v-3.02v-1h-0.38v-3.09h0.38v-1v-7.92v-1h-0.38v-2.72h0.38v-1V9.3v-1h-0.38V5.21h0.38v-1V1V0
				L43.51,0z"/>
		</g>
		<g>
			<path class="st1" d="M5.91,35.91h31.7v-9.06H5.91V35.91z M7.42,28.36h28.68v6.04H7.42V28.36z"/>
			<circle class="st1" cx="32.7" cy="31.38" r="1.13"/>
			<path class="st1" d="M39.3,22.13H23.26v-0.38h-3.02v0.38H4.21v-0.38H1v3.21h0.38v5.09H1v3.02h0.38v4.72H1V41h3.21v-0.38h16.04V41
				h3.02v-0.38H39.3V41h3.21v-3.21h-0.38v-4.72h0.38v-3.02h-0.38v-5.09h0.38v-3.21H39.3V22.13z M40.62,30.06h-0.38v3.02h0.38v4.72
				h-0.38v0.94H39.3v0.38H23.26v-0.38h-3.02v0.38H4.21v-0.38H3.26v-0.94H2.89v-4.72h0.38v-3.02H2.89v-5.09h0.38v-0.94h0.94v-0.38
				h16.04v0.38h3.02v-0.38H39.3v0.38h0.94v0.94h0.38V30.06z"/>
			<path class="st1" d="M5.91,15.15h31.7V6.09H5.91V15.15z M7.42,7.6h28.68v6.04H7.42V7.6z"/>
			<circle class="st1" cx="32.7" cy="10.62" r="1.13"/>
			<path class="st1" d="M42.51,4.21V1H39.3v0.38H23.26V1h-3.02v0.38H4.21V1H1v3.21h0.38V9.3H1v3.02h0.38v4.72H1v3.21h3.21v-0.38
				h16.04v0.38h3.02v-0.38H39.3v0.38h3.21v-3.21h-0.38v-4.72h0.38V9.3h-0.38V4.21H42.51z M40.62,9.3h-0.38v3.02h0.38v4.72h-0.38
				v0.94H39.3v0.38H23.26v-0.38h-3.02v0.38H4.21v-0.38H3.26v-0.94H2.89v-4.72h0.38V9.3H2.89V4.21h0.38V3.26h0.94V2.89h16.04v0.38
				h3.02V2.89H39.3v0.38h0.94v0.94h0.38V9.3z"/>
		</g>
	</g>
</g>
</svg>
