<?xml version="1.0" encoding="utf-8"?>
<!-- Generator: Adobe Illustrator 21.1.0, SVG Export Plug-In . SVG Version: 6.00 Build 0)  -->
<svg version="1.1" id="Layer_1" xmlns="http://www.w3.org/2000/svg" xmlns:xlink="http://www.w3.org/1999/xlink" x="0px" y="0px"
	 viewBox="0 0 28 28" style="enable-background:new 0 0 28 28;" xml:space="preserve">
<style type="text/css">
	.st0{fill:#FFFFFF;}
</style>
<g>
	<path class="st0" d="M20.4,6.7c0.5,0,0.9,0.2,1.3,0.6c0.4,0.4,0.6,0.8,0.6,1.3v12.8c0,0.5-0.2,0.9-0.6,1.3
		c-0.4,0.4-0.8,0.6-1.3,0.6H7.6c-0.5,0-0.9-0.2-1.3-0.6c-0.4-0.4-0.6-0.8-0.6-1.3V8.5c0-0.5,0.2-0.9,0.6-1.3
		c0.4-0.4,0.8-0.6,1.3-0.6h3.8c0.2-0.5,0.5-1,1-1.3c0.5-0.3,1-0.5,1.6-0.5s1.1,0.2,1.6,0.5c0.5,0.3,0.8,0.8,1,1.3H20.4z M18.6,12.2
		v-1.8H9.4v1.8H18.6z M18.6,15.8V14H9.4v1.8H18.6z M15.8,19.5v-1.8H9.4v1.8H15.8z M14.6,6.9c-0.2-0.2-0.4-0.3-0.6-0.3
		s-0.5,0.1-0.6,0.3s-0.3,0.4-0.3,0.6s0.1,0.5,0.3,0.7c0.2,0.2,0.4,0.3,0.6,0.3s0.5-0.1,0.6-0.3c0.2-0.2,0.3-0.4,0.3-0.7
		S14.8,7.1,14.6,6.9z"/>
</g>
</svg>
