<?xml version="1.0" encoding="utf-8"?>
<!-- Generator: Adobe Illustrator 21.1.0, SVG Export Plug-In . SVG Version: 6.00 Build 0)  -->
<svg version="1.1" id="Layer_1" xmlns="http://www.w3.org/2000/svg" xmlns:xlink="http://www.w3.org/1999/xlink" x="0px" y="0px"
	 viewBox="0 0 28 28" style="enable-background:new 0 0 28 28;" xml:space="preserve">
<style type="text/css">
	.st0{fill-rule:evenodd;clip-rule:evenodd;fill:#FFFFFF;}
</style>
<g id="Shape_2_1_">
	<g>
		<path class="st0" d="M23.9,4H4.1C3.2,4,2.5,4.7,2.5,5.7v16.7c0,0.9,0.7,1.7,1.6,1.7h19.7c0.9,0,1.6-0.7,1.6-1.7V5.7
			C25.5,4.7,24.8,4,23.9,4z M12.4,5.7h11.5v0.8H12.4V5.7z M10.4,5.3c0.5,0,0.8,0.4,0.8,0.8c0,0.5-0.4,0.8-0.8,0.8
			c-0.5,0-0.8-0.4-0.8-0.8C9.5,5.6,9.9,5.3,10.4,5.3z M7.8,5.3c0.5,0,0.8,0.4,0.8,0.8c0,0.5-0.4,0.8-0.8,0.8C7.4,6.9,7,6.5,7,6.1
			C7,5.6,7.4,5.3,7.8,5.3z M5.4,5.3c0.5,0,0.8,0.4,0.8,0.8c0,0.5-0.4,0.8-0.8,0.8c-0.5,0-0.8-0.4-0.8-0.8C4.6,5.6,4.9,5.3,5.4,5.3z
			 M24.2,22.7H3.8V8.2h20.4V22.7z M12.3,19.2l2.2-1.4c0,0,2,3.2,2,3.2c0,0,1.9-1.4,2-1.4c0,0-2.5-2.9-2.5-2.9l2.1-1.6L10.5,11l0,0
			L12.3,19.2z"/>
	</g>
</g>
</svg>
