<svg  id="svg" version="1.1" width="400" height="210" viewBox="0 0 400 210" xmlns="http://www.w3.org/2000/svg" xmlns:xlink="http://www.w3.org/1999/xlink"><g id="svgg"><path id="path0" d="M211.765 8.076 C 211.765 8.263,211.585 8.403,211.345 8.403 C 211.111 8.403,210.924 8.543,210.924 8.718 C 210.924 8.895,210.737 9.034,210.498 9.034 C 210.263 9.034,210.016 9.175,209.950 9.349 C 209.883 9.522,209.694 9.664,209.530 9.664 C 209.365 9.664,209.176 9.806,209.110 9.979 C 209.043 10.152,208.857 10.294,208.696 10.294 C 208.535 10.294,208.403 10.426,208.403 10.587 C 208.403 10.748,208.262 10.934,208.088 11.000 C 207.915 11.067,207.773 11.266,207.773 11.443 C 207.773 11.625,207.590 11.765,207.353 11.765 C 207.120 11.765,206.933 11.905,206.933 12.080 C 206.933 12.257,206.745 12.395,206.506 12.395 C 206.271 12.395,206.025 12.537,205.958 12.710 C 205.892 12.883,205.703 13.025,205.538 13.025 C 205.374 13.025,205.184 13.167,205.118 13.340 C 205.051 13.514,204.865 13.655,204.704 13.655 C 204.543 13.655,204.412 13.797,204.412 13.971 C 204.412 14.144,204.270 14.286,204.097 14.286 C 203.923 14.286,203.782 14.421,203.782 14.587 C 203.782 14.752,203.592 14.948,203.361 15.021 C 203.130 15.094,202.941 15.290,202.941 15.455 C 202.941 15.621,202.799 15.756,202.626 15.756 C 202.453 15.756,202.311 15.898,202.311 16.071 C 202.311 16.269,202.112 16.387,201.779 16.387 C 201.487 16.387,201.193 16.528,201.126 16.702 C 201.060 16.875,200.874 17.017,200.713 17.017 C 200.552 17.017,200.420 17.159,200.420 17.332 C 200.420 17.505,200.331 17.647,200.221 17.647 C 199.932 17.647,198.950 18.599,198.950 18.879 C 198.950 19.010,198.808 19.118,198.634 19.118 C 198.461 19.118,198.343 19.234,198.372 19.375 C 198.401 19.517,198.188 19.668,197.899 19.711 C 197.610 19.753,197.298 19.921,197.206 20.083 C 197.114 20.245,196.901 20.378,196.733 20.378 C 196.566 20.378,196.429 20.520,196.429 20.693 C 196.429 20.867,196.323 21.008,196.194 21.008 C 195.888 21.008,194.328 22.569,194.328 22.874 C 194.328 23.004,194.088 23.109,193.796 23.109 C 193.503 23.109,193.210 23.251,193.143 23.424 C 193.077 23.598,192.891 23.739,192.730 23.739 C 192.569 23.739,192.437 23.881,192.437 24.055 C 192.437 24.228,192.292 24.370,192.115 24.370 C 191.938 24.370,191.739 24.512,191.673 24.685 C 191.606 24.858,191.420 25.000,191.259 25.000 C 191.098 25.000,190.966 25.142,190.966 25.315 C 190.966 25.488,190.825 25.630,190.651 25.630 C 190.478 25.630,190.336 25.772,190.336 25.945 C 190.336 26.119,190.194 26.261,190.021 26.261 C 189.848 26.261,189.517 26.450,189.286 26.681 C 189.055 26.912,188.771 27.101,188.655 27.101 C 188.540 27.101,188.445 27.243,188.445 27.416 C 188.445 27.589,188.301 27.731,188.124 27.731 C 187.947 27.731,187.748 27.873,187.681 28.046 C 187.615 28.220,187.428 28.361,187.267 28.361 C 187.106 28.361,186.975 28.503,186.975 28.676 C 186.975 28.850,186.833 28.992,186.660 28.992 C 186.486 28.992,186.345 29.133,186.345 29.307 C 186.345 29.480,186.203 29.622,186.029 29.622 C 185.856 29.622,185.714 29.756,185.714 29.920 C 185.714 30.084,185.431 30.281,185.084 30.357 C 184.737 30.433,184.454 30.630,184.454 30.794 C 184.454 30.958,184.309 31.092,184.132 31.092 C 183.955 31.092,183.756 31.234,183.689 31.408 C 183.623 31.581,183.437 31.723,183.276 31.723 C 183.115 31.723,182.983 31.864,182.983 32.038 C 182.983 32.211,182.841 32.353,182.668 32.353 C 182.495 32.353,182.353 32.495,182.353 32.668 C 182.353 32.841,182.211 32.983,182.038 32.983 C 181.864 32.983,181.723 33.117,181.723 33.282 C 181.723 33.446,181.439 33.642,181.092 33.718 C 180.568 33.834,180.462 33.960,180.462 34.470 C 180.462 34.916,180.361 35.083,180.095 35.081 C 179.786 35.078,179.777 35.046,180.036 34.882 C 180.206 34.775,180.269 34.611,180.176 34.518 C 180.084 34.425,179.887 34.515,179.739 34.717 C 179.591 34.919,179.363 35.084,179.231 35.084 C 179.099 35.084,178.992 35.226,178.992 35.399 C 178.992 35.572,178.850 35.714,178.676 35.714 C 178.503 35.714,178.361 35.856,178.361 36.029 C 178.361 36.203,178.220 36.345,178.046 36.345 C 177.873 36.345,177.731 36.476,177.731 36.637 C 177.731 36.798,177.488 36.990,177.191 37.065 C 176.894 37.139,176.378 37.480,176.043 37.823 C 175.708 38.165,175.337 38.445,175.217 38.445 C 175.098 38.445,175.000 38.587,175.000 38.761 C 175.000 38.934,174.858 39.076,174.685 39.076 C 174.512 39.076,174.370 39.217,174.370 39.391 C 174.370 39.564,174.228 39.706,174.055 39.706 C 173.881 39.706,173.739 39.837,173.739 39.998 C 173.739 40.159,173.497 40.352,173.200 40.426 C 172.903 40.501,172.386 40.842,172.051 41.184 C 171.717 41.527,171.356 41.807,171.250 41.807 C 171.144 41.807,171.005 42.005,170.942 42.248 C 170.878 42.491,170.726 42.627,170.602 42.551 C 170.479 42.475,170.378 42.560,170.378 42.740 C 170.378 42.920,170.236 43.067,170.063 43.067 C 169.890 43.067,169.748 43.209,169.748 43.382 C 169.748 43.556,169.573 43.697,169.360 43.697 C 169.146 43.697,168.745 43.897,168.467 44.142 C 168.189 44.386,167.749 44.728,167.489 44.901 C 167.230 45.075,167.017 45.347,167.017 45.507 C 167.017 45.667,166.875 45.798,166.702 45.798 C 166.528 45.798,166.387 45.940,166.387 46.113 C 166.387 46.287,166.245 46.429,166.071 46.429 C 165.898 46.429,165.756 46.570,165.756 46.744 C 165.756 46.917,165.612 47.059,165.435 47.059 C 165.258 47.059,165.058 47.201,164.992 47.374 C 164.925 47.547,164.681 47.689,164.449 47.689 C 164.005 47.689,162.395 49.152,162.395 49.555 C 162.395 49.684,162.264 49.790,162.104 49.790 C 161.944 49.790,161.764 49.979,161.704 50.211 C 161.630 50.492,161.482 50.589,161.259 50.504 C 161.038 50.419,160.924 50.490,160.924 50.713 C 160.924 50.912,160.750 51.050,160.498 51.050 C 160.263 51.050,160.016 51.192,159.950 51.366 C 159.883 51.539,159.694 51.681,159.530 51.681 C 159.365 51.681,159.176 51.822,159.110 51.996 C 159.043 52.169,158.857 52.311,158.696 52.311 C 158.535 52.311,158.403 52.443,158.403 52.604 C 158.403 52.765,158.262 52.951,158.088 53.017 C 157.915 53.084,157.773 53.283,157.773 53.460 C 157.773 53.641,157.590 53.782,157.353 53.782 C 157.120 53.782,156.933 53.922,156.933 54.097 C 156.933 54.273,156.745 54.412,156.506 54.412 C 156.271 54.412,156.025 54.554,155.958 54.727 C 155.892 54.900,155.703 55.042,155.538 55.042 C 155.374 55.042,155.184 55.184,155.118 55.357 C 155.051 55.530,154.865 55.672,154.704 55.672 C 154.543 55.672,154.412 55.814,154.412 55.987 C 154.412 56.161,154.270 56.303,154.097 56.303 C 153.923 56.303,153.782 56.438,153.782 56.603 C 153.782 56.769,153.592 56.964,153.361 57.038 C 153.130 57.111,152.941 57.307,152.941 57.472 C 152.941 57.638,152.773 57.773,152.568 57.773 C 152.362 57.773,151.884 58.057,151.504 58.403 C 151.125 58.750,150.726 59.034,150.617 59.034 C 150.509 59.034,150.420 59.175,150.420 59.349 C 150.420 59.522,150.331 59.664,150.221 59.664 C 149.932 59.664,148.950 60.615,148.950 60.896 C 148.950 61.027,148.808 61.134,148.634 61.134 C 148.461 61.134,148.319 61.276,148.319 61.450 C 148.319 61.647,148.120 61.765,147.788 61.765 C 147.495 61.765,147.201 61.907,147.135 62.080 C 147.068 62.253,146.882 62.395,146.721 62.395 C 146.560 62.395,146.429 62.537,146.429 62.710 C 146.429 62.883,146.323 63.025,146.194 63.025 C 145.888 63.025,144.328 64.586,144.328 64.891 C 144.328 65.020,144.044 65.126,143.697 65.126 C 143.277 65.126,143.067 65.231,143.067 65.441 C 143.067 65.614,142.925 65.756,142.752 65.756 C 142.579 65.756,142.437 65.898,142.437 66.071 C 142.437 66.245,142.292 66.387,142.115 66.387 C 141.938 66.387,141.739 66.528,141.673 66.702 C 141.606 66.875,141.420 67.017,141.259 67.017 C 141.098 67.017,140.966 67.159,140.966 67.332 C 140.966 67.505,140.825 67.647,140.651 67.647 C 140.478 67.647,140.336 67.789,140.336 67.962 C 140.336 68.136,140.194 68.277,140.021 68.277 C 139.848 68.277,139.517 68.466,139.286 68.697 C 139.055 68.929,138.771 69.118,138.655 69.118 C 138.540 69.118,138.445 69.248,138.445 69.408 C 138.445 69.568,138.256 69.748,138.025 69.809 C 137.741 69.883,137.605 70.095,137.605 70.464 C 137.605 70.808,137.489 71.008,137.290 71.008 C 137.117 71.008,136.975 71.157,136.975 71.339 C 136.975 71.520,136.833 71.810,136.660 71.984 C 136.486 72.157,136.345 72.481,136.345 72.704 C 136.345 72.927,136.203 73.109,136.029 73.109 C 135.819 73.109,135.714 73.319,135.714 73.739 C 135.714 74.160,135.609 74.370,135.399 74.370 C 135.189 74.370,135.084 74.580,135.084 75.000 C 135.084 75.420,134.979 75.630,134.769 75.630 C 134.596 75.630,134.454 75.710,134.454 75.808 C 134.454 75.906,134.265 76.204,134.034 76.471 C 133.803 76.737,133.613 77.130,133.613 77.343 C 133.613 77.556,133.472 77.731,133.298 77.731 C 133.088 77.731,132.983 77.941,132.983 78.361 C 132.983 78.782,132.878 78.992,132.668 78.992 C 132.495 78.992,132.353 79.171,132.353 79.389 C 132.353 79.608,132.211 79.841,132.038 79.908 C 131.864 79.974,131.723 80.268,131.723 80.561 C 131.723 80.893,131.605 81.092,131.408 81.092 C 131.197 81.092,131.092 81.303,131.092 81.723 C 131.092 82.139,130.987 82.353,130.781 82.353 C 130.610 82.353,130.410 82.613,130.336 82.931 C 130.262 83.248,130.095 83.603,129.964 83.718 C 129.833 83.834,129.537 84.307,129.306 84.769 C 129.075 85.231,128.768 85.685,128.624 85.777 C 128.480 85.870,128.361 86.167,128.361 86.438 C 128.361 86.708,128.220 86.984,128.046 87.051 C 127.862 87.121,127.731 87.436,127.731 87.809 C 127.731 88.235,127.627 88.445,127.416 88.445 C 127.243 88.445,127.101 88.566,127.101 88.714 C 127.101 88.861,126.912 89.144,126.681 89.342 C 126.450 89.540,126.261 89.833,126.261 89.993 C 126.261 90.154,126.119 90.402,125.945 90.546 C 125.772 90.690,125.630 91.033,125.630 91.307 C 125.630 91.611,125.507 91.807,125.315 91.807 C 125.105 91.807,125.000 92.017,125.000 92.437 C 125.000 92.857,124.895 93.067,124.685 93.067 C 124.512 93.067,124.370 93.199,124.370 93.360 C 124.370 93.521,124.228 93.707,124.055 93.773 C 123.881 93.840,123.739 94.137,123.739 94.433 C 123.739 94.729,123.598 95.026,123.424 95.092 C 123.245 95.161,123.109 95.474,123.109 95.821 C 123.109 96.289,123.012 96.429,122.689 96.429 C 122.409 96.429,122.269 96.569,122.269 96.849 C 122.269 97.080,122.184 97.269,122.079 97.269 C 121.975 97.269,121.791 97.553,121.670 97.899 C 121.549 98.246,121.351 98.529,121.229 98.529 C 121.108 98.529,121.008 98.813,121.008 99.160 C 121.008 99.580,120.903 99.790,120.693 99.790 C 120.483 99.790,120.378 100.000,120.378 100.420 C 120.378 100.840,120.273 101.050,120.063 101.050 C 119.888 101.050,119.748 101.237,119.748 101.471 C 119.748 101.702,119.648 101.891,119.527 101.891 C 119.405 101.891,119.210 102.167,119.092 102.504 C 118.974 102.842,118.743 103.169,118.578 103.233 C 118.413 103.296,118.277 103.587,118.277 103.880 C 118.277 104.213,118.159 104.412,117.962 104.412 C 117.752 104.412,117.647 104.622,117.647 105.042 C 117.647 105.462,117.542 105.672,117.332 105.672 C 117.159 105.672,117.017 105.851,117.017 106.070 C 117.017 106.289,116.875 106.522,116.702 106.589 C 116.528 106.655,116.387 106.949,116.387 107.241 C 116.387 107.574,116.269 107.773,116.071 107.773 C 115.861 107.773,115.756 107.983,115.756 108.403 C 115.756 108.828,115.652 109.034,115.436 109.034 C 115.250 109.034,115.064 109.292,114.992 109.650 C 114.924 109.990,114.738 110.318,114.577 110.379 C 114.417 110.441,114.286 110.626,114.286 110.790 C 114.286 110.955,114.144 111.144,113.971 111.210 C 113.797 111.277,113.655 111.571,113.655 111.863 C 113.655 112.196,113.537 112.395,113.340 112.395 C 113.130 112.395,113.025 112.605,113.025 113.025 C 113.025 113.445,112.920 113.655,112.710 113.655 C 112.537 113.655,112.395 113.834,112.395 114.053 C 112.395 114.272,112.253 114.505,112.080 114.572 C 111.907 114.638,111.765 114.932,111.765 115.224 C 111.765 115.544,111.646 115.756,111.466 115.756 C 111.302 115.756,111.107 116.032,111.033 116.369 C 110.959 116.706,110.763 117.034,110.596 117.098 C 110.430 117.162,110.287 117.477,110.279 117.798 C 110.271 118.119,110.183 118.571,110.084 118.803 L 109.903 119.223 109.875 118.803 C 109.849 118.401,109.839 118.403,109.665 118.834 C 109.565 119.082,109.382 119.347,109.258 119.424 C 109.135 119.500,109.034 119.736,109.034 119.948 C 109.034 120.160,108.892 120.388,108.718 120.454 C 108.545 120.521,108.403 120.804,108.403 121.084 C 108.403 121.365,108.262 121.648,108.088 121.715 C 107.904 121.785,107.773 122.100,107.773 122.472 C 107.773 122.969,107.681 123.109,107.353 123.109 C 107.073 123.109,106.933 123.249,106.933 123.529 C 106.933 123.761,106.847 123.950,106.743 123.950 C 106.639 123.950,106.455 124.233,106.334 124.580 C 106.213 124.926,106.015 125.210,105.893 125.210 C 105.772 125.210,105.672 125.494,105.672 125.840 C 105.672 126.261,105.567 126.471,105.357 126.471 C 105.147 126.471,105.042 126.681,105.042 127.101 C 105.042 127.521,104.937 127.731,104.727 127.731 C 104.554 127.731,104.412 127.863,104.412 128.024 C 104.412 128.185,104.270 128.371,104.097 128.437 C 103.923 128.504,103.782 128.794,103.782 129.083 C 103.782 129.392,103.609 129.699,103.361 129.832 C 103.116 129.963,102.941 130.272,102.941 130.575 C 102.941 130.895,102.821 131.092,102.626 131.092 C 102.453 131.092,102.311 131.241,102.311 131.423 C 102.311 131.604,102.169 131.895,101.996 132.068 C 101.822 132.241,101.681 132.565,101.681 132.788 C 101.681 133.011,101.539 133.193,101.366 133.193 C 101.155 133.193,101.050 133.403,101.050 133.824 C 101.050 134.244,100.945 134.454,100.735 134.454 C 100.525 134.454,100.420 134.664,100.420 135.084 C 100.420 135.491,100.314 135.714,100.119 135.714 C 99.954 135.714,99.758 135.903,99.685 136.134 C 99.612 136.366,99.471 136.555,99.372 136.555 C 99.274 136.555,99.132 136.830,99.058 137.167 C 98.984 137.504,98.788 137.832,98.622 137.896 C 98.455 137.960,98.319 138.251,98.319 138.544 C 98.319 138.876,98.201 139.076,98.004 139.076 C 97.794 139.076,97.689 139.286,97.689 139.706 C 97.689 140.126,97.584 140.336,97.374 140.336 C 97.201 140.336,97.059 140.515,97.059 140.734 C 97.059 140.953,96.917 141.186,96.744 141.252 C 96.570 141.319,96.429 141.613,96.429 141.905 C 96.429 142.225,96.309 142.437,96.130 142.437 C 95.966 142.437,95.771 142.713,95.697 143.050 C 95.623 143.387,95.427 143.715,95.260 143.778 C 95.089 143.844,94.958 144.171,94.958 144.531 C 94.958 144.957,94.854 145.168,94.643 145.168 C 94.470 145.168,94.328 145.300,94.328 145.461 C 94.328 145.622,94.186 145.808,94.013 145.874 C 93.839 145.941,93.697 146.235,93.697 146.527 C 93.697 146.860,93.579 147.059,93.382 147.059 C 93.172 147.059,93.067 147.269,93.067 147.689 C 93.067 148.109,92.962 148.319,92.752 148.319 C 92.577 148.319,92.437 148.506,92.437 148.739 C 92.437 148.971,92.340 149.160,92.222 149.160 C 92.104 149.160,91.894 149.420,91.754 149.737 C 91.615 150.055,91.380 150.391,91.233 150.483 C 91.087 150.576,90.966 150.873,90.966 151.143 C 90.966 151.414,90.825 151.690,90.651 151.757 C 90.467 151.827,90.336 152.142,90.336 152.514 C 90.336 152.940,90.232 153.151,90.021 153.151 C 89.848 153.151,89.706 153.296,89.706 153.473 C 89.706 153.650,89.564 153.849,89.391 153.916 C 89.217 153.982,89.076 154.253,89.076 154.517 C 89.076 154.781,88.934 155.051,88.761 155.118 C 88.587 155.184,88.445 155.475,88.445 155.763 C 88.445 156.073,88.273 156.380,88.025 156.513 C 87.780 156.644,87.605 156.952,87.605 157.255 C 87.605 157.576,87.485 157.773,87.290 157.773 C 87.115 157.773,86.975 157.960,86.975 158.193 C 86.975 158.424,86.890 158.613,86.785 158.613 C 86.681 158.613,86.497 158.897,86.376 159.244 C 86.255 159.590,86.057 159.874,85.935 159.874 C 85.814 159.874,85.714 160.158,85.714 160.504 C 85.714 160.924,85.609 161.134,85.399 161.134 C 85.189 161.134,85.084 161.345,85.084 161.765 C 85.084 162.191,84.980 162.395,84.762 162.395 C 84.585 162.395,84.378 162.560,84.301 162.763 C 84.225 162.965,84.039 163.255,83.888 163.408 C 83.737 163.561,83.613 163.868,83.613 164.091 C 83.613 164.313,83.472 164.496,83.298 164.496 C 83.088 164.496,82.983 164.706,82.983 165.126 C 82.983 165.546,82.878 165.756,82.668 165.756 C 82.495 165.756,82.353 165.935,82.353 166.154 C 82.353 166.373,82.211 166.606,82.038 166.673 C 81.864 166.739,81.723 167.033,81.723 167.325 C 81.723 167.658,81.605 167.857,81.408 167.857 C 81.197 167.857,81.092 168.067,81.092 168.487 C 81.092 168.912,80.988 169.118,80.772 169.118 C 80.586 169.118,80.400 169.376,80.328 169.734 C 80.260 170.074,80.074 170.402,79.913 170.463 C 79.753 170.525,79.622 170.679,79.622 170.807 C 79.622 170.934,79.480 171.180,79.307 171.354 C 79.133 171.527,78.992 171.851,78.992 172.074 C 78.992 172.297,78.850 172.479,78.676 172.479 C 78.466 172.479,78.361 172.689,78.361 173.109 C 78.361 173.529,78.256 173.739,78.046 173.739 C 77.836 173.739,77.731 173.950,77.731 174.370 C 77.731 174.790,77.626 175.000,77.416 175.000 C 77.241 175.000,77.101 175.187,77.101 175.420 C 77.101 175.651,77.004 175.840,76.886 175.840 C 76.768 175.840,76.558 176.100,76.418 176.418 C 76.278 176.736,76.044 177.071,75.897 177.164 C 75.750 177.256,75.630 177.553,75.630 177.824 C 75.630 178.095,75.488 178.371,75.315 178.437 C 75.131 178.508,75.000 178.823,75.000 179.195 C 75.000 179.621,74.896 179.832,74.685 179.832 C 74.451 179.832,74.370 180.077,74.370 180.777 L 74.370 181.723 103.676 181.723 L 132.983 181.723 132.983 181.092 C 132.983 180.672,133.088 180.462,133.298 180.462 C 133.518 180.462,133.613 180.240,133.613 179.727 C 133.613 179.213,133.708 178.992,133.929 178.992 C 134.139 178.992,134.244 178.782,134.244 178.361 C 134.244 177.937,134.348 177.731,134.564 177.731 C 134.751 177.731,134.936 177.471,135.010 177.106 C 135.078 176.762,135.265 176.372,135.424 176.239 C 135.584 176.107,135.714 175.784,135.714 175.522 C 135.714 175.260,135.856 174.991,136.029 174.924 C 136.210 174.855,136.345 174.541,136.345 174.189 C 136.345 173.836,136.479 173.523,136.660 173.453 C 136.833 173.387,136.975 173.103,136.975 172.823 C 136.975 172.543,137.117 172.259,137.290 172.193 C 137.498 172.113,137.605 171.784,137.605 171.225 C 137.605 170.612,137.692 170.378,137.920 170.378 C 138.127 170.378,138.235 170.171,138.235 169.772 C 138.235 169.343,138.358 169.135,138.655 169.057 C 138.961 168.977,139.076 168.770,139.076 168.297 C 139.076 167.859,139.179 167.647,139.391 167.647 C 139.598 167.647,139.706 167.439,139.706 167.039 C 139.706 166.693,139.841 166.380,140.021 166.311 C 140.194 166.244,140.336 165.947,140.336 165.651 C 140.336 165.355,140.478 165.058,140.651 164.992 C 140.827 164.924,140.966 164.612,140.966 164.286 C 140.966 163.959,141.106 163.647,141.282 163.579 C 141.455 163.513,141.597 163.216,141.597 162.920 C 141.597 162.624,141.738 162.327,141.912 162.261 C 142.085 162.194,142.228 161.937,142.230 161.690 C 142.235 160.908,142.475 160.294,142.777 160.294 C 142.959 160.294,143.067 160.060,143.067 159.664 C 143.067 159.244,143.172 159.034,143.382 159.034 C 143.590 159.034,143.697 158.826,143.697 158.426 C 143.697 158.079,143.833 157.766,144.013 157.697 C 144.197 157.626,144.328 157.312,144.328 156.939 C 144.328 156.513,144.432 156.303,144.643 156.303 C 144.853 156.303,144.958 156.092,144.958 155.672 C 144.958 155.252,145.063 155.042,145.273 155.042 C 145.493 155.042,145.588 154.820,145.588 154.307 C 145.588 153.902,145.669 153.571,145.768 153.571 C 146.046 153.571,147.059 151.495,147.059 150.926 C 147.059 150.616,147.181 150.420,147.374 150.420 C 147.594 150.420,147.689 150.198,147.689 149.685 C 147.689 149.171,147.784 148.950,148.004 148.950 C 148.214 148.950,148.319 148.739,148.319 148.319 C 148.319 147.899,148.424 147.689,148.634 147.689 C 148.842 147.689,148.950 147.481,148.950 147.081 C 148.950 146.735,149.085 146.422,149.265 146.353 C 149.449 146.282,149.580 145.967,149.580 145.595 C 149.580 145.169,149.684 144.958,149.895 144.958 C 150.068 144.958,150.210 144.838,150.210 144.692 C 150.210 144.546,150.399 144.074,150.630 143.643 C 150.861 143.211,151.050 142.757,151.050 142.633 C 151.050 142.509,151.192 142.265,151.366 142.092 C 151.539 141.919,151.681 141.453,151.681 141.056 C 151.681 140.556,151.777 140.336,151.996 140.336 C 152.206 140.336,152.311 140.126,152.311 139.706 C 152.311 139.286,152.416 139.076,152.626 139.076 C 152.837 139.076,152.941 138.865,152.941 138.439 C 152.941 138.067,153.072 137.752,153.256 137.681 C 153.436 137.612,153.571 137.299,153.571 136.952 C 153.571 136.567,153.681 136.345,153.870 136.345 C 154.034 136.345,154.229 136.069,154.303 135.732 C 154.377 135.395,154.573 135.067,154.740 135.003 C 154.906 134.939,155.042 134.641,155.042 134.340 C 155.042 134.040,155.184 133.652,155.357 133.478 C 155.530 133.305,155.672 132.993,155.672 132.784 C 155.672 132.575,155.814 132.287,155.987 132.143 C 156.161 131.999,156.303 131.572,156.303 131.194 C 156.303 130.777,156.426 130.460,156.618 130.386 C 156.802 130.316,156.933 130.001,156.933 129.628 C 156.933 129.202,157.037 128.992,157.248 128.992 C 157.455 128.992,157.563 128.784,157.563 128.386 C 157.563 127.957,157.686 127.748,157.983 127.670 C 158.285 127.591,158.403 127.384,158.403 126.933 C 158.403 126.569,158.536 126.255,158.718 126.185 C 158.892 126.118,159.034 125.834,159.034 125.554 C 159.034 125.274,159.175 124.991,159.349 124.924 C 159.529 124.855,159.664 124.541,159.664 124.189 C 159.664 123.836,159.798 123.523,159.979 123.453 C 160.187 123.374,160.294 123.045,160.294 122.486 C 160.294 121.873,160.381 121.639,160.609 121.639 C 160.819 121.639,160.924 121.429,160.924 121.008 C 160.924 120.604,161.031 120.378,161.223 120.378 C 161.387 120.378,161.585 120.088,161.663 119.734 C 161.741 119.379,161.937 119.038,162.100 118.976 C 162.262 118.914,162.395 118.589,162.395 118.255 C 162.395 117.855,162.503 117.647,162.710 117.647 C 162.918 117.647,163.025 117.439,163.025 117.039 C 163.025 116.693,163.161 116.380,163.340 116.311 C 163.525 116.240,163.655 115.925,163.655 115.553 C 163.655 115.127,163.760 114.916,163.971 114.916 C 164.178 114.916,164.286 114.708,164.286 114.308 C 164.286 113.962,164.421 113.648,164.601 113.579 C 164.809 113.500,164.916 113.171,164.916 112.612 C 164.916 112.028,165.007 111.765,165.209 111.765 C 165.530 111.765,165.756 111.323,165.756 110.697 C 165.756 110.475,165.898 110.294,166.071 110.294 C 166.282 110.294,166.387 110.084,166.387 109.664 C 166.387 109.244,166.492 109.034,166.702 109.034 C 166.909 109.034,167.017 108.826,167.017 108.426 C 167.017 108.079,167.152 107.766,167.332 107.697 C 167.516 107.626,167.647 107.312,167.647 106.939 C 167.647 106.513,167.751 106.303,167.962 106.303 C 168.169 106.303,168.277 106.095,168.277 105.698 C 168.277 105.366,168.419 104.976,168.592 104.832 C 168.766 104.688,168.908 104.393,168.908 104.176 C 168.908 103.959,169.097 103.592,169.328 103.361 C 169.586 103.103,169.748 102.661,169.748 102.212 C 169.748 101.651,169.820 101.512,170.063 101.605 C 170.300 101.696,170.378 101.569,170.378 101.095 C 170.378 100.729,170.510 100.415,170.693 100.344 C 170.877 100.274,171.008 99.959,171.008 99.586 C 171.008 99.160,171.113 98.950,171.324 98.950 C 171.534 98.950,171.639 98.739,171.639 98.319 C 171.639 97.879,171.741 97.689,171.978 97.689 C 172.218 97.689,172.285 97.562,172.204 97.253 C 172.131 96.976,172.237 96.692,172.495 96.471 C 172.717 96.281,172.899 95.910,172.899 95.647 C 172.899 95.383,173.088 94.979,173.319 94.748 C 173.550 94.517,173.739 94.179,173.739 93.998 C 173.739 93.816,173.881 93.526,174.055 93.352 C 174.228 93.179,174.370 92.713,174.370 92.317 C 174.370 91.817,174.466 91.597,174.685 91.597 C 174.895 91.597,175.000 91.387,175.000 90.966 C 175.000 90.546,175.105 90.336,175.315 90.336 C 175.525 90.336,175.630 90.126,175.630 89.706 C 175.630 89.286,175.735 89.076,175.945 89.076 C 176.165 89.076,176.261 88.854,176.261 88.340 C 176.261 87.827,176.356 87.605,176.576 87.605 C 176.764 87.605,176.891 87.412,176.891 87.127 C 176.891 86.863,177.080 86.486,177.311 86.288 C 177.542 86.090,177.731 85.732,177.731 85.491 C 177.731 85.251,177.873 84.912,178.046 84.739 C 178.220 84.566,178.361 84.253,178.361 84.044 C 178.361 83.836,178.503 83.547,178.676 83.403 C 178.850 83.260,178.992 82.823,178.992 82.432 C 178.992 81.942,179.089 81.723,179.307 81.723 C 179.527 81.723,179.622 81.501,179.622 80.987 C 179.622 80.474,179.717 80.252,179.937 80.252 C 180.147 80.252,180.252 80.042,180.252 79.622 C 180.252 79.217,180.359 78.992,180.551 78.992 C 180.715 78.992,180.910 78.715,180.984 78.376 C 181.059 78.037,181.255 77.647,181.421 77.510 C 181.587 77.372,181.723 77.045,181.723 76.782 C 181.723 76.520,181.864 76.251,182.038 76.185 C 182.211 76.118,182.353 75.836,182.353 75.558 C 182.353 75.279,182.495 74.934,182.668 74.790 C 182.841 74.646,182.983 74.314,182.983 74.051 C 182.983 73.789,183.125 73.520,183.298 73.453 C 183.506 73.374,183.613 73.045,183.613 72.486 C 183.613 71.873,183.701 71.639,183.929 71.639 C 184.139 71.639,184.244 71.429,184.244 71.008 C 184.244 70.610,184.351 70.378,184.536 70.378 C 184.858 70.378,185.084 69.937,185.084 69.311 C 185.084 69.089,185.226 68.908,185.399 68.908 C 185.607 68.908,185.714 68.700,185.714 68.300 C 185.714 67.953,185.850 67.640,186.029 67.571 C 186.203 67.505,186.345 67.221,186.345 66.941 C 186.345 66.661,186.486 66.377,186.660 66.311 C 186.840 66.241,186.975 65.928,186.975 65.575 C 186.975 65.223,187.109 64.909,187.290 64.840 C 187.463 64.773,187.605 64.477,187.605 64.181 C 187.605 63.885,187.747 63.588,187.920 63.521 C 188.123 63.443,188.235 63.118,188.235 62.607 C 188.235 61.990,188.329 61.789,188.655 61.704 C 188.961 61.624,189.076 61.417,189.076 60.944 C 189.076 60.506,189.179 60.294,189.391 60.294 C 189.601 60.294,189.706 60.084,189.706 59.664 C 189.706 59.244,189.811 59.034,190.021 59.034 C 190.241 59.034,190.336 58.812,190.336 58.298 C 190.336 57.785,190.431 57.563,190.651 57.563 C 190.861 57.563,190.966 57.353,190.966 56.933 C 190.966 56.513,191.071 56.303,191.282 56.303 C 191.495 56.303,191.597 56.089,191.597 55.643 C 191.597 55.280,191.739 54.878,191.913 54.750 C 192.088 54.622,192.253 54.130,192.281 53.658 C 192.323 52.957,192.399 52.817,192.700 52.895 C 192.991 52.971,193.067 52.855,193.067 52.335 C 193.067 51.893,193.170 51.681,193.382 51.681 C 193.590 51.681,193.697 51.473,193.697 51.073 C 193.697 50.726,193.833 50.413,194.013 50.344 C 194.197 50.274,194.328 49.959,194.328 49.586 C 194.328 49.160,194.432 48.950,194.643 48.950 C 194.853 48.950,194.958 48.739,194.958 48.319 C 194.958 47.899,195.063 47.689,195.273 47.689 C 195.484 47.689,195.588 47.478,195.588 47.052 C 195.588 46.680,195.719 46.365,195.903 46.294 C 196.077 46.228,196.219 46.018,196.220 45.828 C 196.221 45.639,196.409 45.200,196.639 44.853 C 196.868 44.506,197.057 43.973,197.057 43.667 C 197.058 43.362,197.194 43.060,197.360 42.997 C 197.525 42.933,197.691 42.569,197.727 42.186 C 197.768 41.768,197.899 41.513,198.057 41.544 C 198.220 41.577,198.319 41.359,198.319 40.966 C 198.319 40.546,198.424 40.336,198.634 40.336 C 198.842 40.336,198.950 40.129,198.950 39.728 C 198.950 39.382,199.085 39.069,199.265 39.000 C 199.449 38.929,199.580 38.614,199.580 38.242 C 199.580 37.832,199.686 37.605,199.878 37.605 C 200.043 37.605,200.243 37.305,200.324 36.934 C 200.405 36.565,200.602 36.133,200.761 35.974 C 200.920 35.815,201.050 35.510,201.050 35.297 C 201.050 35.083,201.151 34.875,201.274 34.834 C 201.397 34.793,201.551 34.360,201.617 33.872 C 201.691 33.318,201.844 32.983,202.023 32.983 C 202.203 32.983,202.311 32.746,202.311 32.353 C 202.311 31.933,202.416 31.723,202.626 31.723 C 202.846 31.723,202.941 31.501,202.941 30.987 C 202.941 30.474,203.036 30.252,203.256 30.252 C 203.466 30.252,203.571 30.042,203.571 29.622 C 203.571 29.197,203.676 28.992,203.892 28.992 C 204.079 28.992,204.264 28.732,204.337 28.366 C 204.406 28.022,204.593 27.632,204.752 27.500 C 204.912 27.368,205.042 27.102,205.042 26.909 C 205.042 26.549,205.679 25.182,206.064 24.720 C 206.183 24.576,206.303 24.070,206.331 23.596 C 206.367 22.984,206.462 22.764,206.657 22.838 C 206.848 22.912,206.933 22.743,206.933 22.291 C 206.933 21.851,207.035 21.639,207.248 21.639 C 207.455 21.639,207.563 21.431,207.563 21.033 C 207.563 20.604,207.686 20.395,207.983 20.317 C 208.289 20.237,208.403 20.031,208.403 19.557 C 208.403 19.120,208.506 18.908,208.718 18.908 C 208.926 18.908,209.034 18.700,209.034 18.300 C 209.034 17.953,209.169 17.640,209.349 17.571 C 209.529 17.502,209.664 17.188,209.664 16.836 C 209.664 16.483,209.798 16.170,209.979 16.100 C 210.152 16.034,210.294 15.750,210.294 15.470 C 210.294 15.190,210.436 14.907,210.609 14.840 C 210.817 14.760,210.924 14.431,210.924 13.872 C 210.924 13.207,211.003 13.025,211.292 13.022 C 211.606 13.019,211.614 12.989,211.345 12.815 C 211.126 12.674,211.112 12.610,211.297 12.608 C 211.445 12.606,211.655 12.369,211.765 12.080 C 211.875 11.791,212.061 11.555,212.180 11.555 C 212.298 11.555,212.395 11.271,212.395 10.924 C 212.395 10.504,212.500 10.294,212.710 10.294 C 212.919 10.294,213.025 10.085,213.025 9.674 C 213.025 9.324,213.172 8.973,213.362 8.866 C 213.547 8.762,213.664 8.498,213.623 8.278 C 213.522 7.745,211.765 7.554,211.765 8.076 M220.518 21.148 C 220.441 21.225,220.378 21.698,220.378 22.199 C 220.378 22.868,220.295 23.109,220.063 23.109 C 219.852 23.109,219.748 23.320,219.748 23.746 C 219.748 24.096,219.617 24.433,219.458 24.494 C 219.298 24.556,219.106 24.987,219.032 25.454 C 218.957 25.920,218.757 26.441,218.587 26.611 C 218.417 26.782,218.277 27.235,218.277 27.619 C 218.277 28.045,218.155 28.363,217.962 28.437 C 217.746 28.520,217.647 28.858,217.647 29.510 C 217.647 30.216,217.566 30.462,217.332 30.462 C 217.125 30.462,217.017 30.669,217.017 31.067 C 217.017 31.399,216.875 31.789,216.702 31.933 C 216.521 32.083,216.387 32.541,216.387 33.009 C 216.387 33.593,216.297 33.824,216.071 33.824 C 215.838 33.824,215.756 34.069,215.756 34.769 C 215.756 35.434,215.670 35.714,215.466 35.714 C 215.160 35.714,214.924 36.331,214.919 37.139 C 214.917 37.403,214.774 37.673,214.601 37.739 C 214.428 37.806,214.283 38.110,214.279 38.415 C 214.275 38.721,214.134 39.154,213.964 39.378 C 213.794 39.603,213.655 40.099,213.655 40.481 C 213.655 40.959,213.557 41.176,213.340 41.176 C 213.107 41.176,213.025 41.422,213.025 42.122 C 213.025 42.822,212.944 43.067,212.710 43.067 C 212.477 43.067,212.395 43.312,212.395 44.013 C 212.395 44.713,212.313 44.958,212.080 44.958 C 211.862 44.958,211.765 45.177,211.765 45.671 C 211.765 46.107,211.644 46.430,211.453 46.503 C 211.282 46.569,211.081 47.003,211.007 47.467 C 210.933 47.931,210.742 48.419,210.583 48.551 C 210.424 48.683,210.294 49.158,210.294 49.606 C 210.294 50.190,210.205 50.420,209.979 50.420 C 209.747 50.420,209.664 50.663,209.664 51.343 C 209.664 51.970,209.563 52.305,209.349 52.387 C 209.168 52.456,209.034 52.770,209.034 53.122 C 209.034 53.474,208.899 53.788,208.718 53.857 C 208.512 53.937,208.403 54.264,208.403 54.803 C 208.403 55.342,208.294 55.669,208.088 55.748 C 207.874 55.830,207.773 56.166,207.773 56.797 C 207.773 57.547,207.693 57.745,207.353 57.834 C 207.021 57.921,206.933 58.121,206.933 58.781 C 206.933 59.332,206.825 59.660,206.618 59.740 C 206.436 59.809,206.303 60.123,206.303 60.480 C 206.303 60.821,206.192 61.136,206.057 61.181 C 205.923 61.226,205.783 61.631,205.748 62.080 C 205.712 62.538,205.543 62.976,205.363 63.077 C 205.150 63.196,205.042 63.571,205.042 64.191 C 205.042 64.882,204.960 65.126,204.727 65.126 C 204.493 65.126,204.412 65.371,204.412 66.071 C 204.412 66.772,204.330 67.017,204.097 67.017 C 203.898 67.017,203.782 67.217,203.782 67.561 C 203.782 67.861,203.592 68.346,203.361 68.640 C 203.130 68.934,202.941 69.405,202.941 69.686 C 202.941 69.968,202.799 70.340,202.626 70.513 C 202.453 70.687,202.311 71.200,202.311 71.654 C 202.311 72.247,202.222 72.479,201.996 72.479 C 201.762 72.479,201.681 72.724,201.681 73.424 C 201.681 74.125,201.599 74.370,201.366 74.370 C 201.147 74.370,201.050 74.589,201.050 75.083 C 201.050 75.522,200.930 75.842,200.735 75.916 C 200.527 75.996,200.420 76.325,200.420 76.884 C 200.420 77.488,200.332 77.731,200.112 77.731 C 199.902 77.731,199.761 78.060,199.667 78.769 C 199.590 79.350,199.402 79.855,199.239 79.918 C 199.059 79.987,198.950 80.350,198.950 80.876 C 198.950 81.489,198.862 81.723,198.634 81.723 C 198.423 81.723,198.319 81.934,198.319 82.368 C 198.319 82.723,198.178 83.155,198.004 83.328 C 197.831 83.502,197.689 83.957,197.689 84.341 C 197.689 84.768,197.567 85.086,197.374 85.160 C 197.168 85.239,197.059 85.566,197.059 86.105 C 197.059 86.644,196.950 86.972,196.744 87.051 C 196.529 87.133,196.429 87.469,196.429 88.099 C 196.429 88.850,196.349 89.048,196.008 89.137 C 195.706 89.216,195.588 89.423,195.588 89.879 C 195.588 90.227,195.491 90.543,195.373 90.583 C 195.255 90.622,195.099 91.032,195.026 91.493 C 194.954 91.955,194.767 92.408,194.611 92.500 C 194.452 92.594,194.328 93.021,194.328 93.475 C 194.328 93.999,194.217 94.325,194.013 94.404 C 193.797 94.487,193.697 94.824,193.697 95.477 C 193.697 96.183,193.616 96.429,193.382 96.429 C 193.164 96.429,193.067 96.648,193.067 97.141 C 193.067 97.581,192.947 97.901,192.752 97.975 C 192.544 98.055,192.437 98.384,192.437 98.943 C 192.437 99.524,192.346 99.790,192.146 99.790 C 191.845 99.790,191.604 100.404,191.600 101.186 C 191.598 101.433,191.455 101.690,191.282 101.757 C 191.066 101.840,190.966 102.177,190.966 102.830 C 190.966 103.536,190.885 103.782,190.651 103.782 C 190.433 103.782,190.336 104.001,190.336 104.494 C 190.336 104.934,190.215 105.253,190.021 105.328 C 189.813 105.408,189.706 105.737,189.706 106.296 C 189.706 106.909,189.619 107.143,189.391 107.143 C 189.146 107.143,189.076 107.423,189.076 108.403 C 189.076 109.384,189.146 109.664,189.391 109.664 C 189.564 109.664,189.706 109.846,189.706 110.069 C 189.706 110.292,189.848 110.616,190.021 110.789 C 190.194 110.963,190.336 111.170,190.336 111.249 C 190.336 111.489,191.950 113.025,192.202 113.025 C 192.331 113.025,192.437 113.167,192.437 113.340 C 192.437 113.514,192.579 113.655,192.752 113.655 C 192.949 113.655,193.067 113.855,193.067 114.187 C 193.067 114.480,193.209 114.773,193.382 114.840 C 193.556 114.907,193.697 115.096,193.697 115.260 C 193.697 115.425,193.839 115.614,194.013 115.680 C 194.186 115.747,194.328 115.933,194.328 116.094 C 194.328 116.255,194.470 116.387,194.643 116.387 C 194.816 116.387,194.958 116.538,194.958 116.724 C 194.958 116.938,195.074 117.017,195.273 116.941 C 195.487 116.859,195.588 116.952,195.588 117.233 C 195.588 117.507,195.731 117.647,196.008 117.647 C 196.318 117.647,196.429 117.787,196.429 118.179 C 196.429 118.471,196.570 118.765,196.744 118.832 C 196.917 118.898,197.059 119.074,197.059 119.223 C 197.059 119.371,197.201 119.547,197.374 119.614 C 197.547 119.680,197.689 119.879,197.689 120.056 C 197.689 120.233,197.831 120.378,198.004 120.378 C 198.178 120.378,198.319 120.530,198.319 120.716 C 198.319 120.930,198.435 121.009,198.634 120.932 C 198.849 120.850,198.950 120.944,198.950 121.225 C 198.950 121.453,199.091 121.639,199.265 121.639 C 199.438 121.639,199.580 121.780,199.580 121.954 C 199.580 122.127,199.752 122.442,199.964 122.653 C 200.175 122.864,200.408 123.195,200.482 123.388 C 200.556 123.581,200.715 123.739,200.834 123.739 C 200.953 123.739,201.050 123.881,201.050 124.055 C 201.050 124.228,201.192 124.370,201.366 124.370 C 201.539 124.370,201.681 124.512,201.681 124.685 C 201.681 124.858,201.822 125.000,201.996 125.000 C 202.169 125.000,202.311 125.142,202.311 125.315 C 202.311 125.488,202.453 125.630,202.626 125.630 C 202.799 125.630,202.941 125.769,202.941 125.938 C 202.941 126.107,203.130 126.347,203.361 126.471 C 203.592 126.594,203.782 126.884,203.782 127.115 C 203.782 127.345,203.923 127.589,204.097 127.655 C 204.270 127.722,204.412 127.908,204.412 128.069 C 204.412 128.230,204.554 128.361,204.727 128.361 C 204.900 128.361,205.042 128.503,205.042 128.676 C 205.042 128.850,205.184 128.992,205.357 128.992 C 205.530 128.992,205.672 129.133,205.672 129.307 C 205.672 129.480,205.814 129.622,205.987 129.622 C 206.161 129.622,206.303 129.767,206.303 129.944 C 206.303 130.121,206.444 130.320,206.618 130.386 C 206.791 130.453,206.933 130.640,206.933 130.802 C 206.933 130.964,207.122 131.258,207.353 131.456 C 207.584 131.654,207.773 131.937,207.773 132.085 C 207.773 132.232,207.915 132.353,208.088 132.353 C 208.262 132.353,208.403 132.495,208.403 132.668 C 208.403 132.841,208.545 132.983,208.718 132.983 C 208.892 132.983,209.034 133.125,209.034 133.298 C 209.034 133.472,209.175 133.613,209.349 133.613 C 209.524 133.613,209.664 133.800,209.664 134.034 C 209.664 134.267,209.804 134.454,209.979 134.454 C 210.152 134.454,210.294 134.597,210.294 134.771 C 210.294 134.945,210.483 135.250,210.714 135.448 C 210.945 135.646,211.134 135.928,211.134 136.076 C 211.134 136.224,211.276 136.345,211.450 136.345 C 211.623 136.345,211.765 136.486,211.765 136.660 C 211.765 136.833,211.907 136.975,212.080 136.975 C 212.253 136.975,212.395 137.120,212.395 137.297 C 212.395 137.473,212.537 137.673,212.710 137.739 C 212.883 137.806,213.025 137.992,213.025 138.153 C 213.025 138.314,213.157 138.445,213.318 138.445 C 213.478 138.445,213.665 138.658,213.733 138.918 C 213.873 139.456,215.202 140.966,215.536 140.966 C 215.657 140.966,215.756 141.111,215.756 141.288 C 215.756 141.465,215.898 141.664,216.071 141.731 C 216.245 141.797,216.387 141.983,216.387 142.144 C 216.387 142.305,216.528 142.437,216.702 142.437 C 216.875 142.437,217.017 142.602,217.017 142.805 C 217.017 143.239,218.488 144.958,218.860 144.958 C 219.002 144.958,219.118 145.147,219.118 145.378 C 219.118 145.612,219.258 145.798,219.433 145.798 C 219.606 145.798,219.748 145.940,219.748 146.113 C 219.748 146.287,219.890 146.429,220.063 146.429 C 220.236 146.429,220.378 146.570,220.378 146.744 C 220.378 146.917,220.520 147.059,220.693 147.059 C 220.890 147.059,221.008 147.258,221.008 147.591 C 221.008 147.883,221.150 148.177,221.324 148.243 C 221.497 148.310,221.639 148.496,221.639 148.657 C 221.639 148.818,221.769 148.950,221.929 148.950 C 222.089 148.950,222.269 149.139,222.330 149.370 C 222.390 149.601,222.590 149.790,222.774 149.790 C 222.959 149.790,223.109 149.932,223.109 150.105 C 223.109 150.278,223.251 150.420,223.424 150.420 C 223.598 150.420,223.739 150.562,223.739 150.735 C 223.739 150.909,223.881 151.050,224.055 151.050 C 224.228 151.050,224.370 151.233,224.370 151.456 C 224.370 151.678,224.512 152.003,224.685 152.176 C 224.858 152.349,225.000 152.592,225.000 152.716 C 225.000 152.840,225.142 152.941,225.315 152.941 C 225.488 152.941,225.632 153.059,225.634 153.204 C 225.638 153.524,226.545 154.412,226.868 154.412 C 226.996 154.412,227.101 154.554,227.101 154.727 C 227.101 154.900,227.243 155.042,227.416 155.042 C 227.613 155.042,227.731 155.241,227.731 155.574 C 227.731 155.866,227.873 156.160,228.046 156.227 C 228.220 156.293,228.361 156.479,228.361 156.640 C 228.361 156.801,228.503 156.933,228.676 156.933 C 228.850 156.933,228.992 157.078,228.992 157.254 C 228.992 157.431,229.133 157.631,229.307 157.697 C 229.480 157.764,229.622 157.950,229.622 158.111 C 229.622 158.272,229.754 158.403,229.914 158.403 C 230.075 158.403,230.262 158.545,230.328 158.718 C 230.395 158.892,230.594 159.034,230.771 159.034 C 230.975 159.034,231.092 159.228,231.092 159.565 C 231.092 159.858,231.234 160.152,231.408 160.218 C 231.581 160.285,231.723 160.427,231.723 160.534 C 231.723 160.641,232.006 161.006,232.353 161.345 C 232.700 161.683,232.983 162.058,232.983 162.178 C 232.983 162.297,233.125 162.395,233.298 162.395 C 233.472 162.395,233.613 162.537,233.613 162.710 C 233.613 162.883,233.746 163.025,233.908 163.025 C 234.070 163.025,234.301 163.309,234.422 163.655 C 234.543 164.002,234.741 164.286,234.863 164.286 C 234.985 164.286,235.084 164.428,235.084 164.601 C 235.084 164.774,235.226 164.916,235.399 164.916 C 235.574 164.916,235.714 165.103,235.714 165.336 C 235.714 165.570,235.854 165.756,236.029 165.756 C 236.203 165.756,236.345 165.898,236.345 166.071 C 236.345 166.245,236.486 166.387,236.660 166.387 C 236.833 166.387,236.975 166.528,236.975 166.702 C 236.975 166.875,237.117 167.017,237.290 167.017 C 237.463 167.017,237.605 167.148,237.605 167.307 C 237.605 167.467,237.794 167.647,238.025 167.708 C 238.303 167.781,238.445 167.994,238.445 168.340 C 238.445 168.628,238.587 168.917,238.761 168.984 C 238.934 169.050,239.076 169.249,239.076 169.426 C 239.076 169.603,239.217 169.748,239.391 169.748 C 239.564 169.748,239.706 169.890,239.706 170.063 C 239.706 170.236,239.848 170.378,240.021 170.378 C 240.194 170.378,240.336 170.520,240.336 170.693 C 240.336 170.867,240.478 171.008,240.651 171.008 C 240.825 171.008,240.966 171.150,240.966 171.324 C 240.966 171.497,241.101 171.639,241.265 171.639 C 241.429 171.639,241.626 171.922,241.702 172.269 C 241.778 172.616,241.974 172.899,242.139 172.899 C 242.303 172.899,242.437 173.088,242.437 173.319 C 242.437 173.553,242.577 173.739,242.752 173.739 C 242.925 173.739,243.067 173.881,243.067 174.055 C 243.067 174.228,243.209 174.370,243.382 174.370 C 243.556 174.370,243.697 174.512,243.697 174.685 C 243.697 174.858,243.839 175.000,244.013 175.000 C 244.186 175.000,244.328 175.142,244.328 175.315 C 244.328 175.488,244.470 175.630,244.643 175.630 C 244.818 175.630,244.958 175.817,244.958 176.052 C 244.958 176.285,245.147 176.637,245.378 176.834 C 245.609 177.032,245.798 177.315,245.798 177.463 C 245.798 177.610,245.984 177.731,246.212 177.731 C 246.476 177.731,246.585 177.835,246.515 178.019 C 246.449 178.192,246.585 178.353,246.858 178.425 C 247.109 178.490,247.249 178.643,247.173 178.767 C 247.096 178.891,247.181 178.992,247.362 178.992 C 247.542 178.992,247.689 179.136,247.689 179.313 C 247.689 179.490,247.831 179.689,248.004 179.756 C 248.178 179.822,248.319 180.002,248.319 180.155 C 248.319 180.307,248.468 180.581,248.649 180.762 C 249.003 181.116,248.732 181.198,247.532 181.101 C 247.226 181.076,247.059 181.179,247.059 181.393 C 247.059 181.668,246.746 181.723,245.161 181.723 C 243.669 181.723,243.238 181.790,243.143 182.038 C 243.050 182.280,242.649 182.353,241.404 182.353 C 240.307 182.353,239.655 182.452,239.378 182.661 C 239.154 182.831,238.533 182.973,237.999 182.977 C 236.599 182.986,235.714 183.202,235.714 183.535 C 235.714 183.759,235.272 183.824,233.718 183.824 C 232.085 183.824,231.723 183.881,231.723 184.139 C 231.723 184.394,231.387 184.454,229.963 184.454 C 228.655 184.454,228.136 184.535,227.941 184.769 C 227.749 185.000,227.239 185.084,226.025 185.084 C 224.694 185.084,224.370 185.146,224.370 185.399 C 224.370 185.656,224.021 185.714,222.489 185.714 C 221.101 185.714,220.565 185.791,220.441 186.007 C 220.323 186.213,219.723 186.323,218.427 186.375 C 217.304 186.420,216.521 186.547,216.427 186.699 C 216.342 186.836,215.542 187.015,214.649 187.096 C 213.491 187.201,213.025 187.325,213.025 187.529 C 213.025 187.750,212.574 187.815,211.029 187.815 C 209.395 187.815,209.034 187.872,209.034 188.130 C 209.034 188.387,208.683 188.445,207.136 188.445 C 205.644 188.445,205.213 188.513,205.118 188.761 C 205.025 189.004,204.619 189.076,203.339 189.076 C 202.005 189.076,201.681 189.137,201.681 189.391 C 201.681 189.648,201.330 189.706,199.783 189.706 C 198.291 189.706,197.860 189.773,197.765 190.021 C 197.673 190.260,197.282 190.337,196.143 190.339 C 194.362 190.342,193.697 190.491,193.697 190.886 C 193.697 191.109,193.308 191.176,192.017 191.176 C 190.663 191.176,190.336 191.238,190.336 191.492 C 190.336 191.750,189.974 191.807,188.340 191.807 C 186.706 191.807,186.345 191.864,186.345 192.122 C 186.345 192.379,185.994 192.437,184.447 192.437 C 182.954 192.437,182.524 192.504,182.429 192.752 C 182.336 192.994,181.934 193.067,180.690 193.067 C 179.592 193.067,178.941 193.166,178.664 193.376 C 178.395 193.579,177.737 193.686,176.727 193.691 C 175.565 193.696,175.168 193.773,175.076 194.013 C 174.984 194.252,174.593 194.328,173.454 194.331 C 171.673 194.334,171.008 194.483,171.008 194.877 C 171.008 195.102,170.607 195.168,169.248 195.168 C 167.940 195.168,167.421 195.249,167.227 195.483 C 167.035 195.715,166.525 195.798,165.310 195.798 C 163.998 195.798,163.655 195.862,163.655 196.106 C 163.655 196.348,163.252 196.425,161.729 196.473 C 160.241 196.520,159.779 196.605,159.699 196.849 C 159.608 197.126,159.644 197.127,159.997 196.859 C 160.266 196.655,160.317 196.647,160.149 196.836 C 159.970 197.038,159.371 197.106,158.023 197.076 C 156.564 197.044,156.074 197.107,155.819 197.362 C 155.585 197.597,155.071 197.689,154.000 197.689 C 152.867 197.689,152.479 197.765,152.387 198.004 C 152.303 198.223,151.961 198.319,151.267 198.319 C 149.595 198.319,148.319 198.559,148.319 198.873 C 148.319 199.094,147.884 199.160,146.422 199.160 C 144.929 199.160,144.499 199.227,144.404 199.475 C 144.310 199.718,143.905 199.790,142.625 199.790 C 141.291 199.790,140.966 199.852,140.966 200.105 C 140.966 200.362,140.616 200.420,139.069 200.420 C 137.576 200.420,137.146 200.487,137.051 200.735 C 136.956 200.981,136.532 201.051,135.114 201.054 C 133.096 201.058,132.243 201.531,132.390 202.567 L 132.458 203.046 228.992 203.046 L 325.525 203.046 325.588 201.836 C 325.637 200.895,325.579 200.597,325.326 200.500 C 325.147 200.431,325.000 200.208,325.000 200.003 C 325.000 199.799,324.858 199.514,324.685 199.370 C 324.512 199.226,324.370 198.967,324.370 198.794 C 324.370 198.597,324.231 198.517,323.995 198.578 C 323.680 198.661,323.634 198.564,323.705 197.959 C 323.774 197.368,323.710 197.222,323.344 197.126 C 323.021 197.042,322.899 196.844,322.899 196.404 C 322.899 196.006,322.791 195.798,322.584 195.798 C 322.387 195.798,322.269 195.599,322.269 195.267 C 322.269 194.974,322.127 194.680,321.954 194.614 C 321.780 194.547,321.639 194.314,321.639 194.095 C 321.639 193.876,321.497 193.697,321.324 193.697 C 321.129 193.697,321.008 193.500,321.008 193.183 C 321.008 192.900,320.890 192.592,320.746 192.500 C 320.601 192.408,320.264 191.883,319.996 191.334 C 319.728 190.785,319.373 190.336,319.208 190.336 C 319.014 190.336,318.908 190.112,318.908 189.706 C 318.908 189.286,318.803 189.076,318.592 189.076 C 318.382 189.076,318.277 188.866,318.277 188.445 C 318.277 188.025,318.172 187.815,317.962 187.815 C 317.789 187.815,317.647 187.633,317.647 187.410 C 317.647 187.187,317.505 186.863,317.332 186.690 C 317.159 186.516,317.017 186.226,317.017 186.044 C 317.017 185.863,316.875 185.714,316.702 185.714 C 316.505 185.714,316.387 185.515,316.387 185.182 C 316.387 184.890,316.251 184.598,316.084 184.535 C 315.918 184.471,315.721 184.143,315.647 183.806 C 315.573 183.469,315.379 183.193,315.214 183.193 C 315.035 183.193,314.916 182.981,314.916 182.661 C 314.916 182.369,314.774 182.075,314.601 182.009 C 314.428 181.942,314.286 181.709,314.286 181.490 C 314.286 181.271,314.144 181.092,313.971 181.092 C 313.761 181.092,313.655 180.882,313.655 180.462 C 313.655 180.042,313.550 179.832,313.340 179.832 C 313.133 179.832,313.025 179.624,313.025 179.224 C 313.025 178.878,312.890 178.564,312.710 178.495 C 312.537 178.429,312.395 178.230,312.395 178.053 C 312.395 177.876,312.261 177.731,312.097 177.731 C 311.932 177.731,311.736 177.447,311.660 177.101 C 311.584 176.754,311.387 176.471,311.223 176.471 C 311.034 176.471,310.924 176.248,310.924 175.863 C 310.924 175.516,310.789 175.203,310.609 175.134 C 310.436 175.068,310.294 174.818,310.294 174.580 C 310.294 174.341,310.152 174.092,309.979 174.026 C 309.806 173.959,309.664 173.726,309.664 173.507 C 309.664 173.288,309.522 173.109,309.349 173.109 C 309.139 173.109,309.034 172.899,309.034 172.479 C 309.034 172.081,308.926 171.849,308.742 171.849 C 308.575 171.849,308.391 171.535,308.312 171.113 C 308.230 170.673,308.052 170.378,307.869 170.378 C 307.682 170.378,307.563 170.172,307.563 169.846 C 307.563 169.554,307.421 169.260,307.248 169.194 C 307.075 169.127,306.933 168.941,306.933 168.780 C 306.933 168.619,306.791 168.487,306.618 168.487 C 306.407 168.487,306.303 168.277,306.303 167.851 C 306.303 167.478,306.172 167.163,305.987 167.093 C 305.814 167.026,305.672 166.750,305.672 166.480 C 305.672 166.209,305.554 165.912,305.409 165.819 C 305.265 165.727,304.927 165.202,304.659 164.653 C 304.391 164.105,304.037 163.655,303.872 163.655 C 303.678 163.655,303.571 163.432,303.571 163.025 C 303.571 162.605,303.466 162.395,303.256 162.395 C 303.059 162.395,302.941 162.196,302.941 161.863 C 302.941 161.571,302.799 161.277,302.626 161.210 C 302.453 161.144,302.311 160.958,302.311 160.797 C 302.311 160.636,302.169 160.504,301.996 160.504 C 301.785 160.504,301.681 160.293,301.681 159.867 C 301.681 159.495,301.550 159.180,301.366 159.110 C 301.192 159.043,301.050 158.767,301.050 158.496 C 301.050 158.226,300.930 157.928,300.783 157.836 C 300.637 157.744,300.402 157.408,300.263 157.090 C 300.123 156.773,299.912 156.513,299.794 156.513 C 299.676 156.513,299.580 156.324,299.580 156.092 C 299.580 155.859,299.440 155.672,299.265 155.672 C 299.055 155.672,298.950 155.462,298.950 155.042 C 298.950 154.622,298.845 154.412,298.634 154.412 C 298.424 154.412,298.319 154.202,298.319 153.782 C 298.319 153.361,298.214 153.151,298.004 153.151 C 297.831 153.151,297.689 152.969,297.689 152.746 C 297.689 152.523,297.566 152.216,297.415 152.063 C 297.264 151.911,297.078 151.620,297.001 151.418 C 296.925 151.216,296.772 151.050,296.662 151.050 C 296.552 151.050,296.400 150.767,296.324 150.420 C 296.247 150.074,296.051 149.790,295.887 149.790 C 295.695 149.790,295.588 149.564,295.588 149.160 C 295.588 148.739,295.483 148.529,295.273 148.529 C 295.076 148.529,294.958 148.330,294.958 147.998 C 294.958 147.705,294.816 147.411,294.643 147.345 C 294.470 147.278,294.328 147.045,294.328 146.826 C 294.328 146.608,294.186 146.429,294.013 146.429 C 293.803 146.429,293.697 146.218,293.697 145.798 C 293.697 145.394,293.591 145.168,293.399 145.168 C 293.235 145.168,293.040 144.892,292.966 144.555 C 292.892 144.218,292.695 143.890,292.529 143.827 C 292.363 143.763,292.227 143.566,292.227 143.389 C 292.227 143.212,292.085 143.067,291.912 143.067 C 291.702 143.067,291.597 142.857,291.597 142.437 C 291.597 142.017,291.492 141.807,291.282 141.807 C 291.071 141.807,290.966 141.597,290.966 141.176 C 290.966 140.830,290.877 140.546,290.767 140.546 C 290.657 140.546,290.350 140.074,290.085 139.496 C 289.820 138.918,289.485 138.445,289.339 138.445 C 289.194 138.445,289.076 138.212,289.076 137.928 C 289.076 137.625,288.901 137.316,288.655 137.185 C 288.380 137.038,288.235 136.745,288.235 136.337 C 288.235 135.924,288.129 135.714,287.920 135.714 C 287.723 135.714,287.605 135.515,287.605 135.182 C 287.605 134.890,287.463 134.596,287.290 134.530 C 287.117 134.463,286.975 134.277,286.975 134.116 C 286.975 133.955,286.833 133.824,286.660 133.824 C 286.449 133.824,286.345 133.613,286.345 133.187 C 286.345 132.814,286.214 132.500,286.029 132.429 C 285.856 132.362,285.714 132.079,285.714 131.799 C 285.714 131.519,285.572 131.235,285.399 131.168 C 285.226 131.102,285.084 130.916,285.084 130.755 C 285.084 130.594,284.895 130.462,284.664 130.462 C 284.324 130.462,284.244 130.322,284.244 129.727 C 284.244 129.213,284.149 128.992,283.929 128.992 C 283.612 128.992,283.533 128.778,283.602 128.099 C 283.624 127.889,283.498 127.731,283.312 127.731 C 283.130 127.731,282.983 127.554,282.983 127.337 C 282.983 127.120,282.841 126.825,282.668 126.681 C 282.495 126.537,282.353 126.299,282.353 126.152 C 282.353 126.005,282.211 125.831,282.038 125.764 C 281.864 125.698,281.723 125.401,281.723 125.105 C 281.723 124.809,281.587 124.514,281.420 124.451 C 281.254 124.387,281.058 124.059,280.984 123.722 C 280.910 123.385,280.715 123.109,280.551 123.109 C 280.371 123.109,280.252 122.897,280.252 122.577 C 280.252 122.285,280.110 121.991,279.937 121.925 C 279.764 121.858,279.622 121.625,279.622 121.406 C 279.622 121.187,279.480 121.008,279.307 121.008 C 279.097 121.008,278.992 120.798,278.992 120.378 C 278.992 119.958,278.887 119.748,278.676 119.748 C 278.479 119.748,278.361 119.549,278.361 119.216 C 278.361 118.924,278.225 118.632,278.059 118.568 C 277.893 118.504,277.698 118.184,277.626 117.857 C 277.554 117.530,277.359 117.210,277.193 117.146 C 277.027 117.082,276.891 116.885,276.891 116.708 C 276.891 116.531,276.749 116.387,276.576 116.387 C 276.366 116.387,276.261 116.176,276.261 115.756 C 276.261 115.336,276.155 115.126,275.945 115.126 C 275.735 115.126,275.630 114.916,275.630 114.496 C 275.630 114.076,275.525 113.866,275.315 113.866 C 275.140 113.866,275.000 113.679,275.000 113.445 C 275.000 113.212,274.860 113.025,274.685 113.025 C 274.475 113.025,274.370 112.815,274.370 112.395 C 274.370 111.988,274.263 111.765,274.069 111.765 C 273.896 111.765,273.739 111.518,273.701 111.187 C 273.655 110.788,273.521 110.618,273.267 110.638 C 272.994 110.660,272.899 110.509,272.899 110.054 C 272.899 109.703,272.765 109.389,272.584 109.320 C 272.411 109.253,272.269 109.020,272.269 108.801 C 272.269 108.582,272.127 108.403,271.954 108.403 C 271.741 108.403,271.639 108.191,271.639 107.751 C 271.639 107.257,271.562 107.127,271.324 107.219 C 271.081 107.312,271.008 107.174,271.008 106.621 C 271.008 106.226,270.890 105.828,270.746 105.735 C 270.601 105.643,270.295 105.198,270.065 104.746 C 269.835 104.295,269.480 103.882,269.277 103.829 C 269.031 103.765,268.908 103.528,268.908 103.120 C 268.908 102.770,268.773 102.456,268.592 102.387 C 268.419 102.320,268.277 102.037,268.277 101.757 C 268.277 101.477,268.136 101.193,267.962 101.126 C 267.789 101.060,267.647 100.838,267.647 100.633 C 267.647 100.429,267.505 100.144,267.332 100.000 C 267.159 99.856,267.017 99.608,267.017 99.449 C 267.017 99.290,266.875 99.160,266.702 99.160 C 266.491 99.160,266.387 98.949,266.387 98.523 C 266.387 98.163,266.255 97.836,266.084 97.770 C 265.918 97.706,265.721 97.378,265.647 97.041 C 265.573 96.704,265.379 96.429,265.214 96.429 C 265.050 96.429,264.916 96.287,264.916 96.113 C 264.916 95.940,264.774 95.798,264.601 95.798 C 264.381 95.798,264.286 95.577,264.286 95.063 C 264.286 94.549,264.191 94.328,263.971 94.328 C 263.776 94.328,263.655 94.130,263.655 93.813 C 263.655 93.530,263.537 93.223,263.393 93.130 C 263.248 93.038,262.945 92.584,262.718 92.122 C 262.491 91.660,262.137 91.112,261.930 90.906 C 261.724 90.699,261.555 90.344,261.555 90.118 C 261.555 89.891,261.413 89.706,261.239 89.706 C 261.029 89.706,260.924 89.496,260.924 89.076 C 260.924 88.655,260.819 88.445,260.609 88.445 C 260.412 88.445,260.294 88.246,260.294 87.914 C 260.294 87.621,260.152 87.327,259.979 87.261 C 259.806 87.194,259.664 86.961,259.664 86.742 C 259.664 86.523,259.522 86.345,259.349 86.345 C 259.139 86.345,259.034 86.134,259.034 85.714 C 259.034 85.320,258.926 85.084,258.745 85.084 C 258.586 85.084,258.399 84.800,258.330 84.454 C 258.256 84.084,258.071 83.824,257.883 83.824 C 257.681 83.824,257.563 83.628,257.563 83.292 C 257.563 82.999,257.421 82.706,257.248 82.639 C 257.075 82.572,256.933 82.329,256.933 82.098 C 256.933 81.811,256.833 81.716,256.618 81.799 C 256.375 81.892,256.303 81.752,256.303 81.191 C 256.303 80.683,256.207 80.462,255.987 80.462 C 255.814 80.462,255.672 80.280,255.672 80.057 C 255.672 79.834,255.530 79.510,255.357 79.337 C 255.184 79.163,255.042 78.873,255.042 78.691 C 255.042 78.510,254.900 78.361,254.727 78.361 C 254.528 78.361,254.412 78.161,254.412 77.816 C 254.412 77.448,254.276 77.236,253.992 77.162 C 253.699 77.085,253.571 76.875,253.571 76.469 C 253.571 76.144,253.432 75.832,253.256 75.764 C 253.083 75.698,252.941 75.463,252.941 75.242 C 252.941 75.022,252.799 74.724,252.626 74.580 C 252.453 74.436,252.311 74.188,252.311 74.029 C 252.311 73.870,252.169 73.739,251.996 73.739 C 251.783 73.739,251.681 73.527,251.681 73.087 C 251.681 72.593,251.604 72.463,251.366 72.555 C 251.131 72.645,251.050 72.524,251.050 72.084 C 251.050 71.759,250.861 71.275,250.630 71.008 C 250.399 70.742,250.210 70.394,250.210 70.234 C 250.210 70.075,250.068 69.890,249.895 69.824 C 249.722 69.757,249.580 69.571,249.580 69.410 C 249.580 69.249,249.438 69.118,249.265 69.118 C 249.054 69.118,248.950 68.907,248.950 68.481 C 248.950 68.109,248.819 67.794,248.634 67.723 C 248.461 67.657,248.319 67.373,248.319 67.093 C 248.319 66.813,248.178 66.529,248.004 66.463 C 247.831 66.396,247.689 66.210,247.689 66.049 C 247.689 65.888,247.547 65.756,247.374 65.756 C 247.169 65.756,247.059 65.551,247.059 65.173 C 247.059 64.849,246.872 64.429,246.639 64.229 C 246.408 64.032,246.218 63.680,246.218 63.447 C 246.218 63.212,246.079 63.025,245.903 63.025 C 245.706 63.025,245.588 62.826,245.588 62.493 C 245.588 62.201,245.446 61.907,245.273 61.841 C 245.100 61.774,244.958 61.588,244.958 61.427 C 244.958 61.266,244.816 61.134,244.643 61.134 C 244.423 61.134,244.328 60.913,244.328 60.399 C 244.328 59.886,244.233 59.664,244.013 59.664 C 243.818 59.664,243.697 59.467,243.697 59.149 C 243.697 58.866,243.577 58.559,243.430 58.466 C 243.284 58.374,243.049 58.038,242.910 57.721 C 242.770 57.403,242.560 57.143,242.441 57.143 C 242.323 57.143,242.227 56.954,242.227 56.723 C 242.227 56.489,242.087 56.303,241.912 56.303 C 241.702 56.303,241.597 56.092,241.597 55.672 C 241.597 55.252,241.492 55.042,241.282 55.042 C 241.071 55.042,240.966 54.832,240.966 54.412 C 240.966 53.992,240.861 53.782,240.651 53.782 C 240.478 53.782,240.336 53.599,240.336 53.376 C 240.336 53.154,240.194 52.829,240.021 52.656 C 239.848 52.483,239.706 52.192,239.706 52.011 C 239.706 51.829,239.564 51.681,239.391 51.681 C 239.192 51.681,239.076 51.480,239.076 51.136 C 239.076 50.768,238.939 50.555,238.655 50.481 C 238.358 50.403,238.235 50.194,238.235 49.765 C 238.235 49.367,238.127 49.160,237.920 49.160 C 237.745 49.160,237.605 48.973,237.605 48.739 C 237.605 48.506,237.465 48.319,237.290 48.319 C 237.080 48.319,236.975 48.109,236.975 47.689 C 236.975 47.269,236.870 47.059,236.660 47.059 C 236.450 47.059,236.345 46.849,236.345 46.429 C 236.345 46.008,236.239 45.798,236.029 45.798 C 235.856 45.798,235.714 45.616,235.714 45.393 C 235.714 45.170,235.591 44.863,235.440 44.710 C 235.289 44.558,235.103 44.267,235.026 44.065 C 234.950 43.863,234.742 43.697,234.565 43.697 C 234.348 43.697,234.244 43.493,234.244 43.067 C 234.244 42.647,234.139 42.437,233.929 42.437 C 233.721 42.437,233.613 42.229,233.613 41.829 C 233.613 41.483,233.478 41.169,233.298 41.100 C 233.125 41.034,232.983 40.799,232.983 40.579 C 232.983 40.358,232.841 40.060,232.668 39.916 C 232.495 39.772,232.353 39.524,232.353 39.365 C 232.353 39.206,232.211 39.076,232.038 39.076 C 231.842 39.076,231.723 38.877,231.723 38.550 C 231.723 38.262,231.534 37.836,231.303 37.605 C 231.071 37.374,230.882 36.996,230.882 36.765 C 230.882 36.531,230.742 36.345,230.567 36.345 C 230.370 36.345,230.252 36.145,230.252 35.813 C 230.252 35.520,230.110 35.227,229.937 35.160 C 229.764 35.093,229.622 34.907,229.622 34.746 C 229.622 34.585,229.480 34.454,229.307 34.454 C 229.096 34.454,228.992 34.243,228.992 33.817 C 228.992 33.445,228.861 33.130,228.676 33.059 C 228.503 32.993,228.361 32.766,228.361 32.556 C 228.361 32.345,228.220 32.031,228.046 31.858 C 227.873 31.684,227.731 31.441,227.731 31.318 C 227.731 31.194,227.599 31.092,227.438 31.092 C 227.117 31.092,226.891 30.651,226.891 30.025 C 226.891 29.803,226.749 29.622,226.576 29.622 C 226.366 29.622,226.261 29.412,226.261 28.992 C 226.261 28.571,226.155 28.361,225.945 28.361 C 225.772 28.361,225.630 28.179,225.630 27.956 C 225.630 27.733,225.507 27.426,225.356 27.273 C 225.205 27.121,225.019 26.830,224.942 26.628 C 224.866 26.426,224.706 26.261,224.586 26.261 C 224.467 26.261,224.370 26.021,224.370 25.729 C 224.370 25.436,224.239 25.147,224.078 25.085 C 223.918 25.023,223.731 24.696,223.663 24.356 C 223.592 23.998,223.406 23.739,223.220 23.739 C 223.017 23.739,222.899 23.544,222.899 23.208 C 222.899 22.915,222.757 22.621,222.584 22.555 C 222.411 22.488,222.269 22.255,222.269 22.036 C 222.269 21.818,222.137 21.639,221.976 21.639 C 221.815 21.639,221.629 21.497,221.563 21.324 C 221.440 21.004,220.774 20.892,220.518 21.148 " stroke="none" fill="#1464bc" fill-rule="evenodd"></path><path id="path1" d="" stroke="none" fill="#1864bc" fill-rule="evenodd"></path><path id="path2" d="" stroke="none" fill="#1864bc" fill-rule="evenodd"></path><path id="path3" d="" stroke="none" fill="#1864bc" fill-rule="evenodd"></path><path id="path4" d="" stroke="none" fill="#1864bc" fill-rule="evenodd"></path></g></svg>