<?xml version="1.0" encoding="utf-8"?>
<!-- Generator: Adobe Illustrator 21.1.0, SVG Export Plug-In . SVG Version: 6.00 Build 0)  -->
<svg version="1.1" id="Layer_1" xmlns="http://www.w3.org/2000/svg" xmlns:xlink="http://www.w3.org/1999/xlink" x="0px" y="0px"
	 viewBox="0 0 28 28" style="enable-background:new 0 0 28 28;" xml:space="preserve">
<style type="text/css">
	.st0{fill:#FFFFFF;}
</style>
<g>
	<g>
		<path class="st0" d="M20.4,5.8c0.5,0,0.9,0.2,1.3,0.5c0.4,0.4,0.6,0.8,0.6,1.3v14.7c0,0.5-0.2,0.9-0.6,1.3
			c-0.4,0.4-0.8,0.5-1.3,0.5H7.6c-0.5,0-0.9-0.2-1.3-0.5c-0.4-0.4-0.6-0.8-0.6-1.3V7.6c0-0.5,0.2-0.9,0.6-1.3C6.7,6,7.1,5.8,7.6,5.8
			h3.8c0.2-0.5,0.5-1,1-1.3c0.5-0.3,1-0.5,1.6-0.5s1.1,0.2,1.6,0.5c0.5,0.3,0.8,0.8,1,1.3H20.4z M20.4,22.3V7.6h-1.8v2.8H9.4V7.6
			H7.6v14.7H20.4z M14.6,6c-0.2-0.2-0.4-0.3-0.6-0.3S13.5,5.9,13.4,6s-0.3,0.4-0.3,0.6s0.1,0.5,0.3,0.6s0.4,0.3,0.6,0.3
			s0.5-0.1,0.6-0.3s0.3-0.4,0.3-0.6S14.8,6.2,14.6,6z"/>
	</g>
	<g>
		<path class="st0" d="M13.5,22v-1.2c-0.7,0-1.4-0.2-1.8-0.5l0.3-0.8c0.4,0.3,1.1,0.5,1.7,0.5c0.9,0,1.4-0.5,1.4-1.2
			c0-0.7-0.5-1.1-1.4-1.4c-1.2-0.5-2-1-2-2.1c0-1,0.7-1.8,1.8-1.9v-1.2h0.7v1.2c0.7,0,1.2,0.2,1.6,0.4l-0.3,0.8
			c-0.3-0.1-0.7-0.4-1.5-0.4c-0.9,0-1.3,0.6-1.3,1c0,0.6,0.4,0.9,1.5,1.4c1.2,0.5,1.9,1.1,1.9,2.2c0,0.9-0.7,1.8-1.9,2V22H13.5z"/>
	</g>
</g>
</svg>
