<?xml version="1.0" encoding="utf-8"?>
<!-- Generator: Adobe Illustrator 21.1.0, SVG Export Plug-In . SVG Version: 6.00 Build 0)  -->
<svg version="1.1" id="Layer_1" xmlns="http://www.w3.org/2000/svg" xmlns:xlink="http://www.w3.org/1999/xlink" x="0px" y="0px"
	 viewBox="0 0 28 28" style="enable-background:new 0 0 28 28;" xml:space="preserve">
<style type="text/css">
	.st0{fill:#FFFFFF;}
	.st1{fill:#576071;}
</style>
<g>
	<g>
		<path class="st0" d="M21.9,12.7c-0.4,0.4-0.5,0.8-0.5,1.3c0,0.5,0.2,0.9,0.5,1.3c0.4,0.4,0.8,0.6,1.3,0.6v3.7
			c0,0.5-0.2,0.9-0.5,1.3c-0.4,0.4-0.8,0.6-1.3,0.6H6.7c-0.5,0-0.9-0.2-1.3-0.6C5,20.4,4.8,20,4.8,19.5v-3.7c0.5,0,0.9-0.2,1.3-0.5
			C6.5,15,6.7,14.5,6.7,14c0-0.5-0.2-0.9-0.5-1.3c-0.4-0.4-0.8-0.6-1.3-0.6V8.5C4.8,8,5,7.6,5.4,7.2c0.4-0.4,0.8-0.6,1.3-0.6h14.7
			c0.5,0,0.9,0.2,1.3,0.6C23,7.6,23.2,8,23.2,8.5v3.7C22.7,12.2,22.2,12.3,21.9,12.7z M17.3,18.4l-1-3.7l3-2.5l-3.9-0.2L14,8.3
			l-1.4,3.6l-3.9,0.2l3.1,2.5l-1,3.7l3.3-2.1L17.3,18.4z"/>
	</g>
	<g>
		<path class="st1" d="M20,14.9c0,0.1-0.1,0.3-0.2,0.3l-1.4,0.2c-0.1,0.3-0.2,0.5-0.3,0.7c0.3,0.4,0.5,0.7,0.8,1.1
			c0,0.1,0.1,0.1,0.1,0.2s0,0.1-0.1,0.2c-0.2,0.3-1.2,1.4-1.5,1.4c-0.1,0-0.1,0-0.2-0.1L16.1,18c-0.2,0.1-0.5,0.2-0.7,0.3
			c-0.1,0.5-0.1,1-0.2,1.5c0,0.1-0.1,0.2-0.3,0.2h-1.7c-0.1,0-0.3-0.1-0.3-0.2l-0.2-1.4c-0.2-0.1-0.5-0.2-0.7-0.3l-1.1,0.8
			c-0.1,0-0.1,0.1-0.2,0.1s-0.1,0-0.2-0.1c-0.4-0.4-1-0.9-1.3-1.3c0-0.1-0.1-0.1-0.1-0.2c0-0.1,0-0.1,0.1-0.2
			c0.3-0.4,0.6-0.7,0.8-1.1c-0.1-0.3-0.2-0.5-0.3-0.8l-1.4-0.2C8.1,15.1,8,15,8,14.9v-1.7c0-0.1,0.1-0.3,0.2-0.3l1.5-0.2
			c0.1-0.3,0.2-0.5,0.3-0.7c-0.3-0.4-0.5-0.7-0.8-1.1c0-0.1-0.1-0.1-0.1-0.2s0-0.1,0.1-0.2c0.2-0.3,1.2-1.4,1.5-1.4
			c0.1,0,0.1,0,0.2,0.1l1.1,0.8c0.2-0.1,0.5-0.2,0.7-0.3c0.1-0.5,0.1-1,0.2-1.5C12.9,8.1,13,8,13.1,8h1.7c0.1,0,0.3,0.1,0.3,0.2
			l0.2,1.4c0.2,0.1,0.5,0.2,0.7,0.3l1.1-0.8c0,0,0.1-0.1,0.2-0.1s0.1,0,0.2,0.1c0.4,0.4,1,0.9,1.3,1.3c0,0,0.1,0.1,0.1,0.2
			c0,0.1,0,0.1-0.1,0.2c-0.3,0.4-0.6,0.7-0.8,1.1c0.1,0.3,0.2,0.5,0.3,0.8l1.4,0.2c0.1,0,0.2,0.1,0.2,0.3V14.9z M14,12
			c-1.1,0-2,0.9-2,2s0.9,2,2,2s2-0.9,2-2S15.1,12,14,12z"/>
	</g>
</g>
</svg>
