<?xml version="1.0" encoding="utf-8"?>
<!-- Generator: Adobe Illustrator 21.1.0, SVG Export Plug-In . SVG Version: 6.00 Build 0)  -->
<svg version="1.1" id="Layer_1" xmlns="http://www.w3.org/2000/svg" xmlns:xlink="http://www.w3.org/1999/xlink" x="0px" y="0px"
	 viewBox="0 0 28 28" style="enable-background:new 0 0 28 28;" xml:space="preserve">
<style type="text/css">
	.st0{fill-rule:evenodd;clip-rule:evenodd;fill:#FFFFFF;}
	.st1{fill:#FFFFFF;}
</style>
<g>
	<g id="Ellipse_9">
		<g>
			<path class="st0" d="M19.2,4.5h-16c-0.6,0-1,0.4-1,1v5c0,0.6,0.4,1,1,1H12c1.5-1.8,3.7-3,6.2-3c0.7,0,1.4,0.1,2,0.3V5.5
				C20.3,4.9,19.8,4.5,19.2,4.5z M6.3,9.5c-1.1,0-2-0.9-2-2c0-1.1,0.9-2,2-2c1.1,0,2,0.9,2,2C8.3,8.6,7.4,9.5,6.3,9.5z M10.5,14.5
				H3.2c-0.6,0-1,0.4-1,1v5c0,0.6,0.4,1,1,1H12c-1.1-1.4-1.8-3.1-1.8-5C10.3,15.8,10.3,15.1,10.5,14.5z M6.3,19.5c-1.1,0-2-0.9-2-2
				c0-1.1,0.9-2,2-2c1.1,0,2,0.9,2,2C8.3,18.6,7.4,19.5,6.3,19.5z"/>
		</g>
	</g>
	<g>
		<path class="st1" d="M24.8,23.5c-0.3,0-0.5-0.1-0.7-0.3l-2.7-2.7c-0.9,0.6-2,1-3.1,1c-3,0-5.5-2.5-5.5-5.5s2.5-5.5,5.5-5.5
			s5.5,2.5,5.5,5.5c0,1.1-0.3,2.2-1,3.1l2.7,2.7c0.2,0.2,0.3,0.4,0.3,0.7C25.8,23,25.3,23.5,24.8,23.5z M18.3,12.5
			c-1.9,0-3.5,1.6-3.5,3.5s1.6,3.5,3.5,3.5s3.5-1.6,3.5-3.5S20.2,12.5,18.3,12.5z"/>
	</g>
</g>
</svg>
