<?xml version="1.0" encoding="utf-8"?>
<!-- Generator: Adobe Illustrator 21.1.0, SVG Export Plug-In . SVG Version: 6.00 Build 0)  -->
<svg version="1.1" id="Layer_1" xmlns="http://www.w3.org/2000/svg" xmlns:xlink="http://www.w3.org/1999/xlink" x="0px" y="0px"
	 viewBox="0 0 28 28" style="enable-background:new 0 0 28 28;" xml:space="preserve">
<style type="text/css">
	.st0{fill:#FFFFFF;}
</style>
<g>
	<g>
		<path class="st0" d="M25.8,18.3c0,1.1-0.9,2-2,2h-9v1.6h4.3c0.2,0,0.4,0.2,0.4,0.4V23c0,0.2-0.2,0.4-0.4,0.4H8.9
			c-0.2,0-0.4-0.2-0.4-0.4v-0.8c0-0.2,0.2-0.4,0.4-0.4h4.3v-1.6h-9c-1.1,0-2-0.9-2-2V6.5c0-1.1,0.9-2,2-2h19.7c1.1,0,2,0.9,2,2V18.3
			z M24.2,6.5c0-0.2-0.2-0.4-0.4-0.4H4.2C4,6.1,3.8,6.3,3.8,6.5v11.8c0,0.2,0.2,0.4,0.4,0.4h19.7c0.2,0,0.4-0.2,0.4-0.4V6.5z"/>
	</g>
	<g>
		<path class="st0" d="M18.5,16.6H7.2V8.1h0.7v7.8h10.6V16.6z M17.8,11.4c0,0.2-0.2,0.2-0.3,0.1l-0.7-0.7l-3.5,3.5
			c-0.1,0.1-0.2,0.1-0.3,0l-1.3-1.3l-2.3,2.3l-1.1-1.1l3.2-3.2c0.1-0.1,0.2-0.1,0.3,0l1.3,1.3l2.6-2.6l-0.7-0.7
			c-0.1-0.1,0-0.3,0.1-0.3h2.4c0.1,0,0.2,0.1,0.2,0.2V11.4z"/>
	</g>
</g>
</svg>
