<?xml version="1.0" encoding="utf-8"?>
<!-- Generator: Adobe Illustrator 21.1.0, SVG Export Plug-In . SVG Version: 6.00 Build 0)  -->
<svg version="1.1" id="Layer_1" xmlns="http://www.w3.org/2000/svg" xmlns:xlink="http://www.w3.org/1999/xlink" x="0px" y="0px"
	 viewBox="0 0 28 28" style="enable-background:new 0 0 28 28;" xml:space="preserve">
<style type="text/css">
	.st0{fill-rule:evenodd;clip-rule:evenodd;fill:#FFFFFF;}
	.st1{fill:#FFFFFF;}
</style>
<g>
	<g id="Ellipse_8">
		<g>
			<path class="st0" d="M10,14.5c0.3-1.1,0.8-2,1.5-2.9c-0.4,0-0.8,0.1-1.3,0.1c-5.2,0-7.5-2.5-7.5-2.5v2.8C2.7,12.1,5,14.5,10,14.5
				z M10.1,18.8c-0.2-0.7-0.4-1.5-0.4-2.3c0-0.2,0-0.4,0-0.6c-4.9-0.1-7-2.4-7-2.4v2.8C2.7,16.3,5,18.7,10.1,18.8z M10.7,20.2
				c-0.2,0-0.3,0-0.5,0c-5.2,0-7.5-2.5-7.5-2.5v2.8c0,0,2.3,2.5,7.4,2.5c1.1,0,2.1-0.1,3-0.2C12.1,22.1,11.3,21.2,10.7,20.2z
				 M10.3,4C6.1,4,2.8,5.3,2.8,7s3.4,3,7.5,3c4.1,0,7.5-1.3,7.5-3S14.4,4,10.3,4z"/>
		</g>
	</g>
	<g>
		<path class="st1" d="M24.3,24c-0.3,0-0.5-0.1-0.7-0.3L20.9,21c-0.9,0.6-2,1-3.1,1c-3,0-5.5-2.5-5.5-5.5s2.5-5.5,5.5-5.5
			s5.5,2.5,5.5,5.5c0,1.1-0.3,2.2-1,3.1l2.7,2.7c0.2,0.2,0.3,0.4,0.3,0.7C25.3,23.5,24.8,24,24.3,24z M17.8,13
			c-1.9,0-3.5,1.6-3.5,3.5s1.6,3.5,3.5,3.5s3.5-1.6,3.5-3.5S19.7,13,17.8,13z"/>
	</g>
</g>
</svg>
