<?xml version="1.0" encoding="utf-8"?>
<!-- Generator: Adobe Illustrator 21.1.0, SVG Export Plug-In . SVG Version: 6.00 Build 0)  -->
<svg version="1.1" id="Layer_1" xmlns="http://www.w3.org/2000/svg" xmlns:xlink="http://www.w3.org/1999/xlink" x="0px" y="0px"
	 viewBox="0 0 28 28" style="enable-background:new 0 0 28 28;" xml:space="preserve">
<style type="text/css">
	.st0{fill-rule:evenodd;clip-rule:evenodd;fill:#FFFFFF;}
	.st1{fill:#FFFFFF;}
</style>
<g>
	<g id="Rectangle_5">
		<g>
			<path class="st0" d="M22.8,10.5c0,0,0.3-2.2-1.6-3.4c-2.1-1.2-3.7,0.3-3.7,0.3s-1.6-4.9-6.8-4.3c-6.1,0.8-5.6,7.4-5.6,7.4
				S0.7,11.4,1,16c0.6,4.1,4.8,4.1,4.8,4.1H6v-1H5.9c0,0-2.4,0-2.9-3.4c-0.2-3.7,3.3-4.4,3.3-4.4s-0.4-5.5,4.5-6.1
				c4.2-0.4,5.5,3.6,5.5,3.6s2.3-1.3,4-0.2c1.5,1,1.3,2.8,1.3,2.8s3.4,0.7,3.4,4.3c-0.1,3.6-2.7,3.6-2.7,3.6H22v1h0.4
				c0,0,4.5,0,4.6-4.4C27,11.4,22.8,10.5,22.8,10.5z"/>
		</g>
	</g>
	<g>
		<path class="st1" d="M19.6,13.8v0.9c0,1-2.5,1.9-5.6,1.9s-5.6-0.8-5.6-1.9v-0.9c0-1,2.5-1.9,5.6-1.9S19.6,12.8,19.6,13.8z
			 M19.6,16.3v1.2c0,1-2.5,1.9-5.6,1.9s-5.6-0.8-5.6-1.9v-1.2c1.2,0.8,3.4,1.2,5.6,1.2S18.4,17.1,19.6,16.3z M19.6,19.1v1.2
			c0,1-2.5,1.9-5.6,1.9s-5.6-0.8-5.6-1.9v-1.2c1.2,0.8,3.4,1.2,5.6,1.2S18.4,19.9,19.6,19.1z M19.6,21.8v1.2c0,1-2.5,1.9-5.6,1.9
			s-5.6-0.8-5.6-1.9v-1.2c1.2,0.8,3.4,1.2,5.6,1.2S18.4,22.7,19.6,21.8z"/>
	</g>
</g>
</svg>
