<?xml version="1.0" encoding="utf-8"?>
<!-- Generator: Adobe Illustrator 21.1.0, SVG Export Plug-In . SVG Version: 6.00 Build 0)  -->
<svg version="1.1" id="Layer_1" xmlns="http://www.w3.org/2000/svg" xmlns:xlink="http://www.w3.org/1999/xlink" x="0px" y="0px"
	 viewBox="0 0 28 28" style="enable-background:new 0 0 28 28;" xml:space="preserve">
<style type="text/css">
	.st0{fill:#FFFFFF;}
</style>
<g>
	<path class="st0" d="M6.7,8.5v10.1h9.2v2.8H3v-2.8h1.8V8.5C4.8,8,5,7.6,5.4,7.2c0.4-0.4,0.8-0.6,1.3-0.6h16.5v1.8H6.7z M24.1,10.3
		c0.3,0,0.5,0.1,0.6,0.3S25,11,25,11.3v9.2c0,0.3-0.1,0.5-0.3,0.7c-0.2,0.2-0.4,0.3-0.6,0.3h-5.5c-0.3,0-0.5-0.1-0.7-0.3
		c-0.2-0.2-0.3-0.4-0.3-0.7v-9.2c0-0.3,0.1-0.5,0.3-0.6c0.2-0.2,0.4-0.3,0.7-0.3H24.1z M23.2,18.6v-6.4h-3.7v6.4H23.2z"/>
</g>
</svg>
