<?xml version="1.0" encoding="utf-8"?>
<!-- Generator: Adobe Illustrator 21.1.0, SVG Export Plug-In . SVG Version: 6.00 Build 0)  -->
<svg version="1.1" id="Layer_1" xmlns="http://www.w3.org/2000/svg" xmlns:xlink="http://www.w3.org/1999/xlink" x="0px" y="0px"
	 viewBox="0 0 28 28" style="enable-background:new 0 0 28 28;" xml:space="preserve">
<style type="text/css">
	.st0{fill-rule:evenodd;clip-rule:evenodd;fill:#FFFFFF;}
	.st1{fill:#FFFFFF;}
</style>
<g>
	<g id="Rectangle_6">
		<g>
			<path class="st0" d="M24.3,10.9L24,10c-0.3-1-1.3-1.6-2.3-1.3L20.5,9c-0.4-0.6-0.9-1.2-1.4-1.8l0.7-1.4c0.5-0.9,0.2-2-0.8-2.6
				l-0.8-0.5c-0.9-0.5-2.1-0.2-2.6,0.7L15,4.9c-0.7-0.2-1.5-0.3-2.3-0.3l-0.4-1.2C12,2.3,11,1.7,10,2L9.1,2.3
				c-1,0.3-1.6,1.3-1.3,2.3l0.4,1.2C7.5,6.2,6.9,6.7,6.3,7.2L5,6.5C4.1,5.9,2.9,6.3,2.4,7.2L2,8c-0.5,0.9-0.2,2,0.8,2.6l1.4,0.8
				C4,12,3.9,12.8,3.9,13.5l-1.2,0.3c-1,0.3-1.6,1.3-1.3,2.3L1.7,17c0.3,1,1.3,1.6,2.3,1.3L5.3,18c0.4,0.7,0.9,1.2,1.4,1.8l-0.8,1.4
				c-0.5,0.9-0.2,2,0.8,2.6l0.8,0.5c0.9,0.5,2.1,0.2,2.6-0.7l0.8-1.4c0.7,0.2,1.5,0.3,2.2,0.3l0.3,1.2c0.3,1,1.3,1.6,2.3,1.3
				l0.9-0.2c0.8-0.2,1.3-1,1.3-1.8l-3.4-2.6c-0.2,0-0.4,0.1-0.6,0.1c-3.6,0-6.6-3-6.6-6.7s2.9-6.7,6.6-6.7s6.6,1,6.6,4.7
				c0,0.4,0,0.8-0.1,1.2l1.4,1.2c0-0.2,0-0.4,0-0.6l1.2-0.3C24,12.9,24.6,11.9,24.3,10.9z"/>
		</g>
	</g>
	<g>
		<path class="st1" d="M12,15.5c0.1-0.1,0.1-0.1,0.2-0.1c0.1,0,0.3,0.1,0.6,0.3c0.4,0.2,0.8,0.5,1.2,0.7s0.7,0.4,0.7,0.4l1.7-1v-2
			l-2.6-1.5c-0.1-0.1-0.1-0.1-0.1-0.3s0-0.2,0.1-0.3c0.3-0.2,0.6-0.3,1-0.4c0.4-0.1,0.7-0.1,1.1-0.1c1.1,0,2,0.4,2.8,1.2
			c0.8,0.8,1.2,1.7,1.2,2.8c0,1.1-0.4,2-1.2,2.8C18,19,17.1,19.4,16,19.4c-0.8,0-1.6-0.2-2.3-0.7c-0.7-0.5-1.2-1.1-1.5-1.9
			C12,16.3,12,16,12,15.7C12,15.7,12,15.6,12,15.5z M19.2,18.6c0.4-0.4,0.8-1,1-1.5l6.1,6.1c0.2,0.2,0.3,0.5,0.3,0.8
			c0,0.3-0.1,0.6-0.3,0.8l-0.9,1c-0.2,0.2-0.5,0.3-0.8,0.3c-0.3,0-0.6-0.1-0.8-0.3l-6.1-6.1C18.2,19.4,18.7,19.1,19.2,18.6z
			 M24,23.9c0.2,0,0.3-0.1,0.4-0.2c0.1-0.1,0.2-0.2,0.2-0.4c0-0.2-0.1-0.3-0.2-0.4c-0.1-0.1-0.2-0.2-0.4-0.2c-0.2,0-0.3,0.1-0.4,0.2
			c-0.1,0.1-0.2,0.2-0.2,0.4c0,0.2,0.1,0.3,0.2,0.4C23.7,23.9,23.8,23.9,24,23.9z"/>
	</g>
</g>
</svg>
