<?xml version="1.0" encoding="utf-8"?>
<!-- Generator: Adobe Illustrator 21.1.0, SVG Export Plug-In . SVG Version: 6.00 Build 0)  -->
<svg version="1.1" id="Layer_1" xmlns="http://www.w3.org/2000/svg" xmlns:xlink="http://www.w3.org/1999/xlink" x="0px" y="0px"
	 viewBox="0 0 28 28" style="enable-background:new 0 0 28 28;" xml:space="preserve">
<style type="text/css">
	.st0{fill:#FFFFFF;}
</style>
<g>
	<path class="st0" d="M12.9,23c-0.6,0.5-1.5,0.5-2,0l-1.4-1.4c0.8-0.8,0.8-2.2,0-3s-2.2-0.8-3,0L5,17.1c-0.6-0.5-0.6-1.5,0-2L15.1,5
		c0.5-0.6,1.5-0.6,2,0l1.4,1.4c-0.8,0.8-0.8,2.2,0,3c0.8,0.8,2.2,0.8,3,0l1.4,1.4c0.5,0.6,0.5,1.5,0,2L12.9,23z M20,13.1
		c0.3-0.3,0.3-0.7,0-1l-4-4c-0.3-0.3-0.7-0.3-1,0L8,14.9c-0.3,0.3-0.3,0.7,0,1l4,4c0.1,0.1,0.3,0.2,0.5,0.2c0.2,0,0.4-0.1,0.5-0.2
		L20,13.1z M19,12.6L12.6,19L9,15.4L15.4,9L19,12.6z"/>
</g>
</svg>
