<?xml version="1.0" encoding="utf-8"?>
<!-- Generator: Adobe Illustrator 21.1.0, SVG Export Plug-In . SVG Version: 6.00 Build 0)  -->
<svg version="1.1" id="Layer_1" xmlns="http://www.w3.org/2000/svg" xmlns:xlink="http://www.w3.org/1999/xlink" x="0px" y="0px"
	 viewBox="0 0 28 28" style="enable-background:new 0 0 28 28;" xml:space="preserve">
<style type="text/css">
	.st0{fill:#FFFFFF;}
	.st1{fill-rule:evenodd;clip-rule:evenodd;fill:#576071;}
</style>
<g>
	<g>
		<path class="st0" d="M19.8,3.8v20.4c0,0.4-0.4,0.8-0.8,0.8H3.3c-0.4,0-0.8-0.4-0.8-0.8V3.8C2.5,3.4,2.9,3,3.3,3H19
			C19.5,3,19.8,3.4,19.8,3.8z M7.3,6.5c0-0.2-0.2-0.4-0.4-0.4H6.1c-0.2,0-0.4,0.2-0.4,0.4v0.8c0,0.2,0.2,0.4,0.4,0.4h0.8
			c0.2,0,0.4-0.2,0.4-0.4V6.5z M7.3,9.7c0-0.2-0.2-0.4-0.4-0.4H6.1c-0.2,0-0.4,0.2-0.4,0.4v0.8c0,0.2,0.2,0.4,0.4,0.4h0.8
			c0.2,0,0.4-0.2,0.4-0.4V9.7z M7.3,12.8c0-0.2-0.2-0.4-0.4-0.4H6.1c-0.2,0-0.4,0.2-0.4,0.4v0.8c0,0.2,0.2,0.4,0.4,0.4h0.8
			c0.2,0,0.4-0.2,0.4-0.4V12.8z M7.3,16c0-0.2-0.2-0.4-0.4-0.4H6.1c-0.2,0-0.4,0.2-0.4,0.4v0.8c0,0.2,0.2,0.4,0.4,0.4h0.8
			c0.2,0,0.4-0.2,0.4-0.4V16z M7.3,19.1c0-0.2-0.2-0.4-0.4-0.4H6.1c-0.2,0-0.4,0.2-0.4,0.4v0.8c0,0.2,0.2,0.4,0.4,0.4h0.8
			c0.2,0,0.4-0.2,0.4-0.4V19.1z M8.8,7.3c0,0.2,0.2,0.4,0.4,0.4H10c0.2,0,0.4-0.2,0.4-0.4V6.5c0-0.2-0.2-0.4-0.4-0.4H9.2
			C9,6.1,8.8,6.3,8.8,6.5V7.3z M8.8,10.5c0,0.2,0.2,0.4,0.4,0.4H10c0.2,0,0.4-0.2,0.4-0.4V9.7c0-0.2-0.2-0.4-0.4-0.4H9.2
			C9,9.3,8.8,9.5,8.8,9.7V10.5z M8.8,13.6C8.8,13.8,9,14,9.2,14H10c0.2,0,0.4-0.2,0.4-0.4v-0.8c0-0.2-0.2-0.4-0.4-0.4H9.2
			c-0.2,0-0.4,0.2-0.4,0.4V13.6z M8.8,16.8c0,0.2,0.2,0.4,0.4,0.4H10c0.2,0,0.4-0.2,0.4-0.4V16c0-0.2-0.2-0.4-0.4-0.4H9.2
			c-0.2,0-0.4,0.2-0.4,0.4V16.8z M13.5,20.7c0-0.2-0.2-0.4-0.4-0.4H9.2c-0.2,0-0.4,0.2-0.4,0.4V23c0,0.2,0.2,0.4,0.4,0.4h3.9
			c0.2,0,0.4-0.2,0.4-0.4V20.7z M13.5,6.5c0-0.2-0.2-0.4-0.4-0.4h-0.8c-0.2,0-0.4,0.2-0.4,0.4v0.8c0,0.2,0.2,0.4,0.4,0.4h0.8
			c0.2,0,0.4-0.2,0.4-0.4V6.5z M13.5,9.7c0-0.2-0.2-0.4-0.4-0.4h-0.8c-0.2,0-0.4,0.2-0.4,0.4v0.8c0,0.2,0.2,0.4,0.4,0.4h0.8
			c0.2,0,0.4-0.2,0.4-0.4V9.7z M13.5,12.8c0-0.2-0.2-0.4-0.4-0.4h-0.8c-0.2,0-0.4,0.2-0.4,0.4v0.8c0,0.2,0.2,0.4,0.4,0.4h0.8
			c0.2,0,0.4-0.2,0.4-0.4V12.8z M13.5,16c0-0.2-0.2-0.4-0.4-0.4h-0.8c-0.2,0-0.4,0.2-0.4,0.4v0.8c0,0.2,0.2,0.4,0.4,0.4h0.8
			c0.2,0,0.4-0.2,0.4-0.4V16z M16.7,6.5c0-0.2-0.2-0.4-0.4-0.4h-0.8c-0.2,0-0.4,0.2-0.4,0.4v0.8c0,0.2,0.2,0.4,0.4,0.4h0.8
			c0.2,0,0.4-0.2,0.4-0.4V6.5z M16.7,9.7c0-0.2-0.2-0.4-0.4-0.4h-0.8c-0.2,0-0.4,0.2-0.4,0.4v0.8c0,0.2,0.2,0.4,0.4,0.4h0.8
			c0.2,0,0.4-0.2,0.4-0.4V9.7z M16.7,12.8c0-0.2-0.2-0.4-0.4-0.4h-0.8c-0.2,0-0.4,0.2-0.4,0.4v0.8c0,0.2,0.2,0.4,0.4,0.4h0.8
			c0.2,0,0.4-0.2,0.4-0.4V12.8z M16.7,16c0-0.2-0.2-0.4-0.4-0.4h-0.8c-0.2,0-0.4,0.2-0.4,0.4v0.8c0,0.2,0.2,0.4,0.4,0.4h0.8
			c0.2,0,0.4-0.2,0.4-0.4V16z M16.7,19.1c0-0.2-0.2-0.4-0.4-0.4h-0.8c-0.2,0-0.4,0.2-0.4,0.4v0.8c0,0.2,0.2,0.4,0.4,0.4h0.8
			c0.2,0,0.4-0.2,0.4-0.4V19.1z"/>
	</g>
	<g id="Ellipse_11">
		<g>
			<circle class="st1" cx="17.5" cy="13.4" r="7.5"/>
		</g>
	</g>
	<g>
		<path class="st0" d="M24.5,20.9c-0.3,0-0.5-0.1-0.7-0.3l-2.7-2.7c-0.9,0.6-2,1-3.1,1c-3,0-5.5-2.5-5.5-5.5s2.5-5.5,5.5-5.5
			s5.5,2.5,5.5,5.5c0,1.1-0.3,2.2-1,3.1l2.7,2.7c0.2,0.2,0.3,0.4,0.3,0.7C25.5,20.4,25,20.9,24.5,20.9z M18,9.9
			c-1.9,0-3.5,1.6-3.5,3.5s1.6,3.5,3.5,3.5s3.5-1.6,3.5-3.5S19.9,9.9,18,9.9z"/>
	</g>
</g>
</svg>
