<?xml version="1.0" encoding="utf-8"?>
<!-- Generator: Adobe Illustrator 21.1.0, SVG Export Plug-In . SVG Version: 6.00 Build 0)  -->
<svg version="1.1" id="Layer_1" xmlns="http://www.w3.org/2000/svg" xmlns:xlink="http://www.w3.org/1999/xlink" x="0px" y="0px"
	 viewBox="0 0 28 28" style="enable-background:new 0 0 28 28;" xml:space="preserve">
<style type="text/css">
	.st0{fill-rule:evenodd;clip-rule:evenodd;fill:#FFFFFF;}
	.st1{fill:#202E49;}
</style>
<g>
	<g id="Rectangle_5_copy_2">
		<g>
			<path class="st0" d="M11.8,23.5h4.4V19h-4.4V23.5z M17.7,19.8V22h5.8v-2.3H17.7z M4.5,22h5.8v-2.3H4.5V22z M15.5,14.5h-2.2v3h2.2
				V14.5z"/>
		</g>
	</g>
	<g id="Rounded_Rectangle_1">
		<g>
			<path class="st0" d="M18.5,4.5h-9c-0.6,0-1,0.4-1,1v7c0,0.6,0.4,1,1,1h9c0.6,0,1-0.4,1-1v-7C19.5,4.9,19.1,4.5,18.5,4.5z"/>
		</g>
	</g>
	<g>
		<path class="st1" d="M11.1,12.3V5.2h0.8v7.1H11.1z"/>
		<path class="st1" d="M18.4,7.3c0,0.7-0.2,1.3-0.7,1.7c-0.5,0.4-1.2,0.6-2.1,0.6h-0.8v2.8h-0.8V5.2h1.9C17.5,5.2,18.4,5.9,18.4,7.3
			z M14.7,8.8h0.7c0.7,0,1.3-0.1,1.6-0.4s0.5-0.6,0.5-1.1c0-0.5-0.2-0.8-0.5-1.1s-0.8-0.3-1.4-0.3h-0.9V8.8z"/>
	</g>
</g>
</svg>
