<?xml version="1.0" encoding="utf-8"?>
<!-- Generator: Adobe Illustrator 21.1.0, SVG Export Plug-In . SVG Version: 6.00 Build 0)  -->
<svg version="1.1" id="Layer_1" xmlns="http://www.w3.org/2000/svg" xmlns:xlink="http://www.w3.org/1999/xlink" x="0px" y="0px"
	 viewBox="0 0 28 28" style="enable-background:new 0 0 28 28;" xml:space="preserve">
<style type="text/css">
	.st0{fill-rule:evenodd;clip-rule:evenodd;fill:#FFFFFF;}
</style>
<g>
	<g id="Rectangle_4">
		<g>
			<path class="st0" d="M22.8,8c0,0,0.3-2.2-1.6-3.4c-2.1-1.2-3.7,0.3-3.7,0.3S15.9,0,10.7,0.5C4.6,1.3,5.1,8,5.1,8S0.7,8.9,1,13.4
				c0.6,4.1,4.8,4.1,4.8,4.1H7v-1H6.9c0,0-3.4,0-3.9-3.4C2.8,9.4,6.3,8.7,6.3,8.7s-0.4-5.5,4.5-6.1c4.2-0.4,5.5,3.6,5.5,3.6
				s2.3-1.3,4-0.2c1.5,1,1.3,2.8,1.3,2.8S25,9.3,25,12.9c-0.1,2.6-1.9,3.3-3,3.5v1.1h0.4c0,0,4.5,0,4.6-4.4C27,8.8,22.8,8,22.8,8z"
				/>
		</g>
	</g>
	<g id="arrow">
		<g>
			<path class="st0" d="M10.5,6.5L5,12.8h3.3v7.7h4.3v-7.7H16L10.5,6.5z M11.7,11.8v7.7H9.3v-7.7H7l3.5-3.3l3.5,3.3H11.7z"/>
		</g>
	</g>
	<g id="arrow_copy">
		<g>
			<path class="st0" d="M20.7,21.2v-7.7h-4.3v7.7H13l5.5,6.3l5.5-6.3H20.7z M15,22.2h2.3v-7.7h2.3v7.7H22l-3.5,3.3L15,22.2z"/>
		</g>
	</g>
</g>
</svg>
