<?xml version="1.0" encoding="utf-8"?>
<!-- Generator: Adobe Illustrator 21.1.0, SVG Export Plug-In . SVG Version: 6.00 Build 0)  -->
<svg version="1.1" id="Layer_1" xmlns="http://www.w3.org/2000/svg" xmlns:xlink="http://www.w3.org/1999/xlink" x="0px" y="0px"
	 viewBox="0 0 28 28" style="enable-background:new 0 0 28 28;" xml:space="preserve">
<style type="text/css">
	.st0{fill:#FFFFFF;}
	.st1{fill:#576071;}
</style>
<g>
	<g>
		<path class="st0" d="M20.4,20.3H8.3c-2.8,0-5-2.2-5-5c0-2,1.2-3.7,2.9-4.5c0-0.2,0-0.3,0-0.5c0-3.2,2.6-5.7,5.7-5.7
			c2.4,0,4.4,1.5,5.3,3.5c0.5-0.4,1.1-0.7,1.9-0.7c1.6,0,2.9,1.3,2.9,2.9c0,0.6-0.2,1.1-0.5,1.5c1.9,0.4,3.3,2.1,3.3,4.2
			C24.7,18.4,22.8,20.3,20.4,20.3z"/>
	</g>
	<g>
		<path class="st1" d="M7.7,12.9c0.1-0.1,0.1-0.1,0.2-0.1c0.1,0,0.3,0.1,0.6,0.3c0.4,0.2,0.8,0.5,1.2,0.7s0.7,0.4,0.7,0.4l1.7-1v-2
			L9.5,9.8C9.4,9.7,9.4,9.6,9.4,9.5s0-0.2,0.1-0.3c0.3-0.2,0.6-0.3,1-0.4c0.4-0.1,0.7-0.1,1.1-0.1c1.1,0,2,0.4,2.8,1.2
			s1.2,1.7,1.2,2.8s-0.4,2-1.2,2.8c-0.8,0.8-1.7,1.2-2.8,1.2c-0.8,0-1.6-0.2-2.3-0.7c-0.7-0.5-1.2-1.1-1.5-1.9
			c-0.1-0.4-0.2-0.7-0.2-0.9C7.6,13,7.6,12.9,7.7,12.9z M14.8,16c0.4-0.4,0.8-1,1-1.5l6.1,6.1c0.2,0.2,0.3,0.5,0.3,0.8
			c0,0.3-0.1,0.6-0.3,0.8l-0.9,1c-0.2,0.2-0.5,0.3-0.8,0.3c-0.3,0-0.6-0.1-0.8-0.3L13.3,17C13.8,16.7,14.4,16.4,14.8,16z M19.6,21.3
			c0.2,0,0.3-0.1,0.4-0.2c0.1-0.1,0.2-0.2,0.2-0.4c0-0.2-0.1-0.3-0.2-0.4c-0.1-0.1-0.2-0.2-0.4-0.2c-0.2,0-0.3,0.1-0.4,0.2
			c-0.1,0.1-0.2,0.2-0.2,0.4c0,0.2,0.1,0.3,0.2,0.4C19.3,21.2,19.4,21.3,19.6,21.3z"/>
	</g>
</g>
</svg>
