<?xml version="1.0" encoding="utf-8"?>
<!-- Generator: Adobe Illustrator 21.1.0, SVG Export Plug-In . SVG Version: 6.00 Build 0)  -->
<svg version="1.1" id="Layer_1" xmlns="http://www.w3.org/2000/svg" xmlns:xlink="http://www.w3.org/1999/xlink" x="0px" y="0px"
	 viewBox="0 0 28 28" style="enable-background:new 0 0 28 28;" xml:space="preserve">
<style type="text/css">
	.st0{fill-rule:evenodd;clip-rule:evenodd;fill:#FFFFFF;}
	.st1{fill:#FFFFFF;}
</style>
<g>
	<g id="Ellipse_7_copy">
		<g>
			<path class="st0" d="M11.5,3.5C5.7,3.5,1,8.2,1,14c0,5.5,4.3,10,9.7,10.5c-0.5-0.4-0.9-0.9-1.1-1.4c-0.8-1.1-1.4-2.2-1.9-3.5h1.6
				c0.1-0.3,0.3-0.6,0.5-0.9H7.3c-0.4-1.3-0.6-2.7-0.6-4.1H11v2.8c0.3-0.2,0.6-0.4,1-0.5v-2.3h0.3c0.1-0.3,0.2-0.7,0.4-1H12V9.4h3.5
				c0.1,0.5,0.2,0.9,0.3,1.4c0.3-0.1,0.6-0.2,0.9-0.2c-0.1-0.4-0.1-0.8-0.3-1.2h3.4c0.4,0.7,0.7,1.4,0.9,2.2
				c0.5,0.3,0.9,0.7,1.2,1.2C21.3,7.6,16.9,3.5,11.5,3.5z M3.2,9.4h3.2c-0.4,1.3-0.6,2.7-0.6,4.1H2C2.1,12,2.5,10.6,3.2,9.4z
				 M2,14.5h3.8c0,1.4,0.2,2.8,0.6,4.1H3.1C2.5,17.4,2.1,16,2,14.5z M8.3,23c-1.9-0.7-3.4-1.9-4.6-3.5h2.9C7,20.8,7.6,21.9,8.3,23z
				 M6.6,8.5H3.7C4.9,6.9,6.5,5.7,8.3,5C7.6,6.1,7,7.2,6.6,8.5z M11,13.5H6.7c0-1.4,0.3-2.8,0.6-4.1H11V13.5z M11,8.5H7.6
				c0.5-1.4,1.2-2.7,2.1-3.8c0.4-0.1,0.9-0.1,1.3-0.2V8.5z M12,8.5v-4c0.3,0,0.7,0.1,1,0.1c0.9,1.1,1.6,2.5,2.2,3.9H12z M16.1,8.5
				c-0.4-1.3-1-2.5-1.7-3.5c2,0.6,3.7,1.9,4.9,3.5H16.1z"/>
		</g>
	</g>
	<g>
		<path class="st1" d="M24,24.5h-8.5c-1.9,0-3.5-1.6-3.5-3.5c0-1.4,0.8-2.6,2-3.2c0-0.1,0-0.2,0-0.3c0-2.2,1.8-4,4-4
			c1.7,0,3.1,1,3.7,2.5c0.3-0.3,0.8-0.5,1.3-0.5c1.1,0,2,0.9,2,2c0,0.4-0.1,0.8-0.3,1.1c1.3,0.3,2.3,1.5,2.3,2.9
			C27,23.2,25.7,24.5,24,24.5z"/>
	</g>
</g>
</svg>
