<?xml version="1.0" encoding="utf-8"?>
<!-- Generator: Adobe Illustrator 21.1.0, SVG Export Plug-In . SVG Version: 6.00 Build 0)  -->
<svg version="1.1" id="Layer_1" xmlns="http://www.w3.org/2000/svg" xmlns:xlink="http://www.w3.org/1999/xlink" x="0px" y="0px"
	 viewBox="0 0 28 28" style="enable-background:new 0 0 28 28;" xml:space="preserve">
<style type="text/css">
	.st0{fill:#FFFFFF;}
</style>
<g>
	<g>
		<path class="st0" d="M15.7,11h4v4l-1.5-1.5l-4.2,4.2L11.3,15l-4,4l-0.9-0.9l4.9-4.9l2.7,2.7l3.3-3.3L15.7,11z"/>
	</g>
	<g>
		<path class="st0" d="M14,23.4c-5.2,0-9.4-4.2-9.4-9.4S8.8,4.6,14,4.6c5.2,0,9.4,4.2,9.4,9.4S19.2,23.4,14,23.4z M6.1,14
			c0,4.3,3.5,7.9,7.9,7.9c4.3,0,7.9-3.5,7.9-7.9S18.3,6.1,14,6.1C9.7,6.1,6.1,9.7,6.1,14z"/>
	</g>
</g>
</svg>
