<?xml version="1.0" encoding="utf-8"?>
<!-- Generator: Adobe Illustrator 21.1.0, SVG Export Plug-In . SVG Version: 6.00 Build 0)  -->
<svg version="1.1" id="Layer_1" xmlns="http://www.w3.org/2000/svg" xmlns:xlink="http://www.w3.org/1999/xlink" x="0px" y="0px"
	 viewBox="0 0 28 28" style="enable-background:new 0 0 28 28;" xml:space="preserve">
<style type="text/css">
	.st0{fill:#FFFFFF;}
	.st1{fill:#576071;}
</style>
<g>
	<g>
		<path class="st0" d="M21.1,22.6H7.7c-3,0-5.5-2.5-5.5-5.5c0-2.2,1.3-4.1,3.2-5c0-0.2,0-0.4,0-0.5c0-3.5,2.8-6.3,6.3-6.3
			c2.6,0,4.9,1.6,5.8,3.9c0.5-0.5,1.3-0.8,2-0.8c1.7,0,3.1,1.4,3.1,3.1c0,0.6-0.2,1.2-0.5,1.7c2.1,0.5,3.6,2.4,3.6,4.6
			C25.8,20.5,23.7,22.6,21.1,22.6z"/>
	</g>
	<g>
		<path class="st1" d="M16.5,13.3c0.3,0,0.6,0.1,0.8,0.3c0.2,0.2,0.4,0.5,0.4,0.8v5.9c0,0.3-0.1,0.6-0.4,0.8
			c-0.2,0.2-0.5,0.3-0.8,0.3h-7c-0.3,0-0.6-0.1-0.8-0.3c-0.2-0.2-0.4-0.5-0.4-0.8v-5.9c0-0.3,0.1-0.6,0.4-0.8
			c0.2-0.2,0.5-0.3,0.8-0.3h0.6v-1.2c0-0.8,0.3-1.5,0.9-2.1s1.3-0.9,2.1-0.9c0.8,0,1.5,0.3,2.1,0.9s0.9,1.3,0.9,2.1v1.2H16.5z
			 M14.8,13.3v-1.2c0-0.5-0.2-0.9-0.5-1.3s-0.8-0.5-1.3-0.5s-0.9,0.2-1.3,0.5s-0.5,0.8-0.5,1.3v1.2H14.8z M12.2,18.2
			c0.2,0.2,0.5,0.4,0.8,0.4c0.3,0,0.6-0.1,0.8-0.4c0.2-0.2,0.4-0.5,0.4-0.8c0-0.3-0.1-0.6-0.4-0.8c-0.2-0.2-0.5-0.4-0.8-0.4
			c-0.3,0-0.6,0.1-0.8,0.4c-0.2,0.2-0.4,0.5-0.4,0.8C11.8,17.7,11.9,18,12.2,18.2z"/>
	</g>
</g>
</svg>
