<?xml version="1.0" encoding="utf-8"?>
<!-- Generator: Adobe Illustrator 21.1.0, SVG Export Plug-In . SVG Version: 6.00 Build 0)  -->
<svg version="1.1" id="Layer_1" xmlns="http://www.w3.org/2000/svg" xmlns:xlink="http://www.w3.org/1999/xlink" x="0px" y="0px"
	 viewBox="0 0 28 28" style="enable-background:new 0 0 28 28;" xml:space="preserve">
<style type="text/css">
	.st0{fill:#FFFFFF;}
</style>
<g>
	<path class="st0" d="M23.3,9c0,0.4-0.3,0.7-0.7,0.7H5.4C5,9.7,4.7,9.4,4.7,9V6.1c0-0.4,0.3-0.7,0.7-0.7h17.1c0.4,0,0.7,0.3,0.7,0.7
		V9z M22.6,21.9c0,0.4-0.3,0.7-0.7,0.7H6.1c-0.4,0-0.7-0.3-0.7-0.7V11.1c0-0.4,0.3-0.7,0.7-0.7h15.7c0.4,0,0.7,0.3,0.7,0.7V21.9z
		 M15.4,12.6h-2.9c-0.4,0-0.7,0.3-0.7,0.7s0.3,0.7,0.7,0.7h2.9c0.4,0,0.7-0.3,0.7-0.7S15.8,12.6,15.4,12.6z"/>
</g>
</svg>
