<?xml version="1.0" encoding="utf-8"?>
<!-- Generator: Adobe Illustrator 21.1.0, SVG Export Plug-In . SVG Version: 6.00 Build 0)  -->
<svg version="1.1" id="Layer_1" xmlns="http://www.w3.org/2000/svg" xmlns:xlink="http://www.w3.org/1999/xlink" x="0px" y="0px"
	 viewBox="0 0 28 28" style="enable-background:new 0 0 28 28;" xml:space="preserve">
<style type="text/css">
	.st0{fill:#FFFFFF;}
	.st1{fill:#576071;}
</style>
<g>
	<g>
		<path class="st0" d="M21.1,22.6H7.7c-3,0-5.5-2.5-5.5-5.5c0-2.2,1.3-4.1,3.2-5c0-0.2,0-0.4,0-0.5c0-3.5,2.8-6.3,6.3-6.3
			c2.6,0,4.9,1.6,5.8,3.9c0.5-0.5,1.3-0.8,2-0.8c1.7,0,3.1,1.4,3.1,3.1c0,0.6-0.2,1.2-0.5,1.7c2.1,0.5,3.6,2.4,3.6,4.6
			C25.8,20.5,23.7,22.6,21.1,22.6z"/>
	</g>
	<g>
		<path class="st1" d="M16.8,22.7H9.2c-1,0-1.9-1.1-1.9-2.4c0-2.3,0.6-5.1,2.9-5.1c0.7,0.7,1.7,1.1,2.8,1.1c1.1,0,2.1-0.4,2.8-1.1
			c2.3,0,2.9,2.7,2.9,5.1C18.7,21.7,17.8,22.7,16.8,22.7z M13,15.9c-1.9,0-3.4-1.5-3.4-3.4S11.1,9,13,9c1.9,0,3.4,1.5,3.4,3.4
			S14.9,15.9,13,15.9z"/>
	</g>
</g>
</svg>
