<?xml version="1.0" encoding="utf-8"?>
<!-- Generator: Adobe Illustrator 21.1.0, SVG Export Plug-In . SVG Version: 6.00 Build 0)  -->
<svg version="1.1" id="Layer_1" xmlns="http://www.w3.org/2000/svg" xmlns:xlink="http://www.w3.org/1999/xlink" x="0px" y="0px"
	 viewBox="0 0 28 28" style="enable-background:new 0 0 28 28;" xml:space="preserve">
<style type="text/css">
	.st0{fill:#FFFFFF;}
	.st1{fill:#576071;}
</style>
<g>
	<g>
		<g>
			<path class="st0" d="M22.6,14.9c0,5.6-7.9,9.2-8.2,9.4c-0.1,0.1-0.2,0.1-0.3,0.1s-0.2,0-0.3-0.1c-0.3-0.1-8.2-3.7-8.2-9.4V4.6
				c0-0.5,0.4-0.9,0.9-0.9h15.4c0.5,0,0.9,0.4,0.9,0.9V14.9z M20,6.3h-6v15.2c0.7-0.4,1.8-1,2.9-1.8c1.4-1.1,3.1-2.9,3.1-4.8V6.3z"
				/>
		</g>
		<path class="st0" d="M14,5.6h6l0,10c0,0-2,6-6,6S14,5.6,14,5.6z"/>
	</g>
	<g>
		<path class="st1" d="M18,9.7c0.4,0,0.7,0.1,0.9,0.4c0.3,0.3,0.4,0.6,0.4,0.9v6.7c0,0.4-0.1,0.7-0.4,0.9C18.7,18.9,18.4,19,18,19
			h-8c-0.4,0-0.7-0.1-0.9-0.4c-0.3-0.3-0.4-0.6-0.4-0.9V11c0-0.4,0.1-0.7,0.4-0.9C9.3,9.8,9.6,9.7,10,9.7h0.7V8.3
			c0-0.9,0.3-1.7,1-2.4s1.4-1,2.4-1c0.9,0,1.7,0.3,2.4,1s1,1.4,1,2.4v1.3H18z M16.1,9.7V8.3c0-0.6-0.2-1-0.6-1.5S14.6,6.3,14,6.3
			s-1,0.2-1.5,0.6s-0.6,0.9-0.6,1.5v1.3H16.1z M13.1,15.3c0.3,0.3,0.6,0.4,0.9,0.4c0.4,0,0.7-0.1,0.9-0.4c0.3-0.3,0.4-0.6,0.4-0.9
			c0-0.4-0.1-0.7-0.4-0.9C14.7,13.1,14.4,13,14,13c-0.4,0-0.7,0.1-0.9,0.4c-0.3,0.3-0.4,0.6-0.4,0.9C12.7,14.7,12.8,15,13.1,15.3z"
			/>
	</g>
</g>
</svg>
