<?xml version="1.0" encoding="utf-8"?>
<!-- Generator: Adobe Illustrator 21.1.0, SVG Export Plug-In . SVG Version: 6.00 Build 0)  -->
<svg version="1.1" id="Layer_1" xmlns="http://www.w3.org/2000/svg" xmlns:xlink="http://www.w3.org/1999/xlink" x="0px" y="0px"
	 viewBox="0 0 28 28" style="enable-background:new 0 0 28 28;" xml:space="preserve">
<style type="text/css">
	.st0{fill:#FFFFFF;}
	.st1{fill:#576071;}
</style>
<g>
	<g>
		<path class="st0" d="M22,4c0.5,0,1,0.2,1.4,0.6C23.8,5,24,5.5,24,6v12c0,0.5-0.2,1-0.6,1.4S22.5,20,22,20H8l-4,4V6
			c0-0.5,0.2-1,0.6-1.4C5,4.2,5.5,4,6,4H22z"/>
	</g>
	<g>
		<path class="st1" d="M7.7,10.6c0.1-0.1,0.1-0.1,0.2-0.1c0.1,0,0.3,0.1,0.6,0.3c0.4,0.2,0.8,0.5,1.2,0.7s0.7,0.4,0.7,0.4l1.7-1V9
			L9.5,7.5C9.4,7.4,9.4,7.3,9.4,7.2s0-0.2,0.1-0.3c0.3-0.2,0.6-0.3,1-0.4c0.4-0.1,0.7-0.1,1.1-0.1c1.1,0,2,0.4,2.8,1.2
			s1.2,1.7,1.2,2.8s-0.4,2-1.2,2.8s-1.7,1.2-2.8,1.2c-0.8,0-1.6-0.2-2.3-0.7c-0.7-0.5-1.2-1.1-1.5-1.9c-0.1-0.4-0.2-0.7-0.2-0.9
			C7.6,10.7,7.6,10.6,7.7,10.6z M14.8,13.7c0.4-0.4,0.8-1,1-1.5l6.1,6.1c0.2,0.2,0.3,0.5,0.3,0.8c0,0.3-0.1,0.6-0.3,0.8l-0.9,1
			c-0.2,0.2-0.5,0.3-0.8,0.3c-0.3,0-0.6-0.1-0.8-0.3l-6.1-6.1C13.8,14.4,14.3,14.1,14.8,13.7z M19.6,19c0.2,0,0.3-0.1,0.4-0.2
			c0.1-0.1,0.2-0.2,0.2-0.4c0-0.2-0.1-0.3-0.2-0.4c-0.1-0.1-0.2-0.2-0.4-0.2s-0.3,0.1-0.4,0.2c-0.1,0.1-0.2,0.2-0.2,0.4
			c0,0.2,0.1,0.3,0.2,0.4C19.3,18.9,19.4,19,19.6,19z"/>
	</g>
</g>
</svg>
