<?xml version="1.0" encoding="utf-8"?>
<!-- Generator: Adobe Illustrator 21.1.0, SVG Export Plug-In . SVG Version: 6.00 Build 0)  -->
<svg version="1.1" id="Layer_1" xmlns="http://www.w3.org/2000/svg" xmlns:xlink="http://www.w3.org/1999/xlink" x="0px" y="0px"
	 viewBox="0 0 28 28" style="enable-background:new 0 0 28 28;" xml:space="preserve">
<style type="text/css">
	.st0{fill-rule:evenodd;clip-rule:evenodd;fill:#FFFFFF;}
	.st1{fill:#FFFFFF;}
</style>
<g>
	<g id="Ellipse_7">
		<g>
			<path class="st0" d="M2.3,4v4h20V4H2.3z M5.2,7h-2V5h2V7z M20.3,7h-11V5h11V7z M9.3,19v-2h1c0-0.2,0-0.3,0-0.5c0-0.2,0-0.3,0-0.5
				h-8v4h8.9c-0.2-0.3-0.3-0.7-0.4-1H9.3z M5.2,19h-2v-2h2V19z M22.3,10.5V10h-0.8C21.7,10.2,22,10.3,22.3,10.5z M2.3,14h8.4
				c0.1-0.3,0.3-0.7,0.4-1H9.3v-2h3.4c0.4-0.4,0.9-0.7,1.4-1H2.3V14z M3.3,11h2v2h-2V11z"/>
		</g>
	</g>
	<g>
		<path class="st1" d="M24.8,24c-0.3,0-0.5-0.1-0.7-0.3L21.4,21c-0.9,0.6-2,1-3.1,1c-3,0-5.5-2.5-5.5-5.5s2.5-5.5,5.5-5.5
			s5.5,2.5,5.5,5.5c0,1.1-0.3,2.2-1,3.1l2.7,2.7c0.2,0.2,0.3,0.4,0.3,0.7C25.8,23.5,25.3,24,24.8,24z M18.3,13
			c-1.9,0-3.5,1.6-3.5,3.5s1.6,3.5,3.5,3.5s3.5-1.6,3.5-3.5S20.2,13,18.3,13z"/>
	</g>
</g>
</svg>
