<?xml version="1.0" encoding="utf-8"?>
<!-- Generator: Adobe Illustrator 21.1.0, SVG Export Plug-In . SVG Version: 6.00 Build 0)  -->
<svg version="1.1" id="Layer_1" xmlns="http://www.w3.org/2000/svg" xmlns:xlink="http://www.w3.org/1999/xlink" x="0px" y="0px"
	 viewBox="0 0 28 28" style="enable-background:new 0 0 28 28;" xml:space="preserve">
<style type="text/css">
	.st0{fill:#FFFFFF;}
</style>
<g>
	<path class="st0" d="M23,14.2c0,5-4,9-9,9s-9-4-9-9s4-9,9-9S23,9.2,23,14.2z M9.1,15.9c-0.2-0.5-0.3-1.1-0.3-1.7
		c0-0.6,0.1-1.1,0.3-1.7l-1.9-1.9c-0.6,1.1-0.9,2.3-0.9,3.6c0,1.3,0.3,2.5,0.9,3.6L9.1,15.9z M17.9,14.2c0-2.1-1.7-3.9-3.9-3.9
		c-2.1,0-3.9,1.7-3.9,3.9c0,2.1,1.7,3.9,3.9,3.9C16.1,18.1,17.9,16.3,17.9,14.2z M10.4,7.4l1.9,1.9c0.5-0.2,1.1-0.3,1.7-0.3
		c0.6,0,1.1,0.1,1.7,0.3l1.9-1.9c-1.1-0.6-2.3-0.9-3.6-0.9C12.7,6.5,11.5,6.8,10.4,7.4z M17.6,21l-1.9-1.9c-0.5,0.2-1.1,0.3-1.7,0.3
		c-0.6,0-1.1-0.1-1.7-0.3L10.4,21c1.1,0.6,2.3,0.9,3.6,0.9C15.3,21.9,16.5,21.6,17.6,21z M20.8,17.8c0.6-1.1,0.9-2.3,0.9-3.6
		c0-1.3-0.3-2.5-0.9-3.6l-1.9,1.9c0.2,0.5,0.3,1.1,0.3,1.7s-0.1,1.1-0.3,1.7L20.8,17.8z"/>
</g>
</svg>
