<?xml version="1.0" encoding="utf-8"?>
<!-- Generator: Adobe Illustrator 21.1.0, SVG Export Plug-In . SVG Version: 6.00 Build 0)  -->
<svg version="1.1" id="Layer_1" xmlns="http://www.w3.org/2000/svg" xmlns:xlink="http://www.w3.org/1999/xlink" x="0px" y="0px"
	 viewBox="0 0 28 28" style="enable-background:new 0 0 28 28;" xml:space="preserve">
<style type="text/css">
	.st0{fill:#FFFFFF;}
	.st1{fill-rule:evenodd;clip-rule:evenodd;fill:#FFFFFF;}
</style>
<g>
	<g>
		<path class="st0" d="M24.7,17.9c0,1-0.8,1.8-1.8,1.8h-8.2v1.4h3.9c0.2,0,0.4,0.2,0.4,0.4v0.7c0,0.2-0.2,0.4-0.4,0.4H9.4
			c-0.2,0-0.4-0.2-0.4-0.4v-0.7c0-0.2,0.2-0.4,0.4-0.4h3.9v-1.4H5.1c-1,0-1.8-0.8-1.8-1.8V7.2c0-1,0.8-1.8,1.8-1.8h17.8
			c1,0,1.8,0.8,1.8,1.8V17.9z M23.3,7.2c0-0.2-0.2-0.4-0.4-0.4H5.1C4.9,6.9,4.7,7,4.7,7.2v10.7c0,0.2,0.2,0.4,0.4,0.4h17.8
			c0.2,0,0.4-0.2,0.4-0.4V7.2z"/>
	</g>
	<g id="Rectangle_4_copy_5">
		<g>
			<polygon class="st1" points="22,13.1 22,12.1 18.7,12.1 18.7,12.2 18.6,12.2 17.6,14.3 16,11.8 16,11.8 15.9,11.8 15.7,11.4 
				15.4,11.6 15,11.4 14.8,11.9 14.8,11.9 14.8,12 13.6,15.1 10.9,10.4 11,10.4 10.8,10.3 10.6,9.9 10.3,10 10.1,9.8 9.8,10.3 
				9.7,10.4 9.7,10.4 8.7,12.3 6,12.3 6,13.3 9.3,13.3 9.3,13.2 10.3,11.5 13.1,16.4 13.1,16.5 13.2,16.5 13.4,16.8 13.7,16.7 
				14,16.8 14.2,16.4 14.3,16.3 14.2,16.3 15.5,13 17.2,15.4 17.1,15.4 17.2,15.4 17.4,15.8 17.7,15.6 18.1,15.8 18.3,15.3 
				18.3,15.3 18.3,15.3 19.3,13.1 			"/>
		</g>
	</g>
</g>
</svg>
