<?xml version="1.0" encoding="utf-8"?>
<!-- Generator: Adobe Illustrator 21.1.0, SVG Export Plug-In . SVG Version: 6.00 Build 0)  -->
<svg version="1.1" id="Layer_1" xmlns="http://www.w3.org/2000/svg" xmlns:xlink="http://www.w3.org/1999/xlink" x="0px" y="0px"
	 viewBox="0 0 28 28" style="enable-background:new 0 0 28 28;" xml:space="preserve">
<style type="text/css">
	.st0{fill:#FFFFFF;}
</style>
<g>
	<path class="st0" d="M21.4,15.2c-0.1,0.1-0.1,0.1-0.2,0.1c0,0,0,0,0,0c-0.1,0-0.2,0-0.2-0.1L14,9.5L7,15.3c-0.1,0-0.2,0.1-0.2,0.1
		c-0.1,0-0.2-0.1-0.2-0.1L6,14.5c-0.1-0.1-0.1-0.3,0-0.5l7.2-6c0.4-0.4,1.1-0.4,1.5,0l2.4,2v-2c0-0.2,0.1-0.3,0.3-0.3h1.9
		c0.2,0,0.3,0.1,0.3,0.3v4.1L22,14c0.1,0.1,0.2,0.3,0,0.5L21.4,15.2z M19.8,20c0,0.4-0.3,0.6-0.6,0.6h-3.9v-3.9h-2.6v3.9H8.9
		c-0.4,0-0.6-0.3-0.6-0.6v-4.8c0,0,0,0,0-0.1l5.8-4.8l5.8,4.8c0,0,0,0,0,0.1V20z"/>
</g>
</svg>
