<?xml version="1.0" encoding="utf-8"?>
<!-- Generator: Adobe Illustrator 21.1.0, SVG Export Plug-In . SVG Version: 6.00 Build 0)  -->
<svg version="1.1" id="Layer_1" xmlns="http://www.w3.org/2000/svg" xmlns:xlink="http://www.w3.org/1999/xlink" x="0px" y="0px"
	 viewBox="0 0 28 28" style="enable-background:new 0 0 28 28;" xml:space="preserve">
<style type="text/css">
	.st0{fill-rule:evenodd;clip-rule:evenodd;fill:#FFFFFF;}
	.st1{fill:#FFFFFF;}
</style>
<g>
	<g id="hand">
		<g>
			<path class="st0" d="M24.6,16.5c-0.5-0.4-1.2-0.4-1.6,0.1l-3,3.3h-6.5v-1c0,0,0,0,0,0h2c0.9,0,1.6-0.7,1.6-1.5
				c0-0.9-0.7-1.5-1.6-1.5h-2c0,0,0,0,0,0v0H7v0.1l-4,5.6l3.3,3.8L8,23.5h12.6v-0.1c0.2,0,0.3-0.1,0.4-0.2l3.7-5.1
				C25.1,17.7,25.1,17,24.6,16.5z"/>
		</g>
	</g>
	<g>
		<path class="st1" d="M17.6,12.3h-7.2c-1.6,0-3-1.3-3-3c0-1.2,0.7-2.2,1.7-2.7c0-0.1,0-0.2,0-0.3c0-1.9,1.5-3.4,3.4-3.4
			c1.4,0,2.6,0.9,3.1,2.1c0.3-0.3,0.7-0.4,1.1-0.4c0.9,0,1.7,0.8,1.7,1.7c0,0.3-0.1,0.7-0.3,0.9c1.1,0.3,2,1.3,2,2.5
			C20.2,11.1,19,12.3,17.6,12.3z"/>
	</g>
</g>
</svg>
