<?xml version="1.0" encoding="utf-8"?>
<!-- Generator: Adobe Illustrator 21.1.0, SVG Export Plug-In . SVG Version: 6.00 Build 0)  -->
<svg version="1.1" id="Layer_1" xmlns="http://www.w3.org/2000/svg" xmlns:xlink="http://www.w3.org/1999/xlink" x="0px" y="0px"
	 viewBox="0 0 28 28" style="enable-background:new 0 0 28 28;" xml:space="preserve">
<style type="text/css">
	.st0{fill:#FFFFFF;}
</style>
<g>
	<path class="st0" d="M20.4,21.4H8.3c-2.8,0-5-2.2-5-5c0-2,1.2-3.7,2.9-4.5c0-0.2,0-0.3,0-0.5c0-3.2,2.6-5.7,5.7-5.7
		c2.4,0,4.4,1.5,5.3,3.5c0.5-0.4,1.1-0.7,1.9-0.7c1.6,0,2.9,1.3,2.9,2.9c0,0.6-0.2,1.1-0.5,1.5c1.9,0.4,3.3,2.1,3.3,4.2
		C24.7,19.4,22.8,21.4,20.4,21.4z"/>
</g>
</svg>
