<?xml version="1.0" encoding="utf-8"?>
<!-- Generator: Adobe Illustrator 21.1.0, SVG Export Plug-In . SVG Version: 6.00 Build 0)  -->
<svg version="1.1" id="Layer_1" xmlns="http://www.w3.org/2000/svg" xmlns:xlink="http://www.w3.org/1999/xlink" x="0px" y="0px"
	 viewBox="0 0 28 28" style="enable-background:new 0 0 28 28;" xml:space="preserve">
<style type="text/css">
	.st0{fill:#FFFFFF;}
</style>
<g>
	<path class="st0" d="M17.2,14.9c0,0.1-0.1,0.3-0.2,0.3l-1.6,0.2c-0.1,0.3-0.2,0.5-0.3,0.8c0.3,0.4,0.6,0.8,0.9,1.2
		c0,0.1,0.1,0.1,0.1,0.2c0,0.1,0,0.1-0.1,0.2c-0.2,0.3-1.3,1.5-1.6,1.5c-0.1,0-0.2,0-0.2-0.1L13,18.3c-0.3,0.1-0.5,0.2-0.8,0.3
		c-0.1,0.5-0.1,1.1-0.2,1.6c0,0.1-0.2,0.2-0.3,0.2H9.9c-0.1,0-0.3-0.1-0.3-0.3l-0.2-1.5c-0.3-0.1-0.5-0.2-0.8-0.3l-1.2,0.9
		c-0.1,0.1-0.1,0.1-0.2,0.1c-0.1,0-0.2,0-0.2-0.1c-0.3-0.2-1.4-1.3-1.4-1.6c0-0.1,0-0.1,0.1-0.2c0.3-0.4,0.6-0.8,0.9-1.1
		c-0.1-0.3-0.3-0.5-0.4-0.8l-1.5-0.2c-0.1,0-0.2-0.2-0.2-0.3v-1.9c0-0.1,0.1-0.3,0.2-0.3l1.6-0.2c0.1-0.3,0.2-0.5,0.3-0.8
		c-0.3-0.4-0.6-0.8-0.9-1.2c0-0.1-0.1-0.1-0.1-0.2s0-0.1,0.1-0.2c0.2-0.3,1.3-1.5,1.6-1.5c0.1,0,0.2,0,0.2,0.1l1.2,0.9
		c0.3-0.1,0.5-0.2,0.8-0.3c0.1-0.5,0.1-1.1,0.2-1.5c0-0.1,0.2-0.2,0.3-0.2h1.9c0.1,0,0.3,0.1,0.3,0.3l0.2,1.5
		c0.3,0.1,0.5,0.2,0.8,0.3l1.2-0.9c0.1-0.1,0.1-0.1,0.2-0.1c0.1,0,0.2,0,0.2,0.1C14.9,9,16,10.1,16,10.4c0,0.1,0,0.1-0.1,0.2
		c-0.3,0.4-0.6,0.8-0.9,1.1c0.1,0.3,0.3,0.5,0.3,0.8l1.5,0.2c0.1,0,0.2,0.2,0.2,0.3V14.9z M10.8,11.4c-1.4,0-2.6,1.2-2.6,2.6
		c0,1.4,1.2,2.6,2.6,2.6s2.6-1.2,2.6-2.6C13.4,12.6,12.2,11.4,10.8,11.4z M23.6,9.6c0,0.2-1.3,0.3-1.5,0.3c-0.1,0.2-0.2,0.4-0.3,0.5
		c0.1,0.2,0.5,1.2,0.5,1.4c0,0,0,0,0,0.1c-0.1,0.1-1.2,0.7-1.2,0.7c-0.1,0-0.9-1-1-1.2c-0.1,0-0.2,0-0.3,0s-0.2,0-0.3,0
		c-0.1,0.2-0.9,1.2-1,1.2c-0.1,0-1.1-0.6-1.2-0.7c0,0,0-0.1,0-0.1c0-0.2,0.4-1.2,0.5-1.4c-0.1-0.2-0.2-0.3-0.3-0.5
		c-0.2,0-1.5-0.2-1.5-0.3V8.2c0-0.2,1.3-0.3,1.5-0.3c0.1-0.2,0.2-0.4,0.3-0.5c-0.1-0.2-0.5-1.2-0.5-1.4c0,0,0,0,0-0.1
		c0.1-0.1,1.2-0.7,1.2-0.7c0.1,0,0.9,1,1,1.1c0.1,0,0.2,0,0.3,0s0.2,0,0.3,0c0.3-0.4,0.6-0.8,0.9-1.1l0.1,0c0,0,1.1,0.6,1.2,0.7
		c0,0,0,0.1,0,0.1c0,0.2-0.4,1.2-0.5,1.4c0.1,0.2,0.2,0.3,0.3,0.5c0.2,0,1.5,0.2,1.5,0.3V9.6z M23.6,19.8c0,0.2-1.3,0.3-1.5,0.3
		c-0.1,0.2-0.2,0.4-0.3,0.5c0.1,0.2,0.5,1.2,0.5,1.4c0,0,0,0,0,0.1c-0.1,0.1-1.2,0.7-1.2,0.7c-0.1,0-0.9-1-1-1.2c-0.1,0-0.2,0-0.3,0
		s-0.2,0-0.3,0c-0.1,0.2-0.9,1.2-1,1.2c-0.1,0-1.1-0.6-1.2-0.7c0,0,0-0.1,0-0.1c0-0.2,0.4-1.2,0.5-1.4c-0.1-0.2-0.2-0.3-0.3-0.5
		c-0.2,0-1.5-0.2-1.5-0.3v-1.4c0-0.2,1.3-0.3,1.5-0.3c0.1-0.2,0.2-0.4,0.3-0.5c-0.1-0.2-0.5-1.2-0.5-1.4c0,0,0,0,0-0.1
		c0.1-0.1,1.2-0.7,1.2-0.7c0.1,0,0.9,1,1,1.1c0.1,0,0.2,0,0.3,0s0.2,0,0.3,0c0.3-0.4,0.6-0.8,0.9-1.1l0.1,0c0,0,1.1,0.6,1.2,0.7
		c0,0,0,0.1,0,0.1c0,0.2-0.4,1.2-0.5,1.4c0.1,0.2,0.2,0.3,0.3,0.5c0.2,0,1.5,0.2,1.5,0.3V19.8z M19.8,7.6c-0.7,0-1.3,0.6-1.3,1.3
		c0,0.7,0.6,1.3,1.3,1.3c0.7,0,1.3-0.6,1.3-1.3S20.5,7.6,19.8,7.6z M19.8,17.9c-0.7,0-1.3,0.6-1.3,1.3c0,0.7,0.6,1.3,1.3,1.3
		c0.7,0,1.3-0.6,1.3-1.3S20.5,17.9,19.8,17.9z"/>
</g>
</svg>
