<?xml version="1.0" encoding="utf-8"?>
<!-- Generator: Adobe Illustrator 21.1.0, SVG Export Plug-In . SVG Version: 6.00 Build 0)  -->
<svg version="1.1" id="Layer_1" xmlns="http://www.w3.org/2000/svg" xmlns:xlink="http://www.w3.org/1999/xlink" x="0px" y="0px"
	 viewBox="0 0 28 28" style="enable-background:new 0 0 28 28;" xml:space="preserve">
<style type="text/css">
	.st0{fill-rule:evenodd;clip-rule:evenodd;fill:#FFFFFF;}
	.st1{fill:#FFFFFF;}
</style>
<g>
	<g id="Rectangle_5_copy">
		<g>
			<path class="st0" d="M22.8,11.5c0,0,0.3-2.2-1.6-3.4c-2.1-1.2-3.7,0.3-3.7,0.3S15.9,3.5,10.7,4c-6.1,0.8-5.6,7.4-5.6,7.4
				S0.7,12.4,1,16.9C1.6,21,5.8,21,5.8,21H6v-1H5.9c0,0-2.4,0-2.9-3.4c-0.2-3.7,3.3-4.4,3.3-4.4S5.9,6.7,10.8,6
				c4.2-0.4,5.5,3.6,5.5,3.6s2.3-1.3,4-0.2c1.5,1,1.3,2.8,1.3,2.8s3.4,0.7,3.4,4.3C24.9,20,22.3,20,22.3,20H22v1h0.4
				c0,0,4.5,0,4.6-4.4C27,12.3,22.8,11.5,22.8,11.5z"/>
		</g>
	</g>
	<g>
		<path class="st1" d="M19.5,24c-0.3,0-0.5-0.1-0.7-0.3L16.1,21c-0.9,0.6-2,1-3.1,1c-3,0-5.5-2.5-5.5-5.5S10,11,13,11
			s5.5,2.5,5.5,5.5c0,1.1-0.3,2.2-1,3.1l2.7,2.7c0.2,0.2,0.3,0.4,0.3,0.7C20.5,23.5,20.1,24,19.5,24z M13,13c-1.9,0-3.5,1.6-3.5,3.5
			S11.1,20,13,20s3.5-1.6,3.5-3.5S14.9,13,13,13z"/>
	</g>
</g>
</svg>
