<?xml version="1.0" encoding="utf-8"?>
<!-- Generator: Adobe Illustrator 21.1.0, SVG Export Plug-In . SVG Version: 6.00 Build 0)  -->
<svg version="1.1" id="Layer_1" xmlns="http://www.w3.org/2000/svg" xmlns:xlink="http://www.w3.org/1999/xlink" x="0px" y="0px"
	 viewBox="0 0 28 28" style="enable-background:new 0 0 28 28;" xml:space="preserve">
<style type="text/css">
	.st0{fill:#FFFFFF;}
	.st1{fill-rule:evenodd;clip-rule:evenodd;fill:#FFFFFF;}
	.st2{fill:#576071;}
</style>
<g>
	<g>
		<path class="st0" d="M26.7,15c-2.7,4.4-7.6,7.4-12.7,7.4c-5.2,0-10-3-12.7-7.4C1.1,14.7,1,14.4,1,14s0.1-0.7,0.3-1
			C4,8.6,8.8,5.6,14,5.6c5.2,0,10,3,12.7,7.4c0.2,0.3,0.3,0.6,0.3,1S26.9,14.7,26.7,15z M19.6,8.9c0.6,1,0.9,2.1,0.9,3.3
			c0,3.6-2.9,6.5-6.5,6.5c-3.6,0-6.5-2.9-6.5-6.5c0-1.1,0.3-2.3,0.9-3.3c-2.3,1.2-4.1,3-5.5,5.1c2.5,3.8,6.5,6.5,11.1,6.5
			c4.7,0,8.7-2.7,11.1-6.5C23.8,11.9,21.9,10,19.6,8.9z M14,7.7c-2.4,0-4.4,2-4.4,4.4c0,0.4,0.3,0.7,0.7,0.7c0.4,0,0.7-0.3,0.7-0.7
			c0-1.7,1.4-3,3-3c0.4,0,0.7-0.3,0.7-0.7S14.4,7.7,14,7.7z"/>
	</g>
	<g id="Ellipse_10">
		<g>
			<ellipse class="st1" cx="13.5" cy="12.4" rx="6.5" ry="6"/>
		</g>
	</g>
	<g>
		<path class="st2" d="M14.7,9.4h4v4l-1.5-1.5L12.9,16l-2.7-2.7l-4,4l-0.9-0.9l4.9-4.9l2.7,2.7l3.3-3.3L14.7,9.4z"/>
	</g>
</g>
</svg>
