<?xml version="1.0" encoding="utf-8"?>
<!-- Generator: Adobe Illustrator 21.1.0, SVG Export Plug-In . SVG Version: 6.00 Build 0)  -->
<svg version="1.1" id="Layer_1" xmlns="http://www.w3.org/2000/svg" xmlns:xlink="http://www.w3.org/1999/xlink" x="0px" y="0px"
	 viewBox="0 0 28 28" style="enable-background:new 0 0 28 28;" xml:space="preserve">
<style type="text/css">
	.st0{fill-rule:evenodd;clip-rule:evenodd;fill:#FFFFFF;}
</style>
<g id="Shape_4">
	<g>
		<path class="st0" d="M19.9,11.4c-1,0-1.8,0.4-2.4,1.1l-3.9-2.8C13.8,9.2,14,8.5,14,7.9c0-2.4-2-4.4-4.5-4.4S5,5.5,5,7.9
			c0,2.4,2,4.4,4.5,4.4c1.4,0,2.7-0.7,3.5-1.7l3.9,2.8c-0.1,0.3-0.2,0.7-0.2,1.1c0,0.3,0.1,0.6,0.2,0.9l-0.2-0.2L14,17.8
			c-0.7-0.8-1.8-1.3-3-1.3c-2.2,0-4,1.8-4,4c0,2.2,1.8,4,4,4c2.2,0,4-1.8,4-4c0-0.7-0.2-1.3-0.5-1.8l2.6-2.6
			c0.6,0.9,1.5,1.5,2.7,1.5c1.7,0,3.1-1.4,3.1-3.1C23,12.7,21.6,11.4,19.9,11.4z"/>
	</g>
</g>
</svg>
