<?xml version="1.0" encoding="utf-8"?>
<!-- Generator: Adobe Illustrator 21.1.0, SVG Export Plug-In . SVG Version: 6.00 Build 0)  -->
<svg version="1.1" id="Layer_1" xmlns="http://www.w3.org/2000/svg" xmlns:xlink="http://www.w3.org/1999/xlink" x="0px" y="0px"
	 viewBox="0 0 28 28" style="enable-background:new 0 0 28 28;" xml:space="preserve">
<style type="text/css">
	.st0{fill-rule:evenodd;clip-rule:evenodd;fill:#FFFFFF;}
</style>
<g id="Ellipse_11_copy_3">
	<g>
		<path class="st0" d="M8.3,13.6c-2.3,1.4-3.8,4-3.8,7c0,0.5,0,1,0.1,1.4h4.9c0-0.8,0-1.9,0-2.2c0-1.8,0.6-3.4,1.7-4.5
			C10,15.1,9,14.5,8.3,13.6z M12,14.4C12,14.4,12,14.4,12,14.4c0.2-0.1,0.4-0.3,0.6-0.4c0.1,0.1,0.2,0.2,0.3,0.3
			c0.2,0,0.5-0.1,0.7-0.2c-1.1-0.7-1.8-1.9-1.8-3.3c0-2.1,1.7-3.9,3.8-3.9c0.1,0,0.2,0,0.3,0C15,5.8,13.6,5,12,5
			C9.4,5,7.3,7.1,7.3,9.7C7.3,12.3,9.4,14.4,12,14.4z M20.4,16.1c-0.7,0.9-1.7,1.5-2.9,1.5c-1.2,0-2.2-0.6-2.9-1.5
			c-1.8,1.1-3.1,3.3-3.1,5.8c0,0.4,0,0.8,0.1,1.2h11.8c0.1-0.4,0.1-0.8,0.1-1.2C23.5,19.4,22.3,17.2,20.4,16.1z M13.8,12.9
			c0,2.1,1.7,3.9,3.8,3.9c2.1,0,3.8-1.7,3.8-3.9S19.6,9,17.5,9C15.4,9,13.8,10.7,13.8,12.9z"/>
	</g>
</g>
</svg>
