<svg  id="svg" version="1.1" width="400" height="362.962962962963" viewBox="0 0 400 362.962962962963" xmlns="http://www.w3.org/2000/svg" xmlns:xlink="http://www.w3.org/1999/xlink"><g id="svgg"><path id="path0" d="M0.000 181.488 L 0.000 362.976 200.000 362.976 L 400.000 362.976 400.000 181.488 L 400.000 0.000 200.000 0.000 L 0.000 0.000 0.000 181.488 M281.929 29.142 C 282.539 29.751,282.588 31.708,282.759 62.173 L 282.940 94.555 315.367 94.737 L 347.795 94.918 348.670 95.937 L 349.546 96.955 349.546 185.279 C 349.546 271.701,349.531 273.622,348.852 274.461 L 348.159 275.318 293.408 275.499 L 238.657 275.681 238.475 296.915 C 238.294 318.093,238.233 319.096,237.086 319.663 C 236.398 320.004,63.446 320.294,61.086 319.959 C 60.247 319.840,59.185 319.439,58.727 319.068 L 57.895 318.394 58.012 230.249 C 58.132 140.806,58.136 140.524,59.471 139.863 C 59.802 139.699,69.546 139.483,81.125 139.383 L 102.178 139.201 102.359 84.936 C 102.549 28.085,102.496 29.625,104.319 28.829 C 106.309 27.961,281.055 28.268,281.929 29.142 M127.768 74.773 L 127.768 95.826 148.076 95.826 C 167.041 95.826,168.409 95.784,168.740 95.191 C 169.075 94.592,171.633 94.550,213.223 94.458 L 257.350 94.360 257.351 88.468 C 257.351 85.228,257.459 76.084,257.591 68.149 L 257.831 53.721 192.799 53.721 L 127.768 53.721 127.768 74.773 M194.434 120.387 C 194.301 120.520,194.192 124.767,194.192 129.825 L 194.192 139.020 215.789 139.020 C 236.903 139.020,237.403 139.036,238.113 139.746 C 238.806 140.440,238.838 140.956,238.838 151.361 L 238.838 162.250 248.050 162.250 L 257.262 162.250 257.531 141.597 C 257.679 130.237,257.690 120.764,257.554 120.544 C 257.281 120.102,194.875 119.947,194.434 120.387 M283.209 141.107 L 283.303 162.069 303.721 162.163 L 324.138 162.256 324.138 141.201 L 324.138 120.145 303.627 120.145 L 283.116 120.145 283.209 141.107 M138.385 164.700 L 127.405 164.802 127.405 174.186 L 127.405 183.570 147.884 183.839 C 159.147 183.987,168.539 183.999,168.755 183.866 C 169.459 183.430,169.284 164.921,168.573 164.649 C 168.257 164.527,163.806 164.467,158.682 164.514 C 153.557 164.560,144.424 164.644,138.385 164.700 M194.277 164.731 C 193.921 164.957,193.839 167.148,193.914 174.435 L 194.011 183.848 203.539 183.944 L 213.067 184.041 213.067 174.235 L 213.067 164.428 203.902 164.434 C 198.861 164.437,194.530 164.571,194.277 164.731 M83.122 170.871 C 83.122 174.215,83.231 183.689,83.363 191.924 L 83.603 206.897 92.800 206.897 L 101.996 206.897 101.997 200.272 C 101.997 196.629,102.105 187.155,102.237 179.220 L 102.477 164.791 92.799 164.791 L 83.122 164.791 83.122 170.871 M194.555 218.693 L 194.555 227.949 203.811 227.949 L 213.067 227.949 213.067 218.693 L 213.067 209.437 203.811 209.437 L 194.555 209.437 194.555 218.693 " stroke="none" fill="#ffffff" fill-rule="evenodd"></path><path id="path1" d="M260.818 73.049 C 260.533 98.097,260.607 97.334,258.418 97.772 C 257.781 97.899,242.824 98.004,225.181 98.004 L 193.103 98.004 193.103 107.432 L 193.103 116.860 226.770 117.054 C 265.500 117.277,272.178 117.286,302.984 117.155 L 325.569 117.060 326.396 117.886 C 327.496 118.983,327.471 116.629,327.138 189.959 L 326.860 250.880 325.842 251.756 L 324.823 252.632 281.327 252.632 C 239.040 252.632,237.806 252.612,236.973 251.938 L 236.116 251.244 236.208 228.616 C 236.258 216.171,236.334 201.661,236.376 196.370 C 236.429 189.775,236.317 186.295,236.021 185.299 C 235.709 184.252,235.587 178.060,235.580 163.067 L 235.572 142.287 213.975 142.287 C 192.861 142.287,192.361 142.270,191.652 141.561 C 190.957 140.867,190.926 140.351,190.926 129.764 L 190.926 118.693 181.488 118.693 L 172.051 118.693 172.051 129.724 C 172.051 140.041,172.006 140.810,171.357 141.611 L 170.664 142.468 159.016 142.586 L 147.368 142.704 147.368 151.873 L 147.368 161.043 164.851 161.284 C 174.466 161.416,189.557 161.525,198.386 161.525 C 213.649 161.525,214.481 161.559,215.296 162.218 L 216.152 162.912 216.152 173.924 C 216.152 232.841,215.828 294.341,215.512 295.208 C 214.709 297.414,219.139 297.278,148.129 297.278 C 102.709 297.278,82.899 297.161,82.302 296.889 C 80.576 296.102,80.638 297.455,80.208 251.497 C 79.984 227.479,79.721 207.700,79.625 207.544 C 79.528 207.387,75.320 207.260,70.274 207.260 L 61.099 207.260 60.858 224.955 C 60.726 234.687,60.618 259.433,60.617 279.946 L 60.617 317.243 148.185 317.151 L 235.753 317.060 235.935 295.748 C 236.104 275.913,236.161 274.391,236.764 273.788 C 237.379 273.173,240.228 273.130,292.118 272.958 L 346.824 272.777 346.907 246.098 C 346.953 231.425,346.872 192.060,346.726 158.621 L 346.461 97.822 315.064 97.961 C 280.060 98.116,280.861 98.163,280.234 95.906 C 279.995 95.046,279.858 86.687,279.857 72.897 C 279.856 60.985,279.756 50.981,279.634 50.665 C 279.442 50.162,278.271 50.091,270.247 50.091 L 261.079 50.091 260.818 73.049 " stroke="none" fill="#286cc2" fill-rule="evenodd"></path><path id="path2" d="M171.352 30.399 C 111.187 30.484,105.809 30.540,105.203 31.089 C 104.573 31.659,104.540 34.038,104.450 85.747 L 104.356 139.809 103.337 140.685 L 102.319 141.561 81.694 141.561 C 64.955 141.561,60.993 141.652,60.667 142.045 C 60.242 142.557,59.788 186.727,59.324 272.597 L 59.085 316.700 60.082 317.696 L 61.079 318.693 148.095 318.693 L 235.111 318.693 236.067 317.941 L 237.024 317.189 237.024 296.370 L 237.024 275.552 237.980 274.799 L 238.936 274.047 292.789 274.047 C 346.158 274.047,346.649 274.041,347.368 273.321 C 348.090 272.599,348.094 272.111,348.094 185.363 L 348.094 98.130 347.254 97.341 L 346.414 96.552 314.650 96.552 L 282.885 96.552 282.143 95.735 C 281.411 94.930,281.398 94.480,281.174 63.189 C 280.968 34.326,280.893 31.399,280.345 30.793 C 279.772 30.159,278.702 30.131,258.292 30.217 C 246.495 30.266,207.372 30.348,171.352 30.399 M279.634 50.665 C 279.756 50.981,279.856 60.985,279.857 72.897 C 279.858 86.687,279.995 95.046,280.234 95.906 C 280.861 98.163,280.060 98.116,315.064 97.961 L 346.461 97.822 346.726 158.621 C 346.872 192.060,346.953 231.425,346.907 246.098 L 346.824 272.777 292.118 272.958 C 240.228 273.130,237.379 273.173,236.764 273.788 C 236.161 274.391,236.104 275.913,235.935 295.748 L 235.753 317.060 148.185 317.151 L 60.617 317.243 60.617 279.946 C 60.618 259.433,60.726 234.687,60.858 224.955 L 61.099 207.260 70.274 207.260 C 75.320 207.260,79.528 207.387,79.625 207.544 C 79.721 207.700,79.984 227.479,80.208 251.497 C 80.638 297.455,80.576 296.102,82.302 296.889 C 82.899 297.161,102.709 297.278,148.129 297.278 C 219.139 297.278,214.709 297.414,215.512 295.208 C 215.828 294.341,216.152 232.841,216.152 173.924 L 216.152 162.912 215.296 162.218 C 214.481 161.559,213.649 161.525,198.386 161.525 C 189.557 161.525,174.466 161.416,164.851 161.284 L 147.368 161.043 147.368 151.873 L 147.368 142.704 159.016 142.586 L 170.664 142.468 171.357 141.611 C 172.006 140.810,172.051 140.041,172.051 129.724 L 172.051 118.693 181.488 118.693 L 190.926 118.693 190.926 129.764 C 190.926 140.351,190.957 140.867,191.652 141.561 C 192.361 142.270,192.861 142.287,213.975 142.287 L 235.572 142.287 235.580 163.067 C 235.587 178.060,235.709 184.252,236.021 185.299 C 236.317 186.295,236.429 189.775,236.376 196.370 C 236.334 201.661,236.258 216.171,236.208 228.616 L 236.116 251.244 236.973 251.938 C 237.806 252.612,239.040 252.632,281.327 252.632 L 324.823 252.632 325.842 251.756 L 326.860 250.880 327.138 189.959 C 327.471 116.629,327.496 118.983,326.396 117.886 L 325.569 117.060 302.984 117.155 C 272.178 117.286,265.500 117.277,226.770 117.054 L 193.103 116.860 193.103 107.432 L 193.103 98.004 225.181 98.004 C 242.824 98.004,257.781 97.899,258.418 97.772 C 260.607 97.334,260.533 98.097,260.818 73.049 L 261.079 50.091 270.247 50.091 C 278.271 50.091,279.442 50.162,279.634 50.665 M258.706 52.443 L 259.618 53.502 259.367 74.210 L 259.117 94.918 258.213 95.735 L 257.310 96.552 214.744 96.552 L 172.177 96.552 171.429 97.368 C 170.699 98.166,170.675 98.670,170.426 118.693 C 170.176 138.797,170.156 139.218,169.414 140.018 L 168.657 140.835 148.051 140.835 L 127.445 140.835 126.483 140.008 L 125.522 139.180 125.318 96.127 L 125.115 53.074 126.105 52.083 L 127.096 51.092 192.446 51.238 L 257.795 51.383 258.706 52.443 M259.317 119.392 L 260.254 120.272 260.254 152.178 L 260.254 184.085 259.187 185.152 L 258.120 186.219 248.403 186.122 L 238.685 186.025 237.855 184.792 L 237.024 183.559 237.024 163.037 L 237.024 142.515 236.234 141.675 L 235.445 140.835 214.751 140.835 L 194.058 140.835 193.218 140.046 C 191.934 138.840,191.895 120.525,193.172 119.165 L 193.967 118.319 226.174 118.415 L 258.381 118.512 259.317 119.392 M325.062 119.221 L 325.953 120.112 325.951 144.720 C 325.947 185.724,325.250 250.170,324.804 250.707 C 324.131 251.518,238.949 251.392,238.050 250.579 C 236.946 249.580,237.032 209.553,238.142 207.756 L 238.898 206.534 259.304 206.534 C 274.691 206.534,279.817 206.426,280.145 206.098 C 280.479 205.764,280.582 195.690,280.586 162.995 C 280.589 139.527,280.716 120.132,280.867 119.894 C 281.836 118.370,282.350 118.335,303.737 118.333 L 324.171 118.330 325.062 119.221 M103.846 162.988 C 106.397 163.847,123.264 163.900,126.134 163.057 C 129.015 162.211,168.374 162.461,170.686 163.339 C 173.222 164.303,189.568 164.444,191.777 163.521 C 194.044 162.574,213.183 162.729,214.156 163.702 C 215.123 164.669,215.274 182.621,214.341 185.695 C 213.542 188.330,213.568 203.834,214.378 207.614 C 214.907 210.085,214.922 212.367,214.526 231.579 C 214.037 255.376,213.988 269.049,214.340 284.090 C 214.574 294.125,214.564 294.329,213.823 295.070 L 213.067 295.826 148.151 295.826 C 86.461 295.826,83.205 295.794,82.652 295.182 C 82.128 294.604,82.032 290.153,81.699 251.353 C 81.496 227.601,81.222 198.333,81.092 186.315 L 80.854 164.462 81.960 163.356 L 83.066 162.250 92.361 162.250 C 100.745 162.250,101.871 162.323,103.846 162.988 " stroke="none" fill="#67abe5" fill-rule="evenodd"></path><path id="path3" d="M182.415 29.310 L 105.483 29.403 104.465 30.377 L 103.448 31.352 103.448 85.186 C 103.448 138.536,103.442 139.026,102.722 139.746 C 102.013 140.455,101.512 140.472,81.370 140.472 L 60.744 140.472 59.963 141.303 L 59.182 142.134 58.993 170.614 C 58.889 186.277,58.718 225.577,58.613 257.948 L 58.423 316.803 59.371 317.930 L 60.319 319.056 148.143 319.056 L 235.968 319.056 236.859 318.165 L 237.750 317.274 237.750 296.726 C 237.750 283.255,237.879 275.935,238.125 275.475 C 238.494 274.786,239.483 274.773,292.373 274.773 C 349.241 274.773,347.625 274.822,348.417 273.083 C 349.105 271.573,348.979 98.638,348.289 97.304 C 347.495 95.768,348.803 95.826,314.909 95.826 C 284.684 95.826,283.207 95.795,282.633 95.162 C 282.084 94.555,282.033 91.788,282.033 62.829 L 282.033 31.160 280.972 30.099 L 279.911 29.038 269.629 29.128 C 263.974 29.177,224.727 29.260,182.415 29.310 M280.345 30.793 C 280.893 31.399,280.968 34.326,281.174 63.189 C 281.398 94.480,281.411 94.930,282.143 95.735 L 282.885 96.552 314.650 96.552 L 346.414 96.552 347.254 97.341 L 348.094 98.130 348.094 185.363 C 348.094 272.111,348.090 272.599,347.368 273.321 C 346.649 274.041,346.158 274.047,292.789 274.047 L 238.936 274.047 237.980 274.799 L 237.024 275.552 237.024 296.370 L 237.024 317.189 236.067 317.941 L 235.111 318.693 148.095 318.693 L 61.079 318.693 60.082 317.696 L 59.085 316.700 59.324 272.597 C 59.788 186.727,60.242 142.557,60.667 142.045 C 60.993 141.652,64.955 141.561,81.694 141.561 L 102.319 141.561 103.337 140.685 L 104.356 139.809 104.450 85.747 C 104.540 34.038,104.573 31.659,105.203 31.089 C 105.809 30.540,111.187 30.484,171.352 30.399 C 207.372 30.348,246.495 30.266,258.292 30.217 C 278.702 30.131,279.772 30.159,280.345 30.793 M126.105 52.083 L 125.115 53.074 125.318 96.127 L 125.522 139.180 126.483 140.008 L 127.445 140.835 148.051 140.835 L 168.657 140.835 169.414 140.018 C 170.156 139.218,170.176 138.797,170.426 118.693 C 170.675 98.670,170.699 98.166,171.429 97.368 L 172.177 96.552 214.744 96.552 L 257.310 96.552 258.213 95.735 L 259.117 94.918 259.367 74.210 L 259.618 53.502 258.706 52.443 L 257.795 51.383 192.446 51.238 L 127.096 51.092 126.105 52.083 M257.856 52.963 C 258.618 53.595,258.760 94.271,258.004 95.027 C 257.670 95.361,247.618 95.463,214.973 95.463 C 169.330 95.463,170.862 95.404,169.927 97.191 C 169.745 97.538,169.478 107.132,169.332 118.512 C 169.142 133.347,168.950 139.277,168.654 139.468 C 167.845 139.989,127.899 139.797,127.462 139.271 C 126.708 138.362,126.134 54.233,126.874 53.103 L 127.480 52.179 192.377 52.329 C 245.742 52.452,257.377 52.565,257.856 52.963 M193.172 119.165 C 191.895 120.525,191.934 138.840,193.218 140.046 L 194.058 140.835 214.751 140.835 L 235.445 140.835 236.234 141.675 L 237.024 142.515 237.024 163.037 L 237.024 183.559 237.855 184.792 L 238.685 186.025 248.403 186.122 L 258.120 186.219 259.187 185.152 L 260.254 184.085 260.254 152.178 L 260.254 120.272 259.317 119.392 L 258.381 118.512 226.174 118.415 L 193.967 118.319 193.172 119.165 M282.222 118.898 C 281.628 119.208,281.018 119.656,280.867 119.894 C 280.716 120.132,280.589 139.527,280.586 162.995 C 280.582 195.690,280.479 205.764,280.145 206.098 C 279.817 206.426,274.691 206.534,259.304 206.534 L 238.898 206.534 238.142 207.756 C 237.032 209.553,236.946 249.580,238.050 250.579 C 238.949 251.392,324.131 251.518,324.804 250.707 C 325.250 250.170,325.947 185.724,325.951 144.720 L 325.953 120.112 325.062 119.221 L 324.171 118.330 303.737 118.333 C 285.976 118.334,283.162 118.408,282.222 118.898 M258.367 119.855 C 259.141 120.630,258.980 183.230,258.201 184.091 C 257.438 184.935,239.125 185.131,238.588 184.301 C 238.426 184.052,238.212 174.428,238.113 162.915 L 237.931 141.982 237.051 141.045 L 236.171 140.109 215.521 140.109 C 201.980 140.109,194.629 139.980,194.169 139.733 C 193.306 139.271,193.057 120.700,193.902 119.855 C 194.533 119.224,257.735 119.224,258.367 119.855 M324.804 119.892 C 325.179 120.343,324.689 248.834,324.308 250.001 C 324.190 250.364,315.429 250.438,281.408 250.364 L 238.657 250.272 238.657 229.401 L 238.657 208.530 259.830 208.348 C 280.466 208.172,281.017 208.149,281.557 207.441 C 282.049 206.796,282.091 201.892,281.931 163.648 C 281.768 124.486,281.804 120.529,282.333 120.001 C 283.126 119.208,324.150 119.103,324.804 119.892 M81.960 163.356 L 80.854 164.462 81.092 186.315 C 81.222 198.333,81.496 227.601,81.699 251.353 C 82.032 290.153,82.128 294.604,82.652 295.182 C 83.205 295.794,86.461 295.826,148.151 295.826 L 213.067 295.826 213.823 295.070 C 214.564 294.329,214.574 294.125,214.340 284.090 C 213.988 269.049,214.037 255.376,214.526 231.579 C 214.922 212.367,214.907 210.085,214.378 207.614 C 213.568 203.834,213.542 188.330,214.341 185.695 C 215.274 182.621,215.123 164.669,214.156 163.702 C 213.183 162.729,194.044 162.574,191.777 163.521 C 189.568 164.444,173.222 164.303,170.686 163.339 C 168.374 162.461,129.015 162.211,126.134 163.057 C 123.264 163.900,106.397 163.847,103.846 162.988 C 101.871 162.323,100.745 162.250,92.361 162.250 L 83.066 162.250 81.960 163.356 M103.466 164.256 L 104.537 164.810 104.537 185.189 C 104.537 203.643,104.594 205.632,105.138 206.233 C 105.711 206.866,107.194 206.897,137.598 206.897 L 169.457 206.897 170.259 207.895 L 171.060 208.893 170.833 240.580 C 170.626 269.311,170.659 272.350,171.188 273.157 L 171.771 274.047 192.377 274.047 L 212.982 274.047 213.201 274.864 C 213.322 275.313,213.422 279.969,213.425 285.210 L 213.430 294.739 148.185 294.647 L 82.940 294.555 82.869 276.770 C 82.830 266.987,82.618 237.876,82.398 212.077 C 82.112 178.428,82.110 164.963,82.391 164.436 C 82.921 163.446,101.591 163.286,103.466 164.256 M170.066 164.228 L 171.325 164.754 171.325 174.371 C 171.325 187.824,174.319 186.402,146.782 186.027 L 126.920 185.756 126.074 184.909 C 125.229 184.064,125.227 184.036,125.227 174.438 L 125.227 164.814 126.225 164.273 C 127.698 163.474,168.162 163.433,170.066 164.228 M213.492 164.303 C 214.437 165.158,214.504 182.418,213.572 184.748 L 212.988 186.207 203.754 186.207 C 190.705 186.207,191.652 187.161,191.652 174.006 L 191.652 164.756 192.831 164.244 C 194.718 163.423,212.577 163.475,213.492 164.303 M213.439 207.828 C 213.934 209.130,213.908 249.117,213.411 250.907 L 213.033 252.269 203.522 252.257 C 193.542 252.245,193.311 252.210,192.437 250.568 C 192.130 249.992,192.015 244.141,192.015 229.176 L 192.015 208.577 192.804 207.737 C 193.591 206.899,193.621 206.897,203.339 206.897 L 213.085 206.897 213.439 207.828 " stroke="none" fill="#8dd2f5" fill-rule="evenodd"></path><path id="path4" d="M104.319 28.829 C 102.496 29.625,102.549 28.085,102.359 84.936 L 102.178 139.201 81.125 139.383 C 69.546 139.483,59.802 139.699,59.471 139.863 C 58.136 140.524,58.132 140.806,58.012 230.249 L 57.895 318.394 58.727 319.068 C 59.185 319.439,60.247 319.840,61.086 319.959 C 63.446 320.294,236.398 320.004,237.086 319.663 C 238.233 319.096,238.294 318.093,238.475 296.915 L 238.657 275.681 293.408 275.499 L 348.159 275.318 348.852 274.461 C 349.531 273.622,349.546 271.701,349.546 185.279 L 349.546 96.955 348.670 95.937 L 347.795 94.918 315.367 94.737 L 282.940 94.555 282.759 62.173 C 282.588 31.708,282.539 29.751,281.929 29.142 C 281.055 28.268,106.309 27.961,104.319 28.829 M280.972 30.099 L 282.033 31.160 282.033 62.829 C 282.033 91.788,282.084 94.555,282.633 95.162 C 283.207 95.795,284.684 95.826,314.909 95.826 C 348.803 95.826,347.495 95.768,348.289 97.304 C 348.979 98.638,349.105 271.573,348.417 273.083 C 347.625 274.822,349.241 274.773,292.373 274.773 C 239.483 274.773,238.494 274.786,238.125 275.475 C 237.879 275.935,237.750 283.255,237.750 296.726 L 237.750 317.274 236.859 318.165 L 235.968 319.056 148.143 319.056 L 60.319 319.056 59.371 317.930 L 58.423 316.803 58.613 257.948 C 58.718 225.577,58.889 186.277,58.993 170.614 L 59.182 142.134 59.963 141.303 L 60.744 140.472 81.370 140.472 C 101.512 140.472,102.013 140.455,102.722 139.746 C 103.442 139.026,103.448 138.536,103.448 85.186 L 103.448 31.352 104.465 30.377 L 105.483 29.403 182.415 29.310 C 224.727 29.260,263.974 29.177,269.629 29.128 L 279.911 29.038 280.972 30.099 M126.874 53.103 C 126.134 54.233,126.708 138.362,127.462 139.271 C 127.899 139.797,167.845 139.989,168.654 139.468 C 168.950 139.277,169.142 133.347,169.332 118.512 C 169.478 107.132,169.745 97.538,169.927 97.191 C 170.862 95.404,169.330 95.463,214.973 95.463 C 247.618 95.463,257.670 95.361,258.004 95.027 C 258.760 94.271,258.618 53.595,257.856 52.963 C 257.377 52.565,245.742 52.452,192.377 52.329 L 127.480 52.179 126.874 53.103 M257.591 68.149 C 257.459 76.084,257.351 85.228,257.351 88.468 L 257.350 94.360 213.223 94.458 C 171.633 94.550,169.075 94.592,168.740 95.191 C 168.409 95.784,167.041 95.826,148.076 95.826 L 127.768 95.826 127.768 74.773 L 127.768 53.721 192.799 53.721 L 257.831 53.721 257.591 68.149 M193.902 119.855 C 193.057 120.700,193.306 139.271,194.169 139.733 C 194.629 139.980,201.980 140.109,215.521 140.109 L 236.171 140.109 237.051 141.045 L 237.931 141.982 238.113 162.915 C 238.212 174.428,238.426 184.052,238.588 184.301 C 239.125 185.131,257.438 184.935,258.201 184.091 C 258.980 183.230,259.141 120.630,258.367 119.855 C 257.735 119.224,194.533 119.224,193.902 119.855 M282.333 120.001 C 281.804 120.529,281.768 124.486,281.931 163.648 C 282.091 201.892,282.049 206.796,281.557 207.441 C 281.017 208.149,280.466 208.172,259.830 208.348 L 238.657 208.530 238.657 229.401 L 238.657 250.272 281.408 250.364 C 315.429 250.438,324.190 250.364,324.308 250.001 C 324.689 248.834,325.179 120.343,324.804 119.892 C 324.150 119.103,283.126 119.208,282.333 120.001 M257.554 120.544 C 257.690 120.764,257.679 130.237,257.531 141.597 L 257.262 162.250 248.050 162.250 L 238.838 162.250 238.838 151.361 C 238.838 140.956,238.806 140.440,238.113 139.746 C 237.403 139.036,236.903 139.020,215.789 139.020 L 194.192 139.020 194.192 129.825 C 194.192 124.767,194.301 120.520,194.434 120.387 C 194.875 119.947,257.281 120.102,257.554 120.544 M324.138 141.201 L 324.138 162.256 303.721 162.163 L 283.303 162.069 283.209 141.107 L 283.116 120.145 303.627 120.145 L 324.138 120.145 324.138 141.201 M82.391 164.436 C 82.110 164.963,82.112 178.428,82.398 212.077 C 82.618 237.876,82.830 266.987,82.869 276.770 L 82.940 294.555 148.185 294.647 L 213.430 294.739 213.425 285.210 C 213.422 279.969,213.322 275.313,213.201 274.864 L 212.982 274.047 192.377 274.047 L 171.771 274.047 171.188 273.157 C 170.659 272.350,170.626 269.311,170.833 240.580 L 171.060 208.893 170.259 207.895 L 169.457 206.897 137.598 206.897 C 107.194 206.897,105.711 206.866,105.138 206.233 C 104.594 205.632,104.537 203.643,104.537 185.189 L 104.537 164.810 103.466 164.256 C 101.591 163.286,82.921 163.446,82.391 164.436 M126.225 164.273 L 125.227 164.814 125.227 174.438 C 125.227 184.036,125.229 184.064,126.074 184.909 L 126.920 185.756 146.782 186.027 C 174.319 186.402,171.325 187.824,171.325 174.371 L 171.325 164.754 170.066 164.228 C 168.162 163.433,127.698 163.474,126.225 164.273 M192.831 164.244 L 191.652 164.756 191.652 174.006 C 191.652 187.161,190.705 186.207,203.754 186.207 L 212.988 186.207 213.572 184.748 C 214.504 182.418,214.437 165.158,213.492 164.303 C 212.577 163.475,194.718 163.423,192.831 164.244 M168.573 164.649 C 169.284 164.921,169.459 183.430,168.755 183.866 C 168.539 183.999,159.147 183.987,147.884 183.839 L 127.405 183.570 127.405 174.186 L 127.405 164.802 138.385 164.700 C 144.424 164.644,153.557 164.560,158.682 164.514 C 163.806 164.467,168.257 164.527,168.573 164.649 M213.067 174.235 L 213.067 184.041 203.539 183.944 L 194.011 183.848 193.914 174.435 C 193.839 167.148,193.921 164.957,194.277 164.731 C 194.530 164.571,198.861 164.437,203.902 164.434 L 213.067 164.428 213.067 174.235 M102.237 179.220 C 102.105 187.155,101.997 196.629,101.997 200.272 L 101.996 206.897 92.800 206.897 L 83.603 206.897 83.363 191.924 C 83.231 183.689,83.122 174.215,83.122 170.871 L 83.122 164.791 92.799 164.791 L 102.477 164.791 102.237 179.220 M192.804 207.737 L 192.015 208.577 192.015 229.176 C 192.015 244.141,192.130 249.992,192.437 250.568 C 193.311 252.210,193.542 252.245,203.522 252.257 L 213.033 252.269 213.411 250.907 C 213.908 249.117,213.934 209.130,213.439 207.828 L 213.085 206.897 203.339 206.897 C 193.621 206.897,193.591 206.899,192.804 207.737 M213.067 218.693 L 213.067 227.949 203.811 227.949 L 194.555 227.949 194.555 218.693 L 194.555 209.437 203.811 209.437 L 213.067 209.437 213.067 218.693 " stroke="none" fill="#bbe7ff" fill-rule="evenodd"></path></g></svg>