<svg width="114" height="48" viewBox="0 0 114 48" fill="none" xmlns="http://www.w3.org/2000/svg">
<g filter="url(#filter0_d_21147_31281)">
<rect x="4" width="105.714" height="40" rx="20" fill="url(#paint0_linear_21147_31281)"/>
<g clip-path="url(#clip0_21147_31281)">
<path d="M29.2885 19.0893C28.7902 18.9233 28.7902 18.2197 29.2885 18.0537L32.2128 17.0799C32.8557 16.8655 33.4398 16.5044 33.9188 16.0251C34.3978 15.5458 34.7586 14.9615 34.9726 14.3186L35.9464 11.3957C36.1125 10.8975 36.816 10.8975 36.9821 11.3957L37.9559 14.3201C38.1702 14.9629 38.5313 15.547 39.0106 16.026C39.4899 16.5051 40.0742 16.8659 40.7172 17.0799L43.64 18.0537C43.7491 18.0895 43.8441 18.1588 43.9115 18.2518C43.9788 18.3448 44.0151 18.4567 44.0151 18.5715C44.0151 18.6863 43.9788 18.7982 43.9115 18.8912C43.8441 18.9842 43.7491 19.0535 43.64 19.0893L40.7157 20.0631C40.073 20.2773 39.489 20.6382 39.01 21.1172C38.531 21.5963 38.1701 22.1802 37.9559 22.8229L36.9821 25.7473C36.9463 25.8564 36.8769 25.9514 36.784 26.0187C36.691 26.0861 36.5791 26.1224 36.4643 26.1224C36.3494 26.1224 36.2375 26.0861 36.1446 26.0187C36.0516 25.9514 35.9822 25.8564 35.9464 25.7473L34.9726 22.8229C34.7584 22.1802 34.3975 21.5963 33.9185 21.1172C33.4395 20.6382 32.8555 20.2773 32.2128 20.0631L29.2885 19.0893ZM21.5903 24.9215C21.5249 24.8998 21.468 24.8581 21.4277 24.8023C21.3874 24.7465 21.3657 24.6793 21.3657 24.6105C21.3657 24.5416 21.3874 24.4745 21.4277 24.4186C21.468 24.3628 21.5249 24.3211 21.5903 24.2995L23.3446 23.7152C24.1267 23.454 24.7396 22.841 25.0008 22.059L25.5851 20.3047C25.6067 20.2393 25.6484 20.1824 25.7043 20.1421C25.7601 20.1018 25.8272 20.0801 25.8961 20.0801C25.9649 20.0801 26.0321 20.1018 26.0879 20.1421C26.1437 20.1824 26.1854 20.2393 26.2071 20.3047L26.7914 22.059C26.9199 22.4447 27.1364 22.7952 27.4239 23.0826C27.7114 23.3701 28.0618 23.5867 28.4475 23.7152L30.2019 24.2995C30.2672 24.3211 30.3241 24.3628 30.3645 24.4186C30.4048 24.4745 30.4265 24.5416 30.4265 24.6105C30.4265 24.6793 30.4048 24.7465 30.3645 24.8023C30.3241 24.8581 30.2672 24.8998 30.2019 24.9215L28.4475 25.5057C28.0618 25.6342 27.7114 25.8508 27.4239 26.1383C27.1364 26.4257 26.9199 26.7762 26.7914 27.1619L26.2071 28.9162C26.1854 28.9816 26.1437 29.0385 26.0879 29.0788C26.0321 29.1192 25.9649 29.1409 25.8961 29.1409C25.8272 29.1409 25.7601 29.1192 25.7043 29.0788C25.6484 29.0385 25.6067 28.9816 25.5851 28.9162L25.0008 27.1619C24.8723 26.7762 24.6557 26.4257 24.3683 26.1383C24.0808 25.8508 23.7303 25.6342 23.3446 25.5057L21.5903 24.9215ZM20.0066 14.2491C19.9636 14.2342 19.9263 14.2063 19.8999 14.1692C19.8736 14.1321 19.8594 14.0878 19.8594 14.0423C19.8594 13.9968 19.8736 13.9524 19.8999 13.9153C19.9263 13.8783 19.9636 13.8504 20.0066 13.8354L21.1751 13.4459C21.6975 13.2723 22.1066 12.8632 22.2802 12.3408L22.6698 11.1723C22.6847 11.1293 22.7126 11.092 22.7497 11.0656C22.7867 11.0392 22.8311 11.0251 22.8766 11.0251C22.9221 11.0251 22.9665 11.0392 23.0035 11.0656C23.0406 11.092 23.0685 11.1293 23.0834 11.1723L23.4729 12.3408C23.5586 12.5982 23.7031 12.8322 23.8949 13.024C24.0867 13.2158 24.3206 13.3603 24.5781 13.4459L25.7466 13.8354C25.7896 13.8504 25.8269 13.8783 25.8533 13.9153C25.8796 13.9524 25.8938 13.9968 25.8938 14.0423C25.8938 14.0878 25.8796 14.1321 25.8533 14.1692C25.8269 14.2063 25.7896 14.2342 25.7466 14.2491L24.5781 14.6386C24.3206 14.7243 24.0867 14.8687 23.8949 15.0606C23.7031 15.2524 23.5586 15.4863 23.4729 15.7438L23.0834 16.9108C23.0685 16.9538 23.0406 16.9911 23.0035 17.0174C22.9665 17.0438 22.9221 17.058 22.8766 17.058C22.8311 17.058 22.7867 17.0438 22.7497 17.0174C22.7126 16.9911 22.6847 16.9538 22.6698 16.9108L22.2802 15.7422C22.1066 15.2199 21.6975 14.8107 21.1751 14.6371L20.0081 14.2491L20.0066 14.2491Z" fill="white"/>
</g>
<path d="M54.2461 15.1328L50.4805 25.5H48.9414L53.2773 14.125H54.2695L54.2461 15.1328ZM57.4023 25.5L53.6289 15.1328L53.6055 14.125H54.5977L58.9492 25.5H57.4023ZM57.207 21.2891V22.5234H50.8164V21.2891H57.207ZM65.1758 23.2578C65.1758 23.0495 65.1289 22.8568 65.0352 22.6797C64.9466 22.4974 64.7617 22.3333 64.4805 22.1875C64.2044 22.0365 63.7878 21.9062 63.2305 21.7969C62.7617 21.6979 62.3372 21.5807 61.957 21.4453C61.582 21.3099 61.2617 21.1458 60.9961 20.9531C60.7357 20.7604 60.5352 20.5339 60.3945 20.2734C60.2539 20.013 60.1836 19.7083 60.1836 19.3594C60.1836 19.026 60.2565 18.7109 60.4023 18.4141C60.5534 18.1172 60.7643 17.8542 61.0352 17.625C61.3112 17.3958 61.6419 17.2161 62.0273 17.0859C62.4128 16.9557 62.8424 16.8906 63.3164 16.8906C63.9935 16.8906 64.5716 17.0104 65.0508 17.25C65.5299 17.4896 65.8971 17.8099 66.1523 18.2109C66.4076 18.6068 66.5352 19.0469 66.5352 19.5312H65.0898C65.0898 19.2969 65.0195 19.0703 64.8789 18.8516C64.7435 18.6276 64.543 18.4427 64.2773 18.2969C64.0169 18.151 63.6966 18.0781 63.3164 18.0781C62.9154 18.0781 62.5898 18.1406 62.3398 18.2656C62.0951 18.3854 61.9154 18.5391 61.8008 18.7266C61.6914 18.9141 61.6367 19.112 61.6367 19.3203C61.6367 19.4766 61.6628 19.6172 61.7148 19.7422C61.7721 19.862 61.8711 19.974 62.0117 20.0781C62.1523 20.1771 62.3503 20.2708 62.6055 20.3594C62.8607 20.4479 63.1862 20.5365 63.582 20.625C64.2747 20.7812 64.8451 20.9688 65.293 21.1875C65.7409 21.4062 66.0742 21.6745 66.293 21.9922C66.5117 22.3099 66.6211 22.6953 66.6211 23.1484C66.6211 23.5182 66.543 23.8568 66.3867 24.1641C66.2357 24.4714 66.0143 24.737 65.7227 24.9609C65.4362 25.1797 65.0924 25.3516 64.6914 25.4766C64.2956 25.5964 63.8503 25.6562 63.3555 25.6562C62.6107 25.6562 61.9805 25.5234 61.4648 25.2578C60.9492 24.9922 60.5586 24.6484 60.293 24.2266C60.0273 23.8047 59.8945 23.3594 59.8945 22.8906H61.3477C61.3685 23.2865 61.4831 23.6016 61.6914 23.8359C61.8997 24.0651 62.1549 24.2292 62.457 24.3281C62.7591 24.4219 63.0586 24.4688 63.3555 24.4688C63.7513 24.4688 64.082 24.4167 64.3477 24.3125C64.6185 24.2083 64.8242 24.0651 64.9648 23.8828C65.1055 23.7005 65.1758 23.4922 65.1758 23.2578ZM69.9727 13.5V25.5H68.5195V13.5H69.9727ZM75.1367 17.0469L71.4492 20.9922L69.3867 23.1328L69.2695 21.5938L70.7461 19.8281L73.3711 17.0469H75.1367ZM73.8164 25.5L70.8008 21.4688L71.5508 20.1797L75.5195 25.5H73.8164ZM85.0273 15.1328L81.2617 25.5H79.7227L84.0586 14.125H85.0508L85.0273 15.1328ZM88.1836 25.5L84.4102 15.1328L84.3867 14.125H85.3789L89.7305 25.5H88.1836ZM87.9883 21.2891V22.5234H81.5977V21.2891H87.9883ZM92.8711 14.125V25.5H91.3633V14.125H92.8711Z" fill="white"/>
</g>
<defs>
<filter id="filter0_d_21147_31281" x="0" y="0" width="113.715" height="48" filterUnits="userSpaceOnUse" color-interpolation-filters="sRGB">
<feFlood flood-opacity="0" result="BackgroundImageFix"/>
<feColorMatrix in="SourceAlpha" type="matrix" values="0 0 0 0 0 0 0 0 0 0 0 0 0 0 0 0 0 0 127 0" result="hardAlpha"/>
<feOffset dy="4"/>
<feGaussianBlur stdDeviation="2"/>
<feComposite in2="hardAlpha" operator="out"/>
<feColorMatrix type="matrix" values="0 0 0 0 0 0 0 0 0 0 0 0 0 0 0 0 0 0 0.25 0"/>
<feBlend mode="normal" in2="BackgroundImageFix" result="effect1_dropShadow_21147_31281"/>
<feBlend mode="normal" in="SourceGraphic" in2="effect1_dropShadow_21147_31281" result="shape"/>
</filter>
<linearGradient id="paint0_linear_21147_31281" x1="4.40039" y1="-9.5" x2="104.114" y2="56.6399" gradientUnits="userSpaceOnUse">
<stop stop-color="#00FED0"/>
<stop offset="0.442308" stop-color="#2B7BDD"/>
<stop offset="0.899038" stop-color="#B53AB6"/>
</linearGradient>
<clipPath id="clip0_21147_31281">
<rect width="20" height="25.7143" fill="white" transform="translate(19 30) rotate(-90)"/>
</clipPath>
</defs>
</svg>
