<svg xmlns="http://www.w3.org/2000/svg" version="1.1" viewBox="-5.0 -10.0 110.0 135.0">
 <path d="m79.168 84.555 11.027-11.027 2.9453 2.9453-12.5 12.5c-0.8125 0.8125-2.1328 0.8125-2.9453 0l-6.25-6.25 2.9453-2.9453z" fill-rule="evenodd"/>
 <path d="m6.8594 90.195 16.668-16.668 2.9453 2.9453-16.668 16.668z" fill-rule="evenodd"/>
 <path d="m26.473 90.195-16.668-16.668-2.9453 2.9453 16.668 16.668z" fill-rule="evenodd"/>
 <path d="m48.527 40.195c0.8125-0.81641 2.1328-0.81641 2.9453 0l14.586 14.582c0.8125 0.8125 0.8125 2.1328 0 2.9453l-14.586 14.586c-0.8125 0.8125-2.1328 0.8125-2.9453 0l-14.582-14.586c-0.81641-0.8125-0.81641-2.1328 0-2.9453zm-10.164 16.055 11.637 11.637 11.637-11.637-11.637-11.637z" fill-rule="evenodd"/>
 <path d="m14.582 56.25c0-1.1523 0.93359-2.082 2.0859-2.082h18.75v4.1641h-16.668v10.418h-4.168z" fill-rule="evenodd"/>
 <path d="m85.418 56.25c0-1.1523-0.93359-2.082-2.0859-2.082h-18.75v4.1641h16.668v10.418h4.168z" fill-rule="evenodd"/>
 <path d="m52.082 25v18.75h-4.1641v-18.75z" fill-rule="evenodd"/>
 <path d="m50 10.418c-3.4531 0-6.25 2.7969-6.25 6.25 0 3.4492 2.7969 6.25 6.25 6.25s6.25-2.8008 6.25-6.25c0-3.4531-2.7969-6.25-6.25-6.25zm-10.418 6.25c0-5.7539 4.6641-10.418 10.418-10.418s10.418 4.6641 10.418 10.418c0 5.75-4.6641 10.414-10.418 10.414s-10.418-4.6641-10.418-10.414z" fill-rule="evenodd"/>
</svg>