<?xml version="1.0" encoding="UTF-8"?>
<svg id="Layer_1" data-name="Layer 1" xmlns="http://www.w3.org/2000/svg" viewBox="0 0 256 256">
  <defs>
    <style>
      .cls-1 {
        fill: none;
      }

      .cls-2 {
        fill: #ee4c2c;
      }

      .cls-3 {
        fill: #fff;
      }
    </style>
  </defs>
  <rect class="cls-3" x="-.24" y="-.24" width="256.481" height="256.481"/>
  <rect class="cls-1" x="-.24" y="-.24" width="256.481" height="256.481"/>
  <g>
    <path class="cls-2" d="M172.524,92.761c-.923-10.835-5.158-19.865-12.641-27.623l10.168-10.165c23.491,23.519,22.245,60.824-.843,83.568-24.356,23.992-63.219,22.731-85.79-3.298-18.995-21.905-19.847-55.519.341-77.408L127.869,12.916l.301,19.97-5.342,5.991-27.215,27.531c-15.06,15.235-15.642,39.883-2.879,56.946,12.065,16.13,32.844,21.981,51.5,14.933,18.042-6.816,30.017-25.238,28.289-45.527Z"/>
    <g>
      <path d="M39.904,188.385c-.485,11.355-9.343,16.266-20.112,16.409l-7.864.105-.006,18.241-5.251-.029.003-51.844,14.941.055c2.909.011,5.818.725,8.446,1.631,6.689,2.417,10.141,8.449,9.843,15.432ZM34.391,187.475c-.003-4.532-2.184-8.027-6.168-9.786-2.265-.839-4.824-1.517-7.343-1.537l-9.098-.072-.008,23.873,8.099-.246c8.222-.249,14.524-3.385,14.518-12.233Z"/>
      <path d="M244.083,201.238l-.504-6.479c-.275-3.53-3.533-5.584-7.079-5.653-4.758-.093-9.027,2.039-12.409,5.445l-.004,28.895-5.114-.065.004-56.016,5.099-1.028.031,23.864c6.376-5.894,15.838-8.762,22.323-2.287,1.788,2.409,2.871,5.302,2.874,8.439l.024,26.939-5.267.015.022-22.068Z"/>
      <path d="M129.781,224.291c-7.696-.018-14.13-4.296-16.861-11.307-2.157-5.537-2.146-11.82-.028-17.317,2.59-6.723,8.324-10.817,15.327-11.545,8.903-.925,16.884,4.14,19.328,12.832,1.295,4.608,1.35,9.419.021,14.011-2.325,8.03-9.168,13.346-17.787,13.326ZM142.394,211.14c1.614-4.183,1.575-8.596.399-12.726-1.687-5.925-6.73-9.652-12.649-9.717-5.78-.064-10.775,3.59-12.601,9.375-1.357,4.298-1.242,8.992.408,13.188,2.074,5.274,6.823,8.337,12.202,8.337s10.145-3.021,12.242-8.456Z"/>
      <path d="M60.082,232.932c-2.125,5.435-5.405,10.119-11.283,10.221-2.796.048-5.291-.655-7.868-1.759l1.538-4.593,4.329,1.424c2.879.427,5.463-.637,6.917-3.301,2.133-3.907,3.641-8.119,5.123-12.285l-14.718-37.333,5.436-.131,12.052,31.402,11.848-31.376,5.266.042-18.641,47.689Z"/>
      <path d="M96.516,223.149c-1.707.217-3.457.212-5.335.081l.006-46.891-18.255-.007.006-5.038h41.825s.018,4.807.018,4.807l-18.267-.005.003,47.052Z"/>
      <path d="M188.514,212.447c4.092,8.228,14.597,8.643,22.315,3.845l1.029,4.709c-5.929,3.504-13.052,4.421-19.513,1.806-5.074-2.054-8.65-6.475-10.092-11.715-3.333-12.11,2.35-25.232,15.018-26.851,5.188-.663,10.164.268,14.727,3.076l-1.314,4.628c-4.577-2.565-9.35-3.802-14.482-2.521-9.289,2.318-11.859,14.641-7.69,23.023Z"/>
      <path d="M178.324,190.785c-5.242-2.435-9.344-1.95-12.945,2.219-1.543,1.787-2.906,4.07-3.837,6.273l-.006,24.027-4.806-.025-.006-38.002,5.071-1.045.095,7.592c4.427-7.118,9.91-9.6,17.809-5.845l-1.374,4.807Z"/>
    </g>
    <path class="cls-2" d="M147.47,36.241c4.291-1.135,8.218,1.814,9.279,5.585,1.131,4.018-1.547,8.264-5.07,9.246-4.465,1.244-8.39-.887-9.827-5.035-1.328-3.833,1.207-8.629,5.617-9.796Z"/>
  </g>
</svg>