<svg id="Layer_1" data-name="Layer 1" xmlns="http://www.w3.org/2000/svg" viewBox="0 0 38.28 40"><title>Essbase</title><metadata><?xpacket begin="﻿" id="W5M0MpCehiHzreSzNTczkc9d"?>
<x:xmpmeta xmlns:x="adobe:ns:meta/" x:xmptk="Adobe XMP Core 6.0-c006 79.164648, 2021/01/12-15:52:29        ">
   <rdf:RDF xmlns:rdf="http://www.w3.org/1999/02/22-rdf-syntax-ns#">
      <rdf:Description rdf:about=""
            xmlns:xmp="http://ns.adobe.com/xap/1.0/"
            xmlns:xmpMM="http://ns.adobe.com/xap/1.0/mm/"
            xmlns:stEvt="http://ns.adobe.com/xap/1.0/sType/ResourceEvent#"
            xmlns:dc="http://purl.org/dc/elements/1.1/"
            xmlns:lr="http://ns.adobe.com/lightroom/1.0/">
         <xmp:MetadataDate>2022-03-11T13:11-06:00</xmp:MetadataDate>
         <xmpMM:InstanceID>xmp.iid:be7287db-7fc2-4a21-9cf7-ea31493eb9d2</xmpMM:InstanceID>
         <xmpMM:DocumentID>xmp.did:3b70ec11-817e-6a48-83b4-0b7e09e1376a</xmpMM:DocumentID>
         <xmpMM:OriginalDocumentID>xmp.did:3b70ec11-817e-6a48-83b4-0b7e09e1376a</xmpMM:OriginalDocumentID>
         <xmpMM:History>
            <rdf:Seq>
               <rdf:li>
                  <rdf:Description>
                     <stEvt:action>saved</stEvt:action>
                     <stEvt:instanceID>xmp.iid:3b70ec11-817e-6a48-83b4-0b7e09e1376a</stEvt:instanceID>
                     <stEvt:when>2022-03-10T20:02:43-06:00</stEvt:when>
                     <stEvt:softwareAgent>Adobe Bridge 2020 (Windows)</stEvt:softwareAgent>
                     <stEvt:changed>/metadata</stEvt:changed>
                  </rdf:Description>
               </rdf:li>
               <rdf:li>
                  <rdf:Description>
                     <stEvt:action>saved</stEvt:action>
                     <stEvt:instanceID>xmp.iid:be7287db-7fc2-4a21-9cf7-ea31493eb9d2</stEvt:instanceID>
                     <stEvt:when>2022-03-11T13:11-06:00</stEvt:when>
                     <stEvt:softwareAgent>Adobe Bridge 2021 (Macintosh)</stEvt:softwareAgent>
                     <stEvt:changed>/metadata</stEvt:changed>
                  </rdf:Description>
               </rdf:li>
            </rdf:Seq>
         </xmpMM:History>
         <dc:title>
            <rdf:Alt>
               <rdf:li xml:lang="x-default">Essbase</rdf:li>
            </rdf:Alt>
         </dc:title>
         <dc:subject>
            <rdf:Bag>
               <rdf:li>icon</rdf:li>
               <rdf:li>Essbase</rdf:li>
               <rdf:li>cube</rdf:li>
               <rdf:li>3D cube</rdf:li>
               <rdf:li>multidimension</rdf:li>
               <rdf:li>MDBMS</rdf:li>
               <rdf:li>analytic</rdf:li>
               <rdf:li>database</rdf:li>
               <rdf:li>management</rdf:li>
               <rdf:li>system</rdf:li>
            </rdf:Bag>
         </dc:subject>
         <lr:hierarchicalSubject>
            <rdf:Bag>
               <rdf:li>icon</rdf:li>
            </rdf:Bag>
         </lr:hierarchicalSubject>
      </rdf:Description>
   </rdf:RDF>
</x:xmpmeta>
                                                                                                    
                                                                                                    
                                                                                                    
                                                                                                    
                                                                                                    
                                                                                                    
                                                                                                    
                                                                                                    
                                                                                                    
                                                                                                    
                                                                                                    
                                                                   
<?xpacket end="w"?></metadata>
<polygon points="38.28 14.59 32.38 0 5.88 0.01 0 14.56 0 39.95 38.28 40 38.28 14.59" fill="#fff"/><path d="M1.2,38.84H12.44V27.6H1.2Zm1.49-9.76H11v8.28H2.69Z" fill="#2c5967"/><path d="M13.57,38.84H24.8V27.6H13.57Zm1.48-9.76h8.27v8.28H15.05Z" fill="#2c5967"/><path d="M25.93,38.84H37.17V27.6H25.93Zm1.49-9.76h8.26v8.28H27.42Z" fill="#2c5967"/><path d="M1.2,26.47H12.44V15.23H1.2Zm1.49-9.76H11V25H2.69Z" fill="#2c5967"/><path d="M13.57,26.47H24.8V15.23H13.57Zm1.48-9.76h8.27V25H15.05Z" fill="#2c5967"/><path d="M25.93,15.23V26.47H37.17V15.23ZM35.68,25H27.42V16.71h8.26Z" fill="#2c5967"/><path d="M1.48,14.1h10.9l1.11-7H4.25ZM11.81,8.5l-.65,4.17H3.59L5.23,8.5Z" fill="#2c5967"/><path d="M24.48,14.1l-.83-7H14.51l-.83,7Zm-8.7-5.6h6.6l.49,4.17H15.29Z" fill="#2c5967"/><path d="M36.73,14.1,34,7.07H24.81l1.11,7ZM33,8.5l1.64,4.17H27.14L26.49,8.5Z" fill="#2c5967"/><path d="M6.68,1,4.74,6h8.93L14.45,1Zm5.77,3.49H6.85l.81-2.06h5.11Z" fill="#2c5967"/><path d="M23,1H15.2L14.62,6h8.93ZM16.23,4.52l.24-2.06h5.22l.25,2.06Z" fill="#2c5967"/><path d="M31.62,1H23.85L24.63,6h8.93ZM25.85,4.52l-.32-2.06h5.12l.81,2.06Z" fill="#2c5967"/></svg>