<svg id="Layer_1" data-name="Layer 1" xmlns="http://www.w3.org/2000/svg" viewBox="0 0 42.01 42"><defs><style>.cls-1{fill:#fff;}.cls-2{fill:#2c5967;}</style></defs><title>Message Producer</title><metadata><?xpacket begin="﻿" id="W5M0MpCehiHzreSzNTczkc9d"?>
<x:xmpmeta xmlns:x="adobe:ns:meta/" x:xmptk="Adobe XMP Core 6.0-c006 79.164648, 2021/01/12-15:52:29        ">
   <rdf:RDF xmlns:rdf="http://www.w3.org/1999/02/22-rdf-syntax-ns#">
      <rdf:Description rdf:about=""
            xmlns:xmpRights="http://ns.adobe.com/xap/1.0/rights/"
            xmlns:xmp="http://ns.adobe.com/xap/1.0/"
            xmlns:xmpMM="http://ns.adobe.com/xap/1.0/mm/"
            xmlns:stEvt="http://ns.adobe.com/xap/1.0/sType/ResourceEvent#"
            xmlns:dc="http://purl.org/dc/elements/1.1/"
            xmlns:lr="http://ns.adobe.com/lightroom/1.0/">
         <xmpRights:Marked>True</xmpRights:Marked>
         <xmp:MetadataDate>2022-10-21T13:31:44-05:00</xmp:MetadataDate>
         <xmpMM:InstanceID>xmp.iid:b88a7195-8565-43eb-ab03-06c7e0ec34ee</xmpMM:InstanceID>
         <xmpMM:DocumentID>xmp.did:9ef87b81-5cc9-4518-bba8-7953fa4db435</xmpMM:DocumentID>
         <xmpMM:OriginalDocumentID>xmp.did:9ef87b81-5cc9-4518-bba8-7953fa4db435</xmpMM:OriginalDocumentID>
         <xmpMM:History>
            <rdf:Seq>
               <rdf:li>
                  <rdf:Description>
                     <stEvt:action>saved</stEvt:action>
                     <stEvt:instanceID>xmp.iid:9ef87b81-5cc9-4518-bba8-7953fa4db435</stEvt:instanceID>
                     <stEvt:when>2021-06-23T15:54-05:00</stEvt:when>
                     <stEvt:softwareAgent>Adobe Bridge 2021 (Macintosh)</stEvt:softwareAgent>
                     <stEvt:changed>/metadata</stEvt:changed>
                  </rdf:Description>
               </rdf:li>
               <rdf:li>
                  <rdf:Description>
                     <stEvt:action>saved</stEvt:action>
                     <stEvt:instanceID>xmp.iid:b88a7195-8565-43eb-ab03-06c7e0ec34ee</stEvt:instanceID>
                     <stEvt:when>2022-10-21T13:31:44-05:00</stEvt:when>
                     <stEvt:softwareAgent>Adobe Bridge 2021 (Macintosh)</stEvt:softwareAgent>
                     <stEvt:changed>/metadata</stEvt:changed>
                  </rdf:Description>
               </rdf:li>
            </rdf:Seq>
         </xmpMM:History>
         <dc:title>
            <rdf:Alt>
               <rdf:li xml:lang="x-default">Message Producer</rdf:li>
            </rdf:Alt>
         </dc:title>
         <dc:rights>
            <rdf:Alt>
               <rdf:li xml:lang="x-default">Oracle All Rights Reserved</rdf:li>
            </rdf:Alt>
         </dc:rights>
         <dc:subject>
            <rdf:Bag>
               <rdf:li>icon</rdf:li>
               <rdf:li>communication</rdf:li>
               <rdf:li>chat</rdf:li>
               <rdf:li>quotes</rdf:li>
               <rdf:li>gear</rdf:li>
            </rdf:Bag>
         </dc:subject>
         <lr:hierarchicalSubject>
            <rdf:Bag>
               <rdf:li>icon</rdf:li>
               <rdf:li>communication</rdf:li>
               <rdf:li>chat</rdf:li>
            </rdf:Bag>
         </lr:hierarchicalSubject>
      </rdf:Description>
   </rdf:RDF>
</x:xmpmeta>
                                                                                                    
                                                                                                    
                                                                                                    
                                                                                                    
                                                                                                    
                                                                                                    
                                                                                                    
                                                                                  
<?xpacket end="w"?></metadata>
<polygon class="cls-1" points="36.17 41.5 28.98 32.31 19.42 32.31 19.42 34.98 17.55 35.19 18.72 36.66 14.57 40.81 13.11 39.63 12.9 41.5 7.03 41.5 6.83 39.63 5.36 40.81 1.21 36.66 2.38 35.19 0.52 34.98 0.52 31.22 0.5 31.22 0.5 0.5 41.51 0.5 41.51 41.5 36.17 41.5"/><path class="cls-1" d="M41,1V41h-4.6l-7.18-9.19H18.92v2.73l-2.19.24a.61.61,0,0,1-.05.12l1.37,1.72-3.51,3.52-1.72-1.38-.12.06L12.45,41h-5l-.24-2.18-.13-.06L5.4,40.14,1.88,36.62,3.25,34.9a.61.61,0,0,0,0-.12L1,34.54V31.05l0,.17V1H41m1-1H0V31.22H0v4.21l.89.1.52.06L1.1,36l-.56.69.63.64,3.52,3.51.63.64.7-.56.41-.33.06.52.1.89h6.76l.1-.89.06-.52.4.33.7.56.64-.64,3.51-3.51.63-.64L18.84,36l-.33-.41.52-.06.89-.1V32.81h8.82l6.89,8.81.3.38H42V0Z"/><polygon class="cls-2" points="1 1 1 26.59 1.52 26.07 2.67 24.93 2.71 2.67 39.34 2.67 39.34 39.3 37.23 39.3 30.04 30.14 20.17 30.14 20.17 30.31 20.17 31.8 29.23 31.8 36.41 41 41.01 41 41.01 1 1 1"/><path class="cls-2" d="M14.28,21.81l2.84,2.12,3-6.54V10.16H11V18h3.28Zm-1.61-5.44V11.84l5.8,0V17l-2,4.34L16,21v-4.6Z"/><path class="cls-2" d="M25.14,21.81,28,23.93l3-6.54V10.16H21.86V18h3.28Zm-1.62-5.44V11.84l5.81,0V17l-2,4.34L26.81,21v-4.6Z"/><path class="cls-2" d="M18.92,29.56l-2.19-.24a1.12,1.12,0,0,0-.05-.13l1.37-1.71L14.54,24l-1.72,1.38-.12-.06-.25-2.18h-5l-.24,2.18-.13.06L5.4,24,1.88,27.48l1.37,1.71a.5.5,0,0,1,0,.13L1,29.56v5l2.18.24a.61.61,0,0,1,0,.12L1.88,36.62,5.4,40.14l1.71-1.38.13.06L7.48,41h5l.25-2.18.12-.06,1.72,1.38,3.51-3.52L16.68,34.9a.61.61,0,0,0,.05-.12l2.19-.24ZM15.5,33.24l-.17.52a5.61,5.61,0,0,1-.36.88l-.25.48,1.1,1.38-1.41,1.41L13,36.8l-.49.25a5.27,5.27,0,0,1-.88.37l-.51.16L11,39.33H9l-.19-1.75-.52-.16a5.65,5.65,0,0,1-.88-.37L6.9,36.8,5.52,37.91,4.11,36.5l1.11-1.38L5,34.64a5.65,5.65,0,0,1-.37-.88l-.16-.52-1.76-.19v-2l1.76-.19.16-.52A5.65,5.65,0,0,1,5,29.46L5.22,29,4.11,27.6l1.41-1.41L6.9,27.3l.48-.25a5.65,5.65,0,0,1,.88-.37l.52-.16L9,24.76h2l.2,1.76.51.16a5.27,5.27,0,0,1,.88.37l.49.25,1.37-1.11,1.41,1.41L14.72,29l.25.48a5.61,5.61,0,0,1,.36.88l.17.52,1.75.19v2Z"/><path class="cls-2" d="M10,28.49a3.56,3.56,0,1,0,3.56,3.56A3.56,3.56,0,0,0,10,28.49ZM10,34a1.9,1.9,0,1,1,1.9-1.9A1.9,1.9,0,0,1,10,34Z"/></svg>