<svg id="Layer_1" data-name="Layer 1" xmlns="http://www.w3.org/2000/svg" viewBox="0 0 42.06 42"><defs><style>.cls-1{fill:#fff;}.cls-2{fill:#2c5967;}</style></defs><title>Message Listener</title><metadata><?xpacket begin="﻿" id="W5M0MpCehiHzreSzNTczkc9d"?>
<x:xmpmeta xmlns:x="adobe:ns:meta/" x:xmptk="Adobe XMP Core 6.0-c006 79.164648, 2021/01/12-15:52:29        ">
   <rdf:RDF xmlns:rdf="http://www.w3.org/1999/02/22-rdf-syntax-ns#">
      <rdf:Description rdf:about=""
            xmlns:xmpRights="http://ns.adobe.com/xap/1.0/rights/"
            xmlns:xmp="http://ns.adobe.com/xap/1.0/"
            xmlns:xmpMM="http://ns.adobe.com/xap/1.0/mm/"
            xmlns:stEvt="http://ns.adobe.com/xap/1.0/sType/ResourceEvent#"
            xmlns:dc="http://purl.org/dc/elements/1.1/"
            xmlns:lr="http://ns.adobe.com/lightroom/1.0/">
         <xmpRights:Marked>True</xmpRights:Marked>
         <xmp:MetadataDate>2022-10-21T13:31:55-05:00</xmp:MetadataDate>
         <xmpMM:InstanceID>xmp.iid:201959be-d6ff-425d-bc4f-e84864c8ba12</xmpMM:InstanceID>
         <xmpMM:DocumentID>xmp.did:c1c991a5-a83c-497f-8930-bdb8a0e019aa</xmpMM:DocumentID>
         <xmpMM:OriginalDocumentID>xmp.did:c1c991a5-a83c-497f-8930-bdb8a0e019aa</xmpMM:OriginalDocumentID>
         <xmpMM:History>
            <rdf:Seq>
               <rdf:li>
                  <rdf:Description>
                     <stEvt:action>saved</stEvt:action>
                     <stEvt:instanceID>xmp.iid:c1c991a5-a83c-497f-8930-bdb8a0e019aa</stEvt:instanceID>
                     <stEvt:when>2021-06-23T15:54-05:00</stEvt:when>
                     <stEvt:softwareAgent>Adobe Bridge 2021 (Macintosh)</stEvt:softwareAgent>
                     <stEvt:changed>/metadata</stEvt:changed>
                  </rdf:Description>
               </rdf:li>
               <rdf:li>
                  <rdf:Description>
                     <stEvt:action>saved</stEvt:action>
                     <stEvt:instanceID>xmp.iid:201959be-d6ff-425d-bc4f-e84864c8ba12</stEvt:instanceID>
                     <stEvt:when>2022-10-21T13:31:55-05:00</stEvt:when>
                     <stEvt:softwareAgent>Adobe Bridge 2021 (Macintosh)</stEvt:softwareAgent>
                     <stEvt:changed>/metadata</stEvt:changed>
                  </rdf:Description>
               </rdf:li>
            </rdf:Seq>
         </xmpMM:History>
         <dc:title>
            <rdf:Alt>
               <rdf:li xml:lang="x-default">Message Listener</rdf:li>
            </rdf:Alt>
         </dc:title>
         <dc:rights>
            <rdf:Alt>
               <rdf:li xml:lang="x-default">Oracle All Rights Reserved</rdf:li>
            </rdf:Alt>
         </dc:rights>
         <dc:subject>
            <rdf:Bag>
               <rdf:li>icon</rdf:li>
               <rdf:li>communication</rdf:li>
               <rdf:li>chat</rdf:li>
               <rdf:li>quotes</rdf:li>
               <rdf:li>wifi</rdf:li>
               <rdf:li>signal</rdf:li>
            </rdf:Bag>
         </dc:subject>
         <lr:hierarchicalSubject>
            <rdf:Bag>
               <rdf:li>icon</rdf:li>
               <rdf:li>communication</rdf:li>
               <rdf:li>chat</rdf:li>
               <rdf:li>wifi</rdf:li>
            </rdf:Bag>
         </lr:hierarchicalSubject>
      </rdf:Description>
   </rdf:RDF>
</x:xmpmeta>
                                                                                                    
                                                                                                    
                                                                                                    
                                                                                                    
                                                                                                    
                                                                                                    
                                                                                                    
      
<?xpacket end="w"?></metadata>
<path class="cls-1" d="M36.22,41.5,29,32.33H15.81l-4.2,4.21-.36-.36a3.25,3.25,0,0,0-4.59,0l-.36.36-3.59-3.6L.5,30.85V.5H41.56v41Z"/><path class="cls-1" d="M41.06,1V41H36.47l-7.19-9.17H15.6l-.75.76h0l-.82.82-2.42,2.42a3.75,3.75,0,0,0-5.31,0L3.76,33.29l-.7-.7h0L1,30.63V1H41.06m1-1H0V31.06l.31.3,2.06,2,.69.68L5.6,36.54l.7.71L7,36.54a2.74,2.74,0,0,1,3.89,0l.71.71.7-.71,2.42-2.42.82-.82.47-.47H28.79l6.89,8.79L36,42h6.08V0Z"/><path class="cls-1" d="M9,41.48a3,3,0,0,1-2.13-5.12l.22-.2L7.3,36A3.07,3.07,0,0,1,9,35.48,3,3,0,0,1,10.6,36l.2.15a2,2,0,0,1,.24.21,3,3,0,0,1,0,4.27A3,3,0,0,1,9,41.48Z"/><path class="cls-1" d="M9,36a2.49,2.49,0,0,1,1.36.41h0a.88.88,0,0,1,.17.12l0,0,.16.14,0,0h0a2.5,2.5,0,0,1-3.53,3.53,2.49,2.49,0,0,1-.73-1.77,2.44,2.44,0,0,1,.73-1.76h0l.06-.05.12-.11.06,0,.15-.1,0,0A2.53,2.53,0,0,1,9,36m0-1a3.49,3.49,0,0,0-1.89.56h0l0,0-.19.14-.08.06-.16.15h0l-.05,0L6.45,36a3.51,3.51,0,1,0,5,0L11.39,36l-.05,0s-.11-.1-.17-.16l0,0-.05,0-.21-.15h0l0,0A3.42,3.42,0,0,0,9,35Z"/><path class="cls-2" d="M1.06,1,1,28.83a12.47,12.47,0,0,1,1.67-1.16l0-25H39.4V39.33H37.28l-7.19-9.16H18.32l.05,0,.84.84.06.06h0l.66.71h9.35L36.47,41h4.59V1Z"/><path class="cls-2" d="M14.31,21.83,17.15,24l3-6.55V10.17H11v7.87h3.28ZM12.7,16.38V11.85l5.81,0V17l-2,4.35L16,21V16.38Z"/><path class="cls-2" d="M25.18,21.83,28,24l3-6.55V10.17H21.9v7.87h3.28Zm-1.61-5.45V11.85l5.81,0V17l-2,4.35L26.85,21V16.38Z"/><path class="cls-2" d="M2.18,31.71c.11-.12.23-.23.35-.34l0,0a9.57,9.57,0,0,1,12.77,0l0,0c.12.11.24.22.35.34l1.18-1.18A11.26,11.26,0,0,0,1,30.53Z"/><path class="cls-2" d="M9,30.15a8.32,8.32,0,0,0-5.9,2.44l1.18,1.18c.16-.16.32-.31.49-.45a6.7,6.7,0,0,1,8.45,0c.17.14.33.29.49.45l1.18-1.18A8.31,8.31,0,0,0,9,30.15Z"/><path class="cls-2" d="M9,33.07a5.36,5.36,0,0,0-3.64,1.4l-.2.18L6.3,35.83a3.75,3.75,0,0,1,5.31,0l1.18-1.18-.2-.18A5.36,5.36,0,0,0,9,33.07Z"/><path class="cls-2" d="M10.72,36.71l0,0-.16-.14,0,0a.88.88,0,0,0-.17-.12h0a2.49,2.49,0,0,0-2.71,0l0,0-.15.1-.06,0-.12.11-.06.05h0a2.44,2.44,0,0,0-.73,1.76,2.49,2.49,0,0,0,.73,1.77,2.5,2.5,0,1,0,3.53-3.53Z"/></svg>