<?xml version="1.0" encoding="UTF-8" standalone="no"?>
<svg
   id="Layer_1"
   data-name="Layer 1"
   viewBox="0 0 38.33 42"
   version="1.1"
   sodipodi:docname="OCI Language.svg"
   inkscape:version="1.3.2 (091e20e, 2023-11-25, custom)"
   xmlns:inkscape="http://www.inkscape.org/namespaces/inkscape"
   xmlns:x="adobe:ns:meta/"
   xmlns:sodipodi="http://sodipodi.sourceforge.net/DTD/sodipodi-0.dtd"
   xmlns="http://www.w3.org/2000/svg"
   xmlns:svg="http://www.w3.org/2000/svg"
   xmlns:rdf="http://www.w3.org/1999/02/22-rdf-syntax-ns#"
   xmlns:dc="http://purl.org/dc/elements/1.1/"
   xmlns:xmp="http://ns.adobe.com/xap/1.0/"
   xmlns:xmpMM="http://ns.adobe.com/xap/1.0/mm/"
   xmlns:stEvt="http://ns.adobe.com/xap/1.0/sType/ResourceEvent#"
   xmlns:xmpRights="http://ns.adobe.com/xap/1.0/rights/">
  <sodipodi:namedview
     id="namedview15"
     pagecolor="#ffffff"
     bordercolor="#666666"
     borderopacity="1.0"
     inkscape:showpageshadow="2"
     inkscape:pageopacity="0.0"
     inkscape:pagecheckerboard="0"
     inkscape:deskcolor="#d1d1d1"
     inkscape:zoom="9.6008344"
     inkscape:cx="19.165001"
     inkscape:cy="20.987759"
     inkscape:window-width="1080"
     inkscape:window-height="1849"
     inkscape:window-x="-8"
     inkscape:window-y="-8"
     inkscape:window-maximized="1"
     inkscape:current-layer="Layer_1" />
  <metadata
     id="metadata1">
<?xpacket begin="﻿" id="W5M0MpCehiHzreSzNTczkc9d"?>    <x:xmpmeta
       x:xmptk="Adobe XMP Core 7.1-c000 79.4d2f597, 2021/09/01-20:51:22        ">
      <rdf:RDF>
        <rdf:Description
           rdf:about="">
          <xmp:MetadataDate>2023-11-08T16:48-06:00</xmp:MetadataDate>
          <xmpMM:InstanceID>xmp.iid:325efb5f-7720-784f-b816-ebd88e37d03b</xmpMM:InstanceID>
          <xmpMM:DocumentID>xmp.did:a12998d2-e0e3-6f4f-83a2-23d905952f4f</xmpMM:DocumentID>
          <xmpMM:OriginalDocumentID>xmp.did:a12998d2-e0e3-6f4f-83a2-23d905952f4f</xmpMM:OriginalDocumentID>
          <xmpMM:History>
            <rdf:Seq>
              <rdf:li>
                <rdf:Description>
                  <stEvt:action>saved</stEvt:action>
                  <stEvt:instanceID>xmp.iid:a12998d2-e0e3-6f4f-83a2-23d905952f4f</stEvt:instanceID>
                  <stEvt:when>2023-11-08T16:46:08-06:00</stEvt:when>
                  <stEvt:softwareAgent>Adobe Bridge 2023</stEvt:softwareAgent>
                  <stEvt:changed>/metadata</stEvt:changed>
                </rdf:Description>
              </rdf:li>
              <rdf:li>
                <rdf:Description>
                  <stEvt:action>saved</stEvt:action>
                  <stEvt:instanceID>xmp.iid:325efb5f-7720-784f-b816-ebd88e37d03b</stEvt:instanceID>
                  <stEvt:when>2023-11-08T16:48-06:00</stEvt:when>
                  <stEvt:softwareAgent>Adobe Bridge 2023</stEvt:softwareAgent>
                  <stEvt:changed>/metadata</stEvt:changed>
                </rdf:Description>
              </rdf:li>
            </rdf:Seq>
          </xmpMM:History>
          <dc:subject>
            <rdf:Bag>
              <rdf:li>Document</rdf:li>
              <rdf:li>File</rdf:li>
              <rdf:li>Tech-lines</rdf:li>
              <rdf:li>magnifying glass</rdf:li>
              <rdf:li>search</rdf:li>
              <rdf:li>text</rdf:li>
            </rdf:Bag>
          </dc:subject>
          <dc:rights>
            <rdf:Alt>
              <rdf:li
                 xml:lang="x-default">Oracle All Rights</rdf:li>
            </rdf:Alt>
          </dc:rights>
          <xmpRights:Marked>True</xmpRights:Marked>
        </rdf:Description>
      </rdf:RDF>
    </x:xmpmeta>
<?xpacket end="w"?>  </metadata>
  <defs
     id="defs1">
    <style
       id="style1">
      .cls-1 {
        fill: #2c5967;
      }

      .cls-2 {
        fill: #fff;
      }
    </style>
  </defs>
  <path
     class="cls-2"
     d="M32.93,22.57c.6,.6,1.39,.93,2.24,.93s1.64-.33,2.24-.93c.6-.6,.93-1.39,.93-2.24s-.33-1.64-.93-2.24c-.6-.6-1.39-.93-2.24-.93s-1.64,.33-2.24,.93c-.17,.17-.32,.36-.45,.57h-1.64V10.23l-.29-.29-1.77-1.77h3.72l.29-.29,1.63-1.63c.25,.06,.5,.09,.76,.09,.85,0,1.64-.33,2.24-.93,1.23-1.23,1.23-3.24,0-4.48-.6-.6-1.39-.93-2.24-.93s-1.64,.33-2.24,.93c-.6,.6-.93,1.39-.93,2.24,0,.24,.03,.47,.08,.69l-.97,.97H8v7.83h-2.12c-.57-.94-1.59-1.53-2.71-1.53-.44,0-.86,.09-1.27,.27-.77,.34-1.37,.96-1.68,1.75s-.29,1.65,.05,2.42c.5,1.15,1.64,1.9,2.9,1.9,.44,0,.87-.09,1.27-.27,.58-.25,1.07-.68,1.4-1.21h2.16v8.5h-2.14c-.13-.21-.28-.4-.45-.57-.6-.6-1.39-.93-2.24-.93s-1.64,.33-2.24,.93S0,25.32,0,26.17s.33,1.64,.93,2.24,1.39,.93,2.24,.93,1.64-.33,2.24-.93c.17-.17,.32-.37,.45-.57h2.14v4.67h0v2.29l.55,.28,1.34,.67,.21,.1h5.78s-.96,1.33-.96,1.33h-3.22c-.57-.92-1.58-1.5-2.69-1.5-1.75,0-3.17,1.42-3.17,3.17s1.42,3.17,3.17,3.17c1.12,0,2.12-.58,2.69-1.5h4.93l.3-.42,3.06-4.25h8.75l.21-.11,1.29-.64,.26-.13,.53,.53,.71,.71,.71-.71,3.81-3.81,.71-.71-.71-.71-1.23-1.23c-.78-.78-1.66-1.54-2.62-2.26l-1.95-1.4c.43-1.08,.6-2.23,.53-3.37h1.51c.13,.21,.28,.4,.45,.57Z"
     id="path1" />
  <path
     id="path15"
     class="cls-1"
     d="m 26.46,19.44 c -0.65,-0.65 -1.47,-1.07 -2.38,-1.21 l -0.21,1.32 c 0.63,0.1 1.19,0.39 1.64,0.83 0.2,0.2 0.36,0.42 0.5,0.66 l 1.17,-0.65 c -0.19,-0.35 -0.44,-0.67 -0.72,-0.95 z m 0.98,1.52 -1.25,0.47 c 0.07,0.18 0.12,0.36 0.15,0.55 l 1.31,-0.23 c -0.05,-0.27 -0.12,-0.54 -0.22,-0.8 z m 4.35,6.61 -2.61,-1.88 c 1.38,-2.53 1,-5.77 -1.14,-7.91 -2.6,-2.6 -6.83,-2.6 -9.43,0 -2.6,2.6 -2.6,6.83 0,9.43 1.3,1.3 3.01,1.95 4.71,1.95 1.07,0 2.13,-0.25 3.1,-0.76 l 1.9,2.64 c 0.69,0.92 1.41,1.76 2.16,2.5 l 1.23,1.23 3.81,-3.81 -1.23,-1.23 C 33.55,28.99 32.7,28.26 31.78,27.57 Z m -12.23,-1.3 c -2.08,-2.08 -2.08,-5.46 0,-7.54 1.04,-1.04 2.41,-1.56 3.77,-1.56 1.36,0 2.73,0.52 3.77,1.56 2.08,2.08 2.08,5.46 0,7.54 -2.08,2.08 -5.46,2.08 -7.54,0 z m 12.16,6.63 -0.29,-0.29 c -0.7,-0.7 -1.38,-1.49 -2.03,-2.35 l -1.86,-2.59 c 0.17,-0.14 0.34,-0.29 0.5,-0.45 0.14,-0.14 0.26,-0.28 0.38,-0.42 l 2.57,1.85 c 0.87,0.65 1.66,1.33 2.36,2.03 l 0.29,0.29 -1.93,1.93 z M 12,26.83 h 5.05 C 16.76,26.41 16.52,25.96 16.32,25.5 H 12 Z m 0,-3 h 3.84 c -0.07,-0.42 -0.11,-0.84 -0.11,-1.27 0,-0.02 0,-0.04 0,-0.06 H 12 Z m 4.3,-4.16 H 12 V 21 h 3.89 c 0.1,-0.46 0.23,-0.9 0.41,-1.33 z m 1.66,-2.47 c 0.19,-0.19 0.39,-0.37 0.59,-0.53 H 12.01 V 18 h 5.26 c 0.21,-0.28 0.44,-0.55 0.7,-0.8 z m 5.36,-2.22 c 0.19,0 0.37,0 0.55,0.02 h 2.97 V 13.67 H 12 V 15 h 10.76 c 0.18,-0.01 0.37,-0.02 0.55,-0.02 z M 28.5,33.5 v 0 c 0,0 -18.17,0 -18.17,0 v 0 c 0,0 -1.34,0 -1.34,0 v 0.67 l 1.34,0.67 v 0 c 0,0 7.49,0 7.49,0 l -2.4,3.33 h -4.37 c -0.28,-0.87 -1.1,-1.5 -2.06,-1.5 -1.19,0 -2.17,0.97 -2.17,2.17 0,1.2 0.97,2.17 2.17,2.17 0.96,0 1.78,-0.63 2.06,-1.5 h 5.05 l 3.36,-4.67 h 9.03 c 0,0 1.28,-0.64 1.28,-0.64 -0.22,-0.22 -0.44,-0.45 -0.66,-0.69 H 28.48 Z M 9,39.67 c -0.46,0 -0.83,-0.37 -0.83,-0.83 0,-0.46 0.37,-0.83 0.83,-0.83 0.46,0 0.83,0.37 0.83,0.83 0,0.46 -0.37,0.83 -0.83,0.83 z m 18.57,-8.05 v 0 c 0,0 0,-0.02 0,-0.02 L 27.38,31.33 H 10.34 V 7.17 H 23.67 V 12 h 4.83 v 5.03 c 0.06,0.06 0.12,0.11 0.18,0.17 0.45,0.45 0.84,0.95 1.16,1.48 V 10.64 L 25.02,5.83 H 9 V 32.66 H 28.4 C 28.12,32.32 27.84,31.97 27.57,31.61 Z M 25,7.71 27.97,10.67 H 25 Z M 3.17,16.47 c 0.29,0 0.58,-0.06 0.87,-0.18 C 4.62,16.04 5.03,15.56 5.22,15 H 8.01 V 13.67 H 5.25 C 5.23,13.59 5.2,13.52 5.17,13.44 4.69,12.35 3.41,11.84 2.32,12.32 c -0.53,0.23 -0.94,0.66 -1.15,1.2 -0.21,0.54 -0.2,1.13 0.03,1.66 0.36,0.81 1.15,1.3 1.99,1.3 z M 2.39,14 c 0.08,-0.21 0.24,-0.37 0.44,-0.46 0.11,-0.05 0.22,-0.07 0.33,-0.07 0.1,0 0.21,0.02 0.3,0.06 0.21,0.08 0.37,0.24 0.46,0.44 0.09,0.2 0.09,0.43 0.01,0.64 -0.08,0.21 -0.24,0.37 -0.44,0.46 -0.42,0.18 -0.91,0 -1.1,-0.43 C 2.3,14.44 2.3,14.21 2.38,14 Z m 31.25,4.8 c -0.25,0.25 -0.43,0.54 -0.53,0.87 H 30.84 V 21 h 2.27 c 0.1,0.32 0.28,0.62 0.53,0.87 0.42,0.42 0.98,0.63 1.53,0.63 0.55,0 1.11,-0.21 1.53,-0.63 0.84,-0.84 0.84,-2.22 0,-3.06 -0.84,-0.85 -2.22,-0.84 -3.06,0 z m 2.12,2.12 c -0.32,0.32 -0.85,0.33 -1.18,0 v 0 c -0.16,-0.16 -0.24,-0.37 -0.24,-0.59 0,-0.22 0.09,-0.43 0.24,-0.59 0.16,-0.16 0.38,-0.24 0.59,-0.24 0.21,0 0.43,0.08 0.59,0.24 0.32,0.33 0.32,0.85 0,1.18 z M 8,25.5 H 5.23 C 5.13,25.18 4.95,24.89 4.7,24.63 c -0.84,-0.84 -2.22,-0.85 -3.06,0 -0.41,0.41 -0.63,0.95 -0.63,1.53 0,0.58 0.23,1.12 0.63,1.53 0.42,0.42 0.98,0.63 1.53,0.63 0.55,0 1.11,-0.21 1.53,-0.63 0.25,-0.25 0.43,-0.55 0.53,-0.87 H 8 v -1.33 z m -4.24,1.26 c -0.32,0.32 -0.85,0.33 -1.18,0 -0.16,-0.16 -0.24,-0.37 -0.24,-0.59 0,-0.22 0.09,-0.43 0.24,-0.59 0.16,-0.16 0.38,-0.24 0.59,-0.24 0.21,0 0.43,0.08 0.59,0.24 0.32,0.33 0.32,0.85 0,1.18 z M 32.07,7.17 34.15,5.09 c 0.32,0.17 0.66,0.25 1.01,0.25 0.55,0 1.11,-0.21 1.53,-0.63 0.84,-0.84 0.84,-2.22 0,-3.06 C 35.85,0.8 34.47,0.81 33.63,1.65 33.22,2.06 33,2.6 33,3.18 c 0,0.34 0.08,0.66 0.23,0.96 l -1.71,1.71 h -5.09 l 1.34,1.33 h 4.31 z m 2.51,-4.59 c 0.16,-0.16 0.38,-0.24 0.59,-0.24 0.21,0 0.43,0.08 0.59,0.24 0.32,0.33 0.32,0.85 0,1.18 -0.32,0.32 -0.85,0.33 -1.18,0 v 0 C 34.42,3.6 34.34,3.39 34.34,3.17 c 0,-0.22 0.09,-0.43 0.24,-0.59 z" />
</svg>
