<svg id="Layer_1" data-name="Layer 1" xmlns="http://www.w3.org/2000/svg" viewBox="0 0 37.37 40"><title>Marketplace</title><metadata><?xpacket begin="﻿" id="W5M0MpCehiHzreSzNTczkc9d"?>
<x:xmpmeta xmlns:x="adobe:ns:meta/" x:xmptk="Adobe XMP Core 6.0-c006 79.164648, 2021/01/12-15:52:29        ">
   <rdf:RDF xmlns:rdf="http://www.w3.org/1999/02/22-rdf-syntax-ns#">
      <rdf:Description rdf:about=""
            xmlns:xmp="http://ns.adobe.com/xap/1.0/"
            xmlns:xmpMM="http://ns.adobe.com/xap/1.0/mm/"
            xmlns:stEvt="http://ns.adobe.com/xap/1.0/sType/ResourceEvent#"
            xmlns:dc="http://purl.org/dc/elements/1.1/"
            xmlns:lr="http://ns.adobe.com/lightroom/1.0/">
         <xmp:MetadataDate>2022-03-11T13:07:01-06:00</xmp:MetadataDate>
         <xmpMM:InstanceID>xmp.iid:2ebf2d3b-de03-49a2-97f0-a949415196bc</xmpMM:InstanceID>
         <xmpMM:DocumentID>xmp.did:8b98d8f7-5888-084d-85ea-39ec47ba5e9c</xmpMM:DocumentID>
         <xmpMM:OriginalDocumentID>xmp.did:8b98d8f7-5888-084d-85ea-39ec47ba5e9c</xmpMM:OriginalDocumentID>
         <xmpMM:History>
            <rdf:Seq>
               <rdf:li>
                  <rdf:Description>
                     <stEvt:action>saved</stEvt:action>
                     <stEvt:instanceID>xmp.iid:8b98d8f7-5888-084d-85ea-39ec47ba5e9c</stEvt:instanceID>
                     <stEvt:when>2022-03-10T20:02:44-06:00</stEvt:when>
                     <stEvt:softwareAgent>Adobe Bridge 2020 (Windows)</stEvt:softwareAgent>
                     <stEvt:changed>/metadata</stEvt:changed>
                  </rdf:Description>
               </rdf:li>
               <rdf:li>
                  <rdf:Description>
                     <stEvt:action>saved</stEvt:action>
                     <stEvt:instanceID>xmp.iid:2ebf2d3b-de03-49a2-97f0-a949415196bc</stEvt:instanceID>
                     <stEvt:when>2022-03-11T13:07:01-06:00</stEvt:when>
                     <stEvt:softwareAgent>Adobe Bridge 2021 (Macintosh)</stEvt:softwareAgent>
                     <stEvt:changed>/metadata</stEvt:changed>
                  </rdf:Description>
               </rdf:li>
            </rdf:Seq>
         </xmpMM:History>
         <dc:title>
            <rdf:Alt>
               <rdf:li xml:lang="x-default">Marketplace</rdf:li>
            </rdf:Alt>
         </dc:title>
         <dc:subject>
            <rdf:Bag>
               <rdf:li>icon</rdf:li>
               <rdf:li>Marketplace</rdf:li>
               <rdf:li>market</rdf:li>
               <rdf:li>shopping</rdf:li>
               <rdf:li>cart</rdf:li>
               <rdf:li>business</rdf:li>
               <rdf:li>buy</rdf:li>
               <rdf:li>sell</rdf:li>
               <rdf:li>shopping</rdf:li>
               <rdf:li>online store</rdf:li>
               <rdf:li>ecommerce</rdf:li>
            </rdf:Bag>
         </dc:subject>
         <lr:hierarchicalSubject>
            <rdf:Bag>
               <rdf:li>icon</rdf:li>
            </rdf:Bag>
         </lr:hierarchicalSubject>
      </rdf:Description>
   </rdf:RDF>
</x:xmpmeta>
                                                                                                    
                                                                                                    
                                                                                                    
                                                                                                    
                                                                                                    
                                                                                                    
                                                                                                    
                                                                                                    
                                                                                                    
                                                                                                    
                                                                                                    
                        
<?xpacket end="w"?></metadata>
<path d="M36,12.79h-.61l-.13-.54a8.88,8.88,0,0,0-8.67-6.89h-.07L26.38,5l-.85-2.36L25.29,2l-.69-.14L15.51.13,14.8,0l-.47.54-6.05,7L7.8,8.1l.25.68.55,1.5.1.81h0v0A3.16,3.16,0,0,0,5.54,8.2H0v4.14H4.65L6.24,32.69h0a3.17,3.17,0,0,0,2.27,2.75,2.26,2.26,0,0,0,0,.26,4.28,4.28,0,0,0,8.56,0v-.14H24v.14a4.28,4.28,0,0,0,8.56,0,.66.66,0,0,0,0-.14h2.3V31.44H10.3l0-.42H32.09a3.39,3.39,0,0,0,3.37-3L37.2,14.18l.17-1.39Z" fill="#fff"/><path d="M11.41,35.72a1.38,1.38,0,1,0,1.38-1.38A1.38,1.38,0,0,0,11.41,35.72Z" fill="none"/><path d="M26.87,35.72a1.38,1.38,0,1,0,1.38-1.38A1.38,1.38,0,0,0,26.87,35.72Z" fill="none"/><path d="M8.8,28.12H32.09a.49.49,0,0,0,.49-.43l1.51-12H7.82Z" fill="none"/><path d="M20.58,14a6.2,6.2,0,0,1,6-5.77,6,6,0,0,1,5.75,4.27H34A7.68,7.68,0,0,0,26.56,6.6,7.87,7.87,0,0,0,18.92,14H7.69l-.23-2.84A1.92,1.92,0,0,0,5.54,9.44H1.24V11.1h4.3a.26.26,0,0,1,.27.23L7.48,32.59a1.93,1.93,0,0,0,1.93,1.75h.68a3,3,0,1,0,5.4,0h10a3,3,0,1,0,5.41,0h2.63V32.68H9.41a.26.26,0,0,1-.27-.23l-.21-2.67H32.09a2.17,2.17,0,0,0,2.14-1.89L36,14ZM14.17,35.72a1.38,1.38,0,1,1-1.38-1.38A1.38,1.38,0,0,1,14.17,35.72Zm15.45,0a1.38,1.38,0,1,1-1.37-1.38A1.37,1.37,0,0,1,29.62,35.72Zm3-8a.49.49,0,0,1-.49.43H8.8l-1-12.43H34.09Z" fill="#2c5967"/><path d="M12.54,12.65,11.1,8.72l4.8-5.56,7.21,1.38.47,1.33a10,10,0,0,1,1.63-.41L24.36,3.1,15.27,1.36l-6,7,1.56,4.29Z" fill="#2c5967"/></svg>