<?xml version="1.0" encoding="UTF-8" standalone="no"?>
<svg
   id="Layer_1"
   data-name="Layer 1"
   viewBox="0 0 38.16 42"
   version="1.1"
   sodipodi:docname="Other - OCI Cloud Migration Advisor.svg"
   inkscape:version="1.3.2 (091e20e, 2023-11-25, custom)"
   xmlns:inkscape="http://www.inkscape.org/namespaces/inkscape"
   xmlns:x="adobe:ns:meta/"
   xmlns:sodipodi="http://sodipodi.sourceforge.net/DTD/sodipodi-0.dtd"
   xmlns="http://www.w3.org/2000/svg"
   xmlns:svg="http://www.w3.org/2000/svg"
   xmlns:rdf="http://www.w3.org/1999/02/22-rdf-syntax-ns#"
   xmlns:dc="http://purl.org/dc/elements/1.1/"
   xmlns:xmp="http://ns.adobe.com/xap/1.0/"
   xmlns:xmpMM="http://ns.adobe.com/xap/1.0/mm/"
   xmlns:stEvt="http://ns.adobe.com/xap/1.0/sType/ResourceEvent#"
   xmlns:xmpRights="http://ns.adobe.com/xap/1.0/rights/"
   xmlns:lr="http://ns.adobe.com/lightroom/1.0/">
  <defs
     id="defs9" />
  <sodipodi:namedview
     id="namedview9"
     pagecolor="#ffffff"
     bordercolor="#666666"
     borderopacity="1.0"
     inkscape:showpageshadow="2"
     inkscape:pageopacity="0.0"
     inkscape:pagecheckerboard="0"
     inkscape:deskcolor="#d1d1d1"
     inkscape:zoom="9.6436059"
     inkscape:cx="19.131848"
     inkscape:cy="20.998369"
     inkscape:window-width="1459"
     inkscape:window-height="971"
     inkscape:window-x="1187"
     inkscape:window-y="453"
     inkscape:window-maximized="0"
     inkscape:current-layer="Layer_1" />
  <metadata
     id="metadata1">
<?xpacket begin="﻿" id="W5M0MpCehiHzreSzNTczkc9d"?>    <x:xmpmeta
       x:xmptk="Adobe XMP Core 6.0-c006 79.164648, 2021/01/12-15:52:29        ">
      <rdf:RDF>
        <rdf:Description
           rdf:about="">
          <dc:subject>
            <rdf:Bag>
              <rdf:li>database</rdf:li>
              <rdf:li>rocket</rdf:li>
              <rdf:li>launch</rdf:li>
              <rdf:li>migration</rdf:li>
              <rdf:li>migrate</rdf:li>
              <rdf:li>icon</rdf:li>
            </rdf:Bag>
          </dc:subject>
          <dc:rights>
            <rdf:Alt>
              <rdf:li
                 xml:lang="x-default">Oracle All Rights</rdf:li>
            </rdf:Alt>
          </dc:rights>
          <xmp:MetadataDate>2023-08-02T14:36:32-06:00</xmp:MetadataDate>
          <xmpMM:InstanceID>xmp.iid:6eddff96-f33b-46e1-b910-6bf183cde733</xmpMM:InstanceID>
          <xmpMM:DocumentID>xmp.did:632bdacc-80a6-4308-91b9-54397208aec4</xmpMM:DocumentID>
          <xmpMM:OriginalDocumentID>xmp.did:632bdacc-80a6-4308-91b9-54397208aec4</xmpMM:OriginalDocumentID>
          <xmpMM:History>
            <rdf:Seq>
              <rdf:li>
                <rdf:Description>
                  <stEvt:action>saved</stEvt:action>
                  <stEvt:instanceID>xmp.iid:632bdacc-80a6-4308-91b9-54397208aec4</stEvt:instanceID>
                  <stEvt:when>2023-08-02T14:22:31-06:00</stEvt:when>
                  <stEvt:softwareAgent>Adobe Bridge 2021 (Macintosh)</stEvt:softwareAgent>
                  <stEvt:changed>/metadata</stEvt:changed>
                </rdf:Description>
              </rdf:li>
              <rdf:li>
                <rdf:Description>
                  <stEvt:action>saved</stEvt:action>
                  <stEvt:instanceID>xmp.iid:6eddff96-f33b-46e1-b910-6bf183cde733</stEvt:instanceID>
                  <stEvt:when>2023-08-02T14:36:32-06:00</stEvt:when>
                  <stEvt:softwareAgent>Adobe Bridge 2021 (Macintosh)</stEvt:softwareAgent>
                  <stEvt:changed>/metadata</stEvt:changed>
                </rdf:Description>
              </rdf:li>
            </rdf:Seq>
          </xmpMM:History>
          <xmpRights:Marked>True</xmpRights:Marked>
          <lr:hierarchicalSubject>
            <rdf:Bag>
              <rdf:li>Other Keywords|icon</rdf:li>
            </rdf:Bag>
          </lr:hierarchicalSubject>
        </rdf:Description>
      </rdf:RDF>
    </x:xmpmeta>
<?xpacket end="w"?>  </metadata>
  <path
     id="path1"
     d="M 28.259766 0 A 5.7 5.7 0 0 0 24.050781 1.8398438 A 0.2 0.2 0 0 1 23.939453 1.9003906 A 4.33 4.33 0 0 0 23.410156 1.9003906 A 5 5 0 0 0 21.470703 2.3105469 A 4.87 4.87 0 0 0 18.660156 5.7792969 A 0.28 0.28 0 0 1 18.550781 5.9804688 A 6.14 6.14 0 0 0 15.455078 9.8691406 L 12.550781 7 L 11.839844 6.2890625 L 11.849609 6.2304688 L 11.130859 7 L 10.199219 8 L 9.5 8.7109375 L 10.210938 9.4101562 L 10.269531 9.4707031 A 4.42 4.42 0 0 0 6.6601562 13.810547 L 6.6601562 20.599609 A 16.46 16.46 0 0 0 2.4296875 33.509766 L 1.9003906 34.089844 L 0.73046875 35.359375 A 2.8 2.8 0 0 0 0 37.230469 L 0 42 L 3.7304688 42 L 4 41.769531 L 5.109375 40.830078 L 6.859375 40.830078 L 6.859375 42 L 10.199219 42 L 10.199219 40.830078 L 11.880859 40.830078 L 12.939453 41.720703 L 13.220703 41.960938 L 17 41.960938 L 17 37.230469 A 2.75 2.75 0 0 0 16.279297 35.369141 L 15.119141 34.119141 L 14.539062 33.490234 A 17.85 17.85 0 0 0 14.390625 29.630859 A 17.06 17.06 0 0 0 10.009766 20.630859 L 10.009766 13.839844 L 10.210938 14.050781 L 11.140625 15 L 11.849609 15.710938 L 12.560547 15.009766 L 15.210938 12.384766 L 15.189453 12.710938 L 19.880859 12.710938 L 19.880859 19 C 19.880859 20.409999 21.190944 22.080078 27.460938 22.080078 C 30.910934 22.080078 35.039062 21.549997 35.039062 19 L 35.039062 12.679688 L 37.039062 12.679688 L 37.320312 12.140625 L 37.5 11.789062 A 5.84 5.84 0 0 0 33.589844 3.3203125 A 0.27 0.27 0 0 1 33.419922 3.1894531 A 5.7 5.7 0 0 0 28.259766 0 z "
     style="fill:#fcfbfa" />
  <path
     id="path6"
     d="M 34.9,4.93 A 4.87,4.87 0 0 0 33.35,4.3 1.26,1.26 0 0 1 32.49,3.62 4.72,4.72 0 0 0 24.79,2.52 1.2,1.2 0 0 1 23.84,2.9 3.84,3.84 0 0 0 19.64,6 1.25,1.25 0 0 1 18.99,6.9 5.1,5.1 0 0 0 16.26,11 l -0.05,0.72 h 3.62 v -1.37 h -2.1 A 3.76,3.76 0 0 1 19.61,8 a 2.6,2.6 0 0 0 1.33,-1.82 2.56,2.56 0 0 1 1.45,-1.79 2.4,2.4 0 0 1 1.3,-0.2 2.5,2.5 0 0 0 2.07,-0.8 3.4,3.4 0 0 1 5.54,0.8 2.65,2.65 0 0 0 1.79,1.41 3.08,3.08 0 0 1 1.11,0.46 3.53,3.53 0 0 1 1.39,4.29 H 35 v 1.33 h 1.4 l 0.19,-0.35 A 4.88,4.88 0 0 0 34.9,4.93 Z m -7.49,1.58 c -0.67,0 -6.58,0.07 -6.58,2.17 V 19 c 0,2 5.48,2.08 6.58,2.08 C 28.51,21.08 34,21 34,19 V 8.68 C 34,6.58 28.07,6.51 27.41,6.51 Z m 0,1.34 a 11.84,11.84 0 0 1 5.14,0.83 11.69,11.69 0 0 1 -5.14,0.83 11.79,11.79 0 0 1 -5.15,-0.83 11.86,11.86 0 0 1 5.15,-0.83 z m 5.24,11.09 c -0.36,0.32 -2.2,0.85 -5.24,0.85 -3.04,0 -4.89,-0.55 -5.25,-0.85 V 17 a 17.24,17.24 0 0 0 5.25,0.72 17.18,17.18 0 0 0 5.24,-0.72 z m 0,-3.41 c -0.36,0.31 -2.2,0.85 -5.24,0.85 -3.04,0 -4.89,-0.55 -5.25,-0.85 v -2 a 17.24,17.24 0 0 0 5.25,0.72 17.18,17.18 0 0 0 5.24,-0.72 z m 0,-3.5 c -0.36,0.32 -2.2,0.85 -5.24,0.85 -3.04,0 -4.89,-0.53 -5.25,-0.85 V 10.1 a 16.87,16.87 0 0 0 5.25,0.75 17.49,17.49 0 0 0 5.24,-0.75 z"
     style="fill:#2c5967" />
  <path
     id="path9"
     d="m 14.38,34.8 -0.89,-1 a 16.35,16.35 0 0 0 -0.1,-4.07 16.1,16.1 0 0 0 -4.59,-9 L 8.33,20.27 7.86,20.73 A 15.5,15.5 0 0 0 3.48,33.85 L 2.63,34.77 1.47,36 A 1.77,1.77 0 0 0 1,37.23 V 41 H 3.37 L 4.5,40 5.28,39.35 v 0.08 l 0.18,0.35 h 2.4 V 41 H 9.2 v -1.17 h 2.38 l 0.18,-0.35 c 0,0 0,0 0,0 l 0.78,0.65 1.07,0.9 H 16 v -3.8 A 1.76,1.76 0 0 0 15.53,36 Z M 8.33,22.22 a 16.31,16.31 0 0 1 1.72,2.29 h -3.4 a 13.44,13.44 0 0 1 1.68,-2.29 z m -4.45,16.6 -1,0.85 H 2.33 V 37.23 A 0.4,0.4 0 0 1 2.45,36.94 L 3,36.35 3.8,35.49 a 16.34,16.34 0 0 0 0.9,2.66 z M 9.2,38.5 v -5 H 7.86 v 5 H 6.31 A 14.6,14.6 0 0 1 6,25.84 h 4.81 a 14.36,14.36 0 0 1 0,12.66 z m 5.46,1.17 h -0.55 l -0.95,-0.8 -0.8,-0.67 a 14.67,14.67 0 0 0 0.87,-2.7 l 0.81,0.89 0.5,0.53 a 0.45,0.45 0 0 1 0.12,0.3 z M 8.51,27.41 a 2.17,2.17 0 1 0 2.17,2.16 2.15,2.15 0 0 0 -2.17,-2.16 z m 0,3 A 0.83,0.83 0 1 1 9.35,29.58 0.84,0.84 0 0 1 8.51,30.4 Z M 9,19.58 v -5.82 a 2.08,2.08 0 0 1 2.08,-2.08 h 1.52 l -1.69,1.66 0.94,0.95 3.33,-3.29 -3.33,-3.3 -0.94,1 1.72,1.7 h -1.55 a 3.42,3.42 0 0 0 -3.42,3.41 v 5.82 l 0.67,-0.67 z"
     style="fill:#2c5967" />
</svg>
