<svg width="108" height="40" viewBox="0 0 108 40" fill="none" xmlns="http://www.w3.org/2000/svg">
<g clip-path="url(#clip0_9_1107)">
<path d="M34.8927 14.674C32.7788 14.674 30.419 15.477 29.9245 18.1201C29.8718 18.4009 30.0604 18.5349 30.2425 18.5759L32.4091 18.832C32.6096 18.822 32.7455 18.6069 32.7843 18.4045C32.9692 17.4949 33.728 17.0656 34.5756 17.0656C35.0332 17.0656 35.5471 17.2206 35.8179 17.6353C36.1285 18.0974 36.1063 18.7253 36.1063 19.2585V19.5721C34.8187 19.7179 33.1236 19.8063 31.9183 20.3413C30.5272 20.9511 29.5502 22.1916 29.5502 24.0153C29.5502 26.3523 31.0023 27.5189 32.8721 27.5189C34.4509 27.5189 35.3234 27.1534 36.5407 25.8956C36.9446 26.4881 37.074 26.757 37.8116 27.3767C37.8932 27.4226 37.9874 27.4418 38.0807 27.4317C38.174 27.4215 38.2617 27.3825 38.3311 27.3202V27.3485C38.7748 26.9493 39.5817 26.2238 40.0355 25.8391C40.2167 25.6897 40.177 25.4436 40.0355 25.2412C39.6298 24.6743 39.1981 24.2168 39.1981 23.1622V19.6587C39.1981 18.1748 39.3257 16.8068 38.2452 15.785C37.392 14.9584 35.9723 14.674 34.8927 14.674ZM64.0084 14.674C61.8936 14.674 59.5357 15.477 59.0403 18.1201C58.9876 18.4009 59.1752 18.5349 59.3582 18.5759L61.5248 18.832C61.7254 18.822 61.8622 18.6069 61.9001 18.4045C62.0859 17.4949 62.8438 17.0656 63.6914 17.0656C64.1498 17.0656 64.6628 17.2206 64.9337 17.6353C65.2433 18.0974 65.1934 18.7253 65.1934 19.2585V19.5721C63.9058 19.7179 62.2402 19.8063 61.034 20.3413C59.642 20.9511 58.6659 22.1916 58.6659 24.0153C58.6659 26.3523 60.1189 27.5189 61.9879 27.5189C63.5648 27.5189 64.4373 27.1534 65.6565 25.8956C66.0595 26.4881 66.1898 26.757 66.9274 27.3767C67.0938 27.4642 67.2999 27.4551 67.4469 27.3202V27.3485C67.8905 26.9493 68.6974 26.2238 69.1513 25.8391C69.3315 25.6897 69.2899 25.4436 69.1513 25.2412C68.7455 24.6743 68.3139 24.2168 68.3139 23.1622V19.6587C68.3139 18.1748 68.4109 16.8068 67.3322 15.785C66.4782 14.9584 65.088 14.674 64.0084 14.674ZM47.6306 14.7879C46.2645 14.7879 45.2514 15.4679 44.7135 16.9243H44.6848V15.415C44.6775 15.3115 44.6325 15.2141 44.5581 15.1407C44.4837 15.0674 44.3849 15.023 44.28 15.0158H42.2003C42.0858 15.0174 41.9765 15.063 41.8956 15.1428C41.8146 15.2226 41.7684 15.3304 41.7668 15.4433V26.9784C41.7766 27.081 41.8224 27.177 41.8963 27.2499C41.9702 27.3227 42.0676 27.3679 42.1716 27.3776H44.3955C44.5101 27.3765 44.6197 27.331 44.7007 27.2511C44.7817 27.1712 44.8278 27.0632 44.829 26.9502V20.8262C44.829 19.491 44.7634 17.6644 46.3597 17.6644C47.9356 17.6644 47.7175 19.5411 47.7175 20.8262V26.9502C47.7175 27.168 47.8977 27.3631 48.1223 27.3776H50.3462C50.4608 27.3765 50.5704 27.331 50.6514 27.2511C50.7324 27.1712 50.7785 27.0632 50.7797 26.9502V20.8262C50.7797 20.1709 50.7529 19.2166 50.9821 18.6333C51.2104 18.05 51.7715 17.6653 52.3113 17.6653C52.9546 17.6653 53.4454 17.8868 53.6109 18.6625C53.7144 19.1236 53.6682 20.3422 53.6682 20.8271V26.9511C53.6682 27.1689 53.8484 27.364 54.073 27.3786H56.2969C56.4115 27.3774 56.5211 27.332 56.6021 27.252C56.6832 27.1721 56.7292 27.0641 56.7304 26.9511V19.6596C56.7304 18.4209 56.857 17.0146 56.1527 16.0421C55.5307 15.1689 54.5139 14.7888 53.5822 14.7888C52.2752 14.7888 51.0598 15.4688 50.5209 16.9253C49.8979 15.4688 49.0198 14.7879 47.6306 14.7879ZM85.4413 14.7879C82.2275 14.7879 80.4445 17.5742 80.4445 21.168C80.4445 24.7372 82.2081 27.6046 85.4413 27.6046C88.5516 27.6046 90.525 24.8028 90.525 21.281C90.525 17.6416 88.7374 14.7879 85.4413 14.7879ZM98.121 14.7879C96.5857 14.7879 95.7085 15.5453 95.0883 17.123H95.0597V15.3567C95.0199 15.178 94.8489 15.0541 94.6548 15.0431H92.6038C92.4978 15.0408 92.3948 15.0774 92.3147 15.1457C92.2346 15.2141 92.1831 15.3094 92.1703 15.4132V26.9484C92.1724 27.0563 92.2149 27.1597 92.2896 27.2386C92.3644 27.3175 92.4661 27.3664 92.5751 27.3758H94.7704C94.8848 27.3742 94.9941 27.3286 95.0751 27.2488C95.156 27.169 95.2022 27.0612 95.2039 26.9484V20.7396C95.2039 19.9613 95.2704 19.2512 95.5791 18.5467C95.8287 17.988 96.3103 17.6353 96.8501 17.6353C98.3826 17.6353 98.2365 19.4773 98.2365 20.7396V27.0058C98.2507 27.1039 98.2987 27.1942 98.3724 27.2616C98.4461 27.329 98.5411 27.3693 98.6414 27.3758H100.865C101.083 27.3758 101.273 27.2118 101.299 27.0058V19.7425C101.299 18.626 101.302 17.0747 100.721 16.1533C100.099 15.1589 99.1146 14.7879 98.121 14.7879ZM71.4316 14.9875C71.206 14.9875 71.0276 15.1644 71.0267 15.415V17.0665C71.0276 17.3135 71.2005 17.4922 71.4316 17.494H75.2443L70.8825 23.8458C70.6163 24.2551 70.5941 24.719 70.5941 24.9851V26.6658C70.5941 26.9083 70.8613 27.1717 71.1136 27.0359C73.5991 25.6979 76.5781 25.8163 78.826 27.0076C79.0987 27.1543 79.3751 26.8791 79.3751 26.6376V24.8712C79.3688 24.741 79.3281 24.6146 79.2571 24.5046C79.1861 24.3947 79.0872 24.3049 78.9702 24.2441C77.6947 23.5204 76.2139 23.299 74.8108 23.3327L78.595 17.864C78.9453 17.3728 79.1412 17.0766 79.144 16.8387V15.415C79.144 15.1698 78.9739 14.9875 78.7391 14.9875H71.4316ZM85.4413 17.1522C86.1456 17.1522 86.6651 17.4621 86.9147 18.2632C87.203 19.1865 87.2326 20.3395 87.2326 21.3111C87.2326 22.7913 87.1624 25.2412 85.4413 25.2412C83.7008 25.2412 83.7082 22.208 83.7082 20.798C83.7082 19.3916 83.8034 17.1522 85.4413 17.1522ZM36.0767 21.3676V21.8516C36.0767 22.7275 36.1091 23.4648 35.6719 24.2441C35.3188 24.8776 34.7642 25.2695 34.1412 25.2695C33.2909 25.2695 32.7834 24.5895 32.7834 23.618C32.7843 21.7021 34.4721 21.3676 36.0767 21.3676ZM65.1925 21.3676V21.8516C65.1925 22.7275 65.2248 23.4648 64.7876 24.2441C64.4345 24.8776 63.8827 25.2695 63.257 25.2695C62.4057 25.2695 61.8991 24.5895 61.8991 23.618C61.9001 21.7021 63.586 21.3676 65.1925 21.3676Z" fill="#201C1D"/>
<path d="M79.6062 27.7477V29.3992H80.7329V27.7477H79.6062ZM46.9374 28.0321V39.7951H47.9772V38.7415C48.199 39.1589 48.4514 39.4715 48.7573 39.6812C49.0624 39.8908 49.4127 39.9947 49.7972 39.9947C50.5607 39.9947 51.2197 39.6101 51.79 38.8272C52.3603 38.0442 52.657 36.9095 52.657 35.4658C52.657 34.5206 52.5341 33.7377 52.2817 33.0732C52.0294 32.4106 51.692 31.9175 51.2705 31.5921C50.849 31.2668 50.3703 31.0799 49.8554 31.0799C49.4975 31.0762 49.1463 31.175 48.8442 31.3643C48.5438 31.5539 48.3007 31.8628 48.0641 32.2475V28.0321H46.9374ZM57.6252 30.7956C56.8413 30.7956 56.2193 31.0243 55.7765 31.4791C55.3338 31.933 55.112 32.5191 55.112 33.2455C55.112 33.6675 55.2081 34.0239 55.3717 34.3565C55.5353 34.6892 55.771 34.9563 56.0649 35.1541C56.3607 35.3518 56.9504 35.6116 57.8267 35.8941C58.433 36.0865 58.7953 36.2505 58.9534 36.3781C59.1826 36.565 59.3 36.8101 59.3 37.1474C59.3 37.5375 59.1632 37.8629 58.8952 38.1153C58.628 38.3696 58.2565 38.4854 57.7684 38.4854C57.2804 38.4854 56.8783 38.3505 56.5844 38.0579C56.2905 37.7653 56.1315 37.3205 56.0649 36.719L54.9382 36.9469C55.1924 38.7743 56.1167 39.6821 57.7111 39.6812C58.5615 39.6812 59.2122 39.4433 59.7039 38.9411C60.1957 38.4389 60.4545 37.7608 60.4545 36.9469C60.4545 36.5075 60.3759 36.1266 60.2234 35.8076C60.0709 35.4886 59.8611 35.2525 59.5875 35.0675C59.3129 34.8834 58.701 34.6373 57.7675 34.3274C57.0891 34.0931 56.6916 33.9218 56.5548 33.8152C56.3247 33.6347 56.2082 33.3886 56.2082 33.0751C56.2082 32.7542 56.3154 32.4826 56.5548 32.2776C56.7942 32.0725 57.163 31.964 57.6529 31.964C58.5143 31.964 58.9959 32.4307 59.0967 33.3594L60.1947 33.1881C60.1189 32.6002 59.9886 32.1363 59.7899 31.8209C59.5912 31.5056 59.2972 31.2394 58.9229 31.0517C58.5495 30.8648 58.1197 30.7956 57.6252 30.7956ZM64.5288 30.7956C63.6258 30.7956 62.8641 31.162 62.2754 31.9349C61.6866 32.7078 61.4084 33.827 61.4084 35.2962C61.4084 36.7117 61.6921 37.8209 62.2754 38.572C62.8586 39.3221 63.6147 39.683 64.5575 39.683C65.3071 39.683 65.9282 39.4615 66.4348 38.9994C66.9422 38.5373 67.3101 37.8574 67.5033 36.9487L66.3479 36.7491C66.016 37.913 65.4041 38.4845 64.5566 38.4863C64.0168 38.4863 63.5759 38.2602 63.1987 37.7744C62.8216 37.2877 62.6081 36.5659 62.5628 35.6098H67.531V35.2106C67.531 33.7732 67.2407 32.6941 66.664 31.9349C66.0891 31.1756 65.3894 30.7956 64.5288 30.7956ZM71.3743 30.7956C71.1044 30.7956 70.8687 30.8858 70.6524 31.0799C70.4361 31.2741 70.1902 31.6769 69.9305 32.2757V30.9651H68.9193V39.4816H70.046V35.0392C70.046 34.4194 70.1052 33.8234 70.2485 33.2728C70.3298 32.9575 70.4832 32.7087 70.6819 32.5328C70.8807 32.3568 71.1071 32.2766 71.3465 32.2766C71.6118 32.2766 71.8752 32.3815 72.1553 32.5902L72.5306 31.2513C72.1368 30.9414 71.7514 30.7956 71.3743 30.7956ZM85.1807 30.7956C84.2887 30.7956 83.5539 31.1656 82.9854 31.9066C82.4188 32.6467 82.1184 33.7586 82.1184 35.2388C82.1184 36.7072 82.4216 37.82 82.9854 38.571C83.5483 39.3212 84.2527 39.6821 85.1224 39.6821C85.8406 39.6821 86.4581 39.4187 86.9711 38.8846C87.484 38.3505 87.7965 37.5648 87.924 36.5495L86.8259 36.3781C86.7446 37.1045 86.5523 37.6268 86.2482 37.9731C85.9441 38.3177 85.5781 38.4854 85.1502 38.4854C84.6048 38.4854 84.1408 38.2347 83.7924 37.7161C83.4439 37.1975 83.2729 36.3681 83.2729 35.2097C83.2729 34.0868 83.4568 33.2765 83.8219 32.7597C84.187 32.2429 84.652 31.9622 85.2084 31.9622C85.58 31.9622 85.897 32.1044 86.1614 32.3897C86.4276 32.674 86.6041 33.1261 86.7104 33.7003L87.8085 33.4724C87.6763 32.5756 87.3842 31.8984 86.9128 31.45C86.4414 31.0006 85.8693 30.7956 85.1807 30.7956ZM91.6222 30.7956C90.7191 30.7956 89.9575 31.162 89.3687 31.9349C88.7799 32.7078 88.5017 33.827 88.5017 35.2962C88.5017 36.7117 88.7855 37.8209 89.3687 38.572C89.9529 39.3221 90.708 39.683 91.6508 39.683C92.3986 39.683 93.0207 39.4615 93.5281 38.9994C94.0346 38.5373 94.4025 37.8574 94.5966 36.9487L93.4412 36.7491C93.1094 37.913 92.5243 38.4845 91.6795 38.4863C91.1397 38.4863 90.6701 38.2602 90.293 37.7744C89.9159 37.2877 89.7033 36.5659 89.6571 35.6098H94.6253V35.2106C94.6253 33.7732 94.335 32.6941 93.7583 31.9349C93.1852 31.1756 92.4836 30.7956 91.6222 30.7956ZM98.2948 30.7956C97.5091 30.7956 96.8889 31.0243 96.4462 31.4791C96.0025 31.933 95.7816 32.5191 95.7816 33.2455C95.7816 33.6675 95.8491 34.0239 96.0127 34.3565C96.1753 34.6883 96.4101 34.9563 96.7059 35.1541C96.9998 35.3518 97.5923 35.6116 98.4676 35.8941C99.0721 36.0865 99.4649 36.2505 99.623 36.3781C99.8522 36.565 99.9696 36.8101 99.9696 37.1474C99.9696 37.5375 99.8328 37.8629 99.5648 38.1153C99.2986 38.3696 98.9261 38.4854 98.438 38.4854C97.9491 38.4854 97.5479 38.3505 97.254 38.0579C96.9601 37.7653 96.7706 37.3205 96.705 36.719L95.5782 36.9469C95.8324 38.7743 96.7549 39.6821 98.3512 39.6812C99.2024 39.6812 99.8809 39.4433 100.374 38.9411C100.866 38.4389 101.124 37.7608 101.124 36.9469C101.124 36.5075 101.046 36.1266 100.893 35.8076C100.74 35.4886 100.503 35.2525 100.228 35.0675C99.9548 34.8834 99.3707 34.6373 98.4371 34.3274C97.7587 34.0931 97.3326 33.9218 97.1948 33.8152C96.9647 33.6347 96.8482 33.3886 96.8482 33.0751C96.8482 32.7542 96.9841 32.4826 97.2235 32.2776C97.4629 32.0725 97.8335 31.964 98.3216 31.964C99.183 31.964 99.6646 32.4307 99.7654 33.3594L100.863 33.1881C100.787 32.6002 100.658 32.1363 100.459 31.8209C100.247 31.491 99.9466 31.2249 99.5916 31.0517C99.2209 30.8648 98.7884 30.7956 98.2948 30.7956ZM72.5296 30.966L75.0428 39.4825H76.1113L78.6245 30.966H77.4692L75.9958 36.1785C75.8174 36.8083 75.6603 37.3524 75.5623 37.8018C75.4394 37.2358 75.322 36.6415 75.1575 36.0646L73.7137 30.966H72.5296ZM79.6062 30.966V39.4825H80.7329V30.966H79.6062ZM42.5765 31.0799C41.6827 31.0799 40.9636 31.4755 40.3812 32.2475C39.798 33.0204 39.4856 34.1396 39.4856 35.6089C39.4856 37.0243 39.774 38.1053 40.3526 38.8554C40.9312 39.6055 41.7012 39.9947 42.6347 39.9947C43.376 39.9947 43.9814 39.745 44.4833 39.2829C44.9843 38.8208 45.3309 38.1408 45.5232 37.2321L44.3964 37.0608C44.0683 38.2247 43.4721 38.7962 42.6347 38.798C42.0995 38.798 41.6503 38.572 41.2769 38.0862C40.9035 37.5994 40.6863 36.8776 40.641 35.9215H45.5509L45.5796 35.5223C45.5796 34.0849 45.2838 32.9775 44.7126 32.2183C44.1413 31.4591 43.4278 31.0799 42.5765 31.0799ZM29.8959 31.2795L31.9183 39.796H33.1023L34.4315 33.2446L34.6625 34.6974L35.731 39.796H36.8864L38.9375 31.2795H37.869L36.7422 36.2068L36.367 37.8583L36.0203 36.2068L35.0387 31.2795H33.8833L32.8435 36.2642L32.4969 38.0306L32.092 36.2077L31.0522 31.2804L29.8959 31.2795ZM101.79 31.3652V31.7644H102.888V34.6127H103.321V31.7644H104.419V31.3652H101.79ZM104.852 31.3652V34.6117H105.257V31.8492L106.21 34.6117H106.614L107.567 31.9057V34.6117H108.001V31.3652H107.395L106.614 33.6438C106.536 33.8717 106.48 34.0366 106.441 34.156L106.267 33.6721L105.487 31.3652H104.852ZM64.4992 31.9631C65.0603 31.9631 65.5225 32.2311 65.8857 32.7606C66.1353 33.1234 66.297 33.6757 66.3479 34.4121H62.622C62.6571 33.6648 62.8715 33.0878 63.2283 32.6458C63.5851 32.2037 63.9955 31.9631 64.4992 31.9631ZM91.5935 31.9631C92.1527 31.9631 92.6167 32.2311 92.98 32.7606C93.2296 33.1234 93.3913 33.6757 93.4421 34.4121H89.7163C89.7514 33.6648 89.9658 33.0878 90.3226 32.6458C90.6785 32.2055 91.0889 31.9631 91.5935 31.9631ZM42.5765 32.2766C43.1311 32.2766 43.5766 32.5446 43.9343 33.0742C44.1811 33.4369 44.3456 33.9892 44.3964 34.7257H40.7279C40.763 33.9783 40.9506 33.3731 41.3055 32.9311C41.6577 32.4899 42.0764 32.2766 42.5765 32.2766ZM49.7399 32.2766C50.2408 32.2766 50.667 32.551 51.0108 33.0742C51.3546 33.5982 51.5016 34.4058 51.5016 35.5241C51.5016 36.6133 51.3389 37.4254 50.9821 37.9741C50.6254 38.5227 50.2002 38.7998 49.7399 38.7998C49.4016 38.7998 49.0938 38.6877 48.8156 38.458C48.5364 38.2283 48.3321 37.8993 48.1796 37.4609C48.0271 37.0225 47.9486 36.348 47.9486 35.4667C47.9486 34.4286 48.1362 33.6511 48.4976 33.1024C48.859 32.5537 49.2796 32.2766 49.7399 32.2766Z" fill="black"/>
<path d="M13.7057 23.2468L9.40207 25.0697L13.3877 26.7504L18.0092 25.0697L13.7057 23.2468ZM7.23549 25.5254L7.0913 33.7284L13.3877 36.4627V27.9462L7.23549 25.5254ZM20.1758 25.5254L14.4858 27.6618V35.6934L20.1758 33.4148V25.5254ZM26.964 0.00511169L22.6308 1.82799L26.646 3.50869L31.2675 1.82799L26.964 0.00511169ZM20.9559 2.42681V10.6298L26.328 12.1683L26.5018 4.70541L20.9559 2.42681ZM32.972 2.88253L27.8883 5.01894V13.0797L32.972 10.8011V2.88253ZM6.61436 11.5503L2.31077 13.3732L6.2964 15.0539L10.9179 13.3732L6.61436 11.5503ZM0.144192 13.8289L0 22.0319L6.2964 24.7662V16.2497L0.144192 13.8289ZM13.0845 13.8289L7.39447 15.9653V23.9969L13.0845 21.7183V13.8289ZM20.479 11.2477L16.1754 13.0706L20.161 14.7513L24.7826 13.0706L20.479 11.2477ZM14.0088 13.5263L13.8646 21.7293L20.161 24.4636V15.948L14.0088 13.5263ZM26.9492 13.5263L21.2591 15.6627V23.6943L26.9492 21.4157V13.5263ZM40.506 0.00511169L36.2024 1.82799L40.188 3.50869L44.8096 1.82799L40.506 0.00511169ZM34.0358 2.28371L33.8917 10.4867L40.188 13.221V4.70541L34.0358 2.28371ZM46.9762 2.28371L41.2861 4.42013V12.4517L46.9762 10.1731V2.28371Z" fill="#F7A80D"/>
</g>
<defs>
<clipPath id="clip0_9_1107">
<rect width="108" height="40" fill="white"/>
</clipPath>
</defs>
</svg>
