<svg width="20" height="20" viewBox="0 0 20 20" fill="none" xmlns="http://www.w3.org/2000/svg">
<path d="M20 10C20 15.523 15.5231 19.9999 10 19.9999C4.47737 19.9999 0 15.523 0 10C0 4.47737 4.47737 0 10 0C15.5231 0 20 4.47737 20 10Z" fill="#1A1918"/>
<path d="M10.1686 6.10852L12.7564 12.4955L8.84756 9.41645L10.1686 6.10852ZM14.7658 13.9668L10.7852 4.38729C10.6716 4.11104 10.4444 3.96484 10.1686 3.96484C9.89235 3.96484 9.64856 4.11104 9.53497 4.38729L5.16602 14.8948H6.66054L8.38999 10.5625L13.5512 14.7321C13.7587 14.9 13.9085 14.9758 14.1032 14.9758C14.4931 14.9758 14.834 14.6835 14.834 14.2616C14.834 14.193 14.8097 14.084 14.7658 13.9668Z" fill="white"/>
</svg>
