<svg width="110" height="28" viewBox="0 0 110 28" fill="none" xmlns="http://www.w3.org/2000/svg">
<g clip-path="url(#clip0_4908_152798)">
<path d="M109.658 11.8516C109.158 11.0405 108.295 10.8507 107.432 10.8507C106.362 10.8507 105.12 11.3339 105.12 12.5763C105.12 13.8533 106.242 14.1639 107.432 14.3192C108.278 14.4228 108.968 14.6471 108.968 15.3028C108.968 16.0621 108.174 16.2864 107.45 16.2864C106.759 16.2864 106.017 16.0276 105.586 15.3028L104.861 15.786C105.413 16.7869 106.293 17.1492 107.432 17.1492C108.675 17.1492 109.9 16.6488 109.917 15.3028C109.917 13.9568 108.744 13.6117 107.519 13.4391C106.725 13.3356 106.069 13.163 106.069 12.5763C106.069 12.0069 106.656 11.6618 107.45 11.6618C108.071 11.6618 108.64 11.9206 108.934 12.3347L109.658 11.8516ZM88.8991 17.0112H89.2788C89.5894 17.0112 89.8482 16.7523 89.8482 16.4417V11.0233H88.7438L86.7766 13.836L84.8094 11.0233H83.705V17.0112H84.0846C84.3952 17.0112 84.6541 16.7523 84.6541 16.4417V12.421L86.6558 15.2511H86.8629L88.8991 12.421V17.0112ZM79.0976 14.8714H76.5609L77.8206 12.0241L79.0976 14.8714ZM80.0294 16.9939H81.0475L78.3556 11.006H77.3202L74.6282 16.9939H75.6463L76.2158 15.7342H79.46L80.0294 16.9939ZM67.6394 11.006H66.8974V16.9939H67.2943C67.6049 16.9939 67.8638 16.7351 67.8638 16.4245V12.7662L71.2632 16.9939H71.988V11.006H71.6084C71.2977 11.006 71.0389 11.2649 71.0389 11.5755V15.2683L67.6394 11.006ZM59.7533 11.006H58.6144V11.0405L60.9267 14.5263V16.9939H61.3064C61.617 16.9939 61.8758 16.7351 61.8758 16.4245V14.5435L64.2572 11.0578V11.0233H63.101L61.3927 13.6635L59.7533 11.006ZM52.4194 11.9206H53.7309C55.1459 11.9206 55.7499 12.9215 55.7844 13.9396C55.8016 14.9922 55.1977 16.0621 53.7309 16.0621H52.4194V11.9206ZM51.4703 11.006V16.9939H53.7481C55.8361 16.9939 56.7852 15.4581 56.7507 13.9568C56.7335 12.4728 55.8016 11.0233 53.7481 11.0233H51.4703V11.006ZM46.6213 15.1648C49.4858 15.1475 49.4686 11.006 46.6213 11.006C45.7067 11.006 44.7576 11.006 43.843 11.006V16.9939H44.2227C44.5333 16.9939 44.7921 16.7351 44.7921 16.4245V15.1648H46.6213ZM44.8094 11.8861H46.6213C48.1916 11.8861 48.2089 14.2847 46.6213 14.2847H44.8094V11.8861ZM38.9768 15.1648C41.8413 15.1475 41.8241 11.006 38.9768 11.006C38.0622 11.006 37.1131 11.006 36.1985 11.006V16.9939H36.5782C36.8888 16.9939 37.1476 16.7351 37.1476 16.4245V15.1648H38.9768ZM37.1649 11.8861H38.9768C40.5471 11.8861 40.5644 14.2847 38.9768 14.2847H37.1649V11.8861ZM31.6256 14.8714H29.0889L30.3487 12.0241L31.6256 14.8714ZM32.5402 16.9939H33.5583L30.8663 11.006H29.831L27.1562 16.9939H28.1744L28.7438 15.7342H31.988L32.5402 16.9939Z" fill="#232736"/>
<path d="M93.1797 11.5755V16.9939H93.5593C93.8699 16.9939 94.1288 16.7351 94.1288 16.4245V11.006H93.7491C93.4385 11.006 93.1797 11.2649 93.1797 11.5755Z" fill="#232736"/>
<path d="M100.183 16.2001C98.9747 16.2001 97.9911 15.2165 97.9911 14.0086C97.9911 12.8007 98.9747 11.8171 100.183 11.8171C100.787 11.8171 101.339 12.0586 101.736 12.4555L102.391 11.7998C101.822 11.2303 101.045 10.8852 100.2 10.8852C98.4743 10.8852 97.0938 12.283 97.0938 13.9914C97.0938 15.717 98.4915 17.0975 100.2 17.0975C101.063 17.0975 101.839 16.7524 102.391 16.1829L101.736 15.5272C101.339 15.9413 100.787 16.2001 100.183 16.2001Z" fill="#232736"/>
<path d="M10.7158 24.4121L3.08525 8.51196C1.24339 10.2035 0.078125 12.6092 0.078125 15.3156C0.078125 20.3901 4.21293 24.5249 9.28745 24.5249C9.77611 24.5249 10.2272 24.4873 10.7158 24.4121Z" fill="#232736"/>
<path d="M7.5991 6.25662C8.16293 6.14385 8.72677 6.10628 9.29061 6.10628C14.3651 6.10628 18.4999 10.2411 18.4999 15.3156C18.4999 18.0972 17.2595 20.6157 15.2673 22.3072L17.5226 27.0434C21.2063 24.4498 23.6121 20.1646 23.6121 15.3156C23.6497 7.38431 17.2219 0.956573 9.29061 0.956573C7.9374 0.956573 6.58419 1.14451 5.34375 1.52041L7.5991 6.25662Z" fill="#232736"/>
</g>
<defs>
<clipPath id="clip0_4908_152798">
<rect width="110" height="28" fill="white"/>
</clipPath>
</defs>
</svg>
