<svg width="107" height="36" viewBox="0 0 107 36" fill="none" xmlns="http://www.w3.org/2000/svg">
<g clip-path="url(#clip0_6668_10679)">
<mask id="mask0_6668_10679" style="mask-type:luminance" maskUnits="userSpaceOnUse" x="1" y="2" width="95" height="32">
<path d="M96 2H1V34H96V2Z" fill="white"/>
</mask>
<g mask="url(#mask0_6668_10679)">
<path d="M31.6916 13.7393C29.8322 13.7393 27.7564 14.3817 27.3214 16.4961C27.2751 16.7208 27.441 16.828 27.6012 16.8608L29.507 17.0657C29.6833 17.0577 29.8029 16.8856 29.837 16.7237C29.9996 15.996 30.6671 15.6525 31.4127 15.6525C31.8152 15.6525 32.2672 15.7765 32.5054 16.1083C32.7787 16.478 32.7591 16.9803 32.7591 17.4069V17.6577C31.6265 17.7744 30.1355 17.8451 29.0752 18.2731C27.8516 18.7609 26.9922 19.7533 26.9922 21.2123C26.9922 23.0819 28.2695 24.0152 29.9142 24.0152C31.303 24.0152 32.0705 23.7228 33.1412 22.7165C33.4965 23.1905 33.6103 23.4057 34.2592 23.9014C34.3309 23.9381 34.4138 23.9535 34.4959 23.9454C34.5779 23.9373 34.6551 23.9061 34.7161 23.8562V23.8789C35.1064 23.5595 35.8162 22.9791 36.2154 22.6713C36.3748 22.5518 36.3398 22.3549 36.2154 22.193C35.8585 21.7395 35.4788 21.3735 35.4788 20.5298V17.727C35.4788 16.5399 35.591 15.4455 34.6406 14.6281C33.8901 13.9668 32.6413 13.7393 31.6916 13.7393ZM57.3026 13.7393C55.4424 13.7393 53.3683 14.3817 52.9326 16.4961C52.8862 16.7208 53.0512 16.828 53.2122 16.8608L55.118 17.0657C55.2944 17.0577 55.4148 16.8856 55.4481 16.7237C55.6116 15.996 56.2782 15.6525 57.0238 15.6525C57.427 15.6525 57.8783 15.7765 58.1166 16.1083C58.3889 16.478 58.345 16.9803 58.345 17.4069V17.6577C57.2124 17.7744 55.7473 17.8451 54.6863 18.2731C53.4618 18.7609 52.6032 19.7533 52.6032 21.2123C52.6032 23.0819 53.8813 24.0152 55.5253 24.0152C56.9124 24.0152 57.6799 23.7228 58.7524 22.7165C59.1069 23.1905 59.2215 23.4057 59.8703 23.9014C60.0166 23.9714 60.1979 23.9641 60.3272 23.8562V23.8789C60.7175 23.5595 61.4272 22.9791 61.8265 22.6713C61.985 22.5518 61.9484 22.3549 61.8265 22.193C61.4695 21.7395 61.0899 21.3735 61.0899 20.5298V17.727C61.0899 16.5399 61.1752 15.4455 60.2264 14.6281C59.4751 13.9668 58.2523 13.7393 57.3026 13.7393ZM42.8962 13.8304C41.6946 13.8304 40.8034 14.3744 40.3303 15.5395H40.305V14.3321C40.2986 14.2493 40.259 14.1713 40.1936 14.1126C40.1281 14.054 40.0412 14.0185 39.949 14.0127H38.1196C38.0189 14.014 37.9227 14.0505 37.8516 14.1143C37.7803 14.1781 37.7397 14.2644 37.7383 14.3547V23.5828C37.7469 23.6649 37.7872 23.7417 37.8522 23.8C37.9172 23.8582 38.0029 23.8944 38.0943 23.9021H40.0506C40.1514 23.9013 40.2478 23.8649 40.319 23.8009C40.3903 23.737 40.4308 23.6506 40.4319 23.5602V18.661C40.4319 17.5929 40.3742 16.1316 41.7783 16.1316C43.1645 16.1316 42.9727 17.6329 42.9727 18.661V23.5602C42.9727 23.7345 43.1312 23.8905 43.3288 23.9021H45.285C45.3858 23.9013 45.4822 23.8649 45.5534 23.8009C45.6247 23.737 45.6652 23.6506 45.6663 23.5602V18.661C45.6663 18.1368 45.6427 17.3733 45.8443 16.9067C46.0451 16.4401 46.5387 16.1323 47.0135 16.1323C47.5794 16.1323 48.0111 16.3095 48.1567 16.9301C48.2477 17.2989 48.2071 18.2738 48.2071 18.6617V23.5609C48.2071 23.7352 48.3656 23.8913 48.5632 23.9029H50.5194C50.6202 23.902 50.7166 23.8657 50.7878 23.8017C50.8592 23.7377 50.8996 23.6513 50.9007 23.5609V17.7277C50.9007 16.7368 51.0121 15.6117 50.3925 14.8337C49.8454 14.1352 48.951 13.8311 48.1314 13.8311C46.9818 13.8311 45.9127 14.3751 45.4386 15.5403C44.8906 14.3751 44.1182 13.8304 42.8962 13.8304ZM76.1557 13.8304C73.3287 13.8304 71.7603 16.0594 71.7603 18.9345C71.7603 21.7898 73.3116 24.0837 76.1557 24.0837C78.8916 24.0837 80.6274 21.8423 80.6274 19.0249C80.6274 16.1133 79.055 13.8304 76.1557 13.8304ZM87.3091 13.8304C85.9586 13.8304 85.187 14.4363 84.6414 15.6985H84.6163V14.2854C84.5813 14.1425 84.4309 14.0433 84.2601 14.0345H82.456C82.3628 14.0327 82.2722 14.062 82.2017 14.1166C82.1312 14.1713 82.0859 14.2476 82.0747 14.3306V23.5588C82.0765 23.6451 82.1139 23.7278 82.1796 23.7909C82.2454 23.8541 82.3349 23.8932 82.4308 23.9007H84.3618C84.4624 23.8994 84.5586 23.8629 84.6298 23.7991C84.701 23.7353 84.7416 23.649 84.7431 23.5588V18.5917C84.7431 17.9691 84.8016 17.401 85.0732 16.8374C85.2927 16.3905 85.7163 16.1083 86.1912 16.1083C87.5392 16.1083 87.4107 17.5819 87.4107 18.5917V23.6047C87.4232 23.6832 87.4654 23.7554 87.5302 23.8093C87.5951 23.8633 87.6786 23.8955 87.7669 23.9007H89.7228C89.9146 23.9007 90.0817 23.7695 90.1046 23.6047V17.7941C90.1046 16.9009 90.1072 15.6598 89.5961 14.9227C89.049 14.1272 88.1831 13.8304 87.3091 13.8304ZM63.8323 13.9901C63.6339 13.9901 63.4769 14.1316 63.4761 14.3321V15.6533C63.4769 15.8509 63.629 15.9938 63.8323 15.9953H67.1861L63.3493 21.0767C63.1151 21.4041 63.0956 21.7753 63.0956 21.9881V23.3327C63.0956 23.5267 63.3307 23.7374 63.5526 23.6288C65.7389 22.5584 68.3593 22.6531 70.3366 23.6061C70.5765 23.7235 70.8196 23.5033 70.8196 23.3101V21.897C70.8141 21.7929 70.7783 21.6917 70.7159 21.6037C70.6534 21.5158 70.5664 21.444 70.4635 21.3953C69.3415 20.8164 68.039 20.6393 66.8048 20.6662L70.1334 16.2913C70.4416 15.8983 70.6139 15.6613 70.6164 15.471V14.3321C70.6164 14.1359 70.4667 13.9901 70.2602 13.9901H63.8323ZM76.1557 15.7218C76.7752 15.7218 77.2321 15.9697 77.4517 16.6106C77.7053 17.3493 77.7313 18.2717 77.7313 19.0489C77.7313 20.2331 77.6696 22.193 76.1557 22.193C74.6247 22.193 74.6312 19.7665 74.6312 18.6385C74.6312 17.5133 74.7149 15.7218 76.1557 15.7218ZM32.7331 19.0941V19.4813C32.7331 20.1821 32.7616 20.7719 32.377 21.3953C32.0664 21.9021 31.5786 22.2157 31.0306 22.2157C30.2826 22.2157 29.8362 21.6717 29.8362 20.8945C29.837 19.3617 31.3216 19.0941 32.7331 19.0941ZM58.3442 19.0941V19.4813C58.3442 20.1821 58.3726 20.7719 57.988 21.3953C57.6774 21.9021 57.1921 22.2157 56.6417 22.2157C55.8929 22.2157 55.4472 21.6717 55.4472 20.8945C55.4481 19.3617 56.9311 19.0941 58.3442 19.0941Z" fill="#201C1D"/>
<path d="M71.0235 24.1978V25.519H72.0146V24.1978H71.0235ZM42.2871 24.4253V33.8357H43.2017V32.9928C43.3968 33.3267 43.6188 33.5768 43.8879 33.7446C44.1563 33.9122 44.4644 33.9954 44.8026 33.9954C45.4742 33.9954 46.0539 33.6877 46.5556 33.0614C47.0572 32.435 47.3182 31.5272 47.3182 30.3722C47.3182 29.6161 47.2101 28.9898 46.9881 28.4582C46.7662 27.9281 46.4694 27.5336 46.0986 27.2733C45.7278 27.013 45.3068 26.8635 44.8538 26.8635C44.539 26.8606 44.2301 26.9396 43.9644 27.091C43.7001 27.2427 43.4863 27.4898 43.2782 27.7976V24.4253H42.2871ZM51.6884 26.6361C50.9988 26.6361 50.4517 26.819 50.0622 27.1829C49.6728 27.546 49.4777 28.0149 49.4777 28.596C49.4777 28.9336 49.5622 29.2187 49.7061 29.4848C49.8501 29.751 50.0574 29.9646 50.3159 30.1229C50.5761 30.281 51.0948 30.4889 51.8656 30.7149C52.399 30.8688 52.7176 31 52.8567 31.1021C53.0583 31.2516 53.1616 31.4477 53.1616 31.7175C53.1616 32.0296 53.0413 32.2899 52.8055 32.4918C52.5705 32.6953 52.2437 32.7879 51.8144 32.7879C51.3851 32.7879 51.0314 32.68 50.7729 32.4459C50.5143 32.2118 50.3745 31.856 50.3159 31.3748L49.3248 31.5571C49.5484 33.019 50.3615 33.7453 51.764 33.7446C52.512 33.7446 53.0844 33.5542 53.5169 33.1525C53.9495 32.7507 54.1771 32.2082 54.1771 31.5571C54.1771 31.2056 54.108 30.9009 53.9738 30.6457C53.8397 30.3905 53.6552 30.2016 53.4145 30.0536C53.1729 29.9063 52.6347 29.7094 51.8136 29.4615C51.2168 29.2741 50.8672 29.137 50.7468 29.0518C50.5444 28.9074 50.442 28.7105 50.442 28.4597C50.442 28.203 50.5362 27.9857 50.7468 27.8217C50.9574 27.6576 51.2818 27.5708 51.7128 27.5708C52.4705 27.5708 52.8941 27.9442 52.9828 28.6871L53.9486 28.5501C53.8819 28.0798 53.7673 27.7086 53.5925 27.4563C53.4177 27.2041 53.1591 26.9911 52.8299 26.841C52.5014 26.6914 52.1234 26.6361 51.6884 26.6361ZM57.761 26.6361C56.9667 26.6361 56.2967 26.9292 55.7788 27.5475C55.2609 28.1658 55.0162 29.0612 55.0162 30.2366C55.0162 31.369 55.2658 32.2563 55.7788 32.8572C56.2918 33.4573 56.9569 33.746 57.7862 33.746C58.4456 33.746 58.992 33.5688 59.4376 33.1991C59.8839 32.8294 60.2075 32.2855 60.3775 31.5586L59.3611 31.3989C59.0692 32.33 58.5309 32.7872 57.7855 32.7886C57.3106 32.7886 56.9228 32.6078 56.591 32.2191C56.2593 31.8298 56.0715 31.2523 56.0317 30.4874H60.4018V30.1681C60.4018 29.0182 60.1465 28.1549 59.6392 27.5475C59.1335 26.9401 58.518 26.6361 57.761 26.6361ZM63.7825 26.6361C63.5451 26.6361 63.3378 26.7082 63.1475 26.8635C62.9572 27.0189 62.7409 27.3411 62.5125 27.8202V26.7717H61.623V33.5849H62.6141V30.031C62.6141 29.5351 62.6662 29.0583 62.7922 28.6178C62.8637 28.3656 62.9987 28.1666 63.1735 28.0258C63.3483 27.885 63.5475 27.8209 63.758 27.8209C63.9914 27.8209 64.2231 27.9048 64.4695 28.0718L64.7996 27.0006C64.4532 26.7527 64.1142 26.6361 63.7825 26.6361ZM75.927 26.6361C75.1424 26.6361 74.496 26.9321 73.996 27.5249C73.4976 28.117 73.2333 29.0065 73.2333 30.1906C73.2333 31.3654 73.5 32.2556 73.996 32.8564C74.4911 33.4566 75.1107 33.7453 75.8757 33.7453C76.5075 33.7453 77.0507 33.5346 77.5019 33.1073C77.9531 32.68 78.228 32.0514 78.3401 31.2392L77.3742 31.1021C77.3027 31.6832 77.1335 32.101 76.866 32.3781C76.5985 32.6538 76.2766 32.7879 75.9002 32.7879C75.4204 32.7879 75.0123 32.5874 74.7058 32.1725C74.3993 31.7576 74.2489 31.0941 74.2489 30.1674C74.2489 29.269 74.4106 28.6208 74.7318 28.2074C75.0529 27.7939 75.462 27.5694 75.9514 27.5694C76.2783 27.5694 76.5571 27.6831 76.7897 27.9114C77.0238 28.1388 77.1791 28.5005 77.2726 28.9598L78.2385 28.7775C78.1222 28.0601 77.8653 27.5183 77.4506 27.1596C77.036 26.8001 76.5327 26.6361 75.927 26.6361ZM81.5932 26.6361C80.7988 26.6361 80.1288 26.9292 79.6109 27.5475C79.093 28.1658 78.8483 29.0612 78.8483 30.2366C78.8483 31.369 79.0979 32.2563 79.6109 32.8572C80.1248 33.4573 80.789 33.746 81.6183 33.746C82.2761 33.746 82.8233 33.5688 83.2696 33.1991C83.7152 32.8294 84.0388 32.2855 84.2095 31.5586L83.1932 31.3989C82.9013 32.33 82.3867 32.7872 81.6436 32.7886C81.1687 32.7886 80.7557 32.6078 80.424 32.2191C80.0922 31.8298 79.9052 31.2523 79.8646 30.4874H84.2348V30.1681C84.2348 29.0182 83.9794 28.1549 83.4721 27.5475C82.968 26.9401 82.3509 26.6361 81.5932 26.6361ZM87.4626 26.6361C86.7714 26.6361 86.2259 26.819 85.8365 27.1829C85.4462 27.546 85.2519 28.0149 85.2519 28.596C85.2519 28.9336 85.3113 29.2187 85.4552 29.4848C85.5982 29.7502 85.8047 29.9646 86.0649 30.1229C86.3235 30.281 86.8446 30.4889 87.6146 30.7149C88.1463 30.8688 88.4918 31 88.6309 31.1021C88.8325 31.2516 88.9358 31.4477 88.9358 31.7175C88.9358 32.0296 88.8154 32.2899 88.5797 32.4918C88.3455 32.6953 88.0179 32.7879 87.5885 32.7879C87.1585 32.7879 86.8056 32.68 86.5471 32.4459C86.2885 32.2118 86.1218 31.856 86.0641 31.3748L85.073 31.5571C85.2966 33.019 86.108 33.7453 87.5122 33.7446C88.2609 33.7446 88.8578 33.5542 89.2915 33.1525C89.7243 32.7507 89.9512 32.2082 89.9512 31.5571C89.9512 31.2056 89.8826 30.9009 89.748 30.6457C89.6134 30.3905 89.405 30.2016 89.1631 30.0536C88.9228 29.9063 88.409 29.7094 87.5877 29.4615C86.991 29.2741 86.6162 29.137 86.495 29.0518C86.2926 28.9074 86.1901 28.7105 86.1901 28.4597C86.1901 28.203 86.3097 27.9857 86.5202 27.8217C86.7308 27.6576 87.0568 27.5708 87.4862 27.5708C88.2439 27.5708 88.6675 27.9442 88.7562 28.6871L89.7216 28.5501C89.6548 28.0798 89.5413 27.7086 89.3663 27.4563C89.1798 27.1924 88.9155 26.9795 88.6033 26.841C88.2772 26.6914 87.8968 26.6361 87.4626 26.6361ZM64.7987 26.7724L67.0094 33.5856H67.9493L70.16 26.7724H69.1438L67.8477 30.9424C67.6908 31.4462 67.5526 31.8815 67.4664 32.241C67.3583 31.7882 67.255 31.3128 67.1103 30.8513L65.8403 26.7724H64.7987ZM71.0235 26.7724V33.5856H72.0146V26.7724H71.0235ZM38.4511 26.8635C37.6649 26.8635 37.0324 27.18 36.5201 27.7976C36.0071 28.4159 35.7323 29.3113 35.7323 30.4867C35.7323 31.619 35.9859 32.4838 36.4949 33.0839C37.0039 33.684 37.6812 33.9954 38.5023 33.9954C39.1544 33.9954 39.6869 33.7956 40.1284 33.4259C40.5691 33.0562 40.874 32.5122 41.0431 31.7853L40.0519 31.6482C39.7633 32.5794 39.2389 33.0366 38.5023 33.038C38.0315 33.038 37.6364 32.8572 37.3079 32.4686C36.9795 32.0791 36.7884 31.5017 36.7486 30.7368H41.0675L41.0927 30.4174C41.0927 29.2675 40.8325 28.3816 40.3301 27.7742C39.8276 27.1669 39.1999 26.8635 38.4511 26.8635ZM27.2969 27.0232L29.0758 33.8364H30.1173L31.2865 28.5953L31.4897 29.7575L32.4296 33.8364H33.4459L35.2501 27.0232H34.3102L33.3191 30.965L32.989 32.2862L32.6841 30.965L31.8206 27.0232H30.8043L29.8897 31.011L29.5848 32.4241L29.2286 30.9658L28.314 27.0239L27.2969 27.0232ZM90.5371 27.0918V27.4111H91.5029V29.6898H91.8838V27.4111H92.8496V27.0918H90.5371ZM93.2305 27.0918V29.689H93.5867V27.479L94.425 29.689H94.7804L95.6187 27.5242V29.689H96.0004V27.0918H95.4674L94.7804 28.9146C94.7118 29.097 94.6625 29.2289 94.6282 29.3244L94.4752 28.9373L93.789 27.0918H93.2305ZM57.735 27.5701C58.2285 27.5701 58.6351 27.7845 58.9546 28.2081C59.1741 28.4983 59.3164 28.9402 59.3611 29.5293H56.0837C56.1146 28.9314 56.3032 28.4698 56.617 28.1162C56.9309 27.7626 57.2919 27.5701 57.735 27.5701ZM81.5679 27.5701C82.0598 27.5701 82.468 27.7845 82.7875 28.2081C83.0071 28.4983 83.1493 28.9402 83.194 29.5293H79.9167C79.9475 28.9314 80.1361 28.4698 80.45 28.1162C80.7631 27.764 81.1241 27.5701 81.5679 27.5701ZM38.4511 27.8209C38.9389 27.8209 39.3308 28.0353 39.6455 28.459C39.8626 28.7491 40.0073 29.191 40.0519 29.7802H36.825C36.8559 29.1822 37.0209 28.6981 37.3331 28.3445C37.6429 27.9915 38.0112 27.8209 38.4511 27.8209ZM44.7522 27.8209C45.1929 27.8209 45.5677 28.0404 45.8702 28.459C46.1726 28.8782 46.3019 29.5242 46.3019 30.4189C46.3019 31.2902 46.1588 31.9399 45.8449 32.3789C45.5312 32.8178 45.1571 33.0394 44.7522 33.0394C44.4547 33.0394 44.1839 32.9498 43.9392 32.766C43.6936 32.5822 43.5139 32.319 43.3798 31.9683C43.2456 31.6176 43.1766 31.078 43.1766 30.373C43.1766 29.5425 43.3416 28.9205 43.6595 28.4815C43.9774 28.0426 44.3474 27.8209 44.7522 27.8209Z" fill="black"/>
<path d="M13.0559 20.5973L9.27034 22.0556L12.7762 23.4001L16.8414 22.0556L13.0559 20.5973ZM7.36455 22.4201L7.23772 28.9825L12.7762 31.17V24.3568L7.36455 22.4201ZM18.7472 22.4201L13.7421 24.1293V30.5545L18.7472 28.7317V22.4201ZM24.7183 2.00391L20.9067 3.46221L24.4386 4.80677L28.5038 3.46221L24.7183 2.00391ZM19.4334 3.94126V10.5037L24.1589 11.7345L24.3118 5.76414L19.4334 3.94126ZM30.0031 4.30584L25.5314 6.01497V12.4636L30.0031 10.6407V4.30584ZM6.81819 11.2401L3.03262 12.6984L6.5385 14.0429L10.6037 12.6984L6.81819 11.2401ZM1.12684 13.0629L1 19.6253L6.5385 21.8128V14.9996L1.12684 13.0629ZM12.5095 13.0629L7.5044 14.7721V21.1973L12.5095 19.3745V13.0629ZM19.0139 10.998L15.2284 12.4563L18.7342 13.8009L22.7995 12.4563L19.0139 10.998ZM13.3226 12.8209L13.1957 19.3833L18.7342 21.5707V14.7582L13.3226 12.8209ZM24.7053 12.8209L19.7001 14.53V20.9553L24.7053 19.1324V12.8209ZM36.6303 2.00391L32.8447 3.46221L36.3506 4.80677L40.4159 3.46221L36.6303 2.00391ZM30.9389 3.82678L30.8121 10.3892L36.3506 12.5766V5.76414L30.9389 3.82678ZM42.3217 3.82678L37.3165 5.53592V11.9612L42.3217 10.1383V3.82678Z" fill="#F7A80D"/>
</g>
</g>
<defs>
<clipPath id="clip0_6668_10679">
<rect width="95" height="32" fill="white" transform="translate(1 2)"/>
</clipPath>
</defs>
</svg>
