<svg width="31" height="18" viewBox="0 0 31 18" fill="none" xmlns="http://www.w3.org/2000/svg">
<g clip-path="url(#clip0_49_5715)">
<path d="M8.7345 6.53726C8.7345 6.90768 8.77445 7.20801 8.84436 7.42825C8.92425 7.6485 9.02411 7.88877 9.16392 8.14905C9.21386 8.22914 9.23383 8.30923 9.23383 8.37931C9.23383 8.47942 9.17391 8.57953 9.04409 8.67964L8.41494 9.10011C8.32506 9.16018 8.23518 9.19021 8.15529 9.19021C8.05542 9.19021 7.95556 9.14016 7.85569 9.05006C7.71588 8.89989 7.59604 8.73971 7.49618 8.57953C7.39631 8.40934 7.29645 8.21913 7.18659 7.98888C6.40765 8.9099 5.42897 9.37041 4.25056 9.37041C3.41169 9.37041 2.74259 9.13014 2.25325 8.64961C1.76391 8.16908 1.51425 7.52837 1.51425 6.72748C1.51425 5.87653 1.81385 5.18576 2.42302 4.66518C3.0322 4.14461 3.84111 3.88432 4.86972 3.88432C5.20926 3.88432 5.55879 3.91435 5.92829 3.96441C6.29779 4.01446 6.67728 4.09455 7.07674 4.18465V3.45384C7.07674 2.69299 6.91696 2.1624 6.60738 1.85206C6.28781 1.54171 5.74854 1.39155 4.97957 1.39155C4.63005 1.39155 4.27053 1.43159 3.90103 1.52169C3.53153 1.61179 3.17201 1.72191 2.82249 1.86207C2.6627 1.93215 2.54286 1.97219 2.47296 1.99221C2.40305 2.01224 2.35312 2.02225 2.31317 2.02225C2.17336 2.02225 2.10346 1.92214 2.10346 1.7119V1.22136C2.10346 1.06118 2.12343 0.941046 2.17336 0.870968C2.22329 0.80089 2.31317 0.730812 2.45298 0.660734C2.80251 0.480534 3.22195 0.330367 3.71129 0.210234C4.20062 0.080089 4.71992 0.0200222 5.26918 0.0200222C6.45758 0.0200222 7.32641 0.290322 7.88565 0.830923C8.43491 1.37152 8.71453 2.19244 8.71453 3.29366V6.53726H8.7345ZM4.67998 8.05895C5.00953 8.05895 5.34907 7.99889 5.70859 7.87875C6.0681 7.75862 6.38767 7.53838 6.65731 7.23804C6.81709 7.04783 6.93693 6.8376 6.99685 6.59733C7.05677 6.35706 7.09672 6.06674 7.09672 5.72636V5.3059C6.80711 5.23582 6.49752 5.17575 6.17796 5.13571C5.85839 5.09566 5.54881 5.07564 5.23922 5.07564C4.57013 5.07564 4.08079 5.20578 3.75123 5.47608C3.42168 5.74638 3.26189 6.12681 3.26189 6.62736C3.26189 7.09789 3.38173 7.44828 3.63139 7.68854C3.87107 7.93882 4.2206 8.05895 4.67998 8.05895ZM12.6992 9.14016C12.5194 9.14016 12.3996 9.11012 12.3197 9.04004C12.2398 8.97998 12.1699 8.83982 12.1099 8.64961L9.76312 0.911012C9.7032 0.71079 9.67324 0.580645 9.67324 0.510567C9.67324 0.350389 9.75313 0.260289 9.91291 0.260289H10.8916C11.0813 0.260289 11.2112 0.290323 11.2811 0.3604C11.361 0.420467 11.4209 0.560623 11.4808 0.750834L13.1585 7.3782L14.7164 0.750834C14.7664 0.550612 14.8263 0.420467 14.9062 0.3604C14.9861 0.300334 15.1259 0.260289 15.3056 0.260289H16.1046C16.2943 0.260289 16.4241 0.290323 16.504 0.3604C16.5839 0.420467 16.6538 0.560623 16.6938 0.750834L18.2716 7.45829L19.9993 0.750834C20.0592 0.550612 20.1291 0.420467 20.199 0.3604C20.2789 0.300334 20.4087 0.260289 20.5885 0.260289H21.5172C21.677 0.260289 21.7669 0.340378 21.7669 0.510567C21.7669 0.560623 21.7569 0.610679 21.7469 0.670745C21.7369 0.730812 21.717 0.810901 21.677 0.921023L19.2703 8.65962C19.2104 8.85984 19.1405 8.98999 19.0606 9.05006C18.9807 9.11012 18.8508 9.15017 18.6811 9.15017H17.8222C17.6325 9.15017 17.5027 9.12013 17.4228 9.05006C17.3429 8.97998 17.273 8.84983 17.233 8.64961L15.6851 2.19244L14.1472 8.6396C14.0973 8.83982 14.0373 8.96997 13.9575 9.04004C13.8776 9.11012 13.7378 9.14016 13.558 9.14016H12.6992ZM25.5318 9.41046C25.0125 9.41046 24.4932 9.35039 23.9939 9.23026C23.4946 9.11012 23.1051 8.97998 22.8455 8.82981C22.6857 8.73971 22.5758 8.6396 22.5359 8.5495C22.4959 8.4594 22.476 8.35929 22.476 8.26919V7.75862C22.476 7.54839 22.5558 7.44828 22.7056 7.44828C22.7656 7.44828 22.8255 7.45829 22.8854 7.47831C22.9453 7.49833 23.0352 7.53838 23.1351 7.57842C23.4746 7.72859 23.8441 7.84872 24.2336 7.92881C24.633 8.0089 25.0225 8.04894 25.422 8.04894C26.0511 8.04894 26.5405 7.93882 26.88 7.71858C27.2195 7.49833 27.3993 7.17798 27.3993 6.76752C27.3993 6.48721 27.3094 6.25695 27.1297 6.06674C26.9499 5.87653 26.6104 5.70634 26.121 5.54616L24.673 5.09566C23.944 4.86541 23.4047 4.52503 23.0751 4.07453C22.7456 3.63404 22.5758 3.14349 22.5758 2.62291C22.5758 2.20245 22.6657 1.83204 22.8455 1.51168C23.0252 1.19132 23.2649 0.911012 23.5645 0.690768C23.8641 0.460512 24.2036 0.290323 24.6031 0.170189C25.0025 0.0500556 25.422 0 25.8614 0C26.0811 0 26.3108 0.0100111 26.5305 0.0400445C26.7602 0.0700779 26.9699 0.110122 27.1796 0.150167C27.3793 0.200222 27.5691 0.250278 27.7488 0.310345C27.9286 0.370412 28.0684 0.430478 28.1683 0.490545C28.3081 0.570634 28.4079 0.650723 28.4679 0.740823C28.5278 0.820912 28.5577 0.931034 28.5577 1.07119V1.54171C28.5577 1.75195 28.4779 1.86207 28.3281 1.86207C28.2482 1.86207 28.1183 1.82202 27.9486 1.74194C27.3793 1.48165 26.7402 1.3515 26.0312 1.3515C25.4619 1.3515 25.0125 1.4416 24.7029 1.63181C24.3934 1.82202 24.2336 2.11235 24.2336 2.5228C24.2336 2.80311 24.3334 3.04338 24.5332 3.23359C24.7329 3.4238 25.1024 3.61402 25.6317 3.7842L27.0498 4.23471C27.7688 4.46496 28.2881 4.78532 28.5977 5.19577C28.9073 5.60623 29.0571 6.07675 29.0571 6.59733C29.0571 7.02781 28.9672 7.41824 28.7974 7.75862C28.6177 8.099 28.378 8.39933 28.0684 8.6396C27.7588 8.88988 27.3893 9.07008 26.9599 9.20022C26.5105 9.34038 26.0411 9.41046 25.5318 9.41046Z" fill="#252F3E"/>
<path fill-rule="evenodd" clip-rule="evenodd" d="M27.4193 14.2759C24.1337 16.7086 19.3602 18 15.2557 18C9.50346 18 4.32046 15.8676 0.405748 12.3237C0.0961662 12.0434 0.375789 11.663 0.74529 11.8832C4.97957 14.3459 10.2025 15.8376 15.6052 15.8376C19.2503 15.8376 23.2549 15.0768 26.9399 13.515C27.4892 13.2647 27.9585 13.8754 27.4193 14.2759Z" fill="#FF9900"/>
<path fill-rule="evenodd" clip-rule="evenodd" d="M28.7874 12.7141C28.368 12.1735 26.0112 12.4538 24.9426 12.584C24.6231 12.624 24.5731 12.3437 24.8627 12.1335C26.7402 10.812 29.826 11.1924 30.1855 11.6329C30.5451 12.0834 30.0857 15.1769 28.3281 16.6585C28.0584 16.8888 27.7988 16.7686 27.9186 16.4683C28.3181 15.4772 29.2069 13.2447 28.7874 12.7141Z" fill="#FF9900"/>
</g>
<defs>
<clipPath id="clip0_49_5715">
<rect width="30.6412" height="18" fill="white"/>
</clipPath>
</defs>
</svg>
