<svg width="120" height="40" viewBox="0 0 120 40" fill="none" xmlns="http://www.w3.org/2000/svg">
<path fill-rule="evenodd" clip-rule="evenodd" d="M13.2496 15.6329L9.26091 12.4043C7.55573 14.8443 6.78239 17.6887 6.89746 20.4887L11.9972 19.9524C11.9972 18.4591 12.4091 16.9593 13.2496 15.6329ZM24.4051 13.1094L27.6347 9.12031C25.1933 7.41661 22.3463 6.64722 19.5454 6.76426L20.0817 11.863C21.6119 11.86 23.1115 12.292 24.4051 13.1094Z" fill="#0072C6"/>
<path fill-rule="evenodd" clip-rule="evenodd" d="M18.3039 12.0633L17.7666 6.95906C14.9274 7.46245 12.3323 8.88467 10.3804 11.007L14.3656 14.2336C15.4757 13.1205 16.849 12.3912 18.3039 12.0633ZM12.1942 21.7284L7.09003 22.2672C7.57991 25.0262 8.94287 27.641 11.1365 29.6603L14.3626 25.6751C13.2792 24.5926 12.5267 23.2234 12.1942 21.7284ZM29.0313 10.2386L25.8046 14.2247C26.6011 15.0168 27.1947 15.9457 27.5937 16.9403H32.9468C32.3466 14.363 30.982 12.0271 29.0318 10.2386H29.0313ZM35.2189 19.9818C35.214 19.0509 34.4619 18.3057 33.535 18.3057L33.532 18.3018L33.0411 18.3057H27.7592H21.7532C21.7463 18.2993 21.7439 18.3112 21.7384 18.3057C21.2881 17.8593 20.7004 17.6633 20.1132 17.6633C19.8078 17.6629 19.5053 17.7232 19.2233 17.8407C18.9414 17.9582 18.6856 18.1305 18.4708 18.3477C17.573 19.2524 17.5789 20.7141 18.4851 21.6119C18.9159 22.0401 19.4989 22.2802 20.1063 22.2796C20.65 22.2796 21.1913 22.044 21.6253 21.6642H33.5444C33.9885 21.6628 34.4141 21.4854 34.7277 21.1709C35.0414 20.8564 35.2177 20.4304 35.2179 19.9862H35.2194L35.2189 19.9818ZM20.0002 3.56449C29.0619 3.56449 36.4347 10.9373 36.4347 19.9991C36.4347 29.0608 29.0619 36.4336 20.0002 36.4336C10.9384 36.4336 3.56559 29.0608 3.56559 19.9991C3.56559 10.9373 10.9384 3.56449 20.0002 3.56449ZM20.0002 0.245972C9.09102 0.245972 0.24707 9.08992 0.24707 19.9991C0.24707 30.9082 9.09102 39.7521 20.0002 39.7521C30.9093 39.7521 39.7532 30.9082 39.7532 19.9991C39.7532 9.08992 30.9093 0.245972 20.0002 0.245972Z" fill="#0072C6"/>
<path d="M47.1895 22.6055L44.6406 30H43.0996L46.3105 21.4688H47.2949L47.1895 22.6055ZM49.3223 30L46.7676 22.6055L46.6562 21.4688H47.6465L50.8691 30H49.3223ZM49.1992 26.8359V28.002H44.5586V26.8359H49.1992ZM56.6582 28.875V30H51.9355V28.875H56.6582ZM56.5293 24.5391L52.416 30H51.502V29.0918L55.5918 23.6602H56.5293V24.5391ZM55.9844 23.6602V24.7852H51.5723V23.6602H55.9844ZM61.6035 28.5059V23.6602H63.0215V30H61.6855L61.6035 28.5059ZM61.8027 27.1875L62.2773 27.1758C62.2773 27.6016 62.2305 27.9941 62.1367 28.3535C62.043 28.709 61.8984 29.0195 61.7031 29.2852C61.5078 29.5469 61.2578 29.752 60.9531 29.9004C60.6484 30.0449 60.2832 30.1172 59.8574 30.1172C59.5488 30.1172 59.2656 30.0723 59.0078 29.9824C58.75 29.8926 58.5273 29.7539 58.3398 29.5664C58.1562 29.3789 58.0137 29.1348 57.9121 28.834C57.8105 28.5332 57.7598 28.1738 57.7598 27.7559V23.6602H59.1719V27.7676C59.1719 27.998 59.1992 28.1914 59.2539 28.3477C59.3086 28.5 59.3828 28.623 59.4766 28.7168C59.5703 28.8105 59.6797 28.877 59.8047 28.916C59.9297 28.9551 60.0625 28.9746 60.2031 28.9746C60.6055 28.9746 60.9219 28.8965 61.1523 28.7402C61.3867 28.5801 61.5527 28.3652 61.6504 28.0957C61.752 27.8262 61.8027 27.5234 61.8027 27.1875ZM65.8867 24.8672V30H64.4746V23.6602H65.8223L65.8867 24.8672ZM67.8262 23.6191L67.8145 24.9316C67.7285 24.916 67.6348 24.9043 67.5332 24.8965C67.4355 24.8887 67.3379 24.8848 67.2402 24.8848C66.998 24.8848 66.7852 24.9199 66.6016 24.9902C66.418 25.0566 66.2637 25.1543 66.1387 25.2832C66.0176 25.4082 65.9238 25.5605 65.8574 25.7402C65.791 25.9199 65.752 26.1211 65.7402 26.3438L65.418 26.3672C65.418 25.9688 65.457 25.5996 65.5352 25.2598C65.6133 24.9199 65.7305 24.6211 65.8867 24.3633C66.0469 24.1055 66.2461 23.9043 66.4844 23.7598C66.7266 23.6152 67.0059 23.543 67.3223 23.543C67.4082 23.543 67.5 23.5508 67.5977 23.5664C67.6992 23.582 67.7754 23.5996 67.8262 23.6191ZM71.3887 30.1172C70.9199 30.1172 70.4961 30.041 70.1172 29.8887C69.7422 29.7324 69.4219 29.5156 69.1562 29.2383C68.8945 28.9609 68.6934 28.6348 68.5527 28.2598C68.4121 27.8848 68.3418 27.4805 68.3418 27.0469V26.8125C68.3418 26.3164 68.4141 25.8672 68.5586 25.4648C68.7031 25.0625 68.9043 24.7188 69.1621 24.4336C69.4199 24.1445 69.7246 23.9238 70.0762 23.7715C70.4277 23.6191 70.8086 23.543 71.2188 23.543C71.6719 23.543 72.0684 23.6191 72.4082 23.7715C72.748 23.9238 73.0293 24.1387 73.252 24.416C73.4785 24.6895 73.6465 25.0156 73.7559 25.3945C73.8691 25.7734 73.9258 26.1914 73.9258 26.6484V27.252H69.0273V26.2383H72.5312V26.127C72.5234 25.873 72.4727 25.6348 72.3789 25.4121C72.2891 25.1895 72.1504 25.0098 71.9629 24.873C71.7754 24.7363 71.5254 24.668 71.2129 24.668C70.9785 24.668 70.7695 24.7188 70.5859 24.8203C70.4062 24.918 70.2559 25.0605 70.1348 25.248C70.0137 25.4355 69.9199 25.6621 69.8535 25.9277C69.791 26.1895 69.7598 26.4844 69.7598 26.8125V27.0469C69.7598 27.3242 69.7969 27.582 69.8711 27.8203C69.9492 28.0547 70.0625 28.2598 70.2109 28.4355C70.3594 28.6113 70.5391 28.75 70.75 28.8516C70.9609 28.9492 71.2012 28.998 71.4707 28.998C71.8105 28.998 72.1133 28.9297 72.3789 28.793C72.6445 28.6562 72.875 28.4629 73.0703 28.2129L73.8145 28.9336C73.6777 29.1328 73.5 29.3242 73.2812 29.5078C73.0625 29.6875 72.7949 29.834 72.4785 29.9473C72.166 30.0605 71.8027 30.1172 71.3887 30.1172ZM78.7539 21.4688H80.0664L82.5332 28.0488L84.9941 21.4688H86.3066L83.0488 30H82.0059L78.7539 21.4688ZM78.1562 21.4688H79.4043L79.6211 27.1641V30H78.1562V21.4688ZM85.6562 21.4688H86.9102V30H85.4395V27.1641L85.6562 21.4688ZM88.2461 26.9004V26.7656C88.2461 26.3086 88.3125 25.8848 88.4453 25.4941C88.5781 25.0996 88.7695 24.7578 89.0195 24.4688C89.2734 24.1758 89.582 23.9492 89.9453 23.7891C90.3125 23.625 90.7266 23.543 91.1875 23.543C91.6523 23.543 92.0664 23.625 92.4297 23.7891C92.7969 23.9492 93.1074 24.1758 93.3613 24.4688C93.6152 24.7578 93.8086 25.0996 93.9414 25.4941C94.0742 25.8848 94.1406 26.3086 94.1406 26.7656V26.9004C94.1406 27.3574 94.0742 27.7812 93.9414 28.1719C93.8086 28.5625 93.6152 28.9043 93.3613 29.1973C93.1074 29.4863 92.7988 29.7129 92.4355 29.877C92.0723 30.0371 91.6602 30.1172 91.1992 30.1172C90.7344 30.1172 90.3184 30.0371 89.9512 29.877C89.5879 29.7129 89.2793 29.4863 89.0254 29.1973C88.7715 28.9043 88.5781 28.5625 88.4453 28.1719C88.3125 27.7812 88.2461 27.3574 88.2461 26.9004ZM89.6582 26.7656V26.9004C89.6582 27.1855 89.6875 27.4551 89.7461 27.709C89.8047 27.9629 89.8965 28.1855 90.0215 28.377C90.1465 28.5684 90.3066 28.7188 90.502 28.8281C90.6973 28.9375 90.9297 28.9922 91.1992 28.9922C91.4609 28.9922 91.6875 28.9375 91.8789 28.8281C92.0742 28.7188 92.2344 28.5684 92.3594 28.377C92.4844 28.1855 92.5762 27.9629 92.6348 27.709C92.6973 27.4551 92.7285 27.1855 92.7285 26.9004V26.7656C92.7285 26.4844 92.6973 26.2188 92.6348 25.9688C92.5762 25.7148 92.4824 25.4902 92.3535 25.2949C92.2285 25.0996 92.0684 24.9473 91.873 24.8379C91.6816 24.7246 91.4531 24.668 91.1875 24.668C90.9219 24.668 90.6914 24.7246 90.4961 24.8379C90.3047 24.9473 90.1465 25.0996 90.0215 25.2949C89.8965 25.4902 89.8047 25.7148 89.7461 25.9688C89.6875 26.2188 89.6582 26.4844 89.6582 26.7656ZM96.7246 25.0137V30H95.3125V23.6602H96.6426L96.7246 25.0137ZM96.4727 26.5957L96.0156 26.5898C96.0195 26.1406 96.082 25.7285 96.2031 25.3535C96.3281 24.9785 96.5 24.6562 96.7188 24.3867C96.9414 24.1172 97.207 23.9102 97.5156 23.7656C97.8242 23.6172 98.168 23.543 98.5469 23.543C98.8516 23.543 99.127 23.5859 99.373 23.6719C99.623 23.7539 99.8359 23.8887 100.012 24.0762C100.191 24.2637 100.328 24.5078 100.422 24.8086C100.516 25.1055 100.562 25.4707 100.562 25.9043V30H99.1445V25.8984C99.1445 25.5938 99.0996 25.3535 99.0098 25.1777C98.9238 24.998 98.7969 24.8711 98.6289 24.7969C98.4648 24.7188 98.2598 24.6797 98.0137 24.6797C97.7715 24.6797 97.5547 24.7305 97.3633 24.832C97.1719 24.9336 97.0098 25.0723 96.877 25.248C96.748 25.4238 96.6484 25.627 96.5781 25.8574C96.5078 26.0879 96.4727 26.334 96.4727 26.5957ZM103.516 23.6602V30H102.098V23.6602H103.516ZM102.004 21.9961C102.004 21.7812 102.074 21.6035 102.215 21.4629C102.359 21.3184 102.559 21.2461 102.812 21.2461C103.062 21.2461 103.26 21.3184 103.404 21.4629C103.549 21.6035 103.621 21.7812 103.621 21.9961C103.621 22.207 103.549 22.3828 103.404 22.5234C103.26 22.6641 103.062 22.7344 102.812 22.7344C102.559 22.7344 102.359 22.6641 102.215 22.5234C102.074 22.3828 102.004 22.207 102.004 21.9961ZM107.969 23.6602V24.6914H104.395V23.6602H107.969ZM105.426 22.1074H106.838V28.248C106.838 28.4434 106.865 28.5938 106.92 28.6992C106.979 28.8008 107.059 28.8691 107.16 28.9043C107.262 28.9395 107.381 28.957 107.518 28.957C107.615 28.957 107.709 28.9512 107.799 28.9395C107.889 28.9277 107.961 28.916 108.016 28.9043L108.021 29.9824C107.904 30.0176 107.768 30.0488 107.611 30.0762C107.459 30.1035 107.283 30.1172 107.084 30.1172C106.76 30.1172 106.473 30.0605 106.223 29.9473C105.973 29.8301 105.777 29.6406 105.637 29.3789C105.496 29.1172 105.426 28.7695 105.426 28.3359V22.1074ZM108.648 26.9004V26.7656C108.648 26.3086 108.715 25.8848 108.848 25.4941C108.98 25.0996 109.172 24.7578 109.422 24.4688C109.676 24.1758 109.984 23.9492 110.348 23.7891C110.715 23.625 111.129 23.543 111.59 23.543C112.055 23.543 112.469 23.625 112.832 23.7891C113.199 23.9492 113.51 24.1758 113.764 24.4688C114.018 24.7578 114.211 25.0996 114.344 25.4941C114.477 25.8848 114.543 26.3086 114.543 26.7656V26.9004C114.543 27.3574 114.477 27.7812 114.344 28.1719C114.211 28.5625 114.018 28.9043 113.764 29.1973C113.51 29.4863 113.201 29.7129 112.838 29.877C112.475 30.0371 112.062 30.1172 111.602 30.1172C111.137 30.1172 110.721 30.0371 110.354 29.877C109.99 29.7129 109.682 29.4863 109.428 29.1973C109.174 28.9043 108.98 28.5625 108.848 28.1719C108.715 27.7812 108.648 27.3574 108.648 26.9004ZM110.061 26.7656V26.9004C110.061 27.1855 110.09 27.4551 110.148 27.709C110.207 27.9629 110.299 28.1855 110.424 28.377C110.549 28.5684 110.709 28.7188 110.904 28.8281C111.1 28.9375 111.332 28.9922 111.602 28.9922C111.863 28.9922 112.09 28.9375 112.281 28.8281C112.477 28.7188 112.637 28.5684 112.762 28.377C112.887 28.1855 112.979 27.9629 113.037 27.709C113.1 27.4551 113.131 27.1855 113.131 26.9004V26.7656C113.131 26.4844 113.1 26.2188 113.037 25.9688C112.979 25.7148 112.885 25.4902 112.756 25.2949C112.631 25.0996 112.471 24.9473 112.275 24.8379C112.084 24.7246 111.855 24.668 111.59 24.668C111.324 24.668 111.094 24.7246 110.898 24.8379C110.707 24.9473 110.549 25.0996 110.424 25.2949C110.299 25.4902 110.207 25.7148 110.148 25.9688C110.09 26.2188 110.061 26.4844 110.061 26.7656ZM117.145 24.8672V30H115.732V23.6602H117.08L117.145 24.8672ZM119.084 23.6191L119.072 24.9316C118.986 24.916 118.893 24.9043 118.791 24.8965C118.693 24.8887 118.596 24.8848 118.498 24.8848C118.256 24.8848 118.043 24.9199 117.859 24.9902C117.676 25.0566 117.521 25.1543 117.396 25.2832C117.275 25.4082 117.182 25.5605 117.115 25.7402C117.049 25.9199 117.01 26.1211 116.998 26.3438L116.676 26.3672C116.676 25.9688 116.715 25.5996 116.793 25.2598C116.871 24.9199 116.988 24.6211 117.145 24.3633C117.305 24.1055 117.504 23.9043 117.742 23.7598C117.984 23.6152 118.264 23.543 118.58 23.543C118.666 23.543 118.758 23.5508 118.855 23.5664C118.957 23.582 119.033 23.5996 119.084 23.6191Z" fill="#23282C"/>
<path d="M44.123 8.89062H45.0361L47.3652 14.6865L49.6895 8.89062H50.6074L47.7168 16H47.0039L44.123 8.89062ZM43.8252 8.89062H44.6309L44.7627 13.2266V16H43.8252V8.89062ZM50.0947 8.89062H50.9004V16H49.9629V13.2266L50.0947 8.89062ZM53.4004 10.7168V16H52.4922V10.7168H53.4004ZM52.4238 9.31543C52.4238 9.16895 52.4678 9.04525 52.5557 8.94434C52.6468 8.84342 52.7803 8.79297 52.9561 8.79297C53.1286 8.79297 53.2604 8.84342 53.3516 8.94434C53.446 9.04525 53.4932 9.16895 53.4932 9.31543C53.4932 9.4554 53.446 9.57585 53.3516 9.67676C53.2604 9.77441 53.1286 9.82324 52.9561 9.82324C52.7803 9.82324 52.6468 9.77441 52.5557 9.67676C52.4678 9.57585 52.4238 9.4554 52.4238 9.31543ZM56.9648 15.3555C57.1797 15.3555 57.3783 15.3115 57.5605 15.2236C57.7428 15.1357 57.8926 15.0153 58.0098 14.8623C58.127 14.7061 58.1937 14.5286 58.21 14.3301H59.0693C59.0531 14.6426 58.9473 14.9339 58.752 15.2041C58.5599 15.471 58.3076 15.6875 57.9951 15.8535C57.6826 16.0163 57.3392 16.0977 56.9648 16.0977C56.5677 16.0977 56.221 16.0277 55.9248 15.8877C55.6318 15.7477 55.3877 15.5557 55.1924 15.3115C55.0003 15.0674 54.8555 14.7874 54.7578 14.4717C54.6634 14.1527 54.6162 13.8158 54.6162 13.4609V13.2559C54.6162 12.901 54.6634 12.5658 54.7578 12.25C54.8555 11.931 55.0003 11.6494 55.1924 11.4053C55.3877 11.1611 55.6318 10.9691 55.9248 10.8291C56.221 10.6891 56.5677 10.6191 56.9648 10.6191C57.3783 10.6191 57.7396 10.7038 58.0488 10.873C58.3581 11.0391 58.6006 11.2669 58.7764 11.5566C58.9554 11.8431 59.0531 12.1686 59.0693 12.5332H58.21C58.1937 12.3151 58.1318 12.1182 58.0244 11.9424C57.9202 11.7666 57.777 11.6266 57.5947 11.5225C57.4157 11.415 57.2057 11.3613 56.9648 11.3613C56.6882 11.3613 56.4554 11.4167 56.2666 11.5273C56.0811 11.6348 55.9329 11.7812 55.8223 11.9668C55.7148 12.1491 55.6367 12.3525 55.5879 12.5771C55.5423 12.7985 55.5195 13.0247 55.5195 13.2559V13.4609C55.5195 13.6921 55.5423 13.9199 55.5879 14.1445C55.6335 14.3691 55.71 14.5726 55.8174 14.7549C55.9281 14.9372 56.0762 15.0837 56.2617 15.1943C56.4505 15.3018 56.6849 15.3555 56.9648 15.3555ZM60.9883 11.5469V16H60.085V10.7168H60.9639L60.9883 11.5469ZM62.6387 10.6875L62.6338 11.5273C62.5589 11.5111 62.4873 11.5013 62.4189 11.498C62.3538 11.4915 62.279 11.4883 62.1943 11.4883C61.986 11.4883 61.8021 11.5208 61.6426 11.5859C61.4831 11.651 61.348 11.7422 61.2373 11.8594C61.1266 11.9766 61.0387 12.1165 60.9736 12.2793C60.9118 12.4388 60.8711 12.6146 60.8516 12.8066L60.5977 12.9531C60.5977 12.6341 60.6286 12.3346 60.6904 12.0547C60.7555 11.7747 60.8548 11.5273 60.9883 11.3125C61.1217 11.0944 61.291 10.9251 61.4961 10.8047C61.7044 10.681 61.9518 10.6191 62.2383 10.6191C62.3034 10.6191 62.3783 10.6273 62.4629 10.6436C62.5475 10.6566 62.6061 10.6712 62.6387 10.6875ZM63.1367 13.417V13.3047C63.1367 12.9238 63.1921 12.5706 63.3027 12.2451C63.4134 11.9163 63.5729 11.6315 63.7812 11.3906C63.9896 11.1465 64.2419 10.9577 64.5381 10.8242C64.8343 10.6875 65.1663 10.6191 65.5342 10.6191C65.9053 10.6191 66.2389 10.6875 66.5352 10.8242C66.8346 10.9577 67.0885 11.1465 67.2969 11.3906C67.5085 11.6315 67.6696 11.9163 67.7803 12.2451C67.891 12.5706 67.9463 12.9238 67.9463 13.3047V13.417C67.9463 13.7979 67.891 14.151 67.7803 14.4766C67.6696 14.8021 67.5085 15.0869 67.2969 15.3311C67.0885 15.5719 66.8363 15.7607 66.54 15.8975C66.2471 16.0309 65.915 16.0977 65.5439 16.0977C65.1729 16.0977 64.8392 16.0309 64.543 15.8975C64.2467 15.7607 63.9928 15.5719 63.7812 15.3311C63.5729 15.0869 63.4134 14.8021 63.3027 14.4766C63.1921 14.151 63.1367 13.7979 63.1367 13.417ZM64.04 13.3047V13.417C64.04 13.6807 64.071 13.9297 64.1328 14.1641C64.1947 14.3952 64.2874 14.6003 64.4111 14.7793C64.5381 14.9583 64.696 15.0999 64.8848 15.2041C65.0736 15.305 65.2933 15.3555 65.5439 15.3555C65.7913 15.3555 66.0078 15.305 66.1934 15.2041C66.3822 15.0999 66.5384 14.9583 66.6621 14.7793C66.7858 14.6003 66.8786 14.3952 66.9404 14.1641C67.0055 13.9297 67.0381 13.6807 67.0381 13.417V13.3047C67.0381 13.0443 67.0055 12.7985 66.9404 12.5674C66.8786 12.333 66.7842 12.1263 66.6572 11.9473C66.5335 11.765 66.3773 11.6217 66.1885 11.5176C66.0029 11.4134 65.7848 11.3613 65.5342 11.3613C65.2868 11.3613 65.0687 11.4134 64.8799 11.5176C64.6943 11.6217 64.5381 11.765 64.4111 11.9473C64.2874 12.1263 64.1947 12.333 64.1328 12.5674C64.071 12.7985 64.04 13.0443 64.04 13.3047ZM72.1553 14.5986C72.1553 14.4684 72.126 14.348 72.0674 14.2373C72.012 14.1234 71.8965 14.0208 71.7207 13.9297C71.5482 13.8353 71.2878 13.7539 70.9395 13.6855C70.6465 13.6237 70.3812 13.5505 70.1436 13.4658C69.9092 13.3812 69.709 13.2786 69.543 13.1582C69.3802 13.0378 69.2549 12.8962 69.167 12.7334C69.0791 12.5706 69.0352 12.3802 69.0352 12.1621C69.0352 11.9538 69.0807 11.7568 69.1719 11.5713C69.2663 11.3857 69.3981 11.2214 69.5674 11.0781C69.7399 10.9349 69.9466 10.8226 70.1875 10.7412C70.4284 10.6598 70.6969 10.6191 70.9932 10.6191C71.4163 10.6191 71.7777 10.694 72.0771 10.8438C72.3766 10.9935 72.6061 11.1937 72.7656 11.4443C72.9251 11.6917 73.0049 11.9668 73.0049 12.2695H72.1016C72.1016 12.123 72.0576 11.9814 71.9697 11.8447C71.8851 11.7048 71.7598 11.5892 71.5938 11.498C71.431 11.4069 71.2308 11.3613 70.9932 11.3613C70.7425 11.3613 70.5391 11.4004 70.3828 11.4785C70.2298 11.5534 70.1175 11.6494 70.0459 11.7666C69.9775 11.8838 69.9434 12.0075 69.9434 12.1377C69.9434 12.2354 69.9596 12.3232 69.9922 12.4014C70.028 12.4762 70.0898 12.5462 70.1777 12.6113C70.2656 12.6732 70.3893 12.7318 70.5488 12.7871C70.7083 12.8424 70.9118 12.8978 71.1592 12.9531C71.5921 13.0508 71.9486 13.168 72.2285 13.3047C72.5085 13.4414 72.7168 13.609 72.8535 13.8076C72.9902 14.0062 73.0586 14.2471 73.0586 14.5303C73.0586 14.7614 73.0098 14.973 72.9121 15.165C72.8177 15.3571 72.6794 15.5231 72.4971 15.6631C72.318 15.7998 72.1032 15.9072 71.8525 15.9854C71.6051 16.0602 71.3268 16.0977 71.0176 16.0977C70.5521 16.0977 70.1582 16.0146 69.8359 15.8486C69.5137 15.6826 69.2695 15.4678 69.1035 15.2041C68.9375 14.9404 68.8545 14.6621 68.8545 14.3691H69.7627C69.7757 14.6165 69.8473 14.8135 69.9775 14.96C70.1077 15.1032 70.2673 15.2057 70.4561 15.2676C70.6449 15.3262 70.832 15.3555 71.0176 15.3555C71.265 15.3555 71.4717 15.3229 71.6377 15.2578C71.807 15.1927 71.9355 15.1032 72.0234 14.9893C72.1113 14.8753 72.1553 14.7451 72.1553 14.5986ZM74.0059 13.417V13.3047C74.0059 12.9238 74.0612 12.5706 74.1719 12.2451C74.2826 11.9163 74.4421 11.6315 74.6504 11.3906C74.8587 11.1465 75.111 10.9577 75.4072 10.8242C75.7035 10.6875 76.0355 10.6191 76.4033 10.6191C76.7744 10.6191 77.1081 10.6875 77.4043 10.8242C77.7038 10.9577 77.9577 11.1465 78.166 11.3906C78.3776 11.6315 78.5387 11.9163 78.6494 12.2451C78.7601 12.5706 78.8154 12.9238 78.8154 13.3047V13.417C78.8154 13.7979 78.7601 14.151 78.6494 14.4766C78.5387 14.8021 78.3776 15.0869 78.166 15.3311C77.9577 15.5719 77.7054 15.7607 77.4092 15.8975C77.1162 16.0309 76.7842 16.0977 76.4131 16.0977C76.042 16.0977 75.7083 16.0309 75.4121 15.8975C75.1159 15.7607 74.862 15.5719 74.6504 15.3311C74.4421 15.0869 74.2826 14.8021 74.1719 14.4766C74.0612 14.151 74.0059 13.7979 74.0059 13.417ZM74.9092 13.3047V13.417C74.9092 13.6807 74.9401 13.9297 75.002 14.1641C75.0638 14.3952 75.1566 14.6003 75.2803 14.7793C75.4072 14.9583 75.5651 15.0999 75.7539 15.2041C75.9427 15.305 76.1624 15.3555 76.4131 15.3555C76.6605 15.3555 76.877 15.305 77.0625 15.2041C77.2513 15.0999 77.4076 14.9583 77.5312 14.7793C77.6549 14.6003 77.7477 14.3952 77.8096 14.1641C77.8747 13.9297 77.9072 13.6807 77.9072 13.417V13.3047C77.9072 13.0443 77.8747 12.7985 77.8096 12.5674C77.7477 12.333 77.6533 12.1263 77.5264 11.9473C77.4027 11.765 77.2464 11.6217 77.0576 11.5176C76.8721 11.4134 76.654 11.3613 76.4033 11.3613C76.1559 11.3613 75.9378 11.4134 75.749 11.5176C75.5635 11.6217 75.4072 11.765 75.2803 11.9473C75.1566 12.1263 75.0638 12.333 75.002 12.5674C74.9401 12.7985 74.9092 13.0443 74.9092 13.3047ZM81.2959 16H80.3926V10.1602C80.3926 9.7793 80.4609 9.45866 80.5977 9.19824C80.7376 8.93457 80.9378 8.736 81.1982 8.60254C81.4587 8.46582 81.7679 8.39746 82.126 8.39746C82.2301 8.39746 82.3343 8.40397 82.4385 8.41699C82.5459 8.43001 82.6501 8.44954 82.751 8.47559L82.7021 9.21289C82.6338 9.19661 82.5557 9.18522 82.4678 9.17871C82.3831 9.1722 82.2985 9.16895 82.2139 9.16895C82.0218 9.16895 81.8558 9.20801 81.7158 9.28613C81.5791 9.361 81.4749 9.47168 81.4033 9.61816C81.3317 9.76465 81.2959 9.94531 81.2959 10.1602V16ZM82.4189 10.7168V11.4102H79.5576V10.7168H82.4189ZM85.6367 10.7168V11.4102H82.7803V10.7168H85.6367ZM83.7471 9.43262H84.6504V14.6914C84.6504 14.8704 84.6781 15.0055 84.7334 15.0967C84.7887 15.1878 84.8604 15.248 84.9482 15.2773C85.0361 15.3066 85.1305 15.3213 85.2314 15.3213C85.3063 15.3213 85.3844 15.3148 85.4658 15.3018C85.5505 15.2855 85.6139 15.2725 85.6562 15.2627L85.6611 16C85.5895 16.0228 85.4951 16.0439 85.3779 16.0635C85.264 16.0863 85.1257 16.0977 84.9629 16.0977C84.7415 16.0977 84.5381 16.0537 84.3525 15.9658C84.167 15.8779 84.0189 15.7314 83.9082 15.5264C83.8008 15.318 83.7471 15.0381 83.7471 14.6865V9.43262Z" fill="#23282C"/>
</svg>
