<svg width="19" height="20" viewBox="0 0 19 20" fill="none" xmlns="http://www.w3.org/2000/svg">
<g clip-path="url(#clip0_1990_124119)">
<path d="M16.5249 4.14942L10.281 0.442446C9.91677 0.225195 9.50054 0.110497 9.07642 0.110497C8.65229 0.110497 8.23606 0.225195 7.8718 0.442446L1.62689 4.14942C1.25763 4.37218 0.952544 4.68701 0.741494 5.06308C0.530445 5.43915 0.420665 5.86358 0.4229 6.29482V13.7077C0.420885 14.1387 0.530769 14.5629 0.741808 14.9387C0.952847 15.3145 1.25781 15.6292 1.62689 15.8518L7.87077 19.5575C8.23507 19.7746 8.65129 19.8893 9.07539 19.8893C9.49948 19.8893 9.9157 19.7746 10.28 19.5575L16.5239 15.8518C16.8934 15.6292 17.1987 15.3144 17.41 14.9384C17.6212 14.5623 17.7312 14.1378 17.7291 13.7064V6.29512C17.7313 5.86388 17.6216 5.43946 17.4105 5.06339C17.1995 4.68732 16.8944 4.3725 16.5251 4.14974L16.5249 4.14942Z" fill="white"/>
<path d="M16.5249 4.14942L10.281 0.442446C9.91677 0.225195 9.50054 0.110497 9.07642 0.110497C8.65229 0.110497 8.23606 0.225195 7.8718 0.442446L1.62689 4.14942C1.25763 4.37218 0.952544 4.68701 0.741494 5.06308C0.530445 5.43915 0.420665 5.86358 0.4229 6.29482V13.7077C0.420885 14.1387 0.530769 14.5629 0.741808 14.9387C0.952847 15.3145 1.25781 15.6292 1.62689 15.8518L7.87077 19.5575C8.23507 19.7746 8.65129 19.8893 9.07539 19.8893C9.49948 19.8893 9.9157 19.7746 10.28 19.5575L16.5239 15.8518C16.8934 15.6292 17.1987 15.3144 17.41 14.9384C17.6212 14.5623 17.7312 14.1378 17.7291 13.7064V6.29512C17.7313 5.86388 17.6216 5.43946 17.4105 5.06339C17.1995 4.68732 16.8944 4.3725 16.5251 4.14974L16.5249 4.14942ZM8.08939 19.1785L1.84554 15.4728C1.5422 15.289 1.29159 15.0298 1.11808 14.7205C0.944571 14.4111 0.854068 14.0621 0.855371 13.7074V6.29465C0.853947 5.93994 0.944399 5.59091 1.11792 5.28154C1.29144 4.97217 1.54212 4.713 1.84554 4.52928L8.08942 0.822309C8.38769 0.644371 8.72853 0.550425 9.07584 0.550425C9.42315 0.550425 9.764 0.644371 10.0623 0.822309L16.301 4.52928C16.5551 4.68318 16.7725 4.89067 16.9381 5.13727C17.1038 5.38387 17.2136 5.66365 17.2599 5.95707C17.0524 5.51573 16.586 5.39449 16.0422 5.70704L10.1397 9.3627C9.40333 9.79151 8.86073 10.2754 8.85949 11.1631V18.442C8.85949 18.9734 9.07325 19.3172 9.40333 19.4185C9.29524 19.4383 9.18564 19.4487 9.07575 19.4497C8.72856 19.4495 8.38783 19.3557 8.08933 19.1784L8.08939 19.1785Z" fill="#2F3A3E"/>
<path d="M14.8883 14.4241L13.333 15.3544C13.3126 15.3626 13.2951 15.3765 13.2824 15.3944C13.2698 15.4124 13.2626 15.4337 13.2618 15.4556V15.8645C13.2618 15.9145 13.2955 15.9345 13.3368 15.9107L14.9159 14.9505C14.9348 14.9363 14.9493 14.917 14.9578 14.8949C14.9662 14.8728 14.9681 14.8487 14.9634 14.8255V14.4667C14.9621 14.4204 14.9259 14.4004 14.8883 14.4242V14.4241Z" fill="#3AB14A"/>
<path d="M11.5779 10.9997C11.6279 10.9747 11.6692 10.9997 11.6705 11.071L11.6754 11.6136C11.8625 11.5286 12.0711 11.5033 12.273 11.5411C12.3118 11.5511 12.3281 11.6036 12.3131 11.6661L12.1943 12.1425C12.1853 12.1784 12.1667 12.2112 12.1405 12.2375C12.1314 12.2465 12.1208 12.2541 12.1093 12.26C12.0952 12.2676 12.0789 12.2703 12.063 12.2675C11.8661 12.2239 11.66 12.257 11.4867 12.36C11.3625 12.416 11.2566 12.5058 11.1811 12.6193C11.1057 12.7327 11.0639 12.8651 11.0603 13.0013C11.0603 13.2514 11.1854 13.3201 11.6217 13.3277C12.198 13.3377 12.4481 13.589 12.4544 14.1703C12.4476 14.4701 12.3756 14.7649 12.2435 15.0341C12.1114 15.3034 11.9222 15.5406 11.6892 15.7294L11.6992 16.262C11.6988 16.2945 11.6902 16.3265 11.6742 16.3549C11.6583 16.3832 11.6355 16.4072 11.6079 16.4245L11.2929 16.6058C11.2429 16.6308 11.2016 16.6058 11.2003 16.5358V16.0119C10.9303 16.1245 10.6565 16.1507 10.4815 16.0807C10.449 16.0682 10.434 16.0194 10.4477 15.9632L10.5615 15.4819C10.5701 15.4438 10.5897 15.409 10.6178 15.3818C10.6267 15.3733 10.6368 15.3661 10.6478 15.3606C10.6558 15.3569 10.6646 15.3551 10.6734 15.3551C10.6822 15.3551 10.691 15.3569 10.699 15.3606C10.9219 15.421 11.1596 15.3909 11.3604 15.2768C11.5025 15.2083 11.6232 15.1021 11.7094 14.9699C11.7956 14.8377 11.8439 14.6844 11.8492 14.5266C11.8492 14.2566 11.7005 14.1441 11.3492 14.1416C10.8953 14.1416 10.474 14.0541 10.4652 13.3914C10.4704 13.1055 10.5388 12.8243 10.6654 12.568C10.7921 12.3116 10.9739 12.0864 11.1979 11.9087L11.1754 11.3635C11.1753 11.3305 11.1836 11.2981 11.1996 11.2692C11.2155 11.2403 11.2386 11.216 11.2666 11.1985L11.5779 10.9997Z" fill="white"/>
</g>
<defs>
<clipPath id="clip0_1990_124119">
<rect width="18.152" height="20" fill="white"/>
</clipPath>
</defs>
</svg>
