<svg width="89" height="22" viewBox="0 0 89 22" fill="none" xmlns="http://www.w3.org/2000/svg">
<g clip-path="url(#clip0_2019_151415)">
<path d="M2.07615 2.3498V5.14181C2.10095 5.41961 2.18213 5.68879 2.31435 5.93165C2.44656 6.17447 2.62681 6.38544 2.84322 6.55063L7.97511 9.7077L10.979 7.85665L2.07615 2.3498ZM7.97511 12.1912L2.83827 15.3534C2.6205 15.5176 2.43897 15.7282 2.30584 15.9712C2.1727 16.2141 2.09102 16.4839 2.06626 16.7622V19.5388L10.9741 14.0525L7.97511 12.1912ZM1.73964 21.8783C1.49569 21.873 1.25542 21.8156 1.03377 21.7096C0.81213 21.6036 0.613878 21.4513 0.451377 21.2622C0.288871 21.0731 0.165599 20.8513 0.089242 20.6105C0.0128853 20.3697 -0.0149191 20.1152 0.00756224 19.8628V16.7777C0.0326444 16.1274 0.207532 15.493 0.517536 14.9275C0.82754 14.362 1.26361 13.8821 1.78912 13.5281L5.95105 10.9572L1.79407 8.38625C1.26802 8.03358 0.83118 7.55484 0.52029 6.99022C0.209403 6.4256 0.0335631 5.79171 0.00756224 5.14181V2.01044C-0.014973 1.75784 0.0129884 1.50312 0.0896914 1.26228C0.166395 1.02143 0.290183 0.799663 0.453288 0.610884C0.616396 0.422105 0.815294 0.270393 1.03751 0.165268C1.25972 0.0601443 1.50045 0.00387752 1.74459 0C2.13385 0.00606566 2.51398 0.123484 2.84322 0.339358L12.2459 6.1496C12.5475 6.31407 12.8017 6.55876 12.9825 6.85867C13.1633 7.15854 13.2644 7.50293 13.2753 7.85665C13.2644 8.21036 13.1633 8.55476 12.9825 8.85466C12.8017 9.15457 12.5475 9.39926 12.2459 9.56374L9.99422 10.952L12.2459 12.3403C12.5544 12.4958 12.8145 12.7383 12.9965 13.0402C13.1785 13.3421 13.275 13.6912 13.275 14.0474C13.275 14.4036 13.1785 14.7526 12.9965 15.0545C12.8145 15.3564 12.5544 15.599 12.2459 15.7545L2.84322 21.5441C2.51398 21.76 2.13385 21.8774 1.74459 21.8835" fill="#FE5000"/>
<path d="M20.2247 14.5666C20.38 14.9041 20.6253 15.1881 20.9315 15.385C21.2376 15.5819 21.5918 15.6833 21.9518 15.6772C23.3275 15.6772 24.1491 14.5255 24.1491 13.0086C24.1491 11.4918 23.3275 10.3194 21.9518 10.3194C21.5935 10.3218 21.2427 10.4267 20.938 10.6226C20.6333 10.8186 20.3865 11.0979 20.2247 11.4301V14.5666ZM20.2247 17.77H17.6562V3.88696H20.2247V9.02881C20.5232 8.70899 20.8811 8.45524 21.2766 8.28294C21.672 8.11063 22.097 8.02326 22.5259 8.02617C25.1932 8.02617 26.6927 10.2886 26.6927 13.0189C26.6927 15.7492 25.1932 17.9962 22.5259 17.9962C22.0951 17.997 21.6687 17.9061 21.2729 17.7293C20.8771 17.5524 20.5204 17.2933 20.2247 16.9678V17.77Z" fill="#23282C"/>
<path d="M37.8583 8.01485C39.7489 8.01485 40.8822 9.38269 40.8822 11.5373V17.7697H38.3333V12.1132C38.3333 11.0848 37.903 10.406 37.017 10.406C36.6775 10.4027 36.3481 10.5258 36.0884 10.7532C35.8287 10.9805 35.6561 11.297 35.6017 11.6453V17.816H33.0332V12.1595C33.0332 11.1311 32.6274 10.4523 31.7416 10.4523C31.3992 10.448 31.0664 10.5703 30.8027 10.7972C30.5389 11.0243 30.3613 11.3412 30.3015 11.6916V17.8623H27.7578V8.22567H30.3015V9.01245C30.5933 8.67641 30.9534 8.41211 31.3557 8.23865C31.758 8.06522 32.1924 7.98699 32.6274 8.0097C33.1024 7.99724 33.5736 8.10053 34.0033 8.31125C34.433 8.522 34.8092 8.83433 35.1018 9.22328C35.4518 8.82467 35.8807 8.50973 36.3592 8.30021C36.8377 8.09069 37.3541 7.99158 37.8731 8.0097" fill="#23282C"/>
<path d="M46.305 8.01562C48.6063 8.01562 50.0663 9.42456 50.3336 11.4506H47.8294C47.758 11.0953 47.5629 10.7798 47.2816 10.5645C47.0007 10.3492 46.6529 10.2491 46.305 10.2833C45.1374 10.2833 44.4196 11.394 44.4196 13.0138C44.4196 14.6335 45.1374 15.7288 46.305 15.7288C46.6532 15.7617 47.001 15.6604 47.2823 15.4442C47.5632 15.228 47.758 14.9121 47.8294 14.5564H50.3336C50.0663 16.6132 48.6063 17.9862 46.305 17.9862C43.7022 17.9862 41.8906 15.9602 41.8906 13.0138C41.8906 10.0673 43.7022 8.02077 46.305 8.02077" fill="#23282C"/>
<path d="M61.8068 11.3475C61.6238 9.59394 60.7873 8.52437 59.5059 8.16439C59.2867 8.08884 59.0583 8.04727 58.8276 8.04097C58.3327 8.00498 56.8483 7.87641 55.8584 8.96661V3.87573H53.3047V17.7599H55.8584V11.5532C55.8584 11.0389 56.6254 10.1802 57.5409 10.1802C57.735 10.1782 57.9287 10.1937 58.1201 10.2265C58.8524 10.4116 59.293 11.0904 59.293 12.3502V17.7496H61.8663V12.0931C61.867 11.8432 61.8471 11.5938 61.8068 11.3475Z" fill="#009AF0"/>
<path d="M72.2969 17.7644V3.88184H74.8454V17.7644H72.2969Z" fill="#009AF0"/>
<path d="M76.1016 6.45255V3.93311H78.6549V6.45255H76.1016ZM76.1016 17.7643V8.05676H78.6549V17.7643H76.1016Z" fill="#009AF0"/>
<path d="M88.7125 17.7644H85.7134L83.9418 14.4735H83.9074L82.1602 17.7644H79.1562L82.3631 12.7716L79.3592 8.04614H82.3287L83.9322 10.8999H83.9665L85.57 8.04614H88.5392L85.5404 12.7716L88.7125 17.7644Z" fill="#009AF0"/>
<path d="M71.2713 11.4865C70.8507 9.30622 69.1981 8.04126 67.0698 8.04126C64.3084 8.04126 62.6953 10.1804 62.6953 12.952C62.7149 15.9396 64.3431 17.9964 67.1094 17.9964C68.0977 18.0565 69.0724 17.7379 69.8497 17.1011C70.6267 16.4642 71.1519 15.5533 71.326 14.5409H68.9505C68.8599 14.9853 68.6141 15.379 68.26 15.6459C67.9063 15.9128 67.4701 16.0339 67.0354 15.9859C65.9912 15.9859 65.0114 15.1117 65.0114 13.4148H71.3903C71.4343 12.7694 71.3944 12.1208 71.2713 11.4865ZM67.0155 10.0621H67.055C67.4986 10.0751 67.9233 10.2496 68.2552 10.5551C68.5871 10.8606 68.8052 11.2776 68.8714 11.7333L68.9009 11.9184H65.0409C65.0461 11.856 65.0561 11.7941 65.0705 11.7333C65.1577 11.2596 65.4021 10.8328 65.761 10.5273C66.1202 10.2218 66.5712 10.0572 67.0354 10.0621H67.0155Z" fill="#009AF0"/>
</g>
<defs>
<clipPath id="clip0_2019_151415">
<rect width="88.7097" height="22" fill="white"/>
</clipPath>
</defs>
</svg>
