<svg width="90" height="36" viewBox="0 0 90 36" fill="none" xmlns="http://www.w3.org/2000/svg">
<path d="M18 35C27.3888 35 35 27.3888 35 18C35 8.61116 27.3888 1 18 1C8.61116 1 1 8.61116 1 18C1 27.3888 8.61116 35 18 35Z" fill="#D8ECFF" stroke="#378AD8"/>
<mask id="mask0_9126_47650" style="mask-type:luminance" maskUnits="userSpaceOnUse" x="8" y="18" width="20" height="13">
<path d="M27.5 18H8.5V31H27.5V18Z" fill="white"/>
</mask>
<g mask="url(#mask0_9126_47650)">
<path d="M25.1624 18.3889L24.1562 20.982L26.8409 19.9447C26.9195 19.7772 26.9697 19.5869 26.9697 19.4261V18.3889H25.1624Z" fill="#378AD8"/>
<path d="M9.03125 18.3889V19.4261C9.03125 19.5869 9.08139 19.7772 9.16003 19.9447L17.9975 21.5006L25.0539 19.9447C25.1163 19.7772 25.1565 19.5869 25.1565 19.4261V18.3889H9.03125Z" fill="#378AD8"/>
<path d="M25.0501 19.9448L18.2422 26.6236L21.1338 25.5864C21.2309 25.3338 21.3737 25.0994 21.5314 24.9536L26.608 20.2695C26.6925 20.1917 26.7702 20.075 26.8312 19.9448H25.0501Z" fill="#378AD8"/>
<path d="M9.16406 19.9448C9.22507 20.075 9.30276 20.1917 9.38724 20.2695L14.4638 24.9536C14.6215 25.0993 14.7643 25.3337 14.8614 25.5863L18.0016 27.1422L20.5091 25.5864C20.5864 25.3338 20.7003 25.0994 20.8263 24.9536L24.8796 20.2695C24.9469 20.1917 25.0092 20.075 25.058 19.9449L9.16406 19.9448Z" fill="#378AD8"/>
<path d="M20.5071 25.5864H21.1397C21.0583 25.7985 21.0087 26.023 21.0087 26.2185V30.2358H20.4023L19.0469 26.7372L20.5071 25.5864Z" fill="#378AD8"/>
<path d="M14.8594 25.5864C14.9407 25.7985 14.9904 26.023 14.9904 26.2185V30.2358H20.4022V26.2185C20.4022 26.023 20.442 25.7985 20.5071 25.5864H14.8594Z" fill="#378AD8"/>
<path d="M26.967 18H9.03416C8.84699 18 8.69531 18.1741 8.69531 18.389V19.4262C8.69531 19.8281 8.90115 20.3211 9.1741 20.5728L14.2507 25.2566C14.4609 25.4505 14.6524 25.9091 14.6524 26.2187V30.2357C14.6524 30.4506 14.8041 30.6247 14.9912 30.6247H21.0099C21.1971 30.6247 21.3488 30.4506 21.3488 30.2357V26.2187C21.3488 25.9091 21.5402 25.4505 21.7504 25.2566L26.827 20.5728C27.1 20.3211 27.3058 19.8281 27.3058 19.4262V18.389C27.3058 18.1741 27.1541 18 26.967 18ZM26.6281 19.4262C26.6281 19.5938 26.5163 19.8615 26.4025 19.9665L21.3258 24.6502C20.9526 24.9946 20.6711 25.6689 20.6711 26.2187V29.8467H15.3301V26.2187C15.3301 25.6689 15.0486 24.9946 14.6753 24.6502L9.5986 19.9666C9.48475 19.8615 9.37302 19.5939 9.37302 19.4262V18.7779H26.6281V19.4262Z" fill="#0358A3"/>
<path d="M13.9092 20.3339H24.8038C24.991 20.3339 25.1427 20.1598 25.1427 19.9449C25.1427 19.73 24.991 19.5559 24.8038 19.5559H13.9092C13.722 19.5559 13.5703 19.73 13.5703 19.9449C13.5703 20.1598 13.722 20.3339 13.9092 20.3339Z" fill="#0358A3"/>
<path d="M11.1982 20.3339H12.5537C12.7409 20.3339 12.8925 20.1598 12.8925 19.9449C12.8925 19.73 12.7409 19.5559 12.5537 19.5559H11.1982C11.0111 19.5559 10.8594 19.73 10.8594 19.9449C10.8594 20.1598 11.0111 20.3339 11.1982 20.3339Z" fill="#0358A3"/>
<path d="M19.7143 25.197H16.2764C16.0892 25.197 15.9375 25.3711 15.9375 25.586C15.9375 25.8008 16.0892 25.9749 16.2764 25.9749H19.7143C19.9015 25.9749 20.0532 25.8008 20.0532 25.586C20.0532 25.3712 19.9015 25.197 19.7143 25.197Z" fill="#0358A3"/>
</g>
<mask id="mask1_9126_47650" style="mask-type:luminance" maskUnits="userSpaceOnUse" x="11" y="4" width="13" height="12">
<path d="M23.5 4H11.5V16H23.5V4Z" fill="white"/>
</mask>
<g mask="url(#mask1_9126_47650)">
<path d="M21.4661 10.7831L21.421 11.0263L21.6352 11.15L22.6282 11.7234C22.3785 12.5037 21.9647 13.2094 21.4275 13.7999L20.4393 13.2293L20.2256 13.1059L20.0375 13.2657C19.6342 13.6085 19.1729 13.875 18.6759 14.0518L18.4433 14.1346V14.3815V15.5235C17.6757 15.6882 16.852 15.6963 16.0465 15.5235V14.3815V14.1332L15.8121 14.0512C15.3139 13.8769 14.8538 13.6111 14.4538 13.267L14.2656 13.1051L14.0505 13.2293L13.0624 13.7999C12.5251 13.2072 12.1116 12.5017 11.8619 11.7242L12.8522 11.1524L13.0664 11.0287L13.0213 10.7855C12.9251 10.2664 12.9251 9.73379 13.0213 9.21469L13.0664 8.97149L12.8522 8.84781L11.8619 8.27594C12.1116 7.496 12.5252 6.79056 13.0623 6.20032L14.0478 6.77076L14.2616 6.89451L14.4498 6.73452C14.8531 6.3917 15.3145 6.12523 15.8114 5.9484L16.0441 5.86561V5.61865V4.47672C16.8117 4.31197 17.6353 4.30385 18.4408 4.47672V5.61624V5.86461L18.6753 5.94661C19.1734 6.12084 19.6336 6.38666 20.0335 6.73075L20.2218 6.8927L20.4368 6.76852L21.425 6.19791C21.9622 6.79056 22.3758 7.49606 22.6254 8.27354L21.6352 8.84539L21.421 8.96907L21.4661 9.21229C21.5623 9.73139 21.5623 10.264 21.4661 10.7831ZM14.957 9.99769C14.957 11.2579 15.9822 12.2832 17.2425 12.2832C18.5027 12.2832 19.5279 11.2579 19.5279 9.99769C19.5279 8.73744 18.5027 7.71219 17.2425 7.71219C15.9822 7.71219 14.957 8.73744 14.957 9.99769Z" fill="#378AD8" stroke="#0358A3" stroke-width="0.7"/>
</g>
<path d="M47.6641 19.835H48.9766C48.9082 20.4639 48.7282 21.0267 48.4365 21.5234C48.1449 22.0202 47.7324 22.4144 47.1992 22.7061C46.666 22.9932 46.0007 23.1367 45.2031 23.1367C44.6198 23.1367 44.0889 23.0273 43.6104 22.8086C43.1364 22.5898 42.7285 22.2799 42.3867 21.8789C42.0449 21.4733 41.7806 20.988 41.5938 20.4229C41.4115 19.8532 41.3203 19.2197 41.3203 18.5225V17.5312C41.3203 16.834 41.4115 16.2028 41.5938 15.6377C41.7806 15.068 42.0472 14.5804 42.3936 14.1748C42.7445 13.7692 43.166 13.457 43.6582 13.2383C44.1504 13.0195 44.7041 12.9102 45.3193 12.9102C46.0713 12.9102 46.707 13.0514 47.2266 13.334C47.7461 13.6165 48.1494 14.0085 48.4365 14.5098C48.7282 15.0065 48.9082 15.583 48.9766 16.2393H47.6641C47.6003 15.7744 47.4818 15.3757 47.3086 15.043C47.1354 14.7057 46.8893 14.446 46.5703 14.2637C46.2513 14.0814 45.8343 13.9902 45.3193 13.9902C44.8773 13.9902 44.4876 14.0745 44.1504 14.2432C43.8177 14.4118 43.5374 14.651 43.3096 14.9609C43.0863 15.2708 42.9176 15.6423 42.8037 16.0752C42.6898 16.5081 42.6328 16.9889 42.6328 17.5176V18.5225C42.6328 19.0101 42.6829 19.4681 42.7832 19.8965C42.888 20.3249 43.0452 20.7008 43.2549 21.0244C43.4645 21.348 43.7311 21.6032 44.0547 21.79C44.3783 21.9723 44.7611 22.0635 45.2031 22.0635C45.7637 22.0635 46.2103 21.9746 46.543 21.7969C46.8757 21.6191 47.1263 21.3639 47.2949 21.0312C47.4681 20.6986 47.5911 20.2998 47.6641 19.835ZM55.1084 21.291V15.6035H56.3799V23H55.1699L55.1084 21.291ZM55.3477 19.7324L55.874 19.7188C55.874 20.2109 55.8216 20.6667 55.7168 21.0859C55.6165 21.5007 55.4525 21.8607 55.2246 22.166C54.9967 22.4714 54.6982 22.7106 54.3291 22.8838C53.96 23.0524 53.5111 23.1367 52.9824 23.1367C52.6224 23.1367 52.292 23.0843 51.9912 22.9795C51.695 22.8747 51.4398 22.7129 51.2256 22.4941C51.0114 22.2754 50.8451 21.9906 50.7266 21.6396C50.6126 21.2887 50.5557 20.8672 50.5557 20.375V15.6035H51.8203V20.3887C51.8203 20.7214 51.8568 20.9971 51.9297 21.2158C52.0072 21.43 52.1097 21.6009 52.2373 21.7285C52.3695 21.8516 52.5153 21.9382 52.6748 21.9883C52.8389 22.0384 53.0075 22.0635 53.1807 22.0635C53.7184 22.0635 54.1445 21.9609 54.459 21.7559C54.7734 21.5462 54.999 21.266 55.1357 20.915C55.277 20.5596 55.3477 20.1654 55.3477 19.7324ZM62.6143 21.0381C62.6143 20.8558 62.5732 20.6872 62.4912 20.5322C62.4137 20.3727 62.252 20.2292 62.0059 20.1016C61.7643 19.9694 61.3997 19.8555 60.9121 19.7598C60.502 19.6732 60.1305 19.5706 59.7979 19.4521C59.4697 19.3337 59.1895 19.1901 58.957 19.0215C58.7292 18.8529 58.5537 18.6546 58.4307 18.4268C58.3076 18.1989 58.2461 17.9323 58.2461 17.627C58.2461 17.3353 58.3099 17.0596 58.4375 16.7998C58.5697 16.54 58.7542 16.3099 58.9912 16.1094C59.2327 15.9089 59.5221 15.7516 59.8594 15.6377C60.1966 15.5238 60.5726 15.4668 60.9873 15.4668C61.5798 15.4668 62.0856 15.5716 62.5049 15.7812C62.9242 15.9909 63.2454 16.2712 63.4688 16.6221C63.6921 16.9684 63.8037 17.3535 63.8037 17.7773H62.5391C62.5391 17.5723 62.4775 17.374 62.3545 17.1826C62.236 16.9867 62.0605 16.8249 61.8281 16.6973C61.6003 16.5697 61.32 16.5059 60.9873 16.5059C60.6364 16.5059 60.3516 16.5605 60.1328 16.6699C59.9186 16.7747 59.7614 16.9092 59.6611 17.0732C59.5654 17.2373 59.5176 17.4105 59.5176 17.5928C59.5176 17.7295 59.5404 17.8525 59.5859 17.9619C59.6361 18.0667 59.7227 18.1647 59.8457 18.2559C59.9688 18.3424 60.1419 18.4245 60.3652 18.502C60.5885 18.5794 60.8734 18.6569 61.2197 18.7344C61.8258 18.8711 62.3249 19.0352 62.7168 19.2266C63.1087 19.418 63.4004 19.6527 63.5918 19.9307C63.7832 20.2087 63.8789 20.5459 63.8789 20.9424C63.8789 21.266 63.8105 21.5622 63.6738 21.8311C63.5417 22.0999 63.348 22.3324 63.0928 22.5283C62.8421 22.7197 62.5413 22.8701 62.1904 22.9795C61.8441 23.0843 61.4544 23.1367 61.0215 23.1367C60.3698 23.1367 59.8184 23.0205 59.3672 22.7881C58.916 22.5557 58.5742 22.2549 58.3418 21.8857C58.1094 21.5166 57.9932 21.127 57.9932 20.7168H59.2646C59.2829 21.0632 59.3831 21.3389 59.5654 21.5439C59.7477 21.7445 59.971 21.888 60.2354 21.9746C60.4997 22.0566 60.7617 22.0977 61.0215 22.0977C61.3678 22.0977 61.6572 22.0521 61.8896 21.9609C62.1266 21.8698 62.3066 21.7445 62.4297 21.585C62.5527 21.4255 62.6143 21.2432 62.6143 21.0381ZM68.6367 15.6035V16.5742H64.6377V15.6035H68.6367ZM65.9912 13.8057H67.2559V21.168C67.2559 21.4186 67.2946 21.6077 67.3721 21.7354C67.4495 21.863 67.5498 21.9473 67.6729 21.9883C67.7959 22.0293 67.9281 22.0498 68.0693 22.0498C68.1742 22.0498 68.2835 22.0407 68.3975 22.0225C68.516 21.9997 68.6048 21.9814 68.6641 21.9678L68.6709 23C68.5706 23.0319 68.4385 23.0615 68.2744 23.0889C68.1149 23.1208 67.9212 23.1367 67.6934 23.1367C67.3835 23.1367 67.0986 23.0752 66.8389 22.9521C66.5791 22.8291 66.3717 22.624 66.2168 22.3369C66.0664 22.0452 65.9912 21.6533 65.9912 21.1611V13.8057ZM69.6484 19.3838V19.2266C69.6484 18.6934 69.7259 18.1989 69.8809 17.7432C70.0358 17.2829 70.2591 16.8841 70.5508 16.5469C70.8424 16.2051 71.1956 15.9408 71.6104 15.7539C72.0251 15.5625 72.4899 15.4668 73.0049 15.4668C73.5244 15.4668 73.9915 15.5625 74.4062 15.7539C74.8255 15.9408 75.181 16.2051 75.4727 16.5469C75.7689 16.8841 75.9945 17.2829 76.1494 17.7432C76.3044 18.1989 76.3818 18.6934 76.3818 19.2266V19.3838C76.3818 19.917 76.3044 20.4115 76.1494 20.8672C75.9945 21.3229 75.7689 21.7217 75.4727 22.0635C75.181 22.4007 74.8278 22.665 74.4131 22.8564C74.0029 23.0433 73.5381 23.1367 73.0186 23.1367C72.499 23.1367 72.0319 23.0433 71.6172 22.8564C71.2025 22.665 70.847 22.4007 70.5508 22.0635C70.2591 21.7217 70.0358 21.3229 69.8809 20.8672C69.7259 20.4115 69.6484 19.917 69.6484 19.3838ZM70.9131 19.2266V19.3838C70.9131 19.7529 70.9564 20.1016 71.043 20.4297C71.1296 20.7533 71.2594 21.0404 71.4326 21.291C71.6104 21.5417 71.8314 21.7399 72.0957 21.8857C72.36 22.027 72.6676 22.0977 73.0186 22.0977C73.3649 22.0977 73.668 22.027 73.9277 21.8857C74.1921 21.7399 74.4108 21.5417 74.584 21.291C74.7572 21.0404 74.887 20.7533 74.9736 20.4297C75.0648 20.1016 75.1104 19.7529 75.1104 19.3838V19.2266C75.1104 18.862 75.0648 18.5179 74.9736 18.1943C74.887 17.8662 74.7549 17.5768 74.5771 17.3262C74.404 17.071 74.1852 16.8704 73.9209 16.7246C73.6611 16.5788 73.3558 16.5059 73.0049 16.5059C72.6585 16.5059 72.3532 16.5788 72.0889 16.7246C71.8291 16.8704 71.6104 17.071 71.4326 17.3262C71.2594 17.5768 71.1296 17.8662 71.043 18.1943C70.9564 18.5179 70.9131 18.862 70.9131 19.2266ZM79.2256 17.0732V23H77.9541V15.6035H79.1572L79.2256 17.0732ZM78.9658 19.0215L78.3779 19.001C78.3825 18.4951 78.4486 18.028 78.5762 17.5996C78.7038 17.1667 78.8929 16.7907 79.1436 16.4717C79.3942 16.1527 79.7064 15.9066 80.0801 15.7334C80.4538 15.5557 80.8867 15.4668 81.3789 15.4668C81.7253 15.4668 82.0443 15.5169 82.3359 15.6172C82.6276 15.7129 82.8805 15.8656 83.0947 16.0752C83.3089 16.2848 83.4753 16.5537 83.5938 16.8818C83.7122 17.21 83.7715 17.6064 83.7715 18.0713V23H82.5068V18.1328C82.5068 17.7454 82.4408 17.4355 82.3086 17.2031C82.181 16.9707 81.9987 16.8021 81.7617 16.6973C81.5247 16.5879 81.2467 16.5332 80.9277 16.5332C80.554 16.5332 80.2419 16.5993 79.9912 16.7314C79.7406 16.8636 79.54 17.0459 79.3896 17.2783C79.2393 17.5107 79.1299 17.7773 79.0615 18.0781C78.9977 18.3743 78.9658 18.6888 78.9658 19.0215ZM83.7578 18.3242L82.9102 18.584C82.9147 18.1784 82.9808 17.7887 83.1084 17.415C83.2406 17.0413 83.4297 16.7087 83.6758 16.417C83.9264 16.1253 84.234 15.8952 84.5986 15.7266C84.9632 15.5534 85.3802 15.4668 85.8496 15.4668C86.2461 15.4668 86.597 15.5192 86.9023 15.624C87.2122 15.7288 87.472 15.8906 87.6816 16.1094C87.8958 16.3236 88.0576 16.5993 88.167 16.9365C88.2764 17.2738 88.3311 17.6748 88.3311 18.1396V23H87.0596V18.126C87.0596 17.7113 86.9935 17.39 86.8613 17.1621C86.7337 16.9297 86.5514 16.7679 86.3145 16.6768C86.082 16.5811 85.804 16.5332 85.4805 16.5332C85.2025 16.5332 84.9564 16.5811 84.7422 16.6768C84.528 16.7725 84.348 16.9046 84.2021 17.0732C84.0563 17.2373 83.9447 17.4264 83.8672 17.6406C83.7943 17.8548 83.7578 18.0827 83.7578 18.3242Z" fill="black"/>
</svg>
