<svg width="107" height="36" viewBox="0 0 107 36" fill="none" xmlns="http://www.w3.org/2000/svg">
<path d="M17.0017 33.1109C25.3473 33.1109 32.1128 26.3454 32.1128 17.9998C32.1128 9.65415 25.3473 2.88867 17.0017 2.88867C8.6561 2.88867 1.89062 9.65415 1.89062 17.9998C1.89062 26.3454 8.6561 33.1109 17.0017 33.1109Z" fill="#D8ECFF" stroke="#378AD8"/>
<mask id="mask0_6668_10887" style="mask-type:luminance" maskUnits="userSpaceOnUse" x="8" y="18" width="18" height="12">
<path d="M25.4436 18H8.55469V29.5556H25.4436V18Z" fill="white"/>
</mask>
<g mask="url(#mask0_6668_10887)">
<path d="M23.3631 18.3457L22.4688 20.6507L24.8552 19.7286C24.925 19.5797 24.9696 19.4106 24.9696 19.2677V18.3457H23.3631Z" fill="#378AD8"/>
<path d="M9.02344 18.3457V19.2677C9.02344 19.4106 9.06801 19.5797 9.13791 19.7286L16.9934 21.1117L23.2658 19.7286C23.3213 19.5797 23.357 19.4106 23.357 19.2677V18.3457H9.02344Z" fill="#378AD8"/>
<path d="M23.2624 19.7285L17.2109 25.6652L19.7812 24.7433C19.8676 24.5187 19.9945 24.3104 20.1347 24.1808L24.6472 20.0171C24.7223 19.948 24.7914 19.8442 24.8456 19.7285H23.2624Z" fill="#378AD8"/>
<path d="M9.14062 19.7285C9.19486 19.8442 9.26391 19.948 9.33901 20.0171L13.8515 24.1808C13.9917 24.3103 14.1186 24.5186 14.2049 24.7432L16.9962 26.1262L19.2251 24.7433C19.2938 24.5187 19.3951 24.3104 19.5071 24.1808L23.11 20.0171C23.1698 19.948 23.2252 19.8442 23.2686 19.7286L9.14062 19.7285Z" fill="#378AD8"/>
<path d="M19.2276 24.7437H19.79C19.7176 24.9322 19.6735 25.1317 19.6735 25.3055V28.8765H19.1345L17.9297 25.7666L19.2276 24.7437Z" fill="#378AD8"/>
<path d="M14.2031 24.7437C14.2754 24.9322 14.3196 25.1317 14.3196 25.3055V28.8765H19.1301V25.3055C19.1301 25.1317 19.1654 24.9322 19.2233 24.7437H14.2031Z" fill="#378AD8"/>
<path d="M24.9681 18H9.02776C8.86139 18 8.72656 18.1548 8.72656 18.3458V19.2677C8.72656 19.625 8.90953 20.0632 9.15215 20.2869L13.6647 24.4503C13.8515 24.6227 14.0218 25.0303 14.0218 25.3055V28.8762C14.0218 29.0672 14.1566 29.222 14.3229 29.222H19.6729C19.8393 29.222 19.9741 29.0672 19.9741 28.8762V25.3055C19.9741 25.0303 20.1442 24.6227 20.3311 24.4503L24.8436 20.2869C25.0863 20.0632 25.2692 19.625 25.2692 19.2677V18.3458C25.2692 18.1548 25.1344 18 24.9681 18ZM24.6668 19.2677C24.6668 19.4167 24.5674 19.6547 24.4663 19.748L19.9537 23.9113C19.6219 24.2174 19.3717 24.8168 19.3717 25.3055V28.5304H14.6242V25.3055C14.6242 24.8168 14.3739 24.2174 14.0421 23.9113L9.52949 19.7481C9.42829 19.6547 9.32897 19.4168 9.32897 19.2677V18.6915H24.6668V19.2677Z" fill="#0358A3"/>
<path d="M13.3637 20.0744H23.0478C23.2142 20.0744 23.3491 19.9196 23.3491 19.7286C23.3491 19.5376 23.2142 19.3828 23.0478 19.3828H13.3637C13.1973 19.3828 13.0625 19.5376 13.0625 19.7286C13.0625 19.9196 13.1973 20.0744 13.3637 20.0744Z" fill="#0358A3"/>
<path d="M10.9496 20.0744H12.1545C12.3209 20.0744 12.4556 19.9196 12.4556 19.7286C12.4556 19.5376 12.3209 19.3828 12.1545 19.3828H10.9496C10.7833 19.3828 10.6484 19.5376 10.6484 19.7286C10.6484 19.9196 10.7833 20.0744 10.9496 20.0744Z" fill="#0358A3"/>
<path d="M18.5212 24.3975H15.4653C15.2989 24.3975 15.1641 24.5522 15.1641 24.7432C15.1641 24.9342 15.2989 25.0889 15.4653 25.0889H18.5212C18.6876 25.0889 18.8225 24.9342 18.8225 24.7432C18.8225 24.5523 18.6876 24.3975 18.5212 24.3975Z" fill="#0358A3"/>
</g>
<mask id="mask1_6668_10887" style="mask-type:luminance" maskUnits="userSpaceOnUse" x="11" y="5" width="11" height="12">
<path d="M21.8854 5.55566H11.2188V16.2223H21.8854V5.55566Z" fill="white"/>
</mask>
<g mask="url(#mask1_6668_10887)">
<path d="M20.0761 11.5849L20.036 11.8011L20.2264 11.9111L21.1091 12.4207C20.8872 13.1143 20.5193 13.7416 20.0418 14.2665L19.1634 13.7593L18.9735 13.6496L18.8063 13.7917C18.4478 14.0964 18.0377 14.3333 17.596 14.4904L17.3892 14.564V14.7835V15.7986C16.7069 15.945 15.9747 15.9522 15.2587 15.7986V14.7835V14.5628L15.0504 14.4899C14.6075 14.335 14.1985 14.0987 13.843 13.7928L13.6757 13.6489L13.4845 13.7593L12.6062 14.2665C12.1286 13.7397 11.761 13.1126 11.5391 12.4215L12.4193 11.9132L12.6097 11.8032L12.5696 11.5871C12.4841 11.1256 12.4841 10.6522 12.5696 10.1908L12.6097 9.97461L12.4193 9.86467L11.5391 9.35634C11.761 8.66306 12.1287 8.036 12.6061 7.51134L13.4821 8.0184L13.6721 8.1284L13.8394 7.98619C14.1979 7.68146 14.608 7.4446 15.0497 7.28742L15.2566 7.21382V6.9943V5.97926C15.9389 5.83281 16.671 5.82559 17.387 5.97926V6.99216V7.21294L17.5954 7.28582C18.0382 7.4407 18.4472 7.67698 18.8027 7.98284L18.9701 8.12679L19.1612 8.01641L20.0396 7.5092C20.5171 8.036 20.8848 8.66311 21.1066 9.35421L20.2264 9.86252L20.036 9.97246L20.0761 10.1887C20.1616 10.6501 20.1616 11.1235 20.0761 11.5849ZM14.2903 10.8868C14.2903 12.007 15.2016 12.9183 16.3218 12.9183C17.442 12.9183 18.3533 12.007 18.3533 10.8868C18.3533 9.76656 17.442 8.85523 16.3218 8.85523C15.2016 8.85523 14.2903 9.76656 14.2903 10.8868Z" fill="#378AD8" stroke="#0358A3" stroke-width="0.7"/>
</g>
<path d="M43.3655 19.631H44.5322C44.4714 20.19 44.3114 20.6903 44.0521 21.1318C43.7929 21.5734 43.4262 21.9238 42.9523 22.1831C42.4783 22.4383 41.8869 22.5658 41.1779 22.5658C40.6594 22.5658 40.1875 22.4686 39.7622 22.2742C39.3409 22.0797 38.9783 21.8042 38.6745 21.4478C38.3707 21.0872 38.1357 20.6559 37.9697 20.1535C37.8076 19.6471 37.7266 19.084 37.7266 18.4643V17.5831C37.7266 16.9634 37.8076 16.4023 37.9697 15.9C38.1357 15.3936 38.3727 14.9602 38.6806 14.5997C38.9925 14.2391 39.3672 13.9616 39.8047 13.7672C40.2422 13.5727 40.7344 13.4756 41.2812 13.4756C41.9497 13.4756 42.5147 13.6011 42.9766 13.8523C43.4384 14.1034 43.7969 14.4519 44.0521 14.8975C44.3114 15.339 44.4714 15.8514 44.5322 16.4348H43.3655C43.3088 16.0215 43.2035 15.6671 43.0495 15.3714C42.8955 15.0716 42.6768 14.8407 42.3932 14.6787C42.1097 14.5167 41.739 14.4356 41.2812 14.4356C40.8883 14.4356 40.5419 14.5105 40.2422 14.6605C39.9465 14.8103 39.6973 15.023 39.4948 15.2984C39.2963 15.5739 39.1464 15.9041 39.0451 16.2889C38.9439 16.6737 38.8932 17.1011 38.8932 17.5711V18.4643C38.8932 18.8977 38.9378 19.3048 39.0269 19.6856C39.1201 20.0664 39.2598 20.4006 39.4462 20.6882C39.6325 20.9759 39.8695 21.2027 40.1571 21.3687C40.4448 21.5308 40.785 21.6119 41.1779 21.6119C41.6762 21.6119 42.0732 21.5328 42.369 21.3749C42.6647 21.2168 42.8874 20.99 43.0373 20.6943C43.1913 20.3986 43.3006 20.0441 43.3655 19.631ZM49.9826 20.9252V15.8696H51.1129V22.4443H50.0373L49.9826 20.9252ZM50.1954 19.5398L50.6632 19.5277C50.6632 19.9651 50.6166 20.3703 50.5235 20.7429C50.4343 21.1116 50.2885 21.4316 50.0859 21.703C49.8834 21.9744 49.618 22.1871 49.2899 22.341C48.9619 22.4909 48.5628 22.5658 48.0929 22.5658C47.7729 22.5658 47.4792 22.5192 47.2118 22.4261C46.9485 22.3329 46.7217 22.1891 46.5313 21.9946C46.3409 21.8002 46.1931 21.5471 46.0877 21.2351C45.9864 20.9231 45.9358 20.5485 45.9358 20.111V15.8696H47.0599V20.1231C47.0599 20.4189 47.0923 20.6639 47.1571 20.8583C47.226 21.0487 47.3171 21.2007 47.4306 21.3141C47.5481 21.4235 47.6777 21.5005 47.8195 21.545C47.9653 21.5895 48.1152 21.6119 48.2691 21.6119C48.7471 21.6119 49.1259 21.5207 49.4054 21.3384C49.6849 21.152 49.8854 20.903 50.0069 20.591C50.1325 20.2751 50.1954 19.9247 50.1954 19.5398ZM56.6546 20.7004C56.6546 20.5383 56.618 20.3885 56.5451 20.2507C56.4763 20.1089 56.3325 19.9814 56.1138 19.8679C55.899 19.7504 55.5749 19.6492 55.1415 19.5641C54.777 19.4871 54.4467 19.3959 54.1511 19.2906C53.8594 19.1854 53.6103 19.0577 53.4036 18.9079C53.2011 18.758 53.0451 18.5817 52.9358 18.3792C52.8264 18.1767 52.7717 17.9397 52.7717 17.6683C52.7717 17.409 52.8284 17.1639 52.9419 16.933C53.0594 16.7021 53.2234 16.4975 53.434 16.3193C53.6487 16.1411 53.9059 16.0013 54.2058 15.9C54.5055 15.7988 54.8397 15.7481 55.2083 15.7481C55.735 15.7481 56.1846 15.8413 56.5573 16.0276C56.93 16.214 57.2155 16.4631 57.4141 16.7751C57.6126 17.0829 57.7118 17.4252 57.7118 17.8019H56.5877C56.5877 17.6197 56.533 17.4434 56.4236 17.2733C56.3183 17.0991 56.1623 16.9553 55.9557 16.8419C55.7532 16.7285 55.5041 16.6718 55.2083 16.6718C54.8964 16.6718 54.6433 16.7203 54.4488 16.8175C54.2584 16.9107 54.1186 17.0303 54.0295 17.176C53.9444 17.3219 53.9019 17.4759 53.9019 17.6379C53.9019 17.7594 53.9222 17.8687 53.9626 17.966C54.0073 18.0591 54.0842 18.1463 54.1936 18.2273C54.303 18.3042 54.4569 18.3772 54.6554 18.4461C54.8539 18.5149 55.1071 18.5838 55.4149 18.6527C55.9537 18.7742 56.3973 18.92 56.7457 19.0902C57.094 19.2603 57.3533 19.4689 57.5235 19.716C57.6936 19.9631 57.7786 20.2629 57.7786 20.6153C57.7786 20.903 57.7179 21.1663 57.5963 21.4053C57.4789 21.6442 57.3067 21.8509 57.0799 22.025C56.8571 22.1951 56.5897 22.3288 56.2778 22.4261C55.9699 22.5192 55.6235 22.5658 55.2387 22.5658C54.6595 22.5658 54.1693 22.4625 53.7682 22.2559C53.3672 22.0494 53.0634 21.782 52.8568 21.4538C52.6502 21.1257 52.5469 20.7794 52.5469 20.4148H53.677C53.6933 20.7227 53.7824 20.9678 53.9444 21.15C54.1065 21.3283 54.305 21.4559 54.54 21.5328C54.7749 21.6057 55.0078 21.6423 55.2387 21.6423C55.5466 21.6423 55.8038 21.6017 56.0104 21.5207C56.221 21.4397 56.381 21.3283 56.4905 21.1865C56.5998 21.0447 56.6546 20.8827 56.6546 20.7004ZM62.0078 15.8696V16.7325H58.4531V15.8696H62.0078ZM59.6563 14.2716H60.7804V20.8159C60.7804 21.0386 60.8148 21.2067 60.8837 21.3202C60.9525 21.4336 61.0417 21.5086 61.1511 21.545C61.2604 21.5815 61.3779 21.5997 61.5034 21.5997C61.5967 21.5997 61.6938 21.5916 61.7952 21.5754C61.9005 21.5551 61.9795 21.5389 62.0322 21.5268L62.0382 22.4443C61.949 22.4727 61.8316 22.499 61.6858 22.5233C61.544 22.5517 61.3718 22.5658 61.1693 22.5658C60.8938 22.5658 60.6406 22.5111 60.4098 22.4017C60.1788 22.2924 59.9945 22.1101 59.8568 21.8549C59.7231 21.5956 59.6563 21.2472 59.6563 20.8097V14.2716ZM62.9071 19.2299V19.0902C62.9071 18.6162 62.976 18.1767 63.1138 17.7716C63.2514 17.3624 63.4499 17.0079 63.7092 16.7082C63.9684 16.4044 64.2824 16.1695 64.6511 16.0033C65.0197 15.8332 65.4329 15.7481 65.8906 15.7481C66.3524 15.7481 66.7676 15.8332 67.1362 16.0033C67.509 16.1695 67.825 16.4044 68.0843 16.7082C68.3475 17.0079 68.5481 17.3624 68.6858 17.7716C68.8235 18.1767 68.8923 18.6162 68.8923 19.0902V19.2299C68.8923 19.7039 68.8235 20.1434 68.6858 20.5485C68.5481 20.9535 68.3475 21.308 68.0843 21.6119C67.825 21.9116 67.511 22.1465 67.1424 22.3167C66.7778 22.4828 66.3646 22.5658 65.9028 22.5658C65.441 22.5658 65.0258 22.4828 64.6571 22.3167C64.2885 22.1465 63.9725 21.9116 63.7092 21.6119C63.4499 21.308 63.2514 20.9535 63.1138 20.5485C62.976 20.1434 62.9071 19.7039 62.9071 19.2299ZM64.0313 19.0902V19.2299C64.0313 19.558 64.0698 19.8679 64.1467 20.1596C64.2237 20.4472 64.3391 20.7024 64.4931 20.9252C64.6511 21.148 64.8475 21.3242 65.0825 21.4538C65.3174 21.5794 65.5908 21.6423 65.9028 21.6423C66.2107 21.6423 66.4801 21.5794 66.7109 21.4538C66.9459 21.3242 67.1403 21.148 67.2943 20.9252C67.4483 20.7024 67.5636 20.4472 67.6406 20.1596C67.7217 19.8679 67.7622 19.558 67.7622 19.2299V19.0902C67.7622 18.7661 67.7217 18.4602 67.6406 18.1726C67.5636 17.8809 67.4462 17.6237 67.2882 17.4009C67.1343 17.1741 66.9398 16.9958 66.7049 16.8662C66.4739 16.7366 66.2026 16.6718 65.8906 16.6718C65.5827 16.6718 65.3114 16.7366 65.0764 16.8662C64.8455 16.9958 64.6511 17.1741 64.4931 17.4009C64.3391 17.6237 64.2237 17.8809 64.1467 18.1726C64.0698 18.4602 64.0313 18.7661 64.0313 19.0902ZM71.4202 17.176V22.4443H70.2899V15.8696H71.3594L71.4202 17.176ZM71.1892 18.9079L70.6666 18.8896C70.6707 18.4399 70.7295 18.0247 70.8429 17.6439C70.9563 17.2591 71.1244 16.9249 71.3473 16.6414C71.57 16.3578 71.8475 16.1391 72.1797 15.9851C72.5119 15.8271 72.8967 15.7481 73.3342 15.7481C73.6421 15.7481 73.9257 15.7927 74.1849 15.8818C74.4442 15.9669 74.669 16.1026 74.8594 16.2889C75.0498 16.4752 75.1977 16.7143 75.303 17.0059C75.4083 17.2976 75.461 17.65 75.461 18.0632V22.4443H74.3368V18.1179C74.3368 17.7735 74.2781 17.4981 74.1606 17.2915C74.0472 17.0849 73.8851 16.9351 73.6745 16.8419C73.4638 16.7447 73.2167 16.696 72.9331 16.696C72.601 16.696 72.3235 16.7548 72.1007 16.8722C71.8779 16.9897 71.6996 17.1518 71.5659 17.3583C71.4323 17.5649 71.3351 17.8019 71.2743 18.0693C71.2176 18.3326 71.1892 18.6121 71.1892 18.9079ZM75.4488 18.288L74.6954 18.519C74.6994 18.1584 74.7581 17.812 74.8715 17.4799C74.989 17.1477 75.1571 16.852 75.3759 16.5927C75.5986 16.3335 75.8721 16.1289 76.1962 15.9791C76.5203 15.8251 76.8909 15.7481 77.3082 15.7481C77.6606 15.7481 77.9725 15.7947 78.2439 15.8879C78.5194 15.981 78.7503 16.1248 78.9366 16.3193C79.127 16.5097 79.2708 16.7548 79.3681 17.0545C79.4653 17.3543 79.5139 17.7108 79.5139 18.1239V22.4443H78.3837V18.1119C78.3837 17.7432 78.325 17.4576 78.2074 17.2551C78.094 17.0485 77.932 16.9047 77.7214 16.8237C77.5147 16.7386 77.2676 16.696 76.9801 16.696C76.733 16.696 76.5142 16.7386 76.3238 16.8237C76.1334 16.9087 75.9734 17.0262 75.8437 17.176C75.7141 17.3219 75.6149 17.49 75.546 17.6804C75.4812 17.8708 75.4488 18.0734 75.4488 18.288Z" fill="black"/>
</svg>
