<svg width="88" height="23" viewBox="0 0 88 23" fill="none" xmlns="http://www.w3.org/2000/svg">
<path fill-rule="evenodd" clip-rule="evenodd" d="M22.501 7.78732V19.1985C22.501 19.3889 22.3398 19.5354 22.1641 19.5354H0.352539C0.162109 19.5354 0.015625 19.3742 0.015625 19.1985V7.78732L10.6797 0.389864C11.002 0.170137 11.5586 0.184786 11.8955 0.419161L22.5303 7.78732H22.5156H22.501Z" fill="#9C0000"/>
<path d="M20.625 2.54321H1.875V14.8186H20.625V2.54321Z" fill="#E8E8D0"/>
<path fill-rule="evenodd" clip-rule="evenodd" d="M12.5547 11.6838C12.1152 12.1965 11.5 12.5481 10.8115 12.5481C10.7676 12.5481 10.7236 12.5481 10.665 12.5481C10.0352 12.5042 9.50781 12.1672 9.1416 11.6545C8.79004 11.1711 8.61426 10.5852 8.58496 9.99927V9.77954C8.58496 9.69165 8.58496 9.60376 8.59961 9.51587C8.6582 8.7688 8.92188 8.02173 9.40527 7.45044C9.85938 6.9231 10.4746 6.54224 11.1924 6.54224C11.2363 6.54224 11.2803 6.54224 11.3389 6.54224C11.8809 6.58618 12.3643 6.84985 12.7158 7.24536L12.7598 6.54224L13.6094 6.58618L13.3311 11.1125C13.3164 11.3469 13.4043 11.552 13.5947 11.6838C13.6973 11.7571 13.8145 11.7717 13.9316 11.7717C14.6201 11.7424 15.1768 11.1565 15.4404 10.5559C15.7334 9.91138 15.8213 9.03247 15.6455 8.35864C15.6455 8.34399 15.6455 8.34399 15.6455 8.32935C15.4404 7.58228 15.0449 6.8938 14.4883 6.33716C13.6533 5.5022 12.5254 5.03345 11.3242 5.03345C10.1377 5.03345 9.00977 5.5022 8.16016 6.33716C7.3252 7.17212 6.85645 8.30005 6.85645 9.50122C6.85645 10.6877 7.3252 11.8157 8.16016 12.6653C8.99512 13.5002 10.123 13.969 11.3242 13.969C12.2764 13.969 13.1992 13.676 13.9609 13.1047L14.2979 12.8557V13.9104L14.1953 13.969C13.3311 14.5256 12.335 14.8186 11.3096 14.8186C9.88867 14.8186 8.55566 14.262 7.54492 13.2659C6.54883 12.2698 5.99219 10.9221 5.99219 9.50122C5.99219 8.08032 6.54883 6.74731 7.54492 5.73657C8.54102 4.74048 9.88867 4.18384 11.3096 4.18384C12.7305 4.18384 14.0635 4.74048 15.0742 5.73657C15.7334 6.39575 16.2021 7.21606 16.4512 8.10962C16.4512 8.12427 16.4512 8.12427 16.4512 8.12427C16.6416 8.98853 16.583 10.0286 16.2168 10.8342C15.8066 11.7424 14.9863 12.5627 13.9316 12.6067C13.624 12.6213 13.3311 12.5481 13.082 12.3723C12.8184 12.1965 12.6572 11.9329 12.5547 11.6545V11.6838ZM9.43457 9.85278C9.44922 10.3069 9.56641 10.7756 9.83008 11.1418C10.0498 11.4348 10.3574 11.6545 10.7383 11.6838C10.7676 11.6838 10.7969 11.6838 10.8115 11.6838C11.2656 11.6838 11.6611 11.4202 11.9395 11.0833C12.3057 10.6438 12.5107 10.0725 12.5547 9.50122C12.5547 9.42798 12.5547 9.35474 12.5547 9.29614V9.2229C12.54 8.7688 12.4229 8.30005 12.1592 7.93384C11.9395 7.64087 11.6318 7.42114 11.251 7.39185C11.2217 7.39185 11.1924 7.39185 11.1777 7.39185C10.7236 7.39185 10.3281 7.65552 10.0498 7.99243C9.68359 8.43188 9.47852 9.00317 9.43457 9.57446C9.43457 9.64771 9.43457 9.72095 9.43457 9.77954V9.85278Z" fill="#37474F"/>
<path fill-rule="evenodd" clip-rule="evenodd" d="M0.0585938 19.3743L8.96484 13.2805L0 7.78735V19.1838C0 19.2571 0.0146484 19.3157 0.0585938 19.3596V19.3743Z" fill="#BF0000"/>
<path fill-rule="evenodd" clip-rule="evenodd" d="M22.499 19.1985V7.78735H22.4844L13.4609 13.3245L22.4404 19.3743C22.4697 19.3157 22.499 19.2571 22.499 19.1985Z" fill="#BF0000"/>
<path fill-rule="evenodd" clip-rule="evenodd" d="M22.46 19.3743C22.4014 19.4768 22.2842 19.5354 22.167 19.5354H0.355469C0.238281 19.5354 0.121094 19.4768 0.0625 19.3743L10.668 12.0061C10.9902 11.7864 11.5322 11.8011 11.8838 12.0354L22.46 19.3743Z" fill="#D50000"/>
<path d="M29.25 17.3557V7.62915C29.25 7.42603 29.3229 7.25415 29.4688 7.11353C29.6146 6.9729 29.7891 6.90259 29.9922 6.90259H39C39.2031 6.90259 39.375 6.9755 39.5156 7.12134C39.6615 7.26717 39.7344 7.44165 39.7344 7.64478V8.37915C39.7344 8.58228 39.6615 8.75675 39.5156 8.90259C39.375 9.04321 39.2031 9.11353 39 9.11353H32.1953V11.387H38.0547C38.2578 11.387 38.4297 11.4599 38.5703 11.6057C38.7161 11.7463 38.7891 11.9182 38.7891 12.1213V12.8557C38.7891 13.0588 38.7161 13.2333 38.5703 13.3792C38.4297 13.5198 38.2578 13.5901 38.0547 13.5901H32.1953V15.8948H38.9844C39.1823 15.8948 39.3516 15.9651 39.4922 16.1057C39.6328 16.2463 39.7031 16.4182 39.7031 16.6213V17.3713C39.7031 17.5745 39.6302 17.7489 39.4844 17.8948C39.3385 18.0354 39.1641 18.1057 38.9609 18.1057H29.9922C29.7891 18.1057 29.6146 18.0354 29.4688 17.8948C29.3229 17.7489 29.25 17.5693 29.25 17.3557ZM41.1719 17.3557V7.6604C41.1719 7.44686 41.2422 7.26717 41.3828 7.12134C41.5234 6.9755 41.6953 6.90259 41.8984 6.90259H45.0781C45.2812 6.90259 45.474 6.9755 45.6562 7.12134C45.8385 7.26717 45.9609 7.44165 46.0234 7.64478L48.3281 14.3167L50.6328 7.64478C50.6953 7.44165 50.8177 7.26717 51 7.12134C51.1823 6.9755 51.375 6.90259 51.5781 6.90259H54.7578C54.9609 6.90259 55.1302 6.9755 55.2656 7.12134C55.4062 7.26717 55.4766 7.44686 55.4766 7.6604V17.3557C55.4766 17.5693 55.4036 17.7489 55.2578 17.8948C55.1172 18.0354 54.9453 18.1057 54.7422 18.1057H53.3359C53.1328 18.1057 52.9583 18.0354 52.8125 17.8948C52.6719 17.7489 52.6016 17.5693 52.6016 17.3557V9.7229L49.8438 17.4026C49.7708 17.5953 49.6432 17.762 49.4609 17.9026C49.2786 18.038 49.0859 18.1057 48.8828 18.1057H47.7656C47.5625 18.1057 47.3698 18.038 47.1875 17.9026C47.0104 17.762 46.8828 17.5953 46.8047 17.4026L44.0547 9.7229V17.3557C44.0547 17.5693 43.9818 17.7489 43.8359 17.8948C43.6953 18.0354 43.5234 18.1057 43.3203 18.1057H41.9141C41.7109 18.1057 41.5365 18.0354 41.3906 17.8948C41.2448 17.7489 41.1719 17.5693 41.1719 17.3557ZM56.7969 17.387L58.7578 9.94946C59.2891 7.92342 61.0182 6.9078 63.9453 6.90259H68.1562C68.349 6.90259 68.5078 6.9755 68.6328 7.12134C68.763 7.26717 68.8281 7.43644 68.8281 7.62915V17.387C68.8281 17.5901 68.7552 17.762 68.6094 17.9026C68.4635 18.038 68.2891 18.1057 68.0859 18.1057H66.6172C66.4036 18.1057 66.2266 18.038 66.0859 17.9026C65.9505 17.762 65.8828 17.5849 65.8828 17.3713V15.4026H60.3281L59.8047 17.3713C59.7526 17.5849 59.6354 17.762 59.4531 17.9026C59.2708 18.038 59.0781 18.1057 58.875 18.1057H57.3359C57.1328 18.1057 56.987 18.0484 56.8984 17.9338C56.8099 17.814 56.7656 17.7099 56.7656 17.6213C56.7708 17.5328 56.7812 17.4547 56.7969 17.387ZM60.9062 13.1917H65.8828V9.11353H63.6562C63.1562 9.11353 62.7188 9.25675 62.3438 9.54321C61.974 9.82446 61.724 10.2047 61.5938 10.6838L60.9062 13.1917ZM71.0625 17.387V7.64478C71.0625 7.44165 71.1354 7.26717 71.2812 7.12134C71.4271 6.9755 71.6016 6.90259 71.8047 6.90259H73.2578C73.4714 6.90259 73.6484 6.9755 73.7891 7.12134C73.9349 7.26717 74.0078 7.44165 74.0078 7.64478V17.3713C74.0078 17.5745 73.9323 17.7489 73.7812 17.8948C73.6354 18.0354 73.4609 18.1057 73.2578 18.1057H71.8047C71.6016 18.1057 71.4271 18.038 71.2812 17.9026C71.1354 17.762 71.0625 17.5901 71.0625 17.387ZM76.25 17.387V7.6604C76.25 7.44686 76.3229 7.26717 76.4688 7.12134C76.6146 6.9755 76.7891 6.90259 76.9922 6.90259H78.4609C78.6641 6.90259 78.8359 6.9755 78.9766 7.12134C79.1224 7.26717 79.1953 7.44686 79.1953 7.6604V15.8948H86C86.2031 15.8948 86.375 15.9677 86.5156 16.1135C86.6615 16.2594 86.7344 16.4338 86.7344 16.637V17.3713C86.7344 17.5745 86.6615 17.7489 86.5156 17.8948C86.375 18.0354 86.2031 18.1057 86 18.1057H76.9922C76.7891 18.1057 76.6146 18.038 76.4688 17.9026C76.3229 17.762 76.25 17.5901 76.25 17.387Z" fill="#720000"/>
</svg>
