<svg width="107" height="36" viewBox="0 0 107 36" fill="none" xmlns="http://www.w3.org/2000/svg">
<path d="M42.8277 4.94385H44.4262V11.1851C44.4232 11.7572 44.3016 12.2499 44.0613 12.6631C43.8209 13.0734 43.4851 13.3898 43.0536 13.6123C42.625 13.8319 42.1255 13.9417 41.555 13.9417C41.0338 13.9417 40.5647 13.8492 40.1477 13.6643C39.7336 13.4765 39.405 13.1991 39.1617 12.8321C38.9185 12.4651 38.7969 12.0086 38.7969 11.4625H40.3996C40.4025 11.7023 40.4547 11.9089 40.556 12.0823C40.6603 12.2557 40.8036 12.3886 40.9861 12.4811C41.1685 12.5735 41.3784 12.6198 41.6158 12.6198C41.8736 12.6198 42.0922 12.5663 42.2717 12.4593C42.4512 12.3496 42.5874 12.1878 42.6801 11.9739C42.7755 11.7601 42.8248 11.4971 42.8277 11.1851V4.94385ZM47.786 4.94385V13.8203H46.1744V4.94385H47.786ZM49.531 13.8203V4.94385H52.8669C53.5503 4.94385 54.1236 5.06232 54.5869 5.29925C55.0532 5.53619 55.405 5.86848 55.6424 6.29612C55.8827 6.72087 56.003 7.21642 56.003 7.78278C56.003 8.35197 55.8813 8.84611 55.6381 9.26509C55.3977 9.68111 55.043 10.0033 54.5739 10.2316C54.1048 10.4569 53.5285 10.5696 52.8451 10.5696H50.4692V9.23475H52.628C53.0275 9.23475 53.3548 9.17983 53.6096 9.06998C53.8644 8.95735 54.0526 8.79406 54.1742 8.58021C54.2988 8.36357 54.361 8.09767 54.361 7.78278C54.361 7.4678 54.2988 7.19909 54.1742 6.97659C54.0497 6.75122 53.8601 6.58074 53.6053 6.46516C53.3504 6.34669 53.0218 6.28746 52.6193 6.28746H51.1425V13.8203H49.531ZM54.1265 9.79819L56.3287 13.8203H54.5304L52.3674 9.79819H54.1265ZM58.6286 13.8203H56.9086L60.0403 4.94385H62.0297L65.1658 13.8203H63.4457L61.0697 6.76422H61.0002L58.6286 13.8203ZM58.6851 10.3399H63.3762V11.6315H58.6851V10.3399Z" fill="black"/>
<path d="M43.5957 22.0631C43.5535 21.6396 43.3661 21.3028 43.0335 21.0527C42.7009 20.8025 42.2827 20.6775 41.7788 20.6775C41.4239 20.6775 41.1112 20.7381 40.8406 20.8595C40.5725 20.9808 40.3615 21.1492 40.2077 21.3647C40.0563 21.5777 39.9805 21.8204 39.9805 22.0928C39.9805 22.2935 40.024 22.4693 40.1109 22.6204C40.1977 22.7714 40.3144 22.9015 40.4609 23.0105C40.6098 23.117 40.7736 23.2086 40.9523 23.2853C41.1334 23.3622 41.316 23.4266 41.4996 23.4785L42.3037 23.7089C42.547 23.7757 42.7903 23.8612 43.0335 23.9653C43.2768 24.0693 43.4989 24.2005 43.6999 24.359C43.9035 24.515 44.066 24.707 44.1877 24.9349C44.3117 25.1602 44.3738 25.4314 44.3738 25.7484C44.3738 26.1546 44.2683 26.52 44.0573 26.8444C43.8464 27.1688 43.5436 27.4264 43.1489 27.6171C42.7543 27.8053 42.2815 27.8994 41.7304 27.8994C41.2116 27.8994 40.7612 27.814 40.3789 27.6431C39.9967 27.4697 39.6964 27.2307 39.478 26.9261C39.2596 26.6214 39.1366 26.2685 39.1094 25.8673H39.8242C39.849 26.167 39.9483 26.4208 40.1221 26.6289C40.2958 26.837 40.5217 26.9954 40.7996 27.1044C41.0776 27.211 41.3879 27.2642 41.7304 27.2642C42.1101 27.2642 42.4477 27.201 42.7431 27.0747C43.041 26.9459 43.2742 26.7676 43.443 26.5398C43.6143 26.3094 43.6999 26.042 43.6999 25.7373C43.6999 25.4797 43.6329 25.2642 43.4989 25.0909C43.3648 24.9151 43.1774 24.7677 42.9367 24.6488C42.6984 24.5299 42.4217 24.4247 42.1065 24.333L41.1943 24.0655C40.5961 23.8872 40.1319 23.6408 39.8019 23.3262C39.4718 23.0117 39.3067 22.6105 39.3067 22.1225C39.3067 21.7139 39.4159 21.3548 39.6343 21.0452C39.8552 20.7332 40.1531 20.4905 40.5279 20.3171C40.9051 20.1412 41.3284 20.0533 41.7974 20.0533C42.2715 20.0533 42.691 20.14 43.0558 20.3133C43.4207 20.4867 43.7098 20.7258 43.9233 21.0304C44.1393 21.3325 44.2547 21.6768 44.2695 22.0631H43.5957ZM48.1341 27.8883C47.6402 27.8883 47.2034 27.7632 46.8236 27.5131C46.4463 27.2629 46.1509 26.9174 45.9375 26.4766C45.724 26.0332 45.6173 25.5218 45.6173 24.9423C45.6173 24.3577 45.724 23.8439 45.9375 23.4005C46.1509 22.9548 46.4463 22.608 46.8236 22.3604C47.2034 22.1102 47.6402 21.9852 48.1341 21.9852C48.6281 21.9852 49.0636 22.1102 49.441 22.3604C49.8182 22.6105 50.1136 22.9572 50.327 23.4005C50.5429 23.8439 50.6509 24.3577 50.6509 24.9423C50.6509 25.5218 50.5442 26.0332 50.3307 26.4766C50.1173 26.9174 49.8207 27.2629 49.441 27.5131C49.0636 27.7632 48.6281 27.8883 48.1341 27.8883ZM48.1341 27.2828C48.5313 27.2828 48.8676 27.1763 49.1431 26.9633C49.4186 26.7503 49.6271 26.4667 49.7686 26.1125C49.9125 25.7584 49.9845 25.3682 49.9845 24.9423C49.9845 24.5163 49.9125 24.125 49.7686 23.7683C49.6271 23.4117 49.4186 23.1256 49.1431 22.9101C48.8676 22.6947 48.5313 22.587 48.1341 22.587C47.7395 22.587 47.4032 22.6947 47.1252 22.9101C46.8497 23.1256 46.6399 23.4117 46.4959 23.7683C46.3545 24.125 46.2837 24.5163 46.2837 24.9423C46.2837 25.3682 46.3545 25.7584 46.4959 26.1125C46.6399 26.4667 46.8497 26.7503 47.1252 26.9633C47.4006 27.1763 47.737 27.2828 48.1341 27.2828ZM54.4587 22.0631V22.639H51.6478V22.0631H54.4587ZM52.5265 27.7694V21.2272C52.5265 20.9202 52.5971 20.6613 52.7387 20.4508C52.8826 20.2403 53.07 20.0805 53.3008 19.9716C53.5316 19.8626 53.7762 19.8081 54.0343 19.8081C54.208 19.8081 54.352 19.8229 54.4661 19.8527C54.5829 19.8799 54.6747 19.9071 54.7417 19.9344L54.5481 20.514C54.4985 20.4991 54.4376 20.4817 54.3657 20.462C54.2937 20.4422 54.2031 20.4322 54.0938 20.4322C53.806 20.4322 53.5838 20.5127 53.4274 20.6737C53.271 20.8347 53.1929 21.0651 53.1929 21.3647L53.1891 27.7694H52.5265ZM58.0338 22.0631V22.639H55.3048V22.0631H58.0338ZM56.1574 20.696H56.8238V26.2797C56.8238 26.5174 56.8647 26.7044 56.9467 26.8407C57.0286 26.9744 57.1353 27.0697 57.2669 27.1267C57.3984 27.1812 57.5386 27.2084 57.6876 27.2084C57.7744 27.2084 57.8489 27.2035 57.911 27.1936C57.973 27.1812 58.0276 27.1688 58.0748 27.1565L58.2162 27.7546C58.1517 27.7794 58.0723 27.8016 57.978 27.8215C57.8836 27.8437 57.767 27.8549 57.628 27.8549C57.3848 27.8549 57.1502 27.8016 56.9243 27.6951C56.7009 27.5886 56.5173 27.4301 56.3733 27.2196C56.2294 27.009 56.1574 26.7478 56.1574 26.4358V20.696ZM60.8085 27.7694L59.0809 22.0631H59.7808L61.1361 26.7701H61.1845L62.5359 22.0631H63.2396L64.5799 26.7589H64.6321L65.9872 22.0631H66.6872L64.9597 27.7694H64.2746L62.9195 23.0922H62.8487L61.4935 27.7694H60.8085ZM69.5726 27.8994C69.2275 27.8994 68.9123 27.8325 68.6269 27.6988C68.3415 27.5626 68.1144 27.367 67.9456 27.1118C67.7768 26.8543 67.6924 26.5422 67.6924 26.1757C67.6924 25.8933 67.7458 25.6556 67.8525 25.4624C67.9592 25.2692 68.1106 25.1107 68.3068 24.9868C68.5028 24.863 68.7349 24.7652 69.0029 24.6934C69.2711 24.6215 69.5664 24.5658 69.889 24.5262C70.2092 24.4866 70.4798 24.4519 70.7007 24.4222C70.9241 24.3924 71.0941 24.3454 71.2107 24.281C71.3274 24.2166 71.3857 24.1126 71.3857 23.9689V23.8352C71.3857 23.4464 71.2691 23.1405 71.0357 22.9176C70.8049 22.6922 70.4724 22.5795 70.038 22.5795C69.6259 22.5795 69.2897 22.6699 69.029 22.8508C68.7709 23.0315 68.5897 23.2445 68.4854 23.4897L67.8562 23.2631C67.9853 22.951 68.164 22.7021 68.3924 22.5163C68.6207 22.3281 68.8764 22.1932 69.1593 22.1114C69.4423 22.0273 69.729 21.9852 70.0194 21.9852C70.2378 21.9852 70.4649 22.0136 70.7007 22.0706C70.9389 22.1275 71.1599 22.2266 71.3634 22.3678C71.5669 22.5065 71.732 22.7009 71.8586 22.951C71.9852 23.1987 72.0484 23.5132 72.0484 23.8946V27.7694H71.3857V26.8667H71.3447C71.2653 27.0351 71.1475 27.1986 70.9911 27.3571C70.8347 27.5156 70.6386 27.6456 70.4028 27.7471C70.167 27.8487 69.8903 27.8994 69.5726 27.8994ZM69.6619 27.2939C70.0144 27.2939 70.3196 27.2159 70.5778 27.0599C70.8359 26.9038 71.0345 26.697 71.1735 26.4394C71.315 26.1794 71.3857 25.8933 71.3857 25.5813V24.7565C71.3361 24.8036 71.2529 24.8457 71.1363 24.8828C71.0221 24.92 70.8893 24.9534 70.7379 24.9832C70.589 25.0104 70.44 25.0339 70.2912 25.0537C70.1422 25.0736 70.0082 25.0909 69.889 25.1057C69.5664 25.1454 69.2909 25.2073 69.0625 25.2915C68.8342 25.3757 68.6592 25.4921 68.5376 25.6407C68.416 25.7869 68.3552 25.9751 68.3552 26.2054C68.3552 26.5521 68.4792 26.8208 68.7275 27.0116C68.9757 27.1998 69.2871 27.2939 69.6619 27.2939ZM73.8113 27.7694V22.0631H74.4554V22.9399H74.5038C74.618 22.6526 74.8166 22.421 75.0995 22.2452C75.3849 22.0668 75.7076 21.9777 76.0675 21.9777C76.1221 21.9777 76.1829 21.979 76.25 21.9814C76.317 21.9838 76.3728 21.9864 76.4174 21.9888V22.6612C76.3877 22.6563 76.3356 22.6488 76.2611 22.639C76.1866 22.6291 76.106 22.6241 76.0191 22.6241C75.7213 22.6241 75.4557 22.6873 75.2223 22.8135C74.9915 22.9374 74.8091 23.1095 74.6751 23.33C74.541 23.5504 74.474 23.8018 74.474 24.0841V27.7694H73.8113ZM79.6863 27.8883C79.1527 27.8883 78.691 27.7645 78.3014 27.5168C77.9117 27.2667 77.6101 26.9212 77.3967 26.4803C77.1857 26.037 77.0802 25.5268 77.0802 24.9497C77.0802 24.3751 77.1857 23.8649 77.3967 23.4191C77.6101 22.9708 77.9042 22.6203 78.279 22.3678C78.6563 22.1127 79.0919 21.9852 79.5859 21.9852C79.8961 21.9852 80.1952 22.0421 80.4831 22.156C80.771 22.2674 81.0292 22.4396 81.2575 22.6724C81.4883 22.9027 81.6707 23.1937 81.8048 23.5454C81.9388 23.8946 82.0059 24.3082 82.0059 24.7862V25.1132H77.5381V24.5299H81.3282C81.3282 24.1633 81.2538 23.834 81.1048 23.5417C80.9584 23.247 80.7536 23.0142 80.4906 22.8433C80.2299 22.6724 79.9283 22.587 79.5859 22.587C79.2235 22.587 78.9045 22.6835 78.629 22.8767C78.3535 23.0699 78.1376 23.325 77.9812 23.642C77.8273 23.9591 77.7491 24.3058 77.7467 24.6822V25.0315C77.7467 25.4847 77.8248 25.8809 77.9812 26.2202C78.14 26.5571 78.3646 26.8184 78.655 27.0042C78.9454 27.1899 79.2892 27.2828 79.6863 27.2828C79.9569 27.2828 80.1939 27.2407 80.3974 27.1565C80.6034 27.0722 80.776 26.9595 80.915 26.8184C81.0564 26.6747 81.1632 26.5174 81.2351 26.3466L81.8643 26.5509C81.7775 26.7911 81.6347 27.0128 81.4362 27.2159C81.2401 27.419 80.9944 27.5824 80.699 27.7063C80.4062 27.8277 80.0686 27.8883 79.6863 27.8883Z" fill="black"/>
<path d="M30.9786 2.64209H16.3281C16.3281 4.3923 17.0249 6.07081 18.2652 7.30839C19.5055 8.54599 21.1876 9.24125 22.9416 9.24125H25.6404V11.8413C25.6427 15.4826 28.6003 18.434 32.2495 18.4363V3.91027C32.2495 3.21007 31.6807 2.64209 30.9786 2.64209Z" fill="#2684FF"/>
<path d="M23.7285 9.92627H9.07812C9.0804 13.5675 12.038 16.5189 15.6873 16.5212H18.3861V19.1296C18.3907 22.7709 21.3503 25.7202 24.9995 25.7202V11.1946C24.9995 10.4942 24.4304 9.92627 23.7285 9.92627Z" fill="url(#paint0_linear_6668_10732)"/>
<path d="M16.4786 17.2061H1.82812C1.82812 20.8507 4.78917 23.8052 8.44157 23.8052H11.1489V26.4051C11.1512 30.0431 14.1036 32.9931 17.7496 33V18.4743C17.7496 17.7739 17.1805 17.2061 16.4786 17.2061Z" fill="url(#paint1_linear_6668_10732)"/>
<defs>
<linearGradient id="paint0_linear_6668_10732" x1="3994.15" y1="17.1976" x2="2417.62" y2="1863.6" gradientUnits="userSpaceOnUse">
<stop offset="0.18" stop-color="#0052CC"/>
<stop offset="1" stop-color="#2684FF"/>
</linearGradient>
<linearGradient id="paint1_linear_6668_10732" x1="4094.01" y1="37.7556" x2="2270.13" y2="2051.86" gradientUnits="userSpaceOnUse">
<stop offset="0.18" stop-color="#0052CC"/>
<stop offset="1" stop-color="#2684FF"/>
</linearGradient>
</defs>
</svg>
