<svg width="95" height="39" viewBox="0 0 95 39" fill="none" xmlns="http://www.w3.org/2000/svg">
<path d="M49.0213 6.81818H50.8509V13.9773C50.8475 14.6335 50.7083 15.1986 50.4332 15.6726C50.1581 16.1432 49.7737 16.5062 49.2798 16.7614C48.7893 17.0133 48.2176 17.1392 47.5646 17.1392C46.968 17.1392 46.4311 17.0331 45.9538 16.821C45.4799 16.6056 45.1037 16.2874 44.8253 15.8665C44.5469 15.4455 44.4077 14.9219 44.4077 14.2955H46.2422C46.2455 14.5705 46.3052 14.8075 46.4212 15.0064C46.5405 15.2053 46.7045 15.3577 46.9134 15.4638C47.1222 15.5698 47.3625 15.6229 47.6342 15.6229C47.9292 15.6229 48.1795 15.5616 48.3849 15.4389C48.5904 15.313 48.7462 15.1274 48.8523 14.8821C48.9616 14.6368 49.018 14.3352 49.0213 13.9773V6.81818ZM54.6964 6.81818V17H52.8519V6.81818H54.6964ZM56.6937 17V6.81818H60.5119C61.2941 6.81818 61.9503 6.95407 62.4806 7.22585C63.0143 7.49763 63.417 7.87879 63.6887 8.36932C63.9638 8.85653 64.1014 9.42495 64.1014 10.0746C64.1014 10.7275 63.9622 11.2943 63.6838 11.7749C63.4087 12.2521 63.0027 12.6217 62.4657 12.8835C61.9288 13.142 61.2692 13.2713 60.487 13.2713H57.7676V11.7401H60.2385C60.6958 11.7401 61.0704 11.6771 61.362 11.5511C61.6537 11.4219 61.8691 11.2346 62.0083 10.9893C62.1509 10.7408 62.2221 10.4358 62.2221 10.0746C62.2221 9.7133 62.1509 9.40507 62.0083 9.14986C61.8658 8.89134 61.6487 8.69579 61.3571 8.56321C61.0654 8.42732 60.6892 8.35938 60.2285 8.35938H58.5382V17H56.6937ZM61.9537 12.3864L64.4743 17H62.416L59.9402 12.3864H61.9537ZM67.1067 17H65.138L68.7225 6.81818H70.9995L74.589 17H72.6202L69.9007 8.90625H69.8212L67.1067 17ZM67.1713 13.0078H72.5407V14.4893H67.1713V13.0078Z" fill="black"/>
<path d="M49.8977 26.4545C49.8494 25.9687 49.6349 25.5824 49.2543 25.2955C48.8736 25.0085 48.3949 24.8651 47.8182 24.8651C47.4119 24.8651 47.054 24.9347 46.7443 25.0739C46.4375 25.2131 46.196 25.4062 46.0199 25.6534C45.8466 25.8977 45.7599 26.1761 45.7599 26.4886C45.7599 26.7188 45.8097 26.9205 45.9091 27.0938C46.0085 27.267 46.142 27.4162 46.3097 27.5412C46.4801 27.6634 46.6676 27.7685 46.8722 27.8565C47.0795 27.9446 47.2884 28.0185 47.4986 28.0781L48.419 28.3423C48.6974 28.419 48.9759 28.517 49.2543 28.6364C49.5327 28.7557 49.7869 28.9062 50.017 29.0881C50.25 29.267 50.4361 29.4872 50.5753 29.7486C50.7173 30.0071 50.7884 30.3182 50.7884 30.6818C50.7884 31.1477 50.6676 31.5668 50.4261 31.9389C50.1847 32.3111 49.8381 32.6065 49.3864 32.8253C48.9347 33.0412 48.3935 33.1491 47.7628 33.1491C47.169 33.1491 46.6534 33.0511 46.2159 32.8551C45.7784 32.6562 45.4347 32.3821 45.1847 32.0327C44.9347 31.6832 44.794 31.2784 44.7628 30.8182H45.581C45.6094 31.1619 45.723 31.4531 45.9219 31.6918C46.1207 31.9304 46.3793 32.1122 46.6974 32.2372C47.0156 32.3594 47.3707 32.4205 47.7628 32.4205C48.1974 32.4205 48.5838 32.348 48.9219 32.2031C49.2628 32.0554 49.5298 31.8509 49.723 31.5895C49.919 31.3253 50.017 31.0185 50.017 30.669C50.017 30.3736 49.9403 30.1264 49.7869 29.9276C49.6335 29.7259 49.419 29.5568 49.1435 29.4205C48.8707 29.2841 48.554 29.1634 48.1932 29.0582L47.1491 28.7514C46.4645 28.5469 45.9332 28.2642 45.5554 27.9034C45.1776 27.5426 44.9886 27.0824 44.9886 26.5227C44.9886 26.054 45.1136 25.642 45.3636 25.2869C45.6165 24.929 45.9574 24.6506 46.3864 24.4517C46.8182 24.25 47.3026 24.1491 47.8395 24.1491C48.3821 24.1491 48.8622 24.2486 49.2798 24.4474C49.6974 24.6463 50.0284 24.9205 50.2727 25.2699C50.5199 25.6165 50.652 26.0114 50.669 26.4545H49.8977ZM55.0923 33.1364C54.527 33.1364 54.027 32.9929 53.5923 32.706C53.1605 32.419 52.8224 32.0227 52.5781 31.517C52.3338 31.0085 52.2116 30.4219 52.2116 29.7571C52.2116 29.0866 52.3338 28.4972 52.5781 27.9886C52.8224 27.4773 53.1605 27.0795 53.5923 26.7955C54.027 26.5085 54.527 26.3651 55.0923 26.3651C55.6577 26.3651 56.1562 26.5085 56.5881 26.7955C57.0199 27.0824 57.358 27.4801 57.6023 27.9886C57.8494 28.4972 57.973 29.0866 57.973 29.7571C57.973 30.4219 57.8509 31.0085 57.6065 31.517C57.3622 32.0227 57.0227 32.419 56.5881 32.706C56.1562 32.9929 55.6577 33.1364 55.0923 33.1364ZM55.0923 32.4418C55.5469 32.4418 55.9318 32.3196 56.2472 32.0753C56.5625 31.831 56.8011 31.5057 56.9631 31.0994C57.1278 30.6932 57.2102 30.2457 57.2102 29.7571C57.2102 29.2685 57.1278 28.8196 56.9631 28.4105C56.8011 28.0014 56.5625 27.6733 56.2472 27.4261C55.9318 27.179 55.5469 27.0554 55.0923 27.0554C54.6406 27.0554 54.2557 27.179 53.9375 27.4261C53.6222 27.6733 53.3821 28.0014 53.2173 28.4105C53.0554 28.8196 52.9744 29.2685 52.9744 29.7571C52.9744 30.2457 53.0554 30.6932 53.2173 31.0994C53.3821 31.5057 53.6222 31.831 53.9375 32.0753C54.2528 32.3196 54.6378 32.4418 55.0923 32.4418ZM62.3313 26.4545V27.1151H59.114V26.4545H62.3313ZM60.1197 33V25.4957C60.1197 25.1435 60.2006 24.8466 60.3626 24.6051C60.5273 24.3636 60.7418 24.1804 61.006 24.0554C61.2702 23.9304 61.5501 23.8679 61.8455 23.8679C62.0444 23.8679 62.2092 23.8849 62.3398 23.919C62.4734 23.9503 62.5785 23.9815 62.6552 24.0128L62.4336 24.6776C62.3768 24.6605 62.3072 24.6406 62.2248 24.6179C62.1424 24.5952 62.0387 24.5838 61.9137 24.5838C61.5842 24.5838 61.3299 24.6761 61.1509 24.8608C60.9719 25.0455 60.8825 25.3097 60.8825 25.6534L60.8782 33H60.1197ZM66.4233 26.4545V27.1151H63.2997V26.4545H66.4233ZM64.2756 24.8864H65.0384V31.2912C65.0384 31.5639 65.0852 31.7784 65.179 31.9347C65.2727 32.0881 65.3949 32.1974 65.5455 32.2628C65.696 32.3253 65.8565 32.3565 66.027 32.3565C66.1264 32.3565 66.2116 32.3509 66.2827 32.3395C66.3537 32.3253 66.4162 32.3111 66.4702 32.2969L66.6321 32.983C66.5582 33.0114 66.4673 33.0369 66.3594 33.0597C66.2514 33.0852 66.1179 33.098 65.9588 33.098C65.6804 33.098 65.4119 33.0369 65.1534 32.9148C64.8977 32.7926 64.6875 32.6108 64.5227 32.3693C64.358 32.1278 64.2756 31.8281 64.2756 31.4702V24.8864ZM69.5991 33L67.6218 26.4545H68.4229L69.9741 31.8537H70.0295L71.5763 26.4545H72.3817L73.9158 31.8409H73.9755L75.5266 26.4545H76.3278L74.3505 33H73.5664L72.0153 27.6349H71.9343L70.3832 33H69.5991ZM79.6303 33.1491C79.2354 33.1491 78.8746 33.0724 78.5479 32.919C78.2212 32.7628 77.9613 32.5384 77.7681 32.2457C77.5749 31.9503 77.4783 31.5923 77.4783 31.1719C77.4783 30.848 77.5394 30.5753 77.6616 30.3537C77.7837 30.1321 77.957 29.9503 78.1815 29.8082C78.4059 29.6662 78.6715 29.554 78.9783 29.4716C79.2852 29.3892 79.6232 29.3253 79.9925 29.2798C80.359 29.2344 80.6687 29.1946 80.9215 29.1605C81.1772 29.1264 81.3718 29.0724 81.5053 28.9986C81.6388 28.9247 81.7056 28.8054 81.7056 28.6406V28.4872C81.7056 28.0412 81.5721 27.6903 81.305 27.4347C81.0408 27.1761 80.6602 27.0469 80.163 27.0469C79.6914 27.0469 79.3065 27.1506 79.0082 27.358C78.7127 27.5653 78.5053 27.8097 78.386 28.0909L77.6658 27.831C77.8136 27.473 78.0181 27.1875 78.2795 26.9744C78.5408 26.7585 78.8335 26.6037 79.1573 26.5099C79.4812 26.4134 79.8093 26.3651 80.1417 26.3651C80.3917 26.3651 80.6516 26.3977 80.9215 26.4631C81.1942 26.5284 81.4471 26.642 81.68 26.804C81.913 26.9631 82.1019 27.1861 82.2468 27.473C82.3917 27.7571 82.4641 28.1179 82.4641 28.5554V33H81.7056V31.9645H81.6587C81.5678 32.1577 81.4329 32.3452 81.2539 32.527C81.0749 32.7088 80.8505 32.858 80.5806 32.9744C80.3107 33.0909 79.994 33.1491 79.6303 33.1491ZM79.7326 32.4545C80.136 32.4545 80.4854 32.3651 80.7809 32.1861C81.0763 32.0071 81.3036 31.7699 81.4627 31.4744C81.6246 31.1761 81.7056 30.848 81.7056 30.4901V29.544C81.6488 29.598 81.5536 29.6463 81.4201 29.6889C81.2894 29.7315 81.1374 29.7699 80.9641 29.804C80.7937 29.8352 80.6232 29.8622 80.4528 29.8849C80.2823 29.9077 80.1289 29.9276 79.9925 29.9446C79.6232 29.9901 79.3079 30.0611 79.0465 30.1577C78.7852 30.2543 78.5849 30.3878 78.4457 30.5582C78.3065 30.7259 78.2369 30.9418 78.2369 31.206C78.2369 31.6037 78.3789 31.9119 78.663 32.1307C78.9471 32.3466 79.3036 32.4545 79.7326 32.4545ZM84.4819 33V26.4545H85.2191V27.4602H85.2745C85.4052 27.1307 85.6325 26.8651 85.9563 26.6634C86.283 26.4588 86.6523 26.3565 87.0643 26.3565C87.1268 26.3565 87.1964 26.358 87.2731 26.3608C87.3498 26.3636 87.4137 26.3665 87.4648 26.3693V27.1406C87.4308 27.1349 87.3711 27.1264 87.2859 27.1151C87.2006 27.1037 87.1083 27.098 87.0089 27.098C86.668 27.098 86.364 27.1705 86.0969 27.3153C85.8327 27.4574 85.6239 27.6548 85.4705 27.9077C85.3171 28.1605 85.2404 28.4489 85.2404 28.7727V33H84.4819ZM91.2063 33.1364C90.5955 33.1364 90.0671 32.9943 89.6211 32.7102C89.1751 32.4233 88.8299 32.027 88.5856 31.5213C88.3441 31.0128 88.2234 30.4276 88.2234 29.7656C88.2234 29.1065 88.3441 28.5213 88.5856 28.0099C88.8299 27.4957 89.1665 27.0937 89.5955 26.804C90.0273 26.5114 90.5259 26.3651 91.0913 26.3651C91.4464 26.3651 91.7887 26.4304 92.1183 26.5611C92.4478 26.6889 92.7433 26.8864 93.0046 27.1534C93.2688 27.4176 93.4776 27.7514 93.631 28.1548C93.7844 28.5554 93.8612 29.0298 93.8612 29.5781V29.9531H88.7475V29.2841H93.0856C93.0856 28.8636 93.0004 28.4858 92.8299 28.1506C92.6623 27.8125 92.4279 27.5455 92.1268 27.3494C91.8285 27.1534 91.4833 27.0554 91.0913 27.0554C90.6765 27.0554 90.3114 27.1662 89.9961 27.3878C89.6808 27.6094 89.4336 27.902 89.2546 28.2656C89.0785 28.6293 88.989 29.027 88.9862 29.4588V29.8594C88.9862 30.3793 89.0756 30.8338 89.2546 31.223C89.4364 31.6094 89.6935 31.9091 90.0259 32.1222C90.3583 32.3352 90.7518 32.4418 91.2063 32.4418C91.516 32.4418 91.7873 32.3935 92.0202 32.2969C92.256 32.2003 92.4535 32.071 92.6126 31.9091C92.7745 31.7443 92.8967 31.5639 92.979 31.3679L93.6992 31.6023C93.5998 31.8778 93.4364 32.1321 93.2092 32.3651C92.9847 32.598 92.7035 32.7855 92.3654 32.9276C92.0302 33.0668 91.6438 33.1364 91.2063 33.1364Z" fill="black"/>
<path d="M35.4564 4.17778H18.6878C18.6878 6.18537 19.4853 8.11072 20.9049 9.5303C22.3245 10.9499 24.2499 11.7474 26.2574 11.7474H29.3464V14.7298C29.3491 18.9066 32.7343 22.292 36.9111 22.2947V5.63246C36.9111 4.82929 36.26 4.17778 35.4564 4.17778Z" fill="#2684FF"/>
<path d="M27.1594 12.533H10.3909C10.3935 16.7097 13.7787 20.0951 17.9556 20.0978H21.0446V23.0898C21.0499 27.2666 24.4374 30.6496 28.6142 30.6496V13.9879C28.6142 13.1845 27.9628 12.533 27.1594 12.533Z" fill="url(#paint0_linear_12_5308)"/>
<path d="M18.8575 20.8834H2.0889C2.0889 25.064 5.47805 28.453 9.65851 28.453H12.7572V31.4353C12.7599 35.6083 16.1392 38.9921 20.3123 39V22.3382C20.3123 21.5348 19.6609 20.8834 18.8575 20.8834Z" fill="url(#paint1_linear_12_5308)"/>
<defs>
<linearGradient id="paint0_linear_12_5308" x1="4571.62" y1="20.8738" x2="2762.63" y2="2134.94" gradientUnits="userSpaceOnUse">
<stop offset="0.18" stop-color="#0052CC"/>
<stop offset="1" stop-color="#2684FF"/>
</linearGradient>
<linearGradient id="paint1_linear_12_5308" x1="4685.91" y1="44.455" x2="2593.37" y2="2350.24" gradientUnits="userSpaceOnUse">
<stop offset="0.18" stop-color="#0052CC"/>
<stop offset="1" stop-color="#2684FF"/>
</linearGradient>
</defs>
</svg>
