<svg width="125" height="24" viewBox="0 0 125 24" fill="none" xmlns="http://www.w3.org/2000/svg">
<path d="M95.5752 0.488098L93.4492 0.729096C93.4165 0.728691 93.3841 0.734648 93.3537 0.746616C93.3234 0.758584 93.2959 0.776321 93.2728 0.798781C93.2496 0.821241 93.2313 0.847969 93.219 0.877391C93.2067 0.906813 93.2005 0.938333 93.201 0.970094V3.45538C93.2005 3.48714 93.2067 3.51866 93.219 3.54808C93.2313 3.57751 93.2496 3.60424 93.2728 3.62669C93.2959 3.64915 93.3234 3.66689 93.3537 3.67886C93.3841 3.69083 93.4165 3.69678 93.4492 3.69638L95.5752 3.45538C95.6079 3.45579 95.6404 3.44983 95.6707 3.43786C95.701 3.42589 95.7285 3.40816 95.7517 3.3857C95.7748 3.36324 95.7931 3.33651 95.8054 3.30709C95.8177 3.27767 95.8239 3.24615 95.8235 3.21438V0.744158C95.8235 0.608597 95.7148 0.488098 95.5752 0.488098Z" fill="#252C42"/>
<path d="M77.4194 13.1857C77.4194 14.7973 76.5504 15.5655 74.7814 15.5655C73.0123 15.5655 72.1433 14.7823 72.1433 13.1857V9.5707C72.1433 7.95903 73.0123 7.19085 74.7814 7.19085C76.5504 7.19085 77.4194 7.97409 77.4194 9.5707V13.1857ZM74.7814 4.90137C71.4295 4.90137 69.5053 6.63354 69.5053 9.64601V13.1104C69.5053 16.1228 71.4295 17.855 74.7814 17.855C78.1332 17.855 80.0574 16.1228 80.0574 13.1104V9.64601C80.0574 6.63354 78.1332 4.90137 74.7814 4.90137Z" fill="#252C42"/>
<path d="M88.6077 4.90135C87.149 4.90135 85.1783 5.48878 83.8282 6.07622L83.6886 5.35322C83.673 5.23272 83.5644 5.15741 83.4403 5.15741L81.7178 5.39841C81.6851 5.398 81.6526 5.40396 81.6223 5.41593C81.592 5.4279 81.5644 5.44563 81.5413 5.46809C81.5182 5.49055 81.4999 5.51728 81.4876 5.5467C81.4752 5.57613 81.4691 5.60765 81.4695 5.63941V17.373C81.4691 17.4047 81.4752 17.4363 81.4876 17.4657C81.4999 17.4951 81.5182 17.5218 81.5413 17.5443C81.5644 17.5668 81.592 17.5845 81.6223 17.5965C81.6526 17.6084 81.6851 17.6144 81.7178 17.614H83.8437C83.8765 17.6144 83.9089 17.6084 83.9392 17.5965C83.9695 17.5845 83.9971 17.5668 84.0202 17.5443C84.0434 17.5218 84.0616 17.4951 84.074 17.4657C84.0863 17.4363 84.0924 17.4047 84.092 17.373V8.47113C85.3334 7.86864 87.1025 7.35652 87.9715 7.35652C88.6542 7.35652 88.9025 7.59751 88.9025 8.21507V17.373C88.9021 17.4047 88.9083 17.4363 88.9206 17.4657C88.9329 17.4951 88.9512 17.5218 88.9743 17.5443C88.9975 17.5668 89.025 17.5845 89.0553 17.5965C89.0856 17.6084 89.1181 17.6144 89.1508 17.614H91.2767C91.3095 17.6144 91.3419 17.6084 91.3723 17.5965C91.4026 17.5845 91.4301 17.5668 91.4532 17.5443C91.4764 17.5218 91.4947 17.4951 91.507 17.4657C91.5193 17.4363 91.5255 17.4047 91.525 17.373V8.20001C91.5406 6.0009 90.5474 4.90135 88.6077 4.90135ZM124.174 5.14235C122.747 5.2026 121.428 5.50385 120.155 6.06115L120.016 5.33816C120 5.21766 119.892 5.14235 119.767 5.14235L118.045 5.38335C118.012 5.38294 117.98 5.3889 117.949 5.40087C117.919 5.41284 117.892 5.43057 117.868 5.45303C117.845 5.47549 117.827 5.50222 117.815 5.53164C117.802 5.56106 117.796 5.59258 117.797 5.62434V17.3579C117.796 17.3897 117.802 17.4212 117.815 17.4506C117.827 17.48 117.845 17.5068 117.868 17.5292C117.892 17.5517 117.919 17.5694 117.949 17.5814C117.98 17.5934 118.012 17.5993 118.045 17.5989H120.171C120.204 17.5993 120.236 17.5934 120.266 17.5814C120.297 17.5694 120.324 17.5517 120.347 17.5292C120.37 17.5068 120.389 17.48 120.401 17.4506C120.413 17.4212 120.42 17.3897 120.419 17.3579V8.47113C121.552 7.92889 123.166 7.58245 124.174 7.49208C124.314 7.47701 124.423 7.37158 124.423 7.23602V5.38335C124.423 5.35159 124.417 5.32007 124.405 5.29064C124.392 5.26122 124.374 5.23449 124.351 5.21203C124.328 5.18957 124.3 5.17184 124.27 5.15987C124.24 5.1479 124.207 5.14194 124.174 5.14235ZM95.5752 4.90135L93.4492 5.14235C93.4165 5.14194 93.3841 5.1479 93.3537 5.15987C93.3234 5.17184 93.2959 5.18957 93.2728 5.21203C93.2496 5.23449 93.2313 5.26122 93.219 5.29064C93.2067 5.32007 93.2005 5.35159 93.201 5.38335V17.373C93.2005 17.4047 93.2067 17.4363 93.219 17.4657C93.2313 17.4951 93.2496 17.5218 93.2728 17.5443C93.2959 17.5668 93.3234 17.5845 93.3537 17.5965C93.3841 17.6084 93.4165 17.6144 93.4492 17.614H95.5752C95.6079 17.6144 95.6404 17.6084 95.6707 17.5965C95.701 17.5845 95.7285 17.5668 95.7517 17.5443C95.7748 17.5218 95.7931 17.4951 95.8054 17.4657C95.8177 17.4363 95.8239 17.4047 95.8235 17.373V5.14235C95.8239 5.11059 95.8177 5.07907 95.8054 5.04965C95.7931 5.02022 95.7748 4.9935 95.7517 4.97104C95.7285 4.94858 95.701 4.93084 95.6707 4.91887C95.6404 4.9069 95.6079 4.90095 95.5752 4.90135ZM104.917 15.3697C104.855 15.3245 104.777 15.3245 104.715 15.3396C103.908 15.5354 103.334 15.6257 102.806 15.6257C101.875 15.6257 101.798 15.3546 101.798 14.5413V7.35652H104.87C104.994 7.35652 105.103 7.26614 105.119 7.13058L105.289 5.41347C105.289 5.33816 105.274 5.27791 105.227 5.21766C105.181 5.17247 105.103 5.14235 105.041 5.14235H101.798V2.14494C101.798 2.06963 101.767 2.00938 101.705 1.96419C101.643 1.919 101.581 1.88888 101.503 1.90394L99.377 2.20519C99.2529 2.22025 99.1598 2.32569 99.1598 2.44619V5.15741H97.2356C97.2029 5.15701 97.1704 5.16296 97.1401 5.17493C97.1098 5.1869 97.0822 5.20464 97.0591 5.2271C97.036 5.24956 97.0177 5.27628 97.0053 5.30571C96.993 5.33513 96.9869 5.36665 96.9873 5.39841V7.11552C96.9869 7.14728 96.993 7.1788 97.0053 7.20822C97.0177 7.23764 97.036 7.26437 97.0591 7.28683C97.0822 7.30929 97.1098 7.32703 97.1401 7.33899C97.1704 7.35096 97.2029 7.35692 97.2356 7.35652H99.1598V14.8877C99.1598 16.9512 100.184 17.87 102.481 17.87C103.381 17.87 104.327 17.7044 105.15 17.4182C105.258 17.373 105.336 17.2675 105.32 17.147L105.041 15.5504C105.01 15.4601 104.979 15.4149 104.917 15.3697Z" fill="#252C42"/>
<path d="M113.669 13.1857C113.669 14.7973 112.8 15.5655 111.031 15.5655C109.262 15.5655 108.393 14.7823 108.393 13.1857V9.5707C108.393 7.95903 109.262 7.19085 111.031 7.19085C112.8 7.19085 113.669 7.97409 113.669 9.5707V13.1857ZM111.031 4.90137C107.679 4.90137 105.755 6.63354 105.755 9.64601V13.1104C105.755 16.1228 107.679 17.855 111.031 17.855C114.383 17.855 116.307 16.1228 116.307 13.1104V9.64601C116.307 6.63354 114.383 4.90137 111.031 4.90137Z" fill="#252C42"/>
<path d="M60.1481 19.8884L63.112 9.87193C63.143 9.73637 63.2051 9.73637 63.2516 9.87193L65.4396 17.3579C65.4707 17.4935 65.6259 17.5989 65.7655 17.5989H69.1329C69.1656 17.5993 69.1981 17.5934 69.2284 17.5814C69.2587 17.5694 69.2862 17.5517 69.3094 17.5292C69.3325 17.5068 69.3508 17.48 69.3631 17.4506C69.3754 17.4212 69.3816 17.3897 69.3812 17.3579L68.8691 15.3848C68.8695 15.353 68.8634 15.3215 68.851 15.2921C68.8387 15.2626 68.8204 15.2359 68.7973 15.2134C68.7741 15.191 68.7466 15.1732 68.7163 15.1613C68.686 15.1493 68.6535 15.1434 68.6208 15.1438H67.6742C67.5345 15.1438 67.3949 15.0383 67.3483 14.9028L64.4465 5.00679C64.4155 4.87123 64.2603 4.76579 64.1206 4.76579L62.1809 5.02185C62.0413 5.02185 61.9016 5.12729 61.855 5.26285L58.9842 15.0383C58.9532 15.1739 58.8911 15.1739 58.8601 15.0383L55.0893 0.367585C55.0582 0.232023 54.9186 0.126587 54.7789 0.126587L52.8237 0.382647C52.684 0.382647 52.5444 0.488083 52.5133 0.623645L48.8046 14.8877C48.7735 15.0233 48.5563 15.1287 48.4166 15.1287H47.6252C47.5925 15.1283 47.56 15.1342 47.5297 15.1462C47.4994 15.1582 47.4719 15.1759 47.4487 15.1984C47.4256 15.2208 47.4073 15.2476 47.395 15.277C47.3827 15.3064 47.3765 15.3379 47.3769 15.3697L46.8649 17.3429C46.8644 17.3746 46.8706 17.4061 46.8829 17.4356C46.8952 17.465 46.9135 17.4917 46.9367 17.5142C46.9598 17.5366 46.9873 17.5544 47.0176 17.5663C47.048 17.5783 47.0804 17.5843 47.1131 17.5839H50.465C50.6046 17.5839 50.7443 17.4784 50.7753 17.3429L53.7237 5.92559C53.7548 5.79003 53.8168 5.79003 53.8479 5.92559L57.5566 20.0993C57.5876 20.2348 57.7273 20.3403 57.867 20.3403L59.8067 20.1143C59.9619 20.1294 60.117 20.024 60.1481 19.8884Z" fill="#252C42"/>
<path d="M36.7162 0.488098L34.5903 0.729101C34.5576 0.728696 34.5251 0.734653 34.4948 0.746621C34.4645 0.75859 34.4369 0.776326 34.4138 0.798786C34.3906 0.821247 34.3724 0.847977 34.36 0.877399C34.3477 0.906821 34.3416 0.938342 34.342 0.970103V3.45539C34.3416 3.48715 34.3477 3.51867 34.36 3.54809C34.3724 3.57752 34.3906 3.60425 34.4138 3.62671C34.4369 3.64917 34.4645 3.6669 34.4948 3.67887C34.5251 3.69084 34.5576 3.6968 34.5903 3.69639L36.7162 3.45539C36.7489 3.4558 36.7814 3.44984 36.8117 3.43787C36.842 3.4259 36.8696 3.40816 36.8927 3.3857C36.9158 3.36324 36.9341 3.33652 36.9465 3.30709C36.9588 3.27767 36.9649 3.24615 36.9645 3.21439V0.744168C36.9645 0.608607 36.8559 0.488098 36.7162 0.488098ZM3.46161 0.744168L1.28912 0.985156C1.13394 0.985156 1.02532 1.09056 1.02532 1.22616V16.635C1.02511 16.7636 1.05106 16.891 1.10168 17.0099C1.1523 17.1287 1.22659 17.2367 1.32029 17.3277C1.41399 17.4186 1.52527 17.4907 1.64773 17.5399C1.7702 17.589 1.90145 17.6142 2.03397 17.614H10.0256C10.0584 17.6144 10.0908 17.6085 10.1211 17.5965C10.1514 17.5845 10.179 17.5668 10.2021 17.5443C10.2253 17.5219 10.2435 17.4951 10.2559 17.4657C10.2682 17.4363 10.2743 17.4048 10.2739 17.373V15.4752C10.2743 15.4434 10.2682 15.4119 10.2559 15.3824C10.2435 15.353 10.2253 15.3263 10.2021 15.3038C10.179 15.2814 10.1514 15.2636 10.1211 15.2517C10.0908 15.2397 10.0584 15.2337 10.0256 15.2342H4.22198C4.08654 15.233 3.95699 15.1802 3.86122 15.0873C3.76545 14.9943 3.71111 14.8686 3.70989 14.7371V0.985156C3.71031 0.953397 3.70417 0.921877 3.69184 0.892456C3.67951 0.863035 3.66123 0.836309 3.6381 0.81385C3.61496 0.791391 3.58742 0.773654 3.55711 0.761687C3.5268 0.74972 3.49433 0.743764 3.46161 0.744168ZM16.0155 4.90137C12.6637 4.90137 10.7394 6.63355 10.7394 9.64602V13.1104C10.7394 16.1228 12.6637 17.855 16.0155 17.855C19.3673 17.855 21.2915 16.1228 21.2915 13.1104V9.64602C21.276 6.63355 19.3518 4.90137 16.0155 4.90137ZM16.0155 15.5806C14.2465 15.5806 13.3775 14.7973 13.3775 13.2007V9.58577C13.3775 7.97409 14.2465 7.20592 16.0155 7.20592C17.7845 7.20592 18.6535 7.98916 18.6535 9.58577V13.2007C18.638 14.7973 17.7845 15.5806 16.0155 15.5806ZM27.359 4.90137C23.9451 4.90137 22.2847 6.3323 22.2847 9.2544V9.79664C22.2847 11.3481 22.8123 12.5229 23.8365 13.2158C23.2002 13.7882 22.8433 14.5413 22.8433 15.3095C22.8433 16.3186 23.3088 17.5688 25.4813 17.7496L27.4987 17.9303L28.7556 18.0508C30.2298 18.1713 30.3539 18.337 30.3539 19.1052C30.3539 20.0842 30.3539 20.5361 27.1573 20.5361C25.9624 20.5361 24.3951 20.3554 23.0761 20.0541H23.014C22.9675 20.0541 22.9209 20.0692 22.8744 20.0993C22.8123 20.1293 22.7812 20.1897 22.7657 20.2649L22.4554 21.8917C22.4243 22.0122 22.5174 22.1327 22.6416 22.1779C24.0537 22.5544 26.04 22.7502 27.1883 22.7502C31.5798 22.7502 32.8368 21.9218 32.8368 19.0298C32.8368 17.0717 31.8436 16.1379 29.516 15.9119L27.6383 15.7312C27.1262 15.686 26.6607 15.6258 26.0245 15.5655C25.4813 15.5203 25.4503 15.3697 25.4503 15.1287C25.4503 14.7521 25.7762 14.4208 26.1641 14.1044C26.521 14.1496 26.9245 14.1647 27.359 14.1647C30.6488 14.1647 32.4488 12.6283 32.4488 9.82673V9.28449C32.4178 8.39585 32.2471 7.65779 31.9212 7.08542L33.023 6.87455C33.1471 6.85946 33.2247 6.75405 33.2247 6.63355V5.42856C33.2251 5.3968 33.219 5.36528 33.2067 5.33586C33.1943 5.30643 33.1761 5.2797 33.1529 5.25724C33.1298 5.23478 33.1022 5.21705 33.0719 5.20508C33.0416 5.19311 33.0091 5.18715 32.9764 5.18756H29.4694C28.8487 4.96162 27.9487 4.90137 27.359 4.90137ZM27.359 11.9355C25.4037 11.9355 24.7986 11.4384 24.7986 9.79664V9.28453C24.7986 7.64272 25.4503 7.10049 27.359 7.10049C29.2522 7.10049 29.9194 7.67285 29.9194 9.28453V9.79664C29.9194 11.2878 29.1591 11.9355 27.359 11.9355ZM36.7162 4.90138L34.5903 5.14238C34.5576 5.14197 34.5251 5.14793 34.4948 5.1599C34.4645 5.17187 34.4369 5.1896 34.4138 5.21206C34.3906 5.23452 34.3724 5.26125 34.36 5.29068C34.3477 5.3201 34.3416 5.35162 34.342 5.38338V17.373C34.3416 17.4048 34.3477 17.4363 34.36 17.4657C34.3724 17.4951 34.3906 17.5219 34.4138 17.5443C34.4369 17.5668 34.4645 17.5845 34.4948 17.5965C34.5251 17.6085 34.5576 17.6144 34.5903 17.614H36.7162C36.7489 17.6144 36.7814 17.6085 36.8117 17.5965C36.842 17.5845 36.8696 17.5668 36.8927 17.5443C36.9158 17.5219 36.9341 17.4951 36.9464 17.4657C36.9588 17.4363 36.9649 17.4048 36.9645 17.373V5.14237C36.9649 5.11061 36.9588 5.07909 36.9464 5.04967C36.9341 5.02025 36.9158 4.99352 36.8927 4.97106C36.8696 4.9486 36.842 4.93086 36.8117 4.91889C36.7814 4.90693 36.7489 4.90097 36.7162 4.90138ZM46.1665 15.1438H43.7302C41.7129 15.1438 41.1388 14.6618 41.1388 12.9447V9.43514C41.1388 7.71803 41.7129 7.22098 43.7302 7.22098C44.6458 7.22098 45.2665 7.31129 46.1355 7.4921C46.2131 7.50719 46.2752 7.4921 46.3372 7.44695C46.3993 7.40179 46.4303 7.34154 46.4459 7.2662L46.8804 5.53403C46.8959 5.41354 46.8183 5.30809 46.7097 5.27797C45.9959 5.05204 44.7234 4.90141 43.6837 4.90141C40.0525 4.90141 38.5008 6.28714 38.5008 9.51049V13.2761C38.5008 15.671 39.0904 17.614 43.6372 17.614L45.5303 17.5989C45.67 17.5989 45.8096 17.4483 45.8407 17.3128L46.3528 15.3396C46.3838 15.204 46.3062 15.1438 46.1665 15.1438Z" fill="#4275FA"/>
</svg>
