<svg width="117" height="30" viewBox="0 0 117 30" fill="none" xmlns="http://www.w3.org/2000/svg">
<g clip-path="url(#clip0_12_5315)">
<path d="M0.00082243 19.5227C0.249914 19.1093 0.62281 18.7815 1.06864 18.5839C1.51446 18.3863 2.01151 18.3286 2.49196 18.4186C4.76187 18.6609 7.05398 18.648 9.32142 18.3782C10.0665 18.2813 10.8207 18.2765 11.5667 18.3621L15.057 18.6448C15.4165 18.6693 15.7738 18.7187 16.1262 18.7926C16.2797 18.8143 16.4227 18.8818 16.5358 18.986C16.6489 19.0901 16.7267 19.2259 16.7587 19.3749C16.795 19.5382 16.773 19.7087 16.6963 19.8579C16.6196 20.0071 16.4929 20.1257 16.3376 20.1939C16.0289 20.3681 15.6817 20.4659 15.326 20.479L11.5757 20.3046C10.4933 20.2729 9.41001 20.3031 8.33122 20.395C6.83851 20.5404 5.33428 20.5501 3.84075 20.4225C3.01256 20.3514 2.17368 20.3967 1.34056 20.3821C1.08919 20.4157 0.833244 20.3841 0.598101 20.2906C0.362958 20.1971 0.156779 20.0449 0 19.849L0.00082243 19.5227ZM16.7258 4.97296L16.8491 7.76112C16.8696 8.36209 16.8503 8.96374 16.7916 9.56227C16.6106 10.8101 16.6106 12.0767 16.7916 13.3245C16.8697 13.8657 16.8524 14.4149 16.7422 14.9504C16.7295 15.1381 16.6784 15.3213 16.5919 15.4891C16.5054 15.6569 16.3853 15.8059 16.2388 15.927C16.0922 16.0481 15.9223 16.1389 15.7392 16.194C15.556 16.2491 15.3635 16.2673 15.173 16.2475C14.2568 16.1991 13.3472 16.0682 12.4557 15.8582C11.8062 15.6614 11.2522 15.2383 10.898 14.6685C10.531 14.1531 10.1933 13.6181 9.88643 13.066C9.35843 12.1 8.70789 11.2035 7.95125 10.3974C7.50714 9.87242 7.10662 9.31512 6.74886 8.73196C6.67113 8.58675 6.58291 8.4472 6.48486 8.31438C6.42106 8.23176 6.33505 8.16825 6.23651 8.13101C6.13797 8.09376 6.0308 8.08426 5.92706 8.10356C5.82331 8.12286 5.72711 8.17021 5.64927 8.24027C5.57143 8.31033 5.51503 8.40033 5.48643 8.50015C5.41493 8.70909 5.37962 8.92832 5.38198 9.14873L5.29974 12.9207C5.29059 13.1393 5.24186 13.3545 5.15581 13.5563C5.02443 13.7971 4.95249 14.0649 4.94577 14.3381C4.93906 14.6112 4.99776 14.8821 5.11716 15.1289C5.16299 15.2168 5.18711 15.3141 5.18758 15.4129C5.18804 15.5117 5.16485 15.6092 5.11986 15.6976C5.07487 15.786 5.00935 15.8627 4.92859 15.9216C4.84783 15.9805 4.75409 16.02 4.65495 16.0367C4.18509 16.2137 3.68422 16.2977 3.18117 16.2839C2.67812 16.27 2.18283 16.1586 1.72381 15.956C1.21884 15.754 0.893159 15.2694 0.901383 14.7339L0.802692 12.0249C0.742654 11.4628 0.960598 10.9055 1.38908 10.5275C1.57331 10.3603 1.73039 10.1664 1.8554 9.95238C2.13914 9.54854 2.12105 9.02354 1.81181 8.64715C0.97582 7.56575 0.61056 6.20293 0.796112 4.85746L0.857794 2.15492L0.864374 1.49827C0.83958 1.36044 0.851314 1.21866 0.898446 1.08657C0.945579 0.954479 1.02652 0.83652 1.1335 0.744036C1.24047 0.651552 1.36988 0.587655 1.50927 0.558489C1.64866 0.529324 1.79335 0.53587 1.92942 0.5775C2.62673 0.575009 3.31779 0.448304 3.96905 0.203538C4.12838 0.131531 4.30152 0.09372 4.47692 0.0926272C4.65231 0.0915343 4.82593 0.127185 4.98618 0.197201C5.14644 0.267217 5.28965 0.369988 5.40626 0.49866C5.52287 0.627331 5.6102 0.778944 5.66243 0.943385C5.7677 1.16631 5.8483 1.39973 5.94206 1.62831C6.00798 1.8244 6.11808 2.00336 6.26418 2.15187C6.41027 2.30038 6.5886 2.41462 6.78587 2.48608C7.20422 2.64846 7.55455 2.9447 7.78019 3.32688L10.4021 7.03742C10.6704 7.42166 10.9803 7.77616 11.3265 8.09469C11.7007 8.42827 12.0108 8.32408 12.0716 7.81846C12.1883 7.03436 12.2255 6.24082 12.1827 5.4495C12.1096 4.2218 12.1236 2.9906 12.2246 1.76481C12.144 1.34481 12.2904 0.915115 12.6111 0.627577C12.769 0.486123 12.9611 0.386758 13.1691 0.338965C13.3772 0.291172 13.5942 0.296547 13.7996 0.354577L14.724 0.406269C15.1619 0.381852 15.5936 0.516668 15.9368 0.784981C16.2799 1.0533 16.5104 1.43631 16.5843 1.86092C16.6795 2.20399 16.7352 2.55646 16.7504 2.91173L16.7587 4.96569L16.7258 4.97296ZM36.6976 9.40961C36.6368 8.53731 36.7174 7.66177 36.9362 6.81531C37.143 6.15629 37.5476 5.57394 38.097 5.14448C38.6464 4.71503 39.315 4.45847 40.0153 4.40838C41.3208 4.16646 42.6706 4.44205 43.7697 5.17488C43.8849 5.25404 44.0033 5.32512 44.1267 5.38892C44.2094 5.45392 44.3049 5.50133 44.4073 5.52816C44.5096 5.55499 44.6165 5.56065 44.7212 5.54478C44.8259 5.52891 44.9261 5.49186 45.0154 5.43597C45.1048 5.38008 45.1813 5.30658 45.2402 5.22012C45.7103 4.86295 46.2745 4.6452 46.8664 4.59254C47.4583 4.53988 48.0532 4.65449 48.5809 4.92288C49.2882 5.42365 49.5481 6.33958 49.2085 7.12788C48.7188 8.29791 48.6203 9.59047 48.9272 10.819L49.1904 13.3487L49.4099 16.1207C49.4389 17.0574 49.1249 17.9733 48.525 18.7021C47.9797 19.3923 47.2969 19.9662 46.5183 20.3886C46.1071 20.689 45.5643 20.7537 45.0914 20.5598C44.0799 20.1441 42.944 20.1282 41.9209 20.5154C41.0738 20.8118 40.156 20.8643 39.2793 20.6672C38.7014 20.5583 38.1591 20.3132 37.699 19.953C37.2389 19.5929 36.8747 19.1284 36.6376 18.5995C36.488 18.3985 36.4124 18.1536 36.4232 17.9048C36.434 17.6561 36.5304 17.4183 36.6968 17.2305C37.0686 16.8719 37.6344 16.7943 38.0933 17.0367L38.4774 17.1966L38.8516 17.3791C40.0194 17.8032 41.2383 18.0657 42.4185 18.4428C42.6922 18.5099 42.9773 18.5189 43.2548 18.4691C43.5322 18.4193 43.7957 18.3119 44.0275 18.1541C44.2594 17.9963 44.4543 17.7917 44.5991 17.554C44.744 17.3163 44.8356 17.051 44.8677 16.7758C44.9576 16.2671 44.9737 15.7486 44.9154 15.2355C44.9217 15.1371 44.9014 15.0388 44.8565 14.9506C44.8115 14.8625 44.7436 14.7876 44.6595 14.7336C44.5755 14.6797 44.4784 14.6486 44.3781 14.6435C44.2779 14.6385 44.178 14.6596 44.0888 14.7048C43.6661 14.8365 43.2606 15.015 42.8799 15.2379C42.1808 15.6539 41.3559 15.8033 40.5499 15.6822C39.3862 15.5142 38.4132 14.7275 38.0218 13.6387C37.803 12.9903 37.4546 12.3914 36.997 11.8771C36.8085 11.6108 36.7088 11.2936 36.7116 10.9693C36.668 10.4507 36.7001 9.91927 36.7001 9.40719L36.6976 9.40961ZM45.0568 10.2383C44.9792 9.73009 44.8665 9.22763 44.7196 8.73438C44.5781 8.28703 44.2957 7.89531 43.9131 7.61562C43.5305 7.33593 43.0673 7.18269 42.5904 7.17796C42.1197 7.23814 41.6786 7.43674 41.325 7.74768C40.9714 8.05863 40.7218 8.46735 40.6091 8.92015C40.5761 8.99521 40.5548 9.07471 40.5458 9.156C40.5362 9.83391 40.5653 10.5118 40.633 11.1865C40.6988 11.9506 41.2638 12.5822 42.027 12.743C42.4308 12.8577 42.859 12.8604 43.2642 12.7509C43.6695 12.6415 44.036 12.424 44.3232 12.1227C44.7826 11.5965 45.0427 10.9305 45.0593 10.2375L45.0568 10.2383ZM20.2441 13.0992V12.4425C20.1882 11.8012 20.4399 11.1704 20.9251 10.7463C21.4103 10.3223 22.074 10.1285 22.718 10.2456C22.8571 10.2552 22.9953 10.2743 23.1317 10.3029C23.4172 10.3725 23.715 10.3776 24.0029 10.3181C24.2908 10.2585 24.5611 10.1357 24.7938 9.95885C25.4719 9.47061 26.2849 9.19601 27.1254 9.17135C27.5119 9.14711 27.896 9.09058 28.2686 8.97911C28.4457 8.93699 28.6127 8.86085 28.7598 8.75508C28.9068 8.64932 29.0312 8.51601 29.1255 8.36285C29.22 8.20971 29.2824 8.03965 29.3093 7.86256C29.3361 7.68548 29.3268 7.50493 29.2818 7.33142C29.2767 7.21408 29.247 7.09903 29.1946 6.99342C29.1423 6.88782 29.0684 6.79392 28.9775 6.71758C28.7941 6.56412 28.5539 6.489 28.3138 6.51404C26.9079 6.44054 25.5278 6.90555 24.464 7.81119C24.3143 7.97002 24.1089 8.06728 23.8891 8.08338C23.0848 8.08742 22.2829 8.00908 21.5041 7.84915C21.2757 7.82231 21.0622 7.72385 20.8953 7.56839C20.7284 7.41292 20.6171 7.20875 20.5777 6.98618C20.5384 6.76361 20.5732 6.53452 20.6769 6.33291C20.7807 6.13131 20.9479 5.96794 21.1537 5.86708C21.7731 5.35371 22.4926 4.96976 23.2682 4.73868C24.0439 4.50759 24.8593 4.43423 25.6647 4.52308C26.5479 4.65435 27.4472 4.63933 28.3253 4.47865C30.462 4.23231 32.4399 5.6175 32.898 7.68196C32.9395 8.06089 32.9011 8.44414 32.7853 8.80788C32.525 9.59398 32.5719 10.4471 32.9169 11.2011C33.0517 11.5854 33.0722 11.9995 32.9762 12.3948C32.8441 13.0375 32.8491 13.7 32.991 14.3406C33.1472 14.7202 33.0814 15.1547 32.8232 15.4762C32.5649 15.7977 32.1488 15.9584 31.7376 15.8978C31.2935 15.9059 30.8461 15.8897 30.4019 15.9172C29.9003 15.9963 29.3887 15.834 29.0285 15.481C28.8994 15.3316 28.7135 15.2403 28.5145 15.2282C28.4158 15.2224 28.3169 15.2361 28.2237 15.2684C28.1304 15.3007 28.0448 15.351 27.9717 15.4164C27.8296 15.548 27.6625 15.6506 27.4799 15.7185L23.4639 16.405C22.8792 16.4206 22.2986 16.3049 21.7664 16.0666C21.295 15.9206 20.8879 15.6222 20.6113 15.2198C20.3347 14.8175 20.205 14.3351 20.2433 13.8511L20.2482 13.108L20.2441 13.0992ZM25.9164 14.1459C26.0553 14.1546 26.1947 14.1429 26.3301 14.1112L29.3073 12.8673C29.4077 12.8142 29.4927 12.7369 29.5544 12.6427C29.6161 12.5485 29.6524 12.4405 29.6601 12.3288C29.6677 12.217 29.6464 12.1052 29.5981 12.0037C29.5497 11.9023 29.476 11.8145 29.3838 11.7487C28.9092 11.0783 28.0514 10.7835 27.2537 11.0137C26.9543 11.0702 26.6492 11.0945 26.3449 11.0815C25.9843 11.0889 25.6249 11.124 25.27 11.1865C24.9137 11.2767 24.6075 11.5003 24.4172 11.8096C24.2268 12.1188 24.1675 12.489 24.2518 12.8407C24.2354 13.5006 24.7477 14.0579 25.418 14.1072C25.5825 14.1346 25.7511 14.1354 25.9172 14.1459H25.9164ZM73.9217 10.2044C73.8635 11.3869 73.5548 12.5444 73.0153 13.6032C72.6395 14.2493 72.0975 14.7848 71.4445 15.1596C71.2399 15.3031 71.004 15.3979 70.7557 15.4365C70.5073 15.475 70.2532 15.4563 70.0135 15.3817C69.7508 15.2842 69.4642 15.2671 69.1914 15.3327C68.9186 15.3983 68.6725 15.5435 68.4854 15.7492C68.2804 15.9521 68.0225 16.0958 67.7399 16.1644C67.4574 16.2331 67.161 16.2241 66.8833 16.1385C66.1456 15.9996 65.3947 15.9325 64.6438 15.939C64.0849 15.9361 63.5445 15.7419 63.1157 15.3898L61.359 14.1419C60.9807 13.8963 60.7504 13.486 60.7356 13.0418C60.6946 12.1939 60.5028 11.3597 60.169 10.5767C59.8285 9.54127 60.0341 8.40808 60.7175 7.55112C60.8245 7.392 60.9889 7.2765 61.1756 7.22562C61.5139 7.13507 61.8282 6.97359 62.0968 6.75231C62.3654 6.53103 62.582 6.25519 62.7317 5.94381C63.0878 5.05535 64.0681 4.59335 64.9934 4.85908C65.1562 4.90021 65.3261 4.90682 65.4917 4.87846C66.6991 4.71531 67.9237 4.72177 69.1285 4.89946C70.8737 4.90754 72.4553 5.9115 73.1798 7.47115C73.6239 8.31923 73.8781 9.25131 73.9217 10.2044ZM69.335 10.6486C69.4232 9.79796 69.2386 8.94148 68.807 8.19888C68.6529 7.89674 68.4261 7.6361 68.1462 7.43959C67.8663 7.24309 67.5417 7.11666 67.2008 7.07129C66.8598 7.02592 66.5127 7.06299 66.1897 7.17926C65.8666 7.29553 65.5774 7.48751 65.347 7.7385C64.2104 9.16812 64.0689 11.1308 64.9892 12.7018C65.3022 13.0714 65.7167 13.345 66.1833 13.4902C66.65 13.6353 67.1492 13.646 67.6218 13.5208C68.0781 13.3845 68.4813 13.1152 68.7782 12.7487C69.075 12.3821 69.2514 11.9357 69.284 11.4684L69.3358 10.647L69.335 10.6486ZM82.0802 4.25654L84.8929 4.578C85.458 4.71932 85.996 4.94982 86.4859 5.2605C86.7638 5.44143 86.9873 5.69216 87.1332 5.98662C87.2169 6.09809 87.2687 6.22955 87.2831 6.36733C87.2976 6.50511 87.2742 6.64418 87.2154 6.77008C87.0962 7.02612 86.8453 7.19977 86.5575 7.22238C85.4842 7.66338 84.2629 7.57615 83.2653 6.98654C82.9003 6.78669 82.5039 6.64802 82.0925 6.57623C81.8464 6.52006 81.5905 6.51922 81.344 6.57376C81.0975 6.6283 80.8667 6.73683 80.6689 6.89123C80.4164 7.02854 80.2593 7.29023 80.2576 7.57373C80.2568 7.71302 80.2934 7.85008 80.3637 7.97105C80.434 8.09202 80.5356 8.19262 80.6582 8.26269C80.7615 8.3554 80.8841 8.42486 81.0176 8.46623C81.9871 8.80689 82.9986 9.01929 84.0252 9.09785C84.6415 9.06528 85.2517 9.23211 85.7622 9.57277C86.1903 9.82544 86.6311 10.0567 87.083 10.2658C87.8511 10.5937 88.3306 11.3562 88.2854 12.1768C88.2196 14.0264 87.4926 15.2113 85.6355 15.5238C84.9404 15.5791 84.2638 15.7714 83.6461 16.0892C83.4437 16.1812 83.2234 16.2289 83.0005 16.229L81.1697 16.3824C79.7544 16.2971 78.3737 15.9172 77.1193 15.2678C76.9831 15.1727 76.8569 15.0644 76.7426 14.9447C76.5656 14.8252 76.4308 14.6547 76.3568 14.4567C76.2829 14.2587 76.2733 14.043 76.3296 13.8395C76.3859 13.636 76.5051 13.4546 76.6709 13.3205C76.8367 13.1865 77.0408 13.1063 77.255 13.0911C78.0149 12.9255 78.7954 12.869 79.5717 12.9239C79.9731 13.0305 80.3341 13.247 80.6138 13.549C80.9132 13.8186 81.2705 14.0187 81.6593 14.1346C82.048 14.2505 82.4583 14.2792 82.8598 14.2186C83.2194 14.1778 83.5675 14.0686 83.8846 13.8972C84.2135 13.7356 84.4257 13.3907 84.4027 13.0232C84.3797 12.6557 84.1313 12.3391 83.7776 12.2204C83.628 12.1493 83.461 12.1178 83.3072 12.054C82.7882 11.863 82.2812 11.6419 81.789 11.3917C81.1199 10.989 80.3339 10.8152 79.5537 10.8974C78.2049 11.1276 76.8857 10.3562 76.449 9.08008C75.9835 7.80231 76.4144 6.37592 77.514 5.55369C78.4615 4.77023 79.6655 4.347 80.9049 4.36396C81.2997 4.37365 81.6961 4.33569 82.081 4.25088L82.0802 4.25654ZM56.862 9.198C56.8348 9.54692 56.8414 9.89827 56.8834 10.2464L57.2041 14.49C57.2319 14.7315 57.2024 14.9761 57.1179 15.2045C57.0334 15.433 56.8963 15.6392 56.7171 15.8069C56.538 15.9746 56.3217 16.0993 56.0853 16.1713C55.8489 16.2432 55.5988 16.2605 55.3545 16.2217C54.4333 16.2435 53.5698 15.7799 53.0903 15.0061C52.8545 14.6261 52.725 14.1917 52.7149 13.7468C52.7048 13.302 52.8144 12.8623 53.0328 12.4724C53.3667 11.7161 53.4387 10.8731 53.2375 10.0727L52.7194 6.59481C52.689 6.29596 52.7145 5.99308 52.7951 5.70231C52.8938 5.07715 53.4497 4.62162 54.0945 4.63858C54.6227 4.60482 55.1528 4.61481 55.6793 4.66846C56.0766 4.6725 56.4549 4.83969 56.7214 5.12885C56.8532 5.27206 56.9536 5.44043 57.0163 5.62344C57.079 5.80646 57.1026 6.0002 57.0857 6.19258V7.17796C57.1227 7.18927 56.9459 8.53004 56.8636 9.19881L56.862 9.198ZM55.0115 0.0323077H55.2615C55.8479 -0.0323077 56.4162 0.256846 56.6991 0.764885C56.8374 1.01355 56.8973 1.29694 56.8712 1.57908C56.8451 1.86123 56.7343 2.1294 56.5528 2.34958C56.4746 2.49601 56.3571 2.6186 56.2129 2.70404C56.0688 2.78948 55.9036 2.83449 55.7353 2.83419C55.1813 2.85417 54.6266 2.83068 54.0764 2.76392C53.9137 2.7603 53.7537 2.72236 53.6073 2.65268C53.4609 2.583 53.3314 2.48321 53.2277 2.36008C53.0147 2.10808 52.9168 1.79469 52.9587 1.47565C52.9563 0.734192 53.5147 0.106615 54.2623 0.00969231C54.5107 -0.0121154 54.7615 0.00969231 55.0107 0.00969231V0.0315L55.0115 0.0323077Z" fill="black"/>
</g>
<path d="M1.72607 24.4453V28H1.26221V24.4453H1.72607ZM2.86865 24.4453V24.8311H0.12207V24.4453H2.86865ZM3.7793 24.25V28H3.32764V24.25H3.7793ZM3.67188 26.5791L3.48389 26.5718C3.48551 26.3911 3.51237 26.2243 3.56445 26.0713C3.61654 25.9167 3.68978 25.7824 3.78418 25.6685C3.87858 25.5545 3.99089 25.4666 4.12109 25.4048C4.25293 25.3413 4.3986 25.3096 4.55811 25.3096C4.68831 25.3096 4.8055 25.3275 4.90967 25.3633C5.01383 25.3975 5.10254 25.4528 5.17578 25.5293C5.25065 25.6058 5.30762 25.7051 5.34668 25.8271C5.38574 25.9476 5.40527 26.0949 5.40527 26.269V28H4.95117V26.2642C4.95117 26.1258 4.93083 26.0151 4.89014 25.9321C4.84945 25.8475 4.79004 25.7865 4.71191 25.749C4.63379 25.71 4.53776 25.6904 4.42383 25.6904C4.31152 25.6904 4.20898 25.714 4.11621 25.7612C4.02507 25.8084 3.94613 25.8735 3.87939 25.9565C3.81429 26.0396 3.76302 26.1348 3.72559 26.2422C3.68978 26.348 3.67188 26.4603 3.67188 26.5791ZM7.17773 28.0488C6.99382 28.0488 6.82699 28.0179 6.67725 27.9561C6.52913 27.8926 6.40137 27.8039 6.29395 27.6899C6.18815 27.576 6.10677 27.4409 6.0498 27.2847C5.99284 27.1284 5.96436 26.9575 5.96436 26.772V26.6694C5.96436 26.4546 5.99609 26.2633 6.05957 26.0957C6.12305 25.9264 6.20931 25.7832 6.31836 25.666C6.42741 25.5488 6.55111 25.4601 6.68945 25.3999C6.8278 25.3397 6.97103 25.3096 7.11914 25.3096C7.30794 25.3096 7.4707 25.3421 7.60742 25.4072C7.74577 25.4723 7.85889 25.5635 7.94678 25.6807C8.03467 25.7962 8.09977 25.9329 8.14209 26.0908C8.18441 26.2471 8.20557 26.418 8.20557 26.6035V26.8062H6.23291V26.4375H7.75391V26.4033C7.7474 26.2861 7.72298 26.1722 7.68066 26.0615C7.63997 25.9508 7.57487 25.8597 7.48535 25.7881C7.39583 25.7165 7.27376 25.6807 7.11914 25.6807C7.0166 25.6807 6.9222 25.7026 6.83594 25.7466C6.74967 25.7889 6.67562 25.8524 6.61377 25.937C6.55192 26.0216 6.50391 26.125 6.46973 26.2471C6.43555 26.3691 6.41846 26.5099 6.41846 26.6694V26.772C6.41846 26.8973 6.43555 27.0153 6.46973 27.126C6.50553 27.235 6.5568 27.3311 6.62354 27.4141C6.69189 27.4971 6.77409 27.5622 6.87012 27.6094C6.96777 27.6566 7.07845 27.6802 7.20215 27.6802C7.36165 27.6802 7.49674 27.6476 7.60742 27.5825C7.7181 27.5174 7.81494 27.4303 7.89795 27.3213L8.17139 27.5386C8.11442 27.6248 8.04199 27.707 7.9541 27.7852C7.86621 27.8633 7.75798 27.9268 7.62939 27.9756C7.50244 28.0244 7.35189 28.0488 7.17773 28.0488ZM10.5469 24.4453V28H10.0757V24.4453H10.5469ZM11.7871 25.9224V28H11.3354V25.3584H11.7627L11.7871 25.9224ZM11.6797 26.5791L11.4917 26.5718C11.4933 26.3911 11.5202 26.2243 11.5723 26.0713C11.6243 25.9167 11.6976 25.7824 11.792 25.6685C11.8864 25.5545 11.9987 25.4666 12.1289 25.4048C12.2607 25.3413 12.4064 25.3096 12.5659 25.3096C12.6961 25.3096 12.8133 25.3275 12.9175 25.3633C13.0216 25.3975 13.1104 25.4528 13.1836 25.5293C13.2585 25.6058 13.3154 25.7051 13.3545 25.8271C13.3936 25.9476 13.4131 26.0949 13.4131 26.269V28H12.959V26.2642C12.959 26.1258 12.9386 26.0151 12.8979 25.9321C12.8573 25.8475 12.7979 25.7865 12.7197 25.749C12.6416 25.71 12.5456 25.6904 12.4316 25.6904C12.3193 25.6904 12.2168 25.714 12.124 25.7612C12.0329 25.8084 11.9539 25.8735 11.8872 25.9565C11.8221 26.0396 11.7708 26.1348 11.7334 26.2422C11.6976 26.348 11.6797 26.4603 11.6797 26.5791ZM15.7642 27.4873V24.25H16.2183V28H15.8032L15.7642 27.4873ZM13.9868 26.7085V26.6572C13.9868 26.4554 14.0112 26.2723 14.0601 26.1079C14.1105 25.9419 14.1813 25.7995 14.2725 25.6807C14.3652 25.5618 14.4751 25.4707 14.6021 25.4072C14.7306 25.3421 14.8739 25.3096 15.0317 25.3096C15.1978 25.3096 15.3426 25.3389 15.4663 25.3975C15.5916 25.4544 15.6974 25.5382 15.7837 25.6489C15.8716 25.758 15.9408 25.8898 15.9912 26.0444C16.0417 26.1991 16.0767 26.374 16.0962 26.5693V26.7939C16.0783 26.9876 16.0433 27.1618 15.9912 27.3164C15.9408 27.471 15.8716 27.6029 15.7837 27.7119C15.6974 27.821 15.5916 27.9048 15.4663 27.9634C15.341 28.0203 15.1945 28.0488 15.0269 28.0488C14.8722 28.0488 14.7306 28.0155 14.6021 27.9487C14.4751 27.882 14.3652 27.7884 14.2725 27.668C14.1813 27.5475 14.1105 27.4059 14.0601 27.2432C14.0112 27.0788 13.9868 26.9006 13.9868 26.7085ZM14.4409 26.6572V26.7085C14.4409 26.8403 14.4539 26.964 14.48 27.0796C14.5076 27.1951 14.55 27.2969 14.6069 27.3848C14.6639 27.4727 14.7363 27.5418 14.8242 27.5923C14.9121 27.6411 15.0171 27.6655 15.1392 27.6655C15.2889 27.6655 15.4118 27.6338 15.5078 27.5703C15.6055 27.5068 15.6836 27.423 15.7422 27.3188C15.8008 27.2147 15.8464 27.1016 15.8789 26.9795V26.3911C15.8594 26.3016 15.8309 26.2153 15.7935 26.1323C15.7576 26.0477 15.7104 25.9728 15.6519 25.9077C15.5949 25.841 15.5241 25.7881 15.4395 25.749C15.3564 25.71 15.258 25.6904 15.144 25.6904C15.0203 25.6904 14.9137 25.7165 14.8242 25.7686C14.7363 25.819 14.6639 25.889 14.6069 25.9785C14.55 26.0664 14.5076 26.1689 14.48 26.2861C14.4539 26.4017 14.4409 26.5254 14.4409 26.6572ZM18.5376 27.3896V25.3584H18.9917V28H18.5596L18.5376 27.3896ZM18.623 26.833L18.811 26.8281C18.811 27.0039 18.7923 27.1667 18.7549 27.3164C18.7191 27.4645 18.6605 27.5931 18.5791 27.7021C18.4977 27.8112 18.3911 27.8966 18.2593 27.9585C18.1274 28.0187 17.9671 28.0488 17.7783 28.0488C17.6497 28.0488 17.5317 28.0301 17.4243 27.9927C17.3185 27.9552 17.2274 27.8975 17.1509 27.8193C17.0744 27.7412 17.015 27.6395 16.9727 27.5142C16.932 27.3888 16.9116 27.2383 16.9116 27.0625V25.3584H17.3633V27.0674C17.3633 27.1862 17.3763 27.2847 17.4023 27.3628C17.43 27.4393 17.4666 27.5003 17.5122 27.5459C17.5594 27.5898 17.6115 27.6208 17.6685 27.6387C17.7271 27.6566 17.7873 27.6655 17.8491 27.6655C18.0412 27.6655 18.1934 27.6289 18.3057 27.5557C18.418 27.4808 18.4985 27.3807 18.5474 27.2554C18.5978 27.1284 18.623 26.9876 18.623 26.833ZM21.2183 27.2993C21.2183 27.2342 21.2036 27.174 21.1743 27.1187C21.1466 27.0617 21.0889 27.0104 21.001 26.9648C20.9147 26.9176 20.7845 26.877 20.6104 26.8428C20.4639 26.8118 20.3312 26.7752 20.2124 26.7329C20.0952 26.6906 19.9951 26.6393 19.9121 26.5791C19.8307 26.5189 19.7681 26.4481 19.7241 26.3667C19.6802 26.2853 19.6582 26.1901 19.6582 26.0811C19.6582 25.9769 19.681 25.8784 19.7266 25.7856C19.7738 25.6929 19.8397 25.6107 19.9243 25.5391C20.0106 25.4674 20.1139 25.4113 20.2344 25.3706C20.3548 25.3299 20.4891 25.3096 20.6372 25.3096C20.8488 25.3096 21.0295 25.347 21.1792 25.4219C21.3289 25.4967 21.4437 25.5968 21.5234 25.7222C21.6032 25.8459 21.6431 25.9834 21.6431 26.1348H21.1914C21.1914 26.0615 21.1694 25.9907 21.1255 25.9224C21.0832 25.8524 21.0205 25.7946 20.9375 25.749C20.8561 25.7035 20.756 25.6807 20.6372 25.6807C20.5119 25.6807 20.4102 25.7002 20.332 25.7393C20.2555 25.7767 20.1994 25.8247 20.1636 25.8833C20.1294 25.9419 20.1123 26.0037 20.1123 26.0688C20.1123 26.1177 20.1204 26.1616 20.1367 26.2007C20.1546 26.2381 20.1855 26.2731 20.2295 26.3057C20.2734 26.3366 20.3353 26.3659 20.415 26.3936C20.4948 26.4212 20.5965 26.4489 20.7202 26.4766C20.9367 26.5254 21.1149 26.584 21.2549 26.6523C21.3949 26.7207 21.499 26.8045 21.5674 26.9038C21.6357 27.0031 21.6699 27.1235 21.6699 27.2651C21.6699 27.3807 21.6455 27.4865 21.5967 27.5825C21.5495 27.6785 21.4803 27.7616 21.3892 27.8315C21.2996 27.8999 21.1922 27.9536 21.0669 27.9927C20.9432 28.0301 20.804 28.0488 20.6494 28.0488C20.4167 28.0488 20.2197 28.0073 20.0586 27.9243C19.8975 27.8413 19.7754 27.7339 19.6924 27.6021C19.6094 27.4702 19.5679 27.3311 19.5679 27.1846H20.022C20.0285 27.3083 20.0643 27.4067 20.1294 27.48C20.1945 27.5516 20.2743 27.6029 20.3687 27.6338C20.4631 27.6631 20.5566 27.6777 20.6494 27.6777C20.7731 27.6777 20.8765 27.6615 20.9595 27.6289C21.0441 27.5964 21.1084 27.5516 21.1523 27.4946C21.1963 27.4377 21.2183 27.3726 21.2183 27.2993ZM23.3691 25.3584V25.7051H21.9409V25.3584H23.3691ZM22.4243 24.7163H22.876V27.3457C22.876 27.4352 22.8898 27.5028 22.9175 27.5483C22.9451 27.5939 22.981 27.624 23.0249 27.6387C23.0688 27.6533 23.116 27.6606 23.1665 27.6606C23.2039 27.6606 23.243 27.6574 23.2837 27.6509C23.326 27.6427 23.3577 27.6362 23.3789 27.6313L23.3813 28C23.3455 28.0114 23.2983 28.022 23.2397 28.0317C23.1828 28.0431 23.1136 28.0488 23.0322 28.0488C22.9215 28.0488 22.8198 28.0269 22.7271 27.9829C22.6343 27.939 22.5602 27.8657 22.5049 27.7632C22.4512 27.659 22.4243 27.519 22.4243 27.3433V24.7163ZM24.3506 25.7734V28H23.8989V25.3584H24.3384L24.3506 25.7734ZM25.1758 25.3438L25.1733 25.7637C25.1359 25.7555 25.1001 25.7507 25.0659 25.749C25.0334 25.7458 24.9959 25.7441 24.9536 25.7441C24.8494 25.7441 24.7575 25.7604 24.6777 25.793C24.598 25.8255 24.5304 25.8711 24.4751 25.9297C24.4198 25.9883 24.3758 26.0583 24.3433 26.1396C24.3123 26.2194 24.292 26.3073 24.2822 26.4033L24.1553 26.4766C24.1553 26.3171 24.1707 26.1673 24.2017 26.0273C24.2342 25.8874 24.2839 25.7637 24.3506 25.6562C24.4173 25.5472 24.502 25.4626 24.6045 25.4023C24.7087 25.3405 24.8324 25.3096 24.9756 25.3096C25.0081 25.3096 25.0456 25.3136 25.0879 25.3218C25.1302 25.3283 25.1595 25.3356 25.1758 25.3438ZM26.3794 27.7266L27.1143 25.3584H27.5977L26.5381 28.4077C26.5137 28.4728 26.4811 28.5428 26.4404 28.6177C26.4014 28.6942 26.3509 28.7666 26.2891 28.835C26.2272 28.9033 26.1523 28.9587 26.0645 29.001C25.9782 29.0449 25.8748 29.0669 25.7544 29.0669C25.7186 29.0669 25.673 29.062 25.6177 29.0522C25.5623 29.0425 25.5233 29.0343 25.5005 29.0278L25.498 28.6616C25.5111 28.6632 25.5314 28.6649 25.5591 28.6665C25.5884 28.6698 25.6087 28.6714 25.6201 28.6714C25.7227 28.6714 25.8097 28.6576 25.8813 28.6299C25.953 28.6038 26.0132 28.5591 26.062 28.4956C26.1125 28.4338 26.1556 28.3483 26.1914 28.2393L26.3794 27.7266ZM25.8398 25.3584L26.5259 27.4092L26.6431 27.8853L26.3184 28.0513L25.3467 25.3584H25.8398ZM31.2085 27.1016C31.2085 27.0186 31.1955 26.9453 31.1694 26.8818C31.145 26.8167 31.1011 26.7581 31.0376 26.7061C30.9757 26.654 30.8895 26.6043 30.7788 26.5571C30.6698 26.5099 30.5314 26.4619 30.3638 26.4131C30.188 26.361 30.0293 26.3032 29.8877 26.2397C29.7461 26.1746 29.6248 26.1006 29.5239 26.0176C29.423 25.9346 29.3457 25.8394 29.292 25.7319C29.2383 25.6245 29.2114 25.5016 29.2114 25.3633C29.2114 25.2249 29.2399 25.0972 29.2969 24.98C29.3538 24.8628 29.4352 24.7611 29.541 24.6748C29.6484 24.5869 29.7762 24.5186 29.9243 24.4697C30.0724 24.4209 30.2376 24.3965 30.4199 24.3965C30.6868 24.3965 30.9131 24.4478 31.0986 24.5503C31.2858 24.6512 31.4282 24.7839 31.5259 24.9482C31.6235 25.111 31.6724 25.2852 31.6724 25.4707H31.2036C31.2036 25.3372 31.1751 25.2192 31.1182 25.1167C31.0612 25.0125 30.9749 24.9312 30.8594 24.8726C30.7438 24.8123 30.5973 24.7822 30.4199 24.7822C30.2523 24.7822 30.1139 24.8075 30.0049 24.8579C29.8958 24.9084 29.8145 24.9767 29.7607 25.063C29.7087 25.1493 29.6826 25.2477 29.6826 25.3584C29.6826 25.4333 29.6981 25.5016 29.729 25.5635C29.7616 25.6237 29.8112 25.6799 29.8779 25.7319C29.9463 25.784 30.0326 25.832 30.1367 25.876C30.2425 25.9199 30.3687 25.9622 30.5151 26.0029C30.717 26.0599 30.8911 26.1234 31.0376 26.1934C31.1841 26.2633 31.3045 26.3423 31.3989 26.4302C31.495 26.5164 31.5658 26.6149 31.6113 26.7256C31.6585 26.8346 31.6821 26.9583 31.6821 27.0967C31.6821 27.2415 31.6528 27.3726 31.5942 27.4897C31.5356 27.6069 31.4518 27.707 31.3428 27.79C31.2337 27.873 31.1027 27.9373 30.9497 27.9829C30.7983 28.0269 30.6291 28.0488 30.4419 28.0488C30.2775 28.0488 30.1156 28.026 29.9561 27.9805C29.7982 27.9349 29.6541 27.8665 29.5239 27.7754C29.3953 27.6842 29.292 27.5719 29.2139 27.4385C29.1374 27.3034 29.0991 27.1471 29.0991 26.9697H29.5679C29.5679 27.0918 29.5915 27.1968 29.6387 27.2847C29.6859 27.3709 29.7502 27.4425 29.8315 27.4995C29.9146 27.5565 30.0081 27.5988 30.1123 27.6265C30.2181 27.6525 30.328 27.6655 30.4419 27.6655C30.6063 27.6655 30.7454 27.6427 30.8594 27.5972C30.9733 27.5516 31.0596 27.4865 31.1182 27.4019C31.1784 27.3172 31.2085 27.2171 31.2085 27.1016ZM33.3203 25.3584V25.7051H31.8921V25.3584H33.3203ZM32.3755 24.7163H32.8271V27.3457C32.8271 27.4352 32.841 27.5028 32.8687 27.5483C32.8963 27.5939 32.9321 27.624 32.9761 27.6387C33.02 27.6533 33.0672 27.6606 33.1177 27.6606C33.1551 27.6606 33.1942 27.6574 33.2349 27.6509C33.2772 27.6427 33.3089 27.6362 33.3301 27.6313L33.3325 28C33.2967 28.0114 33.2495 28.022 33.1909 28.0317C33.134 28.0431 33.0648 28.0488 32.9834 28.0488C32.8727 28.0488 32.771 28.0269 32.6782 27.9829C32.5854 27.939 32.5114 27.8657 32.4561 27.7632C32.4023 27.659 32.3755 27.519 32.3755 27.3433V24.7163ZM35.4077 27.5483V26.1885C35.4077 26.0843 35.3866 25.994 35.3442 25.9175C35.3035 25.8394 35.2417 25.7791 35.1587 25.7368C35.0757 25.6945 34.9731 25.6733 34.8511 25.6733C34.7371 25.6733 34.637 25.6929 34.5508 25.7319C34.4661 25.771 34.3994 25.8223 34.3506 25.8857C34.3034 25.9492 34.2798 26.0176 34.2798 26.0908H33.8281C33.8281 25.9964 33.8525 25.9028 33.9014 25.8101C33.9502 25.7173 34.0202 25.6335 34.1113 25.5586C34.2041 25.4821 34.3148 25.4219 34.4434 25.3779C34.5736 25.3324 34.7184 25.3096 34.8779 25.3096C35.07 25.3096 35.2393 25.3421 35.3857 25.4072C35.5339 25.4723 35.6494 25.5708 35.7324 25.7026C35.8171 25.8328 35.8594 25.9964 35.8594 26.1934V27.4238C35.8594 27.5117 35.8667 27.6053 35.8813 27.7046C35.8976 27.8039 35.9212 27.8893 35.9521 27.9609V28H35.481C35.4582 27.9479 35.4403 27.8787 35.4272 27.7925C35.4142 27.7046 35.4077 27.6232 35.4077 27.5483ZM35.4858 26.3984L35.4907 26.7158H35.0342C34.9056 26.7158 34.7909 26.7264 34.6899 26.7476C34.589 26.7671 34.5044 26.7972 34.436 26.8379C34.3677 26.8786 34.3156 26.9299 34.2798 26.9917C34.244 27.0519 34.2261 27.1227 34.2261 27.2041C34.2261 27.2871 34.2448 27.3628 34.2822 27.4312C34.3197 27.4995 34.3758 27.554 34.4507 27.5947C34.5272 27.6338 34.6208 27.6533 34.7314 27.6533C34.8698 27.6533 34.9919 27.624 35.0977 27.5654C35.2035 27.5068 35.2873 27.4352 35.3491 27.3506C35.4126 27.266 35.4468 27.1838 35.4517 27.104L35.6445 27.3213C35.6331 27.3896 35.6022 27.4653 35.5518 27.5483C35.5013 27.6313 35.4338 27.7111 35.3491 27.7876C35.2661 27.8625 35.1668 27.9251 35.0513 27.9756C34.9373 28.0244 34.8088 28.0488 34.6655 28.0488C34.4865 28.0488 34.3294 28.0138 34.1943 27.9438C34.0609 27.8739 33.9567 27.7803 33.8818 27.6631C33.8086 27.5443 33.772 27.4116 33.772 27.2651C33.772 27.1235 33.7996 26.999 33.855 26.8916C33.9103 26.7826 33.9901 26.6922 34.0942 26.6206C34.1984 26.5474 34.3237 26.492 34.4702 26.4546C34.6167 26.4172 34.7803 26.3984 34.9609 26.3984H35.4858ZM37.0215 25.9224V28H36.5698V25.3584H36.9971L37.0215 25.9224ZM36.9141 26.5791L36.7261 26.5718C36.7277 26.3911 36.7546 26.2243 36.8066 26.0713C36.8587 25.9167 36.932 25.7824 37.0264 25.6685C37.1208 25.5545 37.2331 25.4666 37.3633 25.4048C37.4951 25.3413 37.6408 25.3096 37.8003 25.3096C37.9305 25.3096 38.0477 25.3275 38.1519 25.3633C38.256 25.3975 38.3447 25.4528 38.418 25.5293C38.4928 25.6058 38.5498 25.7051 38.5889 25.8271C38.6279 25.9476 38.6475 26.0949 38.6475 26.269V28H38.1934V26.2642C38.1934 26.1258 38.173 26.0151 38.1323 25.9321C38.0916 25.8475 38.0322 25.7865 37.9541 25.749C37.876 25.71 37.7799 25.6904 37.666 25.6904C37.5537 25.6904 37.4512 25.714 37.3584 25.7612C37.2673 25.8084 37.1883 25.8735 37.1216 25.9565C37.0565 26.0396 37.0052 26.1348 36.9678 26.2422C36.932 26.348 36.9141 26.4603 36.9141 26.5791ZM40.9985 27.4873V24.25H41.4526V28H41.0376L40.9985 27.4873ZM39.2212 26.7085V26.6572C39.2212 26.4554 39.2456 26.2723 39.2944 26.1079C39.3449 25.9419 39.4157 25.7995 39.5068 25.6807C39.5996 25.5618 39.7095 25.4707 39.8364 25.4072C39.965 25.3421 40.1082 25.3096 40.2661 25.3096C40.4321 25.3096 40.577 25.3389 40.7007 25.3975C40.826 25.4544 40.9318 25.5382 41.0181 25.6489C41.106 25.758 41.1751 25.8898 41.2256 26.0444C41.276 26.1991 41.311 26.374 41.3306 26.5693V26.7939C41.3127 26.9876 41.2777 27.1618 41.2256 27.3164C41.1751 27.471 41.106 27.6029 41.0181 27.7119C40.9318 27.821 40.826 27.9048 40.7007 27.9634C40.5754 28.0203 40.4289 28.0488 40.2612 28.0488C40.1066 28.0488 39.965 28.0155 39.8364 27.9487C39.7095 27.882 39.5996 27.7884 39.5068 27.668C39.4157 27.5475 39.3449 27.4059 39.2944 27.2432C39.2456 27.0788 39.2212 26.9006 39.2212 26.7085ZM39.6753 26.6572V26.7085C39.6753 26.8403 39.6883 26.964 39.7144 27.0796C39.742 27.1951 39.7843 27.2969 39.8413 27.3848C39.8983 27.4727 39.9707 27.5418 40.0586 27.5923C40.1465 27.6411 40.2515 27.6655 40.3735 27.6655C40.5233 27.6655 40.6462 27.6338 40.7422 27.5703C40.8398 27.5068 40.918 27.423 40.9766 27.3188C41.0352 27.2147 41.0807 27.1016 41.1133 26.9795V26.3911C41.0938 26.3016 41.0653 26.2153 41.0278 26.1323C40.992 26.0477 40.9448 25.9728 40.8862 25.9077C40.8293 25.841 40.7585 25.7881 40.6738 25.749C40.5908 25.71 40.4924 25.6904 40.3784 25.6904C40.2547 25.6904 40.1481 25.7165 40.0586 25.7686C39.9707 25.819 39.8983 25.889 39.8413 25.9785C39.7843 26.0664 39.742 26.1689 39.7144 26.2861C39.6883 26.4017 39.6753 26.5254 39.6753 26.6572ZM43.7134 27.5483V26.1885C43.7134 26.0843 43.6922 25.994 43.6499 25.9175C43.6092 25.8394 43.5474 25.7791 43.4644 25.7368C43.3813 25.6945 43.2788 25.6733 43.1567 25.6733C43.0428 25.6733 42.9427 25.6929 42.8564 25.7319C42.7718 25.771 42.7051 25.8223 42.6562 25.8857C42.609 25.9492 42.5854 26.0176 42.5854 26.0908H42.1338C42.1338 25.9964 42.1582 25.9028 42.207 25.8101C42.2559 25.7173 42.3258 25.6335 42.417 25.5586C42.5098 25.4821 42.6204 25.4219 42.749 25.3779C42.8792 25.3324 43.0241 25.3096 43.1836 25.3096C43.3757 25.3096 43.5449 25.3421 43.6914 25.4072C43.8395 25.4723 43.9551 25.5708 44.0381 25.7026C44.1227 25.8328 44.165 25.9964 44.165 26.1934V27.4238C44.165 27.5117 44.1724 27.6053 44.187 27.7046C44.2033 27.8039 44.2269 27.8893 44.2578 27.9609V28H43.7866C43.7638 27.9479 43.7459 27.8787 43.7329 27.7925C43.7199 27.7046 43.7134 27.6232 43.7134 27.5483ZM43.7915 26.3984L43.7964 26.7158H43.3398C43.2113 26.7158 43.0965 26.7264 42.9956 26.7476C42.8947 26.7671 42.8101 26.7972 42.7417 26.8379C42.6733 26.8786 42.6213 26.9299 42.5854 26.9917C42.5496 27.0519 42.5317 27.1227 42.5317 27.2041C42.5317 27.2871 42.5505 27.3628 42.5879 27.4312C42.6253 27.4995 42.6815 27.554 42.7563 27.5947C42.8328 27.6338 42.9264 27.6533 43.0371 27.6533C43.1755 27.6533 43.2975 27.624 43.4033 27.5654C43.5091 27.5068 43.5929 27.4352 43.6548 27.3506C43.7183 27.266 43.7524 27.1838 43.7573 27.104L43.9502 27.3213C43.9388 27.3896 43.9079 27.4653 43.8574 27.5483C43.807 27.6313 43.7394 27.7111 43.6548 27.7876C43.5718 27.8625 43.4725 27.9251 43.3569 27.9756C43.243 28.0244 43.1144 28.0488 42.9712 28.0488C42.7922 28.0488 42.6351 28.0138 42.5 27.9438C42.3665 27.8739 42.2624 27.7803 42.1875 27.6631C42.1143 27.5443 42.0776 27.4116 42.0776 27.2651C42.0776 27.1235 42.1053 26.999 42.1606 26.8916C42.216 26.7826 42.2957 26.6922 42.3999 26.6206C42.5041 26.5474 42.6294 26.492 42.7759 26.4546C42.9224 26.4172 43.0859 26.3984 43.2666 26.3984H43.7915ZM45.3271 25.7734V28H44.8755V25.3584H45.3149L45.3271 25.7734ZM46.1523 25.3438L46.1499 25.7637C46.1125 25.7555 46.0767 25.7507 46.0425 25.749C46.0099 25.7458 45.9725 25.7441 45.9302 25.7441C45.826 25.7441 45.734 25.7604 45.6543 25.793C45.5745 25.8255 45.507 25.8711 45.4517 25.9297C45.3963 25.9883 45.3524 26.0583 45.3198 26.1396C45.2889 26.2194 45.2686 26.3073 45.2588 26.4033L45.1318 26.4766C45.1318 26.3171 45.1473 26.1673 45.1782 26.0273C45.2108 25.8874 45.2604 25.7637 45.3271 25.6562C45.3939 25.5472 45.4785 25.4626 45.5811 25.4023C45.6852 25.3405 45.8089 25.3096 45.9521 25.3096C45.9847 25.3096 46.0221 25.3136 46.0645 25.3218C46.1068 25.3283 46.1361 25.3356 46.1523 25.3438ZM48.186 27.4873V24.25H48.6401V28H48.2251L48.186 27.4873ZM46.4087 26.7085V26.6572C46.4087 26.4554 46.4331 26.2723 46.4819 26.1079C46.5324 25.9419 46.6032 25.7995 46.6943 25.6807C46.7871 25.5618 46.897 25.4707 47.0239 25.4072C47.1525 25.3421 47.2957 25.3096 47.4536 25.3096C47.6196 25.3096 47.7645 25.3389 47.8882 25.3975C48.0135 25.4544 48.1193 25.5382 48.2056 25.6489C48.2935 25.758 48.3626 25.8898 48.4131 26.0444C48.4635 26.1991 48.4985 26.374 48.5181 26.5693V26.7939C48.5002 26.9876 48.4652 27.1618 48.4131 27.3164C48.3626 27.471 48.2935 27.6029 48.2056 27.7119C48.1193 27.821 48.0135 27.9048 47.8882 27.9634C47.7629 28.0203 47.6164 28.0488 47.4487 28.0488C47.2941 28.0488 47.1525 28.0155 47.0239 27.9487C46.897 27.882 46.7871 27.7884 46.6943 27.668C46.6032 27.5475 46.5324 27.4059 46.4819 27.2432C46.4331 27.0788 46.4087 26.9006 46.4087 26.7085ZM46.8628 26.6572V26.7085C46.8628 26.8403 46.8758 26.964 46.9019 27.0796C46.9295 27.1951 46.9718 27.2969 47.0288 27.3848C47.0858 27.4727 47.1582 27.5418 47.2461 27.5923C47.334 27.6411 47.439 27.6655 47.561 27.6655C47.7108 27.6655 47.8337 27.6338 47.9297 27.5703C48.0273 27.5068 48.1055 27.423 48.1641 27.3188C48.2227 27.2147 48.2682 27.1016 48.3008 26.9795V26.3911C48.2812 26.3016 48.2528 26.2153 48.2153 26.1323C48.1795 26.0477 48.1323 25.9728 48.0737 25.9077C48.0168 25.841 47.946 25.7881 47.8613 25.749C47.7783 25.71 47.6799 25.6904 47.5659 25.6904C47.4422 25.6904 47.3356 25.7165 47.2461 25.7686C47.1582 25.819 47.0858 25.889 47.0288 25.9785C46.9718 26.0664 46.9295 26.1689 46.9019 26.2861C46.8758 26.4017 46.8628 26.5254 46.8628 26.6572ZM51.0742 25.3584V28H50.6201V25.3584H51.0742ZM50.5859 24.6577C50.5859 24.5845 50.6079 24.5226 50.6519 24.4722C50.6974 24.4217 50.7642 24.3965 50.8521 24.3965C50.9383 24.3965 51.0042 24.4217 51.0498 24.4722C51.097 24.5226 51.1206 24.5845 51.1206 24.6577C51.1206 24.7277 51.097 24.7879 51.0498 24.8384C51.0042 24.8872 50.9383 24.9116 50.8521 24.9116C50.7642 24.9116 50.6974 24.8872 50.6519 24.8384C50.6079 24.7879 50.5859 24.7277 50.5859 24.6577ZM52.251 25.9224V28H51.7993V25.3584H52.2266L52.251 25.9224ZM52.1436 26.5791L51.9556 26.5718C51.9572 26.3911 51.984 26.2243 52.0361 26.0713C52.0882 25.9167 52.1615 25.7824 52.2559 25.6685C52.3503 25.5545 52.4626 25.4666 52.5928 25.4048C52.7246 25.3413 52.8703 25.3096 53.0298 25.3096C53.16 25.3096 53.2772 25.3275 53.3813 25.3633C53.4855 25.3975 53.5742 25.4528 53.6475 25.5293C53.7223 25.6058 53.7793 25.7051 53.8184 25.8271C53.8574 25.9476 53.877 26.0949 53.877 26.269V28H53.4229V26.2642C53.4229 26.1258 53.4025 26.0151 53.3618 25.9321C53.3211 25.8475 53.2617 25.7865 53.1836 25.749C53.1055 25.71 53.0094 25.6904 52.8955 25.6904C52.7832 25.6904 52.6807 25.714 52.5879 25.7612C52.4967 25.8084 52.4178 25.8735 52.3511 25.9565C52.286 26.0396 52.2347 26.1348 52.1973 26.2422C52.1615 26.348 52.1436 26.4603 52.1436 26.5791ZM56.377 24.4453V28H55.9058V24.4453H56.377ZM58.4741 24.4453V28H58.0103V24.4453H58.4741ZM59.6167 24.4453V24.8311H56.8701V24.4453H59.6167ZM61.792 24.4453V28H61.3208V24.4453H61.792ZM63.0322 25.9224V28H62.5806V25.3584H63.0078L63.0322 25.9224ZM62.9248 26.5791L62.7368 26.5718C62.7384 26.3911 62.7653 26.2243 62.8174 26.0713C62.8695 25.9167 62.9427 25.7824 63.0371 25.6685C63.1315 25.5545 63.2438 25.4666 63.374 25.4048C63.5059 25.3413 63.6515 25.3096 63.811 25.3096C63.9412 25.3096 64.0584 25.3275 64.1626 25.3633C64.2668 25.3975 64.3555 25.4528 64.4287 25.5293C64.5036 25.6058 64.5605 25.7051 64.5996 25.8271C64.6387 25.9476 64.6582 26.0949 64.6582 26.269V28H64.2041V26.2642C64.2041 26.1258 64.1838 26.0151 64.1431 25.9321C64.1024 25.8475 64.043 25.7865 63.9648 25.749C63.8867 25.71 63.7907 25.6904 63.6768 25.6904C63.5645 25.6904 63.4619 25.714 63.3691 25.7612C63.278 25.8084 63.1991 25.8735 63.1323 25.9565C63.0672 26.0396 63.016 26.1348 62.9785 26.2422C62.9427 26.348 62.9248 26.4603 62.9248 26.5791ZM66.0181 28H65.5664V25.0801C65.5664 24.8896 65.6006 24.7293 65.6689 24.5991C65.7389 24.4673 65.839 24.368 65.9692 24.3013C66.0994 24.2329 66.2541 24.1987 66.4331 24.1987C66.4852 24.1987 66.5373 24.202 66.5894 24.2085C66.6431 24.215 66.6951 24.2248 66.7456 24.2378L66.7212 24.6064C66.687 24.5983 66.6479 24.5926 66.604 24.5894C66.5617 24.5861 66.5194 24.5845 66.4771 24.5845C66.381 24.5845 66.298 24.604 66.228 24.6431C66.1597 24.6805 66.1076 24.7358 66.0718 24.8091C66.036 24.8823 66.0181 24.9727 66.0181 25.0801V28ZM66.5796 25.3584V25.7051H65.1489V25.3584H66.5796ZM67.5342 25.7734V28H67.0825V25.3584H67.522L67.5342 25.7734ZM68.3594 25.3438L68.3569 25.7637C68.3195 25.7555 68.2837 25.7507 68.2495 25.749C68.217 25.7458 68.1795 25.7441 68.1372 25.7441C68.033 25.7441 67.9411 25.7604 67.8613 25.793C67.7816 25.8255 67.714 25.8711 67.6587 25.9297C67.6034 25.9883 67.5594 26.0583 67.5269 26.1396C67.4959 26.2194 67.4756 26.3073 67.4658 26.4033L67.3389 26.4766C67.3389 26.3171 67.3543 26.1673 67.3853 26.0273C67.4178 25.8874 67.4674 25.7637 67.5342 25.6562C67.6009 25.5472 67.6855 25.4626 67.7881 25.4023C67.8923 25.3405 68.016 25.3096 68.1592 25.3096C68.1917 25.3096 68.2292 25.3136 68.2715 25.3218C68.3138 25.3283 68.3431 25.3356 68.3594 25.3438ZM70.2368 27.5483V26.1885C70.2368 26.0843 70.2157 25.994 70.1733 25.9175C70.1326 25.8394 70.0708 25.7791 69.9878 25.7368C69.9048 25.6945 69.8022 25.6733 69.6802 25.6733C69.5662 25.6733 69.4661 25.6929 69.3799 25.7319C69.2952 25.771 69.2285 25.8223 69.1797 25.8857C69.1325 25.9492 69.1089 26.0176 69.1089 26.0908H68.6572C68.6572 25.9964 68.6816 25.9028 68.7305 25.8101C68.7793 25.7173 68.8493 25.6335 68.9404 25.5586C69.0332 25.4821 69.1439 25.4219 69.2725 25.3779C69.4027 25.3324 69.5475 25.3096 69.707 25.3096C69.8991 25.3096 70.0684 25.3421 70.2148 25.4072C70.363 25.4723 70.4785 25.5708 70.5615 25.7026C70.6462 25.8328 70.6885 25.9964 70.6885 26.1934V27.4238C70.6885 27.5117 70.6958 27.6053 70.7104 27.7046C70.7267 27.8039 70.7503 27.8893 70.7812 27.9609V28H70.3101C70.2873 27.9479 70.2694 27.8787 70.2563 27.7925C70.2433 27.7046 70.2368 27.6232 70.2368 27.5483ZM70.3149 26.3984L70.3198 26.7158H69.8633C69.7347 26.7158 69.62 26.7264 69.519 26.7476C69.4181 26.7671 69.3335 26.7972 69.2651 26.8379C69.1968 26.8786 69.1447 26.9299 69.1089 26.9917C69.0731 27.0519 69.0552 27.1227 69.0552 27.2041C69.0552 27.2871 69.0739 27.3628 69.1113 27.4312C69.1488 27.4995 69.2049 27.554 69.2798 27.5947C69.3563 27.6338 69.4499 27.6533 69.5605 27.6533C69.6989 27.6533 69.821 27.624 69.9268 27.5654C70.0326 27.5068 70.1164 27.4352 70.1782 27.3506C70.2417 27.266 70.2759 27.1838 70.2808 27.104L70.4736 27.3213C70.4622 27.3896 70.4313 27.4653 70.3809 27.5483C70.3304 27.6313 70.2629 27.7111 70.1782 27.7876C70.0952 27.8625 69.9959 27.9251 69.8804 27.9756C69.7664 28.0244 69.6379 28.0488 69.4946 28.0488C69.3156 28.0488 69.1585 28.0138 69.0234 27.9438C68.89 27.8739 68.7858 27.7803 68.7109 27.6631C68.6377 27.5443 68.6011 27.4116 68.6011 27.2651C68.6011 27.1235 68.6287 26.999 68.6841 26.8916C68.7394 26.7826 68.8192 26.6922 68.9233 26.6206C69.0275 26.5474 69.1528 26.492 69.2993 26.4546C69.4458 26.4172 69.6094 26.3984 69.79 26.3984H70.3149ZM72.937 27.2993C72.937 27.2342 72.9224 27.174 72.8931 27.1187C72.8654 27.0617 72.8076 27.0104 72.7197 26.9648C72.6335 26.9176 72.5033 26.877 72.3291 26.8428C72.1826 26.8118 72.05 26.7752 71.9312 26.7329C71.814 26.6906 71.7139 26.6393 71.6309 26.5791C71.5495 26.5189 71.4868 26.4481 71.4429 26.3667C71.3989 26.2853 71.377 26.1901 71.377 26.0811C71.377 25.9769 71.3997 25.8784 71.4453 25.7856C71.4925 25.6929 71.5584 25.6107 71.6431 25.5391C71.7293 25.4674 71.8327 25.4113 71.9531 25.3706C72.0736 25.3299 72.2078 25.3096 72.356 25.3096C72.5675 25.3096 72.7482 25.347 72.8979 25.4219C73.0477 25.4967 73.1624 25.5968 73.2422 25.7222C73.3219 25.8459 73.3618 25.9834 73.3618 26.1348H72.9102C72.9102 26.0615 72.8882 25.9907 72.8442 25.9224C72.8019 25.8524 72.7393 25.7946 72.6562 25.749C72.5749 25.7035 72.4748 25.6807 72.356 25.6807C72.2306 25.6807 72.1289 25.7002 72.0508 25.7393C71.9743 25.7767 71.9181 25.8247 71.8823 25.8833C71.8481 25.9419 71.8311 26.0037 71.8311 26.0688C71.8311 26.1177 71.8392 26.1616 71.8555 26.2007C71.8734 26.2381 71.9043 26.2731 71.9482 26.3057C71.9922 26.3366 72.054 26.3659 72.1338 26.3936C72.2135 26.4212 72.3153 26.4489 72.439 26.4766C72.6554 26.5254 72.8337 26.584 72.9736 26.6523C73.1136 26.7207 73.2178 26.8045 73.2861 26.9038C73.3545 27.0031 73.3887 27.1235 73.3887 27.2651C73.3887 27.3807 73.3643 27.4865 73.3154 27.5825C73.2682 27.6785 73.1991 27.7616 73.1079 27.8315C73.0184 27.8999 72.911 27.9536 72.7856 27.9927C72.6619 28.0301 72.5228 28.0488 72.3682 28.0488C72.1354 28.0488 71.9385 28.0073 71.7773 27.9243C71.6162 27.8413 71.4941 27.7339 71.4111 27.6021C71.3281 27.4702 71.2866 27.3311 71.2866 27.1846H71.7407C71.7472 27.3083 71.783 27.4067 71.8481 27.48C71.9132 27.5516 71.993 27.6029 72.0874 27.6338C72.1818 27.6631 72.2754 27.6777 72.3682 27.6777C72.4919 27.6777 72.5952 27.6615 72.6782 27.6289C72.7629 27.5964 72.8271 27.5516 72.8711 27.4946C72.915 27.4377 72.937 27.3726 72.937 27.2993ZM75.0879 25.3584V25.7051H73.6597V25.3584H75.0879ZM74.1431 24.7163H74.5947V27.3457C74.5947 27.4352 74.6086 27.5028 74.6362 27.5483C74.6639 27.5939 74.6997 27.624 74.7437 27.6387C74.7876 27.6533 74.8348 27.6606 74.8853 27.6606C74.9227 27.6606 74.9618 27.6574 75.0024 27.6509C75.0448 27.6427 75.0765 27.6362 75.0977 27.6313L75.1001 28C75.0643 28.0114 75.0171 28.022 74.9585 28.0317C74.9015 28.0431 74.8324 28.0488 74.751 28.0488C74.6403 28.0488 74.5386 28.0269 74.4458 27.9829C74.353 27.939 74.279 27.8657 74.2236 27.7632C74.1699 27.659 74.1431 27.519 74.1431 27.3433V24.7163ZM76.0693 25.7734V28H75.6177V25.3584H76.0571L76.0693 25.7734ZM76.8945 25.3438L76.8921 25.7637C76.8547 25.7555 76.8188 25.7507 76.7847 25.749C76.7521 25.7458 76.7147 25.7441 76.6724 25.7441C76.5682 25.7441 76.4762 25.7604 76.3965 25.793C76.3167 25.8255 76.2492 25.8711 76.1938 25.9297C76.1385 25.9883 76.0946 26.0583 76.062 26.1396C76.0311 26.2194 76.0107 26.3073 76.001 26.4033L75.874 26.4766C75.874 26.3171 75.8895 26.1673 75.9204 26.0273C75.953 25.8874 76.0026 25.7637 76.0693 25.6562C76.1361 25.5472 76.2207 25.4626 76.3232 25.4023C76.4274 25.3405 76.5511 25.3096 76.6943 25.3096C76.7269 25.3096 76.7643 25.3136 76.8066 25.3218C76.849 25.3283 76.8783 25.3356 76.8945 25.3438ZM78.9282 27.3896V25.3584H79.3823V28H78.9502L78.9282 27.3896ZM79.0137 26.833L79.2017 26.8281C79.2017 27.0039 79.1829 27.1667 79.1455 27.3164C79.1097 27.4645 79.0511 27.5931 78.9697 27.7021C78.8883 27.8112 78.7817 27.8966 78.6499 27.9585C78.5181 28.0187 78.3577 28.0488 78.1689 28.0488C78.0404 28.0488 77.9224 28.0301 77.8149 27.9927C77.7091 27.9552 77.618 27.8975 77.5415 27.8193C77.465 27.7412 77.4056 27.6395 77.3633 27.5142C77.3226 27.3888 77.3022 27.2383 77.3022 27.0625V25.3584H77.7539V27.0674C77.7539 27.1862 77.7669 27.2847 77.793 27.3628C77.8206 27.4393 77.8573 27.5003 77.9028 27.5459C77.95 27.5898 78.0021 27.6208 78.0591 27.6387C78.1177 27.6566 78.1779 27.6655 78.2397 27.6655C78.4318 27.6655 78.584 27.6289 78.6963 27.5557C78.8086 27.4808 78.8892 27.3807 78.938 27.2554C78.9884 27.1284 79.0137 26.9876 79.0137 26.833ZM81.1279 27.6777C81.2354 27.6777 81.3346 27.6558 81.4258 27.6118C81.5169 27.5679 81.5918 27.5076 81.6504 27.4312C81.709 27.353 81.7424 27.2643 81.7505 27.165H82.1802C82.172 27.3213 82.1191 27.467 82.0215 27.6021C81.9255 27.7355 81.7993 27.8438 81.6431 27.9268C81.4868 28.0081 81.3151 28.0488 81.1279 28.0488C80.9294 28.0488 80.756 28.0138 80.6079 27.9438C80.4614 27.8739 80.3394 27.7778 80.2417 27.6558C80.1457 27.5337 80.0732 27.3937 80.0244 27.2358C79.9772 27.0763 79.9536 26.9079 79.9536 26.7305V26.6279C79.9536 26.4505 79.9772 26.2829 80.0244 26.125C80.0732 25.9655 80.1457 25.8247 80.2417 25.7026C80.3394 25.5806 80.4614 25.4845 80.6079 25.4146C80.756 25.3446 80.9294 25.3096 81.1279 25.3096C81.3346 25.3096 81.5153 25.3519 81.6699 25.4365C81.8245 25.5195 81.9458 25.6335 82.0337 25.7783C82.1232 25.9215 82.172 26.0843 82.1802 26.2666H81.7505C81.7424 26.1576 81.7114 26.0591 81.6577 25.9712C81.6056 25.8833 81.534 25.8133 81.4429 25.7612C81.3534 25.7075 81.2484 25.6807 81.1279 25.6807C80.9896 25.6807 80.8732 25.7083 80.7788 25.7637C80.686 25.8174 80.612 25.8906 80.5566 25.9834C80.5029 26.0745 80.4639 26.1763 80.4395 26.2886C80.4167 26.3993 80.4053 26.5124 80.4053 26.6279V26.7305C80.4053 26.846 80.4167 26.96 80.4395 27.0723C80.4622 27.1846 80.5005 27.2863 80.5542 27.3774C80.6095 27.4686 80.6836 27.5418 80.7764 27.5972C80.8708 27.6509 80.988 27.6777 81.1279 27.6777ZM83.7939 25.3584V25.7051H82.3657V25.3584H83.7939ZM82.8491 24.7163H83.3008V27.3457C83.3008 27.4352 83.3146 27.5028 83.3423 27.5483C83.37 27.5939 83.4058 27.624 83.4497 27.6387C83.4937 27.6533 83.5409 27.6606 83.5913 27.6606C83.6287 27.6606 83.6678 27.6574 83.7085 27.6509C83.7508 27.6427 83.7826 27.6362 83.8037 27.6313L83.8062 28C83.7703 28.0114 83.7231 28.022 83.6646 28.0317C83.6076 28.0431 83.5384 28.0488 83.457 28.0488C83.3464 28.0488 83.2446 28.0269 83.1519 27.9829C83.0591 27.939 82.985 27.8657 82.9297 27.7632C82.876 27.659 82.8491 27.519 82.8491 27.3433V24.7163ZM85.9399 27.3896V25.3584H86.394V28H85.9619L85.9399 27.3896ZM86.0254 26.833L86.2134 26.8281C86.2134 27.0039 86.1947 27.1667 86.1572 27.3164C86.1214 27.4645 86.0628 27.5931 85.9814 27.7021C85.9001 27.8112 85.7935 27.8966 85.6616 27.9585C85.5298 28.0187 85.3695 28.0488 85.1807 28.0488C85.0521 28.0488 84.9341 28.0301 84.8267 27.9927C84.7209 27.9552 84.6297 27.8975 84.5532 27.8193C84.4767 27.7412 84.4173 27.6395 84.375 27.5142C84.3343 27.3888 84.314 27.2383 84.314 27.0625V25.3584H84.7656V27.0674C84.7656 27.1862 84.7786 27.2847 84.8047 27.3628C84.8324 27.4393 84.869 27.5003 84.9146 27.5459C84.9618 27.5898 85.0138 27.6208 85.0708 27.6387C85.1294 27.6566 85.1896 27.6655 85.2515 27.6655C85.4435 27.6655 85.5957 27.6289 85.708 27.5557C85.8203 27.4808 85.9009 27.3807 85.9497 27.2554C86.0002 27.1284 86.0254 26.9876 86.0254 26.833ZM87.5342 25.7734V28H87.0825V25.3584H87.522L87.5342 25.7734ZM88.3594 25.3438L88.3569 25.7637C88.3195 25.7555 88.2837 25.7507 88.2495 25.749C88.217 25.7458 88.1795 25.7441 88.1372 25.7441C88.033 25.7441 87.9411 25.7604 87.8613 25.793C87.7816 25.8255 87.714 25.8711 87.6587 25.9297C87.6034 25.9883 87.5594 26.0583 87.5269 26.1396C87.4959 26.2194 87.4756 26.3073 87.4658 26.4033L87.3389 26.4766C87.3389 26.3171 87.3543 26.1673 87.3853 26.0273C87.4178 25.8874 87.4674 25.7637 87.5342 25.6562C87.6009 25.5472 87.6855 25.4626 87.7881 25.4023C87.8923 25.3405 88.016 25.3096 88.1592 25.3096C88.1917 25.3096 88.2292 25.3136 88.2715 25.3218C88.3138 25.3283 88.3431 25.3356 88.3594 25.3438ZM89.8242 28.0488C89.6403 28.0488 89.4735 28.0179 89.3237 27.9561C89.1756 27.8926 89.0479 27.8039 88.9404 27.6899C88.8346 27.576 88.7533 27.4409 88.6963 27.2847C88.6393 27.1284 88.6108 26.9575 88.6108 26.772V26.6694C88.6108 26.4546 88.6426 26.2633 88.7061 26.0957C88.7695 25.9264 88.8558 25.7832 88.9648 25.666C89.0739 25.5488 89.1976 25.4601 89.3359 25.3999C89.4743 25.3397 89.6175 25.3096 89.7656 25.3096C89.9544 25.3096 90.1172 25.3421 90.2539 25.4072C90.3923 25.4723 90.5054 25.5635 90.5933 25.6807C90.6812 25.7962 90.7463 25.9329 90.7886 26.0908C90.8309 26.2471 90.8521 26.418 90.8521 26.6035V26.8062H88.8794V26.4375H90.4004V26.4033C90.3939 26.2861 90.3695 26.1722 90.3271 26.0615C90.2865 25.9508 90.2214 25.8597 90.1318 25.7881C90.0423 25.7165 89.9202 25.6807 89.7656 25.6807C89.6631 25.6807 89.5687 25.7026 89.4824 25.7466C89.3962 25.7889 89.3221 25.8524 89.2603 25.937C89.1984 26.0216 89.1504 26.125 89.1162 26.2471C89.082 26.3691 89.0649 26.5099 89.0649 26.6694V26.772C89.0649 26.8973 89.082 27.0153 89.1162 27.126C89.152 27.235 89.2033 27.3311 89.27 27.4141C89.3384 27.4971 89.4206 27.5622 89.5166 27.6094C89.6143 27.6566 89.7249 27.6802 89.8486 27.6802C90.0081 27.6802 90.1432 27.6476 90.2539 27.5825C90.3646 27.5174 90.4614 27.4303 90.5444 27.3213L90.8179 27.5386C90.7609 27.6248 90.6885 27.707 90.6006 27.7852C90.5127 27.8633 90.4045 27.9268 90.2759 27.9756C90.1489 28.0244 89.9984 28.0488 89.8242 28.0488ZM92.8369 24.4453H93.2935L94.458 27.3433L95.6201 24.4453H96.0791L94.6338 28H94.2773L92.8369 24.4453ZM92.688 24.4453H93.0908L93.1567 26.6133V28H92.688V24.4453ZM95.8228 24.4453H96.2256V28H95.7568V26.6133L95.8228 24.4453ZM96.8652 26.7085V26.6523C96.8652 26.4619 96.8929 26.2853 96.9482 26.1226C97.0036 25.9582 97.0833 25.8158 97.1875 25.6953C97.2917 25.5732 97.4178 25.4788 97.5659 25.4121C97.714 25.3438 97.88 25.3096 98.064 25.3096C98.2495 25.3096 98.4163 25.3438 98.5645 25.4121C98.7142 25.4788 98.8411 25.5732 98.9453 25.6953C99.0511 25.8158 99.1317 25.9582 99.187 26.1226C99.2424 26.2853 99.27 26.4619 99.27 26.6523V26.7085C99.27 26.8989 99.2424 27.0755 99.187 27.2383C99.1317 27.401 99.0511 27.5435 98.9453 27.6655C98.8411 27.786 98.715 27.8804 98.5669 27.9487C98.4204 28.0155 98.2544 28.0488 98.0688 28.0488C97.8833 28.0488 97.7165 28.0155 97.5684 27.9487C97.4202 27.8804 97.2933 27.786 97.1875 27.6655C97.0833 27.5435 97.0036 27.401 96.9482 27.2383C96.8929 27.0755 96.8652 26.8989 96.8652 26.7085ZM97.3169 26.6523V26.7085C97.3169 26.8403 97.3324 26.9648 97.3633 27.082C97.3942 27.1976 97.4406 27.3001 97.5024 27.3896C97.5659 27.4792 97.6449 27.55 97.7393 27.6021C97.8337 27.6525 97.9435 27.6777 98.0688 27.6777C98.1925 27.6777 98.3008 27.6525 98.3936 27.6021C98.488 27.55 98.5661 27.4792 98.6279 27.3896C98.6898 27.3001 98.7362 27.1976 98.7671 27.082C98.7996 26.9648 98.8159 26.8403 98.8159 26.7085V26.6523C98.8159 26.5221 98.7996 26.3993 98.7671 26.2837C98.7362 26.1665 98.689 26.0632 98.6255 25.9736C98.5636 25.8825 98.4855 25.8109 98.3911 25.7588C98.2983 25.7067 98.1893 25.6807 98.064 25.6807C97.9403 25.6807 97.8312 25.7067 97.7368 25.7588C97.644 25.8109 97.5659 25.8825 97.5024 25.9736C97.4406 26.0632 97.3942 26.1665 97.3633 26.2837C97.3324 26.3993 97.3169 26.5221 97.3169 26.6523ZM100.288 25.9224V28H99.8364V25.3584H100.264L100.288 25.9224ZM100.181 26.5791L99.9927 26.5718C99.9943 26.3911 100.021 26.2243 100.073 26.0713C100.125 25.9167 100.199 25.7824 100.293 25.6685C100.387 25.5545 100.5 25.4666 100.63 25.4048C100.762 25.3413 100.907 25.3096 101.067 25.3096C101.197 25.3096 101.314 25.3275 101.418 25.3633C101.523 25.3975 101.611 25.4528 101.685 25.5293C101.759 25.6058 101.816 25.7051 101.855 25.8271C101.895 25.9476 101.914 26.0949 101.914 26.269V28H101.46V26.2642C101.46 26.1258 101.44 26.0151 101.399 25.9321C101.358 25.8475 101.299 25.7865 101.221 25.749C101.143 25.71 101.047 25.6904 100.933 25.6904C100.82 25.6904 100.718 25.714 100.625 25.7612C100.534 25.8084 100.455 25.8735 100.388 25.9565C100.323 26.0396 100.272 26.1348 100.234 26.2422C100.199 26.348 100.181 26.4603 100.181 26.5791ZM103.091 25.3584V28H102.637V25.3584H103.091ZM102.603 24.6577C102.603 24.5845 102.625 24.5226 102.668 24.4722C102.714 24.4217 102.781 24.3965 102.869 24.3965C102.955 24.3965 103.021 24.4217 103.066 24.4722C103.114 24.5226 103.137 24.5845 103.137 24.6577C103.137 24.7277 103.114 24.7879 103.066 24.8384C103.021 24.8872 102.955 24.9116 102.869 24.9116C102.781 24.9116 102.714 24.8872 102.668 24.8384C102.625 24.7879 102.603 24.7277 102.603 24.6577ZM104.922 25.3584V25.7051H103.494V25.3584H104.922ZM103.977 24.7163H104.429V27.3457C104.429 27.4352 104.443 27.5028 104.47 27.5483C104.498 27.5939 104.534 27.624 104.578 27.6387C104.622 27.6533 104.669 27.6606 104.719 27.6606C104.757 27.6606 104.796 27.6574 104.836 27.6509C104.879 27.6427 104.91 27.6362 104.932 27.6313L104.934 28C104.898 28.0114 104.851 28.022 104.792 28.0317C104.736 28.0431 104.666 28.0488 104.585 28.0488C104.474 28.0488 104.373 28.0269 104.28 27.9829C104.187 27.939 104.113 27.8657 104.058 27.7632C104.004 27.659 103.977 27.519 103.977 27.3433V24.7163ZM105.283 26.7085V26.6523C105.283 26.4619 105.311 26.2853 105.366 26.1226C105.422 25.9582 105.501 25.8158 105.605 25.6953C105.71 25.5732 105.836 25.4788 105.984 25.4121C106.132 25.3438 106.298 25.3096 106.482 25.3096C106.667 25.3096 106.834 25.3438 106.982 25.4121C107.132 25.4788 107.259 25.5732 107.363 25.6953C107.469 25.8158 107.55 25.9582 107.605 26.1226C107.66 26.2853 107.688 26.4619 107.688 26.6523V26.7085C107.688 26.8989 107.66 27.0755 107.605 27.2383C107.55 27.401 107.469 27.5435 107.363 27.6655C107.259 27.786 107.133 27.8804 106.985 27.9487C106.838 28.0155 106.672 28.0488 106.487 28.0488C106.301 28.0488 106.134 28.0155 105.986 27.9487C105.838 27.8804 105.711 27.786 105.605 27.6655C105.501 27.5435 105.422 27.401 105.366 27.2383C105.311 27.0755 105.283 26.8989 105.283 26.7085ZM105.735 26.6523V26.7085C105.735 26.8403 105.75 26.9648 105.781 27.082C105.812 27.1976 105.859 27.3001 105.92 27.3896C105.984 27.4792 106.063 27.55 106.157 27.6021C106.252 27.6525 106.361 27.6777 106.487 27.6777C106.611 27.6777 106.719 27.6525 106.812 27.6021C106.906 27.55 106.984 27.4792 107.046 27.3896C107.108 27.3001 107.154 27.1976 107.185 27.082C107.218 26.9648 107.234 26.8403 107.234 26.7085V26.6523C107.234 26.5221 107.218 26.3993 107.185 26.2837C107.154 26.1665 107.107 26.0632 107.043 25.9736C106.982 25.8825 106.903 25.8109 106.809 25.7588C106.716 25.7067 106.607 25.6807 106.482 25.6807C106.358 25.6807 106.249 25.7067 106.155 25.7588C106.062 25.8109 105.984 25.8825 105.92 25.9736C105.859 26.0632 105.812 26.1665 105.781 26.2837C105.75 26.3993 105.735 26.5221 105.735 26.6523ZM108.706 25.7734V28H108.254V25.3584H108.694L108.706 25.7734ZM109.531 25.3438L109.529 25.7637C109.491 25.7555 109.456 25.7507 109.421 25.749C109.389 25.7458 109.351 25.7441 109.309 25.7441C109.205 25.7441 109.113 25.7604 109.033 25.793C108.953 25.8255 108.886 25.8711 108.831 25.9297C108.775 25.9883 108.731 26.0583 108.699 26.1396C108.668 26.2194 108.647 26.3073 108.638 26.4033L108.511 26.4766C108.511 26.3171 108.526 26.1673 108.557 26.0273C108.59 25.8874 108.639 25.7637 108.706 25.6562C108.773 25.5472 108.857 25.4626 108.96 25.4023C109.064 25.3405 109.188 25.3096 109.331 25.3096C109.364 25.3096 109.401 25.3136 109.443 25.3218C109.486 25.3283 109.515 25.3356 109.531 25.3438ZM110.439 25.3584V28H109.985V25.3584H110.439ZM109.951 24.6577C109.951 24.5845 109.973 24.5226 110.017 24.4722C110.063 24.4217 110.129 24.3965 110.217 24.3965C110.304 24.3965 110.369 24.4217 110.415 24.4722C110.462 24.5226 110.486 24.5845 110.486 24.6577C110.486 24.7277 110.462 24.7879 110.415 24.8384C110.369 24.8872 110.304 24.9116 110.217 24.9116C110.129 24.9116 110.063 24.8872 110.017 24.8384C109.973 24.7879 109.951 24.7277 109.951 24.6577ZM111.616 25.9224V28H111.165V25.3584H111.592L111.616 25.9224ZM111.509 26.5791L111.321 26.5718C111.322 26.3911 111.349 26.2243 111.401 26.0713C111.453 25.9167 111.527 25.7824 111.621 25.6685C111.715 25.5545 111.828 25.4666 111.958 25.4048C112.09 25.3413 112.236 25.3096 112.395 25.3096C112.525 25.3096 112.642 25.3275 112.747 25.3633C112.851 25.3975 112.939 25.4528 113.013 25.5293C113.088 25.6058 113.145 25.7051 113.184 25.8271C113.223 25.9476 113.242 26.0949 113.242 26.269V28H112.788V26.2642C112.788 26.1258 112.768 26.0151 112.727 25.9321C112.686 25.8475 112.627 25.7865 112.549 25.749C112.471 25.71 112.375 25.6904 112.261 25.6904C112.148 25.6904 112.046 25.714 111.953 25.7612C111.862 25.8084 111.783 25.8735 111.716 25.9565C111.651 26.0396 111.6 26.1348 111.562 26.2422C111.527 26.348 111.509 26.4603 111.509 26.5791ZM115.64 25.3584H116.05V27.9438C116.05 28.1766 116.003 28.3752 115.908 28.5396C115.814 28.7039 115.682 28.8285 115.513 28.9131C115.345 28.9993 115.151 29.0425 114.932 29.0425C114.84 29.0425 114.733 29.0278 114.609 28.9985C114.487 28.9709 114.367 28.9229 114.248 28.8545C114.131 28.7878 114.032 28.6974 113.953 28.5835L114.189 28.3149C114.3 28.4484 114.416 28.5412 114.536 28.5933C114.658 28.6453 114.779 28.6714 114.897 28.6714C115.041 28.6714 115.164 28.6445 115.269 28.5908C115.373 28.5371 115.453 28.4574 115.51 28.3516C115.569 28.2474 115.598 28.1188 115.598 27.9658V25.9395L115.64 25.3584ZM113.821 26.7085V26.6572C113.821 26.4554 113.844 26.2723 113.892 26.1079C113.94 25.9419 114.01 25.7995 114.099 25.6807C114.19 25.5618 114.3 25.4707 114.429 25.4072C114.557 25.3421 114.702 25.3096 114.863 25.3096C115.029 25.3096 115.174 25.3389 115.298 25.3975C115.423 25.4544 115.529 25.5382 115.615 25.6489C115.703 25.758 115.772 25.8898 115.823 26.0444C115.873 26.1991 115.908 26.374 115.928 26.5693V26.7939C115.91 26.9876 115.875 27.1618 115.823 27.3164C115.772 27.471 115.703 27.6029 115.615 27.7119C115.529 27.821 115.423 27.9048 115.298 27.9634C115.173 28.0203 115.026 28.0488 114.858 28.0488C114.701 28.0488 114.557 28.0155 114.429 27.9487C114.302 27.882 114.193 27.7884 114.102 27.668C114.01 27.5475 113.94 27.4059 113.892 27.2432C113.844 27.0788 113.821 26.9006 113.821 26.7085ZM114.272 26.6572V26.7085C114.272 26.8403 114.285 26.964 114.312 27.0796C114.339 27.1951 114.381 27.2969 114.436 27.3848C114.493 27.4727 114.565 27.5418 114.653 27.5923C114.741 27.6411 114.846 27.6655 114.968 27.6655C115.118 27.6655 115.242 27.6338 115.339 27.5703C115.437 27.5068 115.514 27.423 115.571 27.3188C115.63 27.2147 115.675 27.1016 115.708 26.9795V26.3911C115.69 26.3016 115.662 26.2153 115.625 26.1323C115.589 26.0477 115.542 25.9728 115.483 25.9077C115.426 25.841 115.356 25.7881 115.271 25.749C115.186 25.71 115.087 25.6904 114.973 25.6904C114.849 25.6904 114.743 25.7165 114.653 25.7686C114.565 25.819 114.493 25.889 114.436 25.9785C114.381 26.0664 114.339 26.1689 114.312 26.2861C114.285 26.4017 114.272 26.5254 114.272 26.6572Z" fill="black"/>
<defs>
<clipPath id="clip0_12_5315">
<rect width="88" height="21" fill="white"/>
</clipPath>
</defs>
</svg>
