<svg width="718" height="142" viewBox="0 0 718 142" fill="none" xmlns="http://www.w3.org/2000/svg">
<g clip-path="url(#clip0_7526_15058)">
<path d="M99.5182 49.1837L123.277 35.5112V106.489L61.6387 141.977V114.632L99.5182 92.8162V49.1837Z" fill="#00AC69"/>
<path d="M61.6384 27.2928L23.6841 49.1837L0 35.5112L61.6384 0.0224609L123.277 35.5112L99.5179 49.1837L61.6384 27.2928Z" fill="#1CE783"/>
<path d="M37.9543 84.6728L0 62.7818V35.5115L61.6384 71.0002V141.978L37.9543 128.305V84.6728ZM235.795 65.322V107.834H218.312V66.7416C218.312 57.7013 212.036 51.4254 202.921 51.4254C193.881 51.4254 187.605 57.7013 187.605 66.7416V107.834H170.122V36.7816H186.185L187.605 43.7299H188.277C188.277 43.7299 194.553 35.4368 207.852 35.4368C223.915 35.4368 235.795 47.2414 235.795 65.322ZM318.129 70.9255C318.178 71.5232 318.178 72.1209 318.129 72.7186C318.129 73.3163 318.079 73.8891 317.979 74.437C317.929 75.0347 317.855 75.6325 317.755 76.2302C317.705 76.7781 317.606 77.3509 317.456 77.9486H264.41C265.755 87.6613 273.077 94.0119 283.238 94.0119C291.979 94.0119 298.33 88.4084 299.973 85.5693L315.962 91.2475C311.554 98.8683 300.945 109.253 283.238 109.253C261.421 109.253 246.927 93.9372 246.927 72.3451C246.927 50.753 262.318 35.4368 283.238 35.4368C302.812 35.4368 318.129 50.753 318.129 70.9255ZM300.721 66.0692C299.301 57.0289 293.025 50.0058 283.238 50.0058C272.778 50.0058 266.502 57.0289 264.41 66.0692H300.721ZM396.129 83.4773L408.009 36.7816H426.164L408.009 107.834H386.715L374.836 61.8852H373.865L361.985 107.834H340.692L322.537 36.7816H340.692L352.571 83.4773H353.617L365.497 36.7816H383.204L395.083 83.4773H396.129ZM482.049 40.4425C482.996 39.6456 484.017 38.9981 485.113 38.5C486.208 37.9521 487.354 37.5287 488.549 37.2299C489.695 36.931 490.89 36.7816 492.136 36.7816H502.521V53.5174H493.555C484.44 53.5174 480.256 57.7013 480.256 66.7416V107.834H462.848V36.7816H477.492L478.911 43.0575H479.584C480.331 42.1111 481.153 41.2395 482.049 40.4425ZM576.039 70.9255V72.7186C575.989 73.3163 575.939 73.8891 575.889 74.437C575.839 75.0347 575.765 75.6325 575.665 76.2302C575.565 76.7781 575.466 77.3509 575.366 77.9486H522.32C523.665 87.6613 530.986 94.0119 541.147 94.0119C549.889 94.0119 556.24 88.4084 557.809 85.5693L573.872 91.2475C569.464 98.8683 558.78 109.253 541.147 109.253C519.331 109.253 504.837 93.9372 504.837 72.3451C504.837 50.753 520.228 35.4368 541.147 35.4368C560.648 35.4368 576.039 50.753 576.039 70.9255ZM558.556 66.0692C557.211 57.0289 550.935 50.0058 541.147 50.0058C530.688 50.0058 524.412 57.0289 522.32 66.0692H558.556ZM577.981 24.2298V8.76416H605.326V107.834H587.918V24.2298H577.981ZM619.596 8.76416H637.079V26.1723H619.596V8.76416ZM619.596 36.7816H637.079V107.834H619.596V36.7816ZM701.333 81.3854L717.172 86.9889C713.436 97.374 704.022 109.253 685.269 109.253C664.275 109.253 648.959 93.9372 648.959 72.3451C648.959 50.753 664.275 35.4368 685.269 35.4368C703.873 35.4368 713.287 47.0173 717.097 56.9542L701.333 62.5576C699.913 58.3737 695.729 51.4254 685.269 51.4254C674.735 51.4254 666.367 59.7933 666.367 72.3451C666.367 84.8222 674.735 93.19 685.269 93.19C695.729 93.19 699.913 86.2417 701.333 81.3854Z" fill="#1D252C"/>
</g>
<defs>
<clipPath id="clip0_7526_15058">
<rect width="718" height="142" fill="white"/>
</clipPath>
</defs>
</svg>
