<svg width="108" height="31" viewBox="0 0 108 31" fill="none" xmlns="http://www.w3.org/2000/svg">
<path fill-rule="evenodd" clip-rule="evenodd" d="M91.7362 21.8822C91.6811 21.9307 91.6096 21.9568 91.5364 21.9568H87.6338C87.5104 21.9568 87.39 21.89 87.3392 21.7748C87.2805 21.6422 87.3145 21.4876 87.4207 21.3979L94.5423 15.2658C94.701 15.1288 94.7015 14.879 94.5432 14.7417L87.4315 8.56817C87.3452 8.49302 87.2949 8.3781 87.3145 8.26406C87.3412 8.10708 87.4729 8 87.6216 8H91.3771C91.4492 8 91.5193 8.02612 91.577 8.07429L99.327 14.7397L99.3971 14.8009C99.5163 14.9048 99.5194 15.092 99.4039 15.2002L99.3273 15.2719L91.7362 21.8822Z" fill="#A8CB3A"/>
<path fill-rule="evenodd" clip-rule="evenodd" d="M15.6377 8.09749H13.2564C12.9709 8.09749 12.7371 8.3366 12.7371 8.62881V16.4979C12.7371 16.6827 12.5242 16.782 12.3877 16.6604L3.57388 8.8154C2.97303 8.28089 2.31996 8.0087 1.63084 8.0087C1.02261 8.0087 0 8.2626 0 9.96074V21.3454C0 21.6387 0.23245 21.8764 0.519393 21.8764H2.89924C3.1859 21.8764 3.41835 21.6387 3.41835 21.3456V13.4438C3.41835 13.2586 3.6315 13.1597 3.76801 13.2816L12.6749 21.2452C13.2269 21.7461 13.8272 22 14.4593 22C15.0933 22 16.1565 21.7348 16.1565 19.9586V8.62823C16.1565 8.33631 15.923 8.09749 15.6377 8.09749Z" fill="#174489"/>
<path fill-rule="evenodd" clip-rule="evenodd" d="M33.0568 8.0975H30.289C30.1198 8.0975 29.9808 8.23853 29.9808 8.41264V17.6285C29.9808 18.3876 29.0589 18.7726 27.2393 18.7726H23.475C21.6214 18.7726 20.6802 18.3876 20.6802 17.6285V8.41264C20.6802 8.23853 20.5423 8.0975 20.3717 8.0975H17.5698C17.399 8.0975 17.2607 8.23853 17.2607 8.41264V17.7701C17.2607 18.4192 17.3683 18.9792 17.5772 19.4354C17.7852 19.8863 18.0685 20.2743 18.4202 20.5886C18.7644 20.8956 19.1689 21.1396 19.6196 21.3123C20.057 21.4815 20.5179 21.6086 20.987 21.6924C21.4539 21.7786 21.9398 21.8303 22.4314 21.8494C22.9102 21.8674 23.3603 21.8764 23.7821 21.8764H26.8451C29.0935 21.8764 30.6937 21.5584 31.7385 20.9052C32.8181 20.2296 33.3659 19.1757 33.3659 17.7701V8.41264C33.3659 8.23853 33.2268 8.0975 33.0568 8.0975Z" fill="#174489"/>
<path fill-rule="evenodd" clip-rule="evenodd" d="M49.2386 10.5295V8.71588C49.2386 8.36476 48.9605 8.08038 48.617 8.08038H35.0796C34.7362 8.08038 34.4578 8.36505 34.4578 8.71617V10.5295C34.4578 10.8806 34.7362 11.1656 35.0799 11.1656H39.8155C39.9886 11.1656 40.1291 11.3089 40.1291 11.4859V21.2406C40.1291 21.5917 40.4075 21.8764 40.7509 21.8764H42.9264C43.2701 21.8764 43.5489 21.5914 43.5489 21.2403V11.4859C43.5489 11.3089 43.6891 11.1656 43.8622 11.1656H48.6165C48.9602 11.1656 49.2386 10.8809 49.2386 10.5295Z" fill="#174489"/>
<path fill-rule="evenodd" clip-rule="evenodd" d="M52.7869 14.953L54.5211 12.4046C54.6003 12.2877 54.7691 12.2871 54.8495 12.4032L56.6043 14.9335C56.6861 15.0511 56.6038 15.2139 56.4627 15.2139H52.9203C52.7892 15.2139 52.712 15.063 52.7869 14.953ZM56.6029 9.02984C56.1366 8.36417 55.5193 8.02611 54.768 8.02611C54.0269 8.02611 53.4156 8.37055 52.9481 9.05189L44.5975 21.3802C44.5178 21.4974 44.5235 21.657 44.62 21.7696C44.6827 21.8424 44.7783 21.8764 44.8731 21.8764H48.1558C48.2603 21.8764 48.3585 21.8218 48.4152 21.7322L50.5124 18.4334C50.5584 18.3611 50.6367 18.3176 50.721 18.3176C50.721 18.3176 57.7129 18.3159 58.7713 18.3173C58.8553 18.3173 58.9328 18.3603 58.9791 18.4319L61.1236 21.7348C61.1804 21.8233 61.2772 21.8764 61.3808 21.8764H64.5312C64.6444 21.8764 64.7497 21.812 64.8028 21.7078C64.8567 21.6048 64.8502 21.4803 64.7863 21.3837L56.6029 9.02984Z" fill="#174489"/>
<path fill-rule="evenodd" clip-rule="evenodd" d="M81.2366 8.09749H78.7897C78.5215 8.09749 78.3038 8.32006 78.3038 8.59457V16.5719C78.3038 16.728 78.1242 16.8116 78.0089 16.7092L69.1409 8.8154C68.5404 8.28089 67.8862 8.0087 67.1962 8.0087C66.588 8.0087 65.5659 8.2626 65.5659 9.96074V21.379C65.5659 21.6527 65.7847 21.8764 66.0524 21.8764H68.4984C68.7671 21.8764 68.9851 21.6535 68.9851 21.3787V13.3695C68.9851 13.2131 69.1651 13.1298 69.2803 13.2325L78.2417 21.2452C78.7931 21.7461 79.394 22 80.0261 22C80.6595 22 81.7233 21.7348 81.7233 19.9586V8.59515C81.7233 8.32035 81.5053 8.09749 81.2366 8.09749Z" fill="#174489"/>
<path fill-rule="evenodd" clip-rule="evenodd" d="M85.9223 8.0975H83.1215C82.9509 8.0975 82.813 8.23853 82.813 8.41264V21.561C82.813 21.7348 82.9509 21.8764 83.1215 21.8764H85.9223C86.0926 21.8764 86.2313 21.7348 86.2313 21.561V8.41264C86.2313 8.23853 86.0926 8.0975 85.9223 8.0975Z" fill="#174489"/>
<path fill-rule="evenodd" clip-rule="evenodd" d="M100.523 13.8497C100.648 13.958 100.831 13.958 100.955 13.85L107.171 8.56817C107.257 8.49302 107.307 8.3781 107.288 8.26406C107.261 8.10708 107.129 8 106.981 8H103.226C103.153 8 103.083 8.02612 103.026 8.07429L98.6637 11.7099C98.5059 11.8458 98.5053 12.0939 98.6622 12.2305L100.523 13.8497Z" fill="#174489"/>
<path fill-rule="evenodd" clip-rule="evenodd" d="M100.502 16.159C100.627 16.0507 100.81 16.0504 100.934 16.1587L107.243 21.4266C107.329 21.5015 107.379 21.6167 107.36 21.7307C107.333 21.8874 107.201 21.9948 107.053 21.9948H103.297C103.225 21.9948 103.155 21.9687 103.098 21.9205L98.7628 18.2303C98.605 18.0945 98.6044 17.8464 98.7614 17.7097L100.502 16.159Z" fill="#174489"/>
</svg>
