<?xml version="1.0" encoding="UTF-8"?>
<!-- Generator: Adobe Illustrator 27.4.1, SVG Export Plug-In . SVG Version: 6.00 Build 0)  -->
<svg xmlns="http://www.w3.org/2000/svg" xmlns:xlink="http://www.w3.org/1999/xlink" version="1.1" id="Layer_1" x="0px" y="0px" viewBox="0 0 278 133" style="enable-background:new 0 0 278 133;" xml:space="preserve">
<style type="text/css">
	.st0{clip-path:url(#SVGID_00000008872030978832593830000005890047786636073345_);}
	.st1{clip-path:url(#SVGID_00000011753628653456092010000001432563382693838003_);fill:#425563;}
	.st2{clip-path:url(#SVGID_00000011753628653456092010000001432563382693838003_);fill:#00A3E0;}
	.st3{clip-path:url(#SVGID_00000011753628653456092010000001432563382693838003_);}
</style>
<g>
	<g>
		<defs>
			<rect id="SVGID_1_" x="9.5" y="12" width="258.9" height="108.9"></rect>
		</defs>
		<clipPath id="SVGID_00000131366661898123953760000000072143629231418241_">
			<use xlink:href="#SVGID_1_" style="overflow:visible;"></use>
		</clipPath>
		<g style="clip-path:url(#SVGID_00000131366661898123953760000000072143629231418241_);">
			<defs>
				<rect id="SVGID_00000044175889949499433700000006166813476830650793_" x="9.5" y="12" width="258.9" height="108.9"></rect>
			</defs>
			<clipPath id="SVGID_00000168107133107282690010000008846002624171591353_">
				<use xlink:href="#SVGID_00000044175889949499433700000006166813476830650793_" style="overflow:visible;"></use>
			</clipPath>
			<path style="clip-path:url(#SVGID_00000168107133107282690010000008846002624171591353_);fill:#425563;" d="M48.3,54.5     c0,6.8-1.8,12-5.1,15.9c-3.4,3.9-8.2,5.8-14.2,5.8c-6.2,0-11-1.9-14.4-5.7c-3.4-3.7-5-9.1-5-16.1c0-6.9,1.6-12.1,5-16     c3.4-3.7,8.2-5.6,14.4-5.6c6.1,0,10.7,1.9,14.1,5.7C46.6,42.5,48.3,47.7,48.3,54.5 M14.8,54.5c0,5.7,1.2,10,3.6,13     c2.5,2.9,6,4.4,10.6,4.4s8.2-1.5,10.6-4.4c2.3-2.9,3.6-7.2,3.6-13s-1.2-9.9-3.5-12.8c-2.3-2.9-5.8-4.4-10.5-4.4     s-8.2,1.5-10.6,4.4C16,44.6,14.8,48.9,14.8,54.5"></path>
			<path style="clip-path:url(#SVGID_00000168107133107282690010000008846002624171591353_);fill:#425563;" d="M70.1,76.2     c-2.1,0-4-0.4-5.6-1.2c-1.8-0.7-3.2-1.9-4.3-3.5h-0.4c0.2,1.9,0.4,3.6,0.4,5.3v13h-4.8V44h3.9l0.7,4.3h0.2     c1.3-1.8,2.7-2.9,4.3-3.7c1.6-0.8,3.5-1.2,5.6-1.2c4.2,0,7.5,1.4,9.7,4.3c2.2,2.9,3.4,6.9,3.4,12s-1.2,9.2-3.5,12     C77.3,74.7,74.2,76.2,70.1,76.2 M69.4,47.5c-3.3,0-5.6,0.9-7,2.7c-1.4,1.8-2.2,4.7-2.2,8.5v1.1c0,4.4,0.7,7.6,2.2,9.6     c1.5,1.9,3.9,2.9,7.1,2.9c2.7,0,4.9-1.1,6.4-3.3c1.5-2.2,2.3-5.3,2.3-9.1c0-4-0.8-7-2.3-9.1C74.3,48.6,72.2,47.5,69.4,47.5"></path>
			<path style="clip-path:url(#SVGID_00000168107133107282690010000008846002624171591353_);fill:#425563;" d="M110.2,67     c0,2.9-1.1,5.3-3.3,6.8c-2.2,1.6-5.3,2.3-9.2,2.3c-4.2,0-7.5-0.7-9.8-2v-4.4c1.5,0.8,3.2,1.4,4.9,1.9c1.8,0.5,3.4,0.7,5,0.7     c2.5,0,4.4-0.4,5.7-1.2c1.4-0.8,2-2,2-3.6c0-1.3-0.6-2.3-1.6-3.2c-1.1-0.8-3.2-1.9-6.2-3.2c-2.9-1.1-5-2.1-6.3-2.9     s-2.2-1.8-2.8-2.8c-0.6-1.1-0.9-2.2-0.9-3.7c0-2.6,1.1-4.6,3.2-6.1c2.1-1.5,5-2.2,8.6-2.2c3.4,0,6.8,0.7,9.9,2.1l-1.8,3.9     c-3.2-1.3-6.1-2-8.6-2c-2.2,0-4,0.4-5.1,1.1c-1.2,0.7-1.8,1.6-1.8,2.9c0,0.8,0.2,1.5,0.7,2.2c0.5,0.7,1.2,1.2,2.1,1.8     c0.9,0.6,2.8,1.3,5.5,2.3c3.7,1.4,6.3,2.7,7.6,4.1C109.7,63.1,110.2,64.9,110.2,67"></path>
			<path style="clip-path:url(#SVGID_00000168107133107282690010000008846002624171591353_);fill:#00A3E0;" d="M123.8,58.8v16.8     h-6.9V33.5h11.9c5.5,0,9.5,1.1,12,3c2.6,2,4,5.1,4,9.2c0,5.3-2.7,9-8.2,11.2l11.9,18.7h-7.8l-10-16.8H123.8z M123.8,53.1h4.8     c3.2,0,5.5-0.6,7-1.8c1.5-1.2,2.2-2.9,2.2-5.3S137,42,135.4,41s-3.9-1.5-7-1.5h-4.6v13.7H123.8z"></path>
			<path style="clip-path:url(#SVGID_00000168107133107282690010000008846002624171591353_);fill:#00A3E0;" d="M172.2,75.6l-1.4-4.4     h-0.2c-1.5,2-3,3.3-4.7,4c-1.6,0.7-3.5,1.1-6,1.1c-3.2,0-5.6-0.8-7.4-2.6c-1.8-1.6-2.7-4.1-2.7-7.1c0-3.3,1.2-5.7,3.6-7.5     s6.2-2.6,11.1-2.7l5.5-0.1v-1.9c0-2-0.5-3.5-1.4-4.6c-0.9-1.1-2.5-1.5-4.4-1.5c-1.6,0-3.2,0.2-4.7,0.7c-1.5,0.5-2.9,1.1-4.3,1.8     l-2.2-4.8c1.8-0.9,3.6-1.6,5.7-2.1c2.1-0.5,4-0.7,5.8-0.7c4.1,0,7.1,0.9,9.2,2.7c2.1,1.8,3.2,4.6,3.2,8.3v21.5H172.2z M162.2,71     c2.5,0,4.4-0.7,6-2.1c1.5-1.4,2.2-3.3,2.2-5.7v-2.8l-4.1,0.1c-3.2,0.1-5.5,0.7-7,1.6c-1.4,0.9-2.2,2.5-2.2,4.3     c0,1.4,0.5,2.6,1.3,3.3C159.1,70.4,160.4,71,162.2,71"></path>
			<path style="clip-path:url(#SVGID_00000168107133107282690010000008846002624171591353_);fill:#00A3E0;" d="M211.8,75.6H205V56     c0-2.5-0.5-4.2-1.4-5.5c-0.9-1.2-2.3-1.8-4.3-1.8c-2.6,0-4.6,0.8-5.7,2.6s-1.9,4.6-1.9,8.5v15.9h-6.8V43.9h5.3l0.9,4.2h0.4     c0.9-1.5,2.2-2.7,3.9-3.5c1.6-0.8,3.5-1.3,5.5-1.3c4.9,0,8.2,1.6,9.7,5h0.5c0.9-1.5,2.2-2.8,4-3.7c1.8-0.9,3.6-1.3,5.8-1.3     c3.9,0,6.5,0.9,8.3,2.9c1.8,1.9,2.6,4.9,2.6,8.8v20.8h-6.8V56.1c0-2.5-0.5-4.2-1.4-5.5c-0.9-1.2-2.3-1.8-4.3-1.8     c-2.7,0-4.6,0.8-5.7,2.5c-1.2,1.6-1.9,4.2-1.9,7.6v16.7H211.8z"></path>
			<path style="clip-path:url(#SVGID_00000168107133107282690010000008846002624171591353_);fill:#00A3E0;" d="M255.7,76.2     c-4.1,0-7.1-1.4-9.3-4.3h-0.4c0.2,2.7,0.4,4.3,0.4,4.9v13.1h-6.8v-46h5.5c0.1,0.6,0.5,2,0.9,4.3h0.4c2.1-3.3,5.3-4.8,9.5-4.8     c4,0,7.1,1.4,9.3,4.3s3.3,6.9,3.3,12.1s-1.2,9.2-3.4,12.1C262.9,74.9,259.8,76.2,255.7,76.2 M254.1,48.7c-2.7,0-4.7,0.8-5.8,2.3     c-1.3,1.5-1.9,4.1-1.9,7.6v1.1c0,3.9,0.6,6.7,1.9,8.4c1.3,1.8,3.3,2.6,6.1,2.6c2.3,0,4.2-0.9,5.4-2.9c1.3-1.9,1.9-4.7,1.9-8.2     c0-3.6-0.6-6.3-1.9-8.1C258.4,49.6,256.6,48.7,254.1,48.7"></path>
			<polygon style="clip-path:url(#SVGID_00000168107133107282690010000008846002624171591353_);fill:#00A3E0;" points="153.1,35.2      267.8,35.2 267.8,12    "></polygon>
			
		</g>
	</g>
</g>
</svg>
