<svg width="107" height="36" viewBox="0 0 107 36" fill="none" xmlns="http://www.w3.org/2000/svg">
<mask id="mask0_6668_10760" style="mask-type:luminance" maskUnits="userSpaceOnUse" x="1" y="6" width="77" height="33">
<path d="M77.5882 6H1V38.215H77.5882V6Z" fill="white"/>
</mask>
<g mask="url(#mask0_6668_10760)">
<path d="M12.4717 18.5736C12.4717 20.5852 11.9393 22.1235 10.963 23.2772C9.95725 24.4309 8.53731 24.993 6.76238 24.993C4.92828 24.993 3.50834 24.4309 2.50255 23.3068C1.49675 22.2122 1.02344 20.6148 1.02344 18.544C1.02344 16.5029 1.49675 14.9646 2.50255 13.8109C3.50834 12.7164 4.92828 12.1543 6.76238 12.1543C8.56689 12.1543 9.92767 12.7164 10.9335 13.8405C11.9688 15.0238 12.4717 16.562 12.4717 18.5736ZM2.56171 18.5736C2.56171 20.2598 2.9167 21.5318 3.62667 22.4193C4.36622 23.2772 5.4016 23.7209 6.76238 23.7209C8.12316 23.7209 9.18812 23.2772 9.89809 22.4193C10.5785 21.5614 10.963 20.2894 10.963 18.5736C10.963 16.8579 10.6081 15.645 9.92767 14.7871C9.24728 13.9292 8.2119 13.4855 6.82154 13.4855C5.43118 13.4855 4.3958 13.9292 3.68583 14.7871C2.9167 15.645 2.56171 16.917 2.56171 18.5736Z" fill="#425563"/>
</g>
<mask id="mask1_6668_10760" style="mask-type:luminance" maskUnits="userSpaceOnUse" x="1" y="6" width="77" height="33">
<path d="M77.5882 6H1V38.215H77.5882V6Z" fill="white"/>
</mask>
<g mask="url(#mask1_6668_10760)">
<path d="M18.9345 24.992C18.3133 24.992 17.7512 24.8737 17.2779 24.637C16.7454 24.43 16.3313 24.075 16.0059 23.6017H15.8876C15.9467 24.1637 16.0059 24.6666 16.0059 25.1695V29.0152H14.5859V15.4666H15.7396L15.9467 16.7386H16.0059C16.3904 16.2061 16.8046 15.8807 17.2779 15.644C17.7512 15.4074 18.3133 15.2891 18.9345 15.2891C20.177 15.2891 21.1532 15.7032 21.804 16.5611C22.4548 17.419 22.8098 18.6023 22.8098 20.111C22.8098 21.6196 22.4548 22.8325 21.7744 23.6608C21.0644 24.5483 20.1474 24.992 18.9345 24.992ZM18.7274 16.5019C17.7512 16.5019 17.0708 16.7682 16.6567 17.3006C16.2425 17.8331 16.0059 18.691 16.0059 19.8151V20.1405C16.0059 21.4422 16.213 22.3888 16.6567 22.9804C17.1004 23.5425 17.8104 23.8383 18.757 23.8383C19.5557 23.8383 20.2065 23.5129 20.6503 22.8621C21.094 22.2113 21.3307 21.2942 21.3307 20.1701C21.3307 18.9868 21.094 18.0994 20.6503 17.4781C20.177 16.8273 19.5557 16.5019 18.7274 16.5019Z" fill="#425563"/>
</g>
<mask id="mask2_6668_10760" style="mask-type:luminance" maskUnits="userSpaceOnUse" x="1" y="6" width="77" height="33">
<path d="M77.5882 6H1V38.215H77.5882V6Z" fill="white"/>
</mask>
<g mask="url(#mask2_6668_10760)">
<path d="M30.7888 22.2705C30.7888 23.1283 30.4634 23.8383 29.8126 24.282C29.1618 24.7554 28.2447 24.9624 27.091 24.9624C25.8486 24.9624 24.8724 24.7554 24.192 24.3708V23.0692C24.6357 23.3058 25.1386 23.4833 25.6415 23.6312C26.174 23.7791 26.6473 23.8383 27.1206 23.8383C27.8602 23.8383 28.4222 23.72 28.8068 23.4833C29.2209 23.2467 29.3984 22.8917 29.3984 22.4184C29.3984 22.0338 29.2209 21.738 28.9251 21.4717C28.5997 21.2351 27.9785 20.9097 27.091 20.5251C26.2331 20.1997 25.6119 19.9039 25.2274 19.6672C24.8428 19.4306 24.5765 19.1347 24.3991 18.8389C24.2216 18.5135 24.1328 18.1881 24.1328 17.7444C24.1328 16.9752 24.4582 16.3836 25.0794 15.9399C25.7007 15.4961 26.5586 15.2891 27.6235 15.2891C28.6293 15.2891 29.6351 15.4961 30.5521 15.9103L30.0197 17.064C29.073 16.6794 28.2152 16.4723 27.4756 16.4723C26.8248 16.4723 26.2923 16.5907 25.9669 16.7978C25.6119 17.0048 25.4344 17.2711 25.4344 17.6556C25.4344 17.8923 25.4936 18.0994 25.6415 18.3064C25.7894 18.5135 25.9965 18.6614 26.2627 18.8389C26.529 19.0164 27.091 19.2235 27.8897 19.5193C28.9843 19.9335 29.7534 20.318 30.138 20.7322C30.6409 21.1167 30.7888 21.6492 30.7888 22.2705Z" fill="#425563"/>
</g>
<mask id="mask3_6668_10760" style="mask-type:luminance" maskUnits="userSpaceOnUse" x="1" y="6" width="77" height="33">
<path d="M77.5882 6H1V38.215H77.5882V6Z" fill="white"/>
</mask>
<g mask="url(#mask3_6668_10760)">
<path d="M34.8146 19.8451V24.8149H32.7734V12.3608H36.2937C37.9207 12.3608 39.104 12.6862 39.8436 13.2483C40.6127 13.8399 41.0269 14.757 41.0269 15.9699C41.0269 17.5377 40.2281 18.6323 38.6011 19.2831L42.1214 24.8149H39.814L36.8558 19.8451H34.8146ZM34.8146 18.1589H36.2346C37.1812 18.1589 37.8616 17.9815 38.3053 17.6265C38.749 17.2715 38.9561 16.7686 38.9561 16.0586C38.9561 15.3486 38.7195 14.8753 38.2461 14.5795C37.7728 14.2837 37.0924 14.1358 36.1754 14.1358H34.8146V18.1885V18.1589Z" fill="#00A3E0"/>
</g>
<mask id="mask4_6668_10760" style="mask-type:luminance" maskUnits="userSpaceOnUse" x="1" y="6" width="77" height="33">
<path d="M77.5882 6H1V38.215H77.5882V6Z" fill="white"/>
</mask>
<g mask="url(#mask4_6668_10760)">
<path d="M49.1264 24.8146L48.7123 23.513H48.6531C48.2094 24.1046 47.7656 24.4892 47.2627 24.6963C46.7894 24.9033 46.2274 25.0217 45.4878 25.0217C44.5412 25.0217 43.8312 24.785 43.2987 24.2525C42.7662 23.7792 42.5 23.0397 42.5 22.1522C42.5 21.176 42.855 20.466 43.565 19.9335C44.2749 19.4011 45.3991 19.1644 46.8486 19.1348L48.4756 19.1052V18.5432C48.4756 17.9515 48.3277 17.5078 48.0614 17.1824C47.7952 16.857 47.3219 16.7387 46.7598 16.7387C46.2865 16.7387 45.8132 16.7978 45.3695 16.9457C44.9257 17.0937 44.5116 17.2711 44.0974 17.4782L43.4466 16.0583C43.9791 15.792 44.5116 15.585 45.1328 15.4371C45.754 15.2891 46.3161 15.23 46.8486 15.23C48.0614 15.23 48.9489 15.4962 49.5701 16.0287C50.1914 16.5612 50.5168 17.3895 50.5168 18.484V24.8442H49.1264V24.8146ZM46.1682 23.4538C46.9077 23.4538 47.4698 23.2467 47.9431 22.8326C48.3868 22.4184 48.5939 21.8564 48.5939 21.1464V20.3181L47.3811 20.3477C46.4344 20.3773 45.754 20.5548 45.3103 20.821C44.8962 21.0872 44.6595 21.5606 44.6595 22.093C44.6595 22.5072 44.8074 22.8622 45.0441 23.0693C45.2511 23.2763 45.6357 23.4538 46.1682 23.4538Z" fill="#00A3E0"/>
</g>
<mask id="mask5_6668_10760" style="mask-type:luminance" maskUnits="userSpaceOnUse" x="1" y="6" width="77" height="33">
<path d="M77.5882 6H1V38.215H77.5882V6Z" fill="white"/>
</mask>
<g mask="url(#mask5_6668_10760)">
<path d="M60.8482 24.8143H58.8366V19.0162C58.8366 18.2767 58.6887 17.7738 58.4225 17.3892C58.1563 17.0342 57.7421 16.8567 57.1505 16.8567C56.3813 16.8567 55.7897 17.0934 55.4643 17.6259C55.1389 18.1583 54.9022 18.9866 54.9022 20.1403V24.8439H52.8906V15.4368H54.4585L54.7247 16.6792H54.8431C55.1093 16.2355 55.4939 15.8805 55.9968 15.6438C56.4701 15.4072 57.0321 15.2593 57.6238 15.2593C59.0733 15.2593 60.0495 15.7326 60.4932 16.7384H60.6412C60.9074 16.2947 61.292 15.9101 61.8244 15.6438C62.3569 15.3776 62.8894 15.2593 63.5402 15.2593C64.6939 15.2593 65.463 15.5255 65.9955 16.1172C66.528 16.6792 66.7647 17.5667 66.7647 18.7204V24.8735H64.7531V19.0458C64.7531 18.3062 64.6052 17.8033 64.3389 17.4188C64.0727 17.0638 63.6585 16.8863 63.0669 16.8863C62.2682 16.8863 61.7061 17.123 61.3807 17.6259C61.0257 18.0992 60.8186 18.8683 60.8186 19.8741V24.8143H60.8482Z" fill="#00A3E0"/>
</g>
<mask id="mask6_6668_10760" style="mask-type:luminance" maskUnits="userSpaceOnUse" x="1" y="6" width="77" height="33">
<path d="M77.5882 6H1V38.215H77.5882V6Z" fill="white"/>
</mask>
<g mask="url(#mask6_6668_10760)">
<path d="M73.833 24.992C72.6202 24.992 71.7327 24.5779 71.0819 23.72H70.9636C71.0227 24.5187 71.0819 24.992 71.0819 25.1695V29.0448H69.0703V15.437H70.6973C70.7269 15.6145 70.8452 16.0286 70.9636 16.709H71.0819C71.7031 15.7328 72.6498 15.2891 73.8922 15.2891C75.0755 15.2891 75.9925 15.7032 76.6433 16.5611C77.2942 17.419 77.6196 18.6023 77.6196 20.1405C77.6196 21.6788 77.2646 22.8621 76.6138 23.72C75.963 24.6074 75.0459 24.992 73.833 24.992ZM73.3597 16.8569C72.561 16.8569 71.9694 17.0936 71.644 17.5373C71.2594 17.981 71.0819 18.7502 71.0819 19.7856V20.111C71.0819 21.2647 71.2594 22.093 71.644 22.5959C72.0285 23.1283 72.6202 23.365 73.4485 23.365C74.1289 23.365 74.6909 23.0988 75.0459 22.5071C75.4305 21.9451 75.608 21.1167 75.608 20.0814C75.608 19.0164 75.4305 18.2177 75.0459 17.6852C74.6318 17.1232 74.0993 16.8569 73.3597 16.8569Z" fill="#00A3E0"/>
</g>
<mask id="mask7_6668_10760" style="mask-type:luminance" maskUnits="userSpaceOnUse" x="1" y="6" width="77" height="26">
<path d="M77.5882 6H1V31.5294H77.5882V6Z" fill="white"/>
</mask>
<g mask="url(#mask7_6668_10760)">
<path d="M43.4844 12.8631H77.4151V6L43.4844 12.8631Z" fill="#00A3E0"/>
</g>
</svg>
