<svg width="93" height="41" viewBox="0 0 93 41" fill="none" xmlns="http://www.w3.org/2000/svg">
<g clip-path="url(#clip0_2590_130553)">
<mask id="mask0_2590_130553" style="mask-type:luminance" maskUnits="userSpaceOnUse" x="0" y="1" width="92" height="40">
<path d="M91.8157 1.70911H0.226562V40.2338H91.8157V1.70911Z" fill="white"/>
</mask>
<g mask="url(#mask0_2590_130553)">
<mask id="mask1_2590_130553" style="mask-type:luminance" maskUnits="userSpaceOnUse" x="0" y="1" width="92" height="40">
<path d="M91.8157 1.70911H0.226562V40.2338H91.8157V1.70911Z" fill="white"/>
</mask>
<g mask="url(#mask1_2590_130553)">
<path d="M13.9562 16.744C13.9562 19.1496 13.3195 20.9892 12.152 22.3689C10.9493 23.7485 9.25119 24.4207 7.12862 24.4207C4.93529 24.4207 3.23723 23.7485 2.03444 22.4042C0.831645 21.0953 0.265625 19.185 0.265625 16.7087C0.265625 14.2677 0.831645 12.4281 2.03444 11.0485C3.23723 9.73953 4.93529 9.06738 7.12862 9.06738C9.28657 9.06738 10.9139 9.73953 12.1167 11.0838C13.3548 12.4989 13.9562 14.3384 13.9562 16.744ZM2.10519 16.744C2.10519 18.7605 2.5297 20.2817 3.37873 21.3429C4.26314 22.3689 5.50131 22.8995 7.12862 22.8995C8.75592 22.8995 10.0295 22.3689 10.8785 21.3429C11.6922 20.317 12.152 18.7959 12.152 16.744C12.152 14.6922 11.7275 13.2418 10.9139 12.2159C10.1002 11.19 8.86205 10.6593 7.19937 10.6593C5.53669 10.6593 4.29852 11.19 3.44949 12.2159C2.5297 13.2418 2.10519 14.763 2.10519 16.744Z" fill="#425563"/>
</g>
<mask id="mask2_2590_130553" style="mask-type:luminance" maskUnits="userSpaceOnUse" x="0" y="1" width="92" height="40">
<path d="M91.8157 1.70911H0.226562V40.2338H91.8157V1.70911Z" fill="white"/>
</mask>
<g mask="url(#mask2_2590_130553)">
<path d="M21.6612 24.4207C20.9183 24.4207 20.2462 24.2792 19.6802 23.9962C19.0434 23.7485 18.5481 23.324 18.159 22.758H18.0175C18.0882 23.4301 18.159 24.0315 18.159 24.6329V29.2318H16.4609V13.0295H17.8406L18.0882 14.5507H18.159C18.6189 13.9139 19.1142 13.5248 19.6802 13.2418C20.2462 12.9588 20.9183 12.8173 21.6612 12.8173C23.147 12.8173 24.3145 13.3125 25.0927 14.3384C25.871 15.3644 26.2955 16.7794 26.2955 18.5836C26.2955 20.3878 25.871 21.8382 25.0574 22.8287C24.2083 23.89 23.1117 24.4207 21.6612 24.4207ZM21.4136 14.2677C20.2462 14.2677 19.4325 14.5861 18.9373 15.2228C18.442 15.8596 18.159 16.8855 18.159 18.2298V18.619C18.159 20.1755 18.4066 21.3076 18.9373 22.0151C19.4679 22.6872 20.3169 23.041 21.449 23.041C22.4041 23.041 23.1824 22.6519 23.7131 21.8736C24.2437 21.0953 24.5267 19.9986 24.5267 18.6543C24.5267 17.2393 24.2437 16.178 23.7131 15.4351C23.147 14.6568 22.4041 14.2677 21.4136 14.2677Z" fill="#425563"/>
</g>
<mask id="mask3_2590_130553" style="mask-type:luminance" maskUnits="userSpaceOnUse" x="0" y="1" width="92" height="40">
<path d="M91.8157 1.70911H0.226562V40.2338H91.8157V1.70911Z" fill="white"/>
</mask>
<g mask="url(#mask3_2590_130553)">
<path d="M35.8503 21.1661C35.8503 22.192 35.4611 23.041 34.6829 23.5716C33.9046 24.1377 32.8079 24.3853 31.4282 24.3853C29.9424 24.3853 28.775 24.1377 27.9614 23.6778V22.1212C28.492 22.4042 29.0934 22.6165 29.6948 22.7934C30.3316 22.9702 30.8976 23.041 31.4636 23.041C32.348 23.041 33.0202 22.8995 33.4801 22.6165C33.9753 22.3335 34.1876 21.909 34.1876 21.3429C34.1876 20.883 33.9753 20.5293 33.6216 20.2109C33.2324 19.9279 32.4895 19.5387 31.4282 19.0789C30.4023 18.6897 29.6594 18.336 29.1995 18.0529C28.7397 17.7699 28.4213 17.4162 28.209 17.0624C27.9968 16.6733 27.8906 16.2841 27.8906 15.7535C27.8906 14.8337 28.2798 14.1262 29.0227 13.5955C29.7656 13.0649 30.7915 12.8173 32.065 12.8173C33.2678 12.8173 34.4706 13.0649 35.5673 13.5602L34.9305 14.9398C33.7985 14.4799 32.7725 14.2323 31.8881 14.2323C31.1099 14.2323 30.4731 14.3738 30.084 14.6214C29.6594 14.8691 29.4472 15.1875 29.4472 15.6474C29.4472 15.9304 29.5179 16.178 29.6948 16.4256C29.8717 16.6733 30.1193 16.8502 30.4377 17.0624C30.7561 17.2747 31.4283 17.5223 32.3834 17.8761C33.6923 18.3713 34.6121 18.8312 35.072 19.3265C35.6734 19.7864 35.8503 20.4232 35.8503 21.1661Z" fill="#425563"/>
</g>
<mask id="mask4_2590_130553" style="mask-type:luminance" maskUnits="userSpaceOnUse" x="0" y="1" width="92" height="40">
<path d="M91.8157 1.70911H0.226562V40.2338H91.8157V1.70911Z" fill="white"/>
</mask>
<g mask="url(#mask4_2590_130553)">
<path d="M40.6597 18.2651V24.2083H38.2188V9.31494H42.4285C44.3742 9.31494 45.7893 9.70408 46.6737 10.3762C47.5935 11.0838 48.0887 12.1804 48.0887 13.6308C48.0887 15.5058 47.1336 16.8147 45.1879 17.593L49.3976 24.2083H46.6383L43.1007 18.2651H40.6597ZM40.6597 16.2487H42.3578C43.4898 16.2487 44.3035 16.0364 44.8341 15.6119C45.3648 15.1874 45.6124 14.586 45.6124 13.737C45.6124 12.8879 45.3294 12.3219 44.7634 11.9682C44.1973 11.6144 43.3837 11.4375 42.287 11.4375H40.6597V16.2841V16.2487Z" fill="#00A3E0"/>
</g>
<mask id="mask5_2590_130553" style="mask-type:luminance" maskUnits="userSpaceOnUse" x="0" y="1" width="92" height="40">
<path d="M91.8157 1.70911H0.226562V40.2338H91.8157V1.70911Z" fill="white"/>
</mask>
<g mask="url(#mask5_2590_130553)">
<path d="M57.7837 24.2084L57.2884 22.6518H57.2176C56.687 23.3593 56.1563 23.8192 55.5549 24.0669C54.9889 24.3145 54.3168 24.456 53.4324 24.456C52.3003 24.456 51.4513 24.173 50.8145 23.5362C50.1778 22.9702 49.8594 22.0858 49.8594 21.0245C49.8594 19.8571 50.2839 19.0081 51.1329 18.3713C51.9819 17.7345 53.3262 17.4515 55.0597 17.4161L57.0054 17.3807V16.7086C57.0054 16.0011 56.8285 15.4704 56.5101 15.0813C56.1917 14.6922 55.6257 14.5506 54.9536 14.5506C54.3875 14.5506 53.8215 14.6214 53.2909 14.7983C52.7602 14.9752 52.265 15.1874 51.7697 15.4351L50.9914 13.737C51.6282 13.4186 52.265 13.171 53.0079 12.9941C53.7508 12.8172 54.4229 12.7465 55.0597 12.7465C56.5101 12.7465 57.5714 13.0648 58.3143 13.7016C59.0572 14.3384 59.4463 15.3289 59.4463 16.6378V24.2437H57.7837V24.2084ZM54.246 22.5811C55.1304 22.5811 55.8026 22.3334 56.3686 21.8382C56.8992 21.3429 57.1469 20.6707 57.1469 19.8217V18.8312L55.6965 18.8666C54.5644 18.9019 53.7508 19.1142 53.2201 19.4326C52.7249 19.751 52.4418 20.317 52.4418 20.9537C52.4418 21.449 52.6187 21.8735 52.9017 22.1212C53.1494 22.3688 53.6093 22.5811 54.246 22.5811Z" fill="#00A3E0"/>
</g>
<mask id="mask6_2590_130553" style="mask-type:luminance" maskUnits="userSpaceOnUse" x="0" y="1" width="92" height="40">
<path d="M91.8157 1.70911H0.226562V40.2338H91.8157V1.70911Z" fill="white"/>
</mask>
<g mask="url(#mask6_2590_130553)">
<path d="M71.7897 24.2084H69.3841V17.2746C69.3841 16.3902 69.2072 15.7888 68.8888 15.329C68.5704 14.9044 68.0751 14.6922 67.3676 14.6922C66.4478 14.6922 65.7403 14.9752 65.3512 15.612C64.962 16.2487 64.679 17.2393 64.679 18.6189V24.2438H62.2734V12.9941H64.1484L64.4668 14.4799H64.6083C64.9267 13.9493 65.3865 13.5248 65.9879 13.2418C66.554 12.9587 67.2261 12.7819 67.9336 12.7819C69.6671 12.7819 70.8345 13.3479 71.3651 14.5507H71.542C71.8604 14.02 72.3203 13.5601 72.9571 13.2418C73.5938 12.9234 74.2306 12.7819 75.0089 12.7819C76.3886 12.7819 77.3083 13.1002 77.9451 13.8078C78.5819 14.4799 78.8649 15.5412 78.8649 16.9209V24.2791H76.4593V17.31C76.4593 16.4256 76.2824 15.8242 75.964 15.3643C75.6457 14.9398 75.1504 14.7276 74.4429 14.7276C73.4877 14.7276 72.8156 15.0106 72.4264 15.612C72.0019 16.178 71.7543 17.0978 71.7543 18.3006V24.2084H71.7897Z" fill="#00A3E0"/>
</g>
<mask id="mask7_2590_130553" style="mask-type:luminance" maskUnits="userSpaceOnUse" x="0" y="1" width="92" height="40">
<path d="M91.8157 1.70911H0.226562V40.2338H91.8157V1.70911Z" fill="white"/>
</mask>
<g mask="url(#mask7_2590_130553)">
<path d="M87.3206 24.4207C85.8701 24.4207 84.8089 23.9254 84.0306 22.8995H83.8891C83.9598 23.8546 84.0306 24.4207 84.0306 24.6329V29.2672H81.625V12.9941H83.5707C83.6061 13.2064 83.7476 13.7017 83.8891 14.5153H84.0306C84.7735 13.3479 85.9055 12.8173 87.3913 12.8173C88.8064 12.8173 89.903 13.3125 90.6813 14.3384C91.4596 15.3643 91.8487 16.7794 91.8487 18.619C91.8487 20.4585 91.4242 21.8736 90.6459 22.8995C89.8677 23.9608 88.771 24.4207 87.3206 24.4207ZM86.7546 14.6922C85.7994 14.6922 85.0919 14.9752 84.7027 15.5059C84.2428 16.0365 84.0306 16.9563 84.0306 18.1944V18.5836C84.0306 19.9633 84.2428 20.9538 84.7027 21.5552C85.1626 22.192 85.8701 22.475 86.8607 22.475C87.6743 22.475 88.3465 22.1566 88.771 21.4491C89.2309 20.7769 89.4432 19.7864 89.4432 18.5482C89.4432 17.2747 89.2309 16.3195 88.771 15.6827C88.2757 15.0106 87.639 14.6922 86.7546 14.6922Z" fill="#00A3E0"/>
</g>
<mask id="mask8_2590_130553" style="mask-type:luminance" maskUnits="userSpaceOnUse" x="0" y="1" width="92" height="40">
<path d="M91.8157 1.70911H0.226562V40.2338H91.8157V1.70911Z" fill="white"/>
</mask>
<g mask="url(#mask8_2590_130553)">
<path d="M51.0234 9.9164H91.6V1.70911L51.0234 9.9164Z" fill="#00A3E0"/>
</g>
</g>
</g>
<defs>
<clipPath id="clip0_2590_130553">
<rect width="92.5325" height="40" fill="white" transform="translate(0 0.233887)"/>
</clipPath>
</defs>
</svg>
