<svg width="23" height="23" viewBox="0 0 23 23" fill="none" xmlns="http://www.w3.org/2000/svg">
<g clip-path="url(#clip0_49_5724)">
<path d="M7.25159 18.7516C3.22293 18.7516 0 15.5287 0 11.5C0 7.47133 3.22293 4.24841 7.25159 4.24841H15.7484C19.7771 4.24841 23 7.47133 23 11.5C23 15.5287 19.7771 18.7516 15.7484 18.7516H7.25159ZM15.5287 16.1879C18.1656 16.1879 20.2166 14.0637 20.2166 11.5C20.2166 8.86305 18.0924 6.8121 15.5287 6.8121H7.47134C4.83439 6.8121 2.78344 8.9363 2.78344 11.5C2.78344 14.0637 4.90764 16.1879 7.47134 16.1879H15.5287Z" fill="#C74634"/>
</g>
<defs>
<clipPath id="clip0_49_5724">
<rect width="23" height="23" fill="white"/>
</clipPath>
</defs>
</svg>
