<svg width="127" height="40" viewBox="0 0 127 40" fill="none" xmlns="http://www.w3.org/2000/svg">
<path fill-rule="evenodd" clip-rule="evenodd" d="M98.7728 13.2028L97.3498 15.3893H89.8899C86.4196 15.3893 83.6093 12.607 83.6093 9.16937C83.6093 5.73364 86.4196 2.95127 89.8899 2.95127H98.5609L97.1473 5.14709H90.0512C88.2307 5.14709 86.6315 6.34617 86.1403 8.07981H97.8916L96.4686 10.2775H86.1403C86.6315 12.0037 88.2307 13.2028 90.0512 13.2028H98.7728ZM60.4872 15.3893C57.015 15.3893 54.2047 12.5977 54.2122 9.16194C54.2122 5.72436 57.0319 2.94199 60.504 2.95127H69.1826L67.7596 5.14709H60.6559C58.4118 5.15452 56.5913 6.95684 56.6007 9.17865C56.6007 11.4079 58.4286 13.2102 60.6728 13.2028H69.3776L67.9621 15.3893H60.4872ZM1.19613 9.16937C1.19613 5.73364 4.01586 2.95127 7.48614 2.95127H14.7848C18.2476 2.9587 21.0579 5.73364 21.0579 9.16194C21.0673 12.5977 18.257 15.3893 14.7848 15.3893H7.48614C4.01586 15.3893 1.19613 12.607 1.19613 9.16937ZM14.6236 13.2028C16.8771 13.2028 18.6957 11.4005 18.6957 9.16937C18.6882 6.94941 16.8677 5.14709 14.6236 5.14709H7.64737C5.40322 5.15452 3.58277 6.94941 3.58277 9.16937C3.57527 11.4005 5.39572 13.2028 7.64737 13.2028H14.6236ZM31.8194 11.367L36.6714 15.3893H33.158L25.9437 9.16937L32.7587 9.17865C33.876 9.17865 34.791 8.27285 34.791 7.16658C34.791 6.05104 33.876 5.14709 32.7587 5.14709H24.7588V15.3893H22.3459V2.95127H32.9199C35.2653 2.95127 37.1626 4.83712 37.1626 7.14988C37.1626 9.4812 35.2653 11.3578 32.9199 11.367H31.8194ZM84.1605 13.1935L82.7206 15.3893H71.7154C71.3836 15.3986 71.063 15.265 70.8343 15.0292C70.6056 14.8121 70.4781 14.5188 70.4781 14.1995V2.95127H72.9003V13.1935H84.1605ZM43.3176 11.0051H49.7595L46.3567 5.56658L40.1004 15.3893H37.247L44.8587 3.59535C45.4343 2.78236 46.5685 2.5819 47.3897 3.15173C47.5584 3.26929 47.7022 3.4116 47.8209 3.57865L55.4589 15.3893H52.6055L51.2668 13.1935H44.7387L43.3176 11.0051Z" fill="#F90101"/>
<path fill-rule="evenodd" clip-rule="evenodd" d="M9.33846 30.0677V31.1647C8.92412 31.3745 8.48354 31.5341 8.02609 31.6343C7.52739 31.7531 7.00994 31.8032 6.49436 31.8032C5.00451 31.8032 3.85025 31.3503 3.03158 30.4445C2.21291 29.5338 1.80357 28.2376 1.80357 26.5559C1.80357 25.5053 1.99543 24.6051 2.37914 23.8552C2.74286 23.135 3.31093 22.5318 4.02148 22.129C4.79203 21.7021 5.67319 21.4923 6.55248 21.5183C7.00244 21.5183 7.44302 21.5759 7.87423 21.6854C8.26419 21.7689 8.6354 21.9193 8.97474 22.129V23.2278C8.56853 23.0435 8.14795 22.8925 7.71299 22.7749C7.36615 22.6821 7.00244 22.6413 6.63872 22.6413C5.53133 22.6413 4.66767 22.9822 4.04773 23.664C3.43154 24.3397 3.12344 25.3036 3.12344 26.5559C3.12344 27.88 3.42841 28.8996 4.03835 29.6148C4.65329 30.3251 5.52008 30.6803 6.63872 30.6803C7.56863 30.6617 8.48354 30.4538 9.33846 30.0677ZM10.9808 31.6436V22.3146L10.2609 21.8617V21.3494H12.2257V31.6436H10.9808ZM17.2802 31.794C16.1903 31.794 15.3466 31.4617 14.7492 30.7972C14.1455 30.1377 13.8461 29.2269 13.8511 28.065C13.8511 26.8968 14.1505 25.983 14.7492 25.3234C15.3466 24.6688 16.1903 24.3415 17.2802 24.3415C18.3751 24.3415 19.2244 24.6688 19.828 25.3234C20.4267 25.983 20.7261 26.8968 20.7261 28.065C20.7261 29.2269 20.4267 30.1377 19.828 30.7972C19.2244 31.4617 18.3751 31.794 17.2802 31.794ZM17.2802 30.7805C17.9914 30.7805 18.5307 30.5485 18.8981 30.0845C19.2706 29.6266 19.4568 28.9534 19.4568 28.065C19.4568 27.1814 19.2706 26.5077 18.8981 26.0436C18.5307 25.5858 17.9914 25.3568 17.2802 25.3568C16.5802 25.3568 16.044 25.5858 15.6716 26.0436C15.3041 26.5077 15.1204 27.1814 15.1204 28.065C15.1204 28.9534 15.3041 29.6266 15.6716 30.0845C16.044 30.5485 16.5802 30.7805 17.2802 30.7805ZM22.2747 28.9114V24.4937H23.5196V28.878C23.5196 29.4868 23.6527 29.9558 23.9189 30.2849C24.1889 30.6153 24.5807 30.7805 25.0944 30.7805C25.5444 30.7712 25.9756 30.6116 26.3224 30.335C26.7124 30.0251 27.0161 29.6148 27.1867 29.1452V24.4937H28.4316V31.6436H27.5917L27.3648 30.4204C26.8061 31.2835 25.8312 31.8032 24.7907 31.794C23.9883 31.794 23.3702 31.5483 22.9365 31.0571C22.4953 30.5596 22.2747 29.8444 22.2747 28.9114ZM35.7546 31.6436L35.5428 30.4947C35.0009 31.3077 34.086 31.794 33.0961 31.794C32.1475 31.794 31.4025 31.4642 30.8613 30.8046C30.3189 30.1451 30.0477 29.2374 30.0477 28.0817C30.0477 26.9024 30.3189 25.983 30.8613 25.3234C31.4025 24.6688 32.1556 24.3415 33.1205 24.3415C33.5355 24.3415 33.9335 24.417 34.3148 24.568C34.6953 24.7276 35.0516 24.9466 35.3571 25.2306V21.3494H36.602V31.6436H35.7546ZM31.3263 28.065C31.3263 28.9299 31.4957 29.6 31.8344 30.0752C32.1643 30.5448 32.7137 30.8139 33.2892 30.7879C33.7129 30.7972 34.1273 30.671 34.4835 30.4445C34.8566 30.2107 35.1528 29.8747 35.3478 29.4886V26.3128C34.7828 25.6643 34.1135 25.3401 33.3398 25.3401C32.6974 25.3401 32.2012 25.5722 31.8512 26.0362C31.5013 26.5052 31.3263 27.1814 31.3263 28.065ZM42.1459 21.6854H43.4339V31.6436H42.1459V21.6854ZM45.5918 31.6436V24.4937H46.4298L46.6585 25.7095C46.9379 25.29 47.3278 24.9374 47.7759 24.6942C48.2334 24.4603 48.7508 24.3341 49.2758 24.3415C50.1044 24.3415 50.7394 24.5878 51.1806 25.0803C51.6205 25.5715 51.843 26.2837 51.848 27.2167V31.6436H50.5956V27.2594C50.6019 26.0183 50.0601 25.3977 48.9702 25.3977C48.5127 25.3977 48.0646 25.5406 47.7009 25.8172C47.311 26.103 47.0054 26.4965 46.8366 26.9401V31.6436H45.5918ZM54.2534 31.6436V25.5072H53.0085V24.878L54.2534 24.4677V23.6715C54.2534 22.0628 55.0296 21.2585 56.5819 21.2585C56.7619 21.2585 56.9394 21.2776 57.1144 21.316V22.2719C56.9681 22.2497 56.8213 22.241 56.6738 22.2459C56.2513 22.2459 55.9495 22.3579 55.7683 22.5819C55.5883 22.8059 55.4983 23.1635 55.4983 23.6548V24.4937H57.1744V25.5072H55.4983V31.6436H54.2534ZM58.6817 31.6436V24.4937H59.5273L59.7729 25.8339C60.2466 24.9293 60.9209 24.477 61.7958 24.477C61.9595 24.477 62.1208 24.4906 62.2795 24.5179V25.6H61.9664C61.4827 25.5833 61.0177 25.7429 60.6447 26.0436C60.2734 26.3703 60.0185 26.8232 59.9247 27.3188V31.6436H58.6817ZM68.0389 31.6436L67.8346 30.4947C67.2421 31.3609 66.4378 31.794 65.4217 31.794C64.6943 31.794 64.1131 31.5898 63.6781 31.1814C63.2382 30.7793 63.0182 30.2404 63.0182 29.5647C63.0182 28.8099 63.2775 28.2258 63.7962 27.8125C64.3212 27.3992 65.0492 27.1926 65.9804 27.1926H67.6396V26.7397C67.6396 26.2261 67.5271 25.8654 67.3021 25.6575C67.0759 25.4459 66.6891 25.3401 66.1416 25.3401C65.7685 25.3401 65.3973 25.381 65.0242 25.4571C64.5668 25.5524 64.1181 25.678 63.6781 25.8339V24.8371C64.0681 24.6701 64.473 24.5438 64.8892 24.4677C65.3042 24.3836 65.7273 24.3415 66.1585 24.3415C67.9758 24.3415 68.8845 25.1409 68.8845 26.7397V31.6436H68.0389ZM65.5754 30.8046C65.9991 30.8046 66.4135 30.6803 66.7697 30.4445C67.1409 30.194 67.4465 29.8487 67.649 29.4478V28.0984H66.1004C65.4742 28.0984 65.0111 28.2097 64.7111 28.4325C64.4124 28.6565 64.2631 29.0005 64.2631 29.4645C64.2368 29.8246 64.3643 30.1773 64.6099 30.4445C64.8649 30.697 65.2192 30.8306 65.5754 30.8046ZM70.5024 31.291V30.2441C70.8862 30.4111 71.2817 30.5448 71.6892 30.645C72.0529 30.7304 72.4335 30.7712 72.8141 30.7638C74.0115 30.7638 74.6102 30.4087 74.6102 29.6984C74.627 29.4478 74.5333 29.2046 74.3477 29.0357C74.1727 28.8736 73.8646 28.7344 73.4234 28.6181L72.2891 28.3155C71.623 28.1312 71.1374 27.8824 70.8324 27.5694C70.5287 27.2427 70.36 26.8065 70.3768 26.3536C70.36 25.7763 70.6393 25.2232 71.1211 24.878C71.6123 24.5203 72.2785 24.3415 73.1197 24.3415C73.5434 24.3341 73.9577 24.3749 74.3814 24.451C74.7189 24.5104 75.0414 24.6107 75.3638 24.7536V25.793C74.6777 25.5165 73.9409 25.3735 73.204 25.3643C72.1479 25.3643 71.6198 25.6662 71.6198 26.2701C71.6123 26.5058 71.6967 26.723 71.8654 26.8826C72.111 27.0756 72.4072 27.2093 72.7128 27.2761L73.864 27.5787C74.5639 27.7568 75.072 28.008 75.3882 28.3322C75.7107 28.6923 75.8794 29.1619 75.8532 29.6408C75.8794 30.2682 75.5832 30.8548 75.0657 31.2167C74.5408 31.6015 73.8127 31.794 72.8816 31.794C72.4429 31.794 72.0098 31.7531 71.5786 31.6603C71.2055 31.5842 70.8418 31.4599 70.5024 31.291ZM77.7074 29.4645V25.5072H76.4644V24.878L77.7074 24.4677L78.2079 22.5151H78.9616V24.4937H80.5196V25.5072H78.9616V29.4478C78.9616 30.2348 79.3028 30.6283 79.9852 30.6283C80.0927 30.6283 80.2002 30.6227 80.3077 30.6116C80.4152 30.5955 80.5139 30.5844 80.6039 30.5782V31.6436C80.4739 31.6708 80.3415 31.69 80.2065 31.7012C80.0765 31.7073 79.9378 31.7104 79.7903 31.7104C79.0791 31.7104 78.5541 31.5285 78.2154 31.1647C77.8767 30.796 77.7074 30.2292 77.7074 29.4645ZM82.1525 31.6436V24.4937H83L83.2456 25.8339C83.7193 24.9293 84.3936 24.477 85.2685 24.477C85.4322 24.477 85.5934 24.4906 85.7522 24.5179V25.6H85.4297C84.9554 25.5833 84.4904 25.7429 84.1173 26.0436C83.7443 26.3703 83.4912 26.8232 83.3974 27.3188V31.6436H82.1525ZM87.207 28.9188V24.4937H88.4519V28.878C88.4519 29.4868 88.5844 29.9558 88.8494 30.2849C89.1206 30.6153 89.5131 30.7805 90.0268 30.7805C90.4748 30.7712 90.9079 30.6209 91.2548 30.335C91.6447 30.0251 91.9484 29.6148 92.1191 29.1545V24.4937H93.3621V31.6436H92.524L92.2953 30.4278C91.7366 31.2835 90.7636 31.8032 89.723 31.794C88.9206 31.794 88.3026 31.5483 87.8688 31.0571C87.4276 30.5596 87.207 29.8469 87.207 28.9188ZM100.533 30.2775V31.291C99.9633 31.6263 99.2384 31.794 98.3584 31.794C97.241 31.794 96.3999 31.4729 95.8349 30.8306C95.265 30.1872 94.98 29.2399 94.98 27.9889C94.98 26.8269 95.2819 25.9273 95.8856 25.29C96.4842 24.6577 97.3335 24.3415 98.4334 24.3415C99.0859 24.3341 99.7383 24.4937 100.323 24.7944V25.8097C99.8058 25.5239 99.2209 25.3735 98.6209 25.3568C97.0461 25.3568 96.2586 26.2342 96.2586 27.9889C96.2586 28.9392 96.4393 29.6402 96.8005 30.0919C97.1667 30.551 97.7422 30.7805 98.5272 30.7805C98.8496 30.7805 99.1702 30.7378 99.4833 30.6543C99.8445 30.559 100.195 30.4334 100.533 30.2775ZM102.566 29.4645V25.5072H101.321V24.878L102.566 24.4677L103.066 22.5151H103.81V24.4937H105.378V25.5072H103.81V29.4478C103.81 30.2348 104.152 30.6283 104.836 30.6283C104.948 30.6283 105.058 30.6227 105.166 30.6116C105.267 30.5955 105.366 30.5844 105.462 30.5782V31.6436C105.332 31.6708 105.2 31.69 105.065 31.7012C104.935 31.7073 104.793 31.7104 104.641 31.7104C103.93 31.7104 103.407 31.5285 103.074 31.1647C102.735 30.796 102.566 30.2292 102.566 29.4645ZM106.943 28.9188V24.4937H108.188V28.878C108.188 29.4868 108.321 29.9558 108.586 30.2849C108.857 30.6153 109.249 30.7805 109.763 30.7805C110.211 30.7712 110.644 30.6209 110.991 30.335C111.379 30.0251 111.675 29.6148 111.853 29.1545V24.4937H113.098V31.6436H112.253L112.031 30.4278C111.465 31.2835 110.5 31.8032 109.457 31.794C108.656 31.794 108.036 31.5483 107.596 31.0571C107.161 30.5596 106.943 29.8469 106.943 28.9188ZM115.174 31.6436V24.4937H116.019L116.265 25.8339C116.74 24.9293 117.414 24.477 118.288 24.477C118.451 24.477 118.613 24.4906 118.771 24.5179V25.6H118.458C117.975 25.5833 117.51 25.7429 117.137 26.0436C116.765 26.3703 116.51 26.8232 116.417 27.3188V31.6436H115.174ZM125.47 31.291C125.157 31.4673 124.801 31.5935 124.445 31.6603C123.98 31.7531 123.515 31.794 123.04 31.794C121.894 31.794 121.027 31.4729 120.44 30.8306C119.859 30.1872 119.566 29.2424 119.561 27.9963C119.561 26.8009 119.84 25.8933 120.399 25.2733C120.957 24.6521 121.759 24.3415 122.802 24.3415C124.812 24.3415 125.817 25.4428 125.817 27.6455V28.4418H120.822C120.879 29.2411 121.096 29.8277 121.473 30.2014C121.852 30.5701 122.417 30.7545 123.168 30.7545C123.556 30.7545 123.955 30.7137 124.336 30.6283C124.726 30.5374 125.106 30.4111 125.47 30.2441V31.291ZM122.802 25.3643C122.194 25.3643 121.72 25.5431 121.381 25.9007C121.047 26.2633 120.861 26.7855 120.822 27.4673H124.615C124.615 26.7186 124.474 26.1797 124.192 25.8506C123.909 25.5264 123.446 25.3643 122.802 25.3643Z" fill="#010101"/>
</svg>
