<svg width="20" height="20" viewBox="0 0 20 20" fill="none" xmlns="http://www.w3.org/2000/svg">
<g clip-path="url(#clip0_3972_129532)">
<path fill-rule="evenodd" clip-rule="evenodd" d="M11.7284 2.05245C13.9625 2.05167 16.1967 2.04478 18.4307 2.05432C19.7589 2.05982 20.1334 2.50911 19.847 3.83702C19.0086 7.72598 18.1513 11.611 17.2825 15.4932C17.0077 16.7203 16.3765 17.2229 15.1014 17.2267C10.6332 17.2402 6.16491 17.2417 1.69676 17.2262C0.236271 17.221 -0.147903 16.7202 0.166757 15.3189C1.02054 11.5134 1.87889 7.70907 2.74414 3.90621C3.07375 2.45702 3.56909 2.05914 5.02588 2.05491C7.26006 2.04852 9.49423 2.05324 11.7284 2.05245Z" fill="#E0EAF5"/>
<path fill-rule="evenodd" clip-rule="evenodd" d="M8.35147 16.7746C6.1171 16.7738 3.88263 16.7842 1.64836 16.7694C0.515351 16.7619 0.309332 16.4912 0.564381 15.3693C1.42904 11.5645 2.32156 7.76603 3.167 3.95687C3.3937 2.93524 3.88273 2.48369 4.96389 2.49382C9.43224 2.53579 13.9014 2.50728 18.37 2.5119C19.4907 2.51299 19.6788 2.75566 19.4273 3.90635C18.6105 7.64209 17.7886 11.3767 16.9521 15.108C16.6391 16.5045 16.2786 16.7709 14.8274 16.7742C12.6687 16.7788 10.51 16.7753 8.35147 16.7746Z" fill="#2671BE"/>
<path fill-rule="evenodd" clip-rule="evenodd" d="M10.2529 9.3179C10.1031 9.14 9.93863 8.93516 9.76445 8.73937C8.77678 7.62868 7.79785 6.50974 6.79261 5.41567C6.33261 4.91498 6.18601 4.42873 6.73843 3.93453C7.28436 3.44602 7.82076 3.48927 8.32154 4.0513C9.7162 5.61599 11.1092 7.18244 12.527 8.72561C13.0563 9.30198 12.933 9.69387 12.35 10.1209C10.1122 11.7607 7.88707 13.4183 5.66436 15.079C5.16474 15.4524 4.68843 15.5459 4.28484 14.9944C3.8396 14.3861 4.25154 14.0242 4.71338 13.6837C6.36513 12.4657 8.01368 11.2431 9.65513 10.011C9.88377 9.83934 10.212 9.73928 10.2529 9.3179Z" fill="#FDFDFE"/>
<path fill-rule="evenodd" clip-rule="evenodd" d="M10.9617 15.2024C10.3602 15.2024 9.75774 15.2234 9.15755 15.1957C8.67871 15.1738 8.39056 14.9029 8.39658 14.3923C8.4024 13.9095 8.64279 13.5465 9.12114 13.5335C10.4359 13.4978 11.7526 13.5054 13.0678 13.5315C13.4858 13.5397 13.7943 13.8155 13.7918 14.2564C13.7888 14.7622 13.5259 15.1541 12.9908 15.1867C12.3167 15.228 11.6383 15.1969 10.9618 15.1969C10.9617 15.1986 10.9617 15.2006 10.9617 15.2024Z" fill="#FCFDFD"/>
</g>
<defs>
<clipPath id="clip0_3972_129532">
<rect width="20" height="15.3333" fill="white" transform="translate(0 2)"/>
</clipPath>
</defs>
</svg>
