<svg width="169" height="30" viewBox="0 0 169 30" fill="none" xmlns="http://www.w3.org/2000/svg">
<path d="M17.5634 29.7746H10.2958C8.80282 29.7746 7.39437 28.9577 6.66197 27.662L0.549296 16.9859C-0.183099 15.6901 -0.183099 14.0563 0.549296 12.7606L6.66197 2.11268C7.42254 0.816901 8.80282 0 10.2958 0H22.5211C24.0141 0 25.4225 0.816901 26.1549 2.11268L32.2676 12.7606C33.0282 14.0563 33.0282 15.6901 32.2676 16.9859L30.6901 19.5211C29.9577 20.8169 28.5493 21.6056 27.0563 21.6056H19.7887L23.7606 14.8451L20.0704 8.4507H12.7183L9.02817 14.8732L17.5634 29.7746Z" fill="#FE5000"/>
<path d="M44.6877 14.9293C45.9835 14.9293 46.8286 14.5349 46.8286 13.1546C46.8286 11.8025 46.1243 11.4363 44.8849 11.4363H43.9272V14.9293H44.6877ZM43.9272 21.9434H40.5469V8.76025H45.3356C48.4342 8.76025 50.2934 10.1969 50.2934 12.9574C50.2934 16.0279 48.068 17.5772 44.9131 17.5772H43.9272V21.9434Z" fill="#222222"/>
<path d="M55.5896 8.76025V17.2391C55.5896 18.7321 56.3501 19.1546 57.4206 19.1546C58.4346 19.1546 59.167 18.5631 59.167 17.3236V8.76025H62.5191V17.718C62.5191 20.3377 60.4065 21.9434 57.3642 21.9434C53.9839 21.9434 52.2656 20.5912 52.2656 17.4363V8.76025H55.5896Z" fill="#222222"/>
<path d="M77.1719 8.76025H85.8198V11.7462H80.5803V13.7462H85.0874V16.7039H80.5803V18.9856H85.9606V21.9434H77.1719V8.76025Z" fill="#222222"/>
<path d="M89.0589 19.4365C89.6786 19.8591 91.087 20.5633 92.6645 20.5633C93.9884 20.5633 95.4532 20.1407 95.4532 18.1126C95.4532 16.5351 94.0448 15.9999 92.4673 15.5774C90.5518 15.0703 88.6645 14.3379 88.6645 11.9154C88.6645 9.71821 90.3828 8.25342 92.8617 8.25342C94.6645 8.25342 96.242 9.09848 97.1715 10.0281L96.2983 11.0703C95.2561 10.1689 94.1011 9.60553 92.8617 9.60553C91.7349 9.60553 90.2983 10.0844 90.2983 11.7464C90.2983 13.3238 91.6504 13.7745 93.3687 14.2816C95.1997 14.845 97.087 15.5492 97.087 18.0562C97.087 20.5351 95.4251 21.9154 92.6082 21.9154C90.6927 21.9154 88.918 21.1548 88.3828 20.7041L89.0589 19.4365Z" fill="#222222"/>
<path d="M107.932 8.76025V10.1124H104.016V21.9434H102.495V10.1124H98.6641V8.76025H107.932Z" fill="#222222"/>
<path d="M114.407 20.6196C117.224 20.6196 118.097 17.8872 118.097 15.2112C118.097 12.8731 117.337 9.6337 114.379 9.6337C111.534 9.6337 110.492 12.3943 110.492 15.0985C110.492 17.69 111.196 20.6196 114.407 20.6196ZM114.238 21.9436C110.914 21.9436 108.914 19.6619 108.914 15.1267C108.914 10.0281 111.787 8.25342 114.435 8.25342C117.224 8.25342 119.675 10.0562 119.675 15.1267C119.675 19.69 117.562 21.9436 114.238 21.9436Z" fill="#222222"/>
<path d="M136.183 16.6194H140.634L138.38 10.1687L136.183 16.6194ZM132.859 21.9434L137.507 8.76025H139.366L144.099 21.9434H142.465L141.028 17.887H135.845L134.437 21.9434H132.859Z" fill="#222222"/>
<path d="M154.296 20.7323C153.226 21.4647 151.705 21.9436 150.043 21.9436C146.663 21.9436 144.578 19.7464 144.578 15.1267C144.578 9.97173 147.48 8.25342 150.043 8.25342C151.367 8.25342 153.029 8.67595 154.353 10.3943L153.254 11.2957C152.409 10.2534 151.395 9.60553 150.043 9.60553C147.62 9.60553 146.156 11.6619 146.156 14.9858C146.156 18.5633 147.395 20.6478 150.184 20.6478C151.198 20.6478 152.325 20.2816 152.803 19.9436V16.0281H149.874V14.6759H154.325V20.7323H154.296Z" fill="#222222"/>
<path d="M157.281 8.76025H164.464V10.1124H158.802V14.5631H163.676V15.887H158.802V20.5912H164.605V21.9434H157.281V8.76025Z" fill="#222222"/>
<path d="M125.707 15.8307H123.707V10.056H125.454C127.735 10.056 129.341 10.3096 129.341 12.9293C129.341 15.0419 127.848 15.8307 125.707 15.8307ZM129.482 17.8025C129.172 17.1265 128.975 16.8166 128.552 16.5912C130.017 15.9434 130.947 14.6476 130.947 12.6758C130.947 10.0842 129.256 8.76025 126.44 8.76025H122.102V21.9434H123.679V17.0701H125.961C126.13 17.0701 126.271 17.0701 126.44 17.042H126.411C127.228 17.042 127.623 17.5772 127.961 18.2814L129.651 21.887H131.341L129.482 17.8025Z" fill="#222222"/>
<path d="M68.2927 14.9293V11.4363H69.2223C70.4335 11.4363 71.1378 11.8025 71.1378 13.1546C71.1378 14.5349 70.3209 14.9293 69.0533 14.9293H68.2927ZM73.4476 17.7743C73.2504 17.2955 72.9406 16.9293 72.6026 16.7603C73.8138 15.9997 74.5744 14.7321 74.5744 12.9574C74.5744 10.225 72.7434 8.76025 69.7011 8.76025H64.9688V21.9434H68.2927V17.549H69.1378C69.5885 17.5772 69.8702 17.8307 70.0673 18.3096L71.6448 21.9434H75.2223L73.4476 17.7743Z" fill="#222222"/>
<path d="M167.309 9.88722C167.534 9.88722 167.76 9.85906 167.76 9.57737C167.76 9.35201 167.534 9.32384 167.337 9.32384H166.943V9.88722H167.309ZM166.943 10.9576H166.633V9.07032H167.365C167.844 9.07032 168.07 9.23933 168.07 9.60553C168.07 9.94356 167.844 10.0844 167.563 10.1126L168.098 10.9576H167.732L167.224 10.1407H166.915V10.9576H166.943ZM167.281 8.56328C166.52 8.56328 165.929 9.15483 165.929 9.97173C165.929 10.7605 166.436 11.3802 167.281 11.3802C168.013 11.3802 168.605 10.8168 168.605 9.97173C168.633 9.15483 168.041 8.56328 167.281 8.56328ZM167.281 11.69C166.267 11.69 165.562 10.9576 165.562 9.97173C165.562 8.92948 166.351 8.25342 167.281 8.25342C168.182 8.25342 168.999 8.92948 168.999 9.97173C168.999 11.014 168.21 11.69 167.281 11.69Z" fill="#222222"/>
</svg>
