<svg width="20" height="23" viewBox="0 0 20 23" fill="none" xmlns="http://www.w3.org/2000/svg">
<g clip-path="url(#clip0_3972_129529)">
<path d="M9.92813 0.0288086C4.85063 0.0288086 5.1675 2.56731 5.1675 2.56731L5.17375 5.19732H10.0188V5.98633H3.24813C3.24813 5.98633 0 5.5612 0 11.4683C0 17.3739 2.83563 17.165 2.83563 17.165H4.52813V14.424C4.52813 14.424 4.43687 11.1548 7.31875 11.1548H12.1238C12.1238 11.1548 14.8238 11.2053 14.8238 8.14654V3.08899C14.8238 3.08899 15.2338 0.0288086 9.92813 0.0288086ZM7.25625 1.79704C7.73813 1.79704 8.12813 2.24667 8.12813 2.80221C8.12813 3.35776 7.73813 3.80738 7.25625 3.80738C7.14171 3.80757 7.02826 3.7817 6.9224 3.73125C6.81655 3.6808 6.72037 3.60677 6.63938 3.5134C6.55838 3.42002 6.49417 3.30913 6.45041 3.1871C6.40665 3.06506 6.38421 2.93427 6.38438 2.80221C6.38438 2.24667 6.77438 1.79704 7.25625 1.79704Z" fill="url(#paint0_linear_3972_129529)"/>
<path d="M10.0709 22.9659C15.1484 22.9659 14.8316 20.4274 14.8316 20.4274L14.8253 17.7974H9.98032V17.0084H16.7503C16.7503 17.0084 19.9991 17.4335 19.9991 11.5272C19.9991 5.62083 17.1634 5.83051 17.1634 5.83051H15.4709V8.57077C15.4709 8.57077 15.5622 11.8399 12.6803 11.8399H7.87532C7.87532 11.8399 5.17532 11.7895 5.17532 14.8482V19.9058C5.17532 19.9058 4.76532 22.9659 10.0709 22.9659ZM12.7428 21.1977C12.6283 21.1979 12.5148 21.172 12.409 21.1216C12.3031 21.0711 12.2069 20.9971 12.1259 20.9037C12.0449 20.8104 11.9807 20.6995 11.937 20.5774C11.8932 20.4554 11.8708 20.3246 11.8709 20.1925C11.8709 19.6377 12.2609 19.1881 12.7428 19.1881C13.2247 19.1881 13.6147 19.637 13.6147 20.1925C13.6147 20.7488 13.2247 21.1977 12.7428 21.1977Z" fill="url(#paint1_linear_3972_129529)"/>
</g>
<defs>
<linearGradient id="paint0_linear_3972_129529" x1="1.92188" y1="2.03338" x2="13.2141" y2="11.861" gradientUnits="userSpaceOnUse">
<stop stop-color="#387EB8"/>
<stop offset="1" stop-color="#366994"/>
</linearGradient>
<linearGradient id="paint1_linear_3972_129529" x1="8.00469" y1="9.31077" x2="20.0539" y2="19.3237" gradientUnits="userSpaceOnUse">
<stop stop-color="#FFE052"/>
<stop offset="1" stop-color="#FFC331"/>
</linearGradient>
<clipPath id="clip0_3972_129529">
<rect width="20" height="23" fill="white"/>
</clipPath>
</defs>
</svg>
