<svg width="18" height="20" viewBox="0 0 18 20" fill="none" xmlns="http://www.w3.org/2000/svg">
<g clip-path="url(#clip0_1990_124142)">
<path d="M7.83799 19.25L7.27549 16.9995L7.13349 16.9615C5.90449 16.6325 4.78549 15.9885 3.89699 15.0995L3.79299 14.9955L1.57049 15.631L0.408489 13.6185L2.07599 12.006L2.03799 11.864C1.87049 11.2375 1.78549 10.61 1.78549 10C1.78549 9.39 1.87049 8.7625 2.03749 8.1355L2.07549 7.9935L0.40799 6.381L1.56999 4.3685L3.79249 5.004L3.89649 4.9C4.78549 4.0105 5.90449 3.367 7.13299 3.038L7.27499 3L7.83799 0.75H10.1615L10.724 3.0005L10.866 3.0385C12.0945 3.367 13.2135 4.011 14.1025 4.9005L14.2065 5.0045L16.429 4.369L17.591 6.3815L15.9235 7.994L15.9615 8.136C16.129 8.7625 16.214 9.3895 16.214 10C16.214 10.61 16.129 11.2375 15.962 11.8645L15.924 12.0065L17.5915 13.6185L16.4295 15.6315L14.207 14.9955L14.103 15.0995C13.2145 15.989 12.095 16.6325 10.8665 16.9615L10.7245 16.9995L10.162 19.25H7.83799Z" fill="#98CCFD"/>
<path d="M9.96649 1L10.446 2.9185L10.5175 3.204L10.802 3.28C11.988 3.5975 13.068 4.219 13.926 5.077L14.134 5.2855L14.417 5.2045L16.3105 4.663L17.2775 6.3375L15.856 7.712L15.6445 7.9165L15.7205 8.2005C15.8825 8.806 15.9645 9.4115 15.9645 10C15.9645 10.5885 15.8825 11.194 15.7205 11.7995L15.6445 12.0835L15.856 12.288L17.2775 13.6625L16.3105 15.337L14.417 14.7955L14.134 14.7145L13.926 14.923C13.0685 15.781 11.988 16.4025 10.802 16.72L10.5175 16.796L10.446 17.0815L9.96699 19H8.03349L7.55399 17.0815L7.48249 16.796L7.19799 16.72C6.01199 16.4025 4.93149 15.781 4.07399 14.923L3.86599 14.7145L3.58299 14.7955L1.68949 15.337L0.722494 13.6625L2.14399 12.288L2.35549 12.0835L2.27949 11.7995C2.11749 11.194 2.03549 10.5885 2.03549 10C2.03549 9.4115 2.11749 8.806 2.27949 8.2005L2.35549 7.9165L2.14399 7.712L0.722494 6.3375L1.68949 4.663L3.58299 5.2045L3.86599 5.2855L4.07399 5.077C4.93149 4.219 6.01199 3.5975 7.19799 3.28L7.48249 3.204L7.55399 2.9185L8.03299 1H9.96649ZM10.357 0.5H7.64249L7.06799 2.797C5.78349 3.141 4.63249 3.8105 3.71999 4.7235L1.45149 4.0745L0.0944941 6.425L1.79699 8.071C1.63199 8.6875 1.53549 9.332 1.53549 10C1.53549 10.668 1.63149 11.3125 1.79649 11.9285L0.0939941 13.5745L1.45099 15.925L3.71999 15.276C4.63249 16.189 5.78399 16.8585 7.06849 17.2025L7.64299 19.5H10.3575L10.9315 17.203C12.216 16.859 13.3675 16.1895 14.28 15.2765L16.549 15.9255L17.906 13.575L16.2035 11.929C16.368 11.313 16.4645 10.6685 16.4645 10.0005C16.4645 9.3325 16.3685 8.688 16.2035 8.072L17.906 6.426L16.549 4.0755L14.28 4.7245C13.3675 3.8115 12.2165 3.142 10.932 2.798L10.357 0.5Z" fill="#4788C7"/>
<path d="M8.5 7.596C8.7735 7.537 9.143 7.5 9.512 7.5C10.0885 7.5 10.5785 7.5815 10.896 7.884C11.1915 8.1425 11.3245 8.556 11.3245 8.977C11.3245 9.5165 11.1625 9.9 10.904 10.1735C10.594 10.506 10.099 10.6535 9.6925 10.6535C9.6265 10.6535 9.567 10.6535 9.5005 10.646V12.5H8.5005L8.5 7.596ZM9.5 9.8635C9.5515 9.871 9.6035 9.871 9.6625 9.871C10.15 9.871 10.3645 9.5235 10.3645 9.0585C10.3645 8.6225 10.187 8.283 9.7365 8.283C9.6485 8.283 9.5595 8.2975 9.5 8.32V9.8635Z" fill="white"/>
<path d="M12 7.5H13V12.5H12V7.5Z" fill="white"/>
<path d="M6.976 12.5H8L6.9435 7.5H5.6775L4.5 12.5H5.524L5.742 11.5H6.7655L6.976 12.5ZM6.266 8.4195H6.29C6.3385 8.746 6.411 9.2505 6.4675 9.5545L6.628 10.5H5.8905L6.073 9.555C6.129 9.2655 6.2095 8.7535 6.266 8.4195Z" fill="white"/>
</g>
<defs>
<clipPath id="clip0_1990_124142">
<rect width="18" height="20" fill="white"/>
</clipPath>
</defs>
</svg>
