<svg width="124" height="18" viewBox="0 0 124 18" fill="none" xmlns="http://www.w3.org/2000/svg">
<g clip-path="url(#clip0_9_976)">
<path fill-rule="evenodd" clip-rule="evenodd" d="M30.5725 5.53307C29.2231 5.53307 28.0867 6.02335 27.1635 6.72373V5.60311H24.0385V17.5798H27.3055V9.94552C27.7316 9.31517 28.868 8.47471 30.2174 8.47471C30.7146 8.47471 31.1407 8.54475 31.4958 8.68482V5.60311C31.2117 5.53307 30.9276 5.53307 30.5725 5.53307ZM2.30556 13.9377C3.15783 14.7082 4.36521 15.1284 5.64362 15.1284C6.49589 15.1284 7.20612 14.7082 7.20612 14.1479C7.20612 12.3268 1.38227 12.9572 1.38227 9.10506C1.38227 6.79377 3.65499 5.39299 5.99873 5.39299C7.56123 5.39299 9.26577 5.95331 10.118 6.58366L8.62657 8.89494C7.98737 8.47471 7.20612 8.05447 6.28282 8.05447C5.35953 8.05447 4.64931 8.40467 4.64931 9.03502C4.64931 10.5759 10.4732 9.94552 10.4732 14.1479C10.4732 16.4591 8.20043 17.8599 5.64362 17.8599C3.93908 17.8599 2.23454 17.2996 0.814087 16.249L2.30556 13.9377ZM22.689 11.4864C22.689 8.12451 20.3453 5.39299 17.0072 5.39299C13.3851 5.39299 11.1124 8.33463 11.1124 11.6265C11.1124 15.4086 13.8112 17.8599 17.4334 17.8599C19.28 17.8599 21.1976 17.0895 22.4049 15.6887L20.5584 13.8677C19.9902 14.4981 18.8538 15.2685 17.5044 15.2685C15.7998 15.2685 14.3794 14.0778 14.2374 12.3969H22.618C22.618 12.1167 22.689 11.8366 22.689 11.4864ZM14.3794 10.0856C14.5214 8.96498 15.6578 7.98443 16.9362 7.98443C18.2856 7.98443 19.2089 9.03502 19.351 10.0856H14.3794ZM39.2373 12.9572L42.5754 5.60311H45.9134L40.3736 17.5798H38.1009L32.5612 5.60311H35.9703L39.2373 12.9572ZM48.6833 0C49.8197 0 50.814 0.910506 50.814 2.03113C50.814 3.15175 49.8907 4.06226 48.6833 4.06226C47.4759 4.06226 46.5526 3.15175 46.5526 2.03113C46.5526 0.910506 47.4759 0 48.6833 0ZM47.0498 5.60311H50.3168V17.5798H47.0498V5.60311ZM63.6691 15.1284C62.2486 17.0195 60.473 17.7899 58.2003 17.7899C54.4361 17.7899 51.7373 14.9883 51.7373 11.5564C51.7373 8.05447 54.5782 5.32296 58.2713 5.32296C60.331 5.32296 62.2486 6.3035 63.385 7.70428L61.1122 9.73541C60.473 8.89494 59.4787 8.33463 58.3424 8.33463C56.4958 8.33463 55.0753 9.80545 55.0753 11.6265C55.0753 13.5175 56.4247 14.9183 58.4134 14.9183C59.7628 14.9183 60.7571 14.1479 61.3253 13.3074L63.6691 15.1284ZM75.4588 15.6887C74.3224 17.0895 72.3338 17.8599 70.4872 17.8599C66.8651 17.8599 64.1662 15.4086 64.1662 11.6265C64.1662 8.26459 66.4389 5.39299 70.0611 5.39299C73.3991 5.39299 75.7429 8.19455 75.7429 11.4864C75.7429 11.8366 75.7429 12.1167 75.6719 12.3969H67.2912C67.4332 14.0778 68.8537 15.2685 70.5582 15.2685C71.9077 15.2685 73.044 14.4981 73.6122 13.8677L75.4588 15.6887ZM72.4048 10.0856C72.3338 9.03502 71.3395 7.98443 69.9901 7.98443C68.6406 7.98443 67.5753 8.96498 67.4332 10.0856H72.4048ZM77.0213 17.5798V5.60311H80.1463V6.58366C81.0696 5.81323 82.2059 5.39299 83.5554 5.39299C85.2599 5.39299 86.7514 6.16342 87.7457 7.35408C88.5269 8.26459 89.0241 9.52529 89.0241 11.5564V17.6498H85.7571V11.2763C85.7571 10.0856 85.473 9.45525 85.0468 9.03502C84.6207 8.61478 83.9815 8.33463 83.2003 8.33463C81.8508 8.33463 80.7145 9.1751 80.2883 9.80545V17.5798H77.0213Z" fill="#293F41"/>
<path fill-rule="evenodd" clip-rule="evenodd" d="M97.3338 5.393C93.4985 5.393 90.2315 8.47471 90.2315 12.3268C90.2315 14.358 91.0838 16.179 92.4332 17.5097C92.9304 18 93.7116 18 94.2798 17.5798C95.061 16.9494 96.1264 16.5992 97.3338 16.5992C98.5411 16.5992 99.5355 16.9494 100.388 17.5798C100.956 18 101.737 17.93 102.234 17.4397C103.584 16.179 104.436 14.358 104.436 12.3268C104.365 8.54475 101.24 5.393 97.3338 5.393ZM97.2627 15.8988C95.2031 15.8988 93.7116 14.358 93.7116 12.3969C93.7116 10.4358 95.1321 8.89494 97.2627 8.89494C99.3934 8.89494 100.814 10.5058 100.814 12.3969C100.814 14.2879 99.3934 15.8988 97.2627 15.8988Z" fill="#82B6A1"/>
<path fill-rule="evenodd" clip-rule="evenodd" d="M110.757 17.5798H108.342L103.513 5.60311H106.78L109.408 12.4669L112.035 5.60311H114.734L117.291 12.4669L119.919 5.60311H123.186L118.356 17.5798H115.942L113.385 10.786L110.757 17.5798Z" fill="#293F41"/>
<path d="M121.41 16.1089V16.3191H120.984V17.5798H120.7V16.3191H120.274V16.1089H121.41ZM122.405 17.0195L122.973 16.1089H123.186V17.5798H122.902V16.7393L122.476 17.3696H122.263L121.908 16.7393V17.5798H121.623V16.1089H121.837L122.405 17.0195Z" fill="#293F41"/>
</g>
<defs>
<clipPath id="clip0_9_976">
<rect width="124" height="18" fill="white"/>
</clipPath>
</defs>
</svg>
