<svg width="125" height="29" viewBox="0 0 125 29" fill="none" xmlns="http://www.w3.org/2000/svg">
<g clip-path="url(#clip0_9_4050)">
<path d="M3.2715 29C1.36612 29 0.0359505 28.4134 0.0359505 28.4134V26.7269C0.0359505 26.7269 2.04918 27.3868 3.23555 27.3868C4.27811 27.3868 5.32068 27.2035 5.32068 25.8837C5.32068 24.8938 4.60167 24.6738 3.7029 24.4172L2.87604 24.1972C1.79753 23.8673 0 23.4273 0 21.1909C0 18.6978 1.97728 18.0746 4.02646 18.0746C5.85994 18.0746 6.9025 18.6978 6.9025 18.6978V20.3477C6.9025 20.3477 5.53638 19.6877 3.95456 19.6877C2.66034 19.6877 1.83348 19.9444 1.83348 21.0809C1.83348 22.0708 2.58844 22.2908 3.4872 22.5474L4.49382 22.8407C5.68018 23.1707 7.19011 23.8673 7.19011 25.847C7.22606 28.3401 5.42853 29 3.2715 29Z" fill="#666666"/>
<path d="M14.1645 29C12.1513 29 9.34717 28.3401 9.34717 23.5373C9.34717 18.8445 12.1873 18.0746 14.1645 18.0746C16.034 18.0746 18.9819 18.7345 18.9819 23.5373C18.9819 28.4134 16.0699 29 14.1645 29ZM14.1645 19.5411C13.086 19.5411 11.2885 19.871 11.2885 23.5373C11.2885 27.2402 13.3736 27.4968 14.1645 27.4968C15.1352 27.4968 17.0406 27.0935 17.0406 23.5373C17.0046 19.8344 15.2071 19.5411 14.1645 19.5411Z" fill="#666666"/>
<path d="M21.4984 28.8167V14.8116H23.4397V28.8167H21.4984Z" fill="#666666"/>
<path d="M33.0745 28.8166L32.8947 27.4601C32.8947 27.4601 31.7084 29.0366 29.5154 29.0366C27.9336 29.0366 26.2079 28.45 26.2079 25.8103C26.2079 22.8773 28.9042 22.3274 30.558 22.3274H32.8228V21.4108C32.8228 20.0543 32.0319 19.7244 30.6658 19.7244C29.0121 19.7244 27.0708 20.4576 27.0708 20.4576V18.8445C27.0708 18.8445 28.8323 18.1112 30.9534 18.1112C33.2183 18.1112 34.7642 18.9544 34.7642 21.7408V28.8533H33.0745V28.8166ZM32.8228 23.5006L30.9534 23.5372C29.1918 23.5739 28.1133 24.0505 28.1133 25.737C28.1133 27.0935 28.9402 27.4968 29.9828 27.4968C31.4208 27.4968 32.8228 26.1403 32.8228 26.1403V23.5006Z" fill="#666666"/>
<path d="M41.8105 19.871C40.66 19.871 39.7613 21.1542 39.7613 21.1542V28.8167H37.8199V18.2579H39.3658L39.6175 19.7244C39.6175 19.7244 40.2646 18.0746 42.0262 18.0746C43.0328 18.0746 43.4282 18.3679 43.4282 18.3679V20.1643C43.4282 20.1643 42.8171 19.871 41.8105 19.871Z" fill="#666666"/>
<path d="M58.8151 28.8167H56.1188L54.501 23.2074C54.0696 21.7042 53.4584 19.2478 53.4584 19.2478C53.4584 19.2478 52.8113 21.7409 52.3799 23.1707L50.7981 28.8167H48.1018L45.3696 18.2579H47.5985L48.8568 24.3072C49.1444 25.7004 49.4679 27.9002 49.4679 27.9002C49.4679 27.9002 49.8634 25.7004 50.2948 24.3072L52.0564 18.2579H54.8605L56.6221 24.3072C57.0175 25.6638 57.4489 27.9002 57.4489 27.9002C57.4489 27.9002 57.7725 25.8837 58.0961 24.3072L59.3543 18.2579H61.5473L58.8151 28.8167Z" fill="#666666"/>
<path d="M63.9919 28.8166V18.2212H65.9333V28.8166H63.9919Z" fill="#666666"/>
<path d="M76.2151 28.8167V21.5942C76.2151 20.2743 75.6759 19.7977 74.3457 19.7977C72.6201 19.7977 70.9304 21.1176 70.9304 21.1176V28.8167H68.9891V18.2579H70.499L70.8945 19.7611C70.8945 19.7611 72.6201 18.0746 74.8131 18.0746C76.7184 18.0746 78.1565 18.9178 78.1565 21.6308V28.8167H76.2151Z" fill="#666666"/>
<path d="M88.2945 28.8167L88.0788 27.4969C88.0788 27.4969 87.0003 29.0367 84.7354 29.0367C83.1176 29.0367 80.4573 28.3034 80.4573 23.574C80.4573 18.7712 83.7647 18.1113 85.1308 18.1113C87.0003 18.1113 87.8631 19.1745 87.8631 19.1745V14.8116H89.8044V28.8167H88.2945ZM87.8631 20.7143C87.8631 20.7143 86.7846 19.6511 85.3106 19.6511C83.8726 19.6511 82.3986 20.2377 82.3986 23.5373C82.3986 27.0202 83.9085 27.4235 85.1308 27.4235C86.5329 27.4235 87.8631 26.2137 87.8631 26.2137V20.7143Z" fill="#666666"/>
<path d="M95.8082 29C93.9028 29 92.5726 28.4134 92.5726 28.4134V26.7269C92.5726 26.7269 94.5859 27.3868 95.7722 27.3868C96.8148 27.3868 97.8574 27.2035 97.8574 25.8837C97.8574 24.8938 97.1384 24.6738 96.2396 24.4172L95.4127 24.1972C94.3342 23.8673 92.5367 23.4273 92.5367 21.1909C92.5367 18.6978 94.514 18.0746 96.5631 18.0746C98.3966 18.0746 99.4392 18.6978 99.4392 18.6978V20.3477C99.4392 20.3477 98.0731 19.6877 96.4912 19.6877C95.197 19.6877 94.3702 19.9444 94.3702 21.0809C94.3702 22.0708 95.1251 22.2908 96.0239 22.5474L97.0305 22.8407C98.2169 23.1707 99.7268 23.8673 99.7268 25.847C99.7627 28.3401 98.0012 29 95.8082 29Z" fill="#666666"/>
<path d="M108.858 11.842C108.966 11.8053 109.038 11.8053 109.11 11.7686C111.087 11.182 112.993 10.4121 114.934 9.60556C116.803 8.79899 118.637 7.84577 120.29 6.48925C121.944 5.09608 123.274 3.29962 124.029 1.09987C124.137 0.806574 124.353 0.329962 124.353 0C121.764 3.62958 111.447 3.99621 111.447 3.99621L113.891 1.72314C104.113 1.7598 97.2821 5.97598 94.1544 8.24905C98.1449 8.689 101.776 10.4121 104.616 13.0152C106.018 12.5752 107.456 12.2453 108.858 11.842Z" fill="#F99D1C"/>
<path d="M125 11.4753C125 11.4753 115.509 10.742 105.623 13.9683C106.917 15.3615 108.031 16.9747 108.894 18.6978C114.071 15.8015 121.297 12.0252 125 11.4753Z" fill="#F99D1C"/>
<path d="M109.541 20.2377C110.152 21.8142 110.548 23.5007 110.728 25.2605L119.787 15.7649L109.541 20.2377Z" fill="#F99D1C"/>
</g>
<defs>
<clipPath id="clip0_9_4050">
<rect width="125" height="29" fill="white"/>
</clipPath>
</defs>
</svg>
