<svg width="15" height="15" viewBox="0 0 15 15" fill="none" xmlns="http://www.w3.org/2000/svg">
<path d="M9.26471 1.5L10.4086 4.59138L13.5 5.73529L10.4086 6.87921L9.26471 9.97059L8.12079 6.87921L5.02941 5.73529L8.12079 4.59138L9.26471 1.5Z" fill="#8F9BA6"/>
<path d="M3.97059 8.55882L4.96986 10.0301L6.44118 11.0294L4.96986 12.0287L3.97059 13.5L2.97132 12.0287L1.5 11.0294L2.97132 10.0301L3.97059 8.55882Z" fill="#8F9BA6"/>
<path d="M9.26471 1.5L10.4086 4.59138L13.5 5.73529L10.4086 6.87921L9.26471 9.97059L8.12079 6.87921L5.02941 5.73529L8.12079 4.59138L9.26471 1.5Z" stroke="#8F9BA6" stroke-linejoin="round"/>
<path d="M3.97059 8.55882L4.96986 10.0301L6.44118 11.0294L4.96986 12.0287L3.97059 13.5L2.97132 12.0287L1.5 11.0294L2.97132 10.0301L3.97059 8.55882Z" stroke="#8F9BA6" stroke-linejoin="round"/>
</svg>
