<svg width="132" height="36" viewBox="0 0 132 36" fill="none" xmlns="http://www.w3.org/2000/svg">
<g clip-path="url(#clip0_28622_8167)">
<path d="M47.8496 12.6431H49.1621V19.3765C49.1621 20.1239 48.9958 20.7459 48.6631 21.2427C48.3304 21.7394 47.8883 22.1131 47.3369 22.3638C46.79 22.6099 46.1953 22.7329 45.5527 22.7329C44.8783 22.7329 44.2676 22.6099 43.7207 22.3638C43.1784 22.1131 42.7477 21.7394 42.4287 21.2427C42.1143 20.7459 41.957 20.1239 41.957 19.3765V12.6431H43.2627V19.3765C43.2627 19.896 43.3584 20.3244 43.5498 20.6616C43.7412 20.9989 44.0078 21.2495 44.3496 21.4136C44.696 21.5776 45.097 21.6597 45.5527 21.6597C46.013 21.6597 46.4141 21.5776 46.7559 21.4136C47.1022 21.2495 47.3711 20.9989 47.5625 20.6616C47.7539 20.3244 47.8496 19.896 47.8496 19.3765V12.6431ZM52.3066 16.7788V22.5962H51.042V15.1997H52.2383L52.3066 16.7788ZM52.0059 18.6177L51.4795 18.5972C51.484 18.0913 51.5592 17.6242 51.7051 17.1958C51.8509 16.7629 52.056 16.3869 52.3203 16.0679C52.5846 15.7489 52.8991 15.5028 53.2637 15.3296C53.6328 15.1519 54.0407 15.063 54.4873 15.063C54.8519 15.063 55.18 15.1131 55.4717 15.2134C55.7633 15.3091 56.0117 15.464 56.2168 15.6782C56.4264 15.8924 56.5859 16.1704 56.6953 16.5122C56.8047 16.8494 56.8594 17.2619 56.8594 17.7495V22.5962H55.5879V17.7358C55.5879 17.3485 55.5309 17.0386 55.417 16.8062C55.3031 16.5692 55.1367 16.3983 54.918 16.2935C54.6992 16.1841 54.4303 16.1294 54.1113 16.1294C53.7969 16.1294 53.5098 16.1955 53.25 16.3276C52.9948 16.4598 52.7738 16.6421 52.5869 16.8745C52.4046 17.1069 52.2611 17.3735 52.1562 17.6743C52.056 17.9705 52.0059 18.285 52.0059 18.6177ZM60.1543 15.1997V22.5962H58.8828V15.1997H60.1543ZM58.7871 13.2378C58.7871 13.0327 58.8486 12.8595 58.9717 12.7183C59.0993 12.577 59.2861 12.5063 59.5322 12.5063C59.7738 12.5063 59.9583 12.577 60.0859 12.7183C60.2181 12.8595 60.2842 13.0327 60.2842 13.2378C60.2842 13.4338 60.2181 13.6024 60.0859 13.7437C59.9583 13.8804 59.7738 13.9487 59.5322 13.9487C59.2861 13.9487 59.0993 13.8804 58.9717 13.7437C58.8486 13.6024 58.7871 13.4338 58.7871 13.2378ZM65.2812 15.1997V16.1704H61.2822V15.1997H65.2812ZM62.6357 13.4019H63.9004V20.7642C63.9004 21.0148 63.9391 21.2039 64.0166 21.3315C64.0941 21.4591 64.1943 21.5435 64.3174 21.5845C64.4404 21.6255 64.5726 21.646 64.7139 21.646C64.8187 21.646 64.9281 21.6369 65.042 21.6187C65.1605 21.5959 65.2493 21.5776 65.3086 21.564L65.3154 22.5962C65.2152 22.6281 65.083 22.6577 64.9189 22.6851C64.7594 22.717 64.5658 22.7329 64.3379 22.7329C64.028 22.7329 63.7432 22.6714 63.4834 22.5483C63.2236 22.4253 63.0163 22.2202 62.8613 21.9331C62.7109 21.6414 62.6357 21.2495 62.6357 20.7573V13.4019ZM68.8428 21.8306L70.9004 15.1997H72.2539L69.2871 23.7378C69.2188 23.9201 69.1276 24.116 69.0137 24.3257C68.9043 24.5399 68.763 24.7427 68.5898 24.9341C68.4167 25.1255 68.207 25.2804 67.9609 25.3989C67.7194 25.522 67.43 25.5835 67.0928 25.5835C66.9925 25.5835 66.8649 25.5698 66.71 25.5425C66.555 25.5151 66.4456 25.4924 66.3818 25.4741L66.375 24.4487C66.4115 24.4533 66.4684 24.4578 66.5459 24.4624C66.6279 24.4715 66.6849 24.4761 66.7168 24.4761C67.0039 24.4761 67.2477 24.4373 67.4482 24.3599C67.6488 24.2869 67.8174 24.1616 67.9541 23.9839C68.0954 23.8107 68.2161 23.5715 68.3164 23.2661L68.8428 21.8306ZM67.332 15.1997L69.2529 20.9419L69.5811 22.2749L68.6719 22.7397L65.9512 15.1997H67.332ZM81.25 17.3052V17.9341C81.25 18.6815 81.1566 19.3514 80.9697 19.9438C80.7829 20.5363 80.514 21.0399 80.1631 21.4546C79.8122 21.8693 79.3906 22.186 78.8984 22.4048C78.4108 22.6235 77.8639 22.7329 77.2578 22.7329C76.6699 22.7329 76.1299 22.6235 75.6377 22.4048C75.1501 22.186 74.7262 21.8693 74.3662 21.4546C74.0107 21.0399 73.735 20.5363 73.5391 19.9438C73.3431 19.3514 73.2451 18.6815 73.2451 17.9341V17.3052C73.2451 16.5578 73.3408 15.8901 73.5322 15.3022C73.7282 14.7098 74.0039 14.2062 74.3594 13.7915C74.7148 13.3722 75.1364 13.0532 75.624 12.8345C76.1162 12.6157 76.6562 12.5063 77.2441 12.5063C77.8503 12.5063 78.3971 12.6157 78.8848 12.8345C79.377 13.0532 79.7985 13.3722 80.1494 13.7915C80.5049 14.2062 80.776 14.7098 80.9629 15.3022C81.1543 15.8901 81.25 16.5578 81.25 17.3052ZM79.9443 17.9341V17.2915C79.9443 16.6991 79.8828 16.175 79.7598 15.7192C79.6413 15.2635 79.4658 14.8807 79.2334 14.5708C79.001 14.2609 78.7161 14.0262 78.3789 13.8667C78.0462 13.7072 77.668 13.6274 77.2441 13.6274C76.834 13.6274 76.4626 13.7072 76.1299 13.8667C75.8018 14.0262 75.5192 14.2609 75.2822 14.5708C75.0498 14.8807 74.8698 15.2635 74.7422 15.7192C74.6146 16.175 74.5508 16.6991 74.5508 17.2915V17.9341C74.5508 18.5311 74.6146 19.0597 74.7422 19.52C74.8698 19.9757 75.0521 20.3608 75.2891 20.6753C75.5306 20.9852 75.8154 21.2199 76.1436 21.3794C76.4762 21.5389 76.8477 21.6187 77.2578 21.6187C77.6862 21.6187 78.0667 21.5389 78.3994 21.3794C78.7321 21.2199 79.0124 20.9852 79.2402 20.6753C79.4727 20.3608 79.6481 19.9757 79.7666 19.52C79.8851 19.0597 79.9443 18.5311 79.9443 17.9341ZM84.2988 16.7788V22.5962H83.0342V15.1997H84.2305L84.2988 16.7788ZM83.998 18.6177L83.4717 18.5972C83.4762 18.0913 83.5514 17.6242 83.6973 17.1958C83.8431 16.7629 84.0482 16.3869 84.3125 16.0679C84.5768 15.7489 84.8913 15.5028 85.2559 15.3296C85.625 15.1519 86.0329 15.063 86.4795 15.063C86.8441 15.063 87.1722 15.1131 87.4639 15.2134C87.7555 15.3091 88.0039 15.464 88.209 15.6782C88.4186 15.8924 88.5781 16.1704 88.6875 16.5122C88.7969 16.8494 88.8516 17.2619 88.8516 17.7495V22.5962H87.5801V17.7358C87.5801 17.3485 87.5231 17.0386 87.4092 16.8062C87.2952 16.5692 87.1289 16.3983 86.9102 16.2935C86.6914 16.1841 86.4225 16.1294 86.1035 16.1294C85.7891 16.1294 85.502 16.1955 85.2422 16.3276C84.987 16.4598 84.766 16.6421 84.5791 16.8745C84.3968 17.1069 84.2533 17.3735 84.1484 17.6743C84.0482 17.9705 83.998 18.285 83.998 18.6177ZM93.8418 22.7329C93.3268 22.7329 92.8597 22.6463 92.4404 22.4731C92.0257 22.2954 91.668 22.047 91.3672 21.728C91.071 21.409 90.8431 21.0308 90.6836 20.5933C90.5241 20.1558 90.4443 19.6772 90.4443 19.1577V18.8706C90.4443 18.269 90.5332 17.7336 90.7109 17.2642C90.8887 16.7902 91.1302 16.3892 91.4355 16.061C91.7409 15.7329 92.0872 15.4845 92.4746 15.3159C92.862 15.1473 93.263 15.063 93.6777 15.063C94.2064 15.063 94.6621 15.1541 95.0449 15.3364C95.4323 15.5187 95.749 15.7739 95.9951 16.1021C96.2412 16.4256 96.4235 16.8084 96.542 17.2505C96.6605 17.688 96.7197 18.1665 96.7197 18.686V19.2534H91.1963V18.2212H95.4551V18.1255C95.4368 17.7974 95.3685 17.4784 95.25 17.1685C95.1361 16.8586 94.9538 16.6034 94.7031 16.4028C94.4525 16.2023 94.1107 16.1021 93.6777 16.1021C93.3906 16.1021 93.1263 16.1636 92.8848 16.2866C92.6432 16.4051 92.4359 16.5828 92.2627 16.8198C92.0895 17.0568 91.9551 17.3462 91.8594 17.688C91.7637 18.0298 91.7158 18.424 91.7158 18.8706V19.1577C91.7158 19.5086 91.7637 19.839 91.8594 20.1489C91.9596 20.4543 92.1032 20.7231 92.29 20.9556C92.4814 21.188 92.7116 21.3703 92.9805 21.5024C93.2539 21.6346 93.5638 21.7007 93.9102 21.7007C94.3568 21.7007 94.735 21.6095 95.0449 21.4272C95.3548 21.245 95.626 21.0011 95.8584 20.6958L96.624 21.3042C96.4645 21.5457 96.2617 21.7759 96.0156 21.9946C95.7695 22.2134 95.4665 22.3911 95.1064 22.5278C94.751 22.6646 94.3294 22.7329 93.8418 22.7329ZM103.275 12.6431V22.5962H101.956V12.6431H103.275ZM109.147 12.6431V22.5962H107.849V12.6431H109.147ZM112.347 12.6431V13.7231H104.656V12.6431H112.347ZM119.019 20.0806C119.019 19.8481 118.982 19.6431 118.909 19.4653C118.841 19.283 118.718 19.119 118.54 18.9731C118.367 18.8273 118.125 18.6883 117.815 18.5562C117.51 18.424 117.123 18.2896 116.653 18.1528C116.161 18.007 115.717 17.8452 115.32 17.6675C114.924 17.4852 114.584 17.2778 114.302 17.0454C114.019 16.813 113.803 16.5464 113.652 16.2456C113.502 15.9448 113.427 15.6007 113.427 15.2134C113.427 14.826 113.507 14.4683 113.666 14.1401C113.826 13.812 114.053 13.5272 114.35 13.2856C114.65 13.0396 115.008 12.8481 115.423 12.7114C115.838 12.5747 116.3 12.5063 116.811 12.5063C117.558 12.5063 118.191 12.6499 118.711 12.937C119.235 13.2196 119.634 13.591 119.907 14.0513C120.181 14.507 120.317 14.9946 120.317 15.5142H119.005C119.005 15.1405 118.925 14.8101 118.766 14.5229C118.606 14.2313 118.365 14.0034 118.041 13.8394C117.717 13.6707 117.307 13.5864 116.811 13.5864C116.341 13.5864 115.954 13.6571 115.648 13.7983C115.343 13.9396 115.115 14.131 114.965 14.3726C114.819 14.6141 114.746 14.8898 114.746 15.1997C114.746 15.4093 114.789 15.6007 114.876 15.7739C114.967 15.9425 115.106 16.0998 115.293 16.2456C115.484 16.3914 115.726 16.5259 116.018 16.6489C116.314 16.772 116.667 16.8905 117.077 17.0044C117.642 17.1639 118.13 17.3416 118.54 17.5376C118.95 17.7336 119.287 17.9546 119.552 18.2007C119.821 18.4422 120.019 18.7179 120.146 19.0278C120.279 19.3332 120.345 19.6795 120.345 20.0669C120.345 20.4725 120.263 20.8394 120.099 21.1675C119.935 21.4956 119.7 21.7759 119.395 22.0083C119.089 22.2407 118.722 22.4207 118.294 22.5483C117.87 22.6714 117.396 22.7329 116.872 22.7329C116.412 22.7329 115.958 22.6691 115.512 22.5415C115.07 22.4139 114.666 22.2225 114.302 21.9673C113.942 21.7121 113.652 21.3976 113.434 21.0239C113.219 20.6457 113.112 20.2082 113.112 19.7114H114.425C114.425 20.0532 114.491 20.3472 114.623 20.5933C114.755 20.8348 114.935 21.0353 115.163 21.1948C115.396 21.3543 115.658 21.4728 115.949 21.5503C116.245 21.6232 116.553 21.6597 116.872 21.6597C117.332 21.6597 117.722 21.5959 118.041 21.4683C118.36 21.3407 118.602 21.1584 118.766 20.9214C118.934 20.6844 119.019 20.4041 119.019 20.0806ZM122.443 12.6431H123.722L126.982 20.7573L130.236 12.6431H131.521L127.475 22.5962H126.477L122.443 12.6431ZM122.026 12.6431H123.154L123.339 18.7134V22.5962H122.026V12.6431ZM130.804 12.6431H131.932V22.5962H130.619V18.7134L130.804 12.6431Z" fill="black"/>
<rect x="1" y="1" width="34" height="34" rx="17" fill="white"/>
<rect x="1" y="1" width="34" height="34" rx="17" stroke="#378AD8"/>
<g clip-path="url(#clip1_28622_8167)">
<path d="M9.5918 15.5394C10.2695 15.5394 10.9194 15.8103 11.3986 16.2926C11.8778 16.7748 12.147 17.4289 12.147 18.1108C12.147 18.7928 11.8778 19.4469 11.3986 19.9291C10.9194 20.4114 10.2695 20.6823 9.5918 20.6823V22.3966C9.5918 22.8512 9.77127 23.2872 10.0907 23.6087C10.4102 23.9302 10.8435 24.1108 11.2952 24.1108H24.9228C25.3746 24.1108 25.8079 23.9302 26.1274 23.6087C26.4468 23.2872 26.6263 22.8512 26.6263 22.3966V20.6823C25.9486 20.6823 25.2987 20.4114 24.8195 19.9291C24.3403 19.4469 24.0711 18.7928 24.0711 18.1108C24.0711 17.4289 24.3403 16.7748 24.8195 16.2926C25.2987 15.8103 25.9486 15.5394 26.6263 15.5394V13.8251C26.6263 13.3705 26.4468 12.9344 26.1274 12.6129C25.8079 12.2915 25.3746 12.1108 24.9228 12.1108H11.2952C10.8435 12.1108 10.4102 12.2915 10.0907 12.6129C9.77127 12.9344 9.5918 13.3705 9.5918 13.8251V15.5394Z" stroke="#378AD8" stroke-width="1.5" stroke-linecap="round" stroke-linejoin="round"/>
<path d="M15.4883 18.1108L17.2354 20.1108L20.7297 16.1108" stroke="#378AD8" stroke-width="1.5" stroke-linecap="round" stroke-linejoin="round"/>
</g>
</g>
<defs>
<clipPath id="clip0_28622_8167">
<rect width="132" height="36" fill="white"/>
</clipPath>
<clipPath id="clip1_28622_8167">
<rect width="19" height="14" fill="white" transform="translate(8.5 11)"/>
</clipPath>
</defs>
</svg>
