<svg width="114" height="28" viewBox="0 0 114 28" fill="none" xmlns="http://www.w3.org/2000/svg">
<g clip-path="url(#clip0_9_1282)">
<path d="M9 28C4.03125 28 0 23.9688 0 19C0 15.075 2.5125 11.7375 6.0125 10.5063C6.00625 10.3375 6 10.1688 6 10C6 4.475 10.475 0 16 0C19.7062 0 22.9375 2.0125 24.6688 5.0125C25.6188 4.375 26.7687 4 28 4C31.3125 4 34 6.6875 34 10C34 10.7625 33.8562 11.4875 33.6 12.1625C37.25 12.9 40 16.1312 40 20C40 24.4187 36.4187 28 32 28H9ZM13.9375 14.4375C13.35 15.025 13.35 15.975 13.9375 16.5562C14.525 17.1375 15.475 17.1437 16.0562 16.5562L18.4937 14.1187V22.5C18.4937 23.3313 19.1625 24 19.9937 24C20.825 24 21.4937 23.3313 21.4937 22.5V14.1187L23.9312 16.5562C24.5187 17.1437 25.4687 17.1437 26.05 16.5562C26.6312 15.9687 26.6375 15.0188 26.05 14.4375L21.05 9.4375C20.4625 8.85 19.5125 8.85 18.9312 9.4375L13.9312 14.4375H13.9375Z" fill="#23282C"/>
</g>
<path d="M50.8496 9.04688H52.1621V15.7803C52.1621 16.5277 51.9958 17.1497 51.6631 17.6465C51.3304 18.1432 50.8883 18.5169 50.3369 18.7676C49.79 19.0137 49.1953 19.1367 48.5527 19.1367C47.8783 19.1367 47.2676 19.0137 46.7207 18.7676C46.1784 18.5169 45.7477 18.1432 45.4287 17.6465C45.1143 17.1497 44.957 16.5277 44.957 15.7803V9.04688H46.2627V15.7803C46.2627 16.2998 46.3584 16.7282 46.5498 17.0654C46.7412 17.4027 47.0078 17.6533 47.3496 17.8174C47.696 17.9814 48.097 18.0635 48.5527 18.0635C49.013 18.0635 49.4141 17.9814 49.7559 17.8174C50.1022 17.6533 50.3711 17.4027 50.5625 17.0654C50.7539 16.7282 50.8496 16.2998 50.8496 15.7803V9.04688ZM55.3066 13.0254V21.8438H54.0352V11.6035H55.1973L55.3066 13.0254ZM60.29 15.2402V15.3838C60.29 15.9215 60.2262 16.4206 60.0986 16.8809C59.971 17.3366 59.7842 17.7331 59.5381 18.0703C59.2965 18.4076 58.998 18.6696 58.6426 18.8564C58.2871 19.0433 57.8792 19.1367 57.4189 19.1367C56.9495 19.1367 56.5348 19.0592 56.1748 18.9043C55.8148 18.7493 55.5094 18.5238 55.2588 18.2275C55.0081 17.9313 54.8076 17.5758 54.6572 17.1611C54.5114 16.7464 54.4111 16.2793 54.3564 15.7598V14.9941C54.4111 14.4473 54.5137 13.9574 54.6641 13.5244C54.8145 13.0915 55.0127 12.7223 55.2588 12.417C55.5094 12.1071 55.8125 11.8724 56.168 11.7129C56.5234 11.5488 56.9336 11.4668 57.3984 11.4668C57.8633 11.4668 58.2757 11.5579 58.6357 11.7402C58.9958 11.918 59.2988 12.1732 59.5449 12.5059C59.791 12.8385 59.9756 13.2373 60.0986 13.7021C60.2262 14.1624 60.29 14.6751 60.29 15.2402ZM59.0186 15.3838V15.2402C59.0186 14.8711 58.9798 14.5247 58.9023 14.2012C58.8249 13.873 58.7041 13.5859 58.54 13.3398C58.3805 13.0892 58.1755 12.8932 57.9248 12.752C57.6742 12.6061 57.3757 12.5332 57.0293 12.5332C56.7103 12.5332 56.4323 12.5879 56.1953 12.6973C55.9629 12.8066 55.7646 12.9548 55.6006 13.1416C55.4365 13.3239 55.3021 13.5335 55.1973 13.7705C55.097 14.0029 55.0218 14.2445 54.9717 14.4951V16.2656C55.0628 16.5846 55.1904 16.8854 55.3545 17.168C55.5186 17.446 55.7373 17.6715 56.0107 17.8447C56.2842 18.0133 56.6283 18.0977 57.043 18.0977C57.3848 18.0977 57.6787 18.027 57.9248 17.8857C58.1755 17.7399 58.3805 17.5417 58.54 17.291C58.7041 17.0404 58.8249 16.7533 58.9023 16.4297C58.9798 16.1016 59.0186 15.7529 59.0186 15.3838ZM63.2773 8.5V19H62.0059V8.5H63.2773ZM64.9727 15.3838V15.2266C64.9727 14.6934 65.0501 14.1989 65.2051 13.7432C65.36 13.2829 65.5833 12.8841 65.875 12.5469C66.1667 12.2051 66.5199 11.9408 66.9346 11.7539C67.3493 11.5625 67.8141 11.4668 68.3291 11.4668C68.8486 11.4668 69.3158 11.5625 69.7305 11.7539C70.1497 11.9408 70.5052 12.2051 70.7969 12.5469C71.0931 12.8841 71.3187 13.2829 71.4736 13.7432C71.6286 14.1989 71.7061 14.6934 71.7061 15.2266V15.3838C71.7061 15.917 71.6286 16.4115 71.4736 16.8672C71.3187 17.3229 71.0931 17.7217 70.7969 18.0635C70.5052 18.4007 70.152 18.665 69.7373 18.8564C69.3271 19.0433 68.8623 19.1367 68.3428 19.1367C67.8232 19.1367 67.3561 19.0433 66.9414 18.8564C66.5267 18.665 66.1712 18.4007 65.875 18.0635C65.5833 17.7217 65.36 17.3229 65.2051 16.8672C65.0501 16.4115 64.9727 15.917 64.9727 15.3838ZM66.2373 15.2266V15.3838C66.2373 15.7529 66.2806 16.1016 66.3672 16.4297C66.4538 16.7533 66.5837 17.0404 66.7568 17.291C66.9346 17.5417 67.1556 17.7399 67.4199 17.8857C67.6842 18.027 67.9919 18.0977 68.3428 18.0977C68.6891 18.0977 68.9922 18.027 69.252 17.8857C69.5163 17.7399 69.735 17.5417 69.9082 17.291C70.0814 17.0404 70.2113 16.7533 70.2979 16.4297C70.389 16.1016 70.4346 15.7529 70.4346 15.3838V15.2266C70.4346 14.862 70.389 14.5179 70.2979 14.1943C70.2113 13.8662 70.0791 13.5768 69.9014 13.3262C69.7282 13.071 69.5094 12.8704 69.2451 12.7246C68.9854 12.5788 68.68 12.5059 68.3291 12.5059C67.9827 12.5059 67.6774 12.5788 67.4131 12.7246C67.1533 12.8704 66.9346 13.071 66.7568 13.3262C66.5837 13.5768 66.4538 13.8662 66.3672 14.1943C66.2806 14.5179 66.2373 14.862 66.2373 15.2266ZM77.6533 17.7354V13.9277C77.6533 13.6361 77.5941 13.3831 77.4756 13.1689C77.3617 12.9502 77.1885 12.7816 76.9561 12.6631C76.7236 12.5446 76.4365 12.4854 76.0947 12.4854C75.7757 12.4854 75.4954 12.54 75.2539 12.6494C75.0169 12.7588 74.8301 12.9023 74.6934 13.0801C74.5612 13.2578 74.4951 13.4492 74.4951 13.6543H73.2305C73.2305 13.39 73.2988 13.1279 73.4355 12.8682C73.5723 12.6084 73.7682 12.3737 74.0234 12.1641C74.2832 11.9499 74.5931 11.7812 74.9531 11.6582C75.3177 11.5306 75.7233 11.4668 76.1699 11.4668C76.7077 11.4668 77.1816 11.5579 77.5918 11.7402C78.0065 11.9225 78.3301 12.1982 78.5625 12.5674C78.7995 12.932 78.918 13.39 78.918 13.9414V17.3867C78.918 17.6328 78.9385 17.8949 78.9795 18.1729C79.0251 18.4508 79.0911 18.6901 79.1777 18.8906V19H77.8584C77.7946 18.8542 77.7445 18.6605 77.708 18.4189C77.6715 18.1729 77.6533 17.945 77.6533 17.7354ZM77.8721 14.5156L77.8857 15.4043H76.6074C76.2474 15.4043 75.9261 15.4339 75.6436 15.4932C75.361 15.5479 75.124 15.6322 74.9326 15.7461C74.7412 15.86 74.5954 16.0036 74.4951 16.1768C74.3949 16.3454 74.3447 16.5436 74.3447 16.7715C74.3447 17.0039 74.3971 17.2158 74.502 17.4072C74.6068 17.5986 74.764 17.7513 74.9736 17.8652C75.1878 17.9746 75.4499 18.0293 75.7598 18.0293C76.1471 18.0293 76.4889 17.9473 76.7852 17.7832C77.0814 17.6191 77.3161 17.4186 77.4893 17.1816C77.667 16.9447 77.7627 16.7145 77.7764 16.4912L78.3164 17.0996C78.2845 17.291 78.1979 17.5029 78.0566 17.7354C77.9154 17.9678 77.7262 18.1911 77.4893 18.4053C77.2568 18.6149 76.9788 18.7904 76.6553 18.9316C76.3363 19.0684 75.9762 19.1367 75.5752 19.1367C75.0739 19.1367 74.6341 19.0387 74.2559 18.8428C73.8822 18.6468 73.5905 18.3848 73.3809 18.0566C73.1758 17.724 73.0732 17.3525 73.0732 16.9424C73.0732 16.5459 73.1507 16.1973 73.3057 15.8965C73.4606 15.5911 73.6839 15.3382 73.9756 15.1377C74.2673 14.9326 74.6182 14.7777 75.0283 14.6729C75.4385 14.568 75.8965 14.5156 76.4023 14.5156H77.8721ZM85.5693 17.5645V8.5H86.8408V19H85.6787L85.5693 17.5645ZM80.5928 15.3838V15.2402C80.5928 14.6751 80.6611 14.1624 80.7979 13.7021C80.9391 13.2373 81.1374 12.8385 81.3926 12.5059C81.6523 12.1732 81.96 11.918 82.3154 11.7402C82.6755 11.5579 83.0765 11.4668 83.5186 11.4668C83.9834 11.4668 84.389 11.5488 84.7354 11.7129C85.0863 11.8724 85.3825 12.1071 85.624 12.417C85.8701 12.7223 86.0638 13.0915 86.2051 13.5244C86.3464 13.9574 86.4443 14.4473 86.499 14.9941V15.623C86.4489 16.1654 86.3509 16.653 86.2051 17.0859C86.0638 17.5189 85.8701 17.888 85.624 18.1934C85.3825 18.4987 85.0863 18.7334 84.7354 18.8975C84.3844 19.057 83.9743 19.1367 83.5049 19.1367C83.0719 19.1367 82.6755 19.0433 82.3154 18.8564C81.96 18.6696 81.6523 18.4076 81.3926 18.0703C81.1374 17.7331 80.9391 17.3366 80.7979 16.8809C80.6611 16.4206 80.5928 15.9215 80.5928 15.3838ZM81.8643 15.2402V15.3838C81.8643 15.7529 81.9007 16.0993 81.9736 16.4229C82.0511 16.7464 82.1696 17.0312 82.3291 17.2773C82.4886 17.5234 82.6914 17.7171 82.9375 17.8584C83.1836 17.9951 83.4775 18.0635 83.8193 18.0635C84.2386 18.0635 84.5827 17.9746 84.8516 17.7969C85.125 17.6191 85.3438 17.3844 85.5078 17.0928C85.6719 16.8011 85.7995 16.4844 85.8906 16.1426V14.4951C85.8359 14.2445 85.7562 14.0029 85.6514 13.7705C85.5511 13.5335 85.4189 13.3239 85.2549 13.1416C85.0954 12.9548 84.8971 12.8066 84.6602 12.6973C84.4277 12.5879 84.152 12.5332 83.833 12.5332C83.4867 12.5332 83.1882 12.6061 82.9375 12.752C82.6914 12.8932 82.4886 13.0892 82.3291 13.3398C82.1696 13.5859 82.0511 13.873 81.9736 14.2012C81.9007 14.5247 81.8643 14.8711 81.8643 15.2402ZM93.793 9.04688V19H92.4736V9.04688H93.793ZM97.9629 13.5244V14.6045H93.5059V13.5244H97.9629ZM98.6396 9.04688V10.127H93.5059V9.04688H98.6396ZM101.395 11.6035V19H100.123V11.6035H101.395ZM100.027 9.6416C100.027 9.43652 100.089 9.26335 100.212 9.12207C100.34 8.98079 100.526 8.91016 100.772 8.91016C101.014 8.91016 101.199 8.98079 101.326 9.12207C101.458 9.26335 101.524 9.43652 101.524 9.6416C101.524 9.83757 101.458 10.0062 101.326 10.1475C101.199 10.2842 101.014 10.3525 100.772 10.3525C100.526 10.3525 100.34 10.2842 100.212 10.1475C100.089 10.0062 100.027 9.83757 100.027 9.6416ZM104.799 8.5V19H103.527V8.5H104.799ZM109.898 19.1367C109.383 19.1367 108.916 19.0501 108.497 18.877C108.082 18.6992 107.725 18.4508 107.424 18.1318C107.128 17.8128 106.9 17.4346 106.74 16.9971C106.581 16.5596 106.501 16.0811 106.501 15.5615V15.2744C106.501 14.6729 106.59 14.1374 106.768 13.668C106.945 13.194 107.187 12.793 107.492 12.4648C107.798 12.1367 108.144 11.8883 108.531 11.7197C108.919 11.5511 109.32 11.4668 109.734 11.4668C110.263 11.4668 110.719 11.5579 111.102 11.7402C111.489 11.9225 111.806 12.1777 112.052 12.5059C112.298 12.8294 112.48 13.2122 112.599 13.6543C112.717 14.0918 112.776 14.5703 112.776 15.0898V15.6572H107.253V14.625H111.512V14.5293C111.493 14.2012 111.425 13.8822 111.307 13.5723C111.193 13.2624 111.01 13.0072 110.76 12.8066C110.509 12.6061 110.167 12.5059 109.734 12.5059C109.447 12.5059 109.183 12.5674 108.941 12.6904C108.7 12.8089 108.493 12.9867 108.319 13.2236C108.146 13.4606 108.012 13.75 107.916 14.0918C107.82 14.4336 107.772 14.8278 107.772 15.2744V15.5615C107.772 15.9124 107.82 16.2428 107.916 16.5527C108.016 16.8581 108.16 17.127 108.347 17.3594C108.538 17.5918 108.768 17.7741 109.037 17.9062C109.311 18.0384 109.62 18.1045 109.967 18.1045C110.413 18.1045 110.792 18.0133 111.102 17.8311C111.411 17.6488 111.683 17.4049 111.915 17.0996L112.681 17.708C112.521 17.9495 112.318 18.1797 112.072 18.3984C111.826 18.6172 111.523 18.7949 111.163 18.9316C110.808 19.0684 110.386 19.1367 109.898 19.1367Z" fill="black"/>
<defs>
<clipPath id="clip0_9_1282">
<rect width="40" height="28" fill="white"/>
</clipPath>
</defs>
</svg>
