<svg width="107" height="36" viewBox="0 0 107 36" fill="none" xmlns="http://www.w3.org/2000/svg">
<g clip-path="url(#clip0_6668_10706)">
<mask id="mask0_6668_10706" style="mask-type:luminance" maskUnits="userSpaceOnUse" x="1" y="2" width="93" height="32">
<path d="M94 2H1V34H94V2Z" fill="white"/>
</mask>
<g mask="url(#mask0_6668_10706)">
<path d="M42.6371 19.7708L44.4744 13.5972H45.3645L44.8495 15.9974L42.8724 22.4444H41.9887L42.6371 19.7708ZM40.7363 13.5972L42.1985 19.6493L42.6371 22.4444H41.7598L39.5156 13.5972H40.7363ZM47.7421 19.6431L49.1726 13.5972H50.3995L48.1617 22.4444H47.2844L47.7421 19.6431ZM45.4979 13.5972L47.2844 19.7708L47.9329 22.4444H47.0492L45.1419 15.9974L44.6206 13.5972H45.4979ZM51.0671 19.23V19.0902C51.0671 18.6163 51.1391 18.1767 51.2832 17.7717C51.4273 17.3625 51.635 17.008 51.9062 16.7083C52.1775 16.4045 52.506 16.1695 52.8916 16.0034C53.2773 15.8333 53.7097 15.7482 54.1885 15.7482C54.6717 15.7482 55.1061 15.8333 55.4918 16.0034C55.8818 16.1695 56.2123 16.4045 56.4836 16.7083C56.759 17.008 56.9688 17.3625 57.113 17.7717C57.2571 18.1767 57.3291 18.6163 57.3291 19.0902V19.23C57.3291 19.7039 57.2571 20.1435 57.113 20.5486C56.9688 20.9536 56.759 21.3081 56.4836 21.6119C56.2123 21.9117 55.8839 22.1466 55.4981 22.3167C55.1167 22.4829 54.6844 22.5659 54.2013 22.5659C53.7181 22.5659 53.2837 22.4829 52.898 22.3167C52.5123 22.1466 52.1818 21.9117 51.9062 21.6119C51.635 21.3081 51.4273 20.9536 51.2832 20.5486C51.1391 20.1435 51.0671 19.7039 51.0671 19.23ZM52.2431 19.0902V19.23C52.2431 19.5581 52.2834 19.868 52.3639 20.1597C52.4445 20.4473 52.5653 20.7025 52.7264 20.9253C52.8916 21.1481 53.0972 21.3243 53.343 21.4539C53.5888 21.5795 53.8749 21.6423 54.2013 21.6423C54.5234 21.6423 54.8052 21.5795 55.0468 21.4539C55.2926 21.3243 55.4961 21.1481 55.6571 20.9253C55.8182 20.7025 55.939 20.4473 56.0195 20.1597C56.1042 19.868 56.1466 19.5581 56.1466 19.23V19.0902C56.1466 18.7662 56.1042 18.4603 56.0195 18.1726C55.939 17.881 55.816 17.6238 55.6508 17.401C55.4897 17.1742 55.2863 16.9958 55.0405 16.8662C54.7989 16.7366 54.5149 16.6718 54.1885 16.6718C53.8665 16.6718 53.5824 16.7366 53.3366 16.8662C53.0951 16.9958 52.8916 17.1742 52.7264 17.401C52.5653 17.6238 52.4445 17.881 52.3639 18.1726C52.2834 18.4603 52.2431 18.7662 52.2431 19.0902ZM59.9802 16.9027V22.4444H58.804V15.8697H59.9484L59.9802 16.9027ZM62.1289 15.8333L62.1226 16.8784C62.0252 16.8582 61.9319 16.846 61.8429 16.842C61.7582 16.8339 61.6606 16.8298 61.5505 16.8298C61.2792 16.8298 61.0397 16.8703 60.8321 16.9513C60.6244 17.0324 60.4485 17.1458 60.3044 17.2916C60.1603 17.4374 60.0458 17.6117 59.9611 17.8142C59.8806 18.0126 59.8276 18.2314 59.8022 18.4704L59.4716 18.6527C59.4716 18.2558 59.5118 17.883 59.5924 17.5347C59.6771 17.1862 59.8064 16.8784 59.9802 16.611C60.1539 16.3397 60.3743 16.129 60.6413 15.9791C60.9126 15.8252 61.2347 15.7482 61.6077 15.7482C61.6924 15.7482 61.7899 15.7583 61.9001 15.7786C62.0103 15.7948 62.0865 15.813 62.1289 15.8333ZM64.3986 13.111V22.4444H63.2161V13.111H64.3986ZM68.6008 15.8697L65.6001 18.9383L63.9218 20.6032L63.8264 19.4062L65.0279 18.0329L67.1641 15.8697H68.6008ZM67.5264 22.4444L65.0725 19.309L65.6828 18.3063L68.9124 22.4444H67.5264ZM71.5697 22.4444H70.3936V15.177C70.3936 14.703 70.4847 14.304 70.667 13.9799C70.8535 13.6518 71.1205 13.4047 71.468 13.2387C71.8198 13.0685 72.2458 12.9834 72.7458 12.9834C72.9324 12.9834 73.1654 13.0017 73.4452 13.0382C73.7291 13.0746 74.0301 13.1212 74.3479 13.1779C74.67 13.2346 74.9837 13.2934 75.2888 13.3541L74.7421 14.1684C74.3395 14.0954 73.9771 14.0407 73.655 14.0043C73.3328 13.9638 73.0595 13.9435 72.8348 13.9435C72.5594 13.9435 72.3263 13.9921 72.1356 14.0894C71.9491 14.1825 71.8071 14.3203 71.7096 14.5025C71.6163 14.6848 71.5697 14.9096 71.5697 15.177V22.4444ZM74.1127 22.4444V13.3541H75.2888V22.4444H74.1127ZM73.032 15.8697V16.7326H69.3065V15.8697H73.032ZM76.9036 19.23V19.0902C76.9036 18.6163 76.9757 18.1767 77.1198 17.7717C77.2639 17.3625 77.4715 17.008 77.7428 16.7083C78.0141 16.4045 78.3425 16.1695 78.7282 16.0034C79.1139 15.8333 79.5462 15.7482 80.0251 15.7482C80.5083 15.7482 80.9427 15.8333 81.3284 16.0034C81.7183 16.1695 82.0489 16.4045 82.3202 16.7083C82.5956 17.008 82.8055 17.3625 82.9495 17.7717C83.0937 18.1767 83.1656 18.6163 83.1656 19.0902V19.23C83.1656 19.7039 83.0937 20.1435 82.9495 20.5486C82.8055 20.9536 82.5956 21.3081 82.3202 21.6119C82.0489 21.9117 81.7204 22.1466 81.3347 22.3167C80.9533 22.4829 80.521 22.5659 80.0379 22.5659C79.5546 22.5659 79.1202 22.4829 78.7346 22.3167C78.3489 22.1466 78.0183 21.9117 77.7428 21.6119C77.4715 21.3081 77.2639 20.9536 77.1198 20.5486C76.9757 20.1435 76.9036 19.7039 76.9036 19.23ZM78.0797 19.0902V19.23C78.0797 19.5581 78.12 19.868 78.2006 20.1597C78.2811 20.4473 78.4018 20.7025 78.5629 20.9253C78.7282 21.1481 78.9338 21.3243 79.1796 21.4539C79.4254 21.5795 79.7114 21.6423 80.0379 21.6423C80.3599 21.6423 80.6418 21.5795 80.8833 21.4539C81.1292 21.3243 81.3326 21.1481 81.4937 20.9253C81.6548 20.7025 81.7755 20.4473 81.856 20.1597C81.9408 19.868 81.9832 19.5581 81.9832 19.23V19.0902C81.9832 18.7662 81.9408 18.4603 81.856 18.1726C81.7755 17.881 81.6526 17.6238 81.4874 17.401C81.3263 17.1742 81.1228 16.9958 80.877 16.8662C80.6354 16.7366 80.3515 16.6718 80.0251 16.6718C79.703 16.6718 79.419 16.7366 79.1732 16.8662C78.9316 16.9958 78.7282 17.1742 78.5629 17.401C78.4018 17.6238 78.2811 17.881 78.2006 18.1726C78.12 18.4603 78.0797 18.7662 78.0797 19.0902ZM86.3825 21.2777L88.1499 15.8697H88.9255L88.7729 16.9453L86.9738 22.4444H86.2172L86.3825 21.2777ZM85.1937 15.8697L86.7004 21.3385L86.8085 22.4444H86.0138L84.0176 15.8697H85.1937ZM90.6166 21.2959L92.0534 15.8697H93.2231L91.2269 22.4444H90.4386L90.6166 21.2959ZM89.0972 15.8697L90.8263 21.1866L91.0235 22.4444H90.2733L88.4233 16.9331L88.2707 15.8697H89.0972Z" fill="black"/>
<path d="M17.7397 33.1109C26.4713 33.1109 33.5497 26.3454 33.5497 17.9998C33.5497 9.65415 26.4713 2.88867 17.7397 2.88867C9.00807 2.88867 1.92969 9.65415 1.92969 17.9998C1.92969 26.3454 9.00807 33.1109 17.7397 33.1109Z" fill="#D8ECFF" stroke="#378AD8"/>
<path d="M26.8047 17.7637V17.347C26.8047 17.1168 26.6096 16.9304 26.3687 16.9304H18.7398V15.8887H20.7016C21.183 15.8887 21.5734 15.5155 21.5734 15.0553V11.722C21.5734 11.2618 21.183 10.8887 20.7016 10.8887H15.4703C14.9889 10.8887 14.5984 11.2618 14.5984 11.722V15.0553C14.5984 15.5155 14.9889 15.8887 15.4703 15.8887H17.4321V16.9304H9.80313C9.56226 16.9304 9.36719 17.1168 9.36719 17.347V17.7637C9.36719 17.9938 9.56226 18.1803 9.80313 18.1803H12.6367V19.222H11.1109C10.6295 19.222 10.2391 19.5952 10.2391 20.0553V23.3887C10.2391 23.8488 10.6295 24.222 11.1109 24.222H15.4703C15.9518 24.222 16.3422 23.8488 16.3422 23.3887V20.0553C16.3422 19.5952 15.9518 19.222 15.4703 19.222H13.9446V18.1803H22.2273V19.222H20.7016C20.2201 19.222 19.8297 19.5952 19.8297 20.0553V23.3887C19.8297 23.8488 20.2201 24.222 20.7016 24.222H25.0609C25.5424 24.222 25.9328 23.8488 25.9328 23.3887V20.0553C25.9328 19.5952 25.5424 19.222 25.0609 19.222H23.5352V18.1803H26.3687C26.6096 18.1803 26.8047 17.9938 26.8047 17.7637ZM16.3422 14.222V12.5553H19.8297V14.222H16.3422ZM14.5984 22.5553H11.9828V20.8887H14.5984V22.5553ZM24.1891 22.5553H21.5734V20.8887H24.1891V22.5553Z" fill="#378AD8"/>
</g>
</g>
<defs>
<clipPath id="clip0_6668_10706">
<rect width="93" height="32" fill="white" transform="translate(1 2)"/>
</clipPath>
</defs>
</svg>
