<svg width="100" height="36" viewBox="0 0 100 36" fill="none" xmlns="http://www.w3.org/2000/svg">
<g clip-path="url(#clip0_986_102531)">
<path d="M44.7734 19.9922L46.749 13.0469H47.7061L47.1523 15.7471L45.0264 23H44.0762L44.7734 19.9922ZM42.7295 13.0469L44.3018 19.8555L44.7734 23H43.8301L41.417 13.0469H42.7295ZM50.2627 19.8486L51.8008 13.0469H53.1201L50.7139 23H49.7705L50.2627 19.8486ZM47.8496 13.0469L49.7705 19.9922L50.4678 23H49.5176L47.4668 15.7471L46.9062 13.0469H47.8496ZM53.8379 19.3838V19.2266C53.8379 18.6934 53.9154 18.1989 54.0703 17.7432C54.2253 17.2829 54.4486 16.8841 54.7402 16.5469C55.0319 16.2051 55.3851 15.9408 55.7998 15.7539C56.2145 15.5625 56.6794 15.4668 57.1943 15.4668C57.7139 15.4668 58.181 15.5625 58.5957 15.7539C59.015 15.9408 59.3704 16.2051 59.6621 16.5469C59.9583 16.8841 60.1839 17.2829 60.3389 17.7432C60.4938 18.1989 60.5713 18.6934 60.5713 19.2266V19.3838C60.5713 19.917 60.4938 20.4115 60.3389 20.8672C60.1839 21.3229 59.9583 21.7217 59.6621 22.0635C59.3704 22.4007 59.0173 22.665 58.6025 22.8564C58.1924 23.0433 57.7275 23.1367 57.208 23.1367C56.6885 23.1367 56.2214 23.0433 55.8066 22.8564C55.3919 22.665 55.0365 22.4007 54.7402 22.0635C54.4486 21.7217 54.2253 21.3229 54.0703 20.8672C53.9154 20.4115 53.8379 19.917 53.8379 19.3838ZM55.1025 19.2266V19.3838C55.1025 19.7529 55.1458 20.1016 55.2324 20.4297C55.319 20.7533 55.4489 21.0404 55.6221 21.291C55.7998 21.5417 56.0208 21.7399 56.2852 21.8857C56.5495 22.027 56.8571 22.0977 57.208 22.0977C57.5544 22.0977 57.8574 22.027 58.1172 21.8857C58.3815 21.7399 58.6003 21.5417 58.7734 21.291C58.9466 21.0404 59.0765 20.7533 59.1631 20.4297C59.2542 20.1016 59.2998 19.7529 59.2998 19.3838V19.2266C59.2998 18.862 59.2542 18.5179 59.1631 18.1943C59.0765 17.8662 58.9443 17.5768 58.7666 17.3262C58.5934 17.071 58.3747 16.8704 58.1104 16.7246C57.8506 16.5788 57.5452 16.5059 57.1943 16.5059C56.848 16.5059 56.5426 16.5788 56.2783 16.7246C56.0186 16.8704 55.7998 17.071 55.6221 17.3262C55.4489 17.5768 55.319 17.8662 55.2324 18.1943C55.1458 18.5179 55.1025 18.862 55.1025 19.2266ZM63.4219 16.7656V23H62.1572V15.6035H63.3877L63.4219 16.7656ZM65.7324 15.5625L65.7256 16.7383C65.6208 16.7155 65.5205 16.7018 65.4248 16.6973C65.3337 16.6882 65.2288 16.6836 65.1104 16.6836C64.8187 16.6836 64.5612 16.7292 64.3379 16.8203C64.1146 16.9115 63.9255 17.0391 63.7705 17.2031C63.6156 17.3672 63.4925 17.5632 63.4014 17.791C63.3148 18.0143 63.2578 18.2604 63.2305 18.5293L62.875 18.7344C62.875 18.2878 62.9183 17.8685 63.0049 17.4766C63.096 17.0846 63.235 16.7383 63.4219 16.4375C63.6087 16.1322 63.8457 15.8952 64.1328 15.7266C64.4245 15.5534 64.7708 15.4668 65.1719 15.4668C65.263 15.4668 65.3678 15.4782 65.4863 15.501C65.6048 15.5192 65.6868 15.5397 65.7324 15.5625ZM68.1729 12.5V23H66.9014V12.5H68.1729ZM72.6914 15.6035L69.4648 19.0557L67.6602 20.9287L67.5576 19.582L68.8496 18.0371L71.1465 15.6035H72.6914ZM71.5361 23L68.8975 19.4727L69.5537 18.3447L73.0264 23H71.5361ZM75.8838 23H74.6191V14.8242C74.6191 14.291 74.7171 13.8421 74.9131 13.4775C75.1136 13.1084 75.4007 12.8304 75.7744 12.6436C76.1527 12.4521 76.6107 12.3564 77.1484 12.3564C77.349 12.3564 77.5996 12.377 77.9004 12.418C78.2057 12.459 78.5293 12.5114 78.8711 12.5752C79.2174 12.639 79.5547 12.7051 79.8828 12.7734L79.2949 13.6895C78.862 13.6074 78.4723 13.5459 78.126 13.5049C77.7796 13.4593 77.4857 13.4365 77.2441 13.4365C76.9479 13.4365 76.6973 13.4912 76.4922 13.6006C76.2917 13.7054 76.139 13.8604 76.0342 14.0654C75.9339 14.2705 75.8838 14.5234 75.8838 14.8242V23ZM78.6182 23V12.7734H79.8828V23H78.6182ZM77.4561 15.6035V16.5742H73.4502V15.6035H77.4561ZM81.6191 19.3838V19.2266C81.6191 18.6934 81.6966 18.1989 81.8516 17.7432C82.0065 17.2829 82.2298 16.8841 82.5215 16.5469C82.8132 16.2051 83.1663 15.9408 83.5811 15.7539C83.9958 15.5625 84.4606 15.4668 84.9756 15.4668C85.4951 15.4668 85.9622 15.5625 86.377 15.7539C86.7962 15.9408 87.1517 16.2051 87.4434 16.5469C87.7396 16.8841 87.9652 17.2829 88.1201 17.7432C88.2751 18.1989 88.3525 18.6934 88.3525 19.2266V19.3838C88.3525 19.917 88.2751 20.4115 88.1201 20.8672C87.9652 21.3229 87.7396 21.7217 87.4434 22.0635C87.1517 22.4007 86.7985 22.665 86.3838 22.8564C85.9736 23.0433 85.5088 23.1367 84.9893 23.1367C84.4697 23.1367 84.0026 23.0433 83.5879 22.8564C83.1732 22.665 82.8177 22.4007 82.5215 22.0635C82.2298 21.7217 82.0065 21.3229 81.8516 20.8672C81.6966 20.4115 81.6191 19.917 81.6191 19.3838ZM82.8838 19.2266V19.3838C82.8838 19.7529 82.9271 20.1016 83.0137 20.4297C83.1003 20.7533 83.2301 21.0404 83.4033 21.291C83.5811 21.5417 83.8021 21.7399 84.0664 21.8857C84.3307 22.027 84.6383 22.0977 84.9893 22.0977C85.3356 22.0977 85.6387 22.027 85.8984 21.8857C86.1628 21.7399 86.3815 21.5417 86.5547 21.291C86.7279 21.0404 86.8577 20.7533 86.9443 20.4297C87.0355 20.1016 87.0811 19.7529 87.0811 19.3838V19.2266C87.0811 18.862 87.0355 18.5179 86.9443 18.1943C86.8577 17.8662 86.7256 17.5768 86.5479 17.3262C86.3747 17.071 86.1559 16.8704 85.8916 16.7246C85.6318 16.5788 85.3265 16.5059 84.9756 16.5059C84.6292 16.5059 84.3239 16.5788 84.0596 16.7246C83.7998 16.8704 83.5811 17.071 83.4033 17.3262C83.2301 17.5768 83.1003 17.8662 83.0137 18.1943C82.9271 18.5179 82.8838 18.862 82.8838 19.2266ZM91.8115 21.6875L93.7119 15.6035H94.5459L94.3818 16.8135L92.4473 23H91.6338L91.8115 21.6875ZM90.5332 15.6035L92.1533 21.7559L92.2695 23H91.415L89.2686 15.6035H90.5332ZM96.3643 21.708L97.9092 15.6035H99.167L97.0205 23H96.1729L96.3643 21.708ZM94.7305 15.6035L96.5898 21.585L96.8018 23H95.9951L94.0059 16.7998L93.8418 15.6035H94.7305Z" fill="black"/>
<path d="M18 35C27.3888 35 35 27.3888 35 18C35 8.61116 27.3888 1 18 1C8.61116 1 1 8.61116 1 18C1 27.3888 8.61116 35 18 35Z" fill="#D8ECFF" stroke="#378AD8"/>
<path d="M27.75 17.7344V17.2656C27.75 17.0067 27.5402 16.7969 27.2812 16.7969H19.0781V15.625H21.1875C21.7052 15.625 22.125 15.2052 22.125 14.6875V10.9375C22.125 10.4198 21.7052 10 21.1875 10H15.5625C15.0448 10 14.625 10.4198 14.625 10.9375V14.6875C14.625 15.2052 15.0448 15.625 15.5625 15.625H17.6719V16.7969H9.46875C9.20976 16.7969 9 17.0067 9 17.2656V17.7344C9 17.9933 9.20976 18.2031 9.46875 18.2031H12.5156V19.375H10.875C10.3573 19.375 9.9375 19.7948 9.9375 20.3125V24.0625C9.9375 24.5802 10.3573 25 10.875 25H15.5625C16.0802 25 16.5 24.5802 16.5 24.0625V20.3125C16.5 19.7948 16.0802 19.375 15.5625 19.375H13.9219V18.2031H22.8281V19.375H21.1875C20.6698 19.375 20.25 19.7948 20.25 20.3125V24.0625C20.25 24.5802 20.6698 25 21.1875 25H25.875C26.3927 25 26.8125 24.5802 26.8125 24.0625V20.3125C26.8125 19.7948 26.3927 19.375 25.875 19.375H24.2344V18.2031H27.2812C27.5402 18.2031 27.75 17.9933 27.75 17.7344ZM16.5 13.75V11.875H20.25V13.75H16.5ZM14.625 23.125H11.8125V21.25H14.625V23.125ZM24.9375 23.125H22.125V21.25H24.9375V23.125Z" fill="#378AD8"/>
</g>
<defs>
<clipPath id="clip0_986_102531">
<rect width="100" height="36" fill="white"/>
</clipPath>
</defs>
</svg>
