<svg width="127" height="33" viewBox="0 0 127 33" fill="none" xmlns="http://www.w3.org/2000/svg">
<path d="M0 0H126.01V33H0V0Z" fill="#D31F26"/>
<path d="M5.38856 5.03595H23.6064V7.40019L8.95075 25.3694H23.959V27.9823H5.03143V25.6135L19.6961 7.64883H5.38856V5.03595ZM36.291 8.09184L32.0327 19.5153H40.5629L36.291 8.09184ZM34.519 5.03595H38.0766L46.9234 27.9823H43.6595L41.5439 22.1055H31.0834L28.9723 27.9823H25.6632L34.519 5.03595ZM53.4239 17.0244V25.4327H58.4598C60.1475 25.4327 61.3982 25.0861 62.2119 24.3929C63.0255 23.6998 63.4324 22.645 63.4324 21.2286C63.4324 19.7955 63.0255 18.7332 62.2119 18.0642C61.3982 17.3951 60.146 17.038 58.4598 17.038H53.4239V17.0244ZM53.4239 7.58554V14.502H58.071C59.608 14.502 60.7382 14.2172 61.4976 13.6431C61.8823 13.3329 62.1858 12.9338 62.3819 12.4801C62.578 12.0265 62.6608 11.532 62.6232 11.0392C62.6561 10.5465 62.5692 10.0532 62.37 9.60138C62.1709 9.14954 61.8653 8.7526 61.4795 8.44444C60.7246 7.87033 59.5809 7.58554 58.0529 7.58554H53.4239ZM50.2866 5.03595H58.3151C60.7261 5.03595 62.5705 5.52718 63.8483 6.50965C64.487 6.99969 64.9971 7.63747 65.3349 8.36819C65.6727 9.09891 65.8281 9.90071 65.7876 10.7047C65.8512 11.9031 65.5017 13.0871 64.7976 14.059C64.0567 14.9306 63.0101 15.4855 61.8728 15.6095C63.2812 15.8495 64.5609 16.5758 65.4892 17.6618C66.3671 18.7667 66.8223 20.1483 66.7731 21.5585C66.7731 23.6079 66.0679 25.1901 64.6575 26.3051C63.2471 27.4202 61.2429 27.9777 58.6451 27.9777H50.2821L50.2866 5.03595ZM74.9055 17.0244V25.4327H79.9369C81.6276 25.4327 82.8753 25.0891 83.689 24.3929C84.5027 23.6968 84.9095 22.6435 84.9095 21.2286C84.9095 19.8136 84.5027 18.7332 83.689 18.0642C82.8753 17.3951 81.6276 17.038 79.9369 17.038H74.9055V17.0244ZM74.9055 7.58554V14.502H79.5617C81.0987 14.502 82.2409 14.2157 82.9883 13.6431C83.373 13.3329 83.6765 12.9338 83.8726 12.4801C84.0687 12.0265 84.1515 11.532 84.1139 11.0392C84.1489 10.5481 84.0648 10.0557 83.8688 9.604C83.6729 9.15227 83.3708 8.75449 82.9883 8.44444C82.2349 7.87184 81.0927 7.58554 79.5617 7.58554H74.9055ZM71.7683 5.03595H79.7832C82.1761 5.03595 84.019 5.52718 85.3119 6.50965C85.9514 6.99921 86.4624 7.63678 86.801 8.36752C87.1396 9.09827 87.2956 9.90032 87.2557 10.7047C87.3198 11.9039 86.9686 13.0885 86.2612 14.059C85.5219 14.9304 84.4768 15.4853 83.3409 15.6095C84.7489 15.8506 86.0283 16.5767 86.9573 17.6618C87.8336 18.7673 88.2872 20.1488 88.2366 21.5585C88.2366 23.6079 87.533 25.1901 86.1256 26.3051C84.7182 27.4202 82.714 27.9777 80.1132 27.9777H71.7683V5.03595ZM102.345 5.03595H105.781L111.233 13.2769L116.739 5.03595H120.075L112.91 15.7858L120.979 27.9913H117.534L111.174 18.3806L104.755 27.9823H101.419L109.51 15.8672L102.345 5.03595ZM93.259 5.03595H96.3962V27.9823H93.259V5.03595Z" fill="white"/>
</svg>
