<svg width="15" height="15" viewBox="0 0 15 15" fill="none" xmlns="http://www.w3.org/2000/svg">
<g clip-path="url(#clip0_32281_31836)">
<path d="M14.0095 6.14422C14.1793 5.63993 14.2381 5.10571 14.1818 4.57725C14.1255 4.04879 13.9555 3.53826 13.683 3.07976C13.2791 2.38673 12.6624 1.83805 11.9218 1.5128C11.1812 1.18756 10.355 1.10257 9.5622 1.27009C9.11181 0.77621 8.53752 0.407853 7.89702 0.202013C7.25651 -0.00382689 6.57234 -0.0399038 5.91321 0.0974059C5.25409 0.234716 4.64321 0.540578 4.14195 0.984272C3.64068 1.42797 3.26667 1.99387 3.05748 2.62515C2.52933 2.73192 2.03038 2.94858 1.59398 3.26066C1.15757 3.57273 0.793761 3.97304 0.526862 4.43483C0.118586 5.1267 -0.0559082 5.92864 0.0286061 6.72471C0.11312 7.52078 0.452264 8.26973 0.997005 8.86328C0.82651 9.36732 0.767171 9.90144 0.822956 10.4299C0.878741 10.9584 1.04836 11.469 1.32048 11.9277C1.72488 12.621 2.34212 13.1698 3.08325 13.495C3.82439 13.8202 4.65113 13.9051 5.44435 13.7374C5.80217 14.1346 6.24184 14.452 6.734 14.6684C7.22616 14.8848 7.75949 14.9952 8.29838 14.9922C9.11094 14.9929 9.90273 14.7391 10.5594 14.2674C11.2162 13.7956 11.7038 13.1304 11.952 12.3677C12.4801 12.2607 12.979 12.044 13.4154 11.7319C13.8518 11.4198 14.2156 11.0196 14.4827 10.5579C14.8861 9.86709 15.0576 9.06815 14.9726 8.27541C14.8876 7.48267 14.5505 6.73667 14.0095 6.14422ZM8.29838 14.012C7.6329 14.013 6.98828 13.7831 6.47756 13.3625L6.56739 13.3123L9.59214 11.5911C9.66743 11.5476 9.72993 11.4855 9.77351 11.411C9.81709 11.3365 9.84026 11.252 9.84073 11.166V6.962L11.1194 7.69123C11.1257 7.69439 11.1312 7.69898 11.1354 7.70462C11.1396 7.71025 11.1424 7.71679 11.1435 7.72368V11.2074C11.1419 11.9507 10.8416 12.6632 10.3084 13.1888C9.77518 13.7144 9.05245 14.0104 8.29838 14.012ZM2.18297 11.4376C1.84922 10.8695 1.72939 10.2036 1.84455 9.557L1.93444 9.61017L4.96218 11.3314C5.03709 11.3747 5.12238 11.3975 5.20924 11.3975C5.2961 11.3975 5.38139 11.3747 5.45631 11.3314L9.15492 9.22933V10.6848C9.15457 10.6923 9.1525 10.6997 9.14886 10.7064C9.14522 10.713 9.14011 10.7188 9.1339 10.7232L6.07021 12.465C5.41638 12.8363 4.63981 12.9367 3.91099 12.7441C3.18217 12.5514 2.56068 12.0816 2.18297 11.4376ZM1.38638 4.94266C1.72243 4.37091 2.25287 3.93481 2.88378 3.71158V7.25429C2.88264 7.33988 2.90483 7.4242 2.94802 7.49846C2.99121 7.57271 3.05383 7.63418 3.12933 7.67644L6.80996 9.76961L5.5312 10.4988C5.52428 10.5024 5.51656 10.5043 5.50872 10.5043C5.50089 10.5043 5.49317 10.5024 5.48625 10.4988L2.42858 8.75994C1.77597 8.38703 1.29987 7.77438 1.10453 7.05615C0.909195 6.33792 1.01054 5.57265 1.38638 4.92793V4.94266ZM11.8922 7.34877L8.19956 5.23495L9.47535 4.50858C9.48227 4.50496 9.48999 4.50307 9.49782 4.50307C9.50566 4.50307 9.51337 4.50496 9.52029 4.50858L12.578 6.25042C13.0455 6.51635 13.4266 6.9079 13.6769 7.37935C13.9271 7.8508 14.0362 8.3827 13.9913 8.91295C13.9464 9.4432 13.7494 9.94992 13.4233 10.3739C13.0972 10.798 12.6555 11.1218 12.1497 11.3076V7.76493C12.1471 7.67949 12.1219 7.59619 12.0768 7.52322C12.0316 7.45025 11.968 7.39017 11.8922 7.34877ZM13.165 5.46228L13.0751 5.40911L10.0534 3.6732C9.97798 3.6296 9.89217 3.60661 9.80477 3.60661C9.71738 3.60661 9.63156 3.6296 9.55619 3.6732L5.86068 5.77517V4.31976C5.8599 4.31236 5.86115 4.30488 5.86432 4.29813C5.86748 4.29137 5.87244 4.28559 5.87866 4.28138L8.93633 2.54247C9.40497 2.27634 9.94078 2.14724 10.4811 2.17028C11.0214 2.19332 11.5439 2.36754 11.9875 2.67257C12.4311 2.9776 12.7774 3.40083 12.9859 3.89275C13.1944 4.38468 13.2566 4.92497 13.165 5.45042L13.165 5.46228ZM5.16278 8.04243L3.88408 7.31619C3.87768 7.3124 3.87221 7.30726 3.86805 7.30114C3.8639 7.29503 3.86116 7.28809 3.86002 7.28081V3.80606C3.86073 3.273 4.01536 2.75115 4.30583 2.30153C4.5963 1.85192 5.01062 1.4931 5.50033 1.26705C5.99004 1.041 6.53492 0.957051 7.07125 1.02502C7.60758 1.09299 8.11319 1.31006 8.52899 1.65087L8.4391 1.7011L5.4144 3.42216C5.33912 3.46568 5.27662 3.52776 5.23304 3.6023C5.18945 3.67684 5.16629 3.76127 5.16582 3.84731L5.16278 8.04243ZM5.85758 6.56637L7.5047 5.63046L9.15492 6.56637V8.43807L7.51071 9.37392L5.86062 8.43807L5.85758 6.56637Z" fill="#23282C"/>
</g>
<defs>
<clipPath id="clip0_32281_31836">
<rect width="15" height="15" fill="white"/>
</clipPath>
</defs>
</svg>
