<?xml version="1.0" encoding="UTF-8"?>
<svg id="Layer_1" data-name="Layer 1" xmlns="http://www.w3.org/2000/svg" viewBox="0 0 180.88 67.65">
  <defs>
    <style>
      .cls-1, .cls-2 {
        fill: none;
      }

      .cls-2 {
        stroke: #faa44e;
        stroke-linecap: round;
        stroke-linejoin: round;
        stroke-width: 0px;
      }

      .cls-3 {
        fill: #f78f1f;
      }

      .cls-4 {
        fill: #f78f1e;
      }

      .cls-5 {
        fill: #121210;
      }

      .cls-6 {
        fill: #131311;
      }

      .cls-7 {
        fill: #151413;
      }
    </style>
  </defs>
  <g>
    <path class="cls-5" d="m174.06,26.16c-.96.12-1.85.55-2.46,1.35-.56.72-1.04,1.5-1.58,2.28,0-.8-.01-1.61,0-2.42.01-.64-.33-.91-.91-.93-.65-.02-1.31,0-1.96,0-2.35-.03-2.19-.03-2.19,2.15,0,5.97,0,11.93.01,17.9,0,1.02.16,1.17,1.18,1.18.98,0,1.96,0,2.94,0,1.02,0,1.22-.2,1.22-1.22,0-3.63-.03-7.27.03-10.9.01-.94.22-1.9.47-2.81.28-1.02,1.43-1.87,2.2-1.79,1.44.13,1.97.54,2.26,2.03.2.99.26,2.01.27,3.02.03,3.56.02,7.12,0,10.68,0,.58.15,1,.82,1,1.23,0,2.46.02,3.69-.01.27,0,.54-.2.81-.31v-15.8c-.09-.32-.23-.63-.28-.95-.55-3.73-3.43-4.82-6.54-4.42Z"/>
    <path class="cls-4" d="m23.78,52.62c0-.21-.22-.55-.4-.61-2.1-.65-4.21-1.26-6.32-1.88-1.25-.37-2.49-.73-3.79-1.11,0,4.94,0,9.78,0,14.62,0,.42.14.59.55.72,1.66.52,3.32,1.08,4.97,1.64,1.59.54,3.16,1.11,4.75,1.66h.3c0-3.06-.02-6.11-.03-9.17,0-1.95.01-3.91-.01-5.86Z"/>
    <path class="cls-4" d="m36.34,64.36c.55-.18.66-.43.66-.94,0-4.56.03-9.12.05-13.68,0-.23-.02-.47-.04-.76-3.53,1.04-6.98,2.07-10.5,3.11v15.42c0,.05.02.1.03.15h.15c.11-.05.21-.12.33-.16,3.11-1.05,6.21-2.12,9.33-3.13Z"/>
    <path class="cls-7" d="m67.66,66.85c1.11-3.93,2.15-7.87,3.24-11.8.14-.51-.05-.72-.47-.79-1.18-.22-1.49-.04-1.83,1.1-.7,2.39-1.38,4.78-2.12,7.37-.14-.37-.24-.56-.29-.75-.66-2.27-1.39-4.52-1.93-6.81-.22-.92-.72-.89-1.39-.92-.72-.04-.92.36-1.07.95-.64,2.48-1.33,4.94-2,7.46-.1-.15-.19-.25-.22-.36-.67-2.46-1.31-4.92-2-7.37-.07-.24-.32-.59-.51-.61-.63-.05-1.27.03-1.91.06.06.52.05,1.05.19,1.55.78,2.91,1.56,5.82,2.43,8.7.31,1.03.35,2.19,1.17,3.03h1.06c.49-.17.81-.39.95-1,.54-2.35,1.18-4.69,1.8-7.02.03-.1.15-.18.3-.36.46,1.6.9,3.1,1.33,4.6.27.98.49,1.97.79,2.95.09.31.37.56.56.84h1.06c.3-.26.79-.47.88-.8Z"/>
    <path class="cls-7" d="m168.68,64.35c.24-.53.09-.81-.43-.91-.53-.1-1.07-.15-1.58-.21-.81,1.82-2.11,2.47-3.55,2.18-1.67-.33-2.84-2.37-2.44-4.19h.72c2.24,0,4.47,0,6.71,0,.88,0,1.17-.37,1.01-1.23-.04-.24-.08-.48-.12-.72-.28-1.7-.84-3.24-2.33-4.27-1.08-.75-2.3-.75-3.55-.77-1.28-.02-2.36.45-3.16,1.33-2.08,2.25-2.53,4.9-1.69,7.82.54,1.86,1.61,3.23,3.48,3.88.49.17,1.01.26,1.52.39h.6c.15-.05.29-.13.44-.15,2.05-.24,3.53-1.25,4.39-3.15Zm-4.88-8.32c1.39.11,2.76,1.54,2.59,3.31h-5.68c0-1.63,1.44-3.45,3.09-3.31Z"/>
    <path class="cls-7" d="m120.75,64.45c.11-.23.15-.65.02-.81-.52-.63-1.97-.4-2.39.32-.73,1.26-2.08,1.75-2.99,1.55-1.81-.42-3.01-2.33-2.7-4.28h.73c2.23,0,4.47,0,6.7,0,.99,0,1.13-.16,1.07-1.16-.02-.34-.07-.68-.13-1.02-.38-1.93-1.1-3.68-3.11-4.43-.76-.28-1.63-.29-2.46-.36-1.93-.15-3.26.8-4.3,2.33-1.07,1.58-1.3,3.33-1.14,5.16.21,2.5,1.17,4.52,3.7,5.46.51.19,1.04.3,1.57.44h.6c.15-.05.29-.13.45-.15,2.03-.2,3.51-1.21,4.38-3.06Zm-4.74-8.39c1.46.18,2.63,1.54,2.44,3.3h-5.67c.25-2.12,1.69-3.48,3.23-3.3Z"/>
    <path class="cls-5" d="m145.16,55.85c0-2.14.03-1.67-1.77-1.75-.66-.03-.81.23-.81.83.01,3.93,0,7.86.02,11.79,0,.32.2.63.31.94h1.81c.15-.36.42-.71.43-1.07.03-3.58.01-7.16.02-10.74Z"/>
    <path class="cls-5" d="m102.28,47.66c.62,0,.98-.28.97-.94-.05-5.36-.08-10.71-.15-16.07-.02-1.57-.83-2.78-2.1-3.63-2.51-1.68-7.02-1.37-8.55,2.62-1.05-2.17-2.49-3.58-5.08-3.58-2.56,0-4.05,1.31-5.22,3.44,0-.71-.04-1.43.01-2.14.06-.76-.3-.96-.97-.95-.98.02-1.96,0-2.94,0-.82,0-1.06.26-1.06,1.09,0,6.39,0,12.79-.01,19.18,0,.72.31.98.99.96,1.03-.02,2.06,0,3.09,0,1.15,0,1.28-.14,1.29-1.31.02-4.16.03-8.32.08-12.49,0-.49.19-1.01.38-1.48.49-1.14,1.14-1.44,2.68-1.32.73.06,1.37.64,1.58,1.62.18.83.29,1.7.3,2.55.03,3.79,0,7.57.01,11.36,0,.9.15,1.05,1.06,1.05,1.03,0,2.06,0,3.09,0,1.05,0,1.16-.12,1.16-1.18,0-3.99-.03-7.97-.01-11.96,0-.96.19-1.89.86-2.66.56-.63,1.7-.96,2.57-.74.95.24,1.42.87,1.52,1.78.09.77.11,1.55.11,2.32,0,3.76,0,7.52,0,11.28,0,1.03.14,1.16,1.19,1.16,1.05,0,2.11,0,3.16,0Z"/>
    <path class="cls-6" d="m124.75,43.85c-.49-.86-1.17-1.77-1.22-2.7-.2-3.22-.16-6.45-.23-9.67-.06-2.55-1.44-4.14-3.52-4.91-2.09-.78-4.27-.8-6.45-.46-3.12.49-5.43,2.39-6.11,5.63-.05.22.19.61.4.74.3.18.7.2,1.06.25.71.08,1.44.08,2.14.21.94.17,1.23.12,1.44-.74.37-1.52,1.81-2.4,3.52-2.15,1.42.21,1.96.85,2.08,2,.07.72.01,1.45.01,2.17-.34.07-.63.13-.91.18-1.76.3-3.54.53-5.28.91-3.57.77-5.71,4.34-4.98,8.06.76,3.89,3.95,4.97,7.21,4.52,1.89-.26,3.42-1.26,4.75-2.63.68.75,1.36,1.48,2.01,2.22.42.48.85.43,1.29.06.85-.72,1.68-1.47,2.55-2.17.72-.57.7-.69.23-1.52Zm-7.47-1.59c-.72,1.33-2.58,2.35-3.82,1.46-.47-.33-.91-.87-1.09-1.4-.66-1.94.38-3.82,2.4-4.48.51-.16,1.02-.35,1.54-.43.49-.07.99-.02,1.58-.02-.07,1.69.24,3.32-.6,4.86Z"/>
    <path class="cls-6" d="m73.82,45.36c.79-.7.63-1,.13-1.62-.9-1.11-1.2-2.35-1.2-3.77-.01-3.04-.13-6.08-.25-9.12-.06-1.69-.98-2.92-2.4-3.74-2.49-1.43-5.18-1.41-7.9-.88-2.63.51-4.48,1.97-5.43,4.52-.54,1.44-.22,1.94,1.31,1.99.68.02,1.36.17,2.03.29.67.12,1.28-.17,1.42-.75.29-1.29,1.14-2,2.4-2.26,1.6-.32,3.01.49,3.28,1.96.12.7.02,1.44.02,2.21-.36.06-.72.12-1.07.18-1.9.35-3.83.61-5.71,1.08-1.53.39-2.71,1.4-3.56,2.75-.97,1.55-1.24,3.25-.93,5.01.32,1.84,1.19,3.42,3,4.18,2.1.88,4.26.82,6.29-.17,1.02-.49,1.9-1.29,2.8-1.92.61.68,1.28,1.4,1.93,2.14.45.51.93.41,1.37.05.85-.69,1.66-1.42,2.48-2.15Zm-7.33-3c-.58.95-1.36,1.53-2.46,1.66-1.32.16-2.44-.86-2.51-2.56-.09-2.19,1.26-3.58,3.48-3.91.71-.1,1.43-.14,2.23-.22-.02,1.8.19,3.48-.74,5.03Z"/>
    <path class="cls-6" d="m157.95,27.48c-1.45-1.04-3.1-1.38-4.89-1.39-2.87-.01-5.02,1.21-6.56,3.55-1.45,2.2-2.03,4.66-1.94,7.35-.1,2.37.4,4.66,1.56,6.83,2.76,5.15,9.27,5.58,12.97,1.81,2.02-2.06,2.81-4.68,2.95-7.51.1-2.01-.1-3.98-.73-5.91-.64-1.94-1.69-3.55-3.35-4.73Zm-2.28,14.71c-.39,1.51-2.33,2.36-3.74,1.37-.83-.58-1.21-1.55-1.3-2.47-.21-2.02-.24-4.06-.33-6.09-.05-1.19.16-2.34.72-3.4.65-1.23,1.43-1.63,2.79-1.43.96.14,1.86.97,2.04,2.06.26,1.63.42,3.27.66,5.13-.25,1.5-.41,3.2-.83,4.83Z"/>
    <path class="cls-6" d="m142.59,46.4c.01-.68,0-1.35,0-2.03,0-1.94-.13-2.12-1.97-2.75-.18-.06-.37-.13-.56-.17-1.7-.3-3.41-.6-5.14-.9,0,.04-.02-.02,0-.05,1.68-2.38,3.37-4.76,5.03-7.15,1.25-1.8,2.9-3.46,2.34-5.97,0-.02,0-.05,0-.08.07-.67-.31-.89-.89-.89-4.17,0-8.33,0-12.5,0-.54,0-.77.25-.77.76,0,.78,0,1.55,0,2.33,0,1.03.17,1.21,1.23,1.21,1.98,0,3.96,0,6.01,0-.1.22-.13.33-.2.43-2.05,2.93-4.12,5.84-6.15,8.79-.58.84-1.27,1.71-1.47,2.65-.27,1.27-.16,2.62-.13,3.94.02.57.54.75,1.1.46,1.61-.84,3.33-1.33,5.12-1.45,2.76-.18,5.44.21,7.95,1.49.6.3.99.05,1-.62Z"/>
    <path class="cls-4" d="m23.78,41.18c-.01-4.56.01-9.12.02-13.69,0-.2-.02-.4-.03-.62-.15,0-.28-.03-.39,0-3.18.94-6.35,1.9-9.53,2.82-.49.14-.59.38-.59.83.01,3.81,0,7.62,0,11.43v3.4c.16,0,.22.03.26.01,3.18-1.06,6.36-2.12,9.55-3.16.54-.18.7-.46.7-1.03Z"/>
    <path class="cls-4" d="m26.56,42c3.48,1.15,6.93,2.3,10.47,3.47v-15.55c-3.47-1.03-6.95-2.06-10.47-3.1v15.18Z"/>
    <path class="cls-4" d="m49.8,7.61c-1.89-.59-3.8-1.13-5.7-1.69-1.42-.42-2.84-.85-4.3-1.28v15.14c3.48,1.16,6.95,2.31,10.5,3.49,0-5.13,0-10.11-.02-15.1,0-.19-.28-.49-.49-.56Z"/>
    <path class="cls-4" d="m.06,26.83c-.02.14-.05.21-.05.28,0,4.79,0,9.58-.01,14.37,0,.43.19.54.54.66,2.52.83,5.04,1.67,7.56,2.51.78.26,1.56.52,2.43.8v-15.42s-.08-.09-.12-.13c-3.44-1.02-6.89-2.04-10.35-3.07Z"/>
    <path class="cls-4" d="m63.5,19.13c.02-4.59.04-9.17.05-13.76,0-.22-.03-.44-.05-.77-3.52,1.04-6.98,2.06-10.44,3.08v15.57c3.39-1.13,6.68-2.24,9.98-3.32.46-.15.45-.44.45-.8Z"/>
    <path class="cls-4" d="m49.89,26.88c-3.15.94-6.3,1.91-9.47,2.82-.51.15-.66.35-.65.85.02,4.72,0,9.43.01,14.15,0,.22.02.44.03.66.12,0,.2.03.27,0,3.19-1.06,6.37-2.14,9.56-3.19.49-.16.62-.45.62-.95,0-4.57.02-9.13.04-13.7,0-.2,0-.39,0-.66-.21,0-.31-.02-.4,0Z"/>
    <path class="cls-4" d="m66.76,19.93c.8.32,1.62.58,2.43.85,2.49.83,4.98,1.65,7.48,2.47.04-.11.09-.18.09-.25.01-4.96.02-9.92,0-14.89,0-.18-.26-.45-.45-.51-1.8-.57-3.6-1.1-5.41-1.63-1.5-.44-3.01-.87-4.61-1.33,0,4.99,0,9.87.02,14.76,0,.18.25.45.45.53Z"/>
    <path class="cls-4" d="m79.53,8.45c.02,4.67,0,9.33,0,14v.76c.15-.01.22,0,.29-.03,3.25-1.08,6.49-2.18,9.74-3.24.47-.16.43-.46.44-.81,0-4.24.02-8.48.03-12.72,0-.55,0-1.1,0-1.75-.3.07-.5.1-.69.15-3.05.9-6.1,1.82-9.16,2.69-.56.16-.65.44-.65.95Z"/>
    <path class="cls-6" d="m86.65,55.45s-.03.08-.04.12c0-.04-.02-.08-.02-.12-.01-1.5-.04-3-.02-4.51,0-.62-.22-.95-.87-.9-.25.02-.5.02-.75,0-.58-.05-.81.21-.81.79,0,5.19.01,10.37,0,15.56,0,.5.23.83.65.78.35-.04.72-.33.97-.61.18-.2.17-.57.27-.97.24.22.41.35.55.52,1.68,2.01,5.46,1.6,6.92-.74.74-1.18,1.05-2.43,1.21-3.79.24-1.95-.11-3.73-1.07-5.43-1.33-2.36-5.36-2.89-6.97-.68Zm5.18,7.76c-.54,1.55-1.2,2.19-2.38,2.2-1.18.01-2.26-.78-2.61-2.2-.5-2.05-.77-4.14.56-6.03.12-.17.25-.33.39-.48.42-.43.93-.71,1.63-.64.99-.05,1.63.45,2.03,1.21.14.25.24.53.33.82.51,1.68.64,3.4.04,5.12Z"/>
    <path class="cls-7" d="m76.77,54.22c-1.92.03-3.27.8-4.29,2.35-1.35,2.06-1.45,4.3-.93,6.6.29,1.26.91,2.36,1.95,3.21,1.24,1,2.65,1.29,4.17,1.11,1.97-.24,3.54-1.13,4.32-3.07.1-.25.13-.71-.02-.86-.54-.56-2-.29-2.36.39-.88,1.64-2.72,1.81-3.97,1.13-1.18-.64-1.92-2.4-1.7-3.87h.73c2.28,0,4.57,0,6.85,0,.46,0,.91-.05.92-.62.03-1.45-.25-2.85-1.01-4.09-1.06-1.73-2.65-2.31-4.67-2.28Zm-2.7,5.14c.25-2.29,1.63-3.26,2.69-3.3,1.84-.07,2.48.63,3.09,3.3h-5.78Z"/>
    <path class="cls-7" d="m106.75,60.27c-1.37-.5-2.83-.71-4.25-1.05-.62-.15-1.17-.4-1.33-1.09-.17-.74.13-1.36.8-1.74,1.12-.64,3.08-.11,3.76.99.15.24.4.61.57.59.59-.07,1.24-.17,1.71-.49.15-.1-.17-.91-.29-1.39-.03-.11-.17-.18-.25-.28-1.11-1.31-2.56-1.7-4.26-1.54-1.22-.22-2.4.13-3.34.93-2.14,1.83-1.53,5.31,1.26,6.11,1.26.36,2.54.61,3.82.91.73.17,1.31.77,1.34,1.38.04.68-.44,1.38-1.14,1.62-.36.13-.74.24-1.12.3-1.15.17-2.98-.55-3.39-1.73-.08-.24-.49-.42-.79-.5-.23-.06-.52.09-.78.13-.73.12-1.03.49-.68,1.12.38.69.84,1.45,1.47,1.87,2.09,1.42,4.35,1.43,6.67.5,1.25-.5,2.03-1.38,2.18-2.72.18-1.69-.12-3.28-1.92-3.94Z"/>
    <path class="cls-7" d="m171.38,66.28c1.42,1.23,3.19,1.4,4.96,1.19,2.15-.26,4.4-1.33,4.1-4.45-.14-1.5-1.15-2.68-2.58-3.04-1.23-.31-2.49-.5-3.73-.77-.86-.19-1.23-.66-1.25-1.5-.01-.7.39-1.24,1.09-1.47,1.33-.43,2.86.09,3.62,1.33.25.41.54.53.91.41.49-.16.95-.42,1.41-.66.04-.02.02-.25-.04-.33-.37-.57-.7-1.19-1.16-1.66-.26-.26-.53-.46-.82-.61-.87-.46-1.89-.5-2.91-.46-.38,0-.75-.03-1.13,0-1.08.1-2.06.56-2.7,1.38-1.59,2.03-.87,4.93,1.72,5.67,1.26.36,2.55.61,3.82.91.68.16,1.17.58,1.3,1.25.13.69-.18,1.27-.81,1.6-1.58.85-4.03.52-4.77-1.27-.22-.54-.6-.6-1.09-.51-.22.04-.43.12-.65.13-.63.05-.82.51-.61.93.34.69.75,1.42,1.31,1.91Z"/>
    <path class="cls-7" d="m155.57,62.52c-.71-.02-1.09.08-1.27.92-.2.95-.81,1.78-1.9,1.94-1.24.19-2.1-.24-2.59-1.47-.39-.96-.52-2.01-.77-3.02.06-.01.13-.03.19-.04-.07-1.19.11-2.32.72-3.36.46-.78,1.12-1.26,2.03-1.27.92-.01,1.63.43,2.07,1.23.2.36.3.77.45,1.16.23.6.97.84,1.77.59.67-.22.52-.68.42-1.19-.46-2.23-2.32-3.84-4.88-3.77-2.25.06-3.76,1.36-4.52,3.28-.7,1.76-.81,3.56-.43,5.38.55,2.65,2.21,4.82,5.32,4.62,2.38-.16,3.81-1.47,4.44-3.65.38-1.3.31-1.29-1.03-1.33Z"/>
    <path class="cls-7" d="m141.15,54.15c-.83-.44-1.88.06-2.17.98-.65,2.02-1.29,4.04-1.94,6.06-.25.79-.51,1.59-.81,2.51-.13-.32-.2-.48-.25-.64-.86-2.66-1.71-5.32-2.6-7.97-.37-1.12-2.13-1.45-3.01-.57.08.16.14.26.18.38,1.31,3.86,2.61,7.73,3.92,11.59.34,1.01.34.98,1.87,1.02.76.02,1.08-.32,1.3-1,1.24-3.89,2.53-7.77,3.78-11.66.06-.19-.1-.61-.27-.7Z"/>
    <path class="cls-3" d="m24.76,44.38c-3.05.95-6.09,1.91-9.14,2.87,1.03.41,2.07.7,3.11.97,1.88.5,3.77,1.01,5.66,1.49.36.09.78.13,1.14.05,1.09-.24,2.16-.53,3.24-.82,1.91-.51,3.82-1.02,5.73-1.53,0-.06,0-.12,0-.18-3.08-.96-6.16-1.92-9.24-2.87-.15-.05-.35-.04-.5,0Z"/>
    <path class="cls-3" d="m77.02,5.27c.77.24,1.44.21,2.18,0,2.82-.77,5.64-1.51,8.49-2.27-.09-.08-.16-.17-.24-.2-2.69-.83-5.38-1.66-8.07-2.5-.78-.24-1.52-.39-2.35-.1-1.88.66-3.8,1.22-5.7,1.82-.91.29-1.81.58-2.9.93,1.2.33,2.17.61,3.15.86,1.81.48,3.65.89,5.44,1.44Z"/>
    <path class="cls-3" d="m61.2,3.01c-.15-.12-.2-.18-.27-.2-2.5-.78-5-1.57-7.52-2.31-.82-.24-1.63-.7-2.55-.4-1.84.6-3.69,1.19-5.54,1.77-1.07.34-2.14.68-3.36,1.07.6.18,1,.32,1.42.44,2,.55,4,1.12,6.01,1.63,1.26.32,2.48.58,3.86.13,2.59-.84,5.26-1.42,7.96-2.13Z"/>
    <path class="cls-3" d="m14.05,27.15c2.47-.66,4.93-1.31,7.45-1.98-.68-.24-1.28-.49-1.9-.68-2.2-.68-4.4-1.35-6.6-2.02-.74-.23-1.43-.36-2.22-.03-1,.42-2.08.65-3.12.97-1.76.55-3.52,1.1-5.45,1.71.29.11.44.19.61.23,2,.55,3.99,1.15,6.01,1.61,1.52.35,3.03,1.15,4.65.35.17-.09.38-.11.57-.16Z"/>
    <path class="cls-3" d="m48.02,25.16c-2.68-.85-5.22-1.68-7.77-2.47-1.1-.34-2.2-.69-3.37-.18-.56.25-1.16.41-1.75.59-2.08.66-4.16,1.31-6.34,2,.16.1.24.18.33.21,2.7.72,5.41,1.42,8.11,2.17.74.21,1.42.21,2.15,0,1.34-.38,2.68-.72,4.03-1.08,1.5-.4,3-.81,4.62-1.24Z"/>
    <path class="cls-6" d="m127.66,54.36c-1.1.13-1.9.77-2.51,1.86q-.11-1.52-1.56-1.51c-.05,0-.1,0-.15,0-.41-.04-.6.14-.6.56,0,3.84,0,7.68,0,11.51,0,.49.23.74.74.72.23-.01.45,0,.68,0,.86-.02,1-.16,1.01-1,.01-2.03,0-4.06.03-6.1.03-1.65,1.05-3.73,3.36-3.9.16-.01.44-.11.45-.17.03-.59.16-1.25-.06-1.74-.11-.25-.92-.29-1.39-.23Z"/>
    <path class="cls-7" d="m143.85,49.44c-.95,0-1.56.55-1.56,1.44,0,.78.74,1.58,1.45,1.57.94-.01,1.56-.61,1.56-1.49,0-1-.49-1.51-1.46-1.52Z"/>
    <path class="cls-2" d="m10.41,29.89s.08.09.12.13"/>
  </g>
  <path class="cls-1" d="m31.43,18.97c0-.08-.02-.16-.02-.24,0,.08.01.16.02.24h0Z"/>
  <path class="cls-1" d="m10.63,46.99c-.08,0-.15,0-.23-.01-.16-.01-.31-.03-.47-.04.16.01.31.03.47.04.08,0,.15,0,.23.01Z"/>
  <path class="cls-1" d="m11.5,47.05s0,.03,0,.05h0s0-.03,0-.05c.06-.02.12-.04.18-.05.15,0,.3,0,.45-.01-.15,0-.3,0-.45.01-.06.02-.12.04-.18.05Z"/>
  <path class="cls-1" d="m10.68,47.05s0,.03,0,.04c0,.02,0,.05,0,.07,0-.02,0-.05,0-.07,0-.01,0-.03,0-.04Z"/>
</svg>