<?xml version="1.0" encoding="UTF-8"?>
<svg id="Layer_1" data-name="Layer 1" xmlns="http://www.w3.org/2000/svg" viewBox="0 0 185.37 53.35">
  <defs>
    <style>
      .cls-1, .cls-2, .cls-3, .cls-4, .cls-5, .cls-6, .cls-7 {
        fill: none;
      }

      .cls-8 {
        fill: #90c0e2;
      }

      .cls-9 {
        fill: #c3dff0;
      }

      .cls-10 {
        fill: #c7e1f1;
      }

      .cls-11 {
        fill: #2285c7;
      }

      .cls-2 {
        stroke: #4596cd;
      }

      .cls-2, .cls-3, .cls-4, .cls-5, .cls-6, .cls-7 {
        stroke-linecap: round;
        stroke-linejoin: round;
        stroke-width: 0px;
      }

      .cls-3 {
        stroke: #c6dfef;
      }

      .cls-4 {
        stroke: #dbe9f3;
      }

      .cls-5 {
        stroke: #99c6e2;
      }

      .cls-6 {
        stroke: #549ed1;
      }

      .cls-7 {
        stroke: #5aa3d4;
      }
    </style>
  </defs>
  <path class="cls-1" d="m104.48,47.47s.04.06.06.09c.08,0,.15.01.23.02-.08,0-.15-.02-.23-.02-.02-.03-.04-.06-.06-.09Z"/>
  <path class="cls-1" d="m104.46,47.22c0,.08,0,.16.02.25.02.03.04.06.06.09-.02-.03-.04-.06-.06-.09-.01-.09-.02-.17-.02-.25Z"/>
  <path class="cls-1" d="m141.88,47.47s.04.06.06.09c.04,0,.08.01.11.02-.04,0-.08-.02-.11-.02-.02-.03-.04-.06-.06-.09Z"/>
  <path class="cls-1" d="m128.77,25.34c-.58,0-1.16,0-1.74,0-.01.02-.03.03-.04.05.01-.02.03-.03.04-.05.58,0,1.16,0,1.74,0Z"/>
  <path class="cls-1" d="m0,47.37s-.01.07.05.1c.08,0,.15,0,.23,0-.08,0-.15,0-.23,0-.06-.04-.06-.07-.05-.1Z"/>
  <path class="cls-1" d="m61.25,39.66c2.62,4.53,5.23,9.06,7.85,13.59v.05s0-.04,0-.05c-2.62-4.53-5.23-9.06-7.85-13.59Z"/>
  <path class="cls-1" d="m156.32,29.79s-.03-.09-.05-.14c-.01-1.43-.02-2.87-.03-4.3.01,1.43.02,2.87.03,4.3.02.05.03.09.05.14Z"/>
  <path class="cls-11" d="m184.37,28.72c-.85-1.47-2.12-2.5-3.65-3.21-1.88-.88-3.85-.98-5.85-.6-2.35.45-4.26,1.66-5.72,3.53-1.65,2.11-2.45,4.55-2.62,7.19-.09,1.4.01,2.79.28,4.17.23,1.19.58,2.34,1.17,3.41,1.19,2.17,2.92,3.7,5.3,4.45.6.19,1.22.34,1.84.4.74.07,1.49.02,2.24.03.88,0,1.74-.06,2.6-.26,1.48-.34,2.88-.87,4.16-1.69.18-.12.27-.23.27-.46-.01-.91,0-1.82-.01-2.74,0-.08-.02-.16-.04-.28-.38.25-.71.5-1.06.7-1.63.95-3.33,1.66-5.26,1.64-.1,0-.21.01-.31.02-1.04.08-2.05-.04-3.03-.41-1.03-.39-1.95-.94-2.65-1.8-1.01-1.24-1.57-2.67-1.77-4.25-.05-.39-.05-.78-.08-1.2.13,0,.22-.02.31-.02,1.85,0,3.71,0,5.56,0,2.76,0,5.51,0,8.27,0,.36,0,.72,0,1.08.01v-6.25s-.06-.08-.07-.13c-.2-.8-.52-1.56-.93-2.27Zm-2.15,5.57h-11.99c.03-.17.05-.32.08-.46.29-1.43.85-2.74,1.82-3.86.96-1.11,2.13-1.85,3.6-2.06,1.63-.23,3.16,0,4.45,1.11.31.27.59.58.81.92.86,1.3,1.29,2.72,1.23,4.34Z"/>
  <path class="cls-11" d="m61.25,39.66c-3.75-6.5-7.51-13-11.27-19.5-3.13-5.41-6.27-10.81-9.4-16.21-.06-.1-.12-.19-.21-.32-.06.13-.1.22-.14.31-.16.47-.31.95-.48,1.42-2.09,5.75-4.17,11.49-6.27,17.23-.59,1.62-1.19,3.23-1.78,4.84-.05.13-.03.23.07.35,1.29,1.53,2.57,3.08,3.86,4.62,2.32,2.77,4.65,5.53,6.98,8.3,1.89,2.24,3.78,4.48,5.67,6.72.04.05.06.1.13.21-10.66,1.88-21.28,3.76-31.9,5.64,0,.03,0,.06,0,.08h.95c17.02,0,34.05,0,51.07,0,.09,0,.18,0,.27,0s.18,0,.27,0c0,0,0-.02,0-.03v-.05c-2.61-4.53-5.22-9.06-7.84-13.59Z"/>
  <path class="cls-11" d="m27.83,21.83c1.53-3.27,3.06-6.54,4.58-9.81,1.36-2.91,2.72-5.82,4.07-8.73.45-.97.9-1.93,1.35-2.9.05-.1.16-.21.04-.39-.13.1-.25.19-.36.28-.78.66-1.55,1.32-2.33,1.97-3.31,2.78-6.63,5.55-9.94,8.33-2.47,2.07-4.93,4.13-7.39,6.2-.19.16-.36.37-.49.59-1.89,3.26-3.77,6.52-5.65,9.78-3.11,5.4-6.23,10.8-9.34,16.2-.76,1.32-1.54,2.64-2.3,3.97,0,.05,0,.11-.01.16.08,0,.15,0,.23,0,5.09,0,10.17,0,15.26,0,.1,0,.2-.01.31-.02.21-.44.42-.86.62-1.29,1.46-3.12,2.92-6.24,4.37-9.36,2.33-4.99,4.65-9.99,6.98-14.99Z"/>
  <path class="cls-11" d="m103.17,47.29c-.7-1.81-1.41-3.61-2.1-5.42-.63-1.63-1.25-3.26-1.87-4.89-.67-1.75-1.36-3.5-2.03-5.24-.88-2.29-1.76-4.58-2.64-6.87-.71-1.83-1.41-3.67-2.11-5.5-.34-.89-.68-1.77-1.01-2.67-.08-.22-.19-.29-.42-.29-1.04.01-2.09,0-3.13,0-.36,0-.35,0-.49.36-.36.96-.73,1.92-1.1,2.88-1.92,5.03-3.83,10.06-5.75,15.09-1.6,4.2-3.21,8.4-4.81,12.6-.02.06-.03.12-.06.22,1.36.05,2.69.08,4.03.03,1.04-2.92,2.07-5.81,3.1-8.7h13.2c.1.29.19.58.29.85.94,2.5,1.87,5,2.81,7.5.14.36.14.36.52.36,1.18,0,2.37-.01,3.55-.02.03,0,.05-.02.08-.02,0-.04-.02-.09-.02-.13,0-.04-.02-.09-.03-.13Zm-8.95-11.77c-3.29,0-6.59,0-9.88,0-.04,0-.09,0-.13,0-.04,0-.09,0-.13,0-.02-.02-.04-.04-.06-.06.39-1.07.79-2.14,1.18-3.21,1.2-3.28,2.4-6.55,3.58-9.84.22-.62.32-1.29.47-1.94.01-.06.03-.11.07-.26.06.13.09.18.1.23.32,1.7.96,3.3,1.55,4.91,1.2,3.28,2.42,6.55,3.63,9.82.04.11.06.22.11.37-.17,0-.32,0-.47,0Z"/>
  <path class="cls-11" d="m141.86,25.44c0,.15,0,.26,0,.37-.01,4.29-.03,8.58-.04,12.88,0,1.5-.43,2.85-1.32,4.06-.78,1.06-1.78,1.81-3.06,2.15-.79.21-1.61.2-2.42.1-1.44-.17-2.57-.85-3.35-2.09-.43-.68-.67-1.44-.85-2.22-.2-.9-.22-1.81-.22-2.72,0-4.05-.02-8.1-.02-12.14,0-.14,0-.28,0-.42-.02-.03-.04-.05-.06-.08-.58,0-1.16,0-1.74,0-.58,0-1.16,0-1.74,0-.01.02-.03.03-.04.05,0,0-.02.02-.02.03,0,.05,0,.1,0,.15,0,.05,0,.1,0,.15.02,4.21.04,8.43.06,12.64,0,.76.02,1.52.1,2.27.11,1.15.35,2.28.83,3.35.94,2.08,2.48,3.43,4.74,3.92.98.21,1.97.22,2.96.19,1.56-.04,2.94-.58,4.16-1.54.72-.57,1.26-1.28,1.74-2.05.07-.12.11-.28.33-.35v3.31s.04.06.06.09c.04,0,.08.01.11.02.04,0,.08.01.11.01.94,0,1.88,0,2.82,0,.16,0,.33-.01.49-.02.09-.5.06-21.84-.02-22.13h-3.6Z"/>
  <path class="cls-11" d="m116.67,34.96c1.93-2.67,3.84-5.34,5.8-7.99.36-.49.54-.97.45-1.56-.02-.02-.04-.05-.06-.07-.08,0-.15,0-.23-.01-.08,0-.15,0-.23,0-5.44,0-10.87,0-16.31,0-.1,0-.2,0-.31.01-.02.03-.05.05-.07.08,0,.95,0,1.9.01,2.85.02.02.04.05.06.07.08,0,.15,0,.23.01.08,0,.15,0,.23,0,3.71,0,7.41.01,11.12.02.23-.05.24-.04.19.13-.12.15-.23.31-.35.46-.12.15-.23.31-.35.46-1.01,1.39-2.02,2.79-3.03,4.18-1.02,1.4-2.05,2.8-3.07,4.2-.62.85-1.23,1.71-1.85,2.56-1.28,1.77-2.54,3.55-3.87,5.29-.32.42-.52.84-.56,1.31,0,.08,0,.16,0,.24,0,.08,0,.16.02.25.02.03.04.06.06.09.08,0,.15.01.23.02.08,0,.15.01.23.01,5.55,0,11.1,0,16.65,0,.28,0,.57,0,.85-.01.08,0,.17-.03.28-.04,0-1,0-1.99-.01-3.01h-12.97c.07-.12.1-.19.14-.25,2.24-3.11,4.49-6.21,6.74-9.31Z"/>
  <path class="cls-11" d="m162.94,24.94c-1.38-.15-2.67.11-3.81.92-.73.52-1.35,1.16-1.8,1.94-.35.6-.62,1.23-.93,1.85-.03.04-.05.09-.08.13-.02-.05-.03-.09-.05-.14-.01-1.43-.02-2.87-.03-4.3h-3.54v22.21c1.17.01,2.31.02,3.45.03.03-.02.06-.03.09-.05,0-.08.02-.15.02-.23.02-4.11.04-8.22.06-12.33,0-.13,0-.26.01-.38.21-1.52.69-2.94,1.51-4.25.42-.67.97-1.2,1.67-1.56,1.45-.75,2.91-.72,4.38-.06.12.05.24.11.39.17v-3.71c-.24-.06-.45-.12-.66-.16-.22-.04-.45-.06-.68-.09Z"/>
  <path class="cls-8" d="m117.36,28.37c.06.04.13.09.19.13.05-.17.04-.18-.19-.13Z"/>
  <path class="cls-9" d="m156.4,29.66s-.08,0-.13-.01c.02.05.03.09.05.14.03-.04.05-.09.08-.13Z"/>
  <path class="cls-10" d="m.05,47.48c0-.05,0-.11.01-.16-.03.02-.05.04-.06.06-.02.03-.01.07.05.1Z"/>
  <path class="cls-7" d="m130.56,25.42s-.04-.05-.06-.08"/>
  <path class="cls-7" d="m126.99,25.39s-.02.02-.02.03"/>
  <path class="cls-7" d="m126.99,25.39s.03-.03.04-.05"/>
  <path class="cls-2" d="m105.78,28.34s-.04-.05-.06-.07"/>
  <path class="cls-7" d="m122.92,25.42s-.04-.05-.06-.07"/>
  <path class="cls-2" d="m105.78,25.33s-.05.05-.07.08"/>
  <path class="cls-6" d="m104.48,47.47s.04.06.06.09"/>
  <path class="cls-6" d="m141.94,47.56s-.04-.06-.06-.09"/>
  <path class="cls-5" d="m103.15,47.57s.05-.02.08-.02"/>
  <path class="cls-5" d="m156.24,47.55s-.06.03-.09.05"/>
  <path class="cls-3" d="m69.09,53.31s0,.02,0,.03"/>
  <path class="cls-3" d="m69.09,53.31v-.05"/>
  <path class="cls-4" d="m84.01,35.44s.04.04.06.06"/>
</svg>