<?xml version="1.0" encoding="UTF-8"?>
<svg id="Layer_1" data-name="Layer 1" xmlns="http://www.w3.org/2000/svg" viewBox="0 0 885.74 257.32">
  <defs>
    <style>
      .cls-1 {
        fill: none;
      }

      .cls-1, .cls-2, .cls-3 {
        stroke-width: 0px;
      }

      .cls-3 {
        fill: #1372ba;
      }
    </style>
  </defs>
  <g>
    <path class="cls-1" d="m111.73,126.17l-24.42-24.42c-5.06,7.75-8.04,16.99-8.04,26.91l32.47-2.48h-.01Z"/>
    <path class="cls-1" d="m163.44,93.63l-13.58,15.17h24c-2.51-5.7-6.05-10.84-10.42-15.17Z"/>
    <path class="cls-1" d="m128.66,112.25l2.27-3.45h4.92l19.41-21.7c-7.68-4.95-16.81-7.85-26.62-7.85v32.99h.01,0Z"/>
    <path class="cls-1" d="m118.23,117.9v-37.5c-9.36,2.02-17.74,6.7-24.31,13.2l24.31,24.31Z"/>
    <path class="cls-1" d="m94.46,164.22l7.09-10.77-3.13-2.81,12.48-13.94-30.52,2.34c2.1,9.78,7.11,18.48,14.07,25.18,0,0,.01,0,.01,0Z"/>
  </g>
  <g>
    <path class="cls-3" d="m128.66,0C57.61,0,0,57.61,0,128.66s57.61,128.66,128.66,128.66,128.66-57.61,128.66-128.66S199.72,0,128.66,0Zm0,233.69c-57.92,0-105.03-47.12-105.03-105.03S70.75,23.63,128.66,23.63s105.03,47.12,105.03,105.03-47.12,105.03-105.03,105.03h0Z"/>
    <path class="cls-3" d="m118.23,80.4v-38.31c-19.84,2.37-37.61,11.36-51.06,24.74l26.76,26.76c6.57-6.51,14.94-11.18,24.31-13.2Z"/>
    <path class="cls-3" d="m87.3,101.73l-27.1-27.1c-11.74,14.86-18.76,33.61-18.76,54.01,0,.96.04,1.92.07,2.88l37.74-2.89c0-9.93,2.97-19.16,8.04-26.91h.01Z"/>
    <path class="cls-3" d="m42.45,141.93c3.33,21.77,14.69,40.87,30.97,54.22l21.02-31.93c-6.96-6.7-11.97-15.4-14.07-25.18l-37.92,2.9h0Z"/>
    <path class="cls-3" d="m173.86,108.81h39.71c-3.93-16.88-12.74-31.85-24.88-43.38l-25.25,28.21c4.36,4.33,7.9,9.47,10.42,15.17Z"/>
    <path class="cls-3" d="m180.73,58.69c-14.54-10.83-32.54-17.24-52.07-17.24v37.83c9.8,0,18.92,2.9,26.62,7.85l25.45-28.42h0Z"/>
    <path class="cls-3" d="m141.93,119.14c-2.66-3.24-6.71-5.32-11.25-5.32-8.04,0-14.55,6.51-14.55,14.55s6.51,14.55,14.55,14.55c4.53,0,8.59-2.07,11.25-5.32h80.25v-18.47s-80.25,0-80.25,0Z"/>
  </g>
  <g>
    <path class="cls-2" d="m311.73,161.04l25.29-65.85h9.39l26.96,65.85h-9.93l-7.68-19.95h-27.53l-7.23,19.95h-9.26Zm19-27.04h22.32l-6.87-18.24c-2.1-5.54-3.65-10.09-4.67-13.66-.83,4.23-2.02,8.42-3.55,12.58l-7.23,19.31h0Z"/>
    <path class="cls-2" d="m375.01,161.04v-6.56l30.37-34.85c-3.44.18-6.49.27-9.12.27h-19.46v-6.56h39v5.34l-25.83,30.27-4.99,5.53c3.62-.27,7.02-.41,10.19-.41h22.05v6.96h-42.22.01Z"/>
    <path class="cls-2" d="m456.55,161.04v-7.01c-3.71,5.39-8.76,8.08-15.14,8.08-2.82,0-5.44-.54-7.88-1.62-2.44-1.07-4.26-2.44-5.44-4.06-1.18-1.64-2.02-3.62-2.5-5.99-.32-1.59-.49-4.1-.49-7.54v-29.56h8.08v26.46c0,4.23.17,7.06.49,8.53.51,2.13,1.59,3.79,3.23,5,1.65,1.21,3.68,1.82,6.1,1.82s4.69-.62,6.82-1.86c2.13-1.24,3.64-2.93,4.51-5.08s1.33-5.24,1.33-9.32v-25.56h8.08v47.71h-7.23.04Z"/>
    <path class="cls-2" d="m476.35,161.04v-47.71h7.27v7.23c1.86-3.38,3.57-5.61,5.15-6.7,1.58-1.07,3.3-1.62,5.19-1.62,2.72,0,5.5.87,8.3,2.61l-2.79,7.5c-1.97-1.17-3.95-1.75-5.94-1.75-1.76,0-3.36.54-4.77,1.59-1.41,1.07-2.41,2.54-3.02,4.43-.9,2.88-1.35,6.02-1.35,9.43v24.97h-8.08.03Z"/>
    <path class="cls-2" d="m539.74,145.69l8.36,1.03c-1.31,4.88-3.76,8.67-7.32,11.36-3.57,2.69-8.12,4.05-13.66,4.05-6.98,0-12.51-2.14-16.59-6.44s-6.13-10.32-6.13-18.07,2.07-14.25,6.2-18.68,9.49-6.65,16.09-6.65,11.59,2.17,15.64,6.51c4.05,4.34,6.06,10.45,6.06,18.33,0,.48-.01,1.2-.04,2.16h-35.57c.3,5.24,1.78,9.25,4.44,12.04,2.66,2.78,5.99,4.17,9.97,4.17,2.96,0,5.5-.78,7.58-2.34,2.1-1.55,3.75-4.05,4.99-7.46h-.01Zm-26.55-13.07h26.63c-.35-4.02-1.38-7.02-3.06-9.02-2.58-3.12-5.92-4.67-10.01-4.67-3.71,0-6.84,1.24-9.36,3.74s-3.93,5.81-4.2,9.97h0Z"/>
    <path class="cls-2" d="m584.57,161.04v-65.85h13.11l15.59,46.62c1.44,4.34,2.48,7.58,3.14,9.74.75-2.4,1.92-5.91,3.5-10.56l15.76-45.82h11.73v65.85h-8.4v-55.11l-19.13,55.11h-7.87l-19.05-56.05v56.05h-8.4.01Z"/>
    <path class="cls-2" d="m657.42,137.19c0-8.84,2.45-15.38,7.37-19.62,4.1-3.54,9.11-5.3,15-5.3,6.56,0,11.91,2.14,16.09,6.44,4.16,4.3,6.25,10.24,6.25,17.81,0,6.13-.92,10.97-2.76,14.49s-4.53,6.25-8.04,8.19c-3.52,1.95-7.36,2.92-11.52,2.92-6.68,0-12.08-2.14-16.2-6.43s-6.18-10.45-6.18-18.51h-.01Zm8.3,0c0,6.1,1.34,10.69,4,13.72,2.66,3.03,6.02,4.55,10.07,4.55s7.35-1.52,10.01-4.58c2.66-3.06,4-7.71,4-13.97,0-5.89-1.34-10.36-4.02-13.41s-6.01-4.55-10-4.55-7.4,1.51-10.07,4.54c-2.66,3.02-4,7.58-4,13.7Z"/>
    <path class="cls-2" d="m711.6,161.04v-47.71h7.27v6.78c3.51-5.24,8.56-7.87,15.18-7.87,2.88,0,5.51.52,7.92,1.55,2.41,1.03,4.22,2.38,5.41,4.06s2.03,3.67,2.51,5.98c.3,1.49.45,4.12.45,7.87v29.32h-8.08v-29.01c0-3.3-.31-5.75-.94-7.39-.63-1.64-1.75-2.93-3.34-3.91s-3.48-1.47-5.64-1.47c-3.44,0-6.41,1.1-8.91,3.28-2.5,2.19-3.75,6.33-3.75,12.45v26.05h-8.09Z"/>
    <path class="cls-2" d="m762.8,104.5v-9.3h8.08v9.3h-8.08Zm0,56.55v-47.71h8.08v47.71s-8.08,0-8.08,0Z"/>
    <path class="cls-2" d="m800.84,153.81l1.17,7.15c-2.27.48-4.31.72-6.1.72-2.93,0-5.2-.47-6.82-1.4-1.62-.93-2.76-2.14-3.41-3.67-.66-1.51-.99-4.69-.99-9.54v-27.45h-5.94v-6.29h5.94v-11.81l8.04-4.85v16.66h8.13v6.29h-8.13v27.9c0,2.31.14,3.79.42,4.44.28.66.75,1.18,1.4,1.56.65.39,1.56.58,2.76.58.9,0,2.09-.1,3.55-.31h-.01Z"/>
    <path class="cls-2" d="m805.75,137.19c0-8.84,2.45-15.38,7.37-19.62,4.1-3.54,9.11-5.3,15-5.3,6.56,0,11.91,2.14,16.09,6.44,4.16,4.3,6.25,10.24,6.25,17.81,0,6.13-.92,10.97-2.76,14.49-1.85,3.52-4.53,6.25-8.04,8.19-3.52,1.95-7.36,2.92-11.52,2.92-6.68,0-12.08-2.14-16.2-6.43s-6.18-10.45-6.18-18.51h-.01Zm8.3,0c0,6.1,1.34,10.69,4,13.72s6.02,4.55,10.07,4.55,7.35-1.52,10.01-4.58,4-7.71,4-13.97c0-5.89-1.34-10.36-4.02-13.41-2.68-3.05-6.01-4.55-10-4.55s-7.4,1.51-10.07,4.54c-2.66,3.02-4,7.58-4,13.7Z"/>
    <path class="cls-2" d="m859.83,161.04v-47.71h7.27v7.23c1.86-3.38,3.57-5.61,5.15-6.7,1.58-1.07,3.3-1.62,5.19-1.62,2.72,0,5.5.87,8.3,2.61l-2.79,7.5c-1.97-1.17-3.95-1.75-5.94-1.75-1.76,0-3.36.54-4.77,1.59-1.41,1.07-2.41,2.54-3.02,4.43-.9,2.88-1.35,6.02-1.35,9.43v24.97h-8.08.03Z"/>
  </g>
</svg>