<?xml version="1.0" encoding="UTF-8"?>
<svg id="Layer_1" data-name="Layer 1" xmlns="http://www.w3.org/2000/svg" viewBox="0 0 195 30.46">
  <defs>
    <style>
      .cls-1, .cls-2 {
        fill: none;
      }

      .cls-3 {
        fill: #f8bc16;
      }

      .cls-4 {
        fill: #eb432a;
      }

      .cls-5 {
        fill: #818489;
      }

      .cls-6 {
        fill: #b7b8ba;
      }

      .cls-7 {
        fill: #abacb0;
      }

      .cls-8 {
        fill: #24aa4d;
      }

      .cls-9 {
        fill: #5f646a;
      }

      .cls-10 {
        fill: #5f656b;
      }

      .cls-11 {
        fill: #60656b;
      }

      .cls-12 {
        fill: #5079bd;
      }

      .cls-2 {
        stroke: #5cbd79;
        stroke-linecap: round;
        stroke-linejoin: round;
        stroke-width: 0px;
      }
    </style>
  </defs>
  <path class="cls-1" d="m.19,17.51c-.03.26-.06.52-.09.78-.03,0-.07,0-.1,0,.03,0,.07,0,.1,0,.03-.26.06-.52.09-.78Z"/>
  <path class="cls-1" d="m15.94,28.98c.7,0,1.4,0,2.1,0h0c-.7,0-1.4,0-2.1,0Z"/>
  <path class="cls-1" d="m27.4,3.56s.07.01.1.02c-.03-.01-.07-.01-.1-.02-.05.06-.1.12-.15.18.05-.05.1-.12.15-.18Z"/>
  <path class="cls-1" d="m101.65,30.4h0c.06,0,.13,0,.19,0,.1,0,.2,0,.3,0h0c-.1,0-.2,0-.3,0-.06,0-.13,0-.19,0Z"/>
  <path class="cls-1" d="m103.35,30.42s0,.03,0,.04c0-.01,0-.03,0-.04,0,0,0,0,0,0Z"/>
  <path class="cls-1" d="m12.27,8.81h0c.18-.16.37-.33.55-.49-.18.17-.37.33-.55.49Z"/>
  <path class="cls-1" d="m23.17,7.82s-.07.1-.11.15h0c.04-.05.07-.11.11-.15Z"/>
  <path class="cls-1" d="m23.15,8.02c.08.05.15.1.22.16-.07-.06-.14-.11-.22-.16Z"/>
  <path class="cls-1" d="m8.62,22.36c-.07.07-.14.15-.22.22.07-.07.14-.15.22-.22,0,0,0,0,0,0Z"/>
  <path class="cls-1" d="m192.77,13.28s.02.05.03.08c0,.05.02.09.02.14,0-.05-.02-.09-.02-.14,0-.03-.02-.05-.03-.08Z"/>
  <path class="cls-1" d="m192.82,13.59s0-.06,0-.09c0,.03,0,.06,0,.09Z"/>
  <path class="cls-5" d="m103.27,30.39s-.02,0-.03,0c-.37,0-.74,0-1.11,0h0s-.05.05-.07.07h1.29s0-.03,0-.04c-.03,0-.05-.02-.08-.03Z"/>
  <path class="cls-6" d="m102.14,30.39c-.1,0-.2,0-.3,0v.06h.23s.05-.05.07-.07h0Z"/>
  <path class="cls-12" d="m27.25,3.74c-1.35,1.35-2.69,2.69-4.04,4.04-.01.01-.03.03-.04.05-.04.05-.07.1-.11.15.03.01.06.03.09.05.08.05.15.1.22.16.05.05.11.1.16.15.05.05.09.09.13.14.45.48.84,1,1.2,1.55.23.35.38.74.53,1.12.21.52.39,1.06.45,1.62.05.38.07.77.09,1.16.01.32,0,.64,0,.97.23.03.45.05.66.09,1.41.27,2.39,1.07,2.96,2.38.2.47.32.96.3,1.47-.02.87-.25,1.67-.81,2.36-.1.12-.19.24-.3.36-.63.66-1.42,1.01-2.3,1.16-.15.02-.3.02-.45.02-2.27,0-4.53,0-6.8,0-.29,0-.58.01-.88.01-.04,0-.08,0-.13,0-.04,0-.08,0-.13,0,0,.19,0,.39,0,.58,0,1.78,0,3.57,0,5.35,0,.1-.02.2-.04.3h0s.09.01.13.02c.04,0,.09.01.13.01,2.6,0,5.19,0,7.79,0,.08,0,.16,0,.23-.01.41-.03.83-.06,1.24-.1.2-.02.4-.04.58-.09.47-.13.95-.23,1.4-.42.44-.18.88-.37,1.3-.59.37-.19.71-.43,1.06-.66.39-.26.74-.58,1.09-.89.27-.24.5-.5.72-.78.24-.3.49-.59.71-.89.24-.32.44-.67.6-1.03.14-.32.32-.62.45-.94.24-.56.4-1.15.52-1.75.13-.63.19-1.26.22-1.9.02-.49-.04-.98-.11-1.47-.08-.59-.21-1.18-.39-1.74-.21-.64-.46-1.25-.78-1.85-.42-.77-.92-1.46-1.53-2.09-.19-.2-.4-.39-.61-.57-.24-.21-.49-.43-.75-.61-.23-.16-.42-.33-.45-.63,0-.04-.03-.09-.04-.13-.18-.56-.39-1.11-.63-1.66-.33-.75-.72-1.45-1.18-2.12-.32-.45-.66-.89-1.03-1.31-.38-.42-.8-.81-1.2-1.21,0,0-.02-.01-.03-.02-.03-.01-.07-.01-.1-.02-.05.06-.1.12-.15.18Z"/>
  <path class="cls-9" d="m66.5,13.53h-9.34c-.04.29-.02,2.66.02,2.8h6.59c-.03.1-.06.17-.07.25-.03.18-.04.38-.08.56-.15.6-.37,1.18-.7,1.71-.31.51-.7.97-1.18,1.33-.53.4-1.09.75-1.7,1.01-.63.26-1.27.45-1.95.53-.88.11-1.76.06-2.63-.13-1.23-.27-2.32-.85-3.25-1.68-.84-.75-1.48-1.65-1.9-2.7-.29-.73-.48-1.49-.49-2.28,0-.31,0-.62,0-.93,0-.4.05-.8.14-1.19.16-.7.4-1.36.76-1.99.25-.43.52-.85.86-1.21.54-.58,1.1-1.15,1.8-1.53.33-.18.65-.36.99-.51.63-.27,1.29-.41,1.96-.48.53-.05,1.06-.06,1.59,0,.37.05.74.12,1.1.21.3.08.6.18.89.3.31.13.61.3.91.46.19.11.38.23.56.37.25.19.48.39.74.59.67-.64,1.3-1.31,1.94-1.97-.04-.04-.06-.08-.09-.1-.2-.18-.4-.37-.61-.54-.96-.76-2.01-1.33-3.18-1.7-.72-.23-1.45-.37-2.19-.43-1.01-.09-2.02-.01-3.01.19-.77.16-1.51.4-2.22.74-.61.29-1.19.63-1.73,1.04-.33.25-.66.51-.95.81-.25.26-.52.49-.76.75-.57.61-1.03,1.29-1.42,2.02-.2.37-.36.77-.51,1.16-.11.29-.2.58-.28.88-.08.29-.14.58-.2.87-.04.19-.04.39-.06.59-.02.24-.05.49-.06.74-.02.77.03,1.53.16,2.29.05.32.13.63.22.93.13.45.3.88.49,1.3.18.4.39.79.63,1.16.2.32.43.62.66.92.42.53.9,1,1.4,1.45.59.53,1.23.96,1.93,1.34.46.25.93.46,1.43.61.27.08.54.19.82.26.25.07.51.12.77.17.1.02.21.03.32.04.1,0,.21,0,.31.01.73.08,1.82.09,2.57,0,.19-.02.38-.02.57-.06.3-.06.6-.15.9-.23.75-.2,1.45-.51,2.13-.89.55-.31,1.05-.68,1.53-1.08.42-.36.8-.77,1.14-1.21.47-.6.85-1.26,1.15-1.96.32-.73.52-1.49.63-2.28.13-.9.1-1.81.03-2.71-.01-.19-.05-.38-.07-.57Z"/>
  <path class="cls-3" d="m.1,19.31c0,.12.02.23.03.35.01.17,0,.35.03.52.03.2.09.39.12.59.05.37.15.72.26,1.07.15.5.35.99.58,1.46.14.29.33.56.48.85.27.5.63.93.99,1.36.44.53.95.98,1.49,1.4.02-.03.03-.06.06-.08,1.35-1.34,2.7-2.69,4.04-4.03.07-.07.15-.15.22-.22.07-.07.14-.15.22-.22-.03-.02-.06-.04-.09-.05s-.06-.04-.09-.05c-1.16-.61-1.86-1.57-2.07-2.85-.21-1.32.16-2.49,1.13-3.42.86-.83,1.91-1.22,3.13-1.09,1.44.15,2.48.88,3.14,2.15.01.03.03.05.05.07,1.51-1.51,3.01-3.01,4.53-4.52-.12-.15-.25-.32-.4-.48-.89-1.01-1.93-1.82-3.14-2.42-.75-.37-1.53-.65-2.34-.83-.07-.02-.13-.05-.2-.07h0s0,0,0,0c-.23-.03-.46-.06-.69-.09-.19-.02-.37-.05-.56-.07-.23-.02-.46-.04-.7-.04-.29,0-.58,0-.87.04-.42.05-.83.11-1.24.19-.69.13-1.36.36-2.01.64-.5.22-.97.49-1.44.77-.04.03-.09.05-.14.07-.04.04-.09.07-.13.11-.05.04-.11.09-.17.13-1.24.9-2.23,2.01-2.96,3.35-.57,1.04-.96,2.15-1.13,3.33-.01.09-.02.17-.04.26-.03.26-.06.52-.09.78,0,.34,0,.67,0,1.01Z"/>
  <path class="cls-9" d="m101.84,30.4c.1,0,.2,0,.3,0,.37,0,.74,0,1.11,0,0,0,.02,0,.03,0,.03,0,.05.02.08.03,0,0,0,0,0,0,.16,0,.31-.02.47-.03.07-.01.14-.03.21-.04.21-.04.41-.09.61-.15.67-.2,1.28-.51,1.85-.92.29-.21.57-.43.79-.71.43-.52.78-1.08,1.05-1.7.34-.8.54-1.64.56-2.51,0-.32,0-.65,0-.97,0-3.76,0-7.51,0-11.27,0-.06,0-.11-.01-.16-.31-.04-2.55-.03-2.72.02v.98c-.13,0-.13,0-.2-.06-.12-.12-.23-.25-.36-.35-.86-.68-1.85-1.04-2.94-1.06-.33,0-.66.04-.99.08-.6.07-1.17.26-1.72.52-.44.2-.85.48-1.22.79-.18.15-.33.34-.5.5-.03.03-.07.06-.1.09-.33.29-.57.64-.81,1-.14.21-.25.43-.36.65-.11.22-.21.45-.29.68-.09.26-.17.52-.24.79-.04.15-.06.31-.08.46-.02.17-.03.34-.02.5,0,.51,0,1.02.03,1.53.02.26.11.51.17.76.16.6.4,1.16.74,1.67.19.28.39.56.61.82.39.45.82.86,1.31,1.2.36.25.75.46,1.16.62.21.08.43.14.65.2.29.07.57.14.86.19.14.03.28.03.42.04.15,0,.29-.01.44-.02.24,0,.48,0,.72-.02.21-.03.41-.1.61-.16.55-.16,1.04-.43,1.47-.81.15-.13.29-.26.42-.4.06-.06.11-.11.22-.04,0,.39,0,.79,0,1.19,0,.32-.07.62-.13.92-.07.36-.22.7-.39,1.02-.11.19-.23.39-.38.55-.4.44-.89.74-1.45.92-.45.15-.92.14-1.38.13-.45-.01-.86-.12-1.26-.31-.47-.23-.85-.57-1.18-.96-.25-.3-.47-.63-.61-1,0-.01-.03-.02-.04-.03-.54.18-2.36.95-2.49,1.07.13.24.27.48.4.73.27.5.62.93,1.02,1.32.4.4.84.75,1.34,1.03.33.19.68.33,1.04.46.12.04.24.08.37.11.21.05.41.09.63.11h0c.06,0,.13,0,.19,0Zm3.99-10.17c-.48.86-1.17,1.46-2.15,1.7-.46.11-.92.11-1.39.04-1.14-.16-1.95-.8-2.54-1.74-.49-.78-.65-1.64-.57-2.55.08-1.02.49-1.88,1.23-2.59.64-.62,1.42-.94,2.32-.95.67-.01,1.3.1,1.88.46.69.43,1.14,1.05,1.45,1.78.23.55.32,1.12.3,1.73.02.74-.14,1.46-.52,2.13Z"/>
  <path class="cls-4" d="m4.62,10.33s.09-.05.14-.07c.46-.28.94-.55,1.44-.77.65-.28,1.32-.5,2.01-.64.41-.08.83-.14,1.24-.19.29-.03.58-.04.87-.04.23,0,.47.02.7.04.19.01.37.04.56.07.23.03.46.06.69.09,0,0,0,0,0,0,.18-.16.37-.33.55-.49.92-.84,1.96-1.46,3.17-1.78.34-.09.68-.14,1.03-.2.62-.11,1.24-.1,1.86-.04.62.06,1.22.21,1.82.4.81.26,1.53.69,2.22,1.19.05.04.11.07.16.1.04-.05.07-.11.11-.15.01-.02.03-.03.04-.05,1.35-1.35,2.69-2.69,4.04-4.04.05-.05.1-.12.15-.18-.02-.03-.03-.06-.05-.08-.37-.3-.74-.61-1.13-.88-.91-.64-1.89-1.17-2.93-1.59-1.26-.5-2.56-.81-3.9-.95-.59-.06-1.19-.08-1.79-.05-1.02.04-2.01.18-3,.43-2.76.7-5.1,2.11-7.01,4.21-1.29,1.42-2.24,3.04-2.87,4.85-.1.29-.17.58-.26.87.05-.01.09-.03.14-.04Z"/>
  <path class="cls-9" d="m192.72,6.47v.13c0,1.61,0,3.21,0,4.82,0,.48.04.96.06,1.44,0,.14-.01.28-.02.42.04.02.09.03.03.08,0,.05.02.09.02.14,0,.03,0,.06,0,.09,0,.05,0,.1-.01.14-.11.02-.14-.06-.18-.12-.25-.35-.54-.68-.9-.93-.92-.68-1.97-1-3.11-1.03-.49-.01-.97.07-1.44.19-.9.23-1.68.66-2.35,1.31-.32.31-.61.64-.86,1.01-.19.29-.38.57-.53.88-.18.38-.34.77-.44,1.18-.07.27-.13.55-.18.82-.03.16-.01.32-.01.49,0,.38,0,.76,0,1.15,0,.08-.03.15-.02.23.02.14.06.28.08.43.03.29.1.57.19.84.09.25.19.49.27.74.1.31.27.58.44.85.18.28.39.54.59.8.35.46.78.83,1.26,1.15.29.19.58.36.91.47.21.07.41.15.62.22.2.06.4.11.61.14.2.03.4.03.61.03.57.01,1.14-.01,1.69-.19.56-.17,1.08-.41,1.55-.75.25-.18.5-.37.68-.62.1-.13.2-.26.3-.38.05-.06.09-.15.21-.1,0,.06,0,.12,0,.17,0,.44,0,.88,0,1.32,0,.06.02.13.03.19.11-.01.19-.03.27-.03.56,0,1.12,0,1.67,0,.07,0,.14,0,.22,0V6.46c-.24-.04-2.14-.03-2.28.01Zm-.12,13.27c-.4,1.19-1.11,2.11-2.33,2.54-1.65.59-3.58.09-4.6-1.7-.39-.69-.6-1.43-.58-2.23,0-.22,0-.44,0-.66.05-1.29.54-2.38,1.55-3.2,1.6-1.29,4.01-.99,5.26.65.62.81.93,1.72.91,2.75,0,.08,0,.16,0,.23.03.55-.02,1.09-.2,1.61Z"/>
  <path class="cls-10" d="m127.11,16.02c-.19-.48-.39-.97-.66-1.41-.24-.39-.51-.76-.81-1.11-.26-.3-.55-.59-.87-.83-.36-.28-.76-.51-1.18-.69-.55-.24-1.13-.38-1.73-.44-.49-.06-.97-.03-1.45.04-.59.08-1.15.24-1.69.48-.55.24-1.04.58-1.48.97-.54.48-.98,1.06-1.33,1.69-.23.41-.42.85-.54,1.31-.04.16-.09.32-.13.49-.04.17-.07.33-.08.5,0,.16-.03.32-.02.49.02.29,0,.58,0,.87,0,.26.04.53.06.79.02.19.04.38.09.56.09.3.19.6.3.89.11.33.28.63.46.92.39.63.89,1.17,1.45,1.66.34.3.72.54,1.12.74.44.22.9.4,1.38.5.2.04.39.1.59.12.18.02.36.02.55.03.38,0,.76.03,1.14,0,.22-.01.45-.07.67-.12.43-.1.86-.22,1.26-.41.38-.19.75-.39,1.1-.64.25-.19.51-.37.74-.58.2-.18.38-.39.56-.6.15-.17.29-.36.44-.55-.73-.51-1.47-.99-2.19-1.48-.1.13-.18.24-.26.34-.34.43-.74.77-1.22,1.03-.56.3-1.16.44-1.79.43-.5,0-.99-.06-1.45-.27-.48-.23-.9-.53-1.23-.95-.18-.23-.33-.47-.45-.76,2.93-1.2,5.85-2.4,8.8-3.61-.05-.15-.1-.27-.14-.38Zm-9.15,1.84c-.05-.57.02-1.09.24-1.58.49-1.11,1.31-1.87,2.51-2.16.82-.2,1.6-.08,2.32.37.36.23.65.57.78.94-1.94.8-3.88,1.61-5.85,2.42Z"/>
  <path class="cls-9" d="m94.27,14.75c-.21-.36-.45-.71-.73-1.02-.63-.69-1.37-1.24-2.24-1.63-.86-.39-1.76-.59-2.7-.6-.43,0-.87.05-1.29.12-1.19.21-2.25.71-3.17,1.49-.54.46-1,1.01-1.35,1.63-.24.43-.45.88-.58,1.36-.08.29-.15.59-.2.89-.03.16-.01.32-.02.49,0,.25-.01.49,0,.74.01.24-.02.48.01.72.03.23.07.46.12.69.16.73.45,1.41.86,2.02.31.47.67.91,1.11,1.28.44.37.91.7,1.43.96.14.07.29.13.44.19.25.1.5.2.76.27.28.08.57.14.86.2.12.03.25.03.38.04.1,0,.2-.01.31,0,.4.02.81,0,1.21-.04.26-.03.52-.12.77-.18.57-.14,1.11-.36,1.62-.65.44-.25.84-.54,1.21-.88.54-.49.98-1.08,1.32-1.73.5-.96.72-1.99.72-3.13,0-.46-.05-.97-.17-1.47-.14-.62-.37-1.2-.68-1.75Zm-2.76,5.72c-.6.81-1.38,1.35-2.39,1.5-1.1.16-2.09-.1-2.93-.83-.71-.62-1.17-1.38-1.32-2.32-.24-1.56.15-2.91,1.4-3.94,1.41-1.16,3.54-1.04,4.83.26.8.81,1.18,1.78,1.16,3,.01.8-.22,1.61-.75,2.33Z"/>
  <path class="cls-9" d="m80.21,15.3c-.47-1.04-1.17-1.89-2.11-2.55-1.27-.88-2.69-1.31-4.24-1.23-.87.04-1.69.25-2.48.6-.71.31-1.34.75-1.89,1.29-.63.62-1.11,1.34-1.43,2.16-.2.52-.37,1.05-.39,1.62-.01.37-.04.74-.03,1.11,0,.37.03.75.08,1.11.04.3.13.59.23.87.16.41.35.82.58,1.2.26.44.58.84.93,1.2.33.33.69.62,1.08.86.33.2.67.39,1.02.55.34.15.69.26,1.06.34.14.03.28.08.42.1.3.03.61.06.91.07.28.01.56.02.83,0,.18,0,.36-.04.54-.08.2-.04.4-.07.59-.13.55-.17,1.08-.37,1.58-.65.38-.21.74-.46,1.06-.75.26-.23.49-.48.72-.74.51-.58.88-1.25,1.14-1.98.25-.72.37-1.46.38-2.22-.04-.37-.07-.75-.11-1.12-.07-.57-.24-1.1-.47-1.62Zm-2.65,4.49c-.53,1.09-1.35,1.84-2.55,2.13-.42.1-.85.1-1.28.06-1.53-.15-2.93-1.48-3.21-3.15-.04-.27-.05-.54-.07-.81,0-.98.3-1.85.92-2.6,1.51-1.82,4.3-1.76,5.73.12.54.7.8,1.5.81,2.38.01.65-.07,1.28-.35,1.87Z"/>
  <path class="cls-11" d="m147.61,20.09c-.28.27-.54.56-.84.8-.54.43-1.13.77-1.78,1.02-.5.2-1.01.35-1.53.42-.85.11-1.7.11-2.54-.04-.8-.14-1.55-.44-2.25-.87-.74-.46-1.37-1.04-1.9-1.74-.33-.45-.6-.93-.81-1.44-.32-.76-.5-1.55-.51-2.38,0-.36,0-.71,0-1.07,0-.43.06-.86.16-1.28.18-.8.49-1.54.94-2.22.32-.49.69-.92,1.13-1.31.45-.4.94-.74,1.47-1.01.43-.22.88-.38,1.35-.5.15-.04.31-.06.47-.09.17-.03.33-.08.5-.1.84-.07,1.68-.08,2.51.14.36.09.71.22,1.06.35.23.09.44.23.66.35.5.3.95.66,1.34,1.1.08.09.15.17.23.25.03,0,.06,0,.07-.02.5-.5.99-1.01,1.5-1.52-.24-.29-.51-.56-.81-.82-.57-.51-1.21-.92-1.9-1.25-.73-.35-1.49-.59-2.3-.7-.48-.07-.95-.12-1.43-.11-.27,0-.53.01-.8.03-.81.05-1.6.2-2.36.46-.46.16-.91.35-1.34.58-.75.39-1.42.88-2.03,1.46-.73.7-1.32,1.5-1.77,2.41-.12.25-.24.5-.35.76-.16.36-.27.74-.38,1.12-.08.26-.13.53-.17.8-.03.19-.03.39-.05.59-.06.59-.05,1.18-.03,1.77,0,.18.03.36.04.54.01.14.01.29.04.43.03.17.1.32.12.49.04.33.15.63.25.94.11.33.27.65.41.98.22.51.51.99.84,1.44.6.84,1.33,1.55,2.19,2.14.51.35,1.04.65,1.62.88.49.2.98.37,1.5.49.46.11.92.18,1.38.2.2,0,.4.03.6.03.69,0,1.38-.03,2.06-.15.36-.06.71-.15,1.06-.26.65-.21,1.3-.45,1.88-.82.36-.23.72-.44,1.05-.7.44-.34.84-.72,1.2-1.15.02-.03.04-.06.04-.07-.53-.53-1.05-1.05-1.58-1.57-.06.07-.13.15-.2.23Z"/>
  <path class="cls-8" d="m18.07,28.67c0-1.78,0-3.57,0-5.35,0-.19,0-.39,0-.58-.01,0-.03,0-.04-.01-.01,0-.03-.01-.04-.02-.08,0-.17-.01-.25-.01-2.4,0-4.8,0-7.19,0-.67,0-1.32-.07-1.94-.34-.07.07-.14.15-.22.22-.07.07-.14.15-.22.22-1.35,1.34-2.7,2.69-4.04,4.03-.02.02-.04.05-.06.08.02.03.04.06.07.09.28.21.59.4.89.59.48.31,1,.52,1.52.73.32.12.64.22.97.31.33.09.66.17,1,.24.19.04.38.04.57.05.47.03.93.06,1.4.07,1.81,0,3.62,0,5.43,0,.7,0,1.4,0,2.1,0,.01-.1.04-.2.04-.3Z"/>
  <path class="cls-11" d="m168.18,17.53c-.01-.19-.05-.38-.07-.57-.09-.65-.29-1.26-.57-1.85-.44-.9-1.06-1.66-1.88-2.25-.93-.67-1.97-1.04-3.1-1.18-.48-.06-.95-.03-1.43.03-.67.09-1.32.27-1.93.56-.66.3-1.25.72-1.76,1.24-.4.4-.72.87-.98,1.37-.14.28-.28.56-.39.85-.11.29-.18.58-.26.88-.04.14-.08.28-.08.42,0,.16-.04.31-.03.47.02.26,0,.52-.01.78,0,.22-.02.44,0,.65.02.22.08.43.11.65.06.44.22.85.38,1.25.11.3.28.57.44.84.23.39.51.74.81,1.07.27.29.58.52.9.75.38.27.79.49,1.22.66.4.16.81.26,1.22.36.09.02.19.04.28.04.17.01.35.02.52.02.31,0,.62.02.93.01.15,0,.3-.05.45-.08.22-.04.44-.06.65-.13.57-.18,1.12-.4,1.63-.72.4-.25.77-.52,1.1-.84.22-.22.42-.47.61-.72.4-.53.7-1.12.91-1.76.24-.72.36-1.46.32-2.29,0-.12,0-.32,0-.51Zm-2.49,2.17c-.51,1.42-1.45,2.41-2.96,2.72-1.32.28-2.51-.05-3.48-1-.72-.71-1.15-1.59-1.27-2.6-.03-.24,0-.48,0-.63-.06-.84.09-1.55.43-2.21.58-1.15,1.49-1.9,2.78-2.17.46-.1.93-.09,1.39-.01,1.09.17,1.92.74,2.55,1.63.54.78.79,1.65.79,2.59,0,.57-.03,1.14-.23,1.68Z"/>
  <path class="cls-9" d="m178.55,12.21c0,2.08,0,4.16,0,6.24,0,.45,0,.89-.12,1.33-.09.34-.19.68-.36.99-.22.4-.48.76-.83,1.06-.36.31-.78.53-1.25.63-.55.11-1.1.07-1.64-.05-.58-.12-1.05-.43-1.41-.89-.34-.45-.51-.98-.56-1.53-.04-.34-.05-.68-.05-1.03,0-2.23,0-4.46,0-6.69,0-.07,0-.14,0-.21h-2.29v.21c0,2.3,0,4.6,0,6.9,0,.54-.02,1.08.08,1.62.03.17.06.34.11.51.13.48.31.95.59,1.37.16.24.31.49.51.69.46.49,1.01.84,1.64,1.05.37.12.75.23,1.15.22.38-.02.75-.03,1.13-.03.21,0,.41-.04.6-.1.4-.13.79-.27,1.14-.49.32-.2.64-.4.91-.67.2-.21.37-.44.56-.67.04-.05.07-.12.18-.12v1.65h2.19v-12.12h-2.27c0,.06,0,.11,0,.15Z"/>
  <path class="cls-9" d="m110.88,24.18h2.86V4.98h-2.86v19.21Z"/>
  <path class="cls-9" d="m151.44,6.47v17.72h2.26V6.45c-.39-.04-2.13-.02-2.26.02Z"/>
  <path class="cls-7" d="m192.77,13.28s.02.05.03.08c.07-.05,0-.06-.03-.08Z"/>
  <path class="cls-2" d="m18,22.71s.03.01.04.02"/>
</svg>