<svg width="111" height="24" viewBox="0 0 111 24" fill="none" xmlns="http://www.w3.org/2000/svg">
<g clip-path="url(#clip0_3640_117811)">
<path d="M7.65 24C3.42656 24 0 20.5446 0 16.2857C0 12.9214 2.13562 10.0607 5.11062 9.00536C5.10531 8.86071 5.1 8.71607 5.1 8.57143C5.1 3.83571 8.90375 0 13.6 0C16.7503 0 19.4969 1.725 20.9684 4.29643C21.7759 3.75 22.7534 3.42857 23.8 3.42857C26.6156 3.42857 28.9 5.73214 28.9 8.57143C28.9 9.225 28.7778 9.84643 28.56 10.425C31.6625 11.0571 34 13.8268 34 17.1429C34 20.9304 30.9559 24 27.2 24H7.65ZM11.8469 12.375C11.3475 12.8786 11.3475 13.6929 11.8469 14.1911C12.3463 14.6893 13.1538 14.6946 13.6478 14.1911L15.7197 12.1018V19.2857C15.7197 19.9982 16.2881 20.5714 16.9947 20.5714C17.7013 20.5714 18.2697 19.9982 18.2697 19.2857V12.1018L20.3416 14.1911C20.8409 14.6946 21.6484 14.6946 22.1425 14.1911C22.6366 13.6875 22.6419 12.8732 22.1425 12.375L17.8925 8.08929C17.3931 7.58571 16.5856 7.58571 16.0916 8.08929L11.8416 12.375H11.8469Z" fill="#23282C"/>
</g>
<path d="M47.8496 8.04688H49.1621V14.7803C49.1621 15.5277 48.9958 16.1497 48.6631 16.6465C48.3304 17.1432 47.8883 17.5169 47.3369 17.7676C46.79 18.0137 46.1953 18.1367 45.5527 18.1367C44.8783 18.1367 44.2676 18.0137 43.7207 17.7676C43.1784 17.5169 42.7477 17.1432 42.4287 16.6465C42.1143 16.1497 41.957 15.5277 41.957 14.7803V8.04688H43.2627V14.7803C43.2627 15.2998 43.3584 15.7282 43.5498 16.0654C43.7412 16.4027 44.0078 16.6533 44.3496 16.8174C44.696 16.9814 45.097 17.0635 45.5527 17.0635C46.013 17.0635 46.4141 16.9814 46.7559 16.8174C47.1022 16.6533 47.3711 16.4027 47.5625 16.0654C47.7539 15.7282 47.8496 15.2998 47.8496 14.7803V8.04688ZM52.3066 12.0254V20.8438H51.0352V10.6035H52.1973L52.3066 12.0254ZM57.29 14.2402V14.3838C57.29 14.9215 57.2262 15.4206 57.0986 15.8809C56.971 16.3366 56.7842 16.7331 56.5381 17.0703C56.2965 17.4076 55.998 17.6696 55.6426 17.8564C55.2871 18.0433 54.8792 18.1367 54.4189 18.1367C53.9495 18.1367 53.5348 18.0592 53.1748 17.9043C52.8148 17.7493 52.5094 17.5238 52.2588 17.2275C52.0081 16.9313 51.8076 16.5758 51.6572 16.1611C51.5114 15.7464 51.4111 15.2793 51.3564 14.7598V13.9941C51.4111 13.4473 51.5137 12.9574 51.6641 12.5244C51.8145 12.0915 52.0127 11.7223 52.2588 11.417C52.5094 11.1071 52.8125 10.8724 53.168 10.7129C53.5234 10.5488 53.9336 10.4668 54.3984 10.4668C54.8633 10.4668 55.2757 10.5579 55.6357 10.7402C55.9958 10.918 56.2988 11.1732 56.5449 11.5059C56.791 11.8385 56.9756 12.2373 57.0986 12.7021C57.2262 13.1624 57.29 13.6751 57.29 14.2402ZM56.0186 14.3838V14.2402C56.0186 13.8711 55.9798 13.5247 55.9023 13.2012C55.8249 12.873 55.7041 12.5859 55.54 12.3398C55.3805 12.0892 55.1755 11.8932 54.9248 11.752C54.6742 11.6061 54.3757 11.5332 54.0293 11.5332C53.7103 11.5332 53.4323 11.5879 53.1953 11.6973C52.9629 11.8066 52.7646 11.9548 52.6006 12.1416C52.4365 12.3239 52.3021 12.5335 52.1973 12.7705C52.097 13.0029 52.0218 13.2445 51.9717 13.4951V15.2656C52.0628 15.5846 52.1904 15.8854 52.3545 16.168C52.5186 16.446 52.7373 16.6715 53.0107 16.8447C53.2842 17.0133 53.6283 17.0977 54.043 17.0977C54.3848 17.0977 54.6787 17.027 54.9248 16.8857C55.1755 16.7399 55.3805 16.5417 55.54 16.291C55.7041 16.0404 55.8249 15.7533 55.9023 15.4297C55.9798 15.1016 56.0186 14.7529 56.0186 14.3838ZM60.2773 7.5V18H59.0059V7.5H60.2773ZM61.9727 14.3838V14.2266C61.9727 13.6934 62.0501 13.1989 62.2051 12.7432C62.36 12.2829 62.5833 11.8841 62.875 11.5469C63.1667 11.2051 63.5199 10.9408 63.9346 10.7539C64.3493 10.5625 64.8141 10.4668 65.3291 10.4668C65.8486 10.4668 66.3158 10.5625 66.7305 10.7539C67.1497 10.9408 67.5052 11.2051 67.7969 11.5469C68.0931 11.8841 68.3187 12.2829 68.4736 12.7432C68.6286 13.1989 68.7061 13.6934 68.7061 14.2266V14.3838C68.7061 14.917 68.6286 15.4115 68.4736 15.8672C68.3187 16.3229 68.0931 16.7217 67.7969 17.0635C67.5052 17.4007 67.152 17.665 66.7373 17.8564C66.3271 18.0433 65.8623 18.1367 65.3428 18.1367C64.8232 18.1367 64.3561 18.0433 63.9414 17.8564C63.5267 17.665 63.1712 17.4007 62.875 17.0635C62.5833 16.7217 62.36 16.3229 62.2051 15.8672C62.0501 15.4115 61.9727 14.917 61.9727 14.3838ZM63.2373 14.2266V14.3838C63.2373 14.7529 63.2806 15.1016 63.3672 15.4297C63.4538 15.7533 63.5837 16.0404 63.7568 16.291C63.9346 16.5417 64.1556 16.7399 64.4199 16.8857C64.6842 17.027 64.9919 17.0977 65.3428 17.0977C65.6891 17.0977 65.9922 17.027 66.252 16.8857C66.5163 16.7399 66.735 16.5417 66.9082 16.291C67.0814 16.0404 67.2113 15.7533 67.2979 15.4297C67.389 15.1016 67.4346 14.7529 67.4346 14.3838V14.2266C67.4346 13.862 67.389 13.5179 67.2979 13.1943C67.2113 12.8662 67.0791 12.5768 66.9014 12.3262C66.7282 12.071 66.5094 11.8704 66.2451 11.7246C65.9854 11.5788 65.68 11.5059 65.3291 11.5059C64.9827 11.5059 64.6774 11.5788 64.4131 11.7246C64.1533 11.8704 63.9346 12.071 63.7568 12.3262C63.5837 12.5768 63.4538 12.8662 63.3672 13.1943C63.2806 13.5179 63.2373 13.862 63.2373 14.2266ZM74.6533 16.7354V12.9277C74.6533 12.6361 74.5941 12.3831 74.4756 12.1689C74.3617 11.9502 74.1885 11.7816 73.9561 11.6631C73.7236 11.5446 73.4365 11.4854 73.0947 11.4854C72.7757 11.4854 72.4954 11.54 72.2539 11.6494C72.0169 11.7588 71.8301 11.9023 71.6934 12.0801C71.5612 12.2578 71.4951 12.4492 71.4951 12.6543H70.2305C70.2305 12.39 70.2988 12.1279 70.4355 11.8682C70.5723 11.6084 70.7682 11.3737 71.0234 11.1641C71.2832 10.9499 71.5931 10.7812 71.9531 10.6582C72.3177 10.5306 72.7233 10.4668 73.1699 10.4668C73.7077 10.4668 74.1816 10.5579 74.5918 10.7402C75.0065 10.9225 75.3301 11.1982 75.5625 11.5674C75.7995 11.932 75.918 12.39 75.918 12.9414V16.3867C75.918 16.6328 75.9385 16.8949 75.9795 17.1729C76.0251 17.4508 76.0911 17.6901 76.1777 17.8906V18H74.8584C74.7946 17.8542 74.7445 17.6605 74.708 17.4189C74.6715 17.1729 74.6533 16.945 74.6533 16.7354ZM74.8721 13.5156L74.8857 14.4043H73.6074C73.2474 14.4043 72.9261 14.4339 72.6436 14.4932C72.361 14.5479 72.124 14.6322 71.9326 14.7461C71.7412 14.86 71.5954 15.0036 71.4951 15.1768C71.3949 15.3454 71.3447 15.5436 71.3447 15.7715C71.3447 16.0039 71.3971 16.2158 71.502 16.4072C71.6068 16.5986 71.764 16.7513 71.9736 16.8652C72.1878 16.9746 72.4499 17.0293 72.7598 17.0293C73.1471 17.0293 73.4889 16.9473 73.7852 16.7832C74.0814 16.6191 74.3161 16.4186 74.4893 16.1816C74.667 15.9447 74.7627 15.7145 74.7764 15.4912L75.3164 16.0996C75.2845 16.291 75.1979 16.5029 75.0566 16.7354C74.9154 16.9678 74.7262 17.1911 74.4893 17.4053C74.2568 17.6149 73.9788 17.7904 73.6553 17.9316C73.3363 18.0684 72.9762 18.1367 72.5752 18.1367C72.0739 18.1367 71.6341 18.0387 71.2559 17.8428C70.8822 17.6468 70.5905 17.3848 70.3809 17.0566C70.1758 16.724 70.0732 16.3525 70.0732 15.9424C70.0732 15.5459 70.1507 15.1973 70.3057 14.8965C70.4606 14.5911 70.6839 14.3382 70.9756 14.1377C71.2673 13.9326 71.6182 13.7777 72.0283 13.6729C72.4385 13.568 72.8965 13.5156 73.4023 13.5156H74.8721ZM82.5693 16.5645V7.5H83.8408V18H82.6787L82.5693 16.5645ZM77.5928 14.3838V14.2402C77.5928 13.6751 77.6611 13.1624 77.7979 12.7021C77.9391 12.2373 78.1374 11.8385 78.3926 11.5059C78.6523 11.1732 78.96 10.918 79.3154 10.7402C79.6755 10.5579 80.0765 10.4668 80.5186 10.4668C80.9834 10.4668 81.389 10.5488 81.7354 10.7129C82.0863 10.8724 82.3825 11.1071 82.624 11.417C82.8701 11.7223 83.0638 12.0915 83.2051 12.5244C83.3464 12.9574 83.4443 13.4473 83.499 13.9941V14.623C83.4489 15.1654 83.3509 15.653 83.2051 16.0859C83.0638 16.5189 82.8701 16.888 82.624 17.1934C82.3825 17.4987 82.0863 17.7334 81.7354 17.8975C81.3844 18.057 80.9743 18.1367 80.5049 18.1367C80.0719 18.1367 79.6755 18.0433 79.3154 17.8564C78.96 17.6696 78.6523 17.4076 78.3926 17.0703C78.1374 16.7331 77.9391 16.3366 77.7979 15.8809C77.6611 15.4206 77.5928 14.9215 77.5928 14.3838ZM78.8643 14.2402V14.3838C78.8643 14.7529 78.9007 15.0993 78.9736 15.4229C79.0511 15.7464 79.1696 16.0312 79.3291 16.2773C79.4886 16.5234 79.6914 16.7171 79.9375 16.8584C80.1836 16.9951 80.4775 17.0635 80.8193 17.0635C81.2386 17.0635 81.5827 16.9746 81.8516 16.7969C82.125 16.6191 82.3438 16.3844 82.5078 16.0928C82.6719 15.8011 82.7995 15.4844 82.8906 15.1426V13.4951C82.8359 13.2445 82.7562 13.0029 82.6514 12.7705C82.5511 12.5335 82.4189 12.3239 82.2549 12.1416C82.0954 11.9548 81.8971 11.8066 81.6602 11.6973C81.4277 11.5879 81.152 11.5332 80.833 11.5332C80.4867 11.5332 80.1882 11.6061 79.9375 11.752C79.6914 11.8932 79.4886 12.0892 79.3291 12.3398C79.1696 12.5859 79.0511 12.873 78.9736 13.2012C78.9007 13.5247 78.8643 13.8711 78.8643 14.2402ZM90.793 8.04688V18H89.4736V8.04688H90.793ZM94.9629 12.5244V13.6045H90.5059V12.5244H94.9629ZM95.6396 8.04688V9.12695H90.5059V8.04688H95.6396ZM98.3945 10.6035V18H97.123V10.6035H98.3945ZM97.0273 8.6416C97.0273 8.43652 97.0889 8.26335 97.2119 8.12207C97.3395 7.98079 97.5264 7.91016 97.7725 7.91016C98.014 7.91016 98.1986 7.98079 98.3262 8.12207C98.4583 8.26335 98.5244 8.43652 98.5244 8.6416C98.5244 8.83757 98.4583 9.00618 98.3262 9.14746C98.1986 9.28418 98.014 9.35254 97.7725 9.35254C97.5264 9.35254 97.3395 9.28418 97.2119 9.14746C97.0889 9.00618 97.0273 8.83757 97.0273 8.6416ZM101.799 7.5V18H100.527V7.5H101.799ZM106.898 18.1367C106.383 18.1367 105.916 18.0501 105.497 17.877C105.082 17.6992 104.725 17.4508 104.424 17.1318C104.128 16.8128 103.9 16.4346 103.74 15.9971C103.581 15.5596 103.501 15.0811 103.501 14.5615V14.2744C103.501 13.6729 103.59 13.1374 103.768 12.668C103.945 12.194 104.187 11.793 104.492 11.4648C104.798 11.1367 105.144 10.8883 105.531 10.7197C105.919 10.5511 106.32 10.4668 106.734 10.4668C107.263 10.4668 107.719 10.5579 108.102 10.7402C108.489 10.9225 108.806 11.1777 109.052 11.5059C109.298 11.8294 109.48 12.2122 109.599 12.6543C109.717 13.0918 109.776 13.5703 109.776 14.0898V14.6572H104.253V13.625H108.512V13.5293C108.493 13.2012 108.425 12.8822 108.307 12.5723C108.193 12.2624 108.01 12.0072 107.76 11.8066C107.509 11.6061 107.167 11.5059 106.734 11.5059C106.447 11.5059 106.183 11.5674 105.941 11.6904C105.7 11.8089 105.493 11.9867 105.319 12.2236C105.146 12.4606 105.012 12.75 104.916 13.0918C104.82 13.4336 104.772 13.8278 104.772 14.2744V14.5615C104.772 14.9124 104.82 15.2428 104.916 15.5527C105.016 15.8581 105.16 16.127 105.347 16.3594C105.538 16.5918 105.768 16.7741 106.037 16.9062C106.311 17.0384 106.62 17.1045 106.967 17.1045C107.413 17.1045 107.792 17.0133 108.102 16.8311C108.411 16.6488 108.683 16.4049 108.915 16.0996L109.681 16.708C109.521 16.9495 109.318 17.1797 109.072 17.3984C108.826 17.6172 108.523 17.7949 108.163 17.9316C107.808 18.0684 107.386 18.1367 106.898 18.1367Z" fill="black"/>
<defs>
<clipPath id="clip0_3640_117811">
<rect width="34" height="24" fill="white"/>
</clipPath>
</defs>
</svg>
