<?xml version="1.0" encoding="UTF-8"?>
<svg id="Layer_1" data-name="Layer 1" xmlns="http://www.w3.org/2000/svg" viewBox="0 0 130.07 146.61">
  <defs>
    <style>
      .cls-1, .cls-2, .cls-3, .cls-4, .cls-5, .cls-6 {
        fill: none;
      }

      .cls-2 {
        stroke: #fcecce;
      }

      .cls-2, .cls-3, .cls-4, .cls-5, .cls-6 {
        stroke-linecap: round;
        stroke-linejoin: round;
        stroke-width: 0px;
      }

      .cls-7 {
        fill: #f2f1f1;
      }

      .cls-8 {
        fill: #f9af33;
      }

      .cls-9 {
        fill: #eee;
      }

      .cls-10 {
        fill: #f4f1eb;
      }

      .cls-11 {
        fill: #f6b13c;
      }

      .cls-12 {
        fill: #f1f1f1;
      }

      .cls-13 {
        fill: #fcecce;
      }

      .cls-14 {
        fill: #fce5b4;
      }

      .cls-15 {
        fill: #434244;
      }

      .cls-16 {
        fill: #414143;
      }

      .cls-17 {
        fill: #424244;
      }

      .cls-3 {
        stroke: #818181;
      }

      .cls-4 {
        stroke: #707171;
      }

      .cls-5 {
        stroke: #717172;
      }

      .cls-6 {
        stroke: #717072;
      }
    </style>
  </defs>
  <path class="cls-1" d="m80.61,32.47h0c.53.69,1.06,1.39,1.59,2.08,0,0,0,0,0,0-.53-.69-1.06-1.39-1.59-2.08Z"/>
  <path class="cls-15" d="m129.99,26.53c0-1.42-.51-2.11-1.76-2.57-3.66-1.36-7.29-2.78-10.94-4.18C100.18,13.25,83.08,6.7,65.96.2c-.73-.28-1.76-.27-2.5,0-7.24,2.7-14.44,5.5-21.66,8.26C28.33,13.61,14.84,18.72,1.41,23.95c-.67.26-1.3,1.59-1.31,2.43-.02,2.31-.04,4.61-.05,6.92-.03,6.92,0,13.84,0,20.76,0,4.78-.07,9.56-.04,14.34.01,1.59.04,3.19.08,4.78.13,4.87.2,9.81,1.08,14.58,3.29,17.83,13.41,31.42,27.47,42.26,9.6,7.4,20.35,12.64,32.11,15.71,1.57.41,3.33,1.15,4.77.79,4.58-1.13,9.19-2.37,13.53-4.17,14.75-6.11,27.58-14.85,37.42-27.71,8.29-10.83,13.01-23.02,13.37-36.54.45-17.18.09-34.38.15-51.57Zm-2.88,50.1h0c-.04.2-.07.39-.11.59-.3,13.82-5.04,26.06-13.57,36.78-10,12.56-23.04,20.95-37.93,26.62-1.45.55-2.98.89-4.38,1.52-7.03,3.15-13.22-.09-19.49-2.53-9.63-3.75-18.27-9.09-26.05-15.96-10.56-9.32-17.93-20.58-21.32-34.22-1.07-4.3-1.23-8.9-1.27-13.37-.15-15.76-.03-31.53-.11-47.29,0-1.71.54-2.52,2.08-3.1,17.89-6.8,35.91-13.28,53.54-20.68,6.1-2.56,10.73-.56,15.84,1.39,12.96,4.94,25.91,9.94,38.85,14.92,4.56,1.76,9.11,3.56,13.93,5.45v49.89Z"/>
  <path class="cls-7" d="m74.32,6.38c-5.11-1.95-9.74-3.95-15.84-1.39C40.85,12.39,22.83,18.87,4.94,25.67c-1.53.58-2.08,1.4-2.08,3.1.08,15.76-.04,31.53.11,47.29.04,4.47.2,9.07,1.27,13.37,3.39,13.64,10.76,24.9,21.32,34.22,7.78,6.87,16.42,12.21,26.05,15.96,6.27,2.44,12.46,5.68,19.49,2.53,1.41-.63,2.94-.97,4.38-1.52,14.89-5.67,27.93-14.06,37.93-26.62,8.54-10.72,13.28-22.96,13.57-36.78.04-.2.07-.39.11-.59h0V26.75c-4.83-1.89-9.37-3.69-13.93-5.45-12.94-4.99-25.89-9.98-38.85-14.92Zm-34.15,92.39h-12.92c-.13-.15-.26-.31-.38-.46,0-7.19,0-14.39.01-21.58.12-.15.25-.3.37-.45h4.43v18.45h8.49v4.04Zm20.37-3.69c-1.8,2.45-4.35,3.42-7.12,3.71-2.17.22-4.39.06-6.59,0-.31,0-.63-.02-.94-.02-.13-.15-.25-.31-.38-.46,0-7.19,0-14.38,0-21.58.13-.15.25-.3.38-.46,3.52.3,7.05.48,10.55.94,3.25.43,5.09,2.83,5.81,5.69,1.05,4.18,1.07,8.39-1.71,12.17Zm18.73,3.72c-.48-1.6-.96-3.21-1.49-4.99-.72,0-1.55,0-2.38,0-4.02,0-3.98.02-5.42,3.67-.23.58-1.03,1.19-1.66,1.31-1.13.21-2.33.06-3.7.06,1.56-5.12,3.09-10.12,4.62-15.12.36-1.17.64-2.37,1.06-3.52,1.74-4.83.29-3.85,5.47-4.04,1.29-.05,1.97.4,2.33,1.59,2.09,6.96,4.2,13.91,6.35,21.05h-5.18Zm5.75-57.18c-.28.62-1.73,1.41-2.08,1.19-3.18-1.93-4.31-.05-5.04,2.73-1.51-.57-2.87-1.09-4.16-1.57-1.24,1.44-2.33,2.92-3.66,4.15-.6.55-1.65.64-2.51.88-2.59.74-4.54,1.63-5.38,4.86-2.63,10.12-16.41,13.47-22.89,7.15-4.08-3.98-6.33-8.34-5.37-13.82.45-2.57,1.91-5.22,3.59-7.28,1.46-1.8,3.06-3.07,4.77-3.91.51-.25,1.04-.46,1.57-.64.36-.12.71-.22,1.08-.3,3.09-.71,6.46-.26,9.97.97.33.15.66.31.99.46.34.32.67.64,1.01.95,1.89.93,3.61.77,5.28.26s3.28-1.37,4.95-1.83c.23-.06.6.38.9.59,4.19-1.34,8.39-2.67,12.58-4.01.57-.25,1.14-.52,1.71-.79,2.46-1.17,4.92-2.34,7.85-1.66,1.62-.2,2,.16,2.52,2.39.96.22,1.93.43,3.14.7-.97,2.16-1.7,3.88-2.5,5.57-1.25,2.61-2.11,3.08-4.6,1.67-2.04-1.16-2.84-.61-3.69,1.27Zm18.97,42.65c-1.3,5.09-3.74,6.99-9.03,7.02-.66,0-1.32,0-2.19,0v7.47h-3.49c-.37,0-.74,0-1.1,0-.12-.15-.25-.3-.37-.46,0-7.19,0-14.39,0-21.58.13-.15.25-.3.38-.46,3.55.14,7.11.14,10.65.47,3.51.32,6.03,4.17,5.17,7.53Z"/>
  <path class="cls-3" d="m127,77.23c.04-.2.07-.39.11-.59"/>
  <path class="cls-8" d="m93.33,38.67c.81-1.68,1.53-3.4,2.5-5.57-1.22-.27-2.18-.49-3.14-.7-.36.32-.67.79-1.09.94-5.9,2.01-11.83,3.97-17.73,5.96-2.95,1-5.87,2.1-8.83,3.04-.42.13-1.03-.38-1.56-.59,0-.24.01-.47.02-.71,6.24-2.17,12.47-4.33,18.71-6.5-.53-.69-1.06-1.39-1.59-2.08h0c-4.19,1.34-8.39,2.67-12.58,4.01-2.84,1-5.64,2.16-8.55,2.88-.66.16-1.71-1.22-2.58-1.89-.34-.32-.67-.64-1.01-.95-.33-.15-.66-.31-.99-.46-3.51-1.23-6.88-1.68-9.97-.97-.36.08-.72.18-1.08.3-.53.17-1.06.39-1.57.64-1.71.84-3.31,2.11-4.77,3.91-1.68,2.06-3.13,4.71-3.59,7.28-.96,5.48,1.29,9.84,5.37,13.82,6.48,6.32,20.26,2.98,22.89-7.15.84-3.23,2.79-4.12,5.38-4.86.86-.24,1.92-.33,2.51-.88,1.33-1.23,2.42-2.71,3.66-4.15,1.29.49,2.65,1,4.16,1.57.74-2.79,1.86-4.67,5.04-2.73.35.21,1.8-.57,2.08-1.19.85-1.88,1.65-2.42,3.69-1.27,2.5,1.41,3.35.94,4.6-1.67Zm-48.21,13.14c-.41,1.28-2.04,2.88-3.28,2.99-1.69.16-2.76-1.37-2.55-3.43.2-2.05,1.03-2.84,4.05-2.75.53.88,2.05,2.33,1.77,3.19Z"/>
  <path class="cls-16" d="m56.44,77.21c-3.5-.46-7.03-.64-10.55-.94-.13.15-.25.3-.38.46,0,7.19,0,14.38,0,21.58.13.15.25.31.38.46.31,0,.63,0,.94.02,2.2.06,4.42.22,6.59,0,2.77-.29,5.33-1.26,7.12-3.71,2.78-3.78,2.76-7.99,1.71-12.17-.72-2.87-2.56-5.26-5.81-5.69Zm.41,14.64c-1.18,2.33-3.51,3.31-6.35,2.86v-14.53c2.32.43,4.79.14,6.18,2.55,1.73,2.99,1.64,6.2.17,9.12Z"/>
  <path class="cls-17" d="m75.78,76.16c-5.18.19-3.73-.79-5.47,4.04-.42,1.15-.7,2.35-1.06,3.52-1.53,5-3.06,10.01-4.62,15.12,1.37,0,2.57.15,3.7-.06.63-.12,1.43-.73,1.66-1.31,1.44-3.65,1.39-3.67,5.42-3.67.83,0,1.65,0,2.38,0,.53,1.78,1.01,3.39,1.49,4.99h5.18c-2.16-7.14-4.26-14.09-6.35-21.05-.36-1.19-1.03-1.63-2.33-1.59Zm-3.71,13.5c.71-2.7,1.4-5.33,2.09-7.97.23.03.47.06.7.09.62,2.57,1.25,5.14,1.91,7.88h-4.7Z"/>
  <path class="cls-16" d="m98.83,76.74c-3.53-.32-7.1-.32-10.65-.47-.13.15-.25.3-.38.46,0,7.19,0,14.39,0,21.58.12.15.25.3.37.46.37,0,.73,0,1.1,0h3.49v-7.47c.87,0,1.53,0,2.19,0,5.29-.04,7.73-1.93,9.03-7.02.86-3.36-1.66-7.21-5.17-7.53Zm-.11,8.66c-1.17,2.61-3.65,1.81-5.92,1.81v-6.96c2.13.18,4.55-.92,5.84,1.5.52.98.54,2.63.08,3.65Z"/>
  <path class="cls-16" d="m31.69,76.27h-4.43c-.12.15-.25.3-.37.45,0,7.19,0,14.39-.01,21.58.13.15.26.31.38.46h12.92v-4.04h-8.49v-18.45Z"/>
  <path class="cls-14" d="m82.2,34.55s0,0,0,0c-6.24,2.17-12.47,4.33-18.71,6.5,0,.24-.01.47-.02.71.52.21,1.14.72,1.56.59,2.97-.94,5.88-2.04,8.83-3.04,5.91-2,11.83-3.95,17.73-5.96.42-.14.73-.62,1.09-.94-.52-2.22-.9-2.59-2.52-2.39.27.4.54.8,1.03,1.53-3.12,1.04-6.06,2.01-9,2.99Z"/>
  <path class="cls-11" d="m82.2,34.55c2.94-.98,5.89-1.96,9-2.99-.49-.73-.76-1.13-1.03-1.53-2.93-.68-5.39.48-7.85,1.66-.57.27-1.14.54-1.71.79h0c.53.69,1.06,1.39,1.59,2.08Z"/>
  <path class="cls-13" d="m59.48,39.35c2.91-.72,5.71-1.88,8.55-2.88-.3-.21-.67-.66-.9-.59-1.67.47-3.29,1.32-4.95,1.83s-3.38.67-5.28-.26c.87.67,1.92,2.06,2.58,1.89Z"/>
  <path class="cls-2" d="m55.89,36.5c-.33-.15-.66-.31-.99-.46"/>
  <path class="cls-6" d="m27.26,76.27c-.12.15-.25.3-.37.45"/>
  <path class="cls-5" d="m45.89,76.27c-.13.15-.25.3-.38.46"/>
  <path class="cls-4" d="m88.18,76.27c-.13.15-.25.3-.38.46"/>
  <path class="cls-6" d="m27.26,98.77c-.13-.15-.26-.31-.38-.46"/>
  <path class="cls-5" d="m45.51,98.3c.13.15.25.31.38.46"/>
  <path class="cls-4" d="m87.81,98.3c.12.15.25.3.37.46"/>
  <path class="cls-10" d="m39.29,51.37c-.21,2.06.86,3.59,2.55,3.43,1.24-.12,2.86-1.72,3.28-2.99.28-.87-1.24-2.31-1.77-3.19-3.03-.09-3.85.7-4.05,2.75Z"/>
  <path class="cls-12" d="m50.5,80.18v14.53c2.84.45,5.17-.53,6.35-2.86,1.47-2.92,1.56-6.13-.17-9.12-1.39-2.41-3.86-2.12-6.18-2.55Z"/>
  <path class="cls-9" d="m74.16,81.68c-.69,2.64-1.38,5.28-2.09,7.97h4.7c-.67-2.75-1.29-5.32-1.91-7.88-.23-.03-.47-.06-.7-.09Z"/>
  <path class="cls-12" d="m92.81,80.24v6.96c2.27,0,4.75.8,5.92-1.81.46-1.03.44-2.67-.08-3.65-1.29-2.42-3.71-1.32-5.84-1.5Z"/>
</svg>