<?xml version="1.0" encoding="UTF-8"?>
<svg id="Layer_1" data-name="Layer 1" xmlns="http://www.w3.org/2000/svg" viewBox="0 0 190.27 43.53">
  <defs>
    <style>
      .cls-1 {
        fill: #2d2e75;
      }
    </style>
  </defs>
  <path class="cls-1" d="m108.65,38.13s-.07,0-.11,0h0s.08,0,.11,0Z"/>
  <path class="cls-1" d="m2.29,36.33c.13-.02.25-.05.38-.09.28-.08.55-.17.82-.26.14-.05.27-.09.41-.14.08-.04.17-.08.25-.13.17-.09.33-.17.51-.25.09-.04.17-.08.26-.11,2.05-.76,4.16-1.32,6.29-1.76.29-.06.59-.1.89-.14.46-.07.93-.15,1.39-.21.67-.09,1.34-.19,2.02-.23,1.09-.07,2.18-.11,3.27-.16.61.03,1.23.05,1.84.08.2-.03.4-.09.61-.09.52.01,1.05.05,1.57.07.16,0,.32-.02.47,0,.63.07,1.25.16,1.88.25.65.09,1.3.19,1.95.3.49.08.98.17,1.47.26.27,0,.53,0,.8,0q.7-.13.71-.83c0-.11,0-.21,0-.32,0-7.8,0-15.6,0-23.4,0-.45-.01-.89-.02-1.34-.01-.03-.03-.06-.04-.09-.1-.3-.36-.36-.61-.29-.14.04-.26.24-.34.39-.11.21-.15.46-.26.68-.81,1.59-1.63,3.18-2.46,4.75-1.04,1.96-2.35,3.74-3.7,5.49-.52.68-1.09,1.32-1.63,1.98-.07.08-.13.16-.2.24-.01,0-.02.01-.03.03-.29.28-.59.55-.85.85-.1.12-.14.3-.2.45-.01.11-.03.21-.04.32,0,.33,0,.66,0,.98,0,.33,0,.66,0,.98,0,1.35.02,2.7.04,4.05,0,.63,0,1.26,0,1.88,0,.06.01.12.02.18-.03.45-.31.65-.72.7-.34.04-.68.05-1.02.09-.67.07-1.35.13-2.02.22-.77.1-1.54.23-2.32.34-.01,0-.02.01-.04.01-.12.04-.24.08-.36.11-.03,0-.05-.01-.08-.02-.04,0-.09.02-.13.02-.56.14-1.11.28-1.67.42-.27.08-.55.14-.82.23-1.21.4-2.42.8-3.62,1.21-.59.21-1.17.46-1.75.69-.03.02-.07.04-.1.06h0c-.15.05-.31.09-.46.13-.02.02-.04.04-.06.07,0,0-.01.02-.02.02-.03.05-.07.09-.11.13-.02.02-.05.04-.07.05-.19.09-.39.17-.59.26-.2.08-.4.16-.59.24-.11.05-.22.1-.33.16,0,0,0,0-.02,0h-.02s-.04,0-.04,0c-.29.18-.58.36-.88.55-.21.03-.43.05-.64.08.21-.03.43-.05.64-.08.13-.03.25-.05.38-.07Z"/>
  <path class="cls-1" d="m173.91,23.13c-.04.08-.08.16-.09.24.02-.08.06-.16.09-.24Z"/>
  <path class="cls-1" d="m65.12,3.43l.15.04c-.06.35-.12.69-.18,1.03.03.11.05.21.08.32-.02.05-.04.11-.07.16,0,.1-.01.21-.02.31.02.11.03.21.05.32-.03,0-.07,0-.1,0,0,.13,0,.26,0,.39h0s.04,0,.04,0h.04c0,3.3,0,6.59,0,9.89,0,.05,0,.1,0,.16-.02,0-.04.02-.06.03.02.02.04.04.06.06-.02.16-.02.33-.06.49-.03.1-.02.18.02.22.04.05.11.07.2.08.45,0,.9,0,1.35,0,.3-.07.38-.28.3-.69-.03-.14-.01-.29,0-.44,0-.05,0-.1,0-.15,0-4.57,0-9.14,0-13.71,0,4.57,0,9.14,0,13.71-.02-.12-.07-.25-.07-.37,0-4.37,0-8.74,0-13.1,0-.13.03-.26.05-.38,0-.06,0-.13,0-.19,0-.06,0-.13,0-.19,0-.09-.01-.17-.02-.26-.02,0-.03-.02-.05-.03-.03-.02-.07-.04-.1-.05-.02,0-.03,0-.05-.01-.6-.01-1.2-.02-1.8-.02-.03,0-.07.02-.1.03-.03.03-.06.05-.1.08-.1.08-.2.16-.27.26-.07.1-.06.25-.11.37-.58,1.31-1.17,2.61-1.76,3.91-.62,1.38-1.25,2.75-1.87,4.13-.62,1.38-1.25,2.76-1.9,4.2-.06-.08-.16-.17-.21-.28-.09-.2-.16-.41-.24-.62-.35-.84-.69-1.67-1.04-2.51-.96-2.29-2.1-4.51-2.95-6.85-.32-.87-.78-1.69-1.18-2.53-.03-.07-.14-.11-.21-.16-.04,0-.07-.02-.11-.03-.1,0-.2.01-.31.02-.53,0-1.06-.02-1.59-.03-.08,0-.15.02-.23.02-.03.01-.06.03-.09.04,0,.24,0,.47-.01.71,0,.24,0,.47,0,.71h0c0,.92.01,1.84.01,2.77,0,3.86,0,7.72,0,11.59.43.04.85.08,1.27.12.4.07.48-.12.48-.49-.02-1.74,0-3.48-.02-5.22-.01-2.11-.04-4.21-.06-6.32,0-.14.04-.27.06-.41v-1.11c.41.3.28.73.36,1.09.06.07.1.15.13.22.03.08.06.16.08.24.02.08.05.17.08.25.03.08.07.17.12.25.42.67.68,1.43,1,2.16.43.97.84,1.94,1.27,2.9.43.96.87,1.92,1.31,2.88.51,1.11,1.03,2.23,1.55,3.34.02.02.04.03.05.05,0,0,0,0,0,0h0s.06.05.08.07c.24,0,.47,0,.71,0,.34-.69.71-1.38,1.03-2.08.55-1.23,1.06-2.47,1.61-3.7.43-.97.9-1.93,1.33-2.9.32-.72.62-1.45.95-2.17.24-.52.5-1.04.75-1.56.11-.36.22-.72.33-1.08Z"/>
  <path class="cls-1" d="m133.98,16.94c.95.42,1.89.32,2.83.03.12-.04.27-.22.29-.35.04-.33.02-.66,0-.99,0-.07-.06-.15-.12-.21-.02-.02-.11.05-.16.06-.4.08-.82.28-1.19.22-.94-.16-1.4-.83-1.4-1.82,0-2.08,0-4.16,0-6.24,0-.15.06-.29.09-.44.08-.02.15-.05.23-.07.56,0,1.12,0,1.67,0,.26-.01.53-.02.79-.03.02-.46.04-.93.06-1.39-.05-.01-.1-.02-.15-.03-.77,0-1.53-.02-2.3-.02-.26,0-.42-.06-.37-.36,0-.03,0-.05,0-.08v-2.95c-.52.16-.96.3-1.4.41-.29.07-.45.21-.46.43,0,.04,0,.08,0,.12,0,.04.02.09.03.14,0,.06,0,.12.01.19,0,.07,0,.15,0,.22,0,.03,0,.06,0,.1,0,.05,0,.1,0,.14,0,.06,0,.12,0,.17,0,.23,0,.46,0,.7,0,.03,0,.06,0,.09,0,.07,0,.15,0,.22,0,.03,0,.06,0,.1v.22s-.09.06-.14.09c-1.49,0-2.97,0-4.46,0-.04-.03-.08-.05-.12-.08-.01-.52-.01-1.05-.04-1.57-.03-.67.14-1.26.49-1.85.29-.49,1.2-.75,1.61-.68.33.06.66.15,1,.23,0-.36-.05-.72.01-1.07.04-.22,0-.37-.12-.49-.04-.04-.09-.08-.14-.11-.61.02-1.22.04-1.84.06-.13.03-.26.06-.39.08-.03.02-.06.05-.1.07-1.31.44-1.97,1.44-2.19,2.72-.03.2-.05.4-.07.6-.01.2-.01.41-.01.61,0,.1,0,.2,0,.31,0,.31.01.62,0,.92v.09c-.06.02-.12.04-.17.06-.17.07-.33.14-.5.16-.41.04-.83.01-1.26.01v1.42c.4,0,.79.01,1.19.02.28-.05.53,0,.72.22,0,.03.02.06.02.09,0,.18,0,.36,0,.54,0,.03,0,.06,0,.09,0,1.26,0,2.53,0,3.79,0,1.59,0,3.18-.02,4.78,0,.3.06.47.4.3.04-.02.1,0,.16,0,.21,0,.42,0,.64,0,.11,0,.21,0,.32,0,.05,0,.1,0,.15,0,.03-.15.08-.3.08-.45,0-1.8,0-3.6,0-5.4,0-1.2.01-2.39.02-3.59-.08-.31.07-.4.35-.4,1.07,0,2.14.01,3.21.01.16,0,.32,0,.48,0,.21,0,.42,0,.63,0h0c.02.13.04.26.06.39-.02-.03-.04-.06-.05-.09.02.03.04.06.05.09,0,2.08,0,4.16,0,6.24,0,.16.02.32.03.49.03.28.05.57.11.84.16.84.56,1.49,1.39,1.85Z"/>
  <path class="cls-1" d="m61.97,24.8c-.86-.99-1.91-1.7-3.14-2.05-1-.28-2.08-.31-3.13-.45-.11,0-.21.02-.32.03-.14,0-.29-.01-.43-.01-1.16,0-2.31-.01-3.47-.02-.24.01-.47.02-.71.03-.09.01-.14.03-.16.06s0,.05.01.08c0,.02.02.03.04.05.04.05.08.09.06.13,0,.28-.01.55-.01.83-.02,4.85-.04,9.69-.05,14.54,0,.05.07.09.11.14h5.17c.3-.06.61-.14.91-.17,1.28-.16,2.43-.66,3.49-1.37,1.47-.99,2.38-2.37,2.83-4.05.34-1.27.4-2.57.25-3.88-.16-1.42-.48-2.75-1.46-3.89Zm-1.17,8.9c-.61.89-1.37,1.62-2.32,2.14-.8.22-1.6.49-2.42.65-.52.1-1.08.06-1.62.06-.45,0-.9,0-1.35,0-.43,0-.57-.13-.57-.55,0-3.64,0-7.28,0-10.91,0-.26-.03-.53,0-.79.02-.13.14-.24.22-.35l.11-.02c1.03.01,2.06,0,3.09.05.66.03,1.31.17,1.97.26.07.04.13.1.2.11.95.24,1.68.79,2.27,1.55.23.3.43.63.64.94.38.97.62,1.97.64,3.01.02,1.35-.29,2.63-.87,3.85Z"/>
  <path class="cls-1" d="m115.76,32.63c0-.52,0-1.05-.02-1.57-.01-.68-.18-1.35-.27-2.02-.25-.9-.72-1.62-1.6-2.03-.14-.06-.28-.15-.43-.18-.96-.21-1.93-.28-2.87.03-.77.25-1.49.63-1.88,1.43-.1.21-.3.37-.51.62-.12-.21-.19-.36-.29-.51-.21-.32-.38-.7-.66-.95-.93-.83-2.08-.89-3.24-.71-.49.08-1.02.17-1.4.59-.27.3-.53.59-.83.87-.12.11-.3.15-.45.22-.02-.14-.05-.28-.05-.42,0-.35,0-.7,0-1.1h-1.73c0,.13,0,.27,0,.42,0,3.04.02,6.09.01,9.13,0,.49-.06.99-.09,1.48-.02.21.06.32.29.32.42,0,.85.01,1.27-.01.1,0,.2-.15.3-.23,0-.05,0-.1,0-.15,0-1.89,0-3.79-.02-5.68,0-.64.02-1.26.23-1.88.31-.89.8-1.64,1.71-1.98.39-.15.85-.11,1.28-.1.93,0,1.53.57,1.86,1.35.23.54.28,1.15.4,1.73,0,1.4.02,2.79.02,4.19,0,.55,0,1.11,0,1.66,0,.16-.06.32-.09.48.04.23-.14.6.26.62.39.02.78-.01,1.17-.04.13,0,.26-.02.39-.03h0c0-1.82,0-3.64,0-5.46,0-.16,0-.32.01-.47.02-.47-.01-.95.08-1.4.33-1.76,1.68-2.83,3.35-2.64.51.06.96.32,1.31.77.59.77.58,1.66.65,2.53.05.72,0,1.45.01,2.17,0,1.29.02,2.58.03,3.87,0,.06-.01.11-.02.17h0c0,.15,0,.31,0,.46.24.03.47.07.71.1.37-.03.74-.05,1.1-.08v-.72s0-.07-.01-.1c0-1.57.01-3.14,0-4.71Z"/>
  <path class="cls-1" d="m158.48,22.68c-.19-.17-.49-.23-.76-.28-.41-.08-.83-.09-1.23-.19-1.39-.32-2.77-.13-4.12.2-1.23.3-2.25,1.04-3.17,1.91-1.05.98-1.73,2.2-2.1,3.53-.31,1.1-.45,2.26-.3,3.45.16,1.19.33,2.33.9,3.41.49.93,1.13,1.7,1.98,2.31,1.12.81,2.38,1.27,3.74,1.45.58,0,1.17,0,1.75,0,.06-.03.11-.08.17-.09.98-.05,1.93-.27,2.85-.59.19-.07.43-.32.45-.5.04-.47-.04-.95-.07-1.45-.5.21-.97.48-1.47.62-1.31.36-2.61.55-3.99.2-1.14-.3-2.11-.82-2.86-1.67-.95-1.08-1.51-2.35-1.54-3.81,0-.45,0-.9,0-1.36.02-.13.03-.25.04-.38.01-.13.02-.25.03-.38.02-.25.06-.5.13-.75.61-2.16,1.91-3.73,4.1-4.4,1.14-.34,2.35-.32,3.5-.05.64.15,1.35.21,1.88.71.04.03.16.02.21-.02.05-.04.07-.13.07-.21,0-.34.01-.69-.02-1.03-.02-.22-.03-.52-.17-.64Z"/>
  <path class="cls-1" d="m123.27,9.66c-.23-2.06-1.85-4.02-4.32-4.22-1.09-.09-2.14-.05-3.18.29-1.35.44-2.31,1.34-2.92,2.57-.48.97-.67,2.05-.66,3.16.04.47.03.95.13,1.4.29,1.28.91,2.38,1.94,3.23.86.71,1.86,1.08,2.95,1.16,1.19.08,2.38-.03,3.41-.71.54-.36,1.08-.74,1.52-1.21.93-1.02,1.22-2.31,1.28-3.63.03-.67-.07-1.35-.15-2.02Zm-3.56,5.63c-1.79.97-4.13.41-5.17-1.58-.37-.72-.57-1.48-.5-2.18-.03-1.51.33-2.76,1.36-3.76.61-.6,1.34-.86,2.2-.9,1.1-.06,2.08.15,2.86.95.63.65,1.02,1.43,1.06,2.35.03.56.08,1.12.08,1.68-.02,1.47-.52,2.7-1.89,3.44Z"/>
  <path class="cls-1" d="m102.22,13.26c.12-.46.19-.93.29-1.4,0-.45,0-.9,0-1.35-.08-.45-.14-.9-.25-1.34-.41-1.52-1.23-2.75-2.76-3.35-1.04-.41-2.12-.54-3.26-.4-1.23.15-2.29.53-3.21,1.4-.95.9-1.51,1.97-1.65,3.22-.1.85-.02,1.71,0,2.57.02.77.3,1.47.71,2.1,1.06,1.63,2.57,2.49,4.54,2.51.4,0,.81-.02,1.21-.08.64-.09,1.26-.21,1.83-.56,1.28-.79,2.18-1.87,2.55-3.34Zm-4.61,2.41c-1.64.25-2.89-.31-3.83-1.62-.47-.66-.57-1.44-.67-2.21-.17-1.39.12-2.66,1.03-3.74.7-.83,1.6-1.32,2.73-1.22,1.11-.07,2.05.26,2.81,1.09.53.58.76,1.3.89,2.04.17.98.14,1.97-.06,2.96-.27,1.39-1.49,2.49-2.9,2.71Z"/>
  <path class="cls-1" d="m96.46,29.19c-.16-.85-1.01-2.05-2.03-2.31-.85-.22-1.69-.21-2.54-.21-.26,0-.52-.02-.76.04-.36.09-.69.28-1.04.37-1.16.32-1.24.38-1.29,1.24,0,.11,0,.21,0,.32,0,.11,0,.21,0,.32l.18.41c.55-.32,1.08-.69,1.66-.95.81-.37,1.7-.36,2.56-.23,1,.15,1.91,1.65,1.66,2.65-.03.1-.15.23-.26.25-.5.1-1,.17-1.5.25-.96.16-1.93.29-2.88.49-.75.16-1.39.56-1.87,1.18-.64.82-.78,1.76-.65,2.76.11.88.58,1.54,1.28,2.05.57.42,1.24.55,1.91.61,1.25.12,2.37-.16,3.24-1.12.2-.22.39-.46.59-.69l.12.04v1.56c.55,0,1.04.02,1.53-.01.11,0,.2-.19.31-.29,0-.03,0-.07-.01-.1,0-.55,0-1.09,0-1.64,0-.55,0-1.09,0-1.64-.04-1.78.14-3.57-.19-5.35Zm-1.58,3.73c-.1.53-.03,1.1-.13,1.63-.25,1.21-1.07,1.94-2.2,2.31-.68.22-1.39.22-2.05-.15-.35-.39-.69-.79-1.04-1.18.01-.21,0-.42.02-.63,0-.21.03-.42.09-.61.1-.31.38-.6.65-.81.47-.36,1.03-.54,1.64-.61.89-.09,1.77-.23,2.66-.35.29-.04.45,0,.37.4Z"/>
  <path class="cls-1" d="m72.8,27.39c-.18.71-.48,1.38-.73,2.07-.44,1.17-.88,2.34-1.32,3.51-.28.76-.56,1.53-.84,2.29-.11.31-.24.61-.41,1.04-.16-.23-.28-.36-.34-.52-.09-.23-.12-.48-.2-.7-.35-1-.71-1.99-1.07-2.99-.43-1.2-.85-2.4-1.28-3.6-.17-.55-.35-1.11-.51-1.62h-2.05c.09.21.17.4.25.59.08.19.16.37.23.56.19.49.37.99.56,1.48.19.49.38.99.57,1.48.35.88.74,1.75,1.1,2.63.52,1.3,1.02,2.61,1.54,3.91.18.44.26.85,0,1.32-.32.57-.55,1.18-.82,1.78-.44.97-1.2,1.41-2.26,1.43-.26,0-.55-.35-.73-.04-.12.22-.05.57-.04.85,0,.14.03.29.09.41.07.11.2.19.3.28.48-.02.96-.05,1.43-.07h0c.25-.09.51-.16.76-.26,1.14-.49,1.79-1.44,2.3-2.49.32-.67.5-1.4.77-2.1.42-1.08.87-2.16,1.3-3.23.78-1.94,1.57-3.88,2.35-5.81.35-.86.7-1.73,1.04-2.57-.44-.03-.89-.05-1.33-.09-.37-.03-.57.06-.68.49Z"/>
  <path class="cls-1" d="m85.63,35.06c0-.46.07-.91.07-1.37,0-.75-.04-1.49-.07-2.24-.02-.58.01-1.17-.09-1.73-.24-1.34-.95-2.77-2.74-3.01-.66-.09-1.37-.12-2.01.02-.94.21-1.77.7-2.32,1.55-.05.08-.23.12-.34.1-.06-.01-.13-.18-.13-.28-.02-.39,0-.78,0-1.17h-1.69v11.28c.55,0,1.04,0,1.53,0,.06,0,.11-.09.17-.14.01-.03.02-.06.04-.09,0-.05,0-.1,0-.15,0-.03,0-.06,0-.09,0-2.13,0-4.27,0-6.4v-.09c.02-1.47,1.53-3.47,3.64-3.1,1.02.18,1.91.94,2.06,1.97.08.58.16,1.18.17,1.76.03,1.95.03,3.9.04,5.85,0,.15,0,.31,0,.49.48,0,.9-.02,1.32,0,.36.03.46-.11.45-.45-.04-.9-.07-1.81-.08-2.72Z"/>
  <path class="cls-1" d="m138.02,32.52c-.89-.48-1.82-.9-2.72-1.37-.55-.29-.79-.8-.81-1.38-.01-.59.29-1.06.81-1.34,1.21-.63,2.34-.34,3.43.34.08.05.19.09.28.06.05-.01.09-.15.09-.23,0-.11.01-.22.01-.33,0-.11,0-.22,0-.34.04-.08.08-.16.12-.24-.04.08-.09.16-.12.24,0-.29-.01-.58-.02-.87l-.39-.16c-.38-.06-.77-.13-1.15-.17-.87-.1-1.74-.18-2.57.16-1.03.41-1.8,1.05-2.17,2.17-.36,1.1.11,2.69,1.07,3.21.52.29,1.03.58,1.55.87.58.32,1.18.61,1.73.97.82.54.91,1.68.25,2.32-.5.49-1.2.63-1.87.58-.92-.08-1.81-.34-2.56-.94-.08-.07-.18-.11-.32-.19,0,.25,0,.42,0,.59,0,.28.1.62-.03.82-.26.39,0,.49.24.62.2.11.42.17.64.23.22.06.43.12.65.17.22.05.44.11.65.16.01.01.03.03.04.04-.01-.01-.03-.03-.04-.04.4,0,.8,0,1.19,0,.35-.08.7-.17,1.06-.25,2.15-.51,2.77-2,2.49-3.78-.14-.91-.75-1.51-1.52-1.93Z"/>
  <path class="cls-1" d="m104.4,16.77c.41.13.82.28,1.24.37,1.05.22,2.11.14,3.11-.22,1.16-.43,2.31-1.42,2.19-3.14-.06-.86-.29-1.59-1.04-2.08h0s0,0,0,0c-.24-.15-.47-.3-.71-.45-.24-.15-.47-.29-.72-.43-.71-.4-1.44-.77-2.16-1.15-.4-.36-.61-.87-.53-1.36.11-.7.65-1.14,1.32-1.35.69-.22,1.4-.09,2.07.12.41.13.79.37,1.23.58.02-.19.04-.37.07-.54,0-.42-.01-.84-.02-1.26-.11-.05-.23-.1-.34-.15-.24-.04-.47-.08-.71-.12-.24-.04-.47-.08-.71-.14-.95-.21-1.85,0-2.71.34-.95.37-1.58,1.08-1.87,2.08-.25.88-.07,1.69.39,2.43.41.66,1.07,1.05,1.75,1.4.74.38,1.49.76,2.2,1.2.27.17.58.47.63.75.17,1.02-.18,1.75-1.33,2-1.28.28-2.43-.08-3.48-.83-.07-.05-.18-.07-.27-.1-.01.1-.04.2-.04.31,0,.35.08.71.02,1.05-.07.42-.04.55.4.69Z"/>
  <path class="cls-1" d="m82.3,16.77c.36-.13.6-.31.55-.76-.04-.38,0-.76,0-1.22-.19.11-.33.19-.47.27-1.92,1.1-3.77.91-5.21-.67-.78-.86-1.06-1.9-1.02-3.06.06-1.37.46-2.59,1.5-3.53.85-.77,1.88-1.07,3.01-.91.67.09,1.34.25,1.89.68.07.05.16.06.29.11,0-.58.03-1.12-.02-1.65-.01-.15-.26-.29-.43-.4-.09-.05-.23,0-.35-.02-.91-.19-1.82-.28-2.76-.16-1.21.16-2.29.59-3.16,1.45-.79.79-1.3,1.76-1.54,2.85-.1.49-.14.99-.17,1.49-.03.55-.11,1.13.02,1.66.19.79.51,1.55,1.01,2.22,1.02,1.39,2.41,2.03,4.1,2.13.96.06,1.86-.16,2.75-.48Z"/>
  <path class="cls-1" d="m126.01,29.03c1.11-1.04,2.46-1.17,3.87-.72.48.15.93.41,1.44.64-.03-.38-.07-.78-.08-1.17-.01-.67,0-.67-.65-.88-.95-.31-1.93-.27-2.9-.22-1.37.07-2.52.71-3.42,1.68-1.21,1.3-1.64,2.94-1.61,4.67.02.84.17,1.7.61,2.48.56,1,1.23,1.88,2.31,2.34.59.26,1.22.42,1.84.62.45,0,.9,0,1.35,0,.06-.03.11-.08.17-.09.71-.05,1.39-.2,2.01-.56.12-.07.26-.23.27-.35.03-.4.01-.81.01-1.28-.19.07-.33.12-.47.18-1,.39-1.97.82-3.11.54-1.33-.32-2.25-1.08-2.77-2.29-.38-.87-.5-1.78-.33-2.74.19-1.11.65-2.08,1.46-2.84Z"/>
  <path class="cls-1" d="m90.19,7.12c.25.06.5.17.84.29,0-.62,0-1.21-.01-1.79,0-.04-.15-.08-.22-.12-.03-.01-.07-.03-.1-.04-.45.01-.9-.03-1.33.04-.94.16-1.53.77-1.97,1.57-.12.23-.31.42-.46.63-.04-.02-.08-.05-.12-.07.04-.64.08-1.29.12-1.93h-1.69s-.06.04-.08.07c-.02.14-.05.28-.05.43,0,3.53,0,7.07,0,10.6,0,.05.09.1.14.14.55,0,1.11-.01,1.66-.02,0-1.86,0-3.72,0-5.57,0-.14.01-.29.02-.43-.05-.85.11-1.66.54-2.39.64-1.09,1.55-1.69,2.73-1.4Z"/>
  <path class="cls-1" d="m72.01,5.63c-.46.02-.93.03-1.39.06-.1,0-.2.08-.3.13l-.03.11c0,.93,0,1.87,0,2.8,0,2.63,0,5.25,0,7.88.01.09.03.18.04.27,0,.02.01.04.02.05.32,0,.64,0,.96.01.05,0,.11,0,.16,0,.03.02.05.04.08.05q.55,0,.55-.52c0-2.23,0-4.45,0-6.68,0-1.34-.01-2.69-.02-4.03-.02-.05-.04-.09-.06-.14Z"/>
  <path class="cls-1" d="m120.42,27.22s0-.05,0-.08c-.06-.08-.12-.22-.18-.22-.51,0-1.01.03-1.52.06-.01.06-.03.11-.04.17,0,.14-.02.29-.02.43,0,3.44-.01,6.89-.02,10.33.02.09.04.18.06.27.45.02.89.02,1.34.06.29.02.36-.11.36-.37,0-1.11,0-2.21,0-3.32,0-2.44,0-4.88.01-7.31Z"/>
  <path class="cls-1" d="m71,3.02c.94.02,1.34-.33,1.34-1.17.08-.86-.52-1.13-1.1-1.12-.77,0-1.19.26-1.21,1.25,0,.46.53,1.03.96,1.04Z"/>
  <path class="cls-1" d="m119.49,21.99c-.6,0-1.06.54-1.07,1.19,0,.63.71,1.14,1.22,1.09.61-.05,1.09-.41,1.09-1.21,0-.69-.45-1.08-1.24-1.07Z"/>
  <path class="cls-1" d="m169.59,33.9c-.32-.66-.69-1.3-1.03-1.94-.32-.35-.63-.69-.96-1.05,2.95-1.04,3.88-3.13,3.09-6.06-.18-.55-.49-1-.9-1.35-.24-.21-.53-.39-.84-.53-.3-.16-.61-.28-.93-.38-.53-.16-1.08-.24-1.63-.26-1.38-.04-2.76-.01-4.14-.01-.28,0-.57,0-.87,0,0,.18,0,.31,0,.44,0,4.81,0,9.62,0,14.44,0,.26-.07.51-.06.77,0,.09.13.25.2.25.48.02.95.03,1.43,0,.09,0,.25-.19.25-.3,0-2-.01-4.01-.02-6.01,0-.03,0-.07,0-.1,0-.09,0-.18.04-.24.04-.06.11-.1.22-.1.59,0,1.19-.08,1.76.01.41.07.81.33,1.16.58.62.45.87,1.17,1.17,1.84.41.91.8,1.83,1.2,2.74.02.02.04.05.06.07h0c.15.38.33.76.46,1.15.07.23.19.3.42.29.37,0,.74,0,1.1.02.03.02.05.04.08.05.09,0,.18,0,.28,0,.49,0,.51-.04.3-.48-.62-1.28-1.22-2.56-1.85-3.84Zm-2.42-4.4c-.5.19-1.06.27-1.6.31-.7.05-1.4,0-2.1,0-.06-.02-.12-.04-.18-.06-.03-.08-.06-.16-.09-.24,0-.03,0-.07,0-.1,0-1.63,0-3.26,0-4.89,0-.03,0-.07,0-.1-.05-.38.11-.49.49-.47.86.03,1.72-.02,2.58.01,1.37.06,2.19.49,2.65,1.68.59,1.55-.12,3.24-1.75,3.85Z"/>
  <path class="cls-1" d="m39,13.75c-.33-.15-.47.02-.63.24-.12.16-.27.3-.42.44-.78.78-1.56,1.56-2.34,2.33-.49.48-.98.95-1.48,1.43-.03.03-.05.05-.08.08-.05.05-.11.11-.16.16-.08.08-.16.17-.23.25-.04.03-.08.05-.12.08h0s-.01,0-.01,0v.02c-.06.04-.12.09-.17.13-.57.5-1.14.99-1.69,1.5-.28.27-.52.58-.78.87,0,4.01,0,8.02,0,12.03,0,.25,0,.5.02.75.03.25-.08.42-.31.46-.29.06-.6.15-.87.09-2.04-.45-4.08-.9-6.19-1-.94-.05-1.88-.15-2.81-.23h0s-.01-.04-.02-.07c-.08,0-.15-.01-.23-.02-.54-.01-1.09-.02-1.63-.04-.05.03-.1.08-.16.11-.02,0-.04.01-.05.02-.73.06-1.46.09-2.19.17-1.12.12-2.25.25-3.36.41-1,.15-2.01.32-2.99.55-1.19.28-2.36.63-3.54.95-.69.21-1.37.43-2.06.64-.14.04-.3.01-.45.01-.29.13-.58.26-.87.4-.36.18-.7.41-1.07.55-.63.25-1.28.44-2,.69.02-.21.02-.32.03-.43.36-.26.73-.52,1.09-.78.02-.02.05-.03.07-.05.17-.11.34-.23.52-.34.17-.11.35-.23.52-.34.25-.16.52-.3.78-.44.48-.21.96-.42,1.43-.63.11-.12.22-.25.33-.37.15-.06.3-.11.44-.17,1.3-.52,2.58-1.08,3.89-1.56.86-.32,1.75-.57,2.64-.81,1.01-.27,2.02-.51,3.04-.71.81-.16,1.65-.22,2.47-.33.51-.07,1.01-.15,1.52-.23,0-.3,0-.54,0-.78,0-9.39,0-18.78,0-28.17,0-.52-.09-.64-.6-.73-.25-.04-.41.04-.44.31-.03.28-.02.58-.08.85-.24.99-.47,1.99-.77,2.96-.49,1.57-.97,3.14-1.56,4.67-.68,1.76-1.41,3.51-2.22,5.21-1.11,2.32-2.31,4.61-3.7,6.78-.79,1.24-1.55,2.49-2.39,3.7-.9,1.3-1.85,2.57-2.81,3.82-.63.82-1.34,1.6-2.01,2.39-.43.51-.86,1.01-1.29,1.52-.02.01-.04.03-.05.06-.26.3-.51.6-.77.9-.06.05-.12.1-.18.15v3.88c.5-.16,1-.34,1.51-.47,1.03-.28,2.06-.55,3.1-.78.9-.2,1.81-.34,2.71-.51.72-.1,1.43-.2,2.15-.3,1.37-.19,2.74-.41,4.11-.54,1.02-.1,2.05-.06,3.07-.09.15,0,.3-.04.46-.06,1.07,0,2.14,0,3.22,0,.07,0,.14.04.21.07,1.02.05,2.04.1,3.06.17.65.04,1.31.08,1.96.16.74.09,1.49.2,2.23.32,1.03.16,2.06.29,3.08.51,1.41.3,2.82.63,4.21,1,1.03.27,2.04.6,3.04.94.69.23,1.19-.08,1.19-.8,0-7,0-14,0-21,0-.72,0-1.45,0-2.17,0-.03.02-.06.01-.08-.08-.22.02-.5-.3-.65Z"/>
  <path class="cls-1" d="m190.27,22.32s-.05,0-.08,0c-.66,0-1.32-.02-1.98-.03-.12.01-.23.02-.36.04-.03.11-.04.21-.08.3-.38.87-.76,1.73-1.15,2.59-.78,1.75-1.57,3.49-2.35,5.24-.66,1.5-1.31,3-1.97,4.5-.03.06-.1.17-.13.16-.09-.02-.22-.07-.25-.15-.1-.24-.14-.5-.25-.73-.6-1.37-1.22-2.73-1.82-4.09-.96-2.19-1.92-4.38-2.89-6.57-.2-.44-.46-.86-.7-1.29-.11,0-.21,0-.32,0h-1.99c0,.22,0,.4,0,.56,0,.06,0,.11,0,.16-.01.04-.03.07-.05.11.02-.04.03-.07.05-.11,0,.75.02,1.5.02,2.25,0,4.08,0,8.16,0,12.24-.03,0-.06,0-.09,0-.01-.08-.03-.17-.05-.25.02.08.04.17.05.25,0,.08,0,.15,0,.23-.02.08-.06.17-.04.25.02.08.1.22.15.22.57-.01,1.14-.05,1.71-.08,0-2.61,0-5.22.01-7.83,0-.45,0-.9,0-1.35,0-.58,0-1.16,0-1.74,0-.47-.02-.95-.02-1.42v-.83s.09-.01.13-.02c.09.28.19.57.28.85.1.25.19.5.29.75.1.25.19.5.3.74.49,1.13,1,2.24,1.5,3.36.61,1.35,1.23,2.7,1.85,4.06.49,1.07.97,2.14,1.44,3.22.16.36.46.31.73.28.14-.01.35-.1.4-.2.51-1.11.98-2.23,1.47-3.34.37-.83.76-1.66,1.13-2.49.44-1,.86-2.01,1.31-3.02.4-.9.8-1.81,1.22-2.7.16-.34.36-.65.54-.98.05-.24.11-.48.16-.72.06,0,.11.02.17.02-.03.26-.06.51-.1.77-.03.37-.07.74-.1,1.11,0,1.98,0,3.95.01,5.93,0,1.87,0,3.74,0,5.62.48,0,.97,0,1.45,0,.16,0,.28-.04.32-.16.01-.04.02-.09.02-.15v-.05s0-.03,0-.05c0-.39.01-.78.02-1.17,0-.06,0-.12,0-.17v-.14c0-.06,0-.12,0-.17v-.14c0-.06,0-.12,0-.17,0-.05,0-.1,0-.14,0-.06,0-.12,0-.17,0-.05,0-.1,0-.14,0-.06,0-.12,0-.17,0-.05,0-.1,0-.14,0-.06,0-.12,0-.17,0-.05,0-.1,0-.14,0-.06,0-.12,0-.17,0-.05,0-.1,0-.14,0-.03,0-.06,0-.09s0-.06,0-.09c0-.05,0-.1,0-.14,0-.06,0-.12,0-.17,0-.05,0-.1,0-.14,0-.06,0-.12,0-.17,0-.05,0-.1,0-.14,0-.06,0-.12,0-.17v-.14c0-.06,0-.12,0-.17,0-.05,0-.1,0-.14,0-.06,0-.12,0-.17,0-.05,0-.1,0-.14,0-.06,0-.12,0-.17,0-.26,0-.52,0-.78,0-.06,0-.12,0-.17v-.14c0-.06,0-.12,0-.17,0-.05,0-.1,0-.14v-.17s0-.1,0-.14c0-.06,0-.12,0-.17,0-.05,0-.1,0-.14,0-.06,0-.12,0-.17,0-.05,0-.1,0-.14,0-.06,0-.12,0-.17,0-.05,0-.1,0-.14,0-.06,0-.12,0-.17,0-.05,0-.1,0-.14,0-.06,0-.12,0-.17,0-.05,0-.1,0-.14,0-.06,0-.12,0-.17,0-.05,0-.1,0-.14,0-.06,0-.12,0-.17v-.14s0-.06,0-.1c0-.04,0-.07,0-.11,0-.04,0-.07,0-.11,0-.06,0-.12,0-.17,0-.05,0-.1,0-.14,0-.06,0-.12,0-.17,0-.05,0-.1,0-.14,0-.06,0-.12,0-.17,0-.05,0-.1,0-.14,0-.06,0-.12,0-.17,0-.05,0-.1,0-.14,0-.06,0-.12,0-.17,0-.05,0-.1,0-.14,0-.06,0-.12,0-.17,0-.05,0-.1,0-.14,0-.06,0-.12,0-.17,0-.05,0-.1,0-.14,0-.06,0-.12,0-.17,0-.05,0-.1,0-.14,0-.06,0-.12,0-.17,0-.05,0-.1,0-.14,0-.06,0-.12,0-.17,0-.05,0-.1,0-.14,0-.06,0-.12,0-.17,0-.05,0-.1,0-.14,0-.06,0-.12,0-.17,0-.05,0-.1,0-.14,0-.06,0-.12,0-.17,0-.05,0-.1,0-.14,0-.06,0-.12,0-.17,0-.05,0-.1,0-.14,0-.06,0-.12,0-.17,0-.05,0-.1,0-.14,0-.06,0-.11,0-.17,0-.15,0-.31,0-.46,0-.13.01-.26.02-.39Z"/>
</svg>