<?xml version="1.0" encoding="UTF-8"?>
<svg id="Layer_1" data-name="Layer 1" xmlns="http://www.w3.org/2000/svg" viewBox="0 0 189.76 49.58">
  <defs>
    <style>
      .cls-1, .cls-2, .cls-3, .cls-4, .cls-5, .cls-6 {
        fill: none;
      }

      .cls-2 {
        stroke: #40b2df;
      }

      .cls-2, .cls-3, .cls-4, .cls-5, .cls-6 {
        stroke-linecap: round;
        stroke-linejoin: round;
        stroke-width: 0px;
      }

      .cls-7 {
        fill: #060909;
      }

      .cls-8 {
        fill: #060808;
      }

      .cls-9 {
        fill: #bee6f7;
      }

      .cls-10 {
        fill: #22a7df;
      }

      .cls-11 {
        fill: #231f20;
      }

      .cls-12 {
        fill: #40b2df;
      }

      .cls-13 {
        fill: #080a0a;
      }

      .cls-14 {
        fill: #070a0a;
      }

      .cls-15 {
        fill: #070909;
      }

      .cls-16 {
        fill: #18abe3;
      }

      .cls-17 {
        fill: #88ceef;
      }

      .cls-3 {
        stroke: #919191;
      }

      .cls-4 {
        stroke: #bee6f7;
      }

      .cls-5 {
        stroke: #88ceef;
      }

      .cls-6 {
        stroke: #d1edf6;
      }
    </style>
  </defs>
  <g id="BOGgTb.tif">
    <g>
      <path class="cls-1" d="m18.69,21.51c0-.13.02-.27.03-.4-.01-.4-.02-.8-.03-1.19.01.4.02.8.03,1.19,0,.13-.02.27-.03.4Z"/>
      <path class="cls-1" d="m10.36,21.59s.07,0,.1,0h0s-.07,0-.1,0Z"/>
      <path class="cls-1" d="m8.75,21.59s.07,0,.1,0h0s-.07,0-.1,0Z"/>
      <path class="cls-1" d="m45.86.56c0-.14,0-.29,0-.43-.09-.02-.18-.05-.27-.08.09.03.18.06.27.08,0,.14,0,.29,0,.43Z"/>
      <path class="cls-1" d="m37.68,21.59s.07,0,.1,0h0s-.07,0-.1,0Z"/>
      <path class="cls-1" d="m30.05,21.59s.07,0,.1,0h0s-.07,0-.1,0Z"/>
      <path class="cls-1" d="m18.73,40.9c0-.07,0-.14,0-.21,0-5.46-.01-10.92-.02-16.37,0,5.46.01,10.92.02,16.37,0,.07,0,.14,0,.21Z"/>
      <path class="cls-1" d="m42.1,21.59s.07,0,.1,0h0s-.07,0-.1,0Z"/>
      <path class="cls-1" d="m4.33,21.59s.07,0,.1,0h0s-.07,0-.1,0Z"/>
      <path class="cls-1" d="m24.02,21.59s.07,0,.1,0h0s-.07,0-.1,0Z"/>
      <path class="cls-1" d="m36.07,21.59s.07,0,.1,0h0s-.07,0-.1,0Z"/>
      <path class="cls-1" d="m.04,21.51c-.01-.17-.03-.33-.03-.5,0,.17.02.33.03.5.12,0,.25,0,.37,0-.12,0-.25,0-.37,0Z"/>
      <path class="cls-10" d="m45.87,44.52s.02-.02.03-.04c0-6.51.01-13.01.02-19.52,0-.84,0-.85-.84-.85-6.58,0-13.16,0-19.74,0-1.22,0-2.44,0-3.67.02-.68.01-.77.12-.77.79,0,5.46,0,10.92,0,16.38,0,.71.34,1.03,1.05,1.11,1.27.14,2.53.34,3.79.45.97.09,1.9.49,2.9.35.3-.04.62.06.93.11,1.27.22,2.53.48,3.8.67.96.14,1.94.2,2.91.31.85.1,1.71.19,2.55.32,1.15.17,2.29.42,3.44.57.9.12,1.81.06,2.7.38.66.24.98-.06.95-.76,0-.07-.01-.13-.02-.2-.01-.03-.03-.05-.04-.08Z"/>
      <path class="cls-10" d="m20.91,9.63c0,2.73.01,5.46.02,8.19.28.05.55.1.88.17.2-.4.4-.83.62-1.24.05-.1.15-.22.25-.25.32-.08.65-.17.98-.17,6.5,0,13,0,19.51,0,.28,0,.56.05.84.12.12.03.23.16.31.27.19.23.32.52.54.71.3.27.66.47.99.69.01-.21.04-.43.04-.64,0-5.64-.02-11.28-.03-16.92,0-.14,0-.29,0-.43-.09-.02-.18-.05-.27-.08-.09-.03-.18-.05-.27-.04-.18,0-.35.11-.53.14-1.13.14-2.26.27-3.39.41-.36.04-.72.1-1.08.17-.53.1-1.06.25-1.6.32-.95.13-1.91.2-2.86.31-.93.12-1.86.26-2.79.4-.34.05-.68.18-1.02.18-1.7,0-3.35.43-5.02.62-.39.04-.78.14-1.17.19-1.02.13-2.04.23-3.05.36-.46.06-.91.18-1.36.29-.39.09-.54.31-.54.75.03,1.83,0,3.66.01,5.49Z"/>
      <path class="cls-10" d="m18.73,40.9c0-.07,0-.14,0-.21,0-5.46-.01-10.92-.02-16.37,0-.03-.02-.06-.03-.1-.08-.02-.16-.05-.23-.07s-.16-.04-.23-.04c-2.21,0-4.41,0-6.62,0-3.73,0-7.46,0-11.18-.01-.03,0-.07,0-.1,0-.37.05-.3.34-.3.58,0,4.68,0,9.35,0,14.03,0,.1-.03.22,0,.3.06.11.16.27.26.28,1.29.22,2.58.41,3.87.61.81.13,1.61.28,2.42.39,1.03.14,2.06.24,3.09.47.88.2,1.83.07,2.75.31,1.05.28,2.17.07,3.26.39.88.27,1.84.28,2.86.41.04-.15.11-.41.18-.68v-.11c0-.06.01-.13.01-.19Z"/>
      <path class="cls-10" d="m.04,21.51c.12,0,.25,0,.37,0,.06-.91.01-1.84.23-2.71.19-.76.6-1.49,1.06-2.13.18-.26.75-.32,1.15-.33,1.44-.04,2.88-.01,4.32-.01,2.88,0,5.76,0,8.64,0,.25,0,.49.05.74.1.25.05.49.12.47.47,0,.08.08.2.16.24.55.3.7.84.92,1.37.14.33.4.61.6.92,0-.05.02-.1.02-.15,0-4.96,0-9.92-.01-14.88,0-.18-.03-.35-.06-.6-.91.08-1.77.14-2.62.24-1.25.15-2.49.34-3.73.51-.69.09-1.38.16-2.06.26-.67.1-1.33.24-2,.33-.95.13-1.91.22-2.86.33-.38.04-.76.09-1.13.15-1.17.17-2.34.38-3.52.52-.69.08-.71.03-.71.71,0,4.73,0,9.45,0,14.18,0,.17.02.33.03.5Z"/>
      <path class="cls-8" d="m78.78,15.05c0-.39,0-.79,0-1.22-.7,0-1.35-.02-2,.02-.11,0-.3.23-.3.36,0,.85.05,1.7.04,2.54-.01,2.77-.04,5.54-.06,8.32,0,.67-.09.77-.76.84-.1.01-.2,0-.3,0-.99-.01-1.97-.03-2.96-.03-3.03,0-6.06,0-9.09,0-.61,0-1.22,0-1.86,0v-.52c0-3.68,0-7.36,0-11.03,0-.4-.13-.53-.52-.51-.5.02-1,0-1.51,0-.25,0-.42.05-.4.36.02.36,0,.73,0,1.1,0,7.62,0,15.24,0,22.87,0,.65-.02,1.3.01,1.95,0,.14.18.38.3.39.48.04.96.02,1.45.02.6,0,.65-.05.65-.66,0-3.74,0-7.49,0-11.23v-.55c.54-.04,1-.11,1.46-.11,4.18,0,8.37-.02,12.55,0,1.1,0,1.02.09,1.01,1.01,0,3.35-.03,6.71-.06,10.06,0,.29-.06.58-.09.87-.04.36.01.62.47.61.45-.01.9.02,1.35,0,.36-.01.64-.12.59-.59-.03-.31,0-.63,0-.95,0-7.97,0-15.94,0-23.91Z"/>
      <path class="cls-15" d="m116.87,22.35c-2.13-1.43-4.47-1.66-6.91-.95-1.63.48-2.91,1.43-3.85,2.85-.12.18-.42.25-.63.36-.09-.23-.26-.46-.26-.69,0-.79.08-1.57.13-2.48h-2.24s-.05.07-.08.1c0,.35.03.7.03,1.04,0,8.35,0,16.71,0,25.06,0,.26-.03.52-.06.78-.08.66.16.96.82.96.3,0,.6-.02.9,0,.45.03.59-.2.59-.59,0-3.19.01-6.39,0-9.58,0-.4-.09-.8-.16-1.37.42.19.75.27.98.46.37.32.66.75,1.03,1.08.83.74,1.78,1.3,2.9,1.4.93.08,1.88.02,2.82.02,1.02,0,1.96-.35,2.78-.9.72-.48,1.41-1.04,1.99-1.68.57-.62,1.1-1.32,1.46-2.07.71-1.47,1.04-3.08,1.14-4.7.1-1.6.05-3.2-.47-4.78-.57-1.73-1.37-3.29-2.91-4.32Zm1.06,9.33c-.14,1.36-.41,2.72-1.05,3.97-1.09,2.15-3.49,3.75-6.16,3.43-1.02-.12-1.95-.54-2.83-1.13-1.51-1.01-2.2-2.5-2.57-4.15-.18-.81-.03-1.69-.03-2.54h0c0-.67-.02-1.33,0-2,.05-1.52.58-2.87,1.54-4.06.88-1.09,2.04-1.77,3.36-2.12,1.15-.31,2.32-.23,3.5.1,2.23.62,3.32,2.24,3.92,4.28.4,1.37.45,2.8.31,4.2Z"/>
      <path class="cls-16" d="m44.85,17.42c-.22-.19-.36-.48-.54-.71-.09-.11-.19-.24-.31-.27-.27-.07-.56-.12-.84-.12-6.5,0-13,0-19.51,0-.33,0-.66.09-.98.17-.1.03-.2.14-.25.25-.22.42-.42.84-.62,1.24-.33-.06-.6-.11-.88-.17,0,.98-.02,1.96,0,2.94,0,.59.31.86.9.85.33,0,.67-.01,1-.02.03,0,.07,0,.1,0,.1,0,.2,0,.3,0,.03,0,.07,0,.1,0,.1,0,.2,0,.3,0,.03,0,.07,0,.1,0h.3s.07,0,.1,0h0c.1,0,.2,0,.3,0,.03,0,.07,0,.1,0,.1,0,.2,0,.3,0,.03,0,.07,0,.1,0,.1,0,.2,0,.3,0,.03,0,.07,0,.1,0,.1,0,.2,0,.3,0,.03,0,.07,0,.1,0,.1,0,.2,0,.3,0,.03,0,.07,0,.1,0,.1,0,.2,0,.3,0,.03,0,.07,0,.1,0,.1,0,.2,0,.3,0h.1c.1,0,.2,0,.3,0,.03,0,.07,0,.1,0,.1,0,.2,0,.3,0,.03,0,.07,0,.1,0,.1,0,.2,0,.3,0,.03,0,.07,0,.1,0,.1,0,.2,0,.3,0,.03,0,.07,0,.1,0,.1,0,.2,0,.3,0,.03,0,.07,0,.1,0,.1,0,.2,0,.3,0,.03,0,.07,0,.1,0,.1,0,.2,0,.3,0,.03,0,.07,0,.1,0,.1,0,.2,0,.3,0,.03,0,.07,0,.1,0h0c.1,0,.2,0,.3,0,.03,0,.07,0,.1,0,.1,0,.2,0,.3,0,.03,0,.07,0,.1,0,.1,0,.2,0,.3,0,.03,0,.07,0,.1,0,.1,0,.2,0,.3,0,.03,0,.07,0,.1,0,.1,0,.2,0,.3,0,.03,0,.07,0,.1,0,.1,0,.2,0,.3,0,.03,0,.07,0,.1,0,.1,0,.2,0,.3,0,.03,0,.07,0,.1,0,.1,0,.2,0,.3,0,.03,0,.07,0,.1,0,.1,0,.2,0,.3,0,.03,0,.07,0,.1,0,.1,0,.2,0,.3,0,.03,0,.07,0,.1,0,.1,0,.2,0,.3,0,.03,0,.07,0,.1,0,.1,0,.2,0,.3,0,.03,0,.07,0,.1,0,.1,0,.2,0,.3,0,.03,0,.07,0,.1,0,.1,0,.2,0,.3,0,.03,0,.07,0,.1,0,.1,0,.2,0,.3,0,.03,0,.07,0,.1,0h0c.1,0,.2,0,.3,0,.03,0,.07,0,.1,0,.1,0,.2,0,.3,0,.03,0,.07,0,.1,0,.1,0,.2,0,.3,0,.03,0,.07,0,.1,0,.1,0,.2,0,.3,0,.03,0,.07,0,.1,0h0c.1,0,.2,0,.3,0,.03,0,.07,0,.1,0,.1,0,.2,0,.3,0,.03,0,.07,0,.1,0,.1,0,.2,0,.3,0,.03,0,.07,0,.1,0,.1,0,.2,0,.3,0,.03,0,.07,0,.1,0,.1,0,.2,0,.3,0h.1c.1,0,.2,0,.3,0,.03,0,.07,0,.1,0,.1,0,.2,0,.3,0,.03,0,.07,0,.1,0,.1,0,.2,0,.3,0,.03,0,.07,0,.1,0,.1,0,.2,0,.3,0,.03,0,.07,0,.1,0,.1,0,.2,0,.3,0,.03,0,.07,0,.1,0,.1,0,.2,0,.3,0,.03,0,.07,0,.1,0h.7s.07,0,.1,0c.1,0,.2,0,.3,0,.03,0,.07,0,.1,0,.1,0,.2,0,.3,0h.1c.1,0,.2,0,.3,0,.03,0,.07,0,.1,0,.1,0,.2,0,.3,0h.7c.19,0,.39,0,.62,0v-1.76c0-.58,0-1.15,0-1.73-.33-.23-.69-.43-.99-.69Z"/>
      <path class="cls-14" d="m188.08,13.81c-.59-.07-.84.23-1.01.71-.27.76-.55,1.52-.83,2.28-.86,2.31-1.73,4.63-2.59,6.94-.7,1.87-1.4,3.75-2.11,5.62-.52,1.38-1.07,2.75-1.59,4.14-.45,1.23-.88,2.47-1.31,3.7-.05,0-.1.01-.16.02-.1-.14-.24-.27-.29-.42-.2-.61-.35-1.25-.57-1.85-.59-1.61-1.21-3.2-1.8-4.81-.69-1.89-1.34-3.8-2.01-5.7-1.21-3.42-2.41-6.84-3.63-10.25-.05-.15-.29-.33-.45-.34-.63-.04-1.27-.01-1.91-.02-.33,0-.41.12-.28.43.35.86.68,1.73,1.01,2.6,1.11,2.99,2.21,5.99,3.32,8.99.68,1.83,1.38,3.65,2.05,5.49.56,1.53,1.07,3.08,1.62,4.61.49,1.38,1,2.75,1.53,4.12.07.18.31.4.48.41.63.05,1.26.03,1.9,0,.08,0,.19-.17.23-.28.93-2.37,1.86-4.74,2.78-7.11.6-1.56,1.18-3.14,1.78-4.7,1.11-2.86,2.23-5.72,3.34-8.59.61-1.58,1.23-3.16,1.83-4.74.14-.38.23-.78.36-1.23-.65,0-1.17.05-1.68-.01Z"/>
      <path class="cls-15" d="m136.94,22.47c-1.92-1.47-4.16-1.59-6.4-1.27-1.76.25-3.2,1.26-4.41,2.58-1.85,2.02-2.53,4.46-2.63,7.09-.04.97.13,1.95.29,2.92.31,1.86,1.09,3.53,2.43,4.89,1.54,1.55,3.47,2.29,5.61,2.29,1.23,0,2.48-.23,3.67-.54.96-.24,1.86-.74,2.77-1.15.19-.09.42-.31.44-.49.05-.62.02-1.24.02-1.97-.29.24-.47.43-.68.57-1.23.8-2.55,1.31-4.02,1.54-1.3.21-2.54.26-3.81-.21-2.01-.75-3.28-2.17-3.92-4.15-.26-.8-.36-1.64-.52-2.46-.09-.44.2-.78.65-.78.69,0,1.38.04,2.07.04,3.36.01,6.73.02,10.09.02.43,0,.87-.08,1.32-.12.1-1.73-.03-3.33-.49-4.88-.45-1.53-1.18-2.89-2.49-3.89Zm-.06,6.93c-1.72,0-3.44,0-5.17,0h0c-1.64.01-3.28.01-4.92,0-.79,0-.96-.22-.82-1,.23-1.25.69-2.39,1.52-3.37.9-1.06,2.03-1.74,3.42-2.06,1.24-.28,2.41-.13,3.53.33,1.39.57,2.34,1.64,2.77,3.08.23.77.36,1.57.51,2.37.08.4-.24.63-.85.63Z"/>
      <path class="cls-13" d="m97.26,22.03c-.33.91-.67,1.83-1.02,2.74-.55,1.43-1.11,2.86-1.66,4.29-.66,1.72-1.34,3.43-1.98,5.16-.38,1.02-.72,2.06-1.11,3.07-.06.17-.26.38-.41.38-.14,0-.36-.2-.42-.36-.36-.97-.69-1.95-1.03-2.93-.67-1.89-1.33-3.78-2.01-5.67-.46-1.27-.93-2.53-1.41-3.79-.39-1.05-.78-2.1-1.19-3.14-.06-.15-.26-.35-.4-.36-.66-.04-1.33-.02-2.15-.02.18.43.35.76.48,1.11.75,1.95,1.49,3.91,2.25,5.85.88,2.26,1.8,4.5,2.68,6.75.67,1.71,1.32,3.42,1.97,5.13.05.13.04.32,0,.45-.44,1.12-.9,2.24-1.36,3.35-.49,1.18-1.08,2.33-2.23,2.99-.6.34-1.34.49-2.04.59-.4.06-.84-.15-1.32-.26,0,.52-.04.93,0,1.34.09.77.2.85.99.85.27,0,.54,0,.8,0,1.45.02,2.65-.61,3.62-1.6,1.11-1.13,1.82-2.54,2.42-3.99.99-2.42,1.93-4.86,2.91-7.28,1.09-2.71,2.21-5.41,3.3-8.11.77-1.91,1.53-3.82,2.29-5.73.17-.42.33-.85.5-1.29-.56-.06-1-.11-1.44-.16-.51-.06-.87.12-1.05.61Z"/>
      <path class="cls-16" d="m17.17,17.13c-.08-.04-.16-.16-.16-.24.03-.35-.22-.41-.47-.47-.24-.05-.49-.1-.74-.1-2.88,0-5.76,0-8.64,0-1.44,0-2.88-.02-4.32.01-.4.01-.96.08-1.15.33-.46.64-.88,1.38-1.06,2.13-.21.87-.16,1.8-.23,2.71,0,.03,0,.05,0,.08.13,0,.27,0,.4,0,.13,0,.27,0,.4,0,.1,0,.2,0,.3,0h.1c.1,0,.2,0,.3,0,.03,0,.07,0,.1,0,.1,0,.2,0,.3,0,.03,0,.07,0,.1,0,.1,0,.2,0,.3,0h.4s.07,0,.1,0h.7s.07,0,.1,0c.1,0,.2,0,.3,0,.03,0,.07,0,.1,0h0c.1,0,.2,0,.3,0,.03,0,.07,0,.1,0h.3s.07,0,.1,0h.3s.07,0,.1,0c.1,0,.2,0,.3,0,.03,0,.07,0,.1,0,.1,0,.2,0,.3,0,.03,0,.07,0,.1,0,.1,0,.2,0,.3,0,.03,0,.07,0,.1,0,.1,0,.2,0,.3,0,.03,0,.07,0,.1,0,.1,0,.2,0,.3,0,.03,0,.07,0,.1,0,.1,0,.2,0,.3,0,.03,0,.07,0,.1,0,.1,0,.2,0,.3,0,.03,0,.07,0,.1,0,.1,0,.2,0,.3,0,.03,0,.07,0,.1,0h0c.1,0,.2,0,.3,0,.03,0,.07,0,.1,0,.1,0,.2,0,.3,0,.03,0,.07,0,.1,0,.1,0,.2,0,.3,0,.03,0,.07,0,.1,0,.1,0,.2,0,.3,0,.03,0,.07,0,.1,0h0c.1,0,.2,0,.3,0,.03,0,.07,0,.1,0,.1,0,.2,0,.3,0,.03,0,.07,0,.1,0,.1,0,.2,0,.3,0,.03,0,.07,0,.1,0,.1,0,.2,0,.3,0,.03,0,.07,0,.1,0,.1,0,.2,0,.3,0,.03,0,.07,0,.1,0,.1,0,.2,0,.3,0,.03,0,.07,0,.1,0,.1,0,.2,0,.3,0,.03,0,.07,0,.1,0,.1,0,.2,0,.3,0,.03,0,.07,0,.1,0h.3s.07,0,.1,0h.3s.07,0,.1,0c.1,0,.2,0,.3,0,.03,0,.07,0,.1,0,.1,0,.2,0,.3,0h1.21s.07,0,.1,0c.1,0,.2,0,.3,0,.03,0,.07,0,.1,0,.1,0,.2,0,.3,0,.03,0,.07,0,.1,0,.1,0,.2,0,.3,0,.03,0,.07,0,.1,0h.3s.07-.05.1-.08c.05-.11.14-.22.13-.33-.05-.5.1-.92.47-1.27,0-.17,0-.33,0-.5-.21-.3-.46-.59-.6-.92-.22-.52-.37-1.07-.92-1.37Z"/>
      <path class="cls-7" d="m153.35,21.2c-.13,0-.26-.04-.39-.05-.74-.05-1.47-.1-2.2.16-1.43.52-2.41,1.49-3.07,2.84-.18.36-.45.68-.68,1.02-.06-.02-.11-.05-.17-.07-.51-1.15.26-2.4-.19-3.54-.5-.05-.94-.1-1.38-.14-.61-.06-.87.18-.81.76.02.16.03.33.03.49,0,5.76,0,11.51,0,17.27,0,.17.02.35.03.55.61,0,1.16-.03,1.71,0,.43.03.57-.18.58-.54.02-.52.03-1.03.02-1.55-.02-2.09-.07-4.19-.05-6.28,0-1.18.03-2.38.21-3.54.26-1.72.97-3.23,2.25-4.51.95-.95,2.82-1.1,4.05-.62.45.18.71.04.71-.43,0-.4.02-.8,0-1.2-.03-.39-.21-.65-.66-.64Z"/>
      <path class="cls-8" d="m164.57,28.68h-.61c-2.73,0-5.45,0-8.18,0-1.33,0-1.4.09-1.37,1.41,0,.38.21.5.52.51.35.01.7-.02,1.05-.02,2.71,0,5.42.02,8.13.04.3,0,.48-.08.47-.41,0-.48,0-.96,0-1.52Z"/>
      <path class="cls-10" d="m18.09,21.52s0,.06,0,.08c.2-.03.4-.06.6-.09,0-.13.02-.27.03-.4-.01-.4-.02-.8-.03-1.19-.36.35-.52.77-.47,1.27.01.1-.09.22-.13.33Z"/>
      <path class="cls-2" d="m45.22,21.6h-.7"/>
      <path class="cls-5" d="m45.85.12c0,.14,0,.29,0,.43"/>
      <path class="cls-4" d="m18.69,21.51c0-.13.02-.27.03-.4"/>
      <path class="cls-12" d="m.04,21.51c.12.03.25.06.37.09,0-.03,0-.05,0-.08-.12,0-.25,0-.37,0Z"/>
      <path class="cls-2" d="m1.21,21.59c-.13,0-.27,0-.4,0"/>
      <path class="cls-4" d="m18.73,40.9c0-.07,0-.14,0-.21"/>
      <path class="cls-2" d="m41.8,21.59s-.07,0-.1,0"/>
      <path class="cls-2" d="m6.84,21.59s-.07,0-.1,0"/>
      <path class="cls-2" d="m7.24,21.59s-.07,0-.1,0"/>
      <path class="cls-2" d="m7.65,21.59s-.07,0-.1,0"/>
      <path class="cls-2" d="m8.05,21.59s-.07,0-.1,0"/>
      <path class="cls-2" d="m8.45,21.59s-.07,0-.1,0"/>
      <path class="cls-2" d="m8.85,21.59s-.07,0-.1,0"/>
      <path class="cls-2" d="m9.25,21.59s-.07,0-.1,0"/>
      <path class="cls-2" d="m9.66,21.59s-.07,0-.1,0"/>
      <path class="cls-2" d="m10.06,21.59s-.07,0-.1,0"/>
      <path class="cls-2" d="m10.46,21.59s-.07,0-.1,0"/>
      <path class="cls-2" d="m10.86,21.59s-.07,0-.1,0"/>
      <path class="cls-2" d="m11.26,21.59s-.07,0-.1,0"/>
      <path class="cls-2" d="m11.67,21.59s-.07,0-.1,0"/>
      <path class="cls-2" d="m12.07,21.59s-.07,0-.1,0"/>
      <path class="cls-2" d="m12.47,21.59s-.07,0-.1,0"/>
      <path class="cls-2" d="m12.87,21.59s-.07,0-.1,0"/>
      <path class="cls-2" d="m13.27,21.59s-.07,0-.1,0"/>
      <path class="cls-2" d="m13.67,21.59s-.07,0-.1,0"/>
      <path class="cls-2" d="m14.08,21.59s-.07,0-.1,0"/>
      <path class="cls-2" d="m14.48,21.59s-.07,0-.1,0"/>
      <path class="cls-2" d="m14.88,21.59s-.07,0-.1,0"/>
      <path class="cls-2" d="m6.44,21.59s-.07,0-.1,0"/>
      <path class="cls-2" d="m2.32,21.59s.07,0,.1,0"/>
      <path class="cls-2" d="m2.02,21.59s-.07,0-.1,0"/>
      <path class="cls-2" d="m6.04,21.59s-.07,0-.1,0"/>
      <path class="cls-12" d="m17.99,21.6s.07,0,.1,0c0-.03,0-.06,0-.08-.03.03-.07.05-.1.08Z"/>
      <path class="cls-2" d="m22.92,21.59s-.07,0-.1,0"/>
      <path class="cls-2" d="m23.32,21.59s-.07,0-.1,0"/>
      <path class="cls-2" d="m23.72,21.59s-.07,0-.1,0"/>
      <path class="cls-2" d="m24.12,21.59s-.07,0-.1,0"/>
      <path class="cls-2" d="m24.52,21.59s-.07,0-.1,0"/>
      <path class="cls-2" d="m24.93,21.59s-.07,0-.1,0"/>
      <path class="cls-2" d="m25.33,21.59s-.07,0-.1,0"/>
      <path class="cls-2" d="m25.73,21.59s-.07,0-.1,0"/>
      <path class="cls-2" d="m26.13,21.59s-.07,0-.1,0"/>
      <path class="cls-2" d="m26.53,21.59s-.07,0-.1,0"/>
      <path class="cls-2" d="m27.34,21.59s-.07,0-.1,0"/>
      <path class="cls-2" d="m27.74,21.59s-.07,0-.1,0"/>
      <path class="cls-2" d="m28.14,21.59s-.07,0-.1,0"/>
      <path class="cls-2" d="m28.54,21.59s-.07,0-.1,0"/>
      <path class="cls-2" d="m28.94,21.59s-.07,0-.1,0"/>
      <path class="cls-2" d="m29.35,21.59s-.07,0-.1,0"/>
      <path class="cls-2" d="m29.75,21.59s-.07,0-.1,0"/>
      <path class="cls-2" d="m30.15,21.59s-.07,0-.1,0"/>
      <path class="cls-2" d="m30.55,21.59s-.07,0-.1,0"/>
      <path class="cls-2" d="m30.95,21.59s-.07,0-.1,0"/>
      <path class="cls-2" d="m31.36,21.59s-.07,0-.1,0"/>
      <path class="cls-2" d="m31.76,21.59s-.07,0-.1,0"/>
      <path class="cls-2" d="m32.16,21.59s-.07,0-.1,0"/>
      <path class="cls-2" d="m32.56,21.59s-.07,0-.1,0"/>
      <path class="cls-2" d="m32.96,21.59s-.07,0-.1,0"/>
      <path class="cls-2" d="m33.36,21.59s-.07,0-.1,0"/>
      <path class="cls-2" d="m33.77,21.59s-.07,0-.1,0"/>
      <path class="cls-2" d="m34.17,21.59s-.07,0-.1,0"/>
      <path class="cls-2" d="m34.57,21.59s-.07,0-.1,0"/>
      <path class="cls-2" d="m34.97,21.59s-.07,0-.1,0"/>
      <path class="cls-2" d="m35.37,21.59s-.07,0-.1,0"/>
      <path class="cls-2" d="m35.78,21.59s-.07,0-.1,0"/>
      <path class="cls-2" d="m36.18,21.59s-.07,0-.1,0"/>
      <path class="cls-2" d="m36.58,21.59s-.07,0-.1,0"/>
      <path class="cls-2" d="m36.98,21.59s-.07,0-.1,0"/>
      <path class="cls-2" d="m37.38,21.59s-.07,0-.1,0"/>
      <path class="cls-2" d="m37.78,21.59s-.07,0-.1,0"/>
      <path class="cls-2" d="m38.19,21.59s-.07,0-.1,0"/>
      <path class="cls-2" d="m38.59,21.59s-.07,0-.1,0"/>
      <path class="cls-2" d="m38.99,21.59s-.07,0-.1,0"/>
      <path class="cls-2" d="m39.39,21.59s-.07,0-.1,0"/>
      <path class="cls-2" d="m40.2,21.59s-.07,0-.1,0"/>
      <path class="cls-2" d="m40.6,21.59s-.07,0-.1,0"/>
      <path class="cls-2" d="m41,21.59s-.07,0-.1,0"/>
      <path class="cls-2" d="m41.4,21.59s-.07,0-.1,0"/>
      <path class="cls-2" d="m17.29,21.59s-.07,0-.1,0"/>
      <path class="cls-2" d="m42.2,21.59s-.07,0-.1,0"/>
      <path class="cls-2" d="m43.01,21.59s-.07,0-.1,0"/>
      <path class="cls-2" d="m43.41,21.59s-.07,0-.1,0"/>
      <path class="cls-2" d="m44.21,21.59s-.07,0-.1,0"/>
      <path class="cls-2" d="m5.64,21.59s-.07,0-.1,0"/>
      <path class="cls-2" d="m1.62,21.59h-.1"/>
      <path class="cls-2" d="m5.24,21.59s-.07,0-.1,0"/>
      <path class="cls-6" d="m.31,24.09s.07,0,.1,0"/>
      <path class="cls-2" d="m4.83,21.59s-.07,0-.1,0"/>
      <path class="cls-3" d="m103.03,21.54s.05-.07.08-.1"/>
      <path class="cls-4" d="m18.71,24.32s-.02-.06-.03-.1"/>
      <path class="cls-2" d="m4.43,21.59s-.07,0-.1,0"/>
      <path class="cls-2" d="m4.03,21.59s-.07,0-.1,0"/>
      <path class="cls-9" d="m18.72,41.2s.03-.02.03-.03c0-.03-.02-.05-.02-.08v.11Z"/>
      <path class="cls-2" d="m3.23,21.59s-.07,0-.1,0"/>
      <path class="cls-17" d="m45.91,44.59s0-.08-.01-.12c0,.01-.03.03-.03.04,0,.03.02.05.04.08Z"/>
      <path class="cls-2" d="m17.69,21.6s-.07,0-.1,0"/>
      <path class="cls-2" d="m16.89,21.59s-.07,0-.1,0"/>
      <path class="cls-2" d="m16.49,21.59s-.07,0-.1,0"/>
      <g>
        <path class="cls-11" d="m112.31.5s-.04,0-.06,0c-.04,0-.07,0-.11,0-.22-.02-.45-.03-.67-.05-.15.02-.3.04-.45.06-.03.01-.07.02-.1.03-.28.16-.56.31-.84.47-.22.37-.43.74-.65,1.12-.01.07-.02.14-.03.22-.01.03-.03.06-.04.09,0,.06,0,.12,0,.18,0,.04,0,.07,0,.11-.02.06-.04.11-.06.17,0,.06,0,.11,0,.17,0,.21,0,.42.01.64.02.24-.07.34-.31.31-.08-.01-.17,0-.25-.01-.13,0-.26,0-.39,0-.2,0-.31.07-.28.29.02.14,0,.29,0,.44,0,.3.24.2.4.23h.22c.06,0,.11,0,.17,0,.13.02.26.03.39.05.03.02.06.05.09.07,0,.14-.01.29-.02.43,0,.31,0,.63,0,.94h0s0,.08,0,.12h0c0,.22,0,.43.01.65,0,.22,0,.43,0,.65,0,.88-.02,1.76-.03,2.65,0,.03,0,.07.01.1,0,.08,0,.16,0,.23-.03.16.02.24.2.22.08,0,.16,0,.24,0,.13,0,.26,0,.39,0,.1,0,.2-.02.34-.03v-4.76l-.02-.33h0s0-.04,0-.06h0s0,0,0,0c0,0,0,0,0,0,0-.15.01-.29.02-.44-.01-.11-.02-.22-.03-.33.02-.05.04-.1.06-.15.05,0,.09,0,.14,0,.13,0,.26,0,.39,0,.15,0,.3,0,.45,0,.06,0,.11,0,.17,0,.17,0,.33,0,.5-.01,0-.24,0-.48.01-.71,0-.07-.01-.14-.02-.21-.05-.01-.11-.03-.16-.04-.06,0-.12,0-.18.01-.01,0-.02,0-.04,0-.02,0-.04,0-.06,0-.06,0-.11,0-.17,0-.02,0-.04,0-.06,0-.06,0-.11,0-.17,0-.02,0-.04,0-.06,0-.06,0-.11,0-.17,0h-.28c-.16-.02-.41.06-.33-.26,0-.2,0-.41,0-.61v-.28c.02-.09.03-.19.04-.28.05-.79.55-1.2,1.34-1.1l.55.1s0-.04,0-.06c0-.17,0-.33,0-.5,0-.14,0-.29-.01-.43-.04-.02-.07-.05-.11-.07Z"/>
        <path class="cls-11" d="m69.23,3.22s0-.08,0-.11c0-.04,0-.07,0-.11,0-.04,0-.08,0-.11,0-.04,0-.07,0-.11,0-.04,0-.08,0-.11,0-.04,0-.07,0-.11,0-.04,0-.08,0-.11,0-.05,0-.11,0-.16,0-.02,0-.04,0-.06,0-.36-.01-.73-.02-1.09-.44,0-.89-.02-1.33-.02-.11.2-.23.39-.33.59-.14.27-.25.55-.38.82,0,.02,0,.03-.02.04-.81,1.8-1.62,3.59-2.44,5.39,0,.02-.01.04-.02.05-.14.38-.29.76-.43,1.14-.15-.02-.25-.17-.39-.63-.02-.05-.04-.1-.06-.16-.13-.3-.25-.6-.38-.9-.07-.15-.14-.3-.21-.45,0-.02-.01-.04-.02-.05-.01-.02-.02-.04-.03-.05,0-.06-.01-.11-.02-.17-.03-.06-.07-.11-.1-.17-.02-.06-.04-.11-.07-.17-.15-.33-.31-.66-.46-.99l-.1-.23c-.04-.09-.09-.18-.13-.27-.01-.04-.03-.07-.04-.11-.08-.17-.15-.34-.23-.51-.07-.16-.15-.33-.22-.49-.03-.08-.07-.15-.1-.23-.02-.09-.04-.18-.06-.27-.04-.04-.07-.08-.11-.12h-.01s0-.02,0-.02c-.02-.03-.03-.06-.05-.09-.04-.1-.08-.2-.12-.3l-.05-.09s-.01-.03-.02-.05c-.03-.08-.07-.15-.1-.23-.05-.13-.11-.26-.16-.39-.07-.17-.15-.34-.22-.51l-.08-.18c-.12-.06-.23-.11-.35-.17-.03,0-.05,0-.08,0-.33,0-.66-.01-.99,0-.08,0-.16.06-.25.09,0,.43.03.87.03,1.3,0,2.78,0,5.55,0,8.33,0,.06.01.13.02.19.02,0,.03,0,.04.02.35,0,.7-.02,1.05-.03h.03s.03,0,.03,0c-.08-.06.29-.15,0-.2,0-.11,0-.23.01-.34v-3.89c-.01-.74-.02-1.48-.03-2.22,0-.04,0-.08,0-.12,0-.02,0-.04,0-.05,0-.31,0-.63-.01-.94.07,0,.14,0,.21,0,.38.85.75,1.7,1.13,2.54.04.09.07.19.1.28.06.14.12.28.18.42.27.62.55,1.24.82,1.85.07.14.14.29.21.43.04.09.09.19.13.28.15.35.3.71.45,1.06v.02c.04.07.07.13.1.2.07.15.14.3.21.45,0,.01,0,.03,0,.04,0,0,0,0,0,0,.15.32.44.17.68.2.03-.01.07-.02.1-.03.13-.29.26-.59.39-.88l.04-.1c.42-.96.85-1.92,1.27-2.88.16-.35.31-.7.47-1.06,0-.02.01-.04.02-.06.01-.02.02-.04.03-.06,0,0,0,0,0,0,.05-.13.1-.26.15-.39.03-.06.05-.11.08-.17l.08-.21c.03-.06.06-.12.09-.18.03-.07.05-.14.08-.21.24-.56.45-1.13.81-1.64.05.11.06.21.06.3,0,2.43,0,4.86,0,7.28,0,.1.07.19.11.29.06,0,.11,0,.17,0h.11c.19,0,.37,0,.56,0,.06-.06.16-.12.16-.18.02-.26.01-.51.02-.77,0-.04,0-.08,0-.11,0-.11,0-.22,0-.33,0-.04,0-.08,0-.11,0-.05,0-.11,0-.16v-.06c0-.05,0-.11,0-.16,0-.02,0-.04,0-.06,0-.04,0-.07,0-.11,0-.04,0-.08,0-.11,0-.04,0-.07,0-.11,0-.04,0-.08,0-.11,0-.04,0-.07,0-.11v-.11h0v-.11s0-.08,0-.11c0-.04,0-.07,0-.11,0-.04,0-.08,0-.11,0-.04,0-.07,0-.11v-.11s0-.07,0-.11v-.34h0v-.11s0-.08,0-.11v-.11s0-.08,0-.11c0-.04,0-.07,0-.11v-.11h0v-.11s0-.08,0-.11c0-.04,0-.07,0-.11v-.22s0-.08,0-.11c0-.04,0-.07,0-.11,0-.04,0-.08,0-.11,0-.04,0-.07,0-.11v-.44s0-.08,0-.11c0-.04,0-.07,0-.11,0-.04,0-.08,0-.11,0-.04,0-.07,0-.11v-.11h0v-.11s0-.08,0-.11v-.11s0-.08,0-.11v-.11s0-.08,0-.11v-.11s0-.08,0-.11v-.33s0-.08,0-.11c0-.04,0-.07,0-.11Z"/>
        <path class="cls-11" d="m92.94,6.83c0-.05-.01-.11-.02-.16-.11-.35-.21-.71-.32-1.06-.08-.15-.16-.29-.24-.44-.04-.05-.07-.1-.11-.16l-.34-.38h0,0s-.04-.03-.06-.05h0s0,0,0,0c-.13-.09-.26-.19-.39-.28-.22-.1-.44-.2-.66-.31-.21-.05-.42-.1-.64-.15-.07,0-.13-.01-.2-.02-.06,0-.11,0-.17,0-.04,0-.07,0-.11,0-.06,0-.11,0-.17,0h-.03s-.03,0-.03,0c-.18.01-.37.02-.55.03-.2.05-.41.1-.61.15-.07.02-.13.04-.2.06-.81.36-1.42.93-1.8,1.74h0c-.03.06-.05.13-.08.19-.02.15-.05.3-.07.45-.07.45-.15.9-.19,1.36-.02.3.09.61.14.91,0,.05.02.09.02.14.14.4.33.76.57,1.09.08.11.17.22.26.32.18.15.37.3.55.45.15.08.3.15.45.23l.33.12c.24.05.48.1.72.16.07,0,.15,0,.22.01.06,0,.11,0,.17,0,.04,0,.07,0,.11,0,.07,0,.15,0,.22,0,.08,0,.16,0,.24-.01.03-.01.06-.02.09-.04.06,0,.13-.01.19-.02.15-.04.3-.09.44-.14.14-.05.28-.11.42-.18.27-.14.52-.31.76-.52l.2-.21c.19-.32.39-.63.58-.95,0,0,0-.01,0-.01.02-.05.04-.1.06-.15,0-.02.01-.03.02-.05s.01-.03.02-.05c.04-.17.08-.34.12-.51.01-.39.03-.77.04-1.16v-.16s0-.03,0-.05c0-.06,0-.12,0-.18Zm-1.25,1.64c-.09.72-.68,1.54-1.56,1.72-.77.15-1.42,0-2.03-.45-.4-.3-.62-.71-.75-1.17-.11-.37-.14-.76-.17-.97.03-1.03.28-1.79.97-2.33.7-.55,1.5-.59,2.29-.28.79.31,1.16,1,1.25,1.8.06.55.07,1.13,0,1.68Z"/>
        <path class="cls-11" d="m107.24,6.44c-.01-.06-.03-.11-.04-.17,0-.02,0-.04,0-.06,0-.02,0-.04-.01-.06-.02,0-.02-.02-.02-.04,0-.04-.02-.08-.03-.12l-.4-.82c-.04-.05-.08-.11-.11-.16-.26-.24-.53-.48-.79-.72h0s-.03,0-.03-.02c-.04-.02-.07-.04-.11-.06-.06-.03-.11-.06-.17-.09-.02,0-.04-.01-.05-.02-.02-.01-.04-.03-.06-.04,0,0,0,0,0,0-.04-.01-.08-.02-.11-.03-.07-.02-.15-.05-.22-.07-.06-.02-.13-.04-.19-.06h0s-.09-.02-.14-.03c-.05-.01-.1-.03-.15-.04-.1,0-.2,0-.3-.01-.04,0-.07,0-.11,0-.04,0-.08,0-.12,0-.04,0-.07,0-.11,0-.04,0-.08,0-.11,0-.11,0-.22,0-.33.01-.07.01-.14.02-.22.03h0c-.13.03-.26.06-.39.09-.09.02-.18.04-.26.06-.1.03-.2.07-.3.1-.07.04-.14.08-.21.12l-.35.21c-.09.07-.19.15-.28.22-.1.1-.19.2-.29.3-.03.03-.06.06-.09.09-.18.34-.37.68-.55,1.02-.01.05-.03.1-.04.15-.02.07-.03.15-.05.22h0s-.02.07-.03.1c-.02.07-.03.13-.05.2h0s.02,0,.02,0v.02c-.03.18-.06.37-.09.55,0,0,0,0,0,.01,0,.2,0,.4.01.6h0c.03.17.05.33.08.5,0,0,0,.02,0,.02h0s0,0,0,0c.02.1.05.2.07.3.02.06.03.11.05.17.24.65.61,1.21,1.15,1.65.2.12.4.23.6.35.06.02.11.04.17.06.11.04.22.07.33.11.04,0,.08.01.12.02.03.01.05.02.08.03.12.02.24.04.37.07.32,0,.63,0,.95,0,.02,0,.05,0,.07,0,.05-.01.1-.03.15-.04.02,0,.04,0,.06,0,.71-.18,1.34-.48,1.85-1.02.07-.09.15-.17.22-.26.2-.48.41-.96.61-1.44.01-.07.03-.15.04-.22,0-.48,0-.96,0-1.44-.02-.11-.04-.22-.06-.33h0Zm-1.47,2.79c-.3.52-.71.82-1.29.96-.78.19-1.48,0-2.07-.48-.27-.22-.51-.56-.62-.89-.36-1.08-.34-2.15.32-3.13.32-.47.79-.76,1.36-.83.61-.08,1.19-.05,1.72.35.7.53.91,1.27.96,2.09,0,.08,0,.17,0,.25-.02.58-.06,1.15-.36,1.68Z"/>
        <path class="cls-11" d="m99.01,8.72s0-.04,0-.06c-.02-.06-.03-.11-.05-.17-.06-.11-.12-.22-.19-.33-.06-.07-.11-.15-.17-.22-.04-.04-.08-.08-.12-.11-.05-.04-.09-.08-.14-.11-.11-.07-.22-.13-.33-.2-.24-.12-.49-.24-.73-.36-.24-.1-.48-.19-.72-.29-.1-.05-.2-.1-.3-.15l-.55-.45c-.28-.5-.19-.87.29-1.21.15-.06.29-.13.44-.19.24-.01.48-.02.73-.04.13.01.26.03.39.04l.28.06s.04,0,.06.01c.02.01.05.02.07.04,0,0,0-.01,0-.01.19.08.37.16.56.24.02,0,.03,0,.04.02.08,0,.15,0,.23,0,0-.02,0-.04,0-.06,0-.04,0-.07,0-.11,0-.06,0-.11,0-.17,0-.04,0-.07,0-.11,0-.03,0-.06,0-.08,0-.03,0-.06,0-.08,0-.09,0-.19,0-.28,0-.05,0-.1-.01-.15h0s0,0,0,0c0,0,0,0,0,0,0,0,0,0,0,0-.02-.02-.05-.04-.07-.06-.11-.04-.21-.08-.32-.11-.15-.04-.3-.08-.45-.11-.04,0-.07,0-.11,0-.05-.01-.1-.02-.15-.04-.04,0-.09,0-.13,0-.06,0-.11,0-.17,0-.04,0-.07,0-.11,0-.06,0-.11,0-.17,0-.07,0-.15,0-.22,0-.07,0-.14.02-.22.03l-1.06.31c-.09.04-.17.08-.26.12-.38.3-.72.64-.9,1.11,0,.04-.01.07-.02.11-.01.04-.03.07-.04.11,0,0,0,0,0,0h0s0,.07-.01.11c0,.06,0,.11,0,.17h0c.09.29.17.59.26.88l.04.06c.06.07.11.15.17.22.05.05.11.11.16.16.13.09.27.19.4.28.02,0,.03,0,.04.02l.39.21s.04,0,.05.01c.14.07.28.13.42.2.14.06.28.13.42.19.02.01.04.02.06.04,0,0,0,0,0,0,.1.05.21.1.31.14.02,0,.03.01.03.03.06.03.11.06.17.09.03.02.07.04.1.07.1.09.2.19.3.28l.09.17.1.45c-.03.11-.07.22-.1.33-.15.13-.3.26-.45.39-.45.18-.92.23-1.39.1-.03-.01-.06-.02-.09-.04h0s0,0,0,0c0,0,0,0,0,0h-.02c-.23-.06-.45-.12-.68-.19-.15-.08-.3-.16-.46-.24-.05-.03-.1-.06-.14-.1-.13-.05-.17,0-.17.13,0,.33,0,.65,0,.98.15.07.3.15.45.22.1.03.19.06.29.09.05.01.11.02.16.04l.09.04c.08,0,.16.01.24.02.19.02.37.04.56.05.06,0,.11,0,.17,0,.09,0,.19,0,.28,0,.06-.01.11-.03.17-.04.09,0,.18-.01.27-.02.06-.01.12-.03.17-.04l.11-.02s.08-.03.11-.05c.04-.02.07-.03.11-.05.03,0,.05-.01.08-.02.25-.14.51-.29.76-.43.02-.02.04-.04.06-.06.09-.09.18-.19.27-.28l.22-.33c.02-.07.05-.15.07-.22.01-.04.02-.07.04-.11-.01-.26-.03-.52-.04-.78,0-.02,0-.04,0-.06Z"/>
        <polygon class="cls-11" points="98.78 4.18 98.78 4.18 98.78 4.18 98.78 4.18 98.78 4.18 98.78 4.18"/>
        <path class="cls-11" d="m79.64,9.85c-.3.15-.64.24-.96.36-.15.02-.3.03-.45.05-.03,0-.07,0-.1,0-.08-.01-.15-.03-.23-.04-.02,0-.04,0-.05,0-.06-.01-.11-.03-.17-.04-.13-.04-.26-.07-.39-.11-.1-.05-.19-.1-.29-.15-.09-.06-.18-.12-.27-.19-.02-.02-.03-.05-.05-.07,0,.01,0,.02-.01.03,0,0,0,0,0,0h0s0,0,0,0c-.17-.23-.34-.45-.51-.68-.02-.06-.03-.11-.05-.17-.05-.1-.09-.2-.14-.3,0,0,0,0,0,0,0,0,0,0,0,0,0-.04-.02-.08-.03-.13-.01-.06-.03-.11-.04-.17-.15-.83,0-1.6.44-2.33.24-.4.59-.65.98-.87.14-.02.28-.05.41-.07.03-.02.06-.04.09-.05.04,0,.07-.02.11-.02l.61-.03c.13.02.26.04.39.06.02.02.04.03.07.05h0c.09.02.18.04.27.06.08.03.15.07.23.1.04.02.07.04.11.06.06.02.11.04.17.05h0s.07.03.11.05c.04-.07.1-.13.11-.21,0-.07.01-.15.01-.23,0-.08,0-.15,0-.23,0-.13,0-.26,0-.39-.04-.04-.08-.08-.12-.11-.02,0-.04-.01-.06-.02l-.07-.03h-.02s-.02,0-.02,0c-.22-.06-.45-.12-.67-.17-.05-.01-.1-.02-.15-.04-.12,0-.24-.01-.35-.02-.05,0-.11,0-.16,0-.22.01-.44.02-.67.03-.19.05-.37.09-.56.14l-.28.07c-.24.13-.48.26-.73.39h0c-.18.16-.37.33-.55.49-.18.27-.36.54-.55.81,0,0,0,.01,0,.02,0,0,0,0-.01.01-.05.11-.09.23-.14.34-.02.06-.03.11-.05.17-.07.27-.13.55-.2.82h0s0,0,0,0c0,.09,0,.19,0,.28h0s0,0,0,0c.02.33.03.67.05,1,0,.06.01.11.02.17.03.09.06.19.09.28.01.05.03.11.04.16.23.39.45.78.68,1.16.34.26.69.51,1.03.77.13.05.25.09.38.14,0,0,.01,0,.01,0h.01s.1.04.15.06c.03.01.06.03.09.04.08,0,.16.02.24.02.06.01.11.02.17.04.02,0,.04,0,.06,0h.66c.11-.02.23-.04.34-.05h.11c.07-.02.15-.04.22-.05.26-.1.52-.19.78-.29.06-.07.12-.15.18-.22,0-.07,0-.15,0-.22,0-.09,0-.19,0-.28.02-.07.04-.15.06-.22-.12-.16-.22-.12-.39-.03Z"/>
        <polygon class="cls-11" points="76.69 9.64 76.68 9.64 76.69 9.65 76.69 9.64 76.69 9.64"/>
        <polygon class="cls-11" points="84.35 5.05 84.36 5.05 84.35 5.05 84.35 5.05"/>
        <path class="cls-11" d="m85.43,4.06h0s-.08-.08-.12-.12c-.02,0-.04,0-.07-.01-.11-.02-.22-.03-.33-.05-.44-.02-.84.13-1.21.35-.09.09-.18.17-.27.26-.1.13-.2.26-.3.4-.09.13-.18.25-.28.4,0-.37.01-.71,0-1.05,0-.1-.11-.2-.16-.3-.04,0-.07,0-.11-.01-.06,0-.11,0-.17,0h-.11c-.11,0-.22,0-.33,0-.04,0-.07,0-.11,0-.04,0-.07.01-.11.02-.02.02-.03.04-.05.05,0,.05,0,.11,0,.16,0,.06,0,.12,0,.18,0,.11,0,.22,0,.33,0,.09.02.18.02.27,0,1.67,0,3.34,0,5,0,.04,0,.07,0,.11,0,.26-.02.52-.03.78h0s0,0,0,0c0,.07,0,.15.01.22.03,0,.07,0,.1.01.28,0,.56,0,.85-.02.08,0,.15-.1.22-.16h0c.03-.08.06-.15.09-.23,0-.02,0-.03,0-.05-.03-.11-.06-.22-.09-.34.02-1.1.03-2.19.05-3.29,0-.07.03-.14.05-.21h0c.02-.09.04-.19.05-.28.17-.65.45-1.23,1.15-1.47,0,0,0,0,0,0h0s.06.02.09.03c.03,0,.06,0,.09,0,0,0,0,0,0,0h0c.12-.03.24-.06.35-.09.02,0,.03,0,.04,0,.02,0,.04,0,.06,0,.02,0,.04,0,.05,0l.17.03c.06.01.11.03.17.04.04,0,.07.02.11.02.05,0,.11-.01.16-.02-.01-.2-.02-.4-.04-.6,0-.13,0-.26,0-.39Z"/>
        <path class="cls-11" d="m72.86,10.22c0-.83-.01-1.66-.01-2.49,0-1.19,0-2.38,0-3.57,0-.04,0-.07,0-.11-.02-.02-.04-.04-.06-.06-.04,0-.07,0-.11,0-.2,0-.41,0-.61,0h-.17c-.05,0-.11,0-.16.01-.02,0-.04,0-.06,0,0,.09,0,.18-.01.28.01,0,.03,0,.04,0h0s-.01.07-.02.1c0,.2,0,.41,0,.61h0c0,.3.02.61.02.91,0,1.36,0,2.71,0,4.07,0,.1-.01.2-.02.3v.16c0,.05,0,.11,0,.16,0,.02,0,.05,0,.07,0,.05-.01.1-.02.15h0s0,0,0,0c0,.04,0,.08-.01.12v.1c.06,0,.11.01.16.02l1.01-.06c0-.11,0-.22,0-.33,0-.11,0-.22,0-.34v-.11Z"/>
        <path class="cls-11" d="m72.49.73s-.03,0-.04,0c-.07,0-.15,0-.22,0-.05.01-.11.03-.16.04-.08.04-.15.08-.23.13-.07.08-.13.16-.2.24-.02.05-.04.11-.06.16,0,.1,0,.2,0,.3.11.16.22.31.33.47h0,0c.11.04.22.08.33.12.16-.05.33-.1.49-.15.05-.05.1-.09.16-.14.16-.26.19-.53.05-.81-.14-.11-.29-.23-.43-.34Z"/>
        <path class="cls-11" d="m115.87,10.21c-.15-.08-.3-.16-.46-.24-.05-.08-.11-.17-.16-.25-.03-.09-.06-.18-.08-.27v-.02s.02,0,.02,0c-.01-.05-.03-.1-.04-.15,0-.02,0-.04,0-.06-.02-.15-.05-.31-.05-.46,0-1.18,0-2.36,0-3.54,0-.23.08-.29.29-.28.18.01.37,0,.55.01.31-.01.62-.02.93-.03,0-.3,0-.61,0-.91-.09,0-.18-.02-.27-.03-.06,0-.11,0-.17,0-.09,0-.19,0-.28,0-.06,0-.11,0-.17,0-.02,0-.04,0-.06,0-.05,0-.11,0-.16,0h0s-.04,0-.06,0h-.16s-.04,0-.06,0c-.06,0-.11,0-.17,0-.04,0-.09-.01-.13-.02-.03-.08-.09-.17-.09-.25,0-.59,0-1.18,0-1.78-.08,0-.15,0-.22.01l-.22.08c-.17.05-.34.11-.51.16-.05.04-.11.08-.16.12,0,.38-.01.77-.02,1.15,0,.03,0,.05,0,.08q.01.49-.5.46c-.19,0-.37,0-.56,0-.05,0-.11,0-.16.01-.01.05-.02.11-.03.16,0,.04,0,.08,0,.12v.11c0,.06,0,.11,0,.17,0,.11,0,.22,0,.33.01.02.02.03.03.05h1.21c0,.13,0,.23,0,.34,0,1.25-.02,2.5.01,3.74.01.41.11.84.24,1.24.04.11.11.21.19.31.08.1.17.19.25.29.29.11.58.21.88.32h.89c.09-.04.18-.06.27-.09.04-.01.08-.03.12-.04.02-.33.03-.66.05-.99-.02,0-.03,0-.05,0-.29.19-.61.23-.95.16Z"/>
      </g>
    </g>
    <g>
      <path class="cls-10" d="m50.9,44.12v-1.58h-.63v-.21h1.51v.21h-.63v1.58h-.25Z"/>
      <path class="cls-10" d="m52.03,44.12v-1.79h.38l.45,1.27c.04.12.07.21.09.27.02-.07.06-.16.1-.29l.46-1.25h.34v1.79h-.24v-1.5l-.55,1.5h-.23l-.55-1.53v1.53h-.24Z"/>
    </g>
  </g>
</svg>