<?xml version="1.0" encoding="UTF-8"?>
<svg id="Layer_1" data-name="Layer 1" xmlns="http://www.w3.org/2000/svg" viewBox="0 0 191.65 33.55">
  <defs>
    <style>
      .cls-1, .cls-2, .cls-3, .cls-4, .cls-5, .cls-6, .cls-7, .cls-8 {
        fill: none;
      }

      .cls-2 {
        stroke: #ef3c54;
      }

      .cls-2, .cls-3, .cls-4, .cls-5, .cls-6, .cls-7, .cls-8 {
        stroke-linecap: round;
        stroke-linejoin: round;
        stroke-width: 0px;
      }

      .cls-3 {
        stroke: #efaba6;
      }

      .cls-4 {
        stroke: #e93047;
      }

      .cls-5 {
        stroke: #f0546d;
      }

      .cls-6 {
        stroke: #3e342d;
      }

      .cls-7 {
        stroke: #433832;
      }

      .cls-9 {
        fill: #efaba6;
      }

      .cls-10 {
        fill: #f27c9a;
      }

      .cls-11 {
        fill: #eb1c42;
      }

      .cls-12 {
        fill: #e93047;
      }

      .cls-13 {
        fill: #ea1c42;
      }

      .cls-14 {
        fill: #f0546d;
      }

      .cls-15 {
        fill: #f05b75;
      }

      .cls-16 {
        fill: #ef3c54;
      }

      .cls-17 {
        fill: #736e6b;
      }

      .cls-18 {
        fill: #c9c7c5;
      }

      .cls-19 {
        fill: #ae6c7b;
      }

      .cls-20 {
        fill: #433832;
      }

      .cls-21 {
        fill: #40352e;
      }

      .cls-22 {
        fill: #41362f;
      }

      .cls-23 {
        fill: #453a34;
      }

      .cls-24 {
        fill: #3e342d;
      }

      .cls-25 {
        fill: #2b1e16;
      }

      .cls-26 {
        fill: #3c2f27;
      }

      .cls-27 {
        fill: #3c322b;
      }

      .cls-28 {
        fill: #605750;
      }

      .cls-29 {
        fill: #4f453f;
      }

      .cls-30 {
        fill: #4e453f;
      }

      .cls-8 {
        stroke: #3c2f27;
      }
    </style>
  </defs>
  <path class="cls-1" d="m10.08,25.8h0c-.1,0-.19,0-.28,0,.09,0,.19,0,.28,0Z"/>
  <path class="cls-1" d="m79.18,14.55c-.06.38-.12.77-.17,1.15h0s0,0,0,0c.06-.38.11-.77.17-1.15Z"/>
  <path class="cls-1" d="m79.01,17.76c.03.22.05.43.08.65-.03-.22-.05-.43-.08-.65h0Z"/>
  <path class="cls-1" d="m34.83,10.72s.03-.09.05-.14c-.02.05-.04.09-.05.14h0Z"/>
  <path class="cls-1" d="m66.73,22.07c.15.09.3.17.48.23.17.11.34.23.52.34-.18-.11-.35-.23-.52-.34-.17-.06-.33-.14-.48-.23Z"/>
  <path class="cls-1" d="m66.01,21.43c.17.21.37.39.59.55-.22-.16-.41-.34-.59-.55Z"/>
  <path class="cls-1" d="m92.14,22.03h0c-.15-.21-.31-.41-.45-.6.14.19.29.39.45.59,0,0,0,0,0,0Z"/>
  <path class="cls-1" d="m123.82,12.01c.03-.07.05-.15.08-.23.12-.19.24-.39.35-.58-.12.19-.24.39-.35.58-.03.07-.06.15-.08.23Z"/>
  <path class="cls-1" d="m64.87,19.27c.06.04.15.07.25.09.03.09.06.18.1.27-.03-.09-.06-.18-.1-.27-.11-.02-.2-.05-.25-.09Z"/>
  <path class="cls-1" d="m129.39,8.08s-.01.02-.02.02h-1.85c.61,0,1.23,0,1.85,0,0,0,.01-.02.02-.02Z"/>
  <path class="cls-1" d="m123.79,11.68c.21-.38.43-.77.64-1.15-.21.38-.43.77-.64,1.15-.14.07-.26.08-.37.06.11.02.24,0,.38-.06Z"/>
  <path class="cls-1" d="m83.91,21.68c.33.29.7.53,1.11.72.29.27.64.41,1,.5-.36-.1-.7-.23-1-.5-.41-.18-.78-.43-1.11-.72Z"/>
  <path class="cls-1" d="m124.5,10.04c0,.14-.02.3-.07.49h0c.05-.19.07-.35.07-.49Z"/>
  <path class="cls-1" d="m98.12,24.97c.21,0,.42,0,.64,0-.21,0-.42,0-.64,0Z"/>
  <path class="cls-1" d="m28.6,10.78s.07-.04.11-.05c.08,0,.17,0,.25,0-.08,0-.17,0-.25,0-.04.02-.07.04-.11.05Z"/>
  <path class="cls-1" d="m50.38,22.84h0c.07,0,.14,0,.2,0-.07,0-.14,0-.2,0Z"/>
  <path class="cls-1" d="m.18,30.07H.18c-.03-.15-.08-.31-.08-.46,0,.15.05.31.08.46Z"/>
  <path class="cls-1" d="m.38,20.67c-.07-.01-.14-.03-.21-.04-.05,0-.11,0-.16-.01.05,0,.11,0,.16.01.07.01.14.03.21.04Z"/>
  <path class="cls-1" d="m3.69,12.95s-.06,0-.09,0c-.93,0-1.86,0-2.79,0,.93,0,1.86,0,2.79,0,.03,0,.06,0,.09,0Z"/>
  <path class="cls-1" d="m.26,29.79c-.02.07-.04.14-.06.2.02-.07.04-.14.06-.2-.02-1.26-.05-2.52-.06-3.78.01,1.26.04,2.52.06,3.78Z"/>
  <path class="cls-1" d="m.31,17.08c.02,1.03,0,2.05-.12,3.08,0,.06,0,.13-.01.19v-.19c.14-1.03.16-2.05.13-3.08Z"/>
  <path class="cls-1" d="m43.73,12.37c-.31.63-.55,1.29-.7,2-.03.21-.07.42-.1.63.03-.21.07-.42.1-.63.16-.7.39-1.37.7-2Z"/>
  <path class="cls-1" d="m24.56,25.8c-.24,0-.48,0-.72,0-4.5,0-9,0-13.5,0,4.5,0,9,0,13.5,0,.24,0,.48,0,.72,0Z"/>
  <path class="cls-1" d="m6.45,10.76s.03-.01.04-.02c.05,0,.11,0,.16,0-.05,0-.11,0-.16,0-.01,0-.03.02-.04.02Z"/>
  <path class="cls-1" d="m64.85,27.44c0-.94,0-1.88,0-2.82,0-.03,0-.06,0-.09,0,.03,0,.06,0,.09v2.82Z"/>
  <path class="cls-1" d="m73.07,17.84h0c-.01.13-.02.25-.04.37.02-.12.03-.25.04-.37Z"/>
  <path class="cls-1" d="m149.68,15.12c0,.07.02.15.03.22h0c0-.07-.02-.15-.03-.22Z"/>
  <path class="cls-1" d="m2.74.23c.08-.02.15-.05.23-.07.05.02.1.04.15.06-.05-.02-.1-.04-.15-.06-.07.03-.15.05-.23.07Z"/>
  <path class="cls-1" d="m64.85,23.02c.43.42.86.83,1.29,1.25h0c-.43-.42-.86-.83-1.29-1.25Z"/>
  <path class="cls-1" d="m.2,3.67v-.11c-.07-.12-.13-.23-.2-.35.07.12.13.23.2.35,0,.04,0,.08,0,.11Z"/>
  <path class="cls-1" d="m64.85,24.45h0s-.04.06-.07.09c.02-.03.04-.06.07-.09Z"/>
  <path class="cls-1" d="m93.19,23.13c-.23-.25-.45-.48-.67-.71,0,0-.01-.01-.02-.02,0,0,.01.01.02.02.22.23.44.47.67.71Z"/>
  <path class="cls-1" d="m176.14,15.43c-.14.17-.31.29-.58.28h0c.27.02.44-.11.58-.28Z"/>
  <path class="cls-1" d="m166.66,24.77c-.23.11-.46.2-.7.27.24-.08.47-.17.7-.27Z"/>
  <path class="cls-1" d="m179.4,18.01c-.16.15-.31.3-.46.45.15-.15.31-.3.46-.45,0,0,0,0,0,0Z"/>
  <path class="cls-1" d="m175.39,15.53c0-.07.02-.13.03-.2,0,.07-.02.13-.03.2h0Z"/>
  <path class="cls-1" d="m167,24.6c.34-.18.66-.38.97-.6.12,0,.25,0,.37,0-.29.3-.61.54-.95.74.34-.2.66-.45.95-.74-.12,0-.25,0-.37,0-.31.22-.64.43-.97.6Z"/>
  <path class="cls-1" d="m180.85,16.45c-.21.21-.41.43-.62.65-.27.3-.55.6-.82.91.27-.3.55-.6.82-.91.21-.22.42-.44.62-.65Z"/>
  <path class="cls-11" d="m.2,3.67c0,1,0,2,0,3,0,.54.03,1.08.03,1.63,0,.8-.02,1.59-.04,2.39.23.01.47.03.7.04,1.87,0,3.73,0,5.6.01.05,0,.11,0,.16,0h1.01c.09-.1.24-.19.25-.3.04-.29,0-.59.01-.89.03-.89.8-1.69,1.66-1.69,5.23,0,10.45-.02,15.68.01.91,0,1.49.47,1.64,1.37.07.4.07.82.08,1.23,0,.26.11.34.35.33.42-.01.84-.01,1.26-.02.04-.02.07-.04.11-.05.08,0,.17,0,.25,0,1.96,0,3.91,0,5.87-.01h0s.03-.09.05-.14c.02-.05.03-.09.03-.14,0-2.28.02-4.57-.01-6.85,0-.47-.11-.97-.28-1.41-.39-1.01-1.11-1.69-2.21-1.92-1.39.03-2.78.09-4.17.1-8.22,0-16.44,0-24.67,0-.15,0-.3-.07-.46-.13-.05-.02-.1-.04-.15-.06-.07.03-.15.05-.23.07-.15.04-.29.09-.44.13-.22.07-.44.15-.64.25C.85,1.05.39,1.76.18,2.64c-.02.08-.12.14-.18.21v.36c.07.12.13.23.2.35v.11Z"/>
  <path class="cls-13" d="m.18,13.92h0s0,.05,0,.08h0c.04,1.03.1,2.05.12,3.08.02,1.03,0,2.05-.12,3.08v.19c-.02.09-.02.19-.03.28.07.01.14.03.21.04s.14.03.21.03c2.35,0,4.7,0,7.05,0,.08,0,.17-.01.28-.02,0-2.52,0-5.01,0-7.5,0-.28-.18-.26-.36-.23-.27,0-.54,0-.81,0-.06,0-.12,0-.18,0-.06,0-.12,0-.18,0-.78,0-1.56,0-2.34,0-.03,0-.06,0-.09,0-.09,0-.18,0-.27,0-.03,0-.06,0-.09,0-.93,0-1.86,0-2.79,0-.03.02-.07.04-.1.06-.24.03-.47.06-.71.09v.45c.29,0,.34.13.18.36Z"/>
  <path class="cls-15" d="m3.12.22c.15.06.3.13.46.13,8.22,0,16.44.01,24.67,0,1.39,0,2.78-.06,4.17-.1-.15-.09-.31-.17-.46-.26H2.97c0,.05,0,.11,0,.16.05.02.1.04.15.06Z"/>
  <path class="cls-10" d="m.18,20.34c0-.06,0-.13.01-.19.13-1.03.15-2.05.12-3.08-.02-1.03-.09-2.05-.12-3.08h0s-.06,0-.09,0c0,1.87,0,3.74-.01,5.61,0,.18-.06.37-.09.55v.45c.05,0,.11,0,.16.01,0-.09.01-.19.02-.28Z"/>
  <path class="cls-10" d="m.23,8.3c0-.54-.03-1.08-.03-1.63,0-1,0-2,0-3,0-.04,0-.08,0-.11-.07-.12-.13-.23-.2-.35v.71c.03.11.09.22.09.33,0,1.85,0,3.7,0,5.55,0,.12-.06.25-.09.37v.54c.06,0,.13-.02.19-.02.01-.8.03-1.59.04-2.39Z"/>
  <path class="cls-10" d="m.1,29.61c0,.15.05.31.08.46,0-.03.01-.05.02-.08.02-.07.04-.14.06-.2-.02-1.26-.05-2.52-.06-3.78,0-.79,0-1.58.01-2.37,0-.15-.02-.3-.02-.44.03-.11.06-.23.09-.34-.09,0-.18,0-.27-.01v.71c.03.17.09.34.09.51,0,1.85,0,3.7,0,5.55Z"/>
  <path class="cls-19" d="m.1,29.61c0-1.85,0-3.7,0-5.55,0-.17-.06-.34-.09-.51v6.78c.06-.09.12-.17.18-.26-.03-.15-.08-.31-.08-.46Z"/>
  <path class="cls-19" d="m.1,14s.06-.05.08-.08h0c-.06-.09-.12-.18-.18-.27v6.51c.03-.18.09-.37.09-.55,0-1.87,0-3.74.01-5.61Z"/>
  <path class="cls-19" d="m.09,4.25c0-.11-.06-.22-.09-.33v6.25c.03-.12.09-.25.09-.37,0-1.85,0-3.7,0-5.55Z"/>
  <path class="cls-16" d="m.26,29.79c-.02.07-.04.14-.06.2,0,.03-.01.05-.02.08H.18c-.06.09-.12.17-.18.26v.27c.07.15.14.3.2.44.02-.42.04-.83.05-1.25Z"/>
  <path class="cls-14" d="m0,13.56v.09c.06.09.12.18.18.27.16-.23.1-.35-.18-.36Z"/>
  <path class="cls-13" d="m.21,23.64c0,.79-.02,1.58-.01,2.37.01,1.26.04,2.52.06,3.78-.02.42-.04.83-.05,1.25.41,1.75,1.84,2.48,3.15,2.48,9.34.03,18.68.02,28.02,0,.59,0,1.21-.18,1.75-.43,1.34-.61,1.74-1.84,1.77-3.17.05-2.24.01-4.49.01-6.73,0-.11-.02-.23-.03-.32h-7.89c0,.37,0,.72,0,1.06,0,.92-.51,1.57-1.42,1.77-.33.07-.67.07-1.01.1-.24,0-.48,0-.72,0-4.5,0-9,0-13.5,0-.09,0-.18,0-.27,0h0c-.1,0-.19,0-.28,0-.09,0-.18-.01-.27-.03-.52-.08-.96-.34-1.31-.82-.47-.64-.22-1.4-.33-2.11H.27c-.03.11-.06.23-.09.34,0,.15.02.3.02.44Z"/>
  <path class="cls-29" d="m76.73,14.9c-.34-.02-.41-.26-.44-.53,0-.5-.12-.95-.3-1.44-.19-.55-.3-1.12-.65-1.61-.3-.42-.6-.86-.94-1.25-.63-.73-1.46-1.2-2.35-1.55-1.01-.4-2.12-.48-3.12-.26-1.2.26-2.31.86-3.08,1.92-.19.26-.39.58-.8.53-.09-.03-.19-.06-.28-.09-.24.03-.36-.05-.35-.32.02-.43,0-.86,0-1.29,0-.5-.05-.5-.54-.47-.56.03-1.12,0-1.68-.05-.49-.05-.66.05-.66.55,0,6.32,0,12.63,0,18.95,0,.43-.06.85-.13,1.27-.08.47.1.72.56.72.72,0,1.44-.01,2.16,0,.33,0,.4-.11.39-.42-.04-1.63-.06-3.26-.09-4.89,0-.3.2-.33.43-.31v-1.34c.43.42.86.83,1.29,1.25.06-.01.12-.02.18-.02.4,0,.69.31,1.03.48.64.31,1.27.63,2.01.61.65-.02,1.32.03,1.95-.1,1.71-.36,3.07-1.28,3.89-2.84.4-.75.7-1.56,1.01-2.35.08-.2.07-.43.08-.65,0-.3.11-.49.44-.49.04-.26.1-.52.1-.77.01-.88.01-1.76,0-2.65,0-.2-.07-.4-.1-.6Zm-3.44,4c-.35,1.08-.81,2.12-1.66,2.91-.59.56-1.28,1.04-2.16,1.03-.59,0-1.2.14-1.75-.19-.18-.11-.35-.23-.52-.34-.17-.06-.33-.14-.48-.23-.04-.03-.09-.05-.13-.08-.22-.16-.41-.34-.59-.55-.19-.23-.35-.48-.5-.74-.17-.28-.28-.59-.4-.9-.01-.04.07-.11.11-.17-.03-.09-.06-.18-.1-.27-.11-.02-.2-.05-.25-.09-.09-.07-.09-.18.08-.35-.03-.12-.06-.24-.09-.36-.15-.47-.4-.94-.41-1.42,0-.72-.09-1.47.31-2.14.13-.22.19-.48.28-.72,0-.12.01-.23.02-.35.14-.93.68-1.61,1.37-2.2.23-.2.52-.33.78-.49.56-.18,1.12-.44,1.7-.52,1.27-.18,2.16.58,2.99,1.38.72.69,1.08,1.57,1.26,2.52.05.24.15.47.16.71,0,.12-.14.24-.22.36,0,.71,0,1.43-.01,2.14h0s0,0,0,0c.14.07.24.15.29.25.09.17.05.4-.07.8Z"/>
  <path class="cls-30" d="m110.2,13.2c-.35-.09-.45-.34-.44-.67.03-.9-.27-1.73-.79-2.42-.95-1.27-2.26-1.9-3.9-1.91-1.81-.02-3.25.63-4.34,2.07-.1.14-.34.17-.52.25-.06-.05-.16-.09-.16-.14-.02-.6-.02-1.2-.02-1.8-1.24,0-2.49,0-3.73,0,0,.15-.02.3-.02.44,0,4.33,0,8.66,0,12.99,0,1.01,0,2.02,0,3.03,0,.19-.06.42.27.39.32-.14.62-.39.95-.41.21-.01.42-.02.63-.03s.42,0,.64,0c.42,0,.85.01,1.27.01,0-3.57,0-7.14,0-10.71-.26,0-.42-.08-.29-.37.2-.47.4-.93.61-1.39.3-.66.86-1.05,1.49-1.36.33-.15.64-.38.98-.42.54-.05,1.07-.05,1.62.19.44.2.84.43,1.19.74.53.46.82,1.03,1.01,1.72.29,1.06.23,2.13.24,3.19.02,2.65.01,5.29,0,7.94,0,.38.11.48.48.47.97-.02,1.95,0,2.92,0,0-.06.02-.12.02-.18,0-3.67,0-7.33,0-11,0-.2-.06-.4-.09-.61Z"/>
  <path class="cls-29" d="m58.33,14.39c-.05-.46-.1-.88-.36-1.3-.24-.39-.28-.9-.52-1.28-.82-1.29-1.9-2.27-3.33-2.95-1.43-.69-2.89-.68-4.37-.63-.54.02-1.1.24-1.61.45-.76.3-1.5.65-2.12,1.22-.66.6-1.31,1.2-1.7,2.01-.35.72-.62,1.47-.95,2.19-.05.12-.22.18-.33.27-.03.21-.07.42-.1.63.09.14.24.29.25.44.03.64.06,1.28,0,1.91-.1,1.03.16,2.01.43,2.97.17.6.55,1.15.84,1.72.12.23.28.44.4.67.02.05-.09.16-.14.24.36.35.73.71,1.09,1.06.19,0,.44-.07.56.02.84.62,1.74,1.07,2.78,1.22,1.21.18,2.46.24,3.64-.04.89-.21,1.74-.68,2.53-1.17,1-.63,1.8-1.5,2.24-2.62.27-.68.5-1.39.77-2.07.05-.13.23-.22.35-.33.02-.03.05-.06.07-.1.07-.44.15-.88.22-1.32.14-.91.06-1.81-.2-2.7-.15-.17-.41-.32-.43-.51Zm-2.91,1.67c-.02.12-.1.24-.16.36-.03.6-.06,1.19-.09,1.79.04.07.11.15.16.23.05.08.09.15.07.2-.3,1.05-.58,2.12-1.41,2.93-.89.86-1.88,1.46-3.19,1.29-.07,0-.13,0-.2,0s-.14,0-.2,0h0c-.19-.02-.39,0-.57-.04-.06-.01-.12-.03-.17-.05-.74-.35-1.5-.72-2.02-1.37-.33-.4-.55-.89-.8-1.35-.08-.15-.12-.32-.21-.46-.24-.35-.25-.77,0-1.02-.03-.12-.06-.24-.09-.36-.12-.14-.26-.26-.35-.42-.22-.37-.08-1.71.19-2.02.03-.04.11-.04.16-.06.03-.24.06-.48.08-.72-.04-.24-.18-.51-.1-.7.36-.84.67-1.71,1.39-2.34.5-.44.98-.89,1.7-.98.44-.05.88-.23,1.32-.25,1.02-.03,1.9.38,2.64,1.07.7.65,1.26,1.4,1.57,2.3.22.64.43,1.28.32,1.97Z"/>
  <path class="cls-30" d="m153.05,12.75c-.15-.17-.36-.32-.45-.52-.2-.43-.26-.94-.52-1.32-.36-.52-.82-.97-1.28-1.4-.65-.62-1.52-.79-2.35-1.05-.2-.06-.36-.23-.53-.36-.25-.05-.5-.13-.75-.13-.62,0-1.25.03-1.87.05-.12.12-.22.29-.36.33-.31.1-.64.12-.96.2-.79.2-1.57.4-2.35.62-.61.17-.63.58-.42,1.17.09.25.17.5.23.76.1.43.57.63.96.46.51-.22,1.06-.36,1.58-.57.62-.24,1.25-.31,1.92-.31,1.16,0,2.15.48,2.99,1.15.48.38.73,1.11.97,1.72.17.42.16.92.2,1.38.01.17-.03.32-.18.37-.05.02-.11.03-.18.02h0s-.05.06-.08.09h0s.04.09.05.12c.02.11-.05.16-.21.14-.28-.03-.58-.02-.84-.12-1.5-.55-3.04-.49-4.59-.31-.82.09-1.59.36-2.27.8-.83.53-1.5,1.21-1.78,2.21-.07.26-.02.7-.5.71-.02.02-.02.05-.02.08-.02.03-.04.06-.06.1,0,.75,0,1.49,0,2.24.16.2.34.39.46.62.3.53.51,1.13.87,1.61.92,1.22,2.25,1.69,3.74,1.71.57.01,1.15-.05,1.73-.11.23-.02.45-.14.67-.22.59-.24,1.18-.45,1.58-1,.09-.12.42-.08.64-.11.11-.12.2-.25.33-.34.05-.04.15,0,.23,0,.13,0,.26.02.44.03,0,.38-.02.75.01,1.1.01.11.17.28.27.28.68.03,1.37.05,2.05.02.3-.02.6-.17.9-.27,0-3.37.02-6.74,0-10.1,0-.62-.16-1.24-.25-1.86Zm-3,7.29c-.09.53-.36,1.04-.59,1.55-.04.1-.25.12-.38.18-.39.36-.73.8-1.18,1.06-.48.28-1.07.37-1.59.59-.32.14-.59.04-.88-.04-.6-.16-1.2-.3-1.63-.81-.26-.31-.6-.56-.84-.88-.14-.19-.22-.46.08-.63-.03-.09-.05-.18-.08-.27-.44-.07-.51-.3-.39-.7.14-.43.1-.95.32-1.32.27-.46.68-.89,1.12-1.19.91-.62,1.96-.97,3.06-.79.86.14,1.68.46,2.51.73.05.02.06.13.08.24,0,.03.01.06.02.09.06-.01.12-.01.16-.01.15.01.22.11.21.33-.02.62.07,1.26-.03,1.87Z"/>
  <path class="cls-30" d="m83.25,17.84c3.5,0,6.99,0,10.49,0-.03-.86-.06-1.73-.1-2.59-.44,0-.45-.31-.44-.62-.02-.48-.01-.92-.28-1.4-.2-.35-.23-.85-.42-1.27-.44-1.02-1.1-1.85-2-2.52-.81-.6-1.68-1.04-2.66-1.15-1.12-.13-2.26-.29-3.35.21-.4.19-.83.32-1.23.49-.93.39-1.6,1.1-2.18,1.88-.43.57-.8,1.2-1.1,1.84-.23.48-.31,1.04-.45,1.56-.08.41-.15.82-.26,1.22-.02.06-.11.11-.19.16-.03.02-.05.03-.08.05h0s0,0,0,0h0c0,.68,0,1.37,0,2.05h0s0,0,0,0c.02.02.05.04.07.07.08.06.16.13.18.21.13.57.18,1.17.37,1.72.25.71.65,1.36.92,2.06.38,1.02,1.26,1.62,2,2.31.44.41,1.1.6,1.68.84,1.28.53,2.63.43,3.96.35,1.29-.08,2.49-.53,3.51-1.37.17-.14.35-.26.54-.37.37-.23.44-.51.25-.9-.03-.07.02-.17.04-.26,0,0-.01-.01-.02-.02,0-.01-.02-.03-.03-.03,0,0,0,0,0,0h0c-.29.24-.35.04-.41-.15,0-.03-.02-.06-.03-.08-.09-.07-.2-.12-.28-.2-.22-.24-.39-.56-.8-.52-.66.81-1.51,1.27-2.55,1.44-.35.05-.68.19-1.02.29-.1.03-.22.08-.3.05-.35-.13-.72-.19-1.08-.29-.36-.1-.7-.23-1-.5-.41-.18-.78-.43-1.11-.72-.11-.1-.22-.2-.32-.3-.15-.15-.17-.41-.3-.57-.43-.52-.53-1.16-.7-1.77-.02-.08.12-.2.18-.3,0-.18.01-.36.02-.53-.06-.41.22-.36.48-.36Zm-.59-2.68c-.27-.17-.33-.55-.18-.91.37-.92.8-1.8,1.36-2.62.05-.07.08-.16.14-.2.67-.34,1.33-.68,2.01-1.01.09-.04.27-.07.32-.01.32.32.73.31,1.13.3.49.28,1.04.49,1.45.87.68.63,1.06,1.47,1.21,2.39.02.09-.08.21-.12.31,0,.06,0,.12,0,.18.02.06.04.12.05.18.03.23.1.45.09.68,0,.13-.11.27-.17.4.03.24-.05.35-.32.35-2.18,0-4.36,0-6.54,0-.29,0-.37-.12-.34-.37-.04-.18-.07-.35-.11-.53Z"/>
  <path class="cls-29" d="m175.37,20.03c.73-.89,1.5-1.75,2.26-2.62.53-.62,1.05-1.25,1.59-1.86.81-.94,1.65-1.86,2.45-2.81.55-.65,1.06-1.35,1.61-2.01.5-.6,1.02-1.18,1.54-1.77.07-.08.13-.18.22-.32-.16-.03-.25-.07-.35-.07-.93,0-1.86-.02-2.79,0-.55,0-.8.49-1.09.83-.96,1.15-1.89,2.33-2.81,3.51-.56.72-1.08,1.47-1.62,2.2-.08.11-.15.22-.24.32-.14.17-.31.29-.58.28h0c-.06-.06-.11-.12-.17-.17,0-.07.02-.13.03-.2,0-.07.02-.13.02-.2,0-4.29,0-8.59,0-12.88,0-.14-.01-.29-.02-.43h-3.75v.26c0,7.53,0,15.06,0,22.6,0,.1,0,.21.01.31,1.24,0,2.49,0,3.73,0,0-.96.02-1.92.01-2.88,0-.47-.06-.94-.09-1.41-.37-.23-.1-.5.03-.66Z"/>
  <path class="cls-30" d="m124.9,19.3c-.01-.77-.49-1.3-1.01-1.73-1.22-1-2.64-1.66-4.1-2.26-.82-.33-1.57-.86-2.29-1.37-.32-.23-.64-.59-.53-1.08.02-.11.16-.19.24-.28,0-.15,0-.3.01-.45-.31,0-.3-.17-.18-.38.42-.72,1.15-1.03,1.88-1.3.29-.11.65-.05.66.41.27.03.54.06.81.08.08-.35.36-.28.57-.21.64.22,1.29.42,1.88.73.08.04.16.09.23.13.12.07.23.12.35.15.11.02.24,0,.37-.06.21-.38.43-.77.64-1.15.05-.19.07-.35.07-.49,0-.21-.07-.38-.2-.51-.14-.13-.35-.24-.64-.33-1.06-.34-2.13-.65-3.19-.98-.11-.03-.18-.17-.27-.26-.6.01-1.2.02-1.8.03-.1.47-.55.47-.86.56-.9.24-1.68.63-2.34,1.29-.8.8-1.18,1.74-1.11,2.86.02.28,0,.56,0,.85.04,1.28.72,2.2,1.78,2.85.77.47,1.59.86,2.4,1.26.36.18.75.33,1.13.47.93.35,1.79.82,2.5,1.51.5.48.52,1.2.29,1.88-.49,1.47-2.75,2.02-3.89,1.5-.71-.33-1.46-.57-2.17-.89-.33-.15-.61-.42-.93-.59-.3-.16-.6-.29-.83.19-.22.46-.56.86-.87,1.27-.2.26-.14.42.13.56.77.39,1.52.86,2.33,1.17.77.29,1.59.52,2.41.6.9.08,1.83.08,2.71-.09,1.64-.3,2.94-1.15,3.67-2.71.07-.16.11-.34.11-.51,0-.31.14-.5.44-.58,0-.6,0-1.19,0-1.79-.15-.11-.42-.22-.42-.33Z"/>
  <path class="cls-29" d="m156.87,21.41c.3.6.63,1.24,1.11,1.71.83.83,1.77,1.51,2.95,1.89,1.44.46,2.88.43,4.31.21.25-.04.49-.1.73-.17.24-.08.47-.17.7-.27.11-.05.23-.11.34-.17.34-.18.66-.38.97-.6.07-.08.12-.17.21-.23.85-.59.52-.71.06-1.29-.15-.19-.33-.37-.46-.57-.4-.62-.59-.66-1.16-.23-.67.66-1.43,1.14-2.41,1.16-.68,0-1.36.05-2.02-.24-.84-.37-1.46-.98-2.04-1.64-.16-.18-.29-.41-.38-.63-.24-.56-.45-1.12-.67-1.69-.08-.21-.06-.38.21-.43,0-.92,0-1.85,0-2.77-.05-.24-.21-.52-.13-.71.32-.78.58-1.63,1.1-2.26.9-1.1,2.1-1.83,3.62-1.75.37.02.74.18,1.1.3.64.22,1.19.59,1.7,1.04.32.29.61.17.91-.25.31-.44.62-.88.97-1.29.21-.25.18-.38-.06-.57-1.03-.83-2.16-1.49-3.5-1.64-.92-.1-1.88-.23-2.77-.06-.95.18-1.9.61-2.74,1.11-.72.43-1.4,1.02-1.89,1.7-.59.82-.99,1.78-1.43,2.7-.15.32-.18.7-.29,1.05-.02.08-.17.12-.26.17-.05.31-.1.63-.14.94-.09.88-.15,1.77.14,2.63.17.34.37.67.51,1.02.24.6.4,1.25.69,1.82Z"/>
  <path class="cls-30" d="m129.82,11.87c-.02.46-.08.91-.08,1.37,0,2-.01,4.01,0,6.01,0,.47.12.94.14,1.4.03.59,0,1.18.04,1.76.04.94.53,1.66,1.25,2.2.74.55,1.63.67,2.54.72.89.05,1.74-.06,2.57-.41.34-.14.51-.28.49-.66-.03-.56,0-1.13,0-1.69-.11-.01-.25-.07-.31-.03-.94.61-1.84.21-2.73-.12-.16-.06-.28-.27-.37-.43-.26-.45-.58-.84-.57-1.45.05-2.89.02-5.79.02-8.69,0-.27-.04-.57.39-.52.16-.01.32-.04.49-.04,1.03-.02,2.05-.03,3.08-.04v-2.66c-.1,0-.32-.04-.54-.04-.9,0-1.79.02-2.69,0-.31,0-.73-.54-.73-.88,0-1.11-.01-2.23,0-3.34,0-.4-.13-.51-.52-.51-.59,0-1.19-.09-1.78-.06-.35.01-.69.16-1.03.25-.01,1.34-.02,2.67-.03,4.01,0,0,0,0,0,0,0,0,0,0,0,0,.02.02.03.05.02.08.06.32-.14.5-.51.45-.79-.11-1.06.16-.89.94.09.42.26.83.37,1.25.05.18.03.38.04.57.33.03.66.07,1,.1.32,0,.36.22.35.45Z"/>
  <path class="cls-13" d="m28.34,12.95c-.09,0-.18,0-.27,0-.06,0-.12,0-.18,0-.06,0-.12,0-.18,0h-.69v7.72h7.87v-7.55c-.38-.05-.77-.11-1.15-.16-1.8,0-3.6,0-5.4,0Z"/>
  <path class="cls-30" d="m179.4,18.01c-.07.15-.13.32-.21.47-.03.05-.06.1-.09.14-.27.35-.37,1.09-.14,1.47.7,1.19,1.4,2.37,2.11,3.55.21.36.42.72.67,1.06.09.13.28.26.43.27.92.04,1.85.05,2.77.07.38,0,.51-.18.31-.5-.28-.45-.6-.87-.89-1.31-.16-.25-.29-.53-.44-.79-.34-.59-.69-1.18-1.03-1.77-.24-.43-.45-.87-.7-1.29-.33-.56-.69-1.1-1.04-1.66-.06-.1-.09-.21-.14-.32-.15-.38-.51-.22-.78-.29-.27.3-.55.6-.82.91,0,0,0,0,0,0h0Z"/>
  <path class="cls-24" d="m64.42,24.67c.03,1.63.04,3.26.09,4.89,0,.31-.06.43-.39.42-.72-.02-1.44,0-2.16,0-.46,0-.63-.25-.56-.72.07-.42.13-.85.13-1.27,0-6.32,0-12.63,0-18.95,0-.49.17-.6.66-.55.56.06,1.12.08,1.68.05.49-.03.54-.03.54.47,0,.43.01.86,0,1.29-.01.27.11.34.35.32.02-.68-.02-1.37.07-2.04.05-.36,0-.46-.35-.46-.75,0-1.5,0-2.25,0-.36,0-.83-.1-1.04.08-.18.16-.06.65-.08,1,0,.03,0,.06,0,.09,0,6.19,0,12.39,0,18.58,0,.81,0,1.62,0,2.42h3.73c0-.96,0-1.91,0-2.85v-2.82s-.05-.06-.07-.09l.07-.09h0s0-.06,0-.09c-.23-.01-.43.01-.43.31Z"/>
  <path class="cls-22" d="m124.87,22c0,.17-.04.36-.11.51-.73,1.56-2.03,2.41-3.67,2.71-.88.16-1.82.17-2.71.09-.82-.08-1.64-.3-2.41-.6-.81-.31-1.55-.78-2.33-1.17-.27-.14-.34-.29-.13-.56.31-.41.65-.81.87-1.27.23-.48.52-.34.83-.19.32.17.6.44.93.59.71.32,1.46.56,2.17.89,1.14.53,3.4-.02,3.89-1.5.23-.68.21-1.4-.29-1.88-.72-.69-1.57-1.17-2.5-1.51-.38-.14-.77-.29-1.13-.47-.81-.4-1.63-.79-2.4-1.26-1.05-.65-1.73-1.57-1.78-2.85,0-.28.01-.57,0-.85-.06-1.12.31-2.06,1.11-2.86.66-.66,1.44-1.05,2.34-1.29.31-.08.77-.09.86-.56-1.22.17-2.35.58-3.24,1.45-1.13,1.09-1.55,2.46-1.43,4,.08,1.1.57,2.04,1.38,2.76.94.85,2.13,1.31,3.27,1.83.89.4,1.78.79,2.63,1.26.63.35,1.06.9.98,1.68-.07.75-.5,1.28-1.2,1.59-.67.29-1.38.26-2.06.17-1.42-.18-2.6-.93-3.72-1.76-.36-.27-.45-.25-.68.13-.43.71-.89,1.39-1.32,2.1-.05.08-.01.3.06.35.36.25.74.48,1.13.7,1.91,1.08,3.92,1.74,6.16,1.45,1.05-.13,2.05-.42,2.94-1.01,1.17-.78,1.82-1.89,2.01-3.27-.3.08-.43.27-.44.58Z"/>
  <path class="cls-21" d="m155.92,14.81c.11-.35.14-.73.29-1.05.44-.92.83-1.89,1.43-2.7.49-.67,1.17-1.27,1.89-1.7.84-.5,1.79-.92,2.74-1.11.89-.17,1.85-.04,2.77.06,1.34.14,2.47.8,3.5,1.64.24.19.27.32.06.57-.35.41-.66.86-.97,1.29-.3.42-.59.54-.91.25-.51-.45-1.06-.81-1.7-1.04-.36-.13-.73-.29-1.1-.3-1.52-.08-2.72.65-3.62,1.75-.52.63-.78,1.48-1.1,2.26-.08.19.08.47.13.71.19-.89.49-1.72.97-2.51.81-1.33,2.65-2.11,4.17-1.75.96.23,1.77.69,2.43,1.41.18.2.28.24.47-.02.55-.76,1.14-1.49,1.7-2.25.06-.08.06-.29,0-.33-.53-.43-1.03-.92-1.62-1.23-1.65-.85-3.44-1.13-5.28-.8-2.52.45-4.4,1.84-5.5,4.14-.44.91-.67,1.92-.99,2.89.09-.06.23-.1.26-.17Z"/>
  <path class="cls-27" d="m179.48,15.65c.85-1,1.67-2.02,2.53-3.02,1.2-1.39,2.41-2.76,3.61-4.14.06-.07.1-.17.22-.37-1.4,0-2.69.01-3.99,0-.31,0-.49.12-.66.35-.45.6-.9,1.2-1.36,1.79-1.42,1.8-2.86,3.59-4.29,5.39,0,.02.01.05.02.07h0c.27.02.44-.11.58-.28.08-.1.16-.21.24-.32.54-.73,1.06-1.48,1.62-2.2.92-1.18,1.84-2.36,2.81-3.51.29-.34.54-.82,1.09-.83.93-.02,1.86,0,2.79,0,.09,0,.19.04.35.07-.1.14-.15.24-.22.32-.51.59-1.04,1.17-1.54,1.77-.55.66-1.05,1.36-1.61,2.01-.8.95-1.64,1.87-2.45,2.81-.53.62-1.05,1.25-1.59,1.86-.75.87-1.52,1.73-2.26,2.62-.13.16-.4.43-.03.66.25-.37.46-.77.74-1.11,1.12-1.32,2.27-2.62,3.39-3.93Z"/>
  <path class="cls-22" d="m107.36,24.99c-.37,0-.49-.1-.48-.47.02-2.65.02-5.29,0-7.94,0-1.07.06-2.13-.24-3.19-.19-.69-.48-1.26-1.01-1.72-.35-.31-.75-.54-1.19-.74-.55-.25-1.08-.24-1.62-.19-.34.03-.65.27-.98.42.03.06.07.13.1.19.07-.02.14-.04.21-.06.97-.21,1.95-.28,2.85.23,1.08.61,1.5,1.65,1.5,2.82.02,3.55,0,7.1,0,10.65,0,.14,0,.29,0,.45,1.12,0,2.2-.01,3.27,0,.35,0,.48-.13.48-.45-.97,0-1.95-.02-2.92,0Z"/>
  <path class="cls-24" d="m180.22,17.1c.27.07.63-.09.78.29.04.11.08.22.14.32.34.55.71,1.1,1.04,1.66.25.42.46.87.7,1.29.34.59.69,1.18,1.03,1.77.15.26.28.54.44.79.29.44.61.86.89,1.31.2.32.08.51-.31.5-.92-.02-1.85-.03-2.77-.07-.15,0-.34-.14-.43-.27-.24-.34-.45-.7-.67-1.06-.7-1.18-1.41-2.37-2.11-3.55-.23-.39-.13-1.12.14-1.47.03-.04.06-.09.09-.14.08-.15.14-.31.21-.47h0c-.16.15-.31.3-.46.45-.16.15-.31.3-.47.44-.24.22-.24.4-.07.69.92,1.57,1.84,3.15,2.72,4.74.59,1.06.56,1.07,1.79,1.09.48,0,.96,0,1.44,0,.53,0,1.06,0,1.64,0-1.72-3-3.41-5.95-5.14-8.96-.21.21-.41.43-.62.65Z"/>
  <path class="cls-23" d="m136.75,22.57c0,.56-.02,1.13,0,1.69.02.39-.15.52-.49.66-.83.35-1.68.46-2.57.41-.91-.05-1.8-.17-2.54-.72-.72-.54-1.21-1.26-1.25-2.2-.03-.59,0-1.18-.04-1.76-.02-.47-.14-.94-.14-1.4-.02-2-.01-4.01,0-6.01,0-.46.06-.91.08-1.37,0-.23-.02-.46-.35-.45,0,3.3,0,6.59,0,9.89,0,.39.03.79.1,1.18.17,1.09.67,2,1.66,2.56,1.88,1.05,3.78.73,5.67,0,.1-.04.21-.22.21-.33.01-.68,0-1.36,0-2.05-.12-.03-.23-.06-.34-.09Z"/>
  <path class="cls-24" d="m43.36,14.09c.33-.73.6-1.47.95-2.19.39-.81,1.04-1.41,1.7-2.01.62-.56,1.36-.92,2.12-1.22.52-.21,1.07-.43,1.61-.45,1.48-.06,2.94-.06,4.37.63,1.43.69,2.51,1.66,3.33,2.95.25.38.28.89.52,1.28.25.42.3.84.36,1.3.02.18.28.34.43.51-.09-.42-.15-.86-.27-1.27-.47-1.64-1.3-3.1-2.67-4.14-2.05-1.56-4.4-1.95-6.91-1.38-1.62.37-2.97,1.19-4.03,2.49-.46.56-.84,1.15-1.15,1.78-.31.63-.55,1.29-.7,2,.11-.09.28-.16.33-.27Z"/>
  <path class="cls-20" d="m149.7,15.34c.07,0,.13,0,.18-.02.15-.06.19-.21.18-.37-.04-.47-.04-.96-.2-1.38-.24-.61-.49-1.34-.97-1.72-.84-.67-1.83-1.15-2.99-1.15-.67,0-1.3.07-1.92.31-.52.2-1.07.35-1.58.57-.39.17-.86-.03-.96-.46-.06-.26-.14-.51-.23-.76-.2-.6-.19-1,.42-1.17.78-.22,1.56-.42,2.35-.62.32-.08.65-.1.96-.2.14-.05.24-.22.36-.33-.5.06-1.02.06-1.49.2-1,.29-1.98.64-2.95.99-.1.04-.22.29-.19.4.23.77.5,1.52.77,2.28.08.22.19.31.47.19,1.46-.64,2.95-1.01,4.59-.86,1.78.16,3.21,1.3,3.13,3.26,0,.22.02.43.05.65,0,.07.02.15.03.22h0Z"/>
  <path class="cls-22" d="m92.48,22.68c.19.39.12.67-.25.9-.19.12-.37.24-.54.37-1.02.83-2.22,1.29-3.51,1.37-1.32.08-2.68.18-3.96-.35-.58-.24-1.24-.43-1.68-.84-.74-.69-1.61-1.29-2-2.31-.26-.7-.67-1.36-.92-2.06-.19-.55-.24-1.15-.37-1.72-.02-.08-.1-.14-.18-.21-.03-.02-.05-.04-.07-.07h0c.03.22.05.43.08.65s.05.43.09.65c.28,1.57.9,3,1.99,4.18,2.14,2.31,4.79,2.99,7.84,2.32,1.65-.36,2.98-1.26,4.19-2.41-.23-.25-.45-.48-.67-.71-.02.09-.07.2-.04.26Z"/>
  <path class="cls-24" d="m79.98,12.71c.3-.65.67-1.27,1.1-1.84.58-.78,1.25-1.48,2.18-1.88.41-.17.83-.3,1.23-.49,1.09-.5,2.23-.34,3.35-.21.98.11,1.85.54,2.66,1.15.9.68,1.56,1.5,2,2.52.18.42.22.92.42,1.27.27.48.26.92.28,1.4.12.03.23.06.35.09,0-.04.02-.09.02-.13-.23-1.17-.53-2.33-1.14-3.37-.53-.91-1.14-1.76-2.08-2.33-.93-.57-1.95-.81-3.02-.96-1.39-.2-2.7.02-3.95.61-1.38.66-2.38,1.74-3.12,3.04-.48.84-.88,1.72-.99,2.7.09,0,.17,0,.26,0,.14-.52.22-1.08.45-1.56Z"/>
  <path class="cls-21" d="m132.28,3.83c.39,0,.53.11.52.51-.02,1.11,0,2.22,0,3.34,0,.34.42.88.73.88.9.01,1.79,0,2.69,0,.22,0,.44.04.54.04v2.66c.11.01.22.03.35.04v-3.12c-.48-.02-.95-.05-1.42-.06-.7-.01-1.41-.02-2.11,0-.32,0-.42-.1-.41-.41.01-1.05,0-2.11,0-3.16,0-.35,0-.7,0-1.06h-3.69v.52c.34-.09.68-.24,1.03-.25.59-.02,1.19.07,1.78.06Z"/>
  <path class="cls-21" d="m167.97,24c-.31.22-.64.43-.97.6-.11.06-.22.12-.34.17-.23.11-.46.2-.7.27-.24.08-.48.13-.73.17-1.43.22-2.88.25-4.31-.21-1.17-.38-2.11-1.06-2.95-1.89-.47-.47-.8-1.1-1.11-1.71-.29-.58-.45-1.22-.69-1.82-.14-.35-.34-.68-.51-1.02.03.24.02.5.08.73.51,1.89,1.3,3.62,2.9,4.86,1.18.92,2.53,1.49,4.03,1.62.96.08,1.93.02,2.86-.26.65-.19,1.28-.43,1.85-.77.34-.2.66-.45.95-.74-.12,0-.25,0-.37,0Z"/>
  <path class="cls-24" d="m58.32,19.34c-.27.68-.5,1.39-.77,2.07-.45,1.12-1.24,1.99-2.24,2.62-.78.49-1.64.96-2.53,1.17-1.18.28-2.42.22-3.64.04-1.04-.15-1.94-.61-2.78-1.22-.13-.09-.37-.02-.56-.02.33.23.66.48,1.01.69,1.68,1.02,3.5,1.34,5.42.98,2.21-.42,3.99-1.55,5.22-3.45.63-.98,1.1-2.03,1.24-3.21,0,0,0,0,0,0,0,0,0,0,0,0,0,0,0,0,0,0-.12.11-.3.19-.35.33Z"/>
  <path class="cls-25" d="m189.46,21.23c-1.11-.15-2.18,1.01-2.13,2.07.06,1.17.89,2.08,2.13,2.12,1.18.04,2.24-.95,2.19-2.27-.03-.94-.72-2.04-2.19-1.92Zm-.13,3.75c-.71-.01-1.47-.89-1.47-1.69,0-1.04.59-1.61,1.64-1.61,1.15-.14,1.77.87,1.77,1.65,0,.97-.84,1.67-1.94,1.65Z"/>
  <path class="cls-24" d="m132.8,11.86c0,2.9.03,5.79-.02,8.69,0,.61.31.99.57,1.45.09.16.21.37.37.43.89.33,1.79.73,2.73.12.07-.04.21.02.31.03.12.03.23.06.34.09v-.63c-.12,0-.22-.02-.29.02-.67.35-1.38.37-2.11.34-.8-.03-1.52-.79-1.52-1.57,0-1.94,0-3.89,0-5.83,0-1.22.02-2.43.02-3.65-.43-.05-.39.24-.39.52Z"/>
  <path class="cls-21" d="m65.85,10.17c.77-1.05,1.89-1.66,3.08-1.92,1.01-.22,2.11-.14,3.12.26.89.36,1.72.82,2.35,1.55.34.39.64.83.94,1.25.35.48.45,1.06.65,1.61.17.48.3.93.3,1.44.12.03.24.06.36.09,0-.09.02-.18,0-.27-.38-1.79-1.03-3.44-2.45-4.72-1.59-1.43-3.42-1.88-5.5-1.47-1.65.32-2.74,1.41-3.66,2.71.42.04.61-.27.8-.53Z"/>
  <path class="cls-24" d="m76.29,19.4c0,.22,0,.46-.08.65-.32.79-.62,1.59-1.01,2.35-.83,1.56-2.18,2.48-3.89,2.84-.63.13-1.3.08-1.95.1-.74.02-1.37-.31-2.01-.61-.34-.16-.63-.47-1.03-.48-.06,0-.12,0-.18.02h0c1.33,1.16,2.86,1.69,4.63,1.43,2.23-.33,3.83-1.54,4.9-3.49.57-1.03.85-2.15,1.06-3.3-.33,0-.43.19-.44.49Z"/>
  <path class="cls-21" d="m105.08,8.2c1.64.02,2.95.64,3.9,1.91.52.69.82,1.52.79,2.42-.01.34.08.58.44.67-.1-1.4-.46-2.71-1.41-3.8-.81-.93-1.87-1.28-3.05-1.48-2.32-.39-4.4.69-5.52,2.59.18-.08.42-.11.52-.25,1.09-1.44,2.53-2.08,4.34-2.07Z"/>
  <path class="cls-22" d="m146.85,25.02c-.22.09-.44.2-.67.22-.57.06-1.15.12-1.73.11-1.49-.03-2.82-.49-3.74-1.71-.36-.48-.57-1.08-.87-1.61-.13-.22-.31-.41-.46-.62.15.46.25.95.46,1.39.53,1.15,1.35,2.01,2.56,2.49.99.39,1.97.58,3.05.42,1.42-.21,2.65-.73,3.62-1.8-.22.03-.55-.01-.64.11-.4.55-1,.76-1.58,1Z"/>
  <path class="cls-20" d="m139.97,18.29c.28-1,.95-1.69,1.78-2.21.68-.43,1.46-.7,2.27-.8,1.55-.18,3.09-.24,4.59.31.26.09.56.09.84.12.17.02.23-.04.21-.14,0-.04-.02-.08-.05-.12h0c-.09,0-.18,0-.26-.03-.72-.17-1.44-.43-2.17-.49-.97-.08-1.95-.07-2.92,0-1.36.1-2.58.58-3.53,1.59-.67.71-1.11,1.53-1.26,2.5.48-.01.43-.46.5-.71Z"/>
  <path class="cls-23" d="m83.25,17.84c-.26,0-.54-.05-.48.36,3.52,0,7.04,0,10.56,0,.25,0,.51.03.41-.36-3.5,0-6.99,0-10.49,0Z"/>
  <path class="cls-27" d="m121.31,15.6c-1.09-.49-2.16-1.04-3.22-1.6-.55-.29-.89-.76-.88-1.42-.08.09-.21.17-.24.28-.12.49.21.85.53,1.08.72.51,1.47,1.04,2.29,1.37,1.47.59,2.88,1.26,4.1,2.26.52.43.99.96,1.01,1.73,0,.11.27.22.42.33-.25-.6-.39-1.3-.78-1.78-.84-1.04-2-1.69-3.23-2.24Z"/>
  <path class="cls-21" d="m159.11,18.63c.22.57.43,1.13.67,1.69.1.22.22.45.38.63.58.66,1.2,1.27,2.04,1.64.66.29,1.34.25,2.02.24.98-.01,1.74-.5,2.41-1.16,0-.12,0-.25,0-.37-.07.05-.14.11-.21.16-1.15.91-2.45,1.29-3.86.89-1.36-.39-2.21-1.41-2.75-2.68-.2-.48-.32-.99-.48-1.48-.27.05-.29.22-.21.43Z"/>
  <path class="cls-21" d="m44.45,22.02c-.3-.57-.68-1.11-.84-1.72-.27-.96-.53-1.94-.43-2.97.06-.63.03-1.28,0-1.91,0-.15-.16-.29-.25-.44-.03.05-.09.1-.09.15,0,1.13-.13,2.27.02,3.37.21,1.61.85,3.1,1.85,4.42.05-.08.16-.19.14-.24-.11-.23-.28-.44-.4-.67Z"/>
  <path class="cls-21" d="m150.35,24.97c-.1,0-.26-.18-.27-.28-.03-.36-.01-.72-.01-1.1-.18-.01-.31-.02-.44-.03,0,.35-.01.71-.01,1.06,0,.8,0,.8.79.8.95,0,1.9,0,2.88,0v-.71c-.3.09-.6.25-.9.27-.68.04-1.36.01-2.05-.02Z"/>
  <path class="cls-24" d="m150.8,9.52c.46.44.93.89,1.28,1.4.26.38.32.89.52,1.32.09.2.3.35.45.52-.23-1.3-.83-2.38-1.82-3.28-.95-.86-2.06-1.26-3.31-1.36.18.12.34.29.53.36.83.26,1.7.43,2.35,1.05Z"/>
  <path class="cls-20" d="m86.02,22.9c.36.1.73.16,1.08.29.08.03.2-.02.3-.05.34-.1.67-.23,1.02-.29,1.04-.16,1.89-.63,2.55-1.44-.06-.06-.12-.12-.18-.18-1.08.93-2.3,1.55-3.75,1.49-.61-.02-1.21-.28-1.81-.43l-.2.1c.29.27.64.41,1,.5Z"/>
  <path class="cls-22" d="m120.47,8.21c1.06.34,2.13.65,3.19.98.29.09.5.2.64.33.14.13.2.3.2.51,0,.14-.02.3-.07.49.06.03.12.05.18.08.19-.29.38-.57.62-.94-.68-.34-1.31-.69-1.97-.97-.97-.41-2-.67-3.06-.76.09.09.16.23.27.26Z"/>
  <path class="cls-23" d="m128.06,9.5c-.17-.78.1-1.05.89-.94.37.05.57-.13.51-.45-.03,0-.06,0-.09,0-.62,0-1.24,0-1.85,0,.18,1,.35,1.92.5,2.85.05.29.14.44.45.36-.01-.19,0-.39-.04-.57-.11-.42-.28-.83-.37-1.25Z"/>
  <path class="cls-23" d="m166.62,21.31c0,.12,0,.25,0,.37.57-.43.75-.39,1.16.23.13.2.31.38.46.57.46.58.79.7-.06,1.29-.08.06-.14.15-.21.23.12,0,.25,0,.37,0,.31-.25.63-.51.97-.78-.72-.87-1.38-1.67-2.05-2.49-.25.23-.44.4-.64.58Z"/>
  <path class="cls-20" d="m171.68,25.43c1.17,0,2.31,0,3.44,0,.36,0,.34-.21.29-.45-1.24,0-2.49,0-3.73,0v.44Z"/>
  <path class="cls-20" d="m100.03,8.23c-.18-.04-.34-.1-.49-.1-.97-.01-1.93,0-2.9,0-.32,0-.42.15-.34.44,1.24,0,2.49,0,3.73,0v-.33Z"/>
  <path class="cls-22" d="m98.76,24.97c-.21,0-.42,0-.64,0-.21,0-.42.01-.63.03-.32.02-.63.27-.95.41,1.03,0,2.06,0,3.09.02.27,0,.44-.08.42-.33,0-.04,0-.07-.02-.12h0c-.42,0-.85-.01-1.27-.01Z"/>
  <path class="cls-21" d="m123.79,11.68c-.14.07-.26.08-.38.06-.12-.02-.23-.08-.35-.15-.07-.04-.15-.09-.23-.13-.59-.31-1.25-.51-1.88-.73-.21-.07-.49-.14-.57.21.09.04.19.09.28.11,1,.19,1.9.62,2.71,1.23.06.05.27,0,.33-.07.05-.06.08-.13.11-.2.03-.07.05-.15.08-.23-.04-.03-.08-.07-.11-.1Z"/>
  <path class="cls-26" d="m83.28,20.8c.14.16.16.43.3.57.1.1.21.2.32.3.33.29.7.53,1.11.72l.2-.1c-1.4-.79-2.16-2.02-2.46-3.56-.06.1-.2.22-.18.3.18.61.27,1.25.7,1.77Z"/>
  <path class="cls-23" d="m118.91,10.46c-.73.27-1.46.58-1.88,1.3-.12.21-.13.37.18.38.05-.08.09-.16.13-.24.04-.08.09-.16.15-.23.53-.68,1.29-.74,2.07-.79-.01-.46-.37-.52-.66-.41Z"/>
  <path class="cls-26" d="m100.35,12.51c-.21.46-.41.93-.61,1.39-.13.29.03.37.29.37.06-.31.1-.62.18-.92.26-.94.91-1.55,1.73-2.01-.03-.06-.07-.13-.1-.19-.63.31-1.19.7-1.49,1.36Z"/>
  <path class="cls-26" d="m91.76,21.93c.08.08.19.14.28.2.03-.03.07-.07.1-.1-.15-.2-.31-.4-.45-.59-.14-.19-.27-.36-.38-.5-.23.13-.38.21-.53.3.06.06.12.12.18.18.41-.05.58.27.8.52Z"/>
  <path class="cls-9" d="m28.96,10.73c.06.02.11.05.17.05,1.83,0,3.67,0,5.5,0,.03,0,.07-.01.1-.03s.07-.03.1-.05c-1.96,0-3.91,0-5.87.01Z"/>
  <path class="cls-9" d="m.89,10.72s.05.04.08.04c1.83,0,3.66,0,5.48,0,.01,0,.03-.01.04-.02-1.87,0-3.73,0-5.6-.01Z"/>
  <path class="cls-27" d="m79.01,15.7s.05-.03.08-.05c.08-.05.17-.09.19-.16.11-.4.18-.81.26-1.22-.09,0-.17,0-.26,0-.03.09-.08.18-.1.28-.06.38-.12.77-.17,1.15h0Z"/>
  <path class="cls-25" d="m124.43,10.53c-.21.38-.43.77-.64,1.15.04.03.08.07.11.1.12-.19.24-.39.35-.58l.35-.58h0c-.06-.03-.12-.05-.18-.08h0Z"/>
  <path class="cls-21" d="m93.65,15.25c-.03-.18-.06-.36-.09-.53-.12-.03-.23-.06-.35-.09-.01.32,0,.62.44.62Z"/>
  <path class="cls-22" d="m76.73,14.9c-.03-.15-.05-.3-.08-.45-.12-.03-.24-.06-.36-.09.02.28.1.51.44.53Z"/>
  <path class="cls-22" d="m92.04,22.13s.02.05.03.08c.06.2.12.39.41.15h0c-.11-.11-.22-.22-.33-.33,0,0,0,0,0,0-.03.03-.07.07-.1.1Z"/>
  <path class="cls-12" d="m33.74,12.95c.38.05.77.11,1.15.16-.09-.06-.18-.16-.28-.17-.29-.02-.58,0-.87,0Z"/>
  <path class="cls-3" d="m7.66,10.74h-1.01"/>
  <path class="cls-4" d="m7.56,12.95c-.27,0-.54,0-.81,0"/>
  <path class="cls-4" d="m24.56,25.8c-.24,0-.48,0-.72,0"/>
  <path class="cls-4" d="m10.35,25.8c-.09,0-.18,0-.27,0"/>
  <path class="cls-17" d="m175.55,15.7s0-.05-.02-.07c-.05-.03-.1-.07-.15-.1h0c.06.06.11.12.17.17Z"/>
  <path class="cls-4" d="m28.34,12.95c-.09,0-.18,0-.27,0"/>
  <path class="cls-4" d="m6.39,12.95c.06,0,.12,0,.18,0"/>
  <path class="cls-4" d="m27.89,12.95c-.06,0-.12,0-.18,0"/>
  <path class="cls-4" d="m3.96,12.95s.06,0,.09,0"/>
  <path class="cls-4" d="m3.69,12.95s-.06,0-.09,0"/>
  <path class="cls-4" d="m.81,12.96s-.07.04-.1.06"/>
  <path class="cls-3" d="m28.6,10.78s.07-.04.11-.05"/>
  <path class="cls-29" d="m64.85,24.53s0-.06,0-.09h0s-.04.06-.07.09c.02,0,.05,0,.07,0Z"/>
  <path class="cls-28" d="m64.85,24.63s0-.06,0-.09c-.02,0-.05,0-.07,0,.02.03.05.06.07.09Z"/>
  <path class="cls-18" d="m129.46,8.11s0-.06-.02-.08c0,0,0,0,0,0-.02.02-.03.04-.05.06,0,0-.01.02-.02.02.03,0,.06,0,.09,0Z"/>
  <path class="cls-6" d="m58.67,19.01s0,0,0,0"/>
  <path class="cls-6" d="m58.67,19.01s.05-.06.07-.1"/>
  <path class="cls-7" d="m139.45,19.08s-.04.06-.06.1"/>
  <path class="cls-5" d="m.2,3.67s0-.08,0-.11"/>
  <path class="cls-5" d="m.19,20.15c0,.06,0,.13-.01.19"/>
  <path class="cls-14" d="m.1,14s.06,0,.09,0H.19s0-.05,0-.08c-.03.03-.06.05-.08.08Z"/>
  <path class="cls-2" d="m.19,23.2c0,.15.02.3.02.44"/>
  <path class="cls-22" d="m73.07,17.84h0c-.01.13-.02.25-.04.37-.11.86-.36,1.68-.85,2.44-1.09,1.72-3.34,2.42-5.07,1.31.03.11.06.22.09.33.17.11.34.23.52.34.55.33,1.16.19,1.75.19.88,0,1.56-.47,2.16-1.03.84-.79,1.31-1.82,1.66-2.91.13-.4.16-.63.07-.8-.05-.1-.15-.18-.29-.25Z"/>
  <path class="cls-21" d="m71.86,12.43c.78.94,1.08,2.08,1.23,3.27.08-.12.23-.24.22-.36-.01-.24-.12-.47-.16-.71-.18-.96-.54-1.84-1.26-2.52-.83-.8-1.72-1.56-2.99-1.38-.58.08-1.13.34-1.7.52l.09.19c2.02-.89,3.61-.14,4.56,1Z"/>
  <path class="cls-21" d="m65.03,14.28c-.09.24-.15.5-.28.72-.4.68-.32,1.43-.31,2.14,0,.47.26.94.41,1.42-.03-.29-.06-.58-.07-.87-.03-1.15,0-2.29.25-3.41Z"/>
  <path class="cls-25" d="m67.12,21.97c-.86-.6-1.49-1.38-1.9-2.34-.04.06-.13.14-.11.17.12.3.24.61.4.9.15.26.32.51.5.74.17.21.37.39.59.55.04.03.08.06.13.08.15.09.3.17.48.23-.03-.11-.06-.22-.09-.33Z"/>
  <path class="cls-26" d="m65.33,13.69c.4-.98,1.06-1.73,1.98-2.26l-.09-.19c-.26.16-.55.29-.78.49-.69.59-1.23,1.27-1.37,2.2.09-.08.23-.14.27-.24Z"/>
  <path class="cls-25" d="m64.94,18.92c-.17.17-.17.28-.08.35.06.04.15.07.25.09-.06-.15-.12-.29-.18-.44Z"/>
  <path class="cls-27" d="m53.53,11.79c-.75-.69-1.62-1.09-2.64-1.07-.44.01-.88.19-1.32.25-.72.09-1.2.55-1.7.98-.71.63-1.03,1.5-1.39,2.34-.08.19.06.46.1.7.04-.09.08-.19.11-.28.47-1.82,1.37-3.25,3.42-3.58,1.82-.29,3.13.42,4.11,1.82.73,1.04.95,2.24,1.04,3.48.05-.12.14-.23.16-.36.11-.69-.1-1.33-.32-1.97-.31-.91-.86-1.66-1.57-2.3Z"/>
  <path class="cls-20" d="m54.51,20.15c-.59,1.18-1.46,2.09-2.84,2.35-.42.08-.86.06-1.28.09,0,.08,0,.17,0,.25h0c.07,0,.14,0,.2,0s.13,0,.2,0c1.31.17,2.3-.42,3.19-1.29.84-.81,1.11-1.87,1.41-2.93.02-.06-.02-.13-.07-.2-.05-.08-.12-.15-.16-.23-.21.65-.36,1.34-.66,1.95Z"/>
  <path class="cls-21" d="m50.38,22.59c-.17-.03-.35-.05-.51-.1-1.92-.63-2.8-2.11-3.27-3.93-.25.25-.24.67,0,1.02.09.14.13.31.21.46.26.46.48.95.8,1.35.53.64,1.28,1.01,2.02,1.37.05.03.11.04.17.05.18.03.38.02.57.04,0-.08,0-.17,0-.25Z"/>
  <path class="cls-23" d="m46.34,15.76c-.28.31-.41,1.65-.19,2.02.09.16.23.28.35.42,0-.83,0-1.66,0-2.5-.06.02-.13.02-.16.06Z"/>
  <path class="cls-23" d="m145.56,17.31c1.41-.06,2.8.02,4.13.55,0,0,0,0,0,0,0,0,0,0,0,0,0-.03-.01-.06-.02-.09-.02-.11-.03-.23-.08-.24-.83-.26-1.66-.59-2.51-.73-1.1-.18-2.15.17-3.06.79-.44.3-.85.73-1.12,1.19-.22.37-.19.89-.32,1.32-.13.4-.05.63.39.7,0-.28,0-.56,0-.85.03-1.36,1.23-2.57,2.59-2.63Z"/>
  <path class="cls-23" d="m147.81,22.59c-1.04.5-2.13.63-3.24.16-.79-.33-1.21-.95-1.52-1.69-.3.17-.23.45-.08.63.25.32.58.57.84.88.43.51,1.02.65,1.63.81.3.08.56.18.88.04.52-.22,1.11-.31,1.59-.59.45-.26.79-.7,1.18-1.06-.03-.03-.06-.06-.09-.09-.39.31-.74.7-1.18.91Z"/>
  <path class="cls-24" d="m149.86,17.84s-.1,0-.16.01c0,0,0,0,0,0,0,0,0,0,0,0,.03,1.32.13,2.65-.7,3.82.03.03.06.06.09.09.13-.06.33-.09.38-.18.23-.5.5-1.01.59-1.55.1-.61.01-1.24.03-1.87,0-.22-.07-.32-.21-.33Z"/>
  <path class="cls-26" d="m82.78,15.69c-.03.26.05.37.34.37,2.18,0,4.36,0,6.54,0,.27,0,.35-.11.32-.35-.34-.02-.68-.07-1.02-.07-2.06,0-4.11.03-6.17.04Z"/>
  <path class="cls-23" d="m87.45,11.05c0-.11,0-.23,0-.34-.41.01-.81.03-1.13-.3-.05-.05-.23-.03-.32.01-.67.33-1.34.67-2.01,1.01-.06.03-.1.13-.14.2-.56.82-1,1.7-1.36,2.62-.14.36-.09.74.18.91.16-.84.39-1.66.8-2.43.77-1.45,2.46-2.18,3.99-1.69Z"/>
  <path class="cls-26" d="m87.45,11.05c.23.05.43.13.62.22.56.29.97.77,1.26,1.36.27.52.44,1.09.66,1.64.04-.1.14-.22.12-.31-.15-.92-.53-1.76-1.21-2.39-.4-.37-.96-.58-1.45-.87,0,.11,0,.23,0,.34h0Z"/>
  <path class="cls-8" d="m89.99,14.46c.02.06.04.12.05.18"/>
  <path class="cls-25" d="m189.75,22.3c-.29-.02-.59,0-.87,0-.04.27-.07.49-.11.72.11-.09.24.37.35,0,.05-.14.07-.37.16-.4.16-.06.4-.05.55.03.09.05.13.3.09.44-.1.4-.4.12-.62.14,0,.11,0,.22,0,.32.17.16.34.34.52.49.12.1.26.18.39.27.03-.04.06-.07.1-.11-.27-.34-.41-.63-.06-1.04.28-.32-.05-.81-.5-.85Z"/>
  <path class="cls-26" d="m189.12,23.01c-.11.37-.23-.09-.35,0,0,.33-.03.65,0,.98,0,.09.14.18.22.27.08-.09.18-.17.22-.27.06-.14.06-.3.09-.45,0-.11,0-.22,0-.32-.06-.07-.12-.14-.18-.21Z"/>
</svg>