<?xml version="1.0" encoding="UTF-8"?>
<svg id="Layer_1" data-name="Layer 1" xmlns="http://www.w3.org/2000/svg" viewBox="0 0 134.83 85.05">
  <defs>
    <style>
      .cls-1 {
        fill: #db896c;
      }

      .cls-2 {
        fill: #c9452d;
      }
    </style>
  </defs>
  <path class="cls-2" d="m132.29,28.09c-1.22-3.5-2.9-6.76-5.03-9.79-1.83-2.61-3.89-5.01-6.28-7.17-2.82-2.54-5.87-4.71-9.24-6.41-3.94-1.99-8.1-3.4-12.5-4.03-1.43-.2-2.85-.46-4.28-.69h-1.23c-.27.06-.54.17-.81.17-17.02,0-34.03,0-51.05,0-.27,0-.54-.11-.81-.17h-1.4c-1,.18-1.99.4-3,.52-4.73.54-9.19,1.96-13.44,4.08-3.08,1.54-5.91,3.44-8.51,5.68-5.36,4.61-9.29,10.2-11.91,16.76-1.16,2.92-1.99,5.94-2.41,9.03C.02,38.76.04,41.51,0,44.23c-.06,4.4.91,8.64,2.37,12.74,1.59,4.45,3.88,8.55,6.89,12.23,3.84,4.69,8.39,8.46,13.81,11.22,3.69,1.88,7.53,3.29,11.61,3.92,2.49.38,5.03.66,7.55.67,16.82.06,33.64.01,50.47.04,5.45,0,10.65-1.15,15.69-3.14,4.31-1.7,8.2-4.11,11.71-7.12,4.58-3.93,8.15-8.64,10.7-14.11,1.61-3.45,2.75-7.03,3.33-10.79.17-1.13.35-2.26.54-3.38.01-.07.1-.12.16-.18v-7.37c-.18-.88-.4-1.76-.52-2.65-.36-2.82-1.09-5.54-2.02-8.22Zm-14.02,17.24c-.4,5.3-2.42,10.05-5.74,14.25-2.87,3.64-6.44,6.28-10.64,8.17-2.11.95-4.3,1.57-6.58,1.89-1.51.21-3.04.34-4.56.34-7.73.03-15.45.02-23.18.02,0-.01,0-.02,0-.03-8.4,0-16.8.03-25.19-.02-3.14-.02-6.14-.82-9.04-2.03-2.71-1.13-5.18-2.63-7.37-4.53-2.28-1.98-4.26-4.26-5.81-6.88-1.48-2.51-2.63-5.16-3.26-7.99-.67-3-.78-6.05-.44-9.13.57-5.19,2.51-9.82,5.71-13.87,3.05-3.85,6.85-6.74,11.5-8.53,3.47-1.34,7.05-1.87,10.71-1.88,15.33-.03,30.67-.03,46,0,6.31,0,12.12,1.73,17.2,5.54,4.15,3.12,7.12,7.14,9.03,12.02,1.62,4.12,1.98,8.37,1.66,12.66Z"/>
  <path class="cls-1" d="m92.93.17c.27,0,.54-.11.81-.17h-52.68c.27.06.54.17.81.17,17.02,0,34.03,0,51.05,0Z"/>
</svg>