<?xml version="1.0" encoding="UTF-8"?>
<svg id="Layer_1" data-name="Layer 1" xmlns="http://www.w3.org/2000/svg" viewBox="0 0 189.04 28.55">
  <defs>
    <style>
      .cls-1, .cls-2, .cls-3, .cls-4, .cls-5, .cls-6 {
        fill: none;
      }

      .cls-7 {
        fill: #010101;
      }

      .cls-8 {
        fill: #010201;
      }

      .cls-9 {
        fill: #030303;
      }

      .cls-10 {
        fill: #020202;
      }

      .cls-11 {
        fill: #e57425;
      }

      .cls-12 {
        fill: #e57426;
      }

      .cls-13 {
        fill: #e67426;
      }

      .cls-14 {
        fill: #3a3a3a;
      }

      .cls-15 {
        fill: #787878;
      }

      .cls-2 {
        stroke: #b3b3b3;
      }

      .cls-2, .cls-3, .cls-4, .cls-5, .cls-6 {
        stroke-linecap: round;
        stroke-linejoin: round;
        stroke-width: 0px;
      }

      .cls-3 {
        stroke: #b5b4b3;
      }

      .cls-4 {
        stroke: #b7b5b3;
      }

      .cls-5 {
        stroke: #3b3b3b;
      }

      .cls-6 {
        stroke: #3d3d3d;
      }
    </style>
  </defs>
  <path class="cls-1" d="m90.16,18.85c.43-.02.86-.03,1.29-.05.16,0,.3-.04.42-.08-.12.04-.25.07-.42.08-.43.01-.86.03-1.29.05Z"/>
  <path class="cls-1" d="m125.83,21.98c-.2.2-.42.37-.66.53.25-.16.47-.33.66-.53Z"/>
  <path class="cls-1" d="m126.34,21.34c-.15.23-.32.45-.51.64.2-.2.37-.41.51-.64Z"/>
  <path class="cls-1" d="m122.64,23.14c-.02-5.26-.04-10.52-.06-15.77.02,5.26.04,10.52.06,15.77l.07.07s-.05-.05-.07-.07Z"/>
  <path class="cls-1" d="m41.9,18.98c.07-.05.14-.11.22-.16,2.99,0,5.97,0,8.96,0-2.99,0-5.97,0-8.96,0-.07.05-.14.11-.22.16Z"/>
  <path class="cls-1" d="m122.78,23.28c.79-.09,1.44-.28,1.99-.56-.55.27-1.21.46-1.99.56h0Z"/>
  <path class="cls-1" d="m92.16,18.54c-.05.05-.12.09-.18.13.07-.04.13-.08.18-.13Z"/>
  <path class="cls-1" d="m40.16,22.06c-.2.14-.41.27-.62.4.21-.13.42-.26.62-.4Z"/>
  <path class="cls-1" d="m37.5,23.31c.22-.01.43-.02.65-.03-.22.01-.43.02-.65.03h0Z"/>
  <path class="cls-1" d="m140.53,9.79c.05.07.11.14.16.21,0,2.91,0,5.83,0,8.74,0-2.91,0-5.83,0-8.74-.05-.07-.11-.14-.16-.21Z"/>
  <path class="cls-1" d="m90.16,18.85c-.86.03-1.72.06-2.58.09.86-.02,1.72-.06,2.58-.09Z"/>
  <path class="cls-1" d="m39.21,22.66c-.08.05-.17.1-.25.15.08-.05.17-.1.25-.15Z"/>
  <path class="cls-1" d="m159.79,18.85c.24-.02.48-.04.72-.05.13-.03.25-.07.36-.11-.11.05-.23.08-.36.11-.24.01-.48.03-.72.05Z"/>
  <path class="cls-1" d="m148.15,20.24s0,0,0-.01c0,0,0,0,0,.01Z"/>
  <path class="cls-1" d="m147.96,18.98c-.01-.15-.02-.3-.04-.45.01.15.02.3.04.45,0,.29.02.57.08.85-.06-.28-.09-.56-.08-.85Z"/>
  <path class="cls-1" d="m150.04,22.62c-.09-.06-.18-.12-.26-.19.09.06.17.13.26.19Z"/>
  <path class="cls-8" d="m143.42,5.16c-.8.01-1.61.05-2.41,0-2.21-.17-3.92,1.41-4.64,3.14-.71,1.7-1.54,3.34-2.38,5.16-.29-.41-.52-.67-.67-.98-.8-1.71-1.47-3.49-2.4-5.12-.42-.73-1.26-1.51-2.05-1.69-1.58-.37-3.26-.45-4.9-.46-.79,0-1.34.63-1.4,1.5-.02.22,0,.44,0,.66.02,5.26.04,10.52.06,15.77.02.02.05.05.07.07.02.02.05.05.07.07h0c.79-.09,1.44-.28,1.99-.56.14-.07.27-.14.39-.22.25-.16.47-.33.66-.53.2-.2.37-.41.51-.64.52-.81.75-1.83.78-2.99.08-2.84.02-5.68.02-8.52.11-.05.21-.11.32-.16.32.51.69,1,.94,1.54,1.44,3.19,2.84,6.41,4.31,9.59.16.35.7.77,1.04.75.44-.02.88-.41,1.27-.72.18-.14.22-.44.33-.67,1.47-3.29,2.92-6.59,4.42-9.87.11-.23.5-.34.76-.5.05.07.11.14.16.21,0,2.91,0,5.83,0,8.74.01.08.02.16.03.25.08,2.35,2.4,4.67,4.4,4.14.01-5.48.03-10.97.04-16.45-.14-1.01-.7-1.53-1.74-1.52Z"/>
  <path class="cls-7" d="m92.61,5.19c-3.14-.1-6.28-.03-9.43-.02-1.87,0-4.2,1.81-4.23,4.12-.04,3.4-.04,6.8,0,10.19.02,1.7,2.16,3.83,3.83,3.85,3.32.04,6.65.05,9.97,0,1.94-.03,4.05-1.81,4.12-3.54.12-3.41.12-6.83.16-10.25-.05-.15-.09-.3-.14-.45-.34-2.49-2.09-3.84-4.3-3.91Zm-.1,12.27c0,.44-.09.83-.35,1.08-.05.05-.12.09-.18.13-.03.02-.07.04-.11.05-.12.04-.25.07-.42.08-.43.01-.86.03-1.29.05-.86.03-1.72.06-2.58.09-.43.01-.86.02-1.29.03-.63,0-1.26-.11-1.89-.18-.29-.39-.82-.77-.84-1.17-.08-2.22-.04-4.44-.04-6.66,0-.86.4-1.22,1.28-1.2,2.07.04,4.15.05,6.23,0,1.08-.02,1.49.52,1.5,1.48.02,2.08.02,4.15,0,6.23Z"/>
  <path class="cls-7" d="m76.05,14.06c.23-1.61.04-3.28.04-4.92,0-2.17-1.8-3.89-4.17-3.94-4.05-.09-8.11-.04-12.16-.02-.96,0-1.62.67-1.62,1.64,0,5.44.01,10.88.02,16.33.06,0,.13,0,.19.02.95-.34,2.05-.49,2.82-1.07,1.36-1.05,1.59-2.7,1.57-4.42,1.64,0,3.2-.02,4.76.02.24,0,.53.28.7.5.7.96,1.29,2,2.04,2.9,1.74,2.1,3.1,2.98,5.98,1.66-1.18-1.71-2.36-3.41-3.57-5.17,2.02-.56,3.13-1.56,3.41-3.53Zm-7.08-.34h-6.19v-3.95c2.67,0,5.3-.04,7.91.04.35.01.94.61.98.97.26,2.87.18,2.93-2.7,2.93Z"/>
  <path class="cls-7" d="m165.99,9.31c-.07-.74-.3-1.41-.66-2-.79-1.29-2.19-2.13-3.81-2.14-2.98-.02-5.97.02-8.95-.01-2.34-.03-4.54,1.86-4.62,4.39-.01.15-.02.3-.04.45.01-.15.02-.3.04-.45-.01.15-.02.3-.04.45h0v8.52c.01.15.02.3.04.45,0,.29.02.57.08.85.03.13.07.27.11.4,0,0,0,0,0,.01.23.68.65,1.31,1.18,1.82.05.05.11.1.17.15.09.08.18.15.27.22.09.06.17.13.26.19.13.08.25.16.39.23.66.35,1.4.55,2.15.53,2.98-.09,5.97.03,8.96-.04,2.31-.06,4.28-1.58,4.46-4.13,0-3.3,0-6.61,0-9.91Zm-4.59,8.51c0,.5-.21.74-.53.87-.11.05-.23.08-.36.11-.24.01-.48.03-.72.05-.72.06-1.44.12-2.16.11-1.4,0-2.79-.1-4.18-.16-.3-.3-.6-.6-.9-.9-.01-.22-.03-.44-.05-.67-.06-.67-.12-1.33-.11-2,.01-1.54.1-3.08.16-4.62.18-.67.6-.88,1.29-.87,2.04.04,4.08.06,6.12,0,.98-.03,1.57.34,1.57,1.26.01,2.27-.11,4.54-.13,6.81Z"/>
  <path class="cls-7" d="m53.08,5.66c-.55-.3-1.17-.48-1.84-.48-4.08-.04-8.17-.02-12.25-.01-1.02,0-1.69.66-1.69,1.67,0,5.43.01,10.86.02,16.3l.17.18h0c.22-.01.43-.02.65-.03.08-.04.17-.08.25-.12.18-.12.37-.24.56-.35.08-.05.17-.1.25-.15.11-.07.22-.13.33-.2.21-.13.42-.26.62-.4.18-.13.36-.26.52-.41.09-.09.18-.17.27-.27.54-.61.66-1.58.96-2.4.07-.05.14-.11.22-.16,2.99,0,5.97,0,8.96,0,.08-.01.16-.02.25-.03,1.85-.16,4.02-1.83,4.18-3.98.01-.15.02-.3.04-.45h0v-4.58c-.01-.15-.02-.3-.04-.45-.31-1.67-1.2-2.99-2.42-3.66Zm-3.43,9.15c-2.62.03-5.25.01-7.96.01v-5.06c2.79,0,5.55-.03,8.31.05.3,0,.78.62.83,1,.12.9-.01,1.83.05,2.73.07.95-.48,1.25-1.23,1.26Z"/>
  <path class="cls-12" d="m188.98,6.49c-1.68-1.79-4.6-1.62-6.13.04-1.33,1.44-2.67,2.87-4.03,4.32-1.22-1.34-2.42-2.62-3.57-3.93-1.87-2.14-4.27-2.37-6.53-.49,2.4,2.63,4.75,5.2,7.09,7.78-2.4,2.63-4.73,5.18-7.06,7.72,1.78,1.67,3.41,1.87,5.31.6.65-.44,1.21-1.03,1.76-1.61,1.02-1.08,2-2.19,3.06-3.36,1.39,1.52,2.68,2.99,4.05,4.39,1.84,1.87,4.08,1.86,6.1-.03-2.33-2.57-4.66-5.14-7.01-7.73,2.34-2.6,4.65-5.16,6.95-7.72Z"/>
  <path class="cls-13" d="m119.95,6.45c-1.77-1.75-4.73-1.58-6.26.22-1.21,1.41-2.51,2.73-3.98,4.32-.3-.4-.57-.85-.91-1.22-1.1-1.21-2.17-2.47-3.36-3.58-1.69-1.57-4.44-1.35-5.64.35,2.32,2.55,4.63,5.11,6.96,7.67-2.35,2.6-4.65,5.13-6.99,7.71,1.5,1.53,2.87,1.79,4.24,1.14.84-.39,1.65-.94,2.31-1.59,1.24-1.22,2.35-2.56,3.55-3.88,1.5,1.59,2.91,3.15,4.4,4.63,1.66,1.64,4.35,1.44,5.74-.34-2.34-2.54-4.67-5.09-7.03-7.66,2.33-2.6,4.66-5.19,6.98-7.77Z"/>
  <path class="cls-12" d="m25.56,5.16c-.62.61-1.18,1.28-1.77,1.93-2.15,2.37-4.31,4.73-6.47,7.12,2.69,2.99,5.29,5.93,7.96,8.82,2.29,2.49,5.17,2.43,7.48.31-2.77-3.08-5.49-6.1-8.23-9.13,2.79-3.07,5.51-6.08,8.24-9.08-2.3-2.09-5.1-2.05-7.2.03Z"/>
  <path class="cls-11" d="m7.21,23.3c2.82-2.97,5.53-6.04,8.32-9.1-2.71-2.94-5.37-5.88-8.08-8.77-2.22-2.37-4.75-2.49-7.45-.34,2.8,3.06,5.56,6.08,8.32,9.11C5.53,17.29,2.8,20.29.08,23.28c1.84,2.15,5.06,2.2,7.13.02Z"/>
  <path class="cls-9" d="m5.47,27.15c.29.2.57.41.86.6,1.79,1.2,3.85,1.07,5.41-.46,1.59-1.56,3.08-3.21,4.69-4.89,1.04,1.15,2.14,2.21,3.05,3.4,2.22,2.89,5.1,3.57,7.78,1.32-3.61-3.97-7.21-7.93-10.87-11.96-3.66,4.02-7.27,7.99-10.92,11.99Z"/>
  <path class="cls-10" d="m27.2,1.35c-1.35-1.61-5.05-1.74-6.44-.04-1.35,1.65-2.9,3.15-4.38,4.73-1.21-1.27-2.45-2.43-3.53-3.74C10.66-.36,8.35-.74,5.5,1.3c3.63,4.01,7.24,7.98,10.89,12.01,3.65-4.05,7.23-8.01,10.81-11.97Z"/>
  <path class="cls-15" d="m145.16,6.68c-.01,5.48-.03,10.97-.04,16.45.08-.25.22-.5.22-.75.01-4.97.01-9.94,0-14.9,0-.27-.12-.53-.18-.8Z"/>
  <path class="cls-15" d="m166.04,9.34s-.04-.02-.05-.03c0,3.3,0,6.61,0,9.91.03-.02.08-.05.08-.07,0-3.26,0-6.52,0-9.78,0-.01-.01-.02-.03-.03Z"/>
  <path class="cls-3" d="m147.96,9.55c-.01.15-.02.3-.04.45"/>
  <path class="cls-4" d="m55.54,9.78c-.01-.15-.02-.3-.04-.45"/>
  <path class="cls-4" d="m55.5,14.81c.01-.15.02-.3.04-.45"/>
  <path class="cls-6" d="m97.05,9.55c-.05-.15-.09-.3-.14-.45"/>
  <path class="cls-3" d="m147.96,18.98c-.01-.15-.02-.3-.04-.45"/>
  <path class="cls-2" d="m140.69,10c-.05-.07-.11-.14-.16-.21"/>
  <path class="cls-2" d="m41.9,18.98c.07-.05.14-.11.22-.16"/>
  <path class="cls-2" d="m51.32,18.79c-.08.01-.16.02-.25.03"/>
  <path class="cls-2" d="m140.72,18.99c-.01-.08-.02-.16-.03-.25"/>
  <path class="cls-5" d="m37.33,23.14l.17.18"/>
  <path class="cls-5" d="m38.15,23.28c.08-.04.17-.08.25-.12"/>
  <path class="cls-14" d="m58.15,23.13c0,.06.01.11.02.17.06-.05.12-.1.17-.15-.06-.02-.13-.03-.19-.02Z"/>
  <path class="cls-5" d="m122.78,23.28s-.1-.1-.15-.15"/>
  <path class="cls-15" d="m84.4,18.79c.63.06,1.26.19,1.89.18.43,0,.86-.02,1.29-.03.86-.02,1.72-.06,2.58-.09.43-.02.86-.03,1.29-.05-2.35,0-4.7,0-7.06-.01Z"/>
  <path class="cls-15" d="m152.55,10.62c-.06,1.54-.15,3.08-.16,4.62,0,.67.06,1.33.11,2,.02.22.04.44.05.67,0-2.43,0-4.86,0-7.28Z"/>
  <path class="cls-15" d="m153.45,18.8c1.39.06,2.79.15,4.18.16.72,0,1.44-.06,2.16-.11.24-.02.48-.04.72-.05-2.35,0-4.71,0-7.06,0Z"/>
</svg>