<?xml version="1.0" encoding="UTF-8"?>
<svg id="Layer_1" data-name="Layer 1" xmlns="http://www.w3.org/2000/svg" viewBox="0 0 194.69 28.42">
  <defs>
    <style>
      .cls-1 {
        fill: none;
      }

      .cls-2 {
        fill: #738386;
      }

      .cls-3 {
        fill: #7fb6a1;
      }

      .cls-4 {
        fill: #263e41;
      }

      .cls-5 {
        fill: #263e40;
      }

      .cls-6 {
        fill: #273f41;
      }

      .cls-7 {
        fill: #7b888a;
      }
    </style>
  </defs>
  <g>
    <path class="cls-1" d="m42.05,10.67s-.05,0-.07,0v-.39c0,.13,0,.26,0,.39.02,0,.05,0,.07,0Z"/>
    <path class="cls-3" d="m161.7,27.7c.12-.14.24-.28.35-.42.52-.61.98-1.28,1.37-1.98.57-1.03.97-2.13,1.18-3.29.11-.61.19-1.22.21-1.84.02-.72-.06-1.44-.19-2.15-.19-1.07-.53-2.08-1.01-3.05-.71-1.42-1.66-2.65-2.87-3.67-.88-.75-1.85-1.35-2.92-1.79-1.15-.48-2.35-.76-3.59-.83-.63-.03-1.27-.01-1.9.06-.98.11-1.93.34-2.85.7-1.27.49-2.42,1.2-3.43,2.11-.86.78-1.58,1.68-2.15,2.69-.88,1.55-1.36,3.21-1.46,4.98-.05.93.01,1.84.18,2.76.2,1.06.53,2.09,1,3.06.64,1.29,1.45,2.45,2.54,3.4h2.51c.31-.21.61-.43.92-.64.53-.35,1.11-.58,1.71-.76.45-.13.91-.23,1.38-.27.3-.03.61-.06.91-.07.72-.01,1.42.1,2.12.27.95.23,1.78.68,2.56,1.26.09.07.18.14.27.21h2.36c.29-.21.57-.44.81-.72Zm-3.11-5.17c-.47.99-1.18,1.78-2.13,2.34-.69.4-1.44.64-2.23.72-.52.06-1.05.05-1.57-.01-.62-.07-1.2-.23-1.77-.49-.66-.3-1.22-.74-1.71-1.28-.76-.85-1.2-1.86-1.35-2.98-.12-.91-.04-1.81.23-2.7.25-.83.68-1.55,1.28-2.17.33-.35.73-.63,1.14-.88.72-.43,1.49-.64,2.32-.73.95-.1,1.88,0,2.77.31.7.24,1.31.62,1.85,1.14.5.49.92,1.03,1.2,1.67.26.58.44,1.19.48,1.82.02.23.03.47.04.7,0,.89-.18,1.74-.56,2.54Z"/>
    <path class="cls-4" d="m112.97,28.37c1.49-.29,2.85-.88,4.09-1.76.58-.41,1.1-.88,1.57-1.43-1-.95-1.98-1.89-2.93-2.79-.16.14-.31.25-.45.38-.79.72-1.7,1.26-2.73,1.57-.34.1-.7.2-1.05.22-.6.04-1.2.02-1.79-.12-.47-.11-.92-.27-1.35-.49-.68-.36-1.23-.86-1.69-1.47-.38-.51-.67-1.06-.83-1.67-.07-.26-.16-.53-.14-.83h8.95c.74,0,1.49,0,2.23,0,.75,0,1.49,0,2.24,0,.1-.27.13-.53.14-.79.02-.65.02-1.3-.07-1.95-.06-.41-.11-.81-.2-1.21-.5-2.06-1.48-3.83-3.09-5.22-1.59-1.37-3.43-2.09-5.54-2.14-.97-.02-1.93.09-2.86.35-1.91.54-3.48,1.59-4.68,3.18-1.24,1.64-1.87,3.51-2.04,5.55-.06.74-.05,1.48.04,2.21.11.92.31,1.82.65,2.69.63,1.61,1.62,2.94,3,3.99,1.15.86,2.43,1.42,3.83,1.73.08.02.16.05.25.07h4.19c.07-.12.17-.08.27-.04Zm-7.14-12.31c.19-.84.63-1.54,1.27-2.12.55-.49,1.17-.84,1.89-1.01.42-.1.85-.14,1.29-.1.83.07,1.58.33,2.22.88.64.55,1.09,1.23,1.29,2.06.04.15.05.3.08.46h-8.05c0-.06.01-.12.02-.17Z"/>
    <path class="cls-4" d="m33.67,25.6c.13-.13.25-.27.4-.43-1-1-1.99-1.99-2.97-2.98-.23.22-.41.41-.61.59-.6.52-1.28.93-2.02,1.24-1.02.41-2.06.53-3.14.33-1.1-.2-2.05-.67-2.83-1.49-.6-.63-1.04-1.34-1.28-2.17-.08-.27-.14-.55-.16-.86h.5c4,0,8,0,12,0,.22,0,.43,0,.65,0,.12,0,.2-.05.26-.15.09-.16.14-.33.16-.5.05-.44.03-.88,0-1.33-.04-.85-.19-1.69-.44-2.5-.58-1.89-1.56-3.52-3.13-4.77-1.3-1.04-2.79-1.65-4.43-1.86-1-.13-2-.07-2.99.14-2.28.47-4.09,1.66-5.48,3.51-1.01,1.34-1.59,2.86-1.9,4.48-.07.35-.09.71-.11,1.07-.07,1.05,0,2.09.22,3.12.58,2.7,2.01,4.81,4.41,6.22.95.55,1.97.94,3.05,1.13.08-.03.15-.05.19.05h4.27c.13-.04.26-.08.4-.11,1.91-.44,3.58-1.33,4.98-2.71Zm-12.11-9.66c.2-.75.6-1.38,1.16-1.91.61-.58,1.33-.97,2.16-1.14.56-.11,1.12-.1,1.68.03,1.15.25,1.95.95,2.53,1.94.24.4.39.84.47,1.3,0,.02,0,.05,0,.08h-8.07c.02-.11.04-.2.06-.3Z"/>
    <path class="cls-5" d="m140.31,18.69c0-.64-.05-1.27-.12-1.91-.06-.57-.17-1.13-.33-1.67-.37-1.28-.96-2.44-1.86-3.42-1.41-1.54-3.15-2.47-5.21-2.8-.68-.11-1.37-.12-2.06-.05-.54.05-1.07.14-1.59.3-1,.3-1.92.76-2.75,1.39-.08.06-.17.13-.28.21v-1.62c-.19-.04-4.77-.04-4.91,0v19.2c.4.04,4.73.02,4.91-.02,0-.07,0-.15,0-.22,0-4.03,0-8.07,0-12.1,0-.12.03-.21.11-.3.61-.67,1.35-1.2,2.15-1.61,1.03-.53,2.12-.74,3.28-.57.62.09,1.2.28,1.7.66.25.19.46.41.7.61.2.17.36.38.48.61.3.53.44,1.12.49,1.72.04.45.05.91.05,1.37,0,3.12,0,6.23,0,9.35,0,.21.02.42.02.63h5.22c0-.07,0-.14,0-.21,0-3.17,0-6.35,0-9.52Z"/>
    <path class="cls-6" d="m93.69,28.37c.2-.05.41-.09.61-.14,1.1-.28,2.11-.75,3.04-1.39.98-.68,1.81-1.53,2.54-2.47.02-.02.03-.05.05-.09-1.24-.99-2.48-1.98-3.72-2.97-.02.03-.05.05-.06.08-.46.7-1.07,1.23-1.78,1.66-.66.41-1.38.68-2.15.75-.65.06-1.29.03-1.93-.11-1.49-.33-2.6-1.16-3.33-2.49-.44-.8-.61-1.67-.6-2.58,0-.87.18-1.7.6-2.46.83-1.51,2.1-2.41,3.81-2.69.68-.11,1.35-.07,2.02.09,1.06.25,1.96.78,2.69,1.59.15.16.28.32.43.49,1.15-1.04,2.29-2.08,3.43-3.12-.33-.4-.65-.76-1.01-1.09-1.8-1.64-3.91-2.58-6.35-2.75-1.42-.1-2.81.08-4.16.53-2.03.68-3.71,1.86-4.97,3.59-1.11,1.53-1.71,3.25-1.85,5.14-.06.79-.01,1.58.12,2.36.16.97.45,1.91.9,2.79,1.03,2.06,2.6,3.57,4.69,4.54.75.35,1.53.62,2.34.76.12-.04.14-.04.15.04h4.23c.07-.12.17-.08.27-.05Z"/>
    <path class="cls-6" d="m11.23,28.15c1.12-.42,2.11-1.04,2.9-1.96.6-.7.98-1.5,1.15-2.4.14-.73.12-1.46-.03-2.19-.22-1.08-.73-1.99-1.54-2.73-.59-.54-1.27-.94-1.99-1.29-.73-.35-1.5-.61-2.27-.88-.59-.2-1.19-.4-1.78-.61-.42-.15-.83-.33-1.19-.6-.22-.16-.41-.35-.48-.62-.12-.47-.02-.88.32-1.22.29-.28.63-.47,1.02-.56.65-.16,1.3-.18,1.96-.06.78.14,1.49.44,2.18.83.24.14.48.27.74.42.8-1.24,1.59-2.47,2.38-3.71-.06-.04-.1-.07-.14-.1-.56-.4-1.16-.69-1.8-.94-.88-.35-1.79-.58-2.72-.73-.44-.07-.88-.12-1.32-.14-.84-.04-1.67.01-2.5.19-1.26.27-2.41.77-3.41,1.6-1.22,1.02-1.91,2.32-1.99,3.91-.05.92.13,1.8.61,2.61.35.59.82,1.06,1.37,1.46.74.54,1.57.93,2.43,1.25.81.3,1.63.58,2.45.88.49.18.97.36,1.43.62.31.17.58.4.82.67.43.49.35,1.22-.07,1.63-.5.49-1.12.73-1.81.8-.52.05-1.04,0-1.55-.09-.69-.1-1.36-.31-2-.58-.68-.28-1.32-.63-1.86-1.12-.05-.05-.11-.09-.17-.14-.8,1.3-1.59,2.59-2.38,3.87.05.04.08.06.11.08,1.39.98,2.91,1.67,4.56,2.07.04.01.08.03.12.05h5.68s.05-.03.08-.04c.23-.08.46-.14.69-.23Z"/>
    <path class="cls-2" d="m93.43,28.42h.27s0-.03,0-.05c-.1-.04-.19-.07-.27.05Z"/>
    <path class="cls-2" d="m112.7,28.42h.27s0-.03,0-.04c-.1-.04-.19-.07-.27.04Z"/>
    <path class="cls-7" d="m23.84,28.37s0,.03,0,.05h.19c-.04-.1-.11-.08-.19-.05Z"/>
    <path class="cls-2" d="m89.05,28.37s0,.03,0,.04h.15c-.01-.08-.03-.09-.15-.04Z"/>
    <path class="cls-4" d="m189.72,9.08q-.24,0-.33.24s-.03.07-.04.11c-1.22,3.22-2.45,6.45-3.67,9.67-.12.33-.25.66-.39,1.03-.05-.12-.08-.2-.11-.28-1.27-3.48-2.54-6.95-3.81-10.43-.12-.33-.12-.33-.47-.33-1.17,0-2.34,0-3.5,0-.12,0-.24,0-.36,0-.08,0-.13.02-.15.11-.02.09-.06.18-.09.27-1.33,3.51-2.66,7.02-3.99,10.52-.01.04-.03.07-.06.14-.04-.09-.06-.15-.09-.21-.54-1.42-1.08-2.84-1.62-4.26-.81-2.14-1.62-4.27-2.43-6.41-.06-.15-.06-.16-.23-.16-1.07,0-2.13,0-3.2,0-.5,0-.99,0-1.49,0-.07,0-.13,0-.2.01.02.05.02.08.03.1.25.62.49,1.23.74,1.85,1.35,3.39,2.69,6.79,4.04,10.18.92,2.32,1.84,4.65,2.76,6.97.05.12.12.12.22.12,1.12,0,2.25,0,3.37,0,.11,0,.21,0,.32,0,.68-1.83,1.35-3.64,2.02-5.45.67-1.8,1.33-3.61,2.03-5.44.03.08.05.12.07.16.88,2.28,1.76,4.57,2.64,6.85.48,1.25.96,2.49,1.43,3.74.04.1.1.14.2.13.13,0,.25,0,.38,0,1.05,0,2.11,0,3.16,0,.13,0,.2-.04.25-.17.65-1.64,1.3-3.28,1.95-4.92,1.52-3.83,3.04-7.66,4.55-11.49.32-.82.66-1.63.98-2.45.02-.06.04-.12.06-.2-.13,0-.23-.01-.34-.01-1.54,0-3.09,0-4.63,0Z"/>
    <path class="cls-6" d="m71.38,9.09c-1.46,0-2.92,0-4.38,0-.18,0-.37,0-.55,0-.08,0-.12.02-.16.1-.28.66-.57,1.31-.86,1.97-1.41,3.18-2.82,6.36-4.24,9.54-.02.05-.05.1-.09.18-.05-.11-.09-.19-.13-.27-1.19-2.61-2.39-5.23-3.58-7.84-.53-1.16-1.06-2.32-1.58-3.49-.06-.14-.13-.18-.28-.18-1.58,0-3.16,0-4.74,0-.08,0-.16,0-.27.01.02.05.03.08.04.11,1.46,3.18,2.92,6.36,4.38,9.54,1.44,3.14,2.88,6.28,4.32,9.42.06.12.13.15.25.15,1.07,0,2.15,0,3.22,0,.14,0,.2-.05.25-.17.36-.8.73-1.6,1.1-2.4,1.6-3.49,3.2-6.97,4.79-10.46.92-2.01,1.85-4.03,2.77-6.04.02-.05.04-.1.06-.17-.12,0-.22,0-.31,0Z"/>
    <path class="cls-5" d="m46.36,8.85c-1.02.13-1.99.43-2.9.91-.5.26-.95.58-1.41.9-.02.01-.04.02-.05.03,0-.01-.01-.03-.02-.04,0-.13,0-.26,0-.39v-1.18h-5.07v19.21c.38.04,5.06.02,5.21-.02,0-.03,0-.07,0-.11,0-3.97,0-7.93,0-11.9,0-.14.03-.25.12-.36,1.19-1.37,2.69-2.13,4.51-2.21.55-.03,1.1.08,1.64.17.2.03.39.08.6.12v-4.92c-.12-.02-.24-.03-.34-.07-.75-.24-1.52-.27-2.29-.17Z"/>
    <path class="cls-5" d="m73.51,9.1v19.22h5.2c.04-.29.03-19.07-.01-19.22h-5.19Z"/>
    <path class="cls-6" d="m78.19.73c-.86-.66-1.84-.85-2.9-.64-1.08.22-1.85.83-2.27,1.85-.26.63-.32,1.29-.2,1.96.28,1.56,1.59,2.68,3.26,2.68.29-.04.58-.06.86-.13,1.41-.32,2.39-1.43,2.51-2.82.1-1.19-.33-2.16-1.27-2.89Z"/>
  </g>
  <g>
    <path class="cls-5" d="m190.79,28.42v-2.09h-.83v-.28h1.99v.28h-.83v2.09h-.33Z"/>
    <path class="cls-5" d="m192.29,28.42v-2.37h.5l.6,1.68c.05.16.1.27.12.35.03-.09.07-.21.13-.38l.6-1.65h.45v2.37h-.32v-1.98l-.73,1.98h-.3l-.73-2.02v2.02h-.32Z"/>
  </g>
</svg>