<?xml version="1.0" encoding="UTF-8"?>
<svg id="Layer_1" data-name="Layer 1" xmlns="http://www.w3.org/2000/svg" viewBox="0 0 195 24.41">
  <defs>
    <style>
      .cls-1, .cls-2, .cls-3, .cls-4, .cls-5, .cls-6, .cls-7, .cls-8, .cls-9 {
        fill: none;
      }

      .cls-2 {
        stroke: #2181bf;
      }

      .cls-2, .cls-3, .cls-4, .cls-5, .cls-6, .cls-7, .cls-8, .cls-9 {
        stroke-linecap: round;
        stroke-linejoin: round;
        stroke-width: 0px;
      }

      .cls-10 {
        fill: #fcfdfe;
      }

      .cls-11 {
        fill: #fdfeff;
      }

      .cls-12 {
        fill: #b9b9ba;
      }

      .cls-13 {
        fill: #c4deed;
      }

      .cls-14 {
        fill: #2181bf;
      }

      .cls-15 {
        fill: #0e76b9;
      }

      .cls-16 {
        fill: #0d76b9;
      }

      .cls-17 {
        fill: #0c76b9;
      }

      .cls-18 {
        fill: #0c75b9;
      }

      .cls-19 {
        fill: #0b75b9;
      }

      .cls-20 {
        fill: #89888a;
      }

      .cls-21 {
        fill: #6d6e70;
      }

      .cls-22 {
        fill: #5b5f61;
      }

      .cls-23 {
        fill: #59595b;
      }

      .cls-24 {
        fill: #4a4b4d;
      }

      .cls-25 {
        fill: #5b9ccb;
      }

      .cls-26 {
        fill: #4c92c7;
      }

      .cls-3 {
        stroke: #4c92c7;
      }

      .cls-4 {
        stroke: #d6e6f0;
      }

      .cls-5 {
        stroke: #a2a3a3;
      }

      .cls-6 {
        stroke: #6d6e70;
      }

      .cls-7 {
        stroke: #5b9ccb;
      }

      .cls-8 {
        stroke: #59595b;
      }

      .cls-9 {
        stroke: #c4deed;
      }
    </style>
  </defs>
  <path class="cls-1" d="m179.08,22.15s.06.07.1.1h0s-.09-.06-.1-.1Z"/>
  <path class="cls-1" d="m16.36,17.14c.15-.14.29-.29.45-.42-.15.13-.29.28-.45.42h0Z"/>
  <path class="cls-1" d="m15.98,18.03c.06-.19.11-.39.17-.58,0,0,0,0,0,0-.06.19-.11.39-.17.58Z"/>
  <path class="cls-1" d="m20.25,8.09c.15-.07.28-.16.4-.25-.12.1-.25.18-.4.25Z"/>
  <path class="cls-1" d="m15.94,18.63c0-.2.01-.4.04-.6h0c-.02.2-.04.4-.04.6Z"/>
  <path class="cls-1" d="m18.12,21.76c.25-.29.48-.61.68-.94h0c-.2.33-.43.64-.68.94Z"/>
  <path class="cls-1" d="m18.22,5.9h0c0,.05-.01.11-.02.16,0,.07,0,.14,0,.21,0-.07,0-.14,0-.21,0-.05.01-.11.02-.16Z"/>
  <path class="cls-1" d="m179.18,11.49h0s-.06.05-.08.07c.02-.03.06-.05.08-.07Z"/>
  <path class="cls-1" d="m20.25,8.09c-.07.04-.15.07-.23.1-.17.04-.35.07-.53.09.18-.02.35-.05.53-.09.08-.03.16-.06.23-.1Z"/>
  <path class="cls-1" d="m87.57,9.34l-.06.04c-.37.88-.74,1.76-1.1,2.65.36-.88.73-1.76,1.1-2.65.02-.01.04-.03.06-.04Z"/>
  <path class="cls-1" d="m114.22,17.33s-.01-.02-.02-.03c0-.5-.02-1-.03-1.5,0,.5.02,1,.03,1.5,0,.01.01.02.02.03Z"/>
  <path class="cls-1" d="m69.57,9.39s.02.04.04.07c2.29,4.92,4.58,9.83,6.86,14.75-2.29-4.92-4.58-9.83-6.86-14.75-.02-.02-.04-.05-.04-.07Z"/>
  <path class="cls-1" d="m18.5,17.66s0,0,0,0c0,0,.02,0,.03,0,0,0-.02,0-.03,0Z"/>
  <path class="cls-1" d="m41.28,9.34s-.04.03-.06.05c0,.09,0,.18,0,.26,0-.09,0-.18,0-.26.02-.02.04-.03.06-.05Z"/>
  <path class="cls-1" d="m115.96,24.14c0-.58,0-1.16,0-1.74,0,0,0-.01-.01-.02,0,0,0,.01.01.02,0,.58,0,1.16,0,1.73Z"/>
  <path class="cls-1" d="m41.94,4.94s.02.01.03.02c0-.03,0-.05,0-.08,0,.03,0,.05,0,.08,0,0-.02-.01-.03-.02Z"/>
  <path class="cls-1" d="m192.72.46s.03-.02.05-.03c-.02,0-.03.01-.05.03-.48-.07-.92,0-1.3.2.39-.2.82-.27,1.3-.2Z"/>
  <path class="cls-23" d="m35.32,7.35c-.73-.75-1.58-1.31-2.54-1.72-.23-.1-.37-.23-.44-.48-.24-.79-.64-1.5-1.16-2.14-.55-.68-1.19-1.27-1.94-1.74-.55-.35-1.14-.63-1.77-.82-.63-.18-1.28-.32-1.93-.34-.56-.02-1.13-.02-1.69.06-1.17.17-2.24.61-3.2,1.3-.77.55-1.43,1.23-1.94,2.03-.08.12-.16.23-.3.28-.38.12-.68.36-.98.6-.19.24-.36.49-.46.78-.31.89-.16,1.68.48,2.37.07.07.14.14.21.21.07.07.15.14.22.21.12.04.24.09.35.14s.24.09.36.12c.29.08.59.09.88.05.18-.02.35-.05.53-.09.08-.03.16-.06.23-.1.15-.07.28-.16.4-.25.3-.25.52-.57.68-.95.23-.53.25-1.07.05-1.62-.04-.12-.02-.19.05-.29.67-.9,1.52-1.55,2.63-1.79.9-.19,1.8-.16,2.67.17,1.46.55,2.36,1.63,2.83,3.09.14.45.24.9.23,1.37,0,.18.04.21.22.23.35.04.69.06,1.04.12.45.08.85.28,1.24.5,1.88,1.08,2.85,3.74,1.67,5.99-.56,1.07-1.34,1.88-2.48,2.33-.5.2-1.01.3-1.54.33-.32.02-.65.02-.98,0-1.4-.05-2.8-.11-4.2-.16-1.5-.06-2.99-.12-4.49-.18-.17,0-.31-.06-.43-.17-.37-.37-.82-.55-1.34-.61-.56-.06-1.07.06-1.53.37-.06.04-.11.08-.16.12-.15.13-.29.28-.45.42-.02.03-.04.06-.07.09,0,0,0,0,0,0,0,0,0,0,0,0,0,0,0,.01,0,.01,0,0,0,0-.01-.01-.01.02-.03.04-.04.06,0,.02,0,.04,0,.06,0,.05-.03.1-.1.11-.06.19-.11.39-.17.58-.02.2-.04.4-.04.6s.03.4.1.59c.19.56.53.99,1.04,1.31.31.19.64.29.99.33.09.01.18,0,.26,0,.16-.01.31-.03.47-.04h0c.07-.02.14-.04.21-.06.21-.07.41-.16.56-.31.29-.29.6-.34,1-.33,1.55.06,3.1.08,4.65.12.53.01,1.06.03,1.59.04,1.1.01,2.2.05,3.3.03,1.06-.02,2.07-.29,3.02-.77,1.2-.61,2.2-1.45,2.95-2.57.72-1.07,1.16-2.23,1.29-3.52.11-1.1.02-2.17-.32-3.22-.35-1.1-.94-2.05-1.75-2.88Zm-15.35-1.01c-.1.34-.42.59-.77.62-.19.02-.34,0-.48-.07-.23-.1-.39-.3-.5-.57,0-.01-.02-.02-.02-.04,0,0,0-.01.01-.02,0-.07,0-.14,0-.21,0-.05-.01-.11-.02-.16.04-.24.11-.45.36-.56.37-.22.84-.21,1.14.01.31.23.41.58.29.99Zm-.83,12.49s-.05.02-.07.03c-.14.38-.41.58-.76.59-.41.01-.77-.2-.92-.54-.17-.37.03-.94.4-1.15.07-.04.14-.06.22-.1.06-.01.11-.02.17-.03.03,0,.06,0,.09,0,.04,0,.08.02.12.03.04,0,.08,0,.12,0h0s0,0,0,0c0,0,.02,0,.03,0,0,.01.02.01.03,0,.22,0,.3.05.37.22.01.02.02.05.03.08.17.01.19.17.23.28.06.19.04.39-.04.58Z"/>
  <path class="cls-16" d="m18.33,20.86c-.09,0-.18.01-.26,0-.35-.04-.68-.14-.99-.33-.51-.31-.85-.75-1.04-1.31-.07-.2-.09-.4-.1-.59,0-.2.01-.4.04-.6-.03,0-.06,0-.09,0-.12.39-.12.78,0,1.16.12.39.11.38-.17.68-.5.53-1.09.94-1.77,1.21-.7.28-1.42.35-2.18.27-.49-.05-.95-.18-1.38-.38-.91-.42-1.59-1.09-2.08-1.96-.43-.75-.63-1.56-.68-2.41,0-.04,0-.09-.02-.14-.06,0-.12-.03-.18-.03-.81-.02-1.57-.21-2.26-.64-.47-.3-.91-.63-1.24-1.1-.36-.51-.69-1.05-.84-1.66-.12-.48-.16-.98-.12-1.49.09-1.04.48-1.96,1.16-2.74.82-.94,1.85-1.51,3.12-1.65.72-.08,1.42,0,2.14.02.24,0,.48.02.71.03,1.07.04,2.13.07,3.2.11.85.03,1.71.07,2.56.11.41.02.83.04,1.24.05.12,0,.19.06.27.14.08.08.15.16.23.23.08.07.16.14.27.19,0-.03,0-.06.01-.08-.07-.07-.15-.14-.22-.21-.07-.07-.14-.14-.21-.21-.64-.69-.79-1.49-.48-2.37.1-.29.27-.54.46-.78-.26-.02-.53-.05-.79-.06-1.54-.04-3.08-.07-4.62-.11-1.34-.03-2.68-.05-4.02-.07-.63-.01-1.25.04-1.86.16-1.86.37-3.36,1.32-4.52,2.81C.45,8.64-.09,10.38.01,12.31c.02.32.03.64.11.96.08.29.11.6.2.89.24.75.58,1.45,1.03,2.09.42.6.91,1.14,1.5,1.58.58.43,1.18.83,1.86,1.08.21.08.29.23.37.41.1.26.19.53.32.78.61,1.2,1.41,2.25,2.55,2.99.23.15.47.32.72.43.49.22.97.46,1.5.58.64.15,1.28.3,1.94.3.76,0,1.52-.05,2.27-.26.73-.2,1.41-.5,2.05-.9.31-.19.61-.42.88-.67.29-.26.56-.54.81-.83.25-.29.48-.61.68-.94-.16.01-.31.03-.47.04Z"/>
  <path class="cls-23" d="m189.13,13.79c-.39-1.02-.99-1.91-1.8-2.66-1.29-1.2-2.84-1.77-4.59-1.8-1.83-.03-3.67,0-5.5,0-.08,0-.17,0-.26.01v14.85c.09,0,.16.01.23.01,1.9,0,3.81,0,5.71,0,.26,0,.53-.02.79-.06.88-.16,1.72-.43,2.48-.9,1.07-.66,1.92-1.53,2.53-2.63.35-.63.61-1.3.77-2.01.12-.55.21-1.1.21-1.67,0-.69-.04-1.38-.23-2.06-.1-.37-.21-.74-.34-1.1Zm-1.7,3.94c-.08.42-.13.86-.29,1.26-.21.53-.49,1.03-.86,1.47-.57.69-1.26,1.22-2.1,1.55-.51.2-1.03.34-1.59.34-1.06,0-2.11,0-3.17,0-.09,0-.2.03-.24-.1-.03-.03-.09-.06-.1-.1-.02-.07,0-.14,0-.21,0-3.38,0-6.75,0-10.13,0-.07,0-.14,0-.21,0,0,0-.02.01-.03.02-.03.06-.05.08-.07,0-.09.02-.19.03-.31.11,0,.2,0,.29,0,.96,0,1.92,0,2.88,0,.61,0,1.19.12,1.75.33.97.36,1.75.97,2.34,1.81.47.68.81,1.42.9,2.25.02.2.06.4.1.59.1.53.05,1.06-.05,1.57Z"/>
  <path class="cls-17" d="m62.89,21.42c-.43-.63-.86-1.26-1.31-1.91.08-.04.17-.09.25-.13.39-.18.77-.39,1.09-.69.87-.8,1.49-1.74,1.71-2.92.11-.59.16-1.17.08-1.77-.07-.56-.2-1.1-.44-1.61-.34-.74-.81-1.37-1.45-1.88-.97-.78-2.09-1.14-3.33-1.16-1.86-.02-3.72,0-5.58,0-.05,0-.1,0-.16,0v14.85h2.17v-2.56c0-.29,0-.58,0-.87,0-.28-.02-.55.02-.83h3.38c.51.76,1.03,1.5,1.53,2.25.42.63.84,1.25,1.26,1.89.07.1.14.14.26.14.28,0,.56,0,.85,0,.49,0,.99,0,1.48.01.02,0,.03-.02.05-.03-.04-.06-.07-.12-.11-.18-.59-.87-1.17-1.73-1.76-2.59Zm-2.8-3.41c-.22.05-.45.05-.68.06-1.11,0-2.22,0-3.33,0-.03,0-.05,0-.11-.02v-6.84c.07,0,.14-.02.21-.02,1.07,0,2.13,0,3.2,0,.18,0,.35.01.53.04.79.09,1.39.5,1.88,1.11.6.75.81,1.62.75,2.56-.03.49-.12.97-.35,1.42-.45.87-1.12,1.46-2.08,1.69Z"/>
  <path class="cls-23" d="m160.92,13.71c-.3-.69-.71-1.31-1.2-1.88-.74-.88-1.65-1.5-2.69-1.95-.98-.42-2.02-.6-3.09-.61-.41.04-.83.05-1.23.12-.57.1-1.14.23-1.67.47-.53.23-1.02.51-1.49.84-.96.69-1.71,1.54-2.24,2.59-.15.3-.29.62-.4.94-.14.4-.29.81-.35,1.23-.07.46-.08.93-.08,1.39,0,1.02.18,2.01.59,2.95.41.94.99,1.75,1.73,2.46.9.86,1.96,1.41,3.14,1.76.37.11.76.13,1.14.2.79.14,1.56.05,2.34-.05.4-.05.78-.19,1.17-.32,1.11-.37,2.06-.99,2.87-1.82.94-.96,1.57-2.11,1.88-3.42.06-.26.09-.53.13-.8.04-.24.07-.48.1-.72.06-.62-.08-1.23-.17-1.84-.08-.53-.26-1.04-.47-1.53Zm-1.82,4.7c-.07.21-.11.42-.19.62-.47,1.23-1.28,2.16-2.43,2.81-.97.54-2.01.71-3.09.6-.89-.09-1.68-.46-2.42-.97-.72-.5-1.21-1.17-1.62-1.91-.34-.62-.56-1.28-.6-2-.02-.24-.08-.49-.07-.73.02-.76.13-1.51.42-2.24.31-.78.76-1.46,1.36-2.05.54-.53,1.17-.91,1.9-1.15.61-.2,1.23-.29,1.86-.26.32.01.64.08.96.14,1.01.18,1.83.71,2.54,1.41.51.5.89,1.11,1.15,1.78.2.5.34,1.02.42,1.55.04.27.05.54.07.81,0,.55-.09,1.08-.26,1.6Z"/>
  <path class="cls-18" d="m115.95,22.41s0-.01-.01-.02c0-.01-.02-.02-.03-.03-.07,0-.14-.01-.21-.01-2.5,0-5.01,0-7.51,0-.08,0-.17,0-.25-.01v-4.92c.07,0,.12,0,.18,0,1.95,0,3.9,0,5.84,0,.08,0,.16-.04.24-.06,0-.02,0-.03,0-.05,0-.5-.02-1-.03-1.5,0-.08,0-.15,0-.25h-6.23v-4.35c.1,0,.17,0,.25,0,2.21,0,4.42,0,6.64,0,.22,0,.44.01.66.02.03,0,.07-.02.1-.03,0-.54,0-1.07,0-1.61,0-.22-.02-.24-.24-.23-.29,0-.58,0-.87,0-2.92,0-5.85,0-8.77,0,0,.02-.01.03-.02.05,0,.1,0,.19,0,.29,0,4.74,0,9.47,0,14.21,0,.09,0,.17,0,.26.02.02.03.03.05.05.16,0,.32,0,.47,0,3.07,0,6.14,0,9.21,0,.16,0,.32,0,.47,0,.01-.02.03-.03.04-.05,0-.58,0-1.16,0-1.73Z"/>
  <path class="cls-17" d="m51.76,12.59c-.25-.61-.6-1.15-1.05-1.63-.97-1.02-2.16-1.58-3.56-1.61-1.96-.05-3.91-.01-5.87-.01-.02.02-.04.03-.06.05,0,.09,0,.18,0,.26,0,4.76,0,9.52,0,14.28,0,.09,0,.17.01.26h2.18v-.78c0-.26,0-.53,0-.79v-.76c0-.26,0-.53,0-.79,0-.25,0-.5,0-.77.11,0,.19,0,.27,0,1.02,0,2.04-.01,3.07,0,.52,0,1.02-.06,1.51-.18.73-.18,1.37-.54,1.95-1.01.49-.4.88-.88,1.2-1.42.38-.63.62-1.3.73-2.01.11-.72.1-1.44-.1-2.16-.08-.31-.17-.62-.29-.92Zm-2.56,4.64c-.59.76-1.35,1.22-2.35,1.21-1.07,0-2.13,0-3.2,0-.07,0-.14,0-.24-.01v-7.23c.09,0,.16-.01.24-.02,1.08,0,2.15,0,3.23,0,.85,0,1.54.34,2.1.95.23.26.43.56.6.86.29.52.37,1.11.4,1.7.04.94-.2,1.79-.78,2.54Z"/>
  <path class="cls-15" d="m94.46,23c-.18-.43-.34-.86-.52-1.29-.28-.67-.56-1.34-.84-2.02-.34-.84-.68-1.67-1.03-2.51-.38-.92-.76-1.83-1.13-2.75-.29-.71-.58-1.41-.87-2.12-.25-.62-.5-1.23-.76-1.85-.12-.29-.24-.58-.36-.88-.07-.19-.18-.27-.4-.25-.33.02-.67,0-1,0-.02.01-.04.03-.06.04-.37.88-.74,1.76-1.1,2.65-.49,1.19-.97,2.39-1.46,3.58-.35.84-.7,1.69-1.05,2.53-.47,1.15-.94,2.31-1.42,3.46-.33.79-.67,1.59-1,2.38-.03.07-.04.14-.07.22h2.33c.44-1.13.88-2.25,1.31-3.36h6.24c.44,1.13.88,2.24,1.32,3.37h2.33c-.02-.07-.03-.12-.06-.18-.14-.34-.29-.68-.43-1.02Zm-8.68-4.03c.79-2,1.59-4.01,2.39-6.04.81,2.04,1.6,4.03,2.39,6.04h-4.79Z"/>
  <path class="cls-23" d="m174.98,9.39h-1.99c-.02.23-.05.47-.05.7,0,2.61,0,5.23,0,7.84,0,.16.02.31.04.47.02.18-.02.25-.18.31,0,.05-.02.1-.03.15-.04.29-.05.58-.13.85-.12.42-.26.84-.5,1.21-.34.52-.78.93-1.34,1.19-.67.32-1.39.37-2.12.33-.35-.02-.7-.11-1.03-.21-.44-.14-.83-.39-1.17-.7-.38-.35-.66-.76-.83-1.24-.28-.76-.38-1.54-.38-2.35,0-2.82,0-5.64,0-8.46,0-.03-.01-.06-.02-.1h-2.18c0,.09,0,.16,0,.23,0,2.95,0,5.9,0,8.86,0,.44.05.88.13,1.31.07.41.18.82.32,1.22.1.29.27.57.44.84.83,1.32,2.06,2.05,3.57,2.34.17.03.35,0,.53.04.49.09.99.11,1.47.06.48-.05.97-.06,1.45-.21.64-.19,1.24-.42,1.79-.8.62-.43,1.09-.99,1.45-1.65.53-1,.74-2.08.75-3.19.01-2.95,0-5.9,0-8.86,0-.06-.01-.12-.02-.18Z"/>
  <path class="cls-15" d="m82.09,14.8c.37-.79.74-1.57,1.11-2.36.45-.94.89-1.89,1.34-2.83.04-.08.05-.17.07-.27h-2.28s-.04.02-.06.04c-.17.36-.34.71-.5,1.07-.46.98-.92,1.95-1.37,2.93-.49,1.06-.98,2.12-1.47,3.18-.56,1.2-1.12,2.4-1.68,3.6-.04.08-.09.15-.15.25-.16-.34-.3-.65-.43-.94-.56-1.2-1.11-2.4-1.67-3.61-.52-1.12-1.05-2.24-1.57-3.36-.47-1-.94-2-1.4-3-.06-.13-.13-.16-.26-.16-.7,0-1.41,0-2.11,0,0,.04-.02.07-.03.11,2.29,4.92,4.58,9.83,6.86,14.75.38,0,.73,0,1.08,0,.15,0,.22-.05.27-.18.26-.59.52-1.17.79-1.75.16-.34.33-.68.49-1.02.36-.78.72-1.56,1.09-2.34.49-1.04.98-2.08,1.46-3.12.15-.33.28-.66.44-.99Z"/>
  <path class="cls-23" d="m130.05,11.13c.18,0,.36.04.55.05.56.04,1.07.23,1.55.48.57.3,1.07.71,1.51,1.19.13.14.26.28.38.41.46-.44.9-.87,1.35-1.3-.53-.77-1.21-1.34-1.99-1.8-.64-.38-1.33-.58-2.04-.74-.76-.17-1.53-.16-2.29-.07-.67.08-1.33.25-1.95.53-1.06.46-1.97,1.12-2.73,1.99-.37.42-.69.88-.95,1.39-.21.41-.4.83-.55,1.28-.17.51-.24,1.04-.31,1.56-.12.8.01,1.59.16,2.37.14.74.45,1.42.81,2.07.51.91,1.2,1.67,2.03,2.29.87.65,1.85,1.06,2.9,1.31.35.08.71.14,1.06.15.45.02.91.04,1.36-.04.35-.06.71-.1,1.05-.2.88-.24,1.68-.66,2.39-1.24.22-.18.41-.41.61-.61.02-.07.04-.15.08-.21.06-.11.12-.21.19-.32-.05-.06-.09-.12-.14-.17-.3-.3-.6-.61-.91-.9-.07-.06-.15-.1-.23-.15-.07.07-.14.13-.2.2-.36.4-.73.78-1.19,1.07-.89.57-1.87.79-2.91.74-.32-.02-.65-.07-.96-.16-.54-.16-1.04-.43-1.5-.75-.93-.64-1.57-1.5-1.99-2.53-.22-.54-.36-1.11-.4-1.7-.1-1.76.36-3.32,1.6-4.6,1-1.03,2.2-1.62,3.66-1.59Z"/>
  <path class="cls-19" d="m104.22,9.33c-3.51,0-7.02,0-10.52,0-.23,0-.46,0-.69,0-.02.01-.03.03-.05.04h0v1.8h.78c.26,0,.51,0,.77,0h.77c.26,0,.51,0,.77,0s.51,0,.77,0c.25,0,.5-.02.78.01v12.98h2.14s.03-.02.05-.04c0-.04.01-.09.01-.13,0-4.2,0-8.39,0-12.59,0-.08,0-.15.02-.24h4.57v-1.8s-.03-.03-.05-.04c-.04,0-.07,0-.11,0Z"/>
  <path class="cls-23" d="m139.34,19.72v-5.19c0-.86,0-1.72,0-2.58,0-.87,0-1.73,0-2.6h-2.15l-.05.04s.03-.03.05-.04c-.02.01-.03.03-.05.04,0,.06,0,.12,0,.18,0,4.81,0,9.63,0,14.44,0,.06.01.12.02.18h9.67v-1.85h-7.47v-2.63Z"/>
  <path class="cls-19" d="m66.57,9.35s-.04,0-.06,0c-.03,0-.07,0-.1,0-.02.01-.03.03-.05.04,0,.03,0,.07,0,.1,0,4.68,0,9.36,0,14.05,0,.2,0,.4,0,.61l.05.05c.7,0,1.41,0,2.11,0,.01-.02.03-.03.04-.05,0-.16,0-.32,0-.47,0-4.7,0-9.39,0-14.09,0-.07-.01-.15-.02-.23h-1.98Z"/>
  <path class="cls-23" d="m54.19,7.8c.16,0,.33,0,.5,0V.17c-.24-.06-.94-.06-1.15,0v5.93c-.13.04-.14-.07-.18-.12-.22-.33-.43-.66-.65-.99-.22-.34-.46-.67-.68-1-.51-.75-1.01-1.5-1.52-2.25-.34-.5-.68-1-1.02-1.5-.06-.09-.13-.1-.22-.1-.36,0-.72,0-1.08,0-.04,0-.08.02-.12.03v7.63h1.15V1.79s.08.04.09.05c.18.27.36.54.54.81,1.02,1.53,2.04,3.05,3.07,4.58.1.15.22.3.32.45.06.09.13.13.24.12.24,0,.48,0,.71,0Z"/>
  <path class="cls-23" d="m73.49,7.8c.68,0,1.31-.18,1.87-.55,1.13-.74,1.66-1.83,1.73-3.15.04-.7-.11-1.37-.45-2-.25-.47-.56-.88-.98-1.22-.64-.52-1.37-.76-2.19-.76-.88,0-1.76,0-2.64,0-.09,0-.19,0-.3,0v7.68c.09,0,.15,0,.21,0,.92,0,1.83,0,2.75,0Zm.11-6.68c.87.06,1.51.52,1.95,1.27.31.53.43,1.11.39,1.72-.04.6-.16,1.17-.54,1.67-.38.5-.88.83-1.48,1.01-.17.05-.37.04-.55.04-.55,0-1.11,0-1.68,0v-.28c0-1.52,0-3.04,0-4.56,0-.3,0-.59,0-.91.63.01,1.28,0,1.91.05Z"/>
  <path class="cls-23" d="m69.61,6.82h-4.15v-2.49c.06,0,.11-.01.16-.01.73,0,1.46,0,2.19-.01.22,0,.44,0,.66,0,.17,0,.2-.03.2-.2,0-.18,0-.35,0-.53,0-.26,0-.26-.27-.26-.91,0-1.82,0-2.72,0-.08,0-.15-.01-.23-.02V1.07c.95.06,3.75.04,3.95-.03V.15c-.06-.01-.11-.03-.16-.03-1.58,0-3.16,0-4.73,0-.07,0-.15.02-.22.03v7.59s.03.03.04.04c.03,0,.05,0,.08,0,1.68,0,3.37,0,5.05,0,.05,0,.1-.02.14-.02v-.96Z"/>
  <path class="cls-23" d="m43.31,7.81c.46.07.91.06,1.36-.01.82-.13,1.48-.52,1.91-1.23.3-.49.44-1.03.43-1.61,0-1.03,0-2.05,0-3.08,0-.57,0-1.14,0-1.74-.37-.03-.74,0-1.12,0,0,.06-.02.11-.02.15,0,1.43,0,2.86,0,4.29,0,.39-.03.77-.16,1.14-.2.55-.55.97-1.14,1.11-.29.07-.61.06-.92.05-.21,0-.42-.06-.61-.15-.48-.23-.77-.63-.92-1.13-.06-.21-.11-.42-.17-.63,0,0-.02-.01-.03-.02-.03-.02-.06-.03-.07-.06-.02-.06-.01-.12-.01-.18,0-1.52,0-3.04,0-4.56h-.97c0,.05-.02.1-.02.14,0,1.6-.01,3.2,0,4.79,0,.52.17,1.03.44,1.47.45.74,1.14,1.13,2,1.26Z"/>
  <path class="cls-23" d="m60.07,7.75s.03.03.05.04c.18,0,.37,0,.55,0h.57V1.08h2.35V.15h-5.87v.94h2.35v6.66Z"/>
  <path class="cls-23" d="m57.09.12c-.4.02-.77-.04-1.14.04v7.62h1.14V.12Z"/>
  <path class="cls-22" d="m192.7.02c-1.3-.15-2.53.6-2.87,2.02-.38,1.57.88,3.29,2.56,3.21.26-.03.54-.02.78-.1.88-.32,1.49-.9,1.74-1.83.4-1.49-.56-3.1-2.21-3.29Zm.64,4.57s-.06.04-.09.05c-.01.09-.06.11-.12.1-.02,0-.04,0-.06-.02-.34.1-.68.09-1.03.08-.06.01-.12.05-.17.04-.15-.05-.33-.06-.42-.23-.72-.31-1.08-.91-1.24-1.62-.06-.27-.05-.57.04-.85.11-.36.24-.72.52-.99.2-.2.42-.36.66-.48.39-.2.82-.27,1.3-.2.02-.01.03-.02.05-.03.05-.01.09.01.13.06.9.24,1.48.81,1.64,1.73.18,1.01-.29,1.98-1.2,2.37Z"/>
  <path class="cls-24" d="m172.98,18.4c-.02-.16-.04-.31-.04-.47,0-2.61,0-5.23,0-7.84,0-.23.03-.47.05-.7-.04,0-.07,0-.11,0-.02.02-.04.03-.06.05,0,.13,0,.26,0,.39,0,2.84,0,5.68,0,8.52,0,.12-.01.24-.02.37.17-.06.21-.14.18-.31Z"/>
  <path class="cls-24" d="m41.87,4.88s.04.04.07.06c0,0,.02.01.03.02,0-.03,0-.05,0-.08,0-1.53,0-3.05,0-4.58,0-.04,0-.09-.01-.13-.01-.02-.07-.02-.11-.03,0,1.52,0,3.04,0,4.56,0,.06,0,.13.01.18Z"/>
  <path class="cls-24" d="m135.09,21.51s.09.1.14.17c-.07.11-.14.21-.19.32-.03.07-.05.14-.08.21.1-.12.2-.24.29-.37.12-.17.11-.21-.04-.36-.3-.31-.6-.62-.9-.92-.08-.09-.17-.17-.27-.28-.04.08-.07.13-.09.18.08.05.17.09.23.15.31.3.61.6.91.9Z"/>
  <path class="cls-25" d="m69.64,9.35c-.05,0-.07.02-.07.04,0,.02.02.04.04.07,0-.04.02-.07.03-.11Z"/>
  <path class="cls-9" d="m115.6,11.17s-.07.02-.1.03"/>
  <path class="cls-3" d="m104.38,9.39s-.03-.03-.05-.04"/>
  <path class="cls-8" d="m172.82,9.44s.04-.03.06-.05"/>
  <path class="cls-6" d="m137.13,9.39s.03-.03.05-.04"/>
  <path class="cls-13" d="m114.21,17.34s.01-.01.01-.02c0-.01-.01-.02-.02-.03,0,.02,0,.03,0,.05Z"/>
  <path class="cls-4" d="m105.71,9.34s-.01.03-.02.05"/>
  <path class="cls-3" d="m93.01,9.34s-.03.03-.05.04"/>
  <path class="cls-7" d="m87.57,9.34s-.04.03-.06.04"/>
  <path class="cls-7" d="m82.27,9.39s.04-.02.06-.04"/>
  <path class="cls-7" d="m66.51,9.35s.04,0,.06,0"/>
  <path class="cls-7" d="m66.41,9.35s-.03.03-.05.04"/>
  <path class="cls-3" d="m41.28,9.34s-.04.03-.06.05"/>
  <path class="cls-6" d="m64.34,7.79s-.03-.03-.04-.04"/>
  <path class="cls-6" d="m60.07,7.75s.03.03.05.04"/>
  <path class="cls-3" d="m115.94,22.39s0,.01.01.02"/>
  <path class="cls-3" d="m115.94,22.39s-.02-.02-.03-.03"/>
  <path class="cls-3" d="m66.36,24.15l.05.05"/>
  <path class="cls-7" d="m68.52,24.19s.03-.03.04-.05"/>
  <path class="cls-3" d="m99.73,24.18s.03-.02.05-.04"/>
  <path class="cls-2" d="m105.76,24.2s-.03-.03-.05-.05"/>
  <path class="cls-3" d="m115.96,24.14s-.03.03-.04.05"/>
  <path class="cls-9" d="m64.76,24.19s-.03.02-.05.03"/>
  <path class="cls-10" d="m19.68,5.35c-.3-.23-.77-.23-1.14-.01-.11.19-.21.37-.32.56,0,.05-.01.11-.02.16,0,.07,0,.14,0,.21,0,.02,0,.04,0,.05.11.27.28.47.5.57.14.06.29.08.48.07.35-.03.67-.28.77-.62.12-.4.02-.76-.29-.99Z"/>
  <path class="cls-10" d="m18.96,17.98c-.13-.1-.27-.2-.4-.3-.01,0-.02,0-.03,0h-.02s-.01,0-.01,0c-.04,0-.08,0-.12,0-.04,0-.08-.02-.12-.03-.03,0-.06,0-.09,0-.06.01-.11.02-.17.03-.07.03-.15.06-.22.1-.37.22-.56.78-.4,1.15.15.34.51.55.92.54.35,0,.61-.22.76-.59.11-.31.02-.6-.11-.88Z"/>
  <path class="cls-14" d="m17.89,8.06c.54.36,1.13.47,1.75.3.13-.04.25-.11.37-.16-.17.04-.35.07-.53.09-.29.03-.59.02-.88-.05-.12-.03-.24-.07-.36-.12s-.23-.09-.35-.14c0,.03,0,.06-.01.08Z"/>
  <path class="cls-14" d="m18.96,17.98s0,0,0,0c0,0,0,0,0,0,.13.28.23.57.11.88.02,0,.06,0,.07-.03.09-.19.11-.39.04-.58-.04-.11-.05-.27-.23-.28Z"/>
  <path class="cls-14" d="m16.15,17.45c-.09.19-.17.39-.26.58.03,0,.06,0,.09,0h0c.06-.19.11-.39.17-.58,0,0,0,0,0,0Z"/>
  <path class="cls-26" d="m18.22,5.9c.11-.19.21-.37.32-.56-.24.11-.32.32-.36.56.01,0,.02,0,.04,0h0Z"/>
  <path class="cls-14" d="m18.96,17.98s0,0,0,0c0,0,0,0,0,0-.01-.03-.02-.05-.03-.08-.07-.17-.16-.21-.37-.22.13.1.27.2.4.3Z"/>
  <path class="cls-14" d="m16.25,17.29c-.03.06-.07.11-.1.17,0,0,0,0,0,0,0,0,0,0,0,0,0,0,0,0,0,0,.07-.01.09-.06.1-.11,0-.02,0-.04,0-.06,0,0,0,0,0,0,0,0,0,0,0,0,0,0,0,0,0,0Z"/>
  <path class="cls-5" d="m18.01,17.66c.06-.01.11-.02.17-.03"/>
  <path class="cls-20" d="m18.18,5.9c0,.05.01.11.02.16,0-.05.01-.11.02-.16-.01,0-.02,0-.04,0Z"/>
  <path class="cls-5" d="m18.26,17.62s.08.02.12.03"/>
  <path class="cls-2" d="m16.29,17.23s.05-.06.07-.09"/>
  <path class="cls-2" d="m16.25,17.29s0,0,0,0"/>
  <path class="cls-2" d="m16.3,17.22s0,0,0,0"/>
  <path class="cls-2" d="m16.25,17.29s.03-.04.04-.06"/>
  <path class="cls-14" d="m18.51,17.67h.02s-.02,0-.03,0h0s.01,0,.01,0Z"/>
  <path class="cls-20" d="m18.21,6.27s-.02.02-.01.02c0,.01.02.02.02.04,0-.02,0-.04,0-.05Z"/>
  <path class="cls-24" d="m179.18,22.25h0c0-.1.01-.19.01-.29,0-3.4,0-6.8,0-10.2,0-.09,0-.17-.01-.26h0s-.06.05-.08.07c0,0-.01.02-.01.03-.02.07,0,.14,0,.21,0,3.38,0,6.75,0,10.13,0,.07,0,.14,0,.21,0,.04.06.07.1.1Z"/>
  <path class="cls-11" d="m85.79,18.97h4.79c-.8-2.01-1.59-4-2.39-6.04-.81,2.04-1.6,4.04-2.39,6.04Z"/>
  <path class="cls-10" d="m192.9.49c-.07.04-.13.05-.18-.03-.48-.07-.92,0-1.3.2-.23.12-.45.28-.66.48-.28.27-.41.63-.52.99-.09.28-.1.58-.04.85.17.72.53,1.31,1.24,1.62.2.06.39.13.59.19.35.01.69.02,1.03-.08.06-.03.12-.05.19-.08.03-.02.06-.04.09-.05.91-.39,1.39-1.36,1.2-2.37-.17-.92-.74-1.48-1.64-1.73Zm.27,3.72c-.05,0-.11-.08-.14-.14-.11-.19-.21-.39-.31-.58-.03-.05-.07-.1-.09-.16-.19-.36-.46-.54-.91-.4v1.27h-.45s-.03-.06-.03-.09c0-1,0-2,0-3,.02-.03.03-.08.05-.08.43,0,.85-.06,1.28.03.18.06.39.08.53.18.52.41.38,1.24-.23,1.49-.06.03-.13.05-.2.08.44.38.64.89.95,1.4-.17,0-.31.02-.44,0Z"/>
  <path class="cls-20" d="m191.87,4.83s.11-.02.17-.04c-.2-.06-.39-.13-.59-.19.09.17.27.18.42.23Z"/>
  <path class="cls-20" d="m193.06,4.72s.04.01.06.02c.06.01.11,0,.12-.1-.06.03-.12.05-.19.08Z"/>
  <path class="cls-12" d="m192.9.49s-.08-.07-.13-.06c-.02,0-.03.01-.05.03.05.08.11.07.18.03Z"/>
  <path class="cls-22" d="m192.66,2.81c.07-.03.14-.05.2-.08.62-.25.76-1.08.23-1.49-.14-.11-.35-.13-.53-.18-.03.03-.07.09-.1.09-.41,0-.82.06-1.22-.04,0,1,0,2,0,3,0,.03.02.06.03.09h.45v-1.27c.45-.14.72.04.91.4.03.05.07.1.09.16.1.19.2.39.31.58.03.06.09.13.14.14.13.02.27,0,.44,0-.31-.51-.51-1.02-.95-1.4Zm-.11-.38c-.27.02-.54,0-.84,0v-.93c.31,0,.61-.05.91.03.25.06.36.25.34.49-.02.22-.18.4-.41.41Z"/>
  <path class="cls-21" d="m192.46,1.15s.07-.06.1-.09c-.42-.09-.85-.04-1.28-.03-.02,0-.03.05-.05.08.4.1.81.04,1.22.04Z"/>
  <path class="cls-10" d="m192.96,2.01c.03-.24-.09-.43-.34-.49-.3-.07-.6-.03-.91-.03v.93c.3,0,.57.01.84,0,.23-.01.39-.19.41-.41Z"/>
</svg>