<?xml version="1.0" encoding="UTF-8"?>
<svg id="Layer_1" data-name="Layer 1" xmlns="http://www.w3.org/2000/svg" viewBox="0 0 188.55 55.15">
  <defs>
    <style>
      .cls-1, .cls-2, .cls-3, .cls-4 {
        fill: none;
      }

      .cls-5 {
        fill: #0062aa;
      }

      .cls-6 {
        fill: #fff;
      }

      .cls-7 {
        fill: #fdfeff;
      }

      .cls-8 {
        fill: #6b6b70;
      }

      .cls-9 {
        fill: #7f7f82;
      }

      .cls-10 {
        fill: #969597;
      }

      .cls-11 {
        fill: #b9b9ba;
      }

      .cls-12 {
        fill: #cdcdcd;
      }

      .cls-13 {
        fill: #dbdadc;
      }

      .cls-14 {
        fill: #1cbed3;
      }

      .cls-15 {
        fill: #706f73;
      }

      .cls-16 {
        fill: #717175;
      }

      .cls-17 {
        fill: #717074;
      }

      .cls-18 {
        fill: #727175;
      }

      .cls-19 {
        fill: #727176;
      }

      .cls-20 {
        fill: #6d6c71;
      }

      .cls-21 {
        fill: #6d6d71;
      }

      .cls-22 {
        fill: #87878a;
      }

      .cls-23 {
        fill: #5a595c;
      }

      .cls-24 {
        fill: #616065;
      }

      .cls-25 {
        fill: #78797d;
      }

      .cls-26 {
        fill: #4e94ca;
      }

      .cls-2 {
        stroke: #78797d;
      }

      .cls-2, .cls-3, .cls-4 {
        stroke-linecap: round;
        stroke-linejoin: round;
        stroke-width: 0px;
      }

      .cls-3 {
        stroke: #87878a;
      }

      .cls-4 {
        stroke: #4e94ca;
      }
    </style>
  </defs>
  <g>
    <path class="cls-1" d="m70.11,44.95c.1-.05.19-.1.29-.15-.1.05-.19.1-.29.15-.51.32-.94.71-1.3,1.14.36-.43.8-.81,1.3-1.14Z"/>
    <polygon class="cls-1" points="87.8 53.74 87.8 53.75 87.8 53.74 87.8 53.74"/>
    <path class="cls-1" d="m122.01,53.93c.12-.07.25-.14.37-.21.11-.02.23-.03.34-.05-.11.02-.23.03-.34.05-.12.07-.25.14-.37.21Z"/>
    <path class="cls-1" d="m143.12,47.68c.09,0,.18,0,.27,0-.09,0-.18,0-.27,0-.21.02-.41.05-.62.07-.05.01-.11.03-.16.04.05-.01.11-.03.16-.04.21-.02.41-.05.62-.07Z"/>
    <path class="cls-1" d="m183.92,46.62s-.03.02-.03.03c0,0,.02-.02.03-.03h0Z"/>
    <path class="cls-1" d="m90.36.52c-.06,0-.11,0-.17-.01h.17Z"/>
    <path class="cls-1" d="m118.83,54.45c-.39.03-.77.06-1.16.09.39-.03.77-.06,1.16-.09h0Z"/>
    <path class="cls-1" d="m123.41,53.6c.22-.09.39-.25.47-.43.25-.15.47-.31.68-.49-.2.18-.43.35-.68.49-.07.18-.25.33-.47.43Z"/>
    <polygon class="cls-1" points="118.84 53.64 118.82 53.67 118.84 53.64 118.84 53.64"/>
    <path class="cls-1" d="m183.89,46.65s.02.05.03.07c0,.29,0,.59,0,.88,0-.29,0-.59,0-.88-.01-.02-.02-.05-.03-.07Z"/>
    <path class="cls-7" d="m90.36.52c.12-.02.24-.03.36-.05.06,0,.12,0,.18,0,.65,0,1.29-.02,1.94-.02.09-.15.18-.3.27-.45-.97,0-1.94,0-2.92,0,0,.17,0,.34,0,.51.06,0,.11,0,.17.01Z"/>
    <path class="cls-16" d="m23.03,54.15c0-1.64,0-3.28.02-4.92,0-.19.22-.38.33-.57,0-1.35,0-2.69,0-4.04,0-.29-.15-.39-.39-.44-.51-.11-.84.03-1.14.6-.89,1.63-1.76,3.27-2.64,4.91-.34.64-.7,1.27-1.1,1.98-.16-.25-.29-.41-.38-.58-1.05-1.95-2.09-3.89-3.14-5.84-.15-.28-.31-.56-.5-.82-.26-.35-.67-.3-1.01-.22-.14.03-.29.36-.29.55-.02,1.33,0,2.66,0,4,.05-.03.13-.04.14-.08.21-.59.63-.61,1.14-.45.03-.29.06-.58.08-.86.06-.01.11-.03.17-.04,1.24,2.31,2.48,4.62,3.75,6.99,1.29-2.35,2.51-4.59,3.73-6.83.06.02.12.04.17.05.05.41.15.82.15,1.23.01,1.96,0,3.92,0,5.88,0,.14.11.4.2.41.28.04.58.02.86-.04.09-.02.13-.24.2-.37-.3-.03-.38-.22-.38-.49Z"/>
    <path class="cls-19" d="m35.98,47.58c-.09.23-.15.48-.22.71-.44,1.41-.88,2.82-1.33,4.23-.06.17-.21.31-.38.55-.24-.62-.45-1.11-.62-1.62-.5-1.46-.99-2.94-1.49-4.4-.03-.1-.12-.21-.21-.24-.44-.14-.91.15-1.02.6-.04.18-.09.37-.15.55-.46,1.37-.94,2.74-1.39,4.11-.13.41-.42.58-.77.69-.2-.61-.4-1.18-.57-1.76-.39-1.3-.76-2.61-1.15-3.91-.03-.11-.16-.26-.26-.27-.3-.04-.6-.01-.96-.01.03.22.02.4.07.56.38,1.14.77,2.27,1.15,3.41.41,1.22.84,2.44,1.19,3.68.13.46.38.57.77.61.39.05.61-.15.72-.49.18-.56.36-1.11.54-1.67.4-1.25.8-2.51,1.21-3.76.03-.08.11-.2.18-.2.08,0,.19.07.24.14.09.13.17.28.22.43.43,1.26.86,2.52,1.28,3.78.16.49.29,1,.47,1.49.05.13.21.26.34.29.57.14.81-.01.98-.57.02-.07.07-.13.09-.2.77-2.25,1.55-4.51,2.31-6.77.07-.21.1-.45.15-.67-.86-.16-1.11-.02-1.39.72Z"/>
    <path class="cls-18" d="m109.63,44.31c-.02-.12-.2-.28-.32-.31-.49-.08-.73.14-.73.67,0,1.08,0,2.16,0,3.34-.42-.29-.76-.52-1.09-.76-1.4-1.02-3.76-.61-4.76.85-1.18,1.73-1.17,3.51-.24,5.31.94,1.81,3.69,2.27,5.16,1.06.26-.21.57-.37.93-.59,0,.28,0,.46,0,.63.01.41.18.56.6.57.39,0,.54-.17.53-.56-.01-1.32,0-2.65,0-3.97,0-1.69,0-3.37,0-5.06,0-.39-.02-.79-.08-1.18Zm-1.76,8.72c-1.1,1.6-3.42,1.46-4.39-.4-.31-.59-.46-1.19-.39-1.88-.15-1.05.47-1.78,1.2-2.44,1.11-1.01,3.07-.63,3.8.85.65,1.31.61,2.65-.23,3.87Z"/>
    <path class="cls-15" d="m127.04,49.15c-.03-.41,0-.84-.13-1.21-.59-1.72-1.74-2.9-3.51-3.42-1.79-.52-3.62-.47-5.46-.36-.31.02-.28.24-.28.45,0,3.31,0,6.62,0,9.93.39-.03.77-.06,1.16-.09,0-.26,0-.52,0-.78l.02-.03s-.07-.04-.1-.06c-.03-.02-.06-.04-.06-.06.01-.48.04-.96.06-1.44v-6.79h3.19c.16-.08.35-.25.48-.21.13.03.2.28.3.43,1.26.3,2.16,1.06,2.74,2.19.15.29.2.63.3.95.06.01.13,0,.17.04.34.39.24,1.53-.16,1.91-.17.86-.58,1.55-1.19,2.09-.2.18-.43.35-.68.49-.07.18-.25.33-.47.43-.22.09-.47.13-.69.07-.11.02-.23.03-.34.05-.12.07-.25.14-.37.21-.27.17-.53.35-.8.52.06.04.14.06.21.08.22.07.46.12.5.43.5-.11.99-.24,1.49-.32,1.75-.3,3.99-2.85,3.65-4.71-.05-.26,0-.53,0-.79Z"/>
    <path class="cls-19" d="m9.07,44.9c-.02.08-.05.17-.09.25-.5,1.12-1.01,2.24-1.51,3.36-.67,1.51-1.34,3.02-2.03,4.56-.51-.13-.5-.14-.68-.56-.29-.67-.58-1.34-.88-2.01-.88-2-1.75-3.99-2.64-5.99-.05-.11-.19-.2-.31-.25-.14-.06-.31-.07-.47-.08-.16-.01-.31,0-.47.02,0,.17-.03.35.03.5.28.67.6,1.32.89,1.99.58,1.33,1.14,2.66,1.72,3.99.53,1.22,1.11,2.42,1.62,3.65.32.76.65.96,1.46.67.13-.05.27-.17.33-.3.18-.38.31-.79.48-1.17,1.05-2.38,2.11-4.76,3.17-7.15.3-.68.59-1.36.88-2.04-.7-.36-1.32-.11-1.51.57Z"/>
    <path class="cls-16" d="m165.73,46.69c-1.82.2-3.78,1.89-3.77,4.32,0,2.1,2.07,4.36,4.25,4.07,1.98.36,4.14-2.01,4.19-3.99.07-2.36-2.1-4.68-4.67-4.4Zm2.88,5.96c-.09.12-.15.25-.22.38.19.43-.16.63-.42.76-.27.14-.63.14-.94.2-.78.19-1.54.18-2.24-.27-.91-.59-1.43-1.39-1.53-2.51-.11-1.27.38-2.2,1.34-2.95.66-.51,1.42-.59,2.22-.43,2.16.42,2.89,3.31,1.79,4.83Z"/>
    <path class="cls-16" d="m86.45,46.68c-2.03,0-4.32,1.83-4.14,4.61.13,2.05,1.95,3.8,4.22,3.79,2.61,0,4.19-1.75,4.09-4.71-.06-1.83-1.82-3.69-4.17-3.69Zm2.32,6.27c-.08.52-.43.8-.97.8h0c-.09.06-.19.11-.28.17-1.77.73-3.29-.59-3.8-1.86-.58-1.45.08-3.01,1.21-3.82.94-.69,2.46-.66,3.35.19.67.64,1.15,1.37,1.19,2.31.04.81-.23,1.55-.71,2.21Z"/>
    <path class="cls-18" d="m42.48,46.7c-1.04-.04-2.01.15-2.96.54-.28.12-.46.26-.29.55.13.23.23.56.67.41.62-.21,1.26-.38,1.9-.54.85-.22,2.17.46,2.25,1.58.07.88.21.99-.81.87-.95-.12-1.97-.21-2.88,0-1.73.41-2.26,1.72-2.01,3.21.15.84,1.3,1.85,2.13,1.78.39-.03.79-.01,1.19,0,.53.02,1-.09,1.44-.42.26-.19.6-.27.93-.41.03.18.04.33.09.46.13.36.45.41.76.35.16-.03.4-.21.4-.32-.01-1.9.17-3.79-.13-5.69-.2-1.26-1.49-2.3-2.68-2.35Zm.98,6.77c-.85.75-2.68.85-3.4.24-.59-.49-.92-1.55-.04-2.21.28-.21.58-.39.87-.58-.03-.06-.06-.13-.09-.19-.05-.09-.1-.19-.14-.28.1-.04.2-.12.31-.12.57-.01,1.14,0,1.72,0,.12,0,.21.03.26.09s.07.15.07.27c.32-.05.55.03.69.25.05.07.08.16.11.27.08.09.23.17.24.27.09.74.06,1.43-.59,2Z"/>
    <path class="cls-18" d="m75.85,53.01c-.09.11-.17.24-.29.31-1.66.93-3.16,1.17-4.89-.06-1.43-1.01-2.51-3.38-1.59-5.29.58-1.2,1.36-2.21,2.61-2.64,1.37-.48,2.76-.31,3.96.63.53.42.74.39,1.11-.14.14-.2.13-.37-.08-.52-1.03-.75-2.11-1.33-3.44-1.23-.4.35-.86.5-1.41.46-.26-.02-.52.16-.78.22-.18.04-.38.02-.57.02-.03,0-.05.01-.07.03-.1.05-.19.1-.29.15-.51.32-.94.71-1.3,1.14-1.08,1.29-1.49,2.99-1.07,4.74.49,2.04,1.8,3.34,3.71,4.08.88.34,1.8.13,2.7.16.22,0,.47-.04.67-.13.51-.25,1.01-.53,1.5-.83.71-.44.7-.47.2-1.09-.27-.32-.43-.32-.68,0Z"/>
    <path class="cls-17" d="m56.41,46.83c-2.02.51-3.11,2.27-2.98,4.41.12,2.05,2,4.13,4.1,3.85.2-.03.41-.02.62-.01.86.04,1.55-.38,2.25-.78.09-.05.16-.13.21-.22.23-.35-.11-.47-.29-.62-.11-.09-.42-.15-.47-.09-.33.44-.85.52-1.31.64-.51.14-1.09.25-1.59.15-1.15-.23-1.89-1-2.25-2.11-.15-.45,0-.66.47-.67.16,0,.32,0,.48-.02-.03-.29-.06-.59-.09-.88-.16-.03-.33-.06-.49-.08-.31-.03-.52-.26-.38-.53.46-.87.97-1.72,2.03-1.98.74-.19,1.54-.18,2.14.22.74.49,1.27,1.23,1.09,2.26-.14.02-.28.04-.42.07.02.32.44.56.18.93.32,0,.65-.01.97.02.4.04.51-.18.54-.51.05-.69-.07-1.34-.37-1.96-1.04-2.15-2.69-2.52-4.43-2.08Z"/>
    <path class="cls-18" d="m98.59,46.81s-.03.01-.11.06c-.02.29-.05.59-.05.9,0,1.39.02,2.78,0,4.17-.03,1.31-1.64,2.56-2.91,2.23-.7-.18-1.31-.59-1.5-1.34-.12-.46-.18-.95-.19-1.42-.02-1.35,0-2.7-.01-4.04,0-.18-.06-.46-.18-.53-.41-.24-.86.01-.93.48-.03.19-.02.38-.02.57,0,1.45-.03,2.9.02,4.35.02.48.14,1.01.38,1.41.56.93,1.34,1.51,2.55,1.47.86-.03,1.62-.14,2.25-.76.11-.1.27-.15.4-.22.05.16.13.31.13.47,0,.36.15.5.51.48.6-.02.71-.08.72-.5,0-.31,0-.62,0-.92,0-1.9,0-3.81,0-5.71,0-1.15-.07-1.2-1.05-1.13Z"/>
    <path class="cls-17" d="m140.56,51.36l-.09-.94c-.14-.02-.28-.04-.45-.06.12-1.08.58-1.9,1.59-2.35.1-.06.21-.11.31-.17.14-.02.27-.04.41-.06.05-.01.11-.03.16-.04.21-.02.41-.05.62-.07.09,0,.18,0,.27,0,.37.12.74.21,1.09.37.09.04.1.27.15.42.22.42.48.82.66,1.26.08.21.2.51-.13.69,0,.33.43.57.18.95h1.33c-.07-.34-.16-.61-.17-.88-.06-1.69-1.02-3.21-2.52-3.62-1.55-.43-3-.2-4.24,1.24-.85.99-1.1,2.13-.95,3.42.21,1.83,1.47,3.14,2.98,3.48,1.42.32,2.87.17,4.09-.83.22-.18.24-.3.06-.49-.19-.2-.31-.53-.7-.32-.46.24-.92.51-1.41.68-1.32.45-2.82-.11-3.5-1.35-.22-.41-.35-.83-.25-1.3.18-.01.34-.02.5-.03Z"/>
    <path class="cls-16" d="m150.66,48.25c.98-.75,2.02-.47,3.06-.2.08.02.15.13.21.21.23.27.49.33.77.1.18-.14.34-.32.53-.5-1.91-1.66-4.48-1.6-6.17.44-1.5,1.81-1.19,4.62.95,6.18,1.39,1.02,4.45.73,5.21-.62-.11-.09-.24-.16-.32-.28-.3-.42-.52-.33-.92-.04-.74.54-1.59.87-2.54.49-1.15-.47-1.9-1.35-2.09-2.53-.21-1.28.24-2.42,1.32-3.24Z"/>
    <path class="cls-20" d="m80.13,43.89c-.38,0-.76,0-1.15,0-.24,0-.32.11-.32.36.01,1.73,0,3.46,0,5.18h.02c0,1.48,0,2.96,0,4.44,0,1.42-.29,1.17,1.29,1.2.04,0,.09,0,.13,0,.22-.07.36-.17.36-.45-.01-3.46-.01-6.91,0-10.37,0-.24-.07-.36-.32-.36Z"/>
    <path class="cls-16" d="m160.4,54.03c-.98.21-1.41-.06-1.46-1.06-.07-1.34-.03-2.69-.04-4.04,0-.32,0-.63,0-.98.4,0,.7,0,1.01,0,1.12,0,.99.07.97-1.04,0-.02-.03-.05-.06-.11-.24,0-.5,0-.77,0-1.15-.02-1.2.28-1.19-1.17,0-1.02,0-1.02-1.03-.92-.01,0-.03.01-.11.06v2.04c-.36,0-.65-.01-.94,0-.1,0-.25.06-.28.13-.26.52.02.97.6,1,.06,0,.12.01.18,0,.35-.04.44.12.44.46-.02,1.49,0,2.99-.01,4.48,0,.6.19,1.13.55,1.58.2.25.51.51.8.56.51.08,1.05.01,1.58,0,.36-.01.49-.2.41-.56-.08-.37-.25-.52-.64-.44Z"/>
    <path class="cls-15" d="m137.52,46.68c-.57.15-1.15.31-1.7.54-.38.16-.72.43-1.17.71-.04-.34-.06-.59-.11-.83-.02-.1-.07-.24-.15-.28-.46-.22-.89.05-.89.57-.01,2.33-.02,4.65-.03,6.98,0,.12,0,.24.02.35.09.39.41.35.7.36.25,0,.37-.12.38-.41,0-.77.06-1.54.07-2.31.01-.7-.02-1.41.02-2.11.02-.31.09-.65.24-.91.56-.98,1.38-1.57,2.56-1.58.12,0,.3-.19.36-.32.06-.15.06-.36.01-.52-.03-.1-.22-.25-.3-.23Z"/>
    <path class="cls-21" d="m50,47.39c-.24.17-.52.29-.84.46-.06-.27-.13-.44-.13-.62.02-.41-.23-.43-.54-.44-.34-.02-.47.08-.47.44.01,2.05,0,4.1,0,6.16,0,.38.01.76-.04,1.14-.05.37.1.52.44.54.45.03.67-.13.67-.5,0-1.47,0-2.93.02-4.4,0-.15.03-.32.08-.46.44-1.25,1.36-1.85,2.65-1.97.12-.01.31-.17.34-.29.05-.23.02-.48.02-.75-.86-.03-1.56.22-2.2.68Z"/>
    <path class="cls-17" d="m175.82,46.82c-.67.35-1.35.7-2.03,1.05-.04-.18-.11-.42-.14-.67-.05-.31-.2-.42-.51-.4-.3.02-.51.14-.57.44-.03.17-.02.35-.02.53.02,1.74.05,3.48.07,5.23,0,.5,0,1-.02,1.49-.02.43.08.57.52.59.44.02.57-.1.57-.55,0-1.35,0-2.69,0-4.04-.01-1.16.57-1.94,1.56-2.43.39-.19.85-.24,1.28-.35-.15-.18-.31-.36-.46-.55-.09-.11-.17-.22-.25-.33Z"/>
    <path class="cls-21" d="m130.77,46.84q-1.17-.13-1.16.91c0,2.06,0,4.13,0,6.19,0,.1,0,.21,0,.31-.11.67.16.94.85.82.22-.04.34-.13.34-.4-.01-2.12,0-4.25,0-6.37,0-.48,0-.96,0-1.46Z"/>
    <path class="cls-8" d="m12.94,48.66s-.09.05-.14.08c0,1.83-.01,3.66-.01,5.49q0,.92.92.85s.04,0,.04,0c.12-.12.33-.24.33-.37.01-2.17,0-4.33,0-6.5-.5-.17-.93-.14-1.14.45Z"/>
    <path class="cls-16" d="m182.46,44.24c-.16-.06-.34-.08-.52-.08-.75,0-1.5,0-2.25,0-.14,0-.31,0-.43.07-.11.06-.18.2-.26.3.09.08.18.2.29.22.28.06.58.1.87.1.27,0,.35.11.35.37.02,1.05.06,2.1.08,3.15,0,.24.06.45.31.42.11-.02.26-.27.27-.43.03-.51.01-1.02.01-1.54,0,0,.02,0,.02,0,0-.53,0-1.05,0-1.58,0-.28.11-.39.39-.38.29,0,.58-.03.86-.09.09-.02.22-.17.22-.26,0-.1-.12-.24-.22-.27Z"/>
    <path class="cls-20" d="m188.53,44.78c0-.12,0-.23-.01-.35-.14-.08-.28-.16-.42-.24-.09.08-.19.16-.28.23-.09.08-.18.16-.25.26-.39.55-.74,1.12-1.12,1.67-.19.27-.38.29-.57-.02-.3-.47-.61-.93-.92-1.39-.13-.19-.24-.42-.42-.56-.13-.1-.35-.11-.53-.09-.06,0-.14.24-.13.36,0,.36.05.73.08,1.09.15,0,.3,0,.46,0,.11-.19.23-.26.38-.05.1.14.19.29.29.44.35.53.71,1.05,1.11,1.65.22-.34.36-.6.54-.84.36-.47.74-.92,1.11-1.38.01-.56.19-.77.7-.79Z"/>
    <path class="cls-23" d="m145.16,50.42h-4.68c.03.32.06.64.09.95.27-.02.55-.07.82-.07,1.16,0,2.32,0,3.48,0,.16,0,.31.04.47.07.25-.37-.18-.62-.18-.95Z"/>
    <path class="cls-17" d="m59.53,50.43c-1.17,0-2.34,0-3.51,0-.15,0-.31.04-.46.06.03.29.06.59.09.88.21-.02.43-.07.64-.07,1.14.02,2.28.04,3.42.07.27-.37-.16-.61-.18-.93Z"/>
    <path class="cls-25" d="m188.53,44.78c-.5.02-.68.22-.7.79.03.11.08.22.08.33.02.78.03,1.57.03,2.35,0,.52.02.54.6.42-.03-.46-.09-.93-.09-1.41,0-.83.04-1.65.07-2.48Z"/>
    <path class="cls-25" d="m23.05,49.22c-.03,1.64-.01,3.28-.02,4.92,0,.27.08.46.38.49,0-2-.02-3.99-.03-5.99-.12.19-.33.38-.33.57Z"/>
    <path class="cls-24" d="m121.42,54.54c-.07-.02-.15-.05-.21-.08h0c-.79,0-1.59,0-2.38,0-.39.03-.77.06-1.16.09-.11.32,0,.47.35.47,1.3-.01,2.6-.03,3.9-.04-.04-.32-.27-.37-.5-.43Z"/>
    <path class="cls-15" d="m130.16,43.9c-.6,0-.73.14-.73.71,0,.5.17.63.82.62.5,0,.59-.1.59-.59,0-.63-.12-.75-.69-.75Z"/>
    <path class="cls-23" d="m183.92,46.62h0s0,0,0,0c0,.03,0,.07,0,.1,0,.29,0,.59,0,.88s0,.58.02.88c0,.12.16.24.25.35.06-.12.18-.23.18-.35.02-.63,0-1.26,0-1.89,0-.28.02-.56.03-.84-.15,0-.3,0-.46,0,0,.29-.02.58-.03.87Z"/>
    <path class="cls-25" d="m71.04,44.75c.27-.06.53-.23.78-.22.55.03,1-.11,1.41-.46-.2,0-.41-.03-.6.01-.61.12-1.22.25-1.82.41-.13.03-.23.19-.34.29.19,0,.39.01.57-.02Z"/>
    <path class="cls-24" d="m176.41,46.72c-.2.03-.39.07-.59.1.08.11.16.22.25.33.15.18.31.37.46.55.55-.06.32-.5.34-.77.01-.32-.26-.23-.45-.2Z"/>
    <path class="cls-26" d="m92.87.51s-.02-.04-.02-.06c-.65,0-1.29.02-1.94.02.65.01,1.31.03,1.96.04Z"/>
    <path class="cls-25" d="m188.52,44.43c0-.07-.02-.13-.04-.16-.07-.12-.22-.1-.38-.07.14.08.28.16.42.24Z"/>
    <path class="cls-2" d="m70.11,44.95c.1-.05.19-.1.29-.15"/>
    <path class="cls-12" d="m183.92,46.62h0s-.03.02-.03.03c0,.02.02.05.03.07,0-.03,0-.07,0-.1Z"/>
    <path class="cls-4" d="m90.72.47c-.12.02-.24.03-.36.05"/>
    <path class="cls-9" d="m121.21,54.45h0c.27-.17.53-.35.8-.52-.03-.06-.06-.11-.09-.17l-3.1-.09c0,.26,0,.52,0,.78h0c.79,0,1.59,0,2.38,0Z"/>
    <path class="cls-10" d="m125.9,48.68s-.11-.03-.17-.04c0,.65,0,1.3,0,1.95.4-.38.5-1.52.16-1.91Z"/>
    <path class="cls-10" d="m123.87,53.18c-.39.17-.77.33-1.16.5.22.05.48.02.69-.07s.39-.25.47-.43Z"/>
    <path class="cls-10" d="m122.4,45.08c-.13-.04-.32.13-.48.21.26.07.52.14.78.22-.1-.15-.17-.39-.3-.43Z"/>
    <path class="cls-13" d="m118.73,52.08c-.02.48-.05.96-.06,1.44,0,.02.03.04.06.06.03.02.07.04.1.06h0c-.03-.52-.07-1.04-.1-1.56Z"/>
    <path class="cls-10" d="m121.92,53.76c.03.06.06.11.09.17.12-.07.25-.14.37-.21-.15.01-.3.02-.46.03Z"/>
    <path class="cls-22" d="m167.97,53.79c.26-.13.6-.33.42-.76-.45.32-.91.64-1.36.96.32-.06.67-.06.94-.2Z"/>
    <path class="cls-22" d="m88.77,52.95c-.32.27-.65.53-.97.8.54,0,.89-.28.97-.8Z"/>
    <path class="cls-3" d="m87.8,53.74c-.09.06-.19.12-.28.17"/>
    <path class="cls-6" d="m43.8,51.2c-.41-.1-.83-.19-1.24-.29-.56,0-1.11.01-1.67.02-.29.19-.59.37-.87.58-.88.66-.55,1.71.04,2.21.72.6,2.55.5,3.4-.24.64-.57.68-1.25.59-2-.01-.1-.16-.18-.24-.27Z"/>
    <path class="cls-8" d="m43.01,50.67c0-.12-.01-.21-.07-.27s-.14-.09-.26-.09c-.57,0-1.15,0-1.72,0-.1,0-.2.08-.31.12.05.09.1.18.14.28.03.06.06.13.09.19.56,0,1.11-.01,1.67-.02.15-.08.3-.15.45-.23Z"/>
    <path class="cls-22" d="m42.56,50.91c.41.1.83.19,1.24.29-.03-.11-.06-.19-.11-.27-.14-.22-.37-.31-.69-.25-.15.08-.3.15-.45.23Z"/>
    <path class="cls-6" d="m59.53,50.43c.14-.02.28-.04.42-.07.17-1.03-.36-1.77-1.09-2.26-.6-.4-1.4-.41-2.14-.22-1.06.27-1.57,1.11-2.03,1.98-.14.27.06.51.38.53.17.01.33.05.49.08.15-.02.31-.06.46-.06,1.17,0,2.34,0,3.51,0Z"/>
    <path class="cls-6" d="m145.29,49.73c-.17-.44-.43-.84-.66-1.26-.38-.18-.76-.37-1.14-.55h0c-.16-.03-.31-.06-.47-.09-.17-.02-.35-.05-.52-.08-.05.01-.11.03-.16.04-.13.04-.26.09-.38.13-.11.03-.23.07-.34.1-1.02.45-1.47,1.27-1.59,2.35.16.02.31.04.45.06h4.68c.33-.18.21-.49.13-.7Z"/>
    <path class="cls-22" d="m143.5,47.92h0c.38.18.76.37,1.14.55-.05-.14-.06-.37-.15-.42-.35-.16-.73-.25-1.09-.37.04.08.07.16.11.23Z"/>
    <path class="cls-22" d="m142.5,47.75c.17.03.35.05.52.08.03-.05.06-.1.09-.14-.21.02-.41.05-.62.07Z"/>
    <path class="cls-11" d="m143.03,47.82c.16.03.31.06.47.09h0c-.04-.08-.07-.16-.11-.23-.09,0-.18,0-.27,0-.03.05-.06.1-.09.14Z"/>
    <path class="cls-11" d="m141.96,47.92c.13-.04.26-.09.38-.13-.14.02-.27.04-.41.06.01.02.02.05.03.07Z"/>
    <path class="cls-22" d="m141.93,47.84c-.1.06-.21.11-.31.17.11-.03.23-.07.34-.1,0-.03-.01-.05-.03-.07Z"/>
  </g>
  <path class="cls-1" d="m35.32,13.24c0-.08-.02-.16-.02-.24,0,.08.01.16.02.24h0Z"/>
  <path class="cls-1" d="m14.51,41.25c-.08,0-.15,0-.23-.01-.16-.01-.31-.03-.47-.04.16.01.31.03.47.04.08,0,.15,0,.23.01Z"/>
  <path class="cls-1" d="m15.39,41.31s0,.03,0,.05h0s0-.03,0-.05c.06-.02.12-.04.18-.05.15,0,.3,0,.45-.01-.15,0-.3,0-.45.01-.06.02-.12.04-.18.05Z"/>
  <path class="cls-1" d="m14.57,41.31s0,.03,0,.04c0,.02,0,.05,0,.07,0-.02,0-.05,0-.07,0-.01,0-.03,0-.04Z"/>
  <g>
    <path class="cls-5" d="m114.03,15.58c-.03-.23-.04-.47-.05-.7,0-.06-.01-.11-.02-.17,0-.06-.01-.11-.03-.17-.19-.81-.42-1.62-.77-2.38-.47-1.04-1.13-1.95-1.95-2.74-.6-.58-1.26-1.11-2-1.5-.6-.31-1.21-.6-1.84-.83-.49-.18-1.02-.26-1.53-.37-.65-.14-1.3-.18-1.96-.16-.24,0-.49,0-.73,0-.23,0-.46.02-.68.04-.14.01-.19-.06-.24-.16-.4-.88-.98-1.64-1.63-2.34-.5-.53-1.04-1.01-1.63-1.43-.97-.7-2.01-1.26-3.14-1.64-.51-.17-1.03-.31-1.55-.4-.67-.11-1.35-.16-2.02-.21-.28-.02-.57.04-.85.03-.74-.01-1.46.12-2.17.31-2.87.75-5.15,2.35-6.8,4.83-.58.87-1.04,1.81-1.35,2.8-.26.83-.45,1.68-.51,2.56,0,.06-.07.15-.13.18-.57.24-1.13.48-1.64.83-1.42.98-2.44,2.27-3.05,3.89-.26.69-.41,1.4-.46,2.13-.05.73.01,1.45.15,2.17.14.74.39,1.43.75,2.08.94,1.72,2.27,2.99,4.11,3.71.37.14.75.32,1.16.31.33,0,.67-.25.75-.53.12-.42-.03-.81-.34-.97-.12-.06-.25-.11-.38-.15-.71-.2-1.36-.54-1.95-.97-1.16-.84-1.96-1.95-2.38-3.32-.21-.7-.36-1.41-.26-2.15.1-.77.25-1.52.59-2.23.5-1.04,1.21-1.89,2.16-2.54.7-.47,1.46-.79,2.28-.98.19-.05.27-.12.27-.34,0-.45-.02-.91.05-1.35.09-.6.22-1.19.39-1.77.14-.47.34-.92.56-1.36.35-.72.76-1.41,1.29-2.01,1.83-2.07,4.13-3.24,6.88-3.49.77-.07,1.55-.02,2.32.14.51.1,1.01.24,1.5.39,1.23.37,2.32,1.01,3.29,1.84,1.18,1.02,2.1,2.24,2.71,3.69.12.29.14.31.46.24.83-.17,1.67-.16,2.5-.15.42,0,.84.02,1.25.09.75.13,1.48.32,2.17.64,1.73.8,3.05,2.03,3.95,3.7.37.68.59,1.42.76,2.18.2.88.28,1.75.12,2.63-.11.65-.27,1.3-.5,1.93-.17.49-.45.96-.72,1.4-.67,1.09-1.55,1.97-2.64,2.63-.33.2-.67.38-1,.59-.34.21-.44.64-.26,1.02.17.35.59.53.95.4.28-.1.56-.22.82-.36,1.27-.68,2.28-1.67,3.15-2.81.7-.91,1.19-1.94,1.51-3.04.17-.59.28-1.2.3-1.82"/>
    <path class="cls-14" d="m99.31,34.62c.25,0,.49,0,.74,0,.11,0,.21,0,.32,0,0,0,.02-.02.03-.02.62-.13,1.16-.39,1.63-.82.63-.59,1.05-1.3,1.11-2.17.04-.59.02-1.17-.22-1.74-.26-.62-.6-1.14-1.16-1.51-.35-.23-.72-.41-1.12-.54-.57-.18-1.14-.17-1.71-.06-.51.1-.97.33-1.38.61-.72-.68-1.43-1.35-2.15-2.03.02-.03.04-.06.06-.07.43-.49.77-1.03.99-1.65.19-.54.31-1.08.37-1.65.06-.63-.02-1.25-.13-1.86-.03-.15-.08-.3-.12-.45-.03-.12-.01-.21.12-.26.11-.04.22-.11.33-.16.88-.45,1.76-.9,2.65-1.35.11-.06.21-.07.33.03.34.29.68.58,1.05.83.6.41,1.28.57,2,.56.33,0,.66-.08.99-.14.99-.18,1.73-.75,2.32-1.52.61-.79.86-1.7.76-2.69-.05-.46-.15-.93-.3-1.36-.25-.71-.76-1.25-1.37-1.68-.94-.67-1.99-.88-3.13-.67-1.08.2-1.94.76-2.57,1.65-.52.73-.78,1.55-.76,2.45,0,.27.05.55.13.81.06.21-.02.27-.18.35-.96.48-1.91.97-2.86,1.46-.25.13-.26.13-.42-.1-.71-1.02-1.71-1.64-2.87-2.03-.85-.28-1.73-.39-2.62-.27-.9.12-1.73.43-2.49.91-1.27.8-2.07,1.96-2.5,3.36-.21.67-.31,1.37-.21,2.09.08.59.14,1.18.38,1.72.9,2.03,2.4,3.33,4.61,3.72.65.11,1.31.09,1.97-.03.79-.15,1.53-.39,2.19-.86.04-.03.17,0,.22.04.7.62,1.39,1.26,2.08,1.88.12.11.15.19.07.35-.37.71-.44,1.47-.25,2.23.18.75.57,1.41,1.19,1.91.43.34.89.61,1.43.72.11.01.22.02.33.03.05,0,.11,0,.16,0Zm3.42-20.9c1.75-.15,2.82,1.19,2.81,2.47-.01,1.39-1.01,2.53-2.52,2.52-1.38,0-2.41-1.03-2.52-2.51.01-1.3,1.17-2.38,2.23-2.47Zm-12.08,12.96c-2.09-.13-4.07-1.84-4.04-4.27.03-2.23,1.79-4.16,4.21-4.19,2.34-.03,4.3,1.91,4.25,4.25.1,2.09-1.85,4.38-4.42,4.22Zm7.03,4.54c-.04-1.1.88-2.01,1.94-2,1.13.02,1.96.83,1.96,1.95,0,1.07-.8,1.91-1.93,1.95-1.11.04-2.02-1.04-1.98-1.91Z"/>
  </g>
</svg>