<?xml version="1.0" encoding="UTF-8"?>
<svg id="Layer_1" data-name="Layer 1" xmlns="http://www.w3.org/2000/svg" viewBox="0 0 192.92 57">
  <defs>
    <style>
      .cls-1, .cls-2, .cls-3, .cls-4, .cls-5, .cls-6, .cls-7, .cls-8 {
        fill: none;
      }

      .cls-2 {
        stroke: #f9d676;
      }

      .cls-2, .cls-3, .cls-4, .cls-5, .cls-6, .cls-7, .cls-8 {
        stroke-linecap: round;
        stroke-linejoin: round;
        stroke-width: 0px;
      }

      .cls-9 {
        fill: #f4bc18;
      }

      .cls-10 {
        fill: #f8c52d;
      }

      .cls-11 {
        fill: #6a6667;
      }

      .cls-12 {
        fill: #675a6d;
      }

      .cls-13 {
        fill: #73924b;
      }

      .cls-14 {
        fill: #92c449;
      }

      .cls-15 {
        fill: #8ec147;
      }

      .cls-16 {
        fill: #72a341;
      }

      .cls-17 {
        fill: #8cbf45;
      }

      .cls-18 {
        fill: #dfeecf;
      }

      .cls-19 {
        fill: #a2c478;
      }

      .cls-20 {
        fill: #95c84c;
      }

      .cls-21 {
        fill: #87ba41;
      }

      .cls-22 {
        fill: #6e7b5a;
      }

      .cls-23 {
        fill: #81b341;
      }

      .cls-24 {
        fill: #76a741;
      }

      .cls-25 {
        fill: #7aac41;
      }

      .cls-3 {
        stroke: #73924b;
      }

      .cls-4 {
        stroke: #6a6667;
      }

      .cls-5 {
        stroke: #8e8989;
      }

      .cls-6 {
        stroke: #7aac41;
      }

      .cls-7 {
        stroke: #6e7b5a;
      }

      .cls-8 {
        stroke: #81b341;
      }
    </style>
  </defs>
  <path class="cls-1" d="m49.07,11.64s0,.07-.02.1c.01-.03.02-.07.02-.1Z"/>
  <path class="cls-1" d="m12.57,30.94c0,.09,0,.19,0,.28,0-.09,0-.19,0-.28h0Z"/>
  <path class="cls-1" d="m6.9,25.15c.05,0,.11,0,.16,0h0c-.05,0-.11,0-.16,0Z"/>
  <path class="cls-1" d="m32.32,49.83s-.09.02-.14.04c-.63.02-1.27.05-1.9.06.63-.02,1.27-.04,1.9-.06.05-.01.09-.02.14-.04Z"/>
  <path class="cls-1" d="m48.79,11.23h0s.05.03.07.05c-.02-.02-.04-.03-.07-.05Z"/>
  <path class="cls-1" d="m48.79,12.05h0c0,.6,0,1.2,0,1.8,0-.6,0-1.2,0-1.8h0Z"/>
  <path class="cls-1" d="m28.87,30.15c.08.01.16.03.24.04-.08-.01-.16-.03-.24-.04,0,0,0,0,0,0Z"/>
  <path class="cls-1" d="m9.77,22.72s-.07.03-.1.05c-.14.01-.28.02-.42.03.14-.01.28-.02.42-.03.03-.01.07-.03.1-.05Z"/>
  <path class="cls-1" d="m5.49,56.53c.07-.02.13-.03.2-.05-.07.01-.13.03-.2.05Z"/>
  <path class="cls-1" d="m35.49,7.91s.05-.02.07-.04c-.02.01-.05.02-.07.04.86,0,1.72,0,2.58,0-.86,0-1.72,0-2.58,0Z"/>
  <path class="cls-1" d="m23.83,7.9s-.05.03-.08.04h0s.05-.03.08-.04Z"/>
  <path class="cls-1" d="m21.4,12.38c0,.58,0,1.16,0,1.74,0,0,0,0,0,0,0-.58,0-1.16,0-1.74Z"/>
  <path class="cls-1" d="m41.14,30.19c-3.93,0-7.86.02-11.79.02,3.93,0,7.86-.01,11.79-.02.06-.01.12-.03.18-.04.08-.02.16-.04.24-.05-.08.02-.16.04-.24.05-.06.01-.12.03-.18.04Z"/>
  <path class="cls-1" d="m48.79,15.92h0c0-.14,0-.27,0-.41,0,.14,0,.27,0,.41Z"/>
  <path class="cls-1" d="m7.96,49.33h0c.43.21.87.42,1.3.62h0c-.43-.21-.87-.42-1.3-.62Z"/>
  <path class="cls-1" d="m37.01,35.11c-.09,0-.19,0-.28,0,.09,0,.19,0,.28,0h0Z"/>
  <path class="cls-1" d="m47.9,8.52s-.08-.06-.12-.08c-.41-.1-.82-.26-1.22-.36.41.1.82.26,1.22.36.04.03.08.06.12.08Z"/>
  <path class="cls-1" d="m9.24,56.64c1.53,0,3.05,0,4.58,0,.99,0,1.98,0,2.97,0-.99,0-1.98,0-2.97,0-1.53,0-3.05,0-4.58,0Z"/>
  <path class="cls-1" d="m23.89,56.45c-4.42,0-8.84,0-13.26,0,4.42,0,8.84,0,13.26,0,.06-.07.11-.14.17-.21-.06.07-.11.14-.17.21Z"/>
  <path class="cls-1" d="m39.46,55.07c.16-.15.31-.31.45-.47-.14.16-.29.32-.45.47Z"/>
  <path class="cls-1" d="m10.63,56.44c.06-.05.12-.12.18-.18-.06.06-.12.13-.18.18-1.56,0-3.12,0-4.68,0,1.56-.01,3.12,0,4.68,0Z"/>
  <path class="cls-1" d="m55.64,32.06s-.06,0-.09.02c.03,0,.06-.01.09-.02Z"/>
  <path class="cls-1" d="m25.41,56.45c-.18,0-.37,0-.55,0,.18,0,.37,0,.55,0,0,.04,0,.08,0,.12-.62,0-1.23.01-1.85.02.62,0,1.23-.01,1.85-.02,0-.04,0-.08,0-.12Z"/>
  <path class="cls-1" d="m32.29,49.91c-.21.04-.43.09-.64.13.21-.04.43-.09.64-.13,0,0,0,0,0,0Z"/>
  <path class="cls-1" d="m24.17,56.45c.23,0,.46,0,.69,0h0c-.23,0-.46,0-.69,0Z"/>
  <path class="cls-1" d="m23.83,7.9c.08-.04.16-.09.24-.14-.08.04-.16.09-.24.14Z"/>
  <path class="cls-1" d="m48.78,18.12v.55c0,.23,0,.46,0,.69,0-.23,0-.46,0-.69,0-.18,0-.37,0-.55Z"/>
  <path class="cls-1" d="m21.65,9.72c-.04.09-.08.18-.12.27h0c.04-.09.08-.18.12-.27Z"/>
  <path class="cls-1" d="m48.78,19.64c0-.09,0-.18,0-.27,0,.09,0,.18,0,.27,0,.37,0,.74,0,1.1h0c0-.37,0-.74,0-1.1Z"/>
  <path class="cls-1" d="m55.89,33.84c0,.69,0,1.38,0,2.06,0-.69,0-1.38,0-2.06,0,.69,0,1.38,0,2.06l-.03.83c-.3,1.44-.92,2.57-1.84,3.4.92-.83,1.54-1.96,1.84-3.4.01-.28.02-.55.03-.83,0-.69,0-1.38,0-2.06Z"/>
  <path class="cls-1" d="m55.89,33.84c0-.19,0-.37,0-.56-.02-.2-.03-.4-.05-.6.02.2.03.4.05.6,0,.19,0,.37,0,.56Z"/>
  <path class="cls-1" d="m41.26,49.94c0,.42,0,.84,0,1.26-.03-1.01-.06-2.02-.09-3.02.03,1.01.06,2.02.09,3.02,0,.14,0,.28,0,.41-.24,1.14-.66,2.16-1.35,2.98.69-.82,1.11-1.85,1.35-2.98,0-.14,0-.28,0-.41,0-.42,0-.84,0-1.26Z"/>
  <path class="cls-1" d="m48.79,14.68c0,.28,0,.55,0,.83,0-.28,0-.55,0-.83h0Z"/>
  <path class="cls-1" d="m55.12,32.61c0-.3.14-.47.43-.53-.29.07-.44.23-.43.53Z"/>
  <path class="cls-1" d="m34.5,35.76c-.02-.18-.07-.36-.11-.54,0-.04,0-.08,0-.12,0,.04,0,.08,0,.12.03.18.08.36.11.54Z"/>
  <path class="cls-1" d="m46.53,35.1h-1.79c-.72,0-1.44,0-2.16,0,.72,0,1.44,0,2.16,0,.6,0,1.19,0,1.79,0Z"/>
  <path class="cls-1" d="m114.74,39.63s-.09-.08-.13-.11c.04.04.09.08.13.11h0Z"/>
  <path class="cls-1" d="m33.62,56.71c.58-.02,1.16-.05,1.74-.08l.54-.04c.05,0,.1.02.16.03-.05,0-.1-.02-.16-.03,0,0,0,0,0,0-.18.01-.36.03-.54.04-.58.02-1.16.06-1.74.08Z"/>
  <path class="cls-1" d="m34.36,47.76c.05-.46.11-.92.16-1.38.14-.1.28-.2.42-.3-.14.1-.28.2-.42.3-.05.46-.11.92-.16,1.38Z"/>
  <path class="cls-1" d="m48.79,24.46c0,.32,0,.65,0,.97,0-.32,0-.65,0-.97h0Z"/>
  <path class="cls-1" d="m48.79,25.43c0,.96,0,1.93,0,2.89,0,.41,0,.83,0,1.24,0-.41,0-.83,0-1.24,0-.96,0-1.93,0-2.89Z"/>
  <path class="cls-1" d="m21.21,14.02s.08.04.12.06c-.04-.02-.08-.04-.12-.06Z"/>
  <path class="cls-1" d="m36.45,35.11c-.68,0-1.37,0-2.05,0,.68,0,1.37,0,2.05,0h0Z"/>
  <path class="cls-1" d="m54.97,2.95h0c-.05-.09-.1-.17-.15-.26h0c.05.09.1.17.15.26Z"/>
  <path class="cls-1" d="m7.02,24.46c.01-.06.02-.11.05-.17-.02.05-.03.11-.05.17Z"/>
  <path class="cls-1" d="m9.85,22.68s.07-.04.1-.05c-.03.02-.07.04-.1.05Z"/>
  <path class="cls-1" d="m7.81,49.55s.06-.09.08-.13c-.03.04-.06.08-.08.13Z"/>
  <path class="cls-1" d="m6.9,25.15h0s0,0,0,0c.09-.21.07-.46.12-.69-.04.23-.03.49-.12.69Z"/>
  <path class="cls-1" d="m55.87,4.2c.04.11.08.21.11.32-.03-.11-.07-.22-.11-.32Z"/>
  <path class="cls-1" d="m55.45,3.43c.04.05.08.11.12.17-.04-.06-.08-.11-.12-.17Z"/>
  <path class="cls-1" d="m55.24,3.19s0,0,0,0c0,0,0,0,0,0Z"/>
  <path class="cls-1" d="m4.23,56.6h0c.39.12.78.24,1.16.36.13,0,.25.01.38.02-.13,0-.25-.02-.38-.02-.39-.12-.78-.24-1.16-.36Z"/>
  <path class="cls-14" d="m6.03,26.95c.22-.21.58-.28.88-.42h0c0-.46,0-.92,0-1.38h0c.09-.21.07-.47.12-.7.01-.06.02-.11.05-.17.06-.16.18-.29.42-.37.22-.23.45-.46.67-.69.25-.44.57-.7,1.1-.43.14-.01.28-.02.42-.03.03-.01.07-.03.1-.05.02-.01.05-.02.07-.04.03-.02.07-.04.1-.05.09-.05.19-.08.28-.09.87-.02,1.74-.01,2.61-.01-.07-.14-.14-.28-.25-.5,2.73-2.71,5.49-5.45,8.25-8.2.05.03.1.05.15.08.07.04.14.08.21.11.04.02.08.04.12.06.02.01.05.03.07.04,0-.58,0-1.16,0-1.74,0-.58,0-1.16,0-1.74,0-.22.08-.43.12-.65.04-.09.08-.18.12-.27.12-.28.23-.55.38-.81.38-.65,1.08-.76,1.72-.97.03-.01.05-.03.08-.04.08-.04.16-.09.24-.14.11-.06.22-.1.33-.11,1.42-.03,2.84-.02,4.26-.01.31,0,.53,0,.65-.4.12-.37.44-.69.73-.98,1.21-1.23,2.42-2.45,3.65-3.65.57-.55,1.19-1.05,1.76-1.59.15-.14.2-.37.3-.55h-8.42c-.36.43-.69.89-1.08,1.3-1.09,1.14-2.18,2.27-3.3,3.39-.64.65-1.35,1.24-1.99,1.88-2.07,2.07-4.12,4.14-6.19,6.22-.03.03-.09.03-.13.04v2.11c-.31.03-.51.05-.71.08-.35.14-.71.27-1.05.42-.54.25-1.17.43-1.59.82-.99.91-1.86,1.94-2.81,2.89-.92.92-1.9,1.77-2.81,2.69-1.12,1.12-2.19,2.31-3.32,3.42-.74.73-1.57,1.37-2.36,2.04v4.82c.25-.13.55-.22.74-.41,1.77-1.74,3.51-3.5,5.28-5.24Zm15.27-14.55s.02.01.03.02c-.45.51-.9,1.03-1.36,1.52-.54.57-1.11,1.13-1.67,1.69-.68.66-1.37,1.31-2.05,1.97-.47.45-.94.9-1.39,1.37-.93.99-1.84,2-2.79,2.98-.18.19-.51.23-.78.34-.04-.07-.07-.14-.11-.2,3.37-3.23,6.74-6.46,10.12-9.69Z"/>
  <path class="cls-21" d="m40.4,6.48c-.88,1.04-1.8,1.24-2.98,1.17-.46-.03-.92-.03-1.38,0-.16.01-.32.13-.48.22-.02.01-.05.02-.07.04.86,0,1.72,0,2.58,0,2.58,0,5.17,0,7.75.05.25,0,.49.05.74.11.41.1.82.26,1.22.36.04.03.08.06.12.08.08.08.17.16.25.24.1.14.2.27.31.41,0,0,0,0,0,0,0,0,0,0,0,0,0,0,0,0,0,0,.09.19.17.38.26.56.08.02.19.07.26.08.02,0,.04,0,.05,0,1.78-1.79,3.56-3.58,5.31-5.39.15-.15.16-.49.14-.74-.03-.37.06-.58.46-.58.01-.05.02-.1.03-.15-.05-.09-.1-.17-.15-.26h0c-.06-.04-.12-.08-.18-.12-.26-.24-.49-.54-.78-.74-.04-.03-.08-.05-.13-.08-.86-.46-1.75-.85-2.63-1.27h-5.11c-.19.3-.33.66-.58.9-1.67,1.7-3.48,3.28-5.01,5.1Z"/>
  <polygon class="cls-21" points="54.82 2.69 54.82 2.69 54.82 2.69 54.82 2.69"/>
  <polygon class="cls-21" points="54.81 2.69 54.81 2.69 54.82 2.69 54.82 2.69 54.81 2.69"/>
  <polygon class="cls-21" points="54.82 2.69 54.81 2.69 54.82 2.69 54.82 2.69"/>
  <path class="cls-17" d="m33.7,2.62c-1.23,1.2-2.45,2.42-3.65,3.65-.28.29-.61.61-.73.98-.13.41-.35.4-.65.4-1.42,0-2.84-.01-4.26.01-.11,0-.22.05-.33.11-.08.04-.16.09-.24.14-.03.01-.05.03-.08.04,3.91,0,7.83-.02,11.74-.03.02-.01.05-.02.07-.04.16-.09.31-.2.48-.22.46-.04.92-.04,1.38,0,1.18.07,2.11-.13,2.98-1.17,1.53-1.82,3.34-3.4,5.01-5.1.25-.25.39-.6.58-.9h-10.22c-.1.19-.16.42-.3.55-.57.54-1.2,1.04-1.76,1.59Z"/>
  <path class="cls-20" d="m14.68,5.39c-.11,2.63-.02,5.27-.02,7.91.04-.01.1,0,.13-.04,2.06-2.07,4.12-4.15,6.19-6.22.65-.64,1.35-1.23,1.99-1.88,1.11-1.12,2.21-2.25,3.3-3.39.39-.41.72-.86,1.08-1.3h-8.01c-.09.05-.18.11-.28.14-2.55.58-4.29,2.84-4.37,4.77Z"/>
  <path class="cls-21" d="m.1,51.98c.26,1.56,1.17,2.71,2.37,3.66.11.08.29.08.43.11-.01-.13.02-.3-.05-.38-.39-.44-.24-.7.23-.96.22-.12.35-.38.53-.57.14-.14.28-.28.42-.42.2-.2.41-.4.61-.59.29-.27.64-.5.85-.82.41-.66,1.01-1.08,1.61-1.54.18-.14.33-.33.46-.53.09-.13.17-.26.25-.39.03-.04.06-.09.08-.13.02-.03.04-.06.06-.09,0,0-.02,0-.03,0-.04-.04-.09-.08-.13-.12,0,0-.02,0-.02,0-.06-.03-.12-.07-.18-.1-.1-.17-.19-.35-.29-.52-.04-.07-.08-.13-.12-.2l.02-.04-.02-.04c-.01-.09-.02-.18-.04-.28-.02-.57-.06-1.14-.06-1.71,0-6.78,0-13.57,0-20.35,0-.14,0-.27,0-.41,0-.14,0-.27-.01-.41-.05,0-.11,0-.16,0h0c0,.46,0,.92,0,1.38h0c0,1.98,0,3.95,0,5.93,0,2.25,0,4.5,0,6.75,0,.35.05.68-.46.75-.19.03-.36.27-.52.43-1.76,1.75-3.51,3.51-5.27,5.25-.19.18-.44.31-.66.46v5.79s.09.05.1.08Z"/>
  <path class="cls-20" d="m5.69,22.31c.92-.92,1.9-1.77,2.81-2.69.95-.95,1.82-1.98,2.81-2.89.42-.39,1.05-.56,1.59-.82.34-.16.7-.28,1.05-.42-2.94,0-5.88-.1-8.82.03-2.01.09-3.52,1.21-4.46,2.99-.3.57-.45,1.21-.67,1.82v7.44c.79-.68,1.62-1.32,2.36-2.04,1.14-1.11,2.2-2.29,3.32-3.42Z"/>
  <path class="cls-17" d="m5.93,40.4c.16-.16.33-.4.52-.43.51-.08.46-.4.46-.75,0-2.25,0-4.5,0-6.75-.37-.18-.62-.02-.89.26-1.78,1.79-3.57,3.58-5.36,5.35-.19.18-.44.31-.66.46v7.58c.22-.15.47-.27.66-.46,1.76-1.75,3.52-3.5,5.27-5.25Z"/>
  <path class="cls-15" d="m6.02,32.71c.27-.27.51-.43.89-.26,0-1.98,0-3.95,0-5.93h0c-.3.14-.66.2-.88.42-1.77,1.73-3.51,3.5-5.28,5.24-.19.19-.49.28-.74.41v5.93c.22-.15.47-.27.66-.46,1.79-1.78,3.58-3.56,5.36-5.35Z"/>
  <path class="cls-11" d="m100.98,8.54c0-1.02.28-1.9,1.17-2.49.93-.62,1.93-.66,2.94-.22,1.13.5,1.5,1.48,1.51,2.62.02,2.94.02,5.88.02,8.82,0,1.89,1.07,3.3,2.96,3.23,1.44-.05,2.52-1.26,2.56-2.53.07-2.18.1-4.35.1-6.53,0-1.6-.09-3.21-.09-4.81,0-1.14-.33-2.16-.95-3.09-1.46-2.19-4.66-3.12-7.06-2.71-1.44.24-2.66.92-3.8,1.79-.42.32-.84.53-1.26.03-1.26-1.5-3.03-1.79-4.81-1.89-1.85-.1-3.48.6-4.96,1.69-.95.71-.95.7-1.84-.07-2.87-2.48-7.26-2.24-9.47,1.22-.61.95-1.03,2.03-1.48,3.08-.98,2.26-1.92,4.53-2.95,6.94-.79-1.89-1.52-3.64-2.25-5.38-.67-1.59-1.33-3.18-2-4.78-.51-1.22-.99-2.44-2.54-2.69-1.32-.21-2.29.43-2.87,1.44-.32.56-.36,1.53-.1,2.12,1.82,4.12,3.75,8.18,5.66,12.26.36.77.75,1.53,1.22,2.23,1.54,2.28,4.1,2.31,5.77.17.35-.45.62-.96.87-1.48,1.16-2.48,2.3-4.98,3.45-7.47.59-1.28,1.19-2.57,1.78-3.85.17-.37.38-.71.87-.61.49.1.63.48.64.92,0,.21,0,.41,0,.62,0,2.53,0,5.05-.01,7.58,0,.64-.08,1.27-.09,1.91,0,.96.12,1.9.66,2.73.53.8,1.67,1.4,2.37,1.24,1.82-.39,2.62-1.39,2.63-3.29,0-2.96-.02-5.93.01-8.89.01-1.27.54-2.15,1.77-2.63,1.8-.71,3.8.39,3.86,2.13.06,1.81.1,3.61.12,5.42.02,1.49,0,2.99.01,4.48,0,1.38.94,2.45,2.31,2.65,1.38.2,2.64-.54,3.01-1.83.15-.52.21-1.07.21-1.61.03-2.83.02-5.65.02-8.48Z"/>
  <path class="cls-11" d="m138.67,8.92c.69-1.91,1.4-3.81,2.06-5.72.46-1.33-.14-2.14-1.46-2.03-.7.05-.96.56-1.15,1.12-.56,1.58-1.12,3.17-1.67,4.75-.69,1.98-1.37,3.96-2.07,5.94-.3.84-.61,1.68-.99,2.7-.54-1.56-1-2.91-1.47-4.26-1.07-3.05-2.13-6.09-3.21-9.13-.38-1.06-.5-1.13-1.65-1.13-.75,0-1.08.27-1.4,1.15-.36,1-.7,2.01-1.05,3.01-.72,2.04-1.45,4.09-2.17,6.13-.46,1.31-.9,2.63-1.41,4.11-.16-.32-.24-.45-.29-.59-.32-.94-.61-1.89-.93-2.83-.8-2.33-1.61-4.65-2.42-6.98-.35-1-.69-2-1.06-3-.34-.92-1.18-1.3-2.05-.97-.63.24-.94,1.03-.68,1.78.98,2.8,1.96,5.59,2.96,8.38.71,1.99,1.46,3.96,2.21,5.94.28.74.5,1.52.9,2.19.21.36.74.68,1.16.73.75.08,1.37-.29,1.64-1.07.52-1.48,1.02-2.97,1.54-4.45,1.04-2.94,2.09-5.88,3.2-8.99.43,1.23.82,2.32,1.2,3.4.93,2.72,1.85,5.44,2.79,8.16.25.71.52,1.41.82,2.1.24.55.69.95,1.31.92.91-.05,1.48-.57,1.77-1.45.41-1.25.9-2.47,1.35-3.71.75-2.07,1.49-4.14,2.23-6.21Z"/>
  <path class="cls-11" d="m146.52,40.15c-.06-.13-.06-.33,0-.47.64-1.48,1.29-2.96,1.94-4.44.95-2.15,1.89-4.3,2.84-6.45.34-.78.67-1.56,1.02-2.38h-3.43c-1.37,3.53-2.73,7.05-4.1,10.58-.05,0-.11,0-.16,0-.22-.57-.43-1.14-.66-1.71-1.05-2.64-2.09-5.29-3.16-7.93-.14-.35-.37-.9-.6-.92-1.04-.1-2.09-.04-3.2-.04.5,1.16.93,2.23,1.41,3.28,1.49,3.24,3,6.46,4.48,9.71.13.28.11.72-.02,1.01-1.77,4.03-3.57,8.04-5.36,12.05-.58,1.31-1.17,2.62-1.79,4.03,1,0,1.91-.03,2.82.01.49.03.68-.18.83-.6.39-1.09.8-2.18,1.24-3.25,1.17-2.86,2.36-5.71,3.53-8.56.2-.47.37-.96.6-1.57,1.96,4.74,3.85,9.32,5.75,13.92h3.41c-.48-1.08-.94-2.09-1.4-3.1-2-4.39-4-8.78-6-13.18Z"/>
  <path class="cls-11" d="m103.75,42.01h10.98v-2.38s-.09-.08-.13-.11h-10.85v-10.63h11.51v-2.46h-14.44v29.99h14.45v-2.48h-11.52v-11.93Z"/>
  <path class="cls-11" d="m129.44,40.59c-1.83-.84-3.66-1.67-5.42-2.64-.73-.4-1.44-1.07-1.83-1.79-1.72-3.14.7-7.17,4.46-7.31,1.65-.06,3.03.58,4.27,1.59.53.43,1.04.87,1.66,1.38v-2.1c0-1.92.02-1.96-1.76-2.8-2.92-1.37-5.85-1.52-8.59.38-3.24,2.25-4.17,5.16-3.41,8.59.52,2.35,2.3,3.92,4.43,4.98,1.67.83,3.41,1.54,5.1,2.34,3.3,1.57,3.66,5.1,2.14,7.8-1.51,2.67-5.18,3.9-8.2,2.17-1.24-.71-2.41-1.56-3.67-2.38,0,1.12,0,2.2,0,3.28,0,.18.09.43.22.52,2.61,1.75,5.35,2.92,8.6,2.11,5.17-1.29,8.02-6.49,6.52-11.43-.7-2.33-2.4-3.72-4.54-4.7Z"/>
  <path class="cls-11" d="m157.28,18.76c-.04-3.83-.05-7.66-.13-11.48-.05-2.18-.95-3.95-2.94-5.02-2.11-1.13-4.43-1.28-6.74-1.05-1.22.13-2.43.56-3.59.98-.39.14-.78.65-.92,1.07-.17.51.2,1.05.7,1.16.5.11,1.11.04,1.6-.14,1.85-.67,3.76-.86,5.66-.47,2.3.47,3.91,2.22,3.56,5.29-1.42-.17-2.82-.3-4.2-.51-2.04-.31-4,0-5.89.74-3.92,1.56-4.61,6.48-1.85,9.17,1.38,1.34,3.12,2.02,5.01,2.07,2.52.07,4.77-.75,6.56-2.62.09-.09.2-.15.41-.31,0,.52-.01.92,0,1.33.03.74.71,1.53,1.25,1.48,1.1-.1,1.52-.56,1.51-1.7Zm-5.66-1.27c-1.85.87-3.74,1.08-5.64.12-1.69-.85-2.3-1.89-2.07-3.84.18-1.52,1.29-2.36,2.64-2.76.96-.29,2.01-.31,3.16-.47,1.36.22,2.83.42,4.29.7.25.05.61.42.62.67.18,2.52-.34,4.33-3.01,5.58Z"/>
  <path class="cls-11" d="m176.12,1.91c-2.71,1.22-5.52,5.3-5.05,9.45.18,1.54.52,3,1.21,4.37,1.78,3.52,6.2,5.46,10.2,4.55,1.84-.42,3.41-1.32,4.71-2.66.27-.28.48-.86.38-1.21-.1-.35-.61-.81-.95-.81-.48,0-1.02.29-1.43.6-2.36,1.76-4.87,2.47-7.66,1.09-2.16-1.07-3.25-2.91-3.59-5.38.41-.05.74-.12,1.07-.12,3.13,0,6.26,0,9.39,0,.9,0,1.8,0,2.69-.03.88-.04,1.18-.32,1.25-1.11.15-1.67-.17-3.27-.85-4.79-2.11-4.73-7.38-5.75-11.39-3.95Zm8.08,7.81c-1.49-.02-2.98,0-4.48,0v-.03c-1.54,0-3.08,0-4.62,0-1.15,0-1.22-.02-.96-1.14.52-2.3,1.77-4.05,4.1-4.79,3.57-1.14,6.7,1.44,7.22,4.56.24,1.43.18,1.42-1.26,1.4Z"/>
  <path class="cls-11" d="m171.21,2.16c-.07-.37-.47-.85-.82-.94-.52-.14-1.14-.05-1.68.07-1.65.35-2.96,1.31-4.08,2.53-.33.36-.66.72-1.13,1.24,0-.91,0-1.63,0-2.35.01-1.06-.38-1.52-1.3-1.53-1.07,0-1.47.38-1.47,1.49-.01,4.89-.02,9.78-.03,14.67,0,.53-.01,1.06.04,1.58.12,1.23,1.19,1.78,2.2,1.14.58-.36.66-.96.66-1.57,0-2.2,0-4.41.02-6.61,0-.65.02-1.33.18-1.96.73-2.98,2.43-5.08,5.55-5.79.36-.08.73-.11,1.07-.22.68-.22.97-.74.78-1.74Z"/>
  <path class="cls-23" d="m4.23,56.6c.34,0,.68,0,1.02-.01.08-.02.16-.04.24-.06.07-.02.13-.03.2-.05.06-.01.12-.02.18-.03.03,0,.06,0,.09,0,1.56-.01,3.12,0,4.68,0,.06-.05.12-.12.18-.18.1-.11.2-.2.3-.2.96.02,1.51-.58,2.07-1.23.37-.43.77-.82,1.18-1.21.66-.62,1.34-1.23,2.01-1.85.1-.09.22-.19.26-.3.17-.5.54-.75,1.03-.9.17-.05.28-.3.42-.46-.37,0-.74,0-1.1,0-1.17,0-2.34,0-3.51,0-1.17,0-2.34,0-3.51,0-.24,0-.47-.09-.71-.14h0s0,0,0,0c-.43-.21-.87-.42-1.3-.62h0s-.04.06-.06.09c-.03.04-.06.08-.08.13-.08.13-.17.26-.25.39-.13.2-.28.39-.46.53-.6.46-1.19.88-1.61,1.54-.2.32-.56.55-.85.82-.21.2-.41.4-.61.59-.14.14-.29.27-.42.42-.18.19-.32.45-.53.57-.46.26-.62.52-.23.96.07.08.04.25.05.38.07.25.21.4.39.49.29.16.66.19.94.35h0s0,0,0,0Z"/>
  <path class="cls-11" d="m156.6,56.63c.89-.07,1.72-.13,2.6-.19v-20.41h-2.6v20.6Z"/>
  <path class="cls-11" d="m54.93,3.1h0c.31.78.62,1.57.93,2.35.06.18.16.35.18.53,0,.03,0,.05,0,.08,0,10.03,0,20.05,0,30.08,0,.2-.13.4-.2.6-.3,1.44-.93,2.57-1.84,3.4-.8.73-1.82,1.23-3.07,1.52-.19.04-.38.12-.57.15-.06.01-.13.02-.19.02-2.69.01-5.38.02-8.08,0-.54,0-.71.15-.7.7.03,2.78.02,5.56,0,8.34,0,.25-.11.51-.16.76-.24,1.14-.66,2.16-1.35,2.98-.14.16-.29.32-.45.47-.32.3-.69.56-1.11.79-.34.18-.7.31-1.07.43s-.74.22-1.11.35h0c-.26.07-.52.21-.79.21-9.73.01-19.46,0-29.2.01-.27,0-.53.06-.8.1.13,0,.25.01.38.02s.25.01.38.01c9.98,0,19.97,0,29.95,0,.49,0,1-.09,1.48-.23,2.6-.74,4.15-2.9,4.15-5.75,0-2.78,0-5.56,0-8.34,0-.2.02-.4.03-.65.3,0,.54,0,.79,0,2.6,0,5.2,0,7.8,0,.48,0,.97,0,1.44-.11,2.79-.65,4.55-2.74,4.55-5.79.02-9.78.01-19.56,0-29.34,0-.47-.04-.96-.15-1.42-.07-.28-.13-.56-.22-.83-.03-.11-.07-.22-.11-.32-.02-.05-.04-.11-.06-.16-.04-.1-.09-.21-.15-.3-.03-.05-.06-.1-.09-.15-.04-.06-.08-.11-.12-.17-.06-.08-.13-.15-.2-.23,0,0,0,0,0,0-.08-.08-.18-.16-.28-.24,0,0,0,0,0,0,0,0,0,0,0,0,0,0,0,0,0,0h0s-.02.1-.03.15Z"/>
  <path class="cls-11" d="m157.85,26.83c-.59-.02-1.07.3-1.26.87-.18.53-.26,1.09-.38,1.64.04,0,.07.02.11.02,0,.25,0,.51,0,.76.04.85.63,1.58,1.34,1.65.94.1,1.57-.26,1.72-1.26.13-.88.07-1.82-.06-2.71-.11-.75-.81-.95-1.46-.97Z"/>
  <path class="cls-12" d="m35.9,56.59l-.54.04c-.58.02-1.16.06-1.74.08-.19,0-.39,0-.58,0-1.03,0-2.06-.05-3.08-.08-.22,0-.44,0-.66,0-.18.03-.36.08-.53.08-3.75,0-7.5,0-11.25,0-.09,0-.18-.01-.27-.03-.09-.02-.18-.04-.27-.05-.06,0-.12,0-.19,0-.99,0-1.98,0-2.97,0-1.53,0-3.05,0-4.58,0-1.33-.02-2.66-.03-4-.05-.34,0-.68,0-1.02.01,0,0,0,0,0,0,.39.12.78.24,1.16.36.27-.03.53-.1.8-.1,9.73,0,19.46,0,29.2-.01.26,0,.52-.14.79-.21l-.11-.02c-.05,0-.1-.02-.16-.03Z"/>
  <path class="cls-4" d="m54.97,2.95c-.05-.09-.1-.17-.15-.26"/>
  <path class="cls-4" d="m54.81,2.69s0,0,0,0"/>
  <path class="cls-4" d="m54.97,2.96s0,0,0,0"/>
  <path class="cls-4" d="m54.82,2.69s0,0,0,0"/>
  <path class="cls-5" d="m114.61,39.52s.09.08.13.11"/>
  <path class="cls-4" d="m54.82,2.69h0"/>
  <path class="cls-4" d="m54.63,2.57c.06.04.12.08.18.12"/>
  <path class="cls-15" d="m20.75,22.54c.51,0,.67-.15.66-.66-.02-2.59-.01-5.17-.01-7.76,0,0,0,0,0,0-.02-.01-.05-.03-.07-.04-.04-.02-.08-.04-.12-.06-.07-.04-.14-.07-.21-.11-.05-.03-.1-.05-.15-.08-2.77,2.75-5.52,5.49-8.25,8.2.11.23.18.37.25.5,2.64,0,5.27-.01,7.91.01Z"/>
  <path class="cls-15" d="m12.07,21.95c.95-.97,1.85-1.99,2.79-2.98.45-.47.92-.92,1.39-1.37.68-.66,1.37-1.31,2.05-1.97.57-.55,1.13-1.11,1.67-1.69.47-.49.91-1.01,1.36-1.52-.01,0-.02-.01-.03-.02-3.37,3.23-6.74,6.46-10.12,9.69.04.07.07.14.11.2.26-.11.59-.15.78-.34Z"/>
  <path class="cls-21" d="m21.56,22.77c0-2.15,0-4.24,0-6.32,0-1.08,0-2.15-.01-3.23,0-1.08-.01-2.15-.02-3.23h0c-.04.22-.12.43-.12.65,0,.58,0,1.16,0,1.74,0,.58,0,1.16,0,1.74,0,2.59-.01,5.17.01,7.76,0,.51-.15.67-.66.66-2.64-.02-5.27-.01-7.91-.01-.87,0-1.74-.01-2.61.01-.09,0-.19.04-.28.09-.03.02-.07.04-.1.05-.02.01-.05.03-.07.04-.03.02-.07.03-.1.05h11.89Z"/>
  <path class="cls-20" d="m7.48,23.92c-.24.08-.35.21-.42.37-.02.05-.03.11-.05.17-.04.23-.03.49-.12.69.05,0,.11,0,.16,0,.14-.41.28-.82.41-1.23Z"/>
  <path class="cls-20" d="m8.15,23.24c.37-.14.73-.29,1.1-.43-.53-.26-.85-.01-1.1.43Z"/>
  <path class="cls-23" d="m48.71,9.73c.03.5.05,1,.08,1.5.02.02.05.03.07.05.14.12.21.24.21.36,0,.03,0,.07-.02.1-.03.1-.12.21-.26.31,0,.6,0,1.2,0,1.8.05.02.1.05.15.07-.05.02-.1.04-.15.07,0,.14,0,.28,0,.42.06.05.12.09.19.14-.06.05-.12.09-.19.14,0,.28,0,.55,0,.83.32.14.32.27,0,.41,0,.09,0,.19,0,.28.08.03.14.07.18.1.12.1.06.21-.18.31h0c0,.51,0,1.01,0,1.52.37.18.37.37,0,.55,0,.23,0,.46,0,.69.06.05.13.09.19.14l-.19.14c0,.37,0,.74,0,1.1.05-.02.11-.03.16-.04.17-.04.34-.07.44-.17,1.38-1.38,2.74-2.79,4.11-4.18.38-.39.76-.77,1.15-1.15.36-.35.71-.66.52-1.29-.12-.4.25-.65.7-.61h0c0-2.62,0-5.23,0-7.85-.31-.78-.62-1.57-.93-2.35h0c-.4,0-.49.2-.46.58.02.24,0,.58-.14.74-1.75,1.82-3.53,3.61-5.31,5.39-.01.01-.03.01-.05,0-.07,0-.18-.06-.26-.08h0s0,0,0,0c0,0,0,0,0,0Z"/>
  <path class="cls-8" d="m48.45,9.17c-.1-.14-.2-.27-.31-.41"/>
  <path class="cls-8" d="m48.45,9.17s0,0,0,0"/>
  <path class="cls-8" d="m48.45,9.17c.09.19.17.38.26.56"/>
  <path class="cls-8" d="m48.72,9.74h0"/>
  <path class="cls-8" d="m48.45,9.17s0,0,0,0"/>
  <path class="cls-8" d="m47.79,8.44s.08.06.12.08"/>
  <path class="cls-8" d="m7.16,48.04c.01.09.02.18.04.28"/>
  <path class="cls-8" d="m7.2,48.39c.04.07.08.13.12.2"/>
  <path class="cls-8" d="m7.6,49.11c.06.03.12.07.18.1"/>
  <path class="cls-8" d="m7.81,49.21s.08.08.13.12"/>
  <path class="cls-25" d="m10.63,56.44c4.42,0,8.84,0,13.26,0,.06-.07.11-.14.17-.21.04.07.07.14.11.21.23,0,.46,0,.69,0,0-.01,0-.02,0-.04,0-.04,0-.08.03-.09.75-.64,1.53-1.26,2.26-1.92.55-.5,1.06-1.05,1.59-1.57.66-.65,1.33-1.28,1.98-1.94.23-.23.41-.52.62-.78h0c-4.42,0-8.84,0-13.26,0-.14.16-.25.41-.42.46-.49.15-.86.4-1.03.9-.04.12-.16.21-.26.3-.67.62-1.35,1.22-2.01,1.85-.41.39-.82.78-1.18,1.21-.55.65-1.11,1.25-2.07,1.23-.1,0-.2.1-.3.2-.06.06-.12.13-.18.18Z"/>
  <path class="cls-21" d="m9.24,56.64c1.53,0,3.05,0,4.58,0,.99,0,1.98,0,2.97,0,.06,0,.12,0,.19,0,2.19-.02,4.39-.03,6.58-.05.62,0,1.23-.01,1.85-.02,0-.04,0-.08,0-.12-.18,0-.37,0-.55,0-.23,0-.46,0-.69,0h-.28c-4.42,0-8.84,0-13.26,0-1.56,0-3.12,0-4.68,0-.03,0-.06,0-.09,0-.06,0-.12.02-.18.03-.07.01-.13.03-.2.05-.08.02-.16.04-.24.06,1.33.02,2.66.03,4,.05Z"/>
  <path class="cls-16" d="m31.35,50.11s0,0,0,0c.1-.02.2-.04.3-.06.21-.04.43-.09.64-.13-.02,0-.04,0-.06-.01-.02,0-.03-.02-.05-.03-.63.02-1.27.05-1.9.06-.21,0-.42,0-.63,0-4.22.02-8.44.02-12.66.03,0,.04,0,.09,0,.13.37,0,.74,0,1.1,0,4.42,0,8.84,0,13.26,0h0Z"/>
  <path class="cls-24" d="m16.99,49.98c-2.58,0-5.15-.01-7.73-.02h0s0,0,0,0h0c.24.05.47.14.71.14,1.17,0,2.34,0,3.51,0,1.17,0,2.34,0,3.51,0,0-.04,0-.09,0-.13Z"/>
  <path class="cls-16" d="m41.25,51.21c-.03-1.01-.06-2.02-.09-3.02l-.02-.56c-.07-.06-.14-.11-.22-.17l.22-.11c0-.18,0-.37,0-.55-.55.03-1,.09-.61.84.08.15-.16.53-.34.72-.63.65-1.3,1.26-1.95,1.88-.59.57-1.19,1.15-1.78,1.73-.18.17-.33.38-.48.57-.1.13-.15.3-.26.4-1.04.97-2.09,1.93-3.16,2.87-.13.12-.42.23-.54.17-.6-.34-.82.12-1.11.46,1.42,0,2.84,0,4.26,0,.18,0,.36.05.53.09.06.01.12.03.18.04h0s0,0,0,0c.05,0,.1.02.16.03l.11.02h0c.36-.13.74-.23,1.11-.35s.73-.25,1.07-.43c.42-.22.79-.49,1.11-.79.16-.15.31-.31.45-.47.69-.82,1.11-1.85,1.35-2.98,0-.14,0-.28,0-.41Z"/>
  <path class="cls-16" d="m55.86,36.73l.03-.83c0-.69,0-1.38,0-2.06,0-.19,0-.37,0-.56-.02-.2-.03-.4-.05-.6,0-.21,0-.42,0-.64-.07,0-.14,0-.2.02-.03,0-.06,0-.09.02,0,0,0,0,0,0-.29.07-.44.23-.43.53,0,.09.02.2.05.31.06.23.01.6-.14.74-.94.91-1.95,1.75-2.88,2.66-.64.62-1.18,1.35-1.79,2-.53.55-1.11,1.05-1.67,1.57-.28.26-.53.56-.84.79-.19.14-.46.16-.69.23-.27.08-.68.08-.77.24-.21.39-.48.41-.84.41-1.01-.01-2.02-.01-3.03,0-.22,0-.44.06-.66.1,3.03,0,6.07,0,9.1,0,1.24-.29,2.27-.8,3.07-1.52.92-.83,1.54-1.96,1.84-3.4Z"/>
  <path class="cls-12" d="m55.87,13.29h0s0,0,0,0c0,.14,0,.28,0,.42,0,.14,0,.27,0,.41,0,3.31,0,6.62,0,9.93,0,.32.01.64.02.96,0,.05,0,.1,0,.15-.02,2.3-.03,4.59-.05,6.89,0,.21,0,.42,0,.64.02.2.03.4.05.6-.02-.2-.03-.4-.05-.6.02.2.03.4.05.6,0,.18,0,.37,0,.56,0,.69,0,1.38,0,2.06-.01.28-.02.55-.03.83.07-.2.2-.4.2-.6,0-10.03,0-20.05,0-30.08,0-.03,0-.05,0-.08-.02-.18-.13-.35-.18-.53,0,2.62,0,5.23,0,7.85Z"/>
  <path class="cls-12" d="m41.85,41.66s0,0,0,0c-.2.06-.4.11-.59.17,0,.05,0,.1,0,.14,0,.14,0,.27,0,.41,0,2.52,0,5.04-.01,7.56,0,.42,0,.84,0,1.26,0,.14,0,.28,0,.41.06-.25.16-.51.16-.76.01-2.78.02-5.56,0-8.34,0-.55.16-.7.7-.7,2.69.03,5.38.02,8.08,0,.06,0,.13,0,.19-.02.19-.03.38-.11.57-.15-3.03,0-6.07,0-9.1,0Z"/>
  <path class="cls-22" d="m23.55,56.58c-2.19.02-4.39.03-6.58.05.09.01.18.04.27.05.09.02.18.03.27.03,3.75,0,7.5,0,11.25,0,.18,0,.36-.05.53-.08-1.3-.02-2.59-.04-3.89-.07-.62,0-1.23.01-1.85.02Z"/>
  <path class="cls-23" d="m25.41,56.57c1.3.02,2.59.04,3.89.07.22,0,.44,0,.66,0,1.8,0,3.61,0,5.41,0,.18-.01.36-.03.54-.04h0c-.06-.01-.12-.03-.18-.04-.18-.04-.35-.09-.53-.09-1.42-.01-2.84,0-4.26,0-1.84,0-3.68,0-5.53,0,0,.04,0,.08,0,.12Z"/>
  <path class="cls-22" d="m29.95,56.63c1.03.03,2.06.08,3.08.08.19,0,.39,0,.58,0,.58-.02,1.16-.05,1.74-.08-1.8,0-3.61,0-5.41,0Z"/>
  <path class="cls-7" d="m9.24,56.64c1.53,0,3.05,0,4.58,0"/>
  <path class="cls-10" d="m12.57,30.94c0,.09,0,.19,0,.28.04.19.13.38.13.58,0,3.47,0,6.95,0,10.42,0,.19-.08.39-.12.58.03.35.11.66.24.94.03.07.07.14.11.2.12.19.26.36.43.51.45.39,1.07.61,1.83.61,3.66.01,7.31,0,10.97,0,1.92,0,2.85-.95,2.85-2.87,0-3.51,0-7.02,0-10.54,0-.5-.08-1-.13-1.5,0,0,0,0,0,0h0s.09-.03.14-.05c.14-.06.27-.12.41-.12,3.9,0,7.79,0,11.69,0,.15,0,.3.07.45.11,1.07-.28,1.63-.99,1.78-2.05-.04-.2-.11-.39-.11-.59,0-3.65,0-7.3,0-10.94,0-.2.07-.39.11-.59-.23-1.34-1.09-2.16-2.51-2.17-3.8-.04-7.59-.03-11.39,0-1.31.01-2.51.92-2.51,2.31-.01,3.9,0,7.81.01,11.71.02.03.04.06.05.09,0,0-.03.02-.05.04v.7c-2.2,0-4.37,0-6.55,0-1.77,0-3.53-.01-5.3,0-1.39.02-2.48.99-2.51,2.19.02.03.03.06.04.1,0,0-.03.02-.05.04Z"/>
  <path class="cls-24" d="m31.65,50.04c-.1.02-.2.04-.3.06,0,0,0,0,0,0-.21.26-.39.55-.62.78-.65.66-1.32,1.29-1.98,1.94-.53.52-1.04,1.07-1.59,1.57-.74.66-1.51,1.28-2.26,1.92-.02.02-.02.06-.03.09,0,.01,0,.02,0,.04h0c.18,0,.37,0,.55,0,1.84,0,3.68,0,5.53,0,.29-.34.51-.8,1.11-.46.11.06.41-.05.54-.17,1.06-.94,2.11-1.91,3.16-2.87.11-.1.16-.27.26-.4.15-.2.3-.4.48-.57.59-.58,1.18-1.16,1.78-1.73.65-.63,1.32-1.24,1.95-1.88.18-.19.42-.57.34-.72-.39-.76.07-.81.61-.84,0-1.25,0-2.51,0-3.76,0-.22.07-.44.11-.65,0-.14,0-.27,0-.41-.02-.03-.04-.07-.05-.1,0-.01.03-.03.04-.04.2-.06.4-.11.59-.17,0,0,0,0,0,0,.22-.03.44-.1.66-.1,1.01-.01,2.02-.01,3.03,0,.36,0,.63-.02.84-.41.09-.17.5-.17.77-.24.23-.07.51-.09.69-.23.31-.22.56-.52.84-.79.56-.52,1.14-1.02,1.67-1.57.62-.65,1.16-1.37,1.79-2,.93-.91,1.94-1.75,2.88-2.66.15-.15.2-.52.14-.74-.03-.12-.05-.22-.05-.31,0-.3.14-.47.43-.53,0,0,0,0,0,0,.03,0,.06-.01.09-.02.06,0,.13-.01.2-.02.02-2.3.03-4.59.05-6.89-.01-.03-.03-.07-.04-.1,0-.01.03-.03.04-.04,0-.32-.01-.64-.02-.96-.21.1-.47.15-.6.31-.33.41-.55.94-.91,1.31-1.54,1.59-3.12,3.15-4.71,4.7-.22.22-.57.3-.86.44,0,.25-.01.5-.02.75,0,.25,0,.5-.01.75-.01,1.72-.52,2.36-2.22,2.79-.6,0-1.19,0-1.79,0-.72,0-1.44,0-2.16,0,.25.08.49.22.74.23.77.03,1.54.01,2.46.01-.22.28-.31.43-.43.55-1.17,1.17-2.33,2.35-3.51,3.5-1,.98-2.05,1.92-3.04,2.91-1,.99-1.93,2.05-2.94,3.04-.15.15-.31.28-.48.41-.15.11-.3.21-.45.32-.14.1-.28.2-.42.3-.05.46-.11.92-.16,1.38-.03,0-.07,0-.1.01-.15,1.21-.93,2.04-1.94,2.06,0,.03-.02.05-.03.08-.21.04-.43.09-.64.13Z"/>
  <path class="cls-25" d="m49.65,30.37c1.59-1.55,3.16-3.11,4.71-4.7.37-.38.58-.9.91-1.31.13-.16.4-.21.6-.31,0-3.31,0-6.62,0-9.93-.31-.14-.31-.27,0-.41,0-.14,0-.28,0-.42h0c-.45-.04-.82.2-.7.61.19.63-.15.94-.52,1.29-.39.38-.77.76-1.15,1.15-1.37,1.4-2.73,2.8-4.11,4.18-.1.1-.28.14-.44.17-.06.01-.11.03-.16.04h0v2.9c.38.27.38.55,0,.82,0,.32,0,.65,0,.97.08.07.22.14.22.22.02.82.02,1.64,0,2.46,0,.07-.14.15-.22.22,0,.41,0,.83,0,1.24,0,.41,0,.83,0,1.24.29-.14.64-.22.86-.44Z"/>
  <path class="cls-25" d="m34.5,35.76c0,.06.01.12.01.18,0,3.48,0,6.96,0,10.44.14-.1.28-.2.42-.3.15-.1.3-.21.45-.32.17-.13.33-.26.48-.41,1-.99,1.94-2.04,2.94-3.04.99-.99,2.04-1.93,3.04-2.91,1.18-1.16,2.35-2.33,3.51-3.5.12-.12.21-.27.43-.55-.93,0-1.7.02-2.46-.01-.25,0-.49-.15-.74-.23-.2,0-.4,0-.6,0-.15.08-.29.23-.44.23-2.11.02-4.22.01-6.33-.06.41-.06.82-.11,1.22-.17-.68,0-1.37,0-2.05,0,0,.04,0,.08,0,.12.03.18.08.36.11.54Z"/>
  <path class="cls-9" d="m29.42,29.99c-.14,0-.27.06-.41.12-.05.02-.09.04-.14.05h0c.08.01.16.03.24.04.08.01.16.02.24.02,3.93,0,7.86-.01,11.79-.02.06-.01.12-.03.18-.04.08-.02.16-.04.24-.05-.15-.04-.3-.11-.45-.11-3.9,0-7.79,0-11.69,0Z"/>
  <path class="cls-19" d="m34.39,36.53c0-.44,0-.87.01-1.31,0-.04,0-.08,0-.12-.05.14-.14.27-.14.41,0,4.09,0,8.17,0,12.26.03,0,.07-.01.1-.01,0-3.74.01-7.48.02-11.23Z"/>
  <path class="cls-9" d="m43.23,27.46c0,.2.07.39.11.59,0-4.04,0-8.08,0-12.12-.04.2-.11.39-.11.59,0,3.65,0,7.3,0,10.94Z"/>
  <path class="cls-9" d="m12.7,42.22c0-3.47,0-6.95,0-10.42,0-.19-.08-.38-.13-.58,0,3.86,0,7.72,0,11.57.04-.19.12-.39.12-.58Z"/>
  <path class="cls-24" d="m35.23,35.28c2.11.07,4.22.08,6.33.06.15,0,.29-.15.44-.23-1.48,0-2.96,0-4.43,0-.18,0-.36,0-.54,0h0c-.09,0-.19,0-.28,0s-.19,0-.28,0h0c-.41.06-.82.11-1.22.17Z"/>
  <path class="cls-24" d="m49,28.11c.02-.82.02-1.64,0-2.46,0-.07-.14-.15-.22-.22,0,.96,0,1.93,0,2.89.08-.07.22-.14.22-.22Z"/>
  <path class="cls-6" d="m46.53,35.1c-.6,0-1.19,0-1.79,0"/>
  <path class="cls-25" d="m49.05,11.75s.02-.07.02-.1c0-.12-.07-.24-.21-.36-.02-.02-.04-.03-.07-.05h0c0,.27,0,.55,0,.82h0c.14-.1.23-.21.26-.31Z"/>
  <path class="cls-24" d="m48.79,23.64c0,.27,0,.55,0,.82h0c.38-.27.38-.55,0-.82Z"/>
  <path class="cls-25" d="m48.78,18.12c0,.18,0,.37,0,.55.37-.18.37-.37,0-.55Z"/>
  <path class="cls-25" d="m48.79,16.61c.24-.1.3-.21.18-.31-.04-.03-.1-.07-.18-.1,0,.14,0,.27,0,.41h0Z"/>
  <path class="cls-25" d="m48.79,15.51c0,.14,0,.27,0,.41h0c.32-.14.32-.27,0-.41Z"/>
  <path class="cls-25" d="m48.97,19.5c-.06-.05-.13-.09-.19-.14,0,.09,0,.18,0,.27l.19-.14Z"/>
  <path class="cls-6" d="m37.56,35.11c-.18,0-.36,0-.54,0"/>
  <path class="cls-25" d="m48.97,14.54c-.06-.05-.12-.09-.19-.14v.27h0c.06-.05.12-.09.19-.14Z"/>
  <path class="cls-25" d="m48.94,13.92c-.05-.02-.1-.05-.15-.07,0,.04,0,.09,0,.13.05-.02.1-.04.15-.07Z"/>
  <path class="cls-18" d="m32.23,49.9s.04.01.06.01c0,0,0,0,0,0,0-.03.02-.05.03-.08-.05.01-.09.02-.14.04.01.02.03.03.05.03Z"/>
  <path class="cls-9" d="m12.57,30.94s.05-.03.05-.04c0-.03-.03-.06-.04-.1-.01.02-.02.04-.02.07,0,.02,0,.04.01.07h0Z"/>
  <path class="cls-2" d="m41.14,30.19c.06-.01.12-.03.18-.04"/>
  <path class="cls-9" d="m26.99,27.87s-.03-.06-.05-.09c-.02.04-.02.09,0,.13.02-.01.05-.03.05-.04Z"/>
  <path class="cls-24" d="m23.89,56.45h.28c-.04-.07-.07-.14-.11-.21-.06.07-.11.14-.17.21Z"/>
  <path class="cls-13" d="m41.16,43.04c-.01,1.25,0,2.5,0,3.76,0,.18,0,.37,0,.55,0,.09,0,.18,0,.28l.02.56c.03,1.01.06,2.02.09,3.02,0-.42,0-.84,0-1.26,0-2.52,0-5.04.01-7.56-.04.22-.11.44-.11.65Z"/>
  <path class="cls-24" d="m41.15,47.35l-.22.11c.07.06.14.11.22.17,0-.09,0-.18,0-.28Z"/>
  <path class="cls-3" d="m55.89,33.84c0,.69,0,1.38,0,2.06"/>
  <path class="cls-3" d="m55.89,33.29c-.02-.2-.03-.4-.05-.6"/>
  <path class="cls-23" d="m55.87,14.12c0-.14,0-.27,0-.41-.31.14-.31.27,0,.41Z"/>
  <path class="cls-13" d="m55.85,25.06s.03.07.04.1c0-.05,0-.1,0-.15-.01.01-.04.03-.04.04Z"/>
  <path class="cls-13" d="m41.22,41.88s.03.07.05.1c0-.05,0-.1,0-.14-.01.02-.04.03-.04.04Z"/>
  <path class="cls-16" d="m34.52,35.94c0-.06,0-.12-.01-.18-.02-.18-.07-.36-.11-.54,0,.44-.01.87-.01,1.31,0,3.74-.01,7.48-.02,11.23.05-.46.11-.92.16-1.38,0-3.48,0-6.96,0-10.44Z"/>
  <path class="cls-11" d="m192.92,2.32c0,1.32-1.03,2.35-2.38,2.35s-2.39-1.03-2.39-2.35,1.06-2.32,2.39-2.32,2.38,1.03,2.38,2.32Zm-4.17,0c0,1.03.76,1.85,1.81,1.85s1.77-.82,1.77-1.84-.75-1.87-1.78-1.87-1.8.83-1.8,1.85Zm1.43,1.22h-.54V1.22c.21-.04.51-.07.89-.07.44,0,.64.07.81.17.13.1.23.28.23.51,0,.25-.2.45-.48.54v.03c.23.08.35.25.42.57.07.35.11.49.17.58h-.58c-.07-.08-.11-.3-.18-.57-.04-.25-.18-.37-.48-.37h-.25v.93Zm.01-1.32h.25c.3,0,.54-.1.54-.34,0-.21-.16-.35-.49-.35-.14,0-.24.01-.3.03v.66Z"/>
</svg>