<svg id="Layer_1" data-name="Layer 1" xmlns="http://www.w3.org/2000/svg" viewBox="0 0 35 40"><metadata><?xpacket begin="﻿" id="W5M0MpCehiHzreSzNTczkc9d"?>
<x:xmpmeta xmlns:x="adobe:ns:meta/" x:xmptk="Adobe XMP Core 7.1-c000 79.4d2f597, 2021/09/01-20:51:22        ">
   <rdf:RDF xmlns:rdf="http://www.w3.org/1999/02/22-rdf-syntax-ns#">
      <rdf:Description rdf:about=""
            xmlns:dc="http://purl.org/dc/elements/1.1/"
            xmlns:xmp="http://ns.adobe.com/xap/1.0/"
            xmlns:xmpMM="http://ns.adobe.com/xap/1.0/mm/"
            xmlns:stEvt="http://ns.adobe.com/xap/1.0/sType/ResourceEvent#">
         <dc:subject>
            <rdf:Bag>
               <rdf:li>icon</rdf:li>
               <rdf:li>shield</rdf:li>
               <rdf:li>Search</rdf:li>
               <rdf:li>Magnifying Glass</rdf:li>
            </rdf:Bag>
         </dc:subject>
         <xmp:MetadataDate>2022-11-22T12:24:19-06:00</xmp:MetadataDate>
         <xmpMM:InstanceID>xmp.iid:d1eaf137-eedc-c341-915a-fc0faea5b1bc</xmpMM:InstanceID>
         <xmpMM:DocumentID>xmp.did:3db74986-4dc8-4ee9-8331-2e5f73c9e1f7</xmpMM:DocumentID>
         <xmpMM:OriginalDocumentID>xmp.did:3db74986-4dc8-4ee9-8331-2e5f73c9e1f7</xmpMM:OriginalDocumentID>
         <xmpMM:History>
            <rdf:Seq>
               <rdf:li>
                  <rdf:Description>
                     <stEvt:action>saved</stEvt:action>
                     <stEvt:instanceID>xmp.iid:3db74986-4dc8-4ee9-8331-2e5f73c9e1f7</stEvt:instanceID>
                     <stEvt:when>2022-11-11T13:20:04-06:00</stEvt:when>
                     <stEvt:softwareAgent>Adobe Bridge 2021 (Macintosh)</stEvt:softwareAgent>
                     <stEvt:changed>/metadata</stEvt:changed>
                  </rdf:Description>
               </rdf:li>
               <rdf:li>
                  <rdf:Description>
                     <stEvt:action>saved</stEvt:action>
                     <stEvt:instanceID>xmp.iid:d1eaf137-eedc-c341-915a-fc0faea5b1bc</stEvt:instanceID>
                     <stEvt:when>2022-11-22T12:24:19-06:00</stEvt:when>
                     <stEvt:softwareAgent>Adobe Bridge 2022 (Windows)</stEvt:softwareAgent>
                     <stEvt:changed>/metadata</stEvt:changed>
                  </rdf:Description>
               </rdf:li>
            </rdf:Seq>
         </xmpMM:History>
      </rdf:Description>
   </rdf:RDF>
</x:xmpmeta>
                                                                                                    
                                                                                                    
                                                                                                    
                                                                                                    
                                                                                                    
                                                                                                    
                                                                                                    
                                                                                                    
                                                                                                    
                                                                                                    
                                                                                                    
                                                                                                    
                                                                                                    
                                                                                                    
                                                                                                    
                                                                
<?xpacket end="w"?></metadata>
<path d="M18.93,23.7l-.94.59-.59-.94-.78-1.25v0l-.21,1-.18.89H12.57l-.19.3-.94-.59-3.21-2a7.19,7.19,0,0,0,13.88,0Z" fill="none"/><polygon points="12.26 19.86 13.17 20.43 13.43 19.13 13.4 19.15 12.26 19.86" fill="none"/><polygon points="18.12 19.86 17.17 19.27 16.89 20.63 16.97 20.58 18.12 19.86" fill="none"/><path d="M28,34.26l1.69-1.7a32.39,32.39,0,0,0-3.32-2.83L23,27.36l-.15.14-.14.15L25.12,31A31,31,0,0,0,28,34.26Z" fill="none"/><path d="M8.2,18l3.24-2,.94-.59.59.94.77,1.24.19-.95.18-.89h3.67l.21-.34.94.59,3.21,2A7.2,7.2,0,0,0,8.2,18Z" fill="none"/><polygon points="8.38 19.24 8.38 20.49 12.03 22.77 12.81 21.51 10.17 19.86 12.81 18.21 12.03 16.96 8.38 19.24" fill="#2c5967"/><polygon points="21.99 20.49 21.99 19.24 18.34 16.96 17.56 18.21 20.2 19.86 17.56 21.51 18.34 22.77 21.99 20.49" fill="#2c5967"/><polygon points="13.81 22.88 15.31 22.88 16.52 16.88 15.01 16.88 13.81 22.88" fill="#2c5967"/><path d="M22.07,33.2h0l-.44-.62a29.93,29.93,0,0,1-6.47,4.53C7.65,33.17,3,26.92,2.58,20.34V7.94L15.15,2.79,27.73,7.94v12.4a17.23,17.23,0,0,1-1.12,4.91l1.29.93a18.5,18.5,0,0,0,1.3-5.78V7l-14-5.75L1.11,7V20.4c.4,7.22,5.53,14,13.71,18.19l.33.17.34-.17a30.9,30.9,0,0,0,7-4.82Z" fill="#2c5967"/><path d="M27.91,27.56l-4.17-3h0l0,0a9.77,9.77,0,1,0-3.8,3.83l0,0v-.06s0,0,0,0h0l3,4.19a35.22,35.22,0,0,0,3.26,3.79l1.72,1.72,5.49-5.49-1.72-1.72A36.8,36.8,0,0,0,27.91,27.56Zm-6.66-.08.08-.07.16-.13c.21-.18.41-.36.61-.56s.52-.56.76-.85l4.12,3A34.1,34.1,0,0,1,30.6,32l.61.6-3.27,3.26-.6-.6a32.6,32.6,0,0,1-3.11-3.61Zm-6.08-16a8.3,8.3,0,1,1-8.3,8.3A8.31,8.31,0,0,1,15.17,11.52Z" fill="#2c5967"/><path d="M34.22,31.78,32.5,30.06a36.35,36.35,0,0,0-3.68-3.19l.11-.28a20,20,0,0,0,1.38-6.12V6.21l-.69-.28L15.57.17,15.15,0l-.42.17L.69,5.93,0,6.21V20.38H0v.05H0v0c.43,7.61,5.78,14.75,14.32,19.1l.33.17.5.26.5-.26.34-.17a31.4,31.4,0,0,0,7.2-4.94c.73.89,1.49,1.72,2.25,2.48l1.72,1.72.78.79.79-.79,5.49-5.49.78-.78Zm-6.28,6.27-1.72-1.72A35.22,35.22,0,0,1,23,32.54l-3-4.19h0a9.79,9.79,0,1,1,3.8-3.83l0,0h0l4.17,3a36.8,36.8,0,0,1,3.8,3.28l1.72,1.72Zm-12.79.71-.33-.17C6.64,34.42,1.51,27.62,1.11,20.4V7l14-5.75L29.2,7V20.4a18.5,18.5,0,0,1-1.3,5.78l-1.29-.93a17.23,17.23,0,0,0,1.12-4.91V7.94L15.15,2.79,2.58,7.94v12.4C3,26.92,7.65,33.17,15.15,37.1a29.93,29.93,0,0,0,6.47-4.53l.44.62h0l.43.57a30.9,30.9,0,0,1-7,4.82Z" fill="#fff"/><path d="M15.17,28.12a8.3,8.3,0,1,0-8.3-8.3A8.31,8.31,0,0,0,15.17,28.12Zm5-8.26-2.64-1.65L18.34,17,22,19.24v1.25l-3.65,2.28-.78-1.26Zm-4.89,3h-1.5l1.2-6h1.51Zm-5.14-3,2.64,1.65L12,22.77,8.38,20.49V19.24L12,17l.78,1.25Zm7-.59.95.59L17,20.58l-.08.05Zm-4,1.16-.92-.57,1.15-.71,0,0Z" fill="#fff"/><path d="M27.94,35.82l3.27-3.26L30.6,32A34.1,34.1,0,0,0,27,28.83l-4.12-3c-.24.29-.49.58-.76.85s-.4.38-.61.56l-.16.13-.08.07,3,4.13a32.6,32.6,0,0,0,3.11,3.61Z" fill="#fff"/><path d="M19.91,28.32v.06l0,0h0S19.92,28.34,19.91,28.32Z" fill="#fff"/></svg>