<svg id="Layer_1" data-name="Layer 1" xmlns="http://www.w3.org/2000/svg" viewBox="0 0 42.08 37.45"><metadata><?xpacket begin="﻿" id="W5M0MpCehiHzreSzNTczkc9d"?>
<x:xmpmeta xmlns:x="adobe:ns:meta/" x:xmptk="Adobe XMP Core 7.1-c000 79.4d2f597, 2021/09/01-20:51:22        ">
   <rdf:RDF xmlns:rdf="http://www.w3.org/1999/02/22-rdf-syntax-ns#">
      <rdf:Description rdf:about=""
            xmlns:dc="http://purl.org/dc/elements/1.1/"
            xmlns:xmp="http://ns.adobe.com/xap/1.0/"
            xmlns:xmpMM="http://ns.adobe.com/xap/1.0/mm/"
            xmlns:stEvt="http://ns.adobe.com/xap/1.0/sType/ResourceEvent#">
         <dc:subject>
            <rdf:Bag>
               <rdf:li>Compute</rdf:li>
               <rdf:li>Container</rdf:li>
               <rdf:li>icon</rdf:li>
               <rdf:li>shipping</rdf:li>
               <rdf:li>container</rdf:li>
               <rdf:li>storage</rdf:li>
               <rdf:li>Service</rdf:li>
            </rdf:Bag>
         </dc:subject>
         <xmp:MetadataDate>2022-11-22T12:03:58-06:00</xmp:MetadataDate>
         <xmpMM:InstanceID>xmp.iid:d549a0c0-4ca7-e24d-9c0a-ac277c0bc2c5</xmpMM:InstanceID>
         <xmpMM:DocumentID>xmp.did:c9945b9a-da6c-463e-8f69-cb5f16901449</xmpMM:DocumentID>
         <xmpMM:OriginalDocumentID>xmp.did:c9945b9a-da6c-463e-8f69-cb5f16901449</xmpMM:OriginalDocumentID>
         <xmpMM:History>
            <rdf:Seq>
               <rdf:li>
                  <rdf:Description>
                     <stEvt:action>saved</stEvt:action>
                     <stEvt:instanceID>xmp.iid:c9945b9a-da6c-463e-8f69-cb5f16901449</stEvt:instanceID>
                     <stEvt:when>2022-11-11T13:20:09-06:00</stEvt:when>
                     <stEvt:softwareAgent>Adobe Bridge 2021 (Macintosh)</stEvt:softwareAgent>
                     <stEvt:changed>/metadata</stEvt:changed>
                  </rdf:Description>
               </rdf:li>
               <rdf:li>
                  <rdf:Description>
                     <stEvt:action>saved</stEvt:action>
                     <stEvt:instanceID>xmp.iid:d549a0c0-4ca7-e24d-9c0a-ac277c0bc2c5</stEvt:instanceID>
                     <stEvt:when>2022-11-22T12:03:58-06:00</stEvt:when>
                     <stEvt:softwareAgent>Adobe Bridge 2022 (Windows)</stEvt:softwareAgent>
                     <stEvt:changed>/metadata</stEvt:changed>
                  </rdf:Description>
               </rdf:li>
            </rdf:Seq>
         </xmpMM:History>
      </rdf:Description>
   </rdf:RDF>
</x:xmpmeta>
                                                                                                    
                                                                                                    
                                                                                                    
                                                                                                    
                                                                                                    
                                                                                                    
                                                                                                    
                                                                                                    
                                                                                                    
                                                                                                    
                                                                                                    
                                                                                                    
                                                                                                    
                                                               
<?xpacket end="w"?></metadata>
<path d="M31.57,37v-.43H10.65V37H7.08V21.48H.54L.65,20A9.87,9.87,0,0,1,6,12,2.37,2.37,0,0,0,7.2,10.28a7.59,7.59,0,0,1,7.46-6.13,5.48,5.48,0,0,1,.7,0h.24a2.26,2.26,0,0,0,1.68-.72A9.31,9.31,0,0,1,32.44,5.65,2.46,2.46,0,0,0,34.12,7a9.22,9.22,0,0,1,3,1.24,9.53,9.53,0,0,1,3.31,12.57l-.38.71H35.15V37Z" fill="#fff"/><path d="M24.11,1A8.76,8.76,0,0,1,32,5.88a2.94,2.94,0,0,0,2,1.56,9.16,9.16,0,0,1,2.86,1.18A9,9,0,0,1,40,20.53l-.24.45H34.65V36.45H32.07V36H10.15v.43H7.58V21H1.08l.07-.92a9.4,9.4,0,0,1,5-7.67,2.91,2.91,0,0,0,1.52-2,7.09,7.09,0,0,1,4.1-5.13,7.22,7.22,0,0,1,2.86-.6l.66,0,.28,0a2.8,2.8,0,0,0,2-.88A8.85,8.85,0,0,1,24.11,1m0-1a9.82,9.82,0,0,0-7.19,3.14,1.78,1.78,0,0,1-1.32.56h-.19a6.28,6.28,0,0,0-.75,0,8.12,8.12,0,0,0-7.95,6.54,1.91,1.91,0,0,1-1,1.32A10.41,10.41,0,0,0,.15,20l-.07.92L0,22H6.58V37.45h4.57V37H31.07v.43h4.58V22h4.71l.28-.52.24-.45A10,10,0,0,0,34.23,6.47a2,2,0,0,1-1.34-1A9.77,9.77,0,0,0,24.11,0Z" fill="#fff"/><path d="M36.87,8.62A9.16,9.16,0,0,0,34,7.44a2.94,2.94,0,0,1-2-1.56A8.76,8.76,0,0,0,24.11,1a8.85,8.85,0,0,0-6.46,2.82,2.78,2.78,0,0,1-2.33.86,7.21,7.21,0,0,0-3.52.57,7.09,7.09,0,0,0-4.1,5.13,2.91,2.91,0,0,1-1.52,2,9.4,9.4,0,0,0-5,7.67L1.08,21H6.29V19.26H3a7.7,7.7,0,0,1,4-5.34,4.6,4.6,0,0,0,2.4-3.21,5.37,5.37,0,0,1,3.11-3.88,5.42,5.42,0,0,1,2.66-.44A4.49,4.49,0,0,0,18.91,5a7.12,7.12,0,0,1,5.2-2.27,7,7,0,0,1,6.34,3.92,4.7,4.7,0,0,0,3.19,2.48,7.3,7.3,0,0,1,5.07,10.14H35.94V21h3.82l.24-.45A9,9,0,0,0,36.87,8.62Z" fill="#2c5967"/><polygon points="31.21 31.3 29.92 31.3 29.92 22.27 31.21 22.27 31.21 21.41 31.21 20.55 28.2 20.55 28.2 33.02 31.21 33.02 31.21 32.16 31.21 31.3" fill="#2c5967"/><polygon points="26.91 31.3 25.62 31.3 25.62 22.27 26.91 22.27 26.91 21.41 26.91 20.55 23.91 20.55 23.91 33.02 26.91 33.02 26.91 32.16 26.91 31.3" fill="#2c5967"/><polygon points="22.62 31.3 21.33 31.3 21.33 22.27 22.62 22.27 22.62 21.41 22.62 20.55 19.61 20.55 19.61 33.02 22.62 33.02 22.62 32.16 22.62 31.3" fill="#2c5967"/><polygon points="18.32 31.3 17.03 31.3 17.03 22.27 18.32 22.27 18.32 21.41 18.32 20.55 15.31 20.55 15.31 33.02 18.32 33.02 18.32 32.16 18.32 31.3" fill="#2c5967"/><polygon points="14.02 31.3 12.73 31.3 12.73 22.27 14.02 22.27 14.02 21.41 14.02 20.55 11.01 20.55 11.01 33.02 14.02 33.02 14.02 32.16 14.02 31.3" fill="#2c5967"/><path d="M32.07,17.54H10.15v-.43H7.58V36.45h2.57V36H32.07v.43h2.58V17.11H32.07Zm.86,15.9v.86H9.29v-15H32.93V33.44Z" fill="#2c5967"/></svg>