<svg xmlns="http://www.w3.org/2000/svg" viewBox="0 0 40.29 42"><title>Content Management</title><metadata><?xpacket begin="﻿" id="W5M0MpCehiHzreSzNTczkc9d"?>
<x:xmpmeta xmlns:x="adobe:ns:meta/" x:xmptk="Adobe XMP Core 7.1-c000 79.4d2f597, 2021/09/01-20:51:22        ">
   <rdf:RDF xmlns:rdf="http://www.w3.org/1999/02/22-rdf-syntax-ns#">
      <rdf:Description rdf:about=""
            xmlns:dc="http://purl.org/dc/elements/1.1/"
            xmlns:xmp="http://ns.adobe.com/xap/1.0/"
            xmlns:xmpMM="http://ns.adobe.com/xap/1.0/mm/"
            xmlns:stEvt="http://ns.adobe.com/xap/1.0/sType/ResourceEvent#"
            xmlns:lr="http://ns.adobe.com/lightroom/1.0/">
         <dc:title>
            <rdf:Alt>
               <rdf:li xml:lang="x-default">Content Management</rdf:li>
            </rdf:Alt>
         </dc:title>
         <dc:subject>
            <rdf:Bag>
               <rdf:li>Content</rdf:li>
               <rdf:li>icon</rdf:li>
               <rdf:li>Management</rdf:li>
               <rdf:li>service</rdf:li>
               <rdf:li>document</rdf:li>
               <rdf:li>paper</rdf:li>
               <rdf:li>play</rdf:li>
               <rdf:li>conversation</rdf:li>
               <rdf:li>chat</rdf:li>
            </rdf:Bag>
         </dc:subject>
         <xmp:MetadataDate>2022-11-22T12:18:02-06:00</xmp:MetadataDate>
         <xmpMM:InstanceID>xmp.iid:727d6b89-926d-3e4a-878f-d24f5a572623</xmpMM:InstanceID>
         <xmpMM:DocumentID>xmp.did:d2628b87-d9d7-4d5f-8123-eccc39a54603</xmpMM:DocumentID>
         <xmpMM:OriginalDocumentID>xmp.did:d2628b87-d9d7-4d5f-8123-eccc39a54603</xmpMM:OriginalDocumentID>
         <xmpMM:History>
            <rdf:Seq>
               <rdf:li>
                  <rdf:Description>
                     <stEvt:action>saved</stEvt:action>
                     <stEvt:instanceID>xmp.iid:d2628b87-d9d7-4d5f-8123-eccc39a54603</stEvt:instanceID>
                     <stEvt:when>2021-08-31T15:42:51-05:00</stEvt:when>
                     <stEvt:softwareAgent>Adobe Bridge 2021 (Macintosh)</stEvt:softwareAgent>
                     <stEvt:changed>/metadata</stEvt:changed>
                  </rdf:Description>
               </rdf:li>
               <rdf:li>
                  <rdf:Description>
                     <stEvt:action>saved</stEvt:action>
                     <stEvt:instanceID>xmp.iid:727d6b89-926d-3e4a-878f-d24f5a572623</stEvt:instanceID>
                     <stEvt:when>2022-11-22T12:18:02-06:00</stEvt:when>
                     <stEvt:softwareAgent>Adobe Bridge 2022 (Windows)</stEvt:softwareAgent>
                     <stEvt:changed>/metadata</stEvt:changed>
                  </rdf:Description>
               </rdf:li>
            </rdf:Seq>
         </xmpMM:History>
         <lr:hierarchicalSubject>
            <rdf:Bag>
               <rdf:li>service</rdf:li>
            </rdf:Bag>
         </lr:hierarchicalSubject>
      </rdf:Description>
   </rdf:RDF>
</x:xmpmeta>
                                                                                                    
                                                                                                    
                                                                                                    
                                                                                                    
                                                                                                    
                                                                                                    
                                                                                                    
                                                                                                    
                                                                                                    
                                                                                                    
                     
<?xpacket end="w"?></metadata>
<g id="Layer_1" data-name="Layer 1"><path d="M35.8,7.43a9.62,9.62,0,0,0-3-1.25,1.79,1.79,0,0,1-1.25-1A9.42,9.42,0,0,0,16.18,3,1.63,1.63,0,0,1,15,3.53h-.18c-.24,0-.49,0-.73,0a7.85,7.85,0,0,0-3.13.66,7.76,7.76,0,0,0-4.5,5.62A1.76,1.76,0,0,1,5.49,11,10,10,0,0,0,.15,19.14L.08,20,0,21.09H11.42v2.48H6.13V42H10l.3-.38,2.47-3.13H25.66V36.83h7.05V21.09h5.92l.29-.52.23-.44A9.64,9.64,0,0,0,35.8,7.43Z" fill="#fff"/><path d="M38,20.09H33.36V18.45H37a7,7,0,0,0-4.85-9.69,4.48,4.48,0,0,1-3-2.37,6.76,6.76,0,0,0-11-1.58,4.32,4.32,0,0,1-3.59,1.34A5.08,5.08,0,0,0,12,6.57a5.15,5.15,0,0,0-3,3.71,4.41,4.41,0,0,1-2.29,3.06A7.34,7.34,0,0,0,2.9,18.45h7.88v1.64H1.08l.06-.88A9,9,0,0,1,6,11.89,2.77,2.77,0,0,0,7.4,10a6.76,6.76,0,0,1,7.28-5.44,2.65,2.65,0,0,0,2.23-.83,8.42,8.42,0,0,1,13.7,2,2.86,2.86,0,0,0,1.93,1.5,8.47,8.47,0,0,1,2.73,1.12,8.64,8.64,0,0,1,3,11.38Z" fill="#2c5967"/><path d="M7.13,24.57V41H9.52l2.76-3.51H24.66l0-12.92ZM8.6,26.22H23.19V36H11.57L8.8,39.52H8.6Z" fill="#2c5967"/><polygon points="13.65 27.81 13.65 34.31 19.47 31.06 13.65 27.81" fill="#2c5967"/><path d="M27.25,10.44H12.42v12.5h1.65V12.09H25.56V16.6h4.5V34.17H26.17v1.66h5.54v-21ZM27.2,15v-2.1l2.3,2.09Z" fill="#2c5967"/></g></svg>