<svg id="Layer_1" data-name="Layer 1" xmlns="http://www.w3.org/2000/svg" viewBox="0 0 42.08 38.37"><title>Integrations</title><metadata><?xpacket begin="﻿" id="W5M0MpCehiHzreSzNTczkc9d"?>
<x:xmpmeta xmlns:x="adobe:ns:meta/" x:xmptk="Adobe XMP Core 6.0-c006 79.164648, 2021/01/12-15:52:29        ">
   <rdf:RDF xmlns:rdf="http://www.w3.org/1999/02/22-rdf-syntax-ns#">
      <rdf:Description rdf:about=""
            xmlns:dc="http://purl.org/dc/elements/1.1/"
            xmlns:xmp="http://ns.adobe.com/xap/1.0/"
            xmlns:xmpMM="http://ns.adobe.com/xap/1.0/mm/"
            xmlns:stEvt="http://ns.adobe.com/xap/1.0/sType/ResourceEvent#">
         <dc:title>
            <rdf:Alt>
               <rdf:li xml:lang="x-default">Integrations</rdf:li>
            </rdf:Alt>
         </dc:title>
         <dc:subject>
            <rdf:Bag>
               <rdf:li>icon</rdf:li>
               <rdf:li>Integration</rdf:li>
               <rdf:li>Service</rdf:li>
               <rdf:li>connectivity</rdf:li>
               <rdf:li>on premises</rdf:li>
               <rdf:li>OIC</rdf:li>
            </rdf:Bag>
         </dc:subject>
         <xmp:MetadataDate>2022-10-21T13:45:29-05:00</xmp:MetadataDate>
         <xmpMM:InstanceID>xmp.iid:90914f00-beb3-479b-bab0-99f565536833</xmpMM:InstanceID>
         <xmpMM:DocumentID>xmp.did:01b4199a-7c13-4af6-9e6b-6600c4de5c41</xmpMM:DocumentID>
         <xmpMM:OriginalDocumentID>xmp.did:01b4199a-7c13-4af6-9e6b-6600c4de5c41</xmpMM:OriginalDocumentID>
         <xmpMM:History>
            <rdf:Seq>
               <rdf:li>
                  <rdf:Description>
                     <stEvt:action>saved</stEvt:action>
                     <stEvt:instanceID>xmp.iid:01b4199a-7c13-4af6-9e6b-6600c4de5c41</stEvt:instanceID>
                     <stEvt:when>2021-08-31T15:44:19-05:00</stEvt:when>
                     <stEvt:softwareAgent>Adobe Bridge 2021 (Macintosh)</stEvt:softwareAgent>
                     <stEvt:changed>/metadata</stEvt:changed>
                  </rdf:Description>
               </rdf:li>
               <rdf:li>
                  <rdf:Description>
                     <stEvt:action>saved</stEvt:action>
                     <stEvt:instanceID>xmp.iid:90914f00-beb3-479b-bab0-99f565536833</stEvt:instanceID>
                     <stEvt:when>2022-10-21T13:45:29-05:00</stEvt:when>
                     <stEvt:softwareAgent>Adobe Bridge 2021 (Macintosh)</stEvt:softwareAgent>
                     <stEvt:changed>/metadata</stEvt:changed>
                  </rdf:Description>
               </rdf:li>
            </rdf:Seq>
         </xmpMM:History>
      </rdf:Description>
   </rdf:RDF>
</x:xmpmeta>
                                                                                                    
                                                                                                    
                                                                                                    
                                                                                                    
                                                                                                    
                                                                                                    
                                                                                                    
                                                                                                    
                                                                                                    
                                                                                                    
                                                                                                    
                                                                                                    
                                                                                                    
                                         
<?xpacket end="w"?></metadata>
<path d="M29.92,37.87A3.38,3.38,0,0,1,26.86,33a3.21,3.21,0,0,1,.36-.59h0a9.77,9.77,0,0,1-3.78.75,10,10,0,0,1-9.79-8,6.37,6.37,0,0,1-.11-.63h0A3.38,3.38,0,0,1,7,23.19a3.43,3.43,0,0,1,.47-1.71h-7L.65,20A9.87,9.87,0,0,1,6,12,2.37,2.37,0,0,0,7.2,10.28a7.59,7.59,0,0,1,7.46-6.13c.23,0,.47,0,.7,0l.24,0a2.26,2.26,0,0,0,1.68-.72,9.37,9.37,0,0,1,6.83-3,9.26,9.26,0,0,1,8.33,5.15A2.46,2.46,0,0,0,34.12,7a9.22,9.22,0,0,1,3,1.24,9.53,9.53,0,0,1,3.31,12.57l-.38.71H33.28a9.15,9.15,0,0,1,.16,1.71,10,10,0,0,1-3.87,7.89l0,.05.31,0h.29a3.16,3.16,0,0,1,.6.11,3.38,3.38,0,0,1-.88,6.64Z" fill="#fff"/><path d="M24.11,1A8.76,8.76,0,0,1,32,5.88a2.94,2.94,0,0,0,2,1.56,9.16,9.16,0,0,1,2.86,1.18A9,9,0,0,1,40,20.53l-.24.45H32.67A9.42,9.42,0,0,1,28.9,31l.45.72a2.67,2.67,0,0,1,.56-.06h.25a3,3,0,0,1,.51.09,2.88,2.88,0,1,1-2.83.78l-.43-.68a9.47,9.47,0,0,1-13.27-6.73,8.51,8.51,0,0,1-.15-1h-.82A2.88,2.88,0,1,1,8.6,21H1.08l.07-.92a9.4,9.4,0,0,1,5-7.67,2.91,2.91,0,0,0,1.52-2,7.09,7.09,0,0,1,4.1-5.13,7.22,7.22,0,0,1,2.86-.6l.66,0,.28,0a2.8,2.8,0,0,0,2-.88A8.85,8.85,0,0,1,24.11,1m0-1a9.82,9.82,0,0,0-7.19,3.14,1.78,1.78,0,0,1-1.32.56h-.19a6.28,6.28,0,0,0-.75,0,8.12,8.12,0,0,0-7.95,6.54,1.91,1.91,0,0,1-1,1.32A10.41,10.41,0,0,0,.15,20l-.07.92L0,22H6.74a3.84,3.84,0,0,0-.2,1.21,3.88,3.88,0,0,0,6.74,2.63,10.54,10.54,0,0,0,10.16,7.87,10.77,10.77,0,0,0,2.78-.37,3.83,3.83,0,0,0,.33,3.1,3.88,3.88,0,0,0,3.37,1.95,3.81,3.81,0,0,0,1.92-.51,3.88,3.88,0,0,0,1.44-5.3,3.82,3.82,0,0,0-2.35-1.81l-.17-.05a10.5,10.5,0,0,0,3.18-7.51A10,10,0,0,0,33.86,22h6.5l.28-.52.24-.45A10,10,0,0,0,34.23,6.47a2,2,0,0,1-1.34-1A9.77,9.77,0,0,0,24.11,0Z" fill="#fff"/><path d="M36.87,8.62A9.16,9.16,0,0,0,34,7.44a2.94,2.94,0,0,1-2-1.56A8.76,8.76,0,0,0,24.11,1a8.85,8.85,0,0,0-6.46,2.82,2.78,2.78,0,0,1-2.33.86,7.21,7.21,0,0,0-3.52.57,7.09,7.09,0,0,0-4.1,5.13,2.91,2.91,0,0,1-1.52,2,9.4,9.4,0,0,0-5,7.67L1.08,21H6.89A4.21,4.21,0,0,1,9,19.26H3a7.7,7.7,0,0,1,4-5.34,4.6,4.6,0,0,0,2.4-3.21,5.37,5.37,0,0,1,3.11-3.88,5.42,5.42,0,0,1,2.66-.44A4.49,4.49,0,0,0,18.91,5a7.12,7.12,0,0,1,5.2-2.27,7,7,0,0,1,6.34,3.92,4.7,4.7,0,0,0,3.19,2.48,7.19,7.19,0,0,1,2.31,1,7.32,7.32,0,0,1,2.76,9.19H33.48A11.37,11.37,0,0,1,34,21h5.76l.24-.45A9,9,0,0,0,36.87,8.62Z" fill="#2c5967"/><path d="M29.35,31.67,28.9,31a9.47,9.47,0,0,0,0-15.54l.38-.71a3,3,0,0,0,.66.08h.25a4.54,4.54,0,0,0,.51-.09,2.89,2.89,0,1,0-3.36-1.55,3.26,3.26,0,0,0,.46.7l-.4.73a9.41,9.41,0,0,0-3.93-.86,9.5,9.5,0,0,0-9.3,7.61,8.51,8.51,0,0,0-.15,1h-.82a2.89,2.89,0,1,0,0,1.71H14a8.51,8.51,0,0,0,.15,1,9.47,9.47,0,0,0,13.27,6.73l.43.68a2.86,2.86,0,0,0-.53.77,2.87,2.87,0,0,0,2.61,4.11,2.88,2.88,0,0,0,.75-5.66,3,3,0,0,0-.51-.09A2.76,2.76,0,0,0,29.35,31.67ZM28.9,11.32a1.17,1.17,0,0,1,1-.59,1.1,1.1,0,0,1,.57.16,1.16,1.16,0,0,1-1.15,2A1.18,1.18,0,0,1,28.9,11.32Zm2.32,11.87a7.78,7.78,0,1,1-7.78-7.77A7.79,7.79,0,0,1,31.22,23.19Zm-20.8,1.17a1.17,1.17,0,1,1,1.17-1.17A1.16,1.16,0,0,1,10.42,24.36Zm20.5,9.55a1.16,1.16,0,0,1-2,1.16,1.16,1.16,0,0,1,1-1.74A1.15,1.15,0,0,1,30.92,33.91Z" fill="#2c5967"/><path d="M22.44,21.2l-1.16,1.16,1.21,1.22,3.19-3.18-3.19-3.19-1.21,1.22,1,1.05H18.18a6.63,6.63,0,0,0-.87,1.72Z" fill="#2c5967"/><path d="M24.39,25.49l1.18-1.18-1.21-1.22-3.18,3.18,3.18,3.19,1.21-1.22-1-1h3.93a6.35,6.35,0,0,0,1-1.72Z" fill="#2c5967"/></svg>