<svg id="Layer_1" data-name="Layer 1" xmlns="http://www.w3.org/2000/svg" viewBox="0 0 33.46 40"><title>License-Manager</title><metadata><?xpacket begin="﻿" id="W5M0MpCehiHzreSzNTczkc9d"?>
<x:xmpmeta xmlns:x="adobe:ns:meta/" x:xmptk="Adobe XMP Core 6.0-c002 79.164488, 2020/07/10-22:06:53        ">
   <rdf:RDF xmlns:rdf="http://www.w3.org/1999/02/22-rdf-syntax-ns#">
      <rdf:Description rdf:about=""
            xmlns:dc="http://purl.org/dc/elements/1.1/"
            xmlns:xmp="http://ns.adobe.com/xap/1.0/"
            xmlns:xmpMM="http://ns.adobe.com/xap/1.0/mm/"
            xmlns:stEvt="http://ns.adobe.com/xap/1.0/sType/ResourceEvent#">
         <dc:title>
            <rdf:Alt>
               <rdf:li xml:lang="x-default">License-Manager</rdf:li>
            </rdf:Alt>
         </dc:title>
         <dc:subject>
            <rdf:Bag>
               <rdf:li>icon</rdf:li>
               <rdf:li>Business</rdf:li>
               <rdf:li>document</rdf:li>
               <rdf:li>File</rdf:li>
               <rdf:li>Sheet</rdf:li>
               <rdf:li>Documentation</rdf:li>
               <rdf:li>paper</rdf:li>
               <rdf:li>license</rdf:li>
               <rdf:li>permit</rdf:li>
               <rdf:li>manager</rdf:li>
               <rdf:li>certificate</rdf:li>
            </rdf:Bag>
         </dc:subject>
         <xmp:MetadataDate>2022-06-17T13:33:43-05:00</xmp:MetadataDate>
         <xmpMM:InstanceID>xmp.iid:95370fa4-720e-7a45-a4fc-604d9b79f185</xmpMM:InstanceID>
         <xmpMM:DocumentID>xmp.did:b7418138-df02-4165-b011-953ff02b7f29</xmpMM:DocumentID>
         <xmpMM:OriginalDocumentID>xmp.did:b7418138-df02-4165-b011-953ff02b7f29</xmpMM:OriginalDocumentID>
         <xmpMM:History>
            <rdf:Seq>
               <rdf:li>
                  <rdf:Description>
                     <stEvt:action>saved</stEvt:action>
                     <stEvt:instanceID>xmp.iid:b7418138-df02-4165-b011-953ff02b7f29</stEvt:instanceID>
                     <stEvt:when>2022-06-17T13:17:45-05:00</stEvt:when>
                     <stEvt:softwareAgent>Adobe Bridge 2021 (Macintosh)</stEvt:softwareAgent>
                     <stEvt:changed>/metadata</stEvt:changed>
                  </rdf:Description>
               </rdf:li>
               <rdf:li>
                  <rdf:Description>
                     <stEvt:action>saved</stEvt:action>
                     <stEvt:instanceID>xmp.iid:95370fa4-720e-7a45-a4fc-604d9b79f185</stEvt:instanceID>
                     <stEvt:when>2022-06-17T13:33:43-05:00</stEvt:when>
                     <stEvt:softwareAgent>Adobe Bridge 2021 (Windows)</stEvt:softwareAgent>
                     <stEvt:changed>/metadata</stEvt:changed>
                  </rdf:Description>
               </rdf:li>
            </rdf:Seq>
         </xmpMM:History>
      </rdf:Description>
   </rdf:RDF>
</x:xmpmeta>
                                                                                                    
                                                                                                    
                                                                                                    
                                                                                                    
                                                                                                    
                                                                                                    
                                                                                                    
                                                                                                    
                                                                                                    
                                                                                                    
                                                                                                    
                                                                                                    
                                                                                                    
                                                                                                    
                                          
<?xpacket end="w"?></metadata>
<polygon points="21.7 11.85 24.27 11.85 21.7 9.27 21.7 11.85" fill="#fff"/><polygon points="16.14 6.67 17.37 6.67 17.37 3.75 18.87 5.31 19.76 4.46 16.76 1.33 13.72 4.46 14.61 5.32 16.14 3.74 16.14 6.67" fill="#2c5a67"/><polygon points="28.14 17.77 29.72 19.3 26.9 19.3 26.9 20.53 29.7 20.53 28.14 22.03 29 22.92 32.13 19.92 29 16.89 28.14 17.77" fill="#2c5a67"/><path d="M32.77,19.26l-3.13-3L29,15.58l-.64.66-.86.89-.58.59V11.43l-.27-.27L22.43,7l-.27-.27H18.81l0-.06L19.51,6l.89-.85.66-.64-.64-.67-3-3.13L16.76,0l-.67.69-3,3.12-.64.67.66.64L14,6l.67.64,0,.06H6.59V17.79L6,17.16l-.85-.89-.64-.67-.67.64-3.13,3L0,19.9l.69.67,3.12,3,.67.65.64-.67L6,22.7l.61-.63V32h6.48V40l1.44-1,2.25-1.52L19,39l1.44,1V31.93H26.9V22.06l.58.61.85.89.64.66.67-.64,3.13-3,.69-.67ZM6.58,20.53H3.74l1.58,1.53-.86.88-3.13-3,3.13-3,.85.89L3.75,19.3H6.58Zm8-15.21-.89-.86,3-3.13,3,3.13-.89.85-1.5-1.56V6.67H16.14V3.74Zm4.92,25.07v7.86l-2.77-1.87L14,38.26V30.39a5.11,5.11,0,1,1,5.54,0ZM11.21,19.92V18.69H22.3v1.23Zm0-3.56V15.13H22.3v1.23ZM26,31H20.46v-.15a6.13,6.13,0,0,0,1.08-1.08h3.2V13.08H20.46V8.83H8.75v21H12a6.13,6.13,0,0,0,1.08,1.08V31H7.51V7.6H21.78L26,11.81Zm3-8.08L28.14,22l1.57-1.5H26.9V19.3h2.82l-1.58-1.53.86-.88,3.13,3Z" fill="#fff"/><polygon points="5.31 17.8 4.46 16.91 1.33 19.91 4.46 22.94 5.32 22.05 3.74 20.53 6.58 20.53 6.58 19.3 3.75 19.3 5.31 17.8" fill="#2c5a67"/><path d="M7.51,7.6V31h5.56v-.15A6.13,6.13,0,0,1,12,29.79H8.75v-21H20.46v4.25h4.28V29.77h-3.2a6.13,6.13,0,0,1-1.08,1.08V31H26V11.81L21.78,7.6ZM21.7,11.85V9.27l2.57,2.58Z" fill="#2c5a67"/><rect x="11.21" y="18.68" width="11.09" height="1.23" fill="#2c5a67"/><rect x="11.21" y="15.12" width="11.09" height="1.23" fill="#2c5a67"/><path d="M15.23,35.93l.92-.62V31.17a4.56,4.56,0,0,1-.92-.2Z" fill="#fff"/><path d="M17.38,35.31l.92.62V31a5.36,5.36,0,0,1-.92.2Z" fill="#fff"/><path d="M16.76,22.23a3.88,3.88,0,1,0,3.87,3.87A3.88,3.88,0,0,0,16.76,22.23Zm-.84,6.61-2.1-2.09.88-.87,1.21,1.21,2.71-2.71.88.86Z" fill="#fff"/><path d="M16.76,21A5.11,5.11,0,0,0,14,30.39v7.87l2.77-1.88,2.77,1.87V30.39A5.11,5.11,0,0,0,16.76,21Zm-.61,14.32-.92.62V31a4.56,4.56,0,0,0,.92.2Zm2.15.62-.92-.62V31.17a5.36,5.36,0,0,0,.92-.2ZM16.76,30a3.88,3.88,0,1,1,3.87-3.88A3.88,3.88,0,0,1,16.76,30Z" fill="#2c5a67"/><polygon points="15.91 27.09 14.7 25.88 13.82 26.75 15.92 28.84 19.5 25.25 18.62 24.38 15.91 27.09" fill="#2c5a67"/></svg>