<svg id="Layer_1" data-name="Layer 1" xmlns="http://www.w3.org/2000/svg" viewBox="0 0 39.19 42"><metadata><?xpacket begin="﻿" id="W5M0MpCehiHzreSzNTczkc9d"?>
<x:xmpmeta xmlns:x="adobe:ns:meta/" x:xmptk="Adobe XMP Core 6.0-c006 79.164648, 2021/01/12-15:52:29        ">
   <rdf:RDF xmlns:rdf="http://www.w3.org/1999/02/22-rdf-syntax-ns#">
      <rdf:Description rdf:about=""
            xmlns:lr="http://ns.adobe.com/lightroom/1.0/"
            xmlns:dc="http://purl.org/dc/elements/1.1/"
            xmlns:xmp="http://ns.adobe.com/xap/1.0/"
            xmlns:xmpMM="http://ns.adobe.com/xap/1.0/mm/"
            xmlns:stEvt="http://ns.adobe.com/xap/1.0/sType/ResourceEvent#"
            xmlns:xmpRights="http://ns.adobe.com/xap/1.0/rights/">
         <lr:hierarchicalSubject>
            <rdf:Bag>
               <rdf:li>Other Keywords|icon</rdf:li>
               <rdf:li>Other Keywords|file</rdf:li>
               <rdf:li>Other Keywords|gear</rdf:li>
               <rdf:li>Data Management</rdf:li>
            </rdf:Bag>
         </lr:hierarchicalSubject>
         <dc:subject>
            <rdf:Bag>
               <rdf:li>icon</rdf:li>
               <rdf:li>network</rdf:li>
               <rdf:li>file</rdf:li>
               <rdf:li>gear</rdf:li>
               <rdf:li>Data Management</rdf:li>
            </rdf:Bag>
         </dc:subject>
         <dc:rights>
            <rdf:Alt>
               <rdf:li xml:lang="x-default">Oracle All rights reserved</rdf:li>
            </rdf:Alt>
         </dc:rights>
         <xmp:MetadataDate>2022-10-21T13:55:05-05:00</xmp:MetadataDate>
         <xmpMM:InstanceID>xmp.iid:7d7bdc16-8060-4f7b-b505-e13bb44325ae</xmpMM:InstanceID>
         <xmpMM:DocumentID>xmp.did:5143d6c7-afd2-429a-b1a7-85e1d743712a</xmpMM:DocumentID>
         <xmpMM:OriginalDocumentID>xmp.did:5143d6c7-afd2-429a-b1a7-85e1d743712a</xmpMM:OriginalDocumentID>
         <xmpMM:History>
            <rdf:Seq>
               <rdf:li>
                  <rdf:Description>
                     <stEvt:action>saved</stEvt:action>
                     <stEvt:instanceID>xmp.iid:5143d6c7-afd2-429a-b1a7-85e1d743712a</stEvt:instanceID>
                     <stEvt:when>2022-07-28T15:35:49-05:00</stEvt:when>
                     <stEvt:softwareAgent>Adobe Bridge 2021 (Macintosh)</stEvt:softwareAgent>
                     <stEvt:changed>/metadata</stEvt:changed>
                  </rdf:Description>
               </rdf:li>
               <rdf:li>
                  <rdf:Description>
                     <stEvt:action>saved</stEvt:action>
                     <stEvt:instanceID>xmp.iid:7d7bdc16-8060-4f7b-b505-e13bb44325ae</stEvt:instanceID>
                     <stEvt:when>2022-10-21T13:55:05-05:00</stEvt:when>
                     <stEvt:softwareAgent>Adobe Bridge 2021 (Macintosh)</stEvt:softwareAgent>
                     <stEvt:changed>/metadata</stEvt:changed>
                  </rdf:Description>
               </rdf:li>
            </rdf:Seq>
         </xmpMM:History>
         <xmpRights:Marked>True</xmpRights:Marked>
      </rdf:Description>
   </rdf:RDF>
</x:xmpmeta>
                                                                                                    
                                                                                                    
                                                                                                    
                                                                                                    
                                                                                                    
                                                                                                    
                                                                                                    
                                                                                                    
                                                                                                    
                              
<?xpacket end="w"?></metadata>
<path d="M26.11,41.5v-12H31.2V25.18H26.63a7.17,7.17,0,0,1-14.13,0H8l0,4.27h5.12V41.5H.5v-12H5.56l0-4.27H.5v-2.4h12A7.19,7.19,0,0,1,18.4,16.9V12.55H13.31V.5H25.89V12.55H20.8v4.36a7.21,7.21,0,0,1,5.83,5.87H38.69v2.4H33.61v4.27h5.08V41.5Z" fill="#fff"/><path d="M25.39,1V12.05H20.3v5.3a6.66,6.66,0,0,1,5.89,5.93h12v1.4H33.11V30h5.08V41H26.61V30H31.7V24.68H26.19a6.66,6.66,0,0,1-13.25,0H7.49l0,5.27h5.12V41H1V30H6.06l0-5.27H1v-1.4H12.93a6.66,6.66,0,0,1,6-5.94V12.05H13.81V1H25.39m1-1H12.81V13.05h5.08v3.44a7.69,7.69,0,0,0-5.81,5.79H0v3.4H5.08l0,3.27H0V42H13.58V29H8.46l0-3.27h3.61a7.67,7.67,0,0,0,15,0H30.7V29H25.61V42H39.19V29H34.11V25.68h5.08v-3.4H27A7.72,7.72,0,0,0,21.3,16.5V13.05h5.09V0Z" fill="#fff"/><path d="M18.89,16.26H20.3V12.05h5.09V1H13.81V12.05h5.08ZM15.21,2.4H24v8.25H15.21Z" fill="#2c5967"/><path d="M7.49,24.68h4.39v-1.4H1v1.4H6.08l0,5.27H1V41H12.58V30H7.46ZM11.18,39.6H2.4V31.35h8.78Z" fill="#2c5967"/><path d="M38.19,24.68v-1.4H27.27v1.4H31.7V30H26.61V41H38.19V30H33.11V24.68ZM36.79,39.6H28V31.35h8.77Z" fill="#2c5967"/><path d="M19.56,17.3A6.67,6.67,0,1,0,26.23,24,6.67,6.67,0,0,0,19.56,17.3Zm0,11.93A5.26,5.26,0,1,1,24.83,24,5.27,5.27,0,0,1,19.56,29.23Z" fill="#2c5967"/><path d="M22.42,22.49l.61-.76L21.8,20.5l-.76.62a2.41,2.41,0,0,0-.5-.21l-.11-1H18.7l-.11,1a2.41,2.41,0,0,0-.5.21l-.77-.62L16.1,21.73l.61.76a3.89,3.89,0,0,0-.21.51l-1,.1v1.74l1,.1a4.55,4.55,0,0,0,.21.51l-.61.76,1.22,1.22.77-.61a2.41,2.41,0,0,0,.5.21l.11,1h1.73l.11-1a2.41,2.41,0,0,0,.5-.21l.76.61L23,26.21l-.61-.76a3.17,3.17,0,0,0,.2-.51l1-.1V23.1l-1-.1A2.85,2.85,0,0,0,22.42,22.49Zm-2.86,3.23A1.75,1.75,0,1,1,21.32,24,1.75,1.75,0,0,1,19.56,25.72Z" fill="#2c5967"/></svg>