<svg id="Layer_1" data-name="Layer 1" xmlns="http://www.w3.org/2000/svg" viewBox="0 0 43.22 42"><title>Technology - ADB-Exadata-Cloud-at-Customer-Technology</title><metadata><?xpacket begin="﻿" id="W5M0MpCehiHzreSzNTczkc9d"?>
<x:xmpmeta xmlns:x="adobe:ns:meta/" x:xmptk="Adobe XMP Core 6.0-c006 79.164648, 2021/01/12-15:52:29        ">
   <rdf:RDF xmlns:rdf="http://www.w3.org/1999/02/22-rdf-syntax-ns#">
      <rdf:Description rdf:about=""
            xmlns:xmp="http://ns.adobe.com/xap/1.0/"
            xmlns:xmpMM="http://ns.adobe.com/xap/1.0/mm/"
            xmlns:stEvt="http://ns.adobe.com/xap/1.0/sType/ResourceEvent#"
            xmlns:xmpRights="http://ns.adobe.com/xap/1.0/rights/"
            xmlns:dc="http://purl.org/dc/elements/1.1/"
            xmlns:lr="http://ns.adobe.com/lightroom/1.0/">
         <xmp:MetadataDate>2022-10-21T13:34:41-05:00</xmp:MetadataDate>
         <xmpMM:InstanceID>xmp.iid:d07d1924-62d8-4687-aa32-d8956b827d37</xmpMM:InstanceID>
         <xmpMM:DocumentID>xmp.did:77d4d9d9-1210-ee41-9541-78c82b48de42</xmpMM:DocumentID>
         <xmpMM:OriginalDocumentID>xmp.did:77d4d9d9-1210-ee41-9541-78c82b48de42</xmpMM:OriginalDocumentID>
         <xmpMM:History>
            <rdf:Seq>
               <rdf:li>
                  <rdf:Description>
                     <stEvt:action>saved</stEvt:action>
                     <stEvt:instanceID>xmp.iid:77d4d9d9-1210-ee41-9541-78c82b48de42</stEvt:instanceID>
                     <stEvt:when>2021-12-16T16:09:38-06:00</stEvt:when>
                     <stEvt:softwareAgent>Adobe Bridge 2020 (Windows)</stEvt:softwareAgent>
                     <stEvt:changed>/metadata</stEvt:changed>
                  </rdf:Description>
               </rdf:li>
               <rdf:li>
                  <rdf:Description>
                     <stEvt:action>saved</stEvt:action>
                     <stEvt:instanceID>xmp.iid:d07d1924-62d8-4687-aa32-d8956b827d37</stEvt:instanceID>
                     <stEvt:when>2022-10-21T13:34:41-05:00</stEvt:when>
                     <stEvt:softwareAgent>Adobe Bridge 2021 (Macintosh)</stEvt:softwareAgent>
                     <stEvt:changed>/metadata</stEvt:changed>
                  </rdf:Description>
               </rdf:li>
            </rdf:Seq>
         </xmpMM:History>
         <xmpRights:Marked>True</xmpRights:Marked>
         <dc:title>
            <rdf:Alt>
               <rdf:li xml:lang="x-default">Technology - ADB-Exadata-Cloud-at-Customer-Technology</rdf:li>
            </rdf:Alt>
         </dc:title>
         <dc:subject>
            <rdf:Bag>
               <rdf:li>icon</rdf:li>
               <rdf:li>technology</rdf:li>
               <rdf:li>data</rdf:li>
               <rdf:li>computer</rdf:li>
               <rdf:li>hardware</rdf:li>
               <rdf:li>server</rdf:li>
               <rdf:li>database</rdf:li>
               <rdf:li>OLTP</rdf:li>
               <rdf:li>analytics</rdf:li>
               <rdf:li>storage</rdf:li>
               <rdf:li>service</rdf:li>
            </rdf:Bag>
         </dc:subject>
         <dc:rights>
            <rdf:Alt>
               <rdf:li xml:lang="x-default">Oracle All Rights Reserved</rdf:li>
            </rdf:Alt>
         </dc:rights>
         <lr:hierarchicalSubject>
            <rdf:Bag>
               <rdf:li>icon</rdf:li>
               <rdf:li>technology</rdf:li>
               <rdf:li>service</rdf:li>
            </rdf:Bag>
         </lr:hierarchicalSubject>
      </rdf:Description>
   </rdf:RDF>
</x:xmpmeta>
                                                                                                    
                                                                                                    
                                                                                                    
                                                                                                    
                                                                                                    
                                                                                                    
                                                                                                    
                                                              
<?xpacket end="w"?></metadata>
<path d="M.5,41.5V22.19h11V17H3.26l.09-1.26A7.81,7.81,0,0,1,7.53,9.42,1.73,1.73,0,0,0,8.45,8.2a6,6,0,0,1,5.91-4.86,5.25,5.25,0,0,1,.56,0h.17a1.65,1.65,0,0,0,1.23-.53A7.34,7.34,0,0,1,21.51.5h.2a7.33,7.33,0,0,1,6.58,4.07l.05.1a10.81,10.81,0,0,1,1,.42h0a7.39,7.39,0,0,1,.45-.75l.12-.15a6,6,0,0,1,.6-.67.93.93,0,0,1,.15-.13,6.89,6.89,0,0,1,.7-.55,1,1,0,0,1,.21-.11l.33.39-.21-.46a4.83,4.83,0,0,1,.64-.33,2.64,2.64,0,0,1,.3-.1l.28-.08A2.75,2.75,0,0,1,33.42,2a5.77,5.77,0,0,1,.95-.1l.19,0A6,6,0,0,1,35.62,2l.24,0a6,6,0,0,1,1,.3l.1,0a5.47,5.47,0,0,1,.82.44l.17.11a5.6,5.6,0,0,1,.78.65,6.3,6.3,0,0,1,.7.83l.17.24.19.32,0,0a5.76,5.76,0,0,1,.41,1l2.37,2.37L41,9.9l-.73-.73a6.17,6.17,0,0,1-.19.61l0,.1c0,.09-.06.18-.1.27a6.31,6.31,0,0,1-.34.63l-.06.1a1.58,1.58,0,0,1-.15.24,5.89,5.89,0,0,1-.44.55l-.09.09-.18.21c-.17.16-.34.29-.52.43l-.13.1-.22.17a6.54,6.54,0,0,1-.64.35l-.11.05a1,1,0,0,1-.23.12,5.36,5.36,0,0,1-.83.26l-.25.07-.42.07c.07.33.14.66.2,1a7,7,0,0,1,.21,2l0,.47H28v2l11.14-2.59v25Z" fill="#fff"/><path d="M21.71,1a6.82,6.82,0,0,1,6.13,3.79l.14.3h0a7.42,7.42,0,0,1,1.62.7,1.45,1.45,0,0,1,.11-.29c0-.09.09-.17.13-.25a5.73,5.73,0,0,1,.38-.62l.16-.2a6.41,6.41,0,0,1,.49-.55l.2-.17a6,6,0,0,1,.58-.45l.27-.14a3.64,3.64,0,0,1,.62-.32,3,3,0,0,1,.39-.13c.2-.06.38-.13.58-.17a5.15,5.15,0,0,1,.88-.09l.17,0h0a5,5,0,0,1,1,.1l.21,0a5.41,5.41,0,0,1,.89.28l.09,0a6.79,6.79,0,0,1,.75.41l.15.1a5.14,5.14,0,0,1,.72.59L38.4,4a6.53,6.53,0,0,1,.58.7.56.56,0,0,0,.05.08l.1.14h0a4.87,4.87,0,0,1,.58,1.32L41.8,8.37,41,9.19l-1-1c0,.16-.06.31-.08.46s0,.24-.06.36a4.88,4.88,0,0,1-.2.65c0,.11-.08.23-.13.34a6.28,6.28,0,0,1-.31.57,3.37,3.37,0,0,1-.19.32,4.63,4.63,0,0,1-.41.49c-.08.09-.15.19-.24.28a6.4,6.4,0,0,1-.5.41l-.29.23c-.19.12-.4.22-.61.33l-.29.15a4.78,4.78,0,0,1-.76.23,2,2,0,0,1-.23.07,5,5,0,0,1-1,.1A15.18,15.18,0,0,1,35,14.65a6.54,6.54,0,0,1,.2,1.89H27.47V19.7l11.14-2.59V41H1V22.69H12V16.54H3.8l.05-.72a7.31,7.31,0,0,1,3.92-6A2.24,2.24,0,0,0,8.94,8.29a5.54,5.54,0,0,1,5.42-4.45l.51,0,.22,0a2.17,2.17,0,0,0,1.6-.69A6.79,6.79,0,0,1,21.52,1h.19m0-1H21.5A7.82,7.82,0,0,0,16,2.51a1.13,1.13,0,0,1-.86.37H15l-.61,0A6.53,6.53,0,0,0,8,8.1,1.28,1.28,0,0,1,7.3,9a8.31,8.31,0,0,0-4.45,6.77l-.05.72-.08,1.07H11v4.15H0V42H39.61V15.85l-1.22.29-2.17.5v0A7.76,7.76,0,0,0,36,14.43c0-.14-.05-.29-.08-.44l.17-.05a6.13,6.13,0,0,0,.92-.29l.28-.14.07,0a5.09,5.09,0,0,0,.72-.39l.27-.2.07-.06a6.66,6.66,0,0,0,.59-.49l.23-.25L39.3,12a6.39,6.39,0,0,0,.48-.59,2.82,2.82,0,0,0,.18-.29L40,11c.12-.2.25-.43.37-.68,0-.09.07-.17.1-.26l.5.51.71-.71.82-.82.71-.71-.71-.7L40.57,5.73a3.92,3.92,0,0,0-.23-.6l0,0L40,4.4l-.11-.15-.06-.09a6,6,0,0,0-.7-.85l-.06-.07a6.56,6.56,0,0,0-.86-.7l-.14-.1h0l0,0a7,7,0,0,0-.88-.48A.33.33,0,0,0,37,1.89a5.64,5.64,0,0,0-1-.33l-.25-.05a7.29,7.29,0,0,0-1.07-.12h-.32a6,6,0,0,0-1,.11,3.43,3.43,0,0,0-.56.16l-.13,0-.11,0-.36.12a5.68,5.68,0,0,0-.7.36l-.1,0-.25.14a7.82,7.82,0,0,0-.69.53l-.05,0-.19.16a6.49,6.49,0,0,0-.58.65l0,.06a1.46,1.46,0,0,0-.16.19c-.09.13-.18.26-.26.4-.17-.08-.32-.13-.45-.18a7.8,7.8,0,0,0-7-4.27Zm6.76,17.54h3.88l-3.88.9v-.9Z" fill="#fff"/><g id="_Group_" data-name="&lt;Group&gt;"><rect x="3.79" y="25.48" width="6.97" height="1.59" fill="#2c5967"/><path d="M14.75,5.2a3.53,3.53,0,0,0,2.92-1.1,5.44,5.44,0,0,1,3.89-1.76h.15a5.49,5.49,0,0,1,4.93,3.05l.42.8,1-1c-.08-.16-.09-.2-.2-.42A6.82,6.82,0,0,0,21.71,1h-.19a6.79,6.79,0,0,0-4.83,2.19,2.14,2.14,0,0,1-1.82.67,5.57,5.57,0,0,0-2.73.45,5.52,5.52,0,0,0-3.2,4A2.24,2.24,0,0,1,7.77,9.86a7.31,7.31,0,0,0-3.92,6l-.05.72h6.9V15.2H5.28A6,6,0,0,1,8.39,11a3.57,3.57,0,0,0,1.87-2.49,4.16,4.16,0,0,1,2.42-3A4.08,4.08,0,0,1,14.75,5.2Z" fill="#2c5967"/><rect x="3.79" y="33.84" width="6.97" height="1.59" fill="#2c5967"/><rect x="3.79" y="28.26" width="6.97" height="1.59" fill="#2c5967"/><rect x="14.73" y="23.49" width="9.95" height="1.59" fill="#2c5967"/><rect x="14.73" y="20.7" width="9.95" height="1.59" fill="#2c5967"/><polygon points="22.61 27.84 20.82 27.85 19.65 30.82 18.41 27.86 16.61 27.86 18.59 32.21 16.54 36.83 18.33 36.83 19.58 33.63 20.92 36.82 22.72 36.81 20.65 32.26 22.61 27.84" fill="#2c5967"/><rect x="28.66" y="22.69" width="1.59" height="1.59" fill="#2c5967"/><rect x="28.66" y="33.84" width="1.59" height="1.59" fill="#2c5967"/><path d="M27.33,7.16,29.78,9.6l2.44-2.44-.82-.82-1,1a4.21,4.21,0,0,1,7.9-1.58l.85-.85A5.37,5.37,0,0,0,29.21,7.4L28.15,6.34Z" fill="#2c5967"/><rect x="28.66" y="28.26" width="1.59" height="1.59" fill="#2c5967"/><rect x="28.66" y="31.05" width="1.59" height="1.59" fill="#2c5967"/><polygon points="7.96 37.22 6.37 37.22 6.37 39.41 2.59 39.41 2.59 24.28 10.75 24.28 10.75 22.69 1 22.69 1 41 10.95 41 10.95 39.41 7.96 39.41 7.96 37.22" fill="#2c5967"/><rect x="28.66" y="25.48" width="1.59" height="1.59" fill="#2c5967"/><path d="M32.38,10.28h1.2l.27-1.18h1.39l.27,1.18h1.24l-1.61-5.6H34Zm2.17-4.23L35,8.15h-1Z" fill="#2c5967"/><rect x="3.79" y="31.05" width="6.97" height="1.59" fill="#2c5967"/><rect x="34.23" y="31.05" width="1.59" height="1.59" fill="#2c5967"/><rect x="34.23" y="22.69" width="1.59" height="1.59" fill="#2c5967"/><rect x="31.45" y="33.84" width="1.59" height="1.59" fill="#2c5967"/><rect x="34.23" y="25.48" width="1.59" height="1.59" fill="#2c5967"/><rect x="34.23" y="28.26" width="1.59" height="1.59" fill="#2c5967"/><path d="M34.83,14.1H33.41c.13.44.21.71.29,1.09h-5v1.34h6.51A6,6,0,0,0,34.83,14.1Z" fill="#2c5967"/><path d="M36.92,8.37l.82.82,1-1a4.21,4.21,0,0,1-7.9,1.59l-.85.85a5.37,5.37,0,0,0,9.92-2.47l1,1,.82-.82L39.36,5.93Z" fill="#2c5967"/><rect x="34.23" y="33.84" width="1.59" height="1.59" fill="#2c5967"/><polygon points="28.66 21.06 37.02 19.12 37.02 39.41 33.04 39.41 33.04 37.22 31.45 37.22 31.45 39.41 28.66 39.41 28.66 41 38.61 41 38.61 17.11 28.66 19.42 28.66 21.06" fill="#2c5967"/><path d="M12,41H27.47V9.56H12Zm1.59-29.85H25.88V39.41H13.54Z" fill="#2c5967"/><rect x="31.45" y="31.05" width="1.59" height="1.59" fill="#2c5967"/><path d="M23.49,15.13H15.93v1.39h-1.2v1.59h1.2v1.4h7.56v-1.4h1.19V16.52H23.49ZM21.9,17.92H17.52v-1.2H21.9Z" fill="#2c5967"/><rect x="14.73" y="12.34" width="9.95" height="1.59" fill="#2c5967"/><rect x="31.45" y="28.26" width="1.59" height="1.59" fill="#2c5967"/><rect x="31.45" y="22.69" width="1.59" height="1.59" fill="#2c5967"/><rect x="31.45" y="25.48" width="1.59" height="1.59" fill="#2c5967"/></g><g id="_Group_2" data-name="&lt;Group&gt;"><rect x="3.79" y="25.48" width="6.97" height="1.59" fill="#2c5967"/><path d="M14.75,5.2a3.53,3.53,0,0,0,2.92-1.1,5.44,5.44,0,0,1,3.89-1.76h.15a5.49,5.49,0,0,1,4.93,3.05l.42.8,1-1c-.08-.16-.09-.2-.2-.42A6.82,6.82,0,0,0,21.71,1h-.19a6.79,6.79,0,0,0-4.83,2.19,2.14,2.14,0,0,1-1.82.67,5.57,5.57,0,0,0-2.73.45,5.52,5.52,0,0,0-3.2,4A2.24,2.24,0,0,1,7.77,9.86a7.31,7.31,0,0,0-3.92,6l-.05.72h6.9V15.2H5.28A6,6,0,0,1,8.39,11a3.57,3.57,0,0,0,1.87-2.49,4.16,4.16,0,0,1,2.42-3A4.08,4.08,0,0,1,14.75,5.2Z" fill="#2c5967"/><rect x="3.79" y="33.84" width="6.97" height="1.59" fill="#2c5967"/><rect x="3.79" y="28.26" width="6.97" height="1.59" fill="#2c5967"/><rect x="14.73" y="23.49" width="9.95" height="1.59" fill="#2c5967"/><rect x="14.73" y="20.7" width="9.95" height="1.59" fill="#2c5967"/><polygon points="22.61 27.84 20.82 27.85 19.65 30.82 18.41 27.86 16.61 27.86 18.59 32.21 16.54 36.83 18.33 36.83 19.58 33.63 20.92 36.82 22.72 36.81 20.65 32.26 22.61 27.84" fill="#2c5967"/><rect x="28.66" y="22.69" width="1.59" height="1.59" fill="#2c5967"/><rect x="28.66" y="33.84" width="1.59" height="1.59" fill="#2c5967"/><path d="M27.33,7.16,29.78,9.6l2.44-2.44-.82-.82-1,1a4.21,4.21,0,0,1,7.9-1.58l.85-.85A5.37,5.37,0,0,0,29.21,7.4L28.15,6.34Z" fill="#2c5967"/><rect x="28.66" y="28.26" width="1.59" height="1.59" fill="#2c5967"/><rect x="28.66" y="31.05" width="1.59" height="1.59" fill="#2c5967"/><polygon points="7.96 37.22 6.37 37.22 6.37 39.41 2.59 39.41 2.59 24.28 10.75 24.28 10.75 22.69 1 22.69 1 41 10.95 41 10.95 39.41 7.96 39.41 7.96 37.22" fill="#2c5967"/><rect x="28.66" y="25.48" width="1.59" height="1.59" fill="#2c5967"/><path d="M32.38,10.28h1.2l.27-1.18h1.39l.27,1.18h1.24l-1.61-5.6H34Zm2.17-4.23L35,8.15h-1Z" fill="#2c5967"/><rect x="3.79" y="31.05" width="6.97" height="1.59" fill="#2c5967"/><rect x="34.23" y="31.05" width="1.59" height="1.59" fill="#2c5967"/><rect x="34.23" y="22.69" width="1.59" height="1.59" fill="#2c5967"/><rect x="31.45" y="33.84" width="1.59" height="1.59" fill="#2c5967"/><rect x="34.23" y="25.48" width="1.59" height="1.59" fill="#2c5967"/><rect x="34.23" y="28.26" width="1.59" height="1.59" fill="#2c5967"/><path d="M34.83,14.1H33.41c.13.44.21.71.29,1.09h-5v1.34h6.51A6,6,0,0,0,34.83,14.1Z" fill="#2c5967"/><path d="M36.92,8.37l.82.82,1-1a4.21,4.21,0,0,1-7.9,1.59l-.85.85a5.37,5.37,0,0,0,9.92-2.47l1,1,.82-.82L39.36,5.93Z" fill="#2c5967"/><rect x="34.23" y="33.84" width="1.59" height="1.59" fill="#2c5967"/><polygon points="28.66 21.06 37.02 19.12 37.02 39.41 33.04 39.41 33.04 37.22 31.45 37.22 31.45 39.41 28.66 39.41 28.66 41 38.61 41 38.61 17.11 28.66 19.42 28.66 21.06" fill="#2c5967"/><path d="M12,41H27.47V9.56H12Zm1.59-29.85H25.88V39.41H13.54Z" fill="#2c5967"/><rect x="31.45" y="31.05" width="1.59" height="1.59" fill="#2c5967"/><path d="M23.49,15.13H15.93v1.39h-1.2v1.59h1.2v1.4h7.56v-1.4h1.19V16.52H23.49ZM21.9,17.92H17.52v-1.2H21.9Z" fill="#2c5967"/><rect x="14.73" y="12.34" width="9.95" height="1.59" fill="#2c5967"/><rect x="31.45" y="28.26" width="1.59" height="1.59" fill="#2c5967"/><rect x="31.45" y="22.69" width="1.59" height="1.59" fill="#2c5967"/><rect x="31.45" y="25.48" width="1.59" height="1.59" fill="#2c5967"/></g></svg>