<svg id="Layer_1" data-name="Layer 1" xmlns="http://www.w3.org/2000/svg" viewBox="0 0 38.74 42.18"><metadata><?xpacket begin="﻿" id="W5M0MpCehiHzreSzNTczkc9d"?>
<x:xmpmeta xmlns:x="adobe:ns:meta/" x:xmptk="Adobe XMP Core 6.0-c006 79.164648, 2021/01/12-15:52:29        ">
   <rdf:RDF xmlns:rdf="http://www.w3.org/1999/02/22-rdf-syntax-ns#">
      <rdf:Description rdf:about=""
            xmlns:dc="http://purl.org/dc/elements/1.1/"
            xmlns:xmp="http://ns.adobe.com/xap/1.0/"
            xmlns:xmpMM="http://ns.adobe.com/xap/1.0/mm/"
            xmlns:stEvt="http://ns.adobe.com/xap/1.0/sType/ResourceEvent#"
            xmlns:xmpRights="http://ns.adobe.com/xap/1.0/rights/"
            xmlns:lr="http://ns.adobe.com/lightroom/1.0/">
         <dc:subject>
            <rdf:Bag>
               <rdf:li>Exadata</rdf:li>
               <rdf:li>server</rdf:li>
               <rdf:li>autonomous</rdf:li>
               <rdf:li>X</rdf:li>
               <rdf:li>icon</rdf:li>
               <rdf:li>database</rdf:li>
               <rdf:li>service</rdf:li>
            </rdf:Bag>
         </dc:subject>
         <dc:rights>
            <rdf:Alt>
               <rdf:li xml:lang="x-default">Oracle All Rights Reserved</rdf:li>
            </rdf:Alt>
         </dc:rights>
         <xmp:MetadataDate>2022-10-21T13:34:41-05:00</xmp:MetadataDate>
         <xmpMM:InstanceID>xmp.iid:6294b8fc-418a-4dfd-99a2-a082bb159561</xmpMM:InstanceID>
         <xmpMM:DocumentID>xmp.did:963ab5a0-42c8-fc46-9120-1eb9f26894ca</xmpMM:DocumentID>
         <xmpMM:OriginalDocumentID>xmp.did:963ab5a0-42c8-fc46-9120-1eb9f26894ca</xmpMM:OriginalDocumentID>
         <xmpMM:History>
            <rdf:Seq>
               <rdf:li>
                  <rdf:Description>
                     <stEvt:action>saved</stEvt:action>
                     <stEvt:instanceID>xmp.iid:963ab5a0-42c8-fc46-9120-1eb9f26894ca</stEvt:instanceID>
                     <stEvt:when>2022-05-16T17:05:56-05:00</stEvt:when>
                     <stEvt:softwareAgent>Adobe Bridge 2021 (Windows)</stEvt:softwareAgent>
                     <stEvt:changed>/metadata</stEvt:changed>
                  </rdf:Description>
               </rdf:li>
               <rdf:li>
                  <rdf:Description>
                     <stEvt:action>saved</stEvt:action>
                     <stEvt:instanceID>xmp.iid:6294b8fc-418a-4dfd-99a2-a082bb159561</stEvt:instanceID>
                     <stEvt:when>2022-10-21T13:34:41-05:00</stEvt:when>
                     <stEvt:softwareAgent>Adobe Bridge 2021 (Macintosh)</stEvt:softwareAgent>
                     <stEvt:changed>/metadata</stEvt:changed>
                  </rdf:Description>
               </rdf:li>
            </rdf:Seq>
         </xmpMM:History>
         <xmpRights:Marked>True</xmpRights:Marked>
         <lr:hierarchicalSubject>
            <rdf:Bag>
               <rdf:li>icon</rdf:li>
               <rdf:li>database</rdf:li>
               <rdf:li>service</rdf:li>
            </rdf:Bag>
         </lr:hierarchicalSubject>
      </rdf:Description>
   </rdf:RDF>
</x:xmpmeta>
                                                                                                    
                                                                                                    
                                                                                                    
                                                                                                    
                                                                                                    
                                                                                                    
                                                                                                    
                                                                                                    
                                                                           
<?xpacket end="w"?></metadata>
<path d="M25.94,16.62l-.44-.08.22-1,.37.07Z" fill="#fff"/><path d="M25.61,16.05l.41.08h0l-.41-.08m.22-1-.43,2,.46.08.31-2-.34-.07Z" fill="#fff"/><path d="M8.14,41.68v-25H.54l.1-1.41a7.57,7.57,0,0,1,4-6.15,1.43,1.43,0,0,0,.76-1A5.84,5.84,0,0,1,8.83,3.84a5.78,5.78,0,0,1,2.36-.5,4.89,4.89,0,0,1,.54,0h.15a1.34,1.34,0,0,0,1-.43A7.15,7.15,0,0,1,18.09.68a5.49,5.49,0,0,1,.79,0l0-.09.47.16a7.09,7.09,0,0,1,2.45.94l.78.53A7.82,7.82,0,0,1,27.26.77a7.91,7.91,0,0,1,4.45,1.37c.13.08.26.18.4.28l.11.08a8,8,0,0,1,2.73,4L38,9.58l-1.85,1.85-1.07-1.07a8,8,0,0,1-4.85,5.76l-.13.05c-.31.11-.56.19-.82.26l-.1,0-.24.07-.47.09h0a8.64,8.64,0,0,1-1.24.1,7.71,7.71,0,0,1-2.36-.38V41.68Z" fill="#fff"/><path d="M18.09,1.18a6.94,6.94,0,0,1,1.11.1h0l.06,0a6.65,6.65,0,0,1,2.31.87l1.06.72a7.45,7.45,0,0,1,8.8-.33l.38.27.1.08a7.44,7.44,0,0,1,2.6,3.87l1.37,1.37,1.44,1.44-1.14,1.15-.42-.42-1-1a7.44,7.44,0,0,1-4.68,6.36l-.18.06a5.83,5.83,0,0,1-.71.22,3.18,3.18,0,0,1-.33.1l-.19,0,.19,0a7.61,7.61,0,0,1-1.6.18,7.43,7.43,0,0,1-2.86-.6V41.18H8.64v-25H1.08l.06-.87A7,7,0,0,1,4.91,9.52a2,2,0,0,0,1-1.35A5.31,5.31,0,0,1,9,4.3a5.37,5.37,0,0,1,2.16-.46,4,4,0,0,1,.49,0h.19a1.84,1.84,0,0,0,1.37-.59,6.64,6.64,0,0,1,4.85-2.11m10.58,14.9-.24,0,.24,0m-.24,0h0M18.67,0l-.08.2a4.35,4.35,0,0,0-.5,0,7.61,7.61,0,0,0-5.58,2.43.88.88,0,0,1-.64.27h-.09l-.59,0a6.42,6.42,0,0,0-2.56.54A6.36,6.36,0,0,0,5,8a1,1,0,0,1-.5.65A8,8,0,0,0,.14,15.18l-.06.87L0,17.13H7.64V42.18H25.4V17a7.92,7.92,0,0,0,3.17.11h0l.27-.05.22,0a2.46,2.46,0,0,0,.29-.09l.08,0a8,8,0,0,0,.79-.25l.06,0,.15-.06a8.45,8.45,0,0,0,4.92-5.25l.1.1.71.71.71-.71L38,10.29l.71-.71L38,8.88,36.59,7.44l-1.2-1.2a8.5,8.5,0,0,0-2.87-4.13l-.08-.06c-.17-.13-.31-.24-.46-.34a8.46,8.46,0,0,0-9.37-.05l-.48-.33a7.55,7.55,0,0,0-2.6-1L18.67,0Z" fill="#fff"/><path d="M22.78,39.56H10.26V10.87h8.19L16.83,9.26H8.64V41.18H24.4V17a8,8,0,0,1-1.62-.75Z" fill="#2c5967"/><path d="M11.47,13.7h8.62a8.69,8.69,0,0,1-.89-1.61H11.47Z" fill="#2c5967"/><path d="M12.68,19.36h7.68V17.94h1.21V16.33H20.36V14.91H12.68v1.42H11.47v1.61h1.21Zm1.62-2.83h4.44v1.21H14.3Z" fill="#2c5967"/><path d="M21.57,2.16a6.64,6.64,0,0,0-8.33,1.13,1.89,1.89,0,0,1-1.56.58A5.25,5.25,0,0,0,9,4.3a5.31,5.31,0,0,0-3.1,3.87,2,2,0,0,1-1,1.35,7,7,0,0,0-3.77,5.74l-.06.87H7.43V14.51H2.89A5.43,5.43,0,0,1,5.66,11,3.56,3.56,0,0,0,7.51,8.48a3.75,3.75,0,0,1,2.17-2.7,3.68,3.68,0,0,1,1.85-.3,3.48,3.48,0,0,0,2.89-1.09,5.06,5.06,0,0,1,3.67-1.6,5,5,0,0,1,2.32.57A9.4,9.4,0,0,1,21.57,2.16Z" fill="#2c5967"/><polygon points="20.72 27.73 18.5 27.73 16.61 30.98 14.67 27.73 12.36 27.73 15.11 32.26 12.22 37.13 14.44 37.13 16.46 33.58 18.55 37.13 20.87 37.13 17.96 32.3 20.72 27.73" fill="#2c5967"/><rect x="11.47" y="20.57" width="1.62" height="1.62" fill="#2c5967"/><rect x="14.3" y="20.57" width="1.62" height="1.62" fill="#2c5967"/><rect x="17.13" y="20.57" width="1.62" height="1.62" fill="#2c5967"/><rect x="19.96" y="20.57" width="1.62" height="1.62" fill="#2c5967"/><rect x="11.47" y="23.4" width="1.62" height="1.62" fill="#2c5967"/><rect x="14.3" y="23.4" width="1.62" height="1.62" fill="#2c5967"/><rect x="17.13" y="23.4" width="1.62" height="1.62" fill="#2c5967"/><rect x="19.96" y="23.4" width="1.62" height="1.62" fill="#2c5967"/><path d="M18.33,6.76,17.19,7.9l3.4,3.4L24,7.9,22.85,6.76,21.43,8.18h0A5.85,5.85,0,0,1,31.5,4.71,5.74,5.74,0,0,1,32.42,6l1.16-1.15h0l0,0A7.48,7.48,0,0,0,19.8,8.22Z" fill="#2c5967"/><path d="M37.32,9.58,35.88,8.14,34.4,6.66h0l-.48-.48-3.4,3.4,1.15,1.15,1.42-1.42a5.86,5.86,0,0,1-11,2.2l-1.18,1.18a7.5,7.5,0,0,0,6.35,3.53,7.61,7.61,0,0,0,1.6-.18l-.44.09h0l.44-.09a7.48,7.48,0,0,0,5.85-6.78l1,1.05.42.42Z" fill="#2c5967"/><path d="M28.05,4.45h-1.6l-2.24,7.79h1.67l.37-1.64h1.94l.37,1.64h1.73Zm-.16,4.82H26.55l.68-2.91Z" fill="#2c5967"/></svg>