<?xml version="1.0" encoding="UTF-8" standalone="no"?>
<svg
   id="Layer_1"
   data-name="Layer 1"
   viewBox="0 0 55.722802 44.231137"
   version="1.1"
   sodipodi:docname="Data Lakehouse.svg"
   width="55.722801"
   height="44.231136"
   inkscape:version="1.3.2 (091e20e, 2023-11-25, custom)"
   xmlns:inkscape="http://www.inkscape.org/namespaces/inkscape"
   xmlns:x="adobe:ns:meta/"
   xmlns:sodipodi="http://sodipodi.sourceforge.net/DTD/sodipodi-0.dtd"
   xmlns="http://www.w3.org/2000/svg"
   xmlns:svg="http://www.w3.org/2000/svg"
   xmlns:rdf="http://www.w3.org/1999/02/22-rdf-syntax-ns#"
   xmlns:dc="http://purl.org/dc/elements/1.1/"
   xmlns:xmp="http://ns.adobe.com/xap/1.0/"
   xmlns:xmpMM="http://ns.adobe.com/xap/1.0/mm/"
   xmlns:stEvt="http://ns.adobe.com/xap/1.0/sType/ResourceEvent#">
  <defs
     id="defs11" />
  <sodipodi:namedview
     id="namedview11"
     pagecolor="#ffffff"
     bordercolor="#666666"
     borderopacity="1.0"
     inkscape:showpageshadow="2"
     inkscape:pageopacity="0.0"
     inkscape:pagecheckerboard="0"
     inkscape:deskcolor="#d1d1d1"
     inkscape:zoom="17.431159"
     inkscape:cx="27.852422"
     inkscape:cy="22.115569"
     inkscape:window-width="1920"
     inkscape:window-height="1009"
     inkscape:window-x="1072"
     inkscape:window-y="425"
     inkscape:window-maximized="1"
     inkscape:current-layer="Layer_1" />
  <metadata
     id="metadata1">
<?xpacket begin="﻿" id="W5M0MpCehiHzreSzNTczkc9d"?>    <x:xmpmeta
       x:xmptk="Adobe XMP Core 6.0-c006 79.164648, 2021/01/12-15:52:29        ">
      <rdf:RDF>
        <rdf:Description
           rdf:about="">
          <xmp:MetadataDate>2022-11-28T16:56:09-06:00</xmp:MetadataDate>
          <xmpMM:InstanceID>xmp.iid:dc60c40d-4ac7-49d5-9c20-800fcfba3fcd</xmpMM:InstanceID>
          <xmpMM:DocumentID>xmp.did:68e32a5f-ffd9-4a3a-b585-a056bb127b2f</xmpMM:DocumentID>
          <xmpMM:OriginalDocumentID>xmp.did:68e32a5f-ffd9-4a3a-b585-a056bb127b2f</xmpMM:OriginalDocumentID>
          <xmpMM:History>
            <rdf:Seq>
              <rdf:li>
                <rdf:Description>
                  <stEvt:action>saved</stEvt:action>
                  <stEvt:instanceID>xmp.iid:68e32a5f-ffd9-4a3a-b585-a056bb127b2f</stEvt:instanceID>
                  <stEvt:when>2022-11-10T17:09:01-06:00</stEvt:when>
                  <stEvt:softwareAgent>Adobe Bridge 2021 (Macintosh)</stEvt:softwareAgent>
                  <stEvt:changed>/metadata</stEvt:changed>
                </rdf:Description>
              </rdf:li>
              <rdf:li>
                <rdf:Description>
                  <stEvt:action>saved</stEvt:action>
                  <stEvt:instanceID>xmp.iid:dc60c40d-4ac7-49d5-9c20-800fcfba3fcd</stEvt:instanceID>
                  <stEvt:when>2022-11-28T16:56:09-06:00</stEvt:when>
                  <stEvt:softwareAgent>Adobe Bridge 2021 (Macintosh)</stEvt:softwareAgent>
                  <stEvt:changed>/metadata</stEvt:changed>
                </rdf:Description>
              </rdf:li>
            </rdf:Seq>
          </xmpMM:History>
          <dc:subject>
            <rdf:Bag>
              <rdf:li>icon</rdf:li>
              <rdf:li>water</rdf:li>
              <rdf:li>lake</rdf:li>
              <rdf:li>building</rdf:li>
              <rdf:li>database</rdf:li>
              <rdf:li>house</rdf:li>
            </rdf:Bag>
          </dc:subject>
        </rdf:Description>
      </rdf:RDF>
    </x:xmpmeta>
<?xpacket end="w"?>  </metadata>
  <path
     id="path11-2"
     style="fill:#fcfbfa"
     d="m 41.853516,0.01238725 c -1.793427,0.1235361 -3.618765,0.285909 -5.300782,0.96875 C 36.041942,1.0697642 35.494948,1.0932676 35.130897,1.527775 34.219788,2.1948221 33.331623,2.9575528 32.927734,4.0494967 30.653718,2.9523413 28.378957,1.8567294 26.105469,0.75848105 19.124983,4.1490685 12.1492,7.5493583 5.1640625,10.930356 c 0.5899054,1.227522 1.1796899,2.455103 1.7675781,3.683593 0.8972261,-0.283269 0.548022,0.663963 0.6074219,1.207813 V 33.811215 C 6.7818283,34.010499 6.0899611,34.418185 5.46875,34.844418 4.4585228,33.995202 3.1699387,33.618253 1.871186,33.534955 L 0,33.281918 v 9.207031 c 0.8355657,0.176889 1.8084629,-0.02055 2.4653173,0.629181 1.5314009,1.051599 3.6163399,1.130974 5.288795,0.360019 0.418449,-0.108369 0.7860938,-0.662777 1.1697158,-0.651309 1.5331949,1.214124 3.7287409,1.520726 5.5186879,0.716451 0.504159,-0.09019 0.909426,-0.669147 1.350453,-0.724263 1.563281,1.25524 3.824159,1.52932 5.644531,0.691406 0.46267,-0.08817 0.842285,-0.678375 1.253906,-0.685547 1.536852,1.215508 3.737037,1.524993 5.53006,0.71746 0.507096,-0.08585 0.915586,-0.680708 1.358612,-0.719413 1.535165,1.21804 3.736922,1.526487 5.53026,0.719959 0.506663,-0.08367 0.915016,-0.681656 1.356459,-0.719959 1.538188,1.215978 3.73927,1.528063 5.533966,0.719413 0.507642,-0.08363 0.917591,-0.687103 1.360565,-0.71746 1.536852,1.215508 3.737037,1.524993 5.53006,0.71746 0.486616,-0.148319 0.869439,-0.505188 1.298065,-0.766288 0.997599,0.815776 2.255036,1.206732 3.532601,1.245472 0.639523,0.06987 1.279047,0.139737 1.918571,0.209606 v -3.398438 c 0.164267,-0.440051 0.02329,-1.221145 0.07031,-1.792187 v -3.961719 c -0.825617,-0.177491 -1.794547,0.0298 -2.449733,-0.595136 -1.890344,-1.338948 -4.61074,-1.120899 -6.395971,0.294355 -0.60934,-0.354242 -1.261493,-0.830782 -2.001953,-1 -0.390633,-0.356684 -0.0689,-1.208989 -0.173828,-1.764453 V 20.272153 c 1.417887,-0.08801 2.831029,-0.395401 4.199219,-0.699219 1.460514,-0.492116 3.01408,-1.279069 3.742187,-2.695313 0.753114,-1.524822 0.344771,-3.273181 0.449219,-4.90664 -0.01758,-2.3981758 0.03452,-4.8051296 -0.0248,-7.1980478 C 52.882384,3.6686932 52.292436,2.6403597 51.361325,2.0065279 49.212555,0.52597955 46.516849,0.15673745 43.966794,6.6845378e-4 43.2623,-0.00153155 42.557934,0.00152885 41.853513,0.01238745 Z"
     sodipodi:nodetypes="scccccccccccccccccccccccccccccccccccccccccccss" />
  <path
     id="path11"
     d="m 35,16.061137 a 1.74,1.74 0 0 0 0.18,0.22 1.45,1.45 0 0 0 0.21,0.22 l 0.26,0.21 0.29,0.2 a 6.69,6.69 0 0 0 1.72,0.75 c 0.27,0.09 0.56,0.16 0.87,0.23 l 0.47,0.09 a 15.72,15.72 0 0 0 1.86,0.26 c 0.65,0.06 1.31,0.09 2,0.09 0.34,0 0.69,0 1,0 a 18,18 0 0 0 2.91,-0.35 l 0.48,-0.1 c 0.26,-0.06 0.51,-0.12 0.74,-0.19 h 0.12 0.1 a 7.5,7.5 0 0 0 1.33,-0.55 l 0.29,-0.17 a 3.58,3.58 0 0 0 0.55,-0.41 2.7,2.7 0 0 0 0.4,-0.44 2.1,2.1 0 0 0 0.22,-0.54 1.81,1.81 0 0 0 0.08,-0.51 v 0 -9.8099997 -0.14 a 2.07,2.07 0 0 0 -1,-1.58 l -0.29,-0.19 -0.3,-0.16 a 9.44,9.44 0 0 0 -2.34,-0.78 3,3 0 0 0 -0.43,-0.09 v 0 l -0.82,-0.14 v 0 c -0.65,-0.09 -1.31,-0.15 -2,-0.18 h -1 c -0.7,0 -1.36,0 -2,0.09 -0.64,0.09 -1.26,0.13 -1.9,0.24 a 12,12 0 0 0 -2.1,0.65 v 0 h -0.14 l -0.12,0.06 v 0 h -0.05 l -0.21,0.1 h -0.06 l -0.32,0.27 v 0 a 3.54,3.54 0 0 0 -0.76,0.63 1.3,1.3 0 0 0 -0.18,0.23 2.32,2.32 0 0 0 -0.24,0.47 1.81,1.81 0 0 0 -0.07,0.52 v 9.8099997 0 a 1.79,1.79 0 0 0 0.07,0.51 2.69,2.69 0 0 0 0.18,0.48 z M 36.45,5.2211373 c 0,-0.12 0.18,-0.26 0.47,-0.43 a 5.36,5.36 0 0 1 1.26,-0.53 12.29,12.29 0 0 1 2,-0.46 21.76,21.76 0 0 1 2.82,-0.17 19.38,19.38 0 0 1 2.83,0.19 12.55,12.55 0 0 1 2.06,0.46 6.05,6.05 0 0 1 1.23,0.54 c 0.28,0.17 0.42,0.32 0.42,0.44 0,0.12 -0.14,0.26 -0.42,0.43 a 6,6 0 0 1 -1.23,0.55 13.71,13.71 0 0 1 -2.06,0.45 19.33,19.33 0 0 1 -2.83,0.2 19.19,19.19 0 0 1 -2.82,-0.2 13.44,13.44 0 0 1 -2.06,-0.45 6.13,6.13 0 0 1 -1.24,-0.55 c -0.27,-0.17 -0.41,-0.32 -0.41,-0.43 z m -0.22,2.09 a 11,11 0 0 0 3,0.92 20.45,20.45 0 0 0 3.59,0.3 h 0.77 0.67 l 1.06,-0.08 0.89,-0.14 1.05,-0.2 0.27,-0.13 0.52,-0.14 0.55,-0.18 0.51,-0.22 h 0.08 l 0.18,-0.09 v 2.8099997 c 0,0.12 -0.14,0.27 -0.42,0.44 a 5.62,5.62 0 0 1 -1.24,0.55 11.74,11.74 0 0 1 -2.07,0.45 18.17,18.17 0 0 1 -2.84,0.2 18.17,18.17 0 0 1 -2.8,-0.2 11.74,11.74 0 0 1 -2.07,-0.45 5.62,5.62 0 0 1 -1.24,-0.55 c -0.28,-0.17 -0.42,-0.32 -0.42,-0.44 z m 0,4.8599997 a 10,10 0 0 0 3,0.93 21.48,21.48 0 0 0 3.59,0.29 h 0.83 a 18.68,18.68 0 0 0 3.21,-0.25 8.75,8.75 0 0 0 2.53,-0.81 v 2.65 c 0,0.12 -0.14,0.26 -0.42,0.43 a 5.62,5.62 0 0 1 -1.24,0.55 11.74,11.74 0 0 1 -2.07,0.45 19.47,19.47 0 0 1 -2.84,0.2 19.47,19.47 0 0 1 -2.84,-0.2 11.74,11.74 0 0 1 -2.09,-0.43 5.62,5.62 0 0 1 -1.24,-0.55 c -0.28,-0.17 -0.42,-0.31 -0.42,-0.43 z m 15.89,27.44 a 3.22,3.22 0 0 0 -0.91,-0.44 3.38,3.38 0 0 0 -1,-0.15 3.57,3.57 0 0 0 -0.77,0.08 3.17,3.17 0 0 0 -1.29,0.61 l -0.18,0.13 a 1.78,1.78 0 0 1 -2.41,0 l -0.31,-0.22 a 3.09,3.09 0 0 0 -0.91,-0.45 3.38,3.38 0 0 0 -1,-0.15 3.57,3.57 0 0 0 -0.77,0.08 3.21,3.21 0 0 0 -1.3,0.61 1.09,1.09 0 0 0 -0.17,0.13 1.73,1.73 0 0 1 -1.21,0.47 1.71,1.71 0 0 1 -1.2,-0.47 l -0.31,-0.22 a 3.09,3.09 0 0 0 -0.91,-0.45 3.38,3.38 0 0 0 -1,-0.15 3.57,3.57 0 0 0 -0.77,0.08 3.1,3.1 0 0 0 -1.29,0.61 0.83,0.83 0 0 0 -0.18,0.13 1.73,1.73 0 0 1 -1.21,0.47 1.71,1.71 0 0 1 -1.2,-0.47 l -0.31,-0.22 a 3.09,3.09 0 0 0 -0.91,-0.45 3.38,3.38 0 0 0 -1,-0.15 3.57,3.57 0 0 0 -0.77,0.08 3.1,3.1 0 0 0 -1.29,0.61 0.83,0.83 0 0 0 -0.18,0.13 1.78,1.78 0 0 1 -2.41,0 l -0.31,-0.22 a 3.09,3.09 0 0 0 -0.91,-0.45 3.38,3.38 0 0 0 -1,-0.15 3.57,3.57 0 0 0 -0.77,0.08 3.17,3.17 0 0 0 -1.29,0.61 1.18,1.18 0 0 0 -0.18,0.13 1.78,1.78 0 0 1 -2.41,0 l -0.31,-0.22 a 3.09,3.09 0 0 0 -0.91,-0.45 3.38,3.38 0 0 0 -1,-0.15 3.57,3.57 0 0 0 -0.77,0.08 3.17,3.17 0 0 0 -1.29,0.61 1.18,1.18 0 0 0 -0.18,0.13 1.78,1.78 0 0 1 -2.41,0 l -0.31,-0.22 a 3,3 0 0 0 -0.91,-0.45 3.38,3.38 0 0 0 -1,-0.15 3.48,3.48 0 0 0 -0.76,0.08 3.15,3.15 0 0 0 -1.3,0.61 l -0.18,0.13 a 1.71,1.71 0 0 1 -1.2,0.47 1.73,1.73 0 0 1 -1.21,-0.47 l -0.29,-0.22 a 3.25,3.25 0 0 0 -1,-0.48 3.28,3.28 0 0 0 -1.05,-0.16 v 1.73 a 1.65,1.65 0 0 1 1.17,0.47 3.37,3.37 0 0 0 2.24,0.82 3.39,3.39 0 0 0 2.24,-0.82 1.71,1.71 0 0 1 1.2,-0.47 1.73,1.73 0 0 1 1.21,0.47 3.46,3.46 0 0 0 4.47,0 1.75,1.75 0 0 1 1.21,-0.47 1.71,1.71 0 0 1 1.2,0.47 3.42,3.42 0 0 0 2.24,0.82 3.37,3.37 0 0 0 2.24,-0.82 1.73,1.73 0 0 1 1.21,-0.47 1.71,1.71 0 0 1 1.2,0.47 3.47,3.47 0 0 0 4.48,0 1.73,1.73 0 0 1 1.21,-0.47 1.71,1.71 0 0 1 1.2,0.47 3.47,3.47 0 0 0 4.48,0 1.73,1.73 0 0 1 1.21,-0.47 1.71,1.71 0 0 1 1.2,0.47 3.47,3.47 0 0 0 4.48,0 1.73,1.73 0 0 1 1.21,-0.47 1.71,1.71 0 0 1 1.2,0.47 3.47,3.47 0 0 0 4.48,0 1.79,1.79 0 0 1 2.42,0 3.37,3.37 0 0 0 2.24,0.82 v -1.69 a 1.72,1.72 0 0 1 -1.21,-0.47 z m 0.38,-3.22 a 1.4,1.4 0 0 0 -0.18,-0.13 2.78,2.78 0 0 0 -0.42,-0.28 3.18,3.18 0 0 0 -1.23,-0.39 h -0.41 a 3.47,3.47 0 0 0 -2.24,0.82 1.87,1.87 0 0 1 -0.83,0.44 2.05,2.05 0 0 1 -0.37,0 1.69,1.69 0 0 1 -1.21,-0.47 3.47,3.47 0 0 0 -4.48,0 2.16,2.16 0 0 1 -0.67,0.4 1.66,1.66 0 0 1 -0.53,0.07 v 0 a 1.76,1.76 0 0 1 -0.42,0 H 39.4 a 1.39,1.39 0 0 1 -0.28,-0.12 l -0.26,-0.17 -0.14,-0.11 -0.43,-0.31 -0.18,-0.1 a 3.29,3.29 0 0 0 -0.86,-0.33 3.57,3.57 0 0 0 -0.77,-0.08 3.42,3.42 0 0 0 -2.24,0.82 1.67,1.67 0 0 1 -1.2,0.47 1.69,1.69 0 0 1 -1.21,-0.47 3.47,3.47 0 0 0 -4.48,0 1.67,1.67 0 0 1 -1.2,0.47 1.69,1.69 0 0 1 -1.21,-0.47 3.47,3.47 0 0 0 -4.48,0 1.67,1.67 0 0 1 -1.2,0.47 1.58,1.58 0 0 1 -0.67,-0.12 2.12,2.12 0 0 1 -0.4,-0.24 l -0.14,-0.11 a 3.46,3.46 0 0 0 -4.47,0 1.79,1.79 0 0 1 -2.42,0 3.46,3.46 0 0 0 -4.47,0 1.69,1.69 0 0 1 -1.21,0.47 1.67,1.67 0 0 1 -1.2,-0.47 3.55,3.55 0 0 0 -2.28,-0.88 v 1.72 a 1.77,1.77 0 0 1 1.24,0.48 3.47,3.47 0 0 0 4.48,0 1.67,1.67 0 0 1 1.21,-0.47 1.67,1.67 0 0 1 1.2,0.47 3.47,3.47 0 0 0 4.48,0 1.78,1.78 0 0 1 2.41,0 3.47,3.47 0 0 0 4.48,0 1.78,1.78 0 0 1 2.41,0 l 0.18,0.13 a 3.55,3.55 0 0 0 0.43,0.28 3,3 0 0 0 0.54,0.24 3.11,3.11 0 0 0 0.68,0.15 h 0.41 a 3.42,3.42 0 0 0 2.24,-0.82 1.67,1.67 0 0 1 1.2,-0.47 1.69,1.69 0 0 1 1.21,0.47 3.42,3.42 0 0 0 2.24,0.82 3.25,3.25 0 0 0 2.06,-0.69 l 0.18,-0.13 a 2.94,2.94 0 0 1 0.4,-0.28 1.31,1.31 0 0 1 0.27,-0.12 1.66,1.66 0 0 1 0.53,-0.07 1.69,1.69 0 0 1 1.21,0.47 4.05,4.05 0 0 0 1.15,0.65 3.42,3.42 0 0 0 1.09,0.17 3.64,3.64 0 0 0 0.77,-0.08 3,3 0 0 0 0.6,-0.2 4.06,4.06 0 0 0 0.69,-0.41 l 0.18,-0.13 a 2.38,2.38 0 0 1 0.6,-0.38 1.55,1.55 0 0 1 0.23,-0.06 2.05,2.05 0 0 1 0.37,0 1.69,1.69 0 0 1 1.21,0.47 3.42,3.42 0 0 0 2.24,0.82 3.25,3.25 0 0 0 1.63,-0.41 l 0.33,-0.21 0.28,-0.2 a 2.83,2.83 0 0 1 0.53,-0.35 1.61,1.61 0 0 1 0.67,-0.12 1.67,1.67 0 0 1 1.21,0.47 3.42,3.42 0 0 0 2.24,0.82 v -1.74 a 1.71,1.71 0 0 1 -1.21,-0.47 z m -22.08,-2.11 v -10.12 h -8.83 v 10.12 h 1.73 v -4.3 h 5.38 v 4.3 z m -7.1,-6 v -2.4 h 5.38 v 2.37 z m 0.68,-13.17 H 13.84 v 7.11 H 24 Z m -1.72,5.39 h -6.72 v -3.66 h 6.68 z m 5.77,1.72 h 10.12 v -3.1 a 10.27,10.27 0 0 1 -1.72,-0.53 v 1.91 h -6.68 v -3.66 H 34 a 3,3 0 0 1 -0.57,-1.73 h -5.38 z m 14.64,12.11 v -14.7 c -0.59,0 -1.16,0 -1.72,-0.08 v 15.43 a 4.48,4.48 0 0 1 1.72,-0.65 z m -33.15,-21.68 v 21.67 a 4.45,4.45 0 0 1 1.72,0.57 v -22.78 l 14.86,-7.1299997 7.31,3.48 v -1.95 l -7.32,-3.53 -16.73,8.1299997 -1.55,0.75 0.37,0.77 z"
     style="fill:#2c5967" />
</svg>
