<svg id="Layer_1" data-name="Layer 1" xmlns="http://www.w3.org/2000/svg" viewBox="0 0 42.08 35.9"><metadata><?xpacket begin="﻿" id="W5M0MpCehiHzreSzNTczkc9d"?>
<x:xmpmeta xmlns:x="adobe:ns:meta/" x:xmptk="Adobe XMP Core 6.0-c006 79.164648, 2021/01/12-15:52:29        ">
   <rdf:RDF xmlns:rdf="http://www.w3.org/1999/02/22-rdf-syntax-ns#">
      <rdf:Description rdf:about=""
            xmlns:xmp="http://ns.adobe.com/xap/1.0/"
            xmlns:xmpMM="http://ns.adobe.com/xap/1.0/mm/"
            xmlns:stEvt="http://ns.adobe.com/xap/1.0/sType/ResourceEvent#"
            xmlns:dc="http://purl.org/dc/elements/1.1/">
         <xmp:MetadataDate>2022-11-28T16:50:19-06:00</xmp:MetadataDate>
         <xmpMM:InstanceID>xmp.iid:b886e9cf-f7ab-4ee9-ab7d-d7f0a866c197</xmpMM:InstanceID>
         <xmpMM:DocumentID>xmp.did:abfc25fd-c1bf-4d2b-90a0-3440014113de</xmpMM:DocumentID>
         <xmpMM:OriginalDocumentID>xmp.did:abfc25fd-c1bf-4d2b-90a0-3440014113de</xmpMM:OriginalDocumentID>
         <xmpMM:History>
            <rdf:Seq>
               <rdf:li>
                  <rdf:Description>
                     <stEvt:action>saved</stEvt:action>
                     <stEvt:instanceID>xmp.iid:abfc25fd-c1bf-4d2b-90a0-3440014113de</stEvt:instanceID>
                     <stEvt:when>2022-11-10T17:09:21-06:00</stEvt:when>
                     <stEvt:softwareAgent>Adobe Bridge 2021 (Macintosh)</stEvt:softwareAgent>
                     <stEvt:changed>/metadata</stEvt:changed>
                  </rdf:Description>
               </rdf:li>
               <rdf:li>
                  <rdf:Description>
                     <stEvt:action>saved</stEvt:action>
                     <stEvt:instanceID>xmp.iid:b886e9cf-f7ab-4ee9-ab7d-d7f0a866c197</stEvt:instanceID>
                     <stEvt:when>2022-11-28T16:50:19-06:00</stEvt:when>
                     <stEvt:softwareAgent>Adobe Bridge 2021 (Macintosh)</stEvt:softwareAgent>
                     <stEvt:changed>/metadata</stEvt:changed>
                  </rdf:Description>
               </rdf:li>
            </rdf:Seq>
         </xmpMM:History>
         <dc:subject>
            <rdf:Bag>
               <rdf:li>icon</rdf:li>
               <rdf:li>service</rdf:li>
               <rdf:li>partner</rdf:li>
               <rdf:li>Google</rdf:li>
            </rdf:Bag>
         </dc:subject>
      </rdf:Description>
   </rdf:RDF>
</x:xmpmeta>
                                                                                                    
                                                                                                    
                                                                                                    
                                                                                                    
                                                                                                    
                                                                                                    
                                                                                                    
                                                                                                    
                                                                                                    
                                                                                                    
                                                                                                    
                                                                                                    
                                                                                                    
                                                                                                    
                                                                                    
<?xpacket end="w"?></metadata>
<path d="M18.93,35.4c-2.54,0-10.84-.25-10.84-3.56V19.31H.54L.64,18a8.86,8.86,0,0,1,4.75-7.24A2.09,2.09,0,0,0,6.48,9.26a6.84,6.84,0,0,1,6.7-5.51q.32,0,.63,0H14a2,2,0,0,0,1.46-.62,8.35,8.35,0,0,1,13.59,2,2.13,2.13,0,0,0,1.46,1.13,8.31,8.31,0,0,1,2.7,1.12,8.55,8.55,0,0,1,3,11.27l-.36.67H29.77V21H41.58V35.39H18.93Z" fill="#fff"/><path d="M21.6,1a7.82,7.82,0,0,1,7,4.34,2.61,2.61,0,0,0,1.8,1.4A8,8,0,0,1,35.76,18.4l-.22.4H29.27v2.68H41.08V34.89H18.93c-1.06,0-10.34-.08-10.34-3.07v-13H1.08L1.14,18a8.38,8.38,0,0,1,4.48-6.83A2.56,2.56,0,0,0,7,9.36a6.33,6.33,0,0,1,3.66-4.57,6.41,6.41,0,0,1,2.55-.54,5.63,5.63,0,0,1,.58,0H14a2.43,2.43,0,0,0,1.82-.78A7.9,7.9,0,0,1,21.6,1m0-1a8.87,8.87,0,0,0-6.49,2.83A1.46,1.46,0,0,1,14,3.29h-.16c-.23,0-.46,0-.68,0a7.47,7.47,0,0,0-2.95.62A7.34,7.34,0,0,0,6,9.17a1.57,1.57,0,0,1-.83,1.1,9.36,9.36,0,0,0-5,7.64l-.06.82L0,19.8H7.59v12c0,3.68,7.93,4.07,11.34,4.07H42.08V20.48H30.27V19.8h5.87l.28-.52.22-.4A9.06,9.06,0,0,0,33.5,6.94a9.4,9.4,0,0,0-2.86-1.18,1.59,1.59,0,0,1-1.12-.86A8.82,8.82,0,0,0,21.6,0Z" fill="#fff"/><path d="M35.54,18.8l.22-.4A8,8,0,0,0,30.42,6.74a2.61,2.61,0,0,1-1.8-1.4A7.85,7.85,0,0,0,15.84,3.51a2.45,2.45,0,0,1-2.08.77A6.33,6.33,0,0,0,7,9.36a2.56,2.56,0,0,1-1.35,1.79A8.38,8.38,0,0,0,1.14,18l-.06.82H7.25V17.27H2.78a6.8,6.8,0,0,1,3.56-4.76A4.11,4.11,0,0,0,8.48,9.65a4.78,4.78,0,0,1,2.77-3.46,4.7,4.7,0,0,1,2.37-.38A4,4,0,0,0,17,4.55a6.35,6.35,0,0,1,4.63-2A6.28,6.28,0,0,1,27.25,6a4.17,4.17,0,0,0,2.84,2.21,6.49,6.49,0,0,1,4.52,9h-4.2V18.8Z" fill="#2c5967"/><path d="M29.26,15.13s0,0,0-.06c0-2.49-6.5-3.16-10.34-3.16l-1.14,0c-3.86.12-9.2.88-9.2,3.14V31.83c0,3,9.28,3.07,10.34,3.07h.9V33.36h-.9c-5.27,0-8.45-1-8.81-1.58V28.18c2.68,1.25,8,1.3,8.81,1.3h.9V27.94h-.9c-5.27,0-8.45-1-8.81-1.58V22.55c2.68,1.26,8,1.3,8.81,1.3h.9V22.31h-.9c-5.27,0-8.45-1-8.81-1.58V16.86c2.16,1.05,6.13,1.37,8.81,1.37s6.65-.32,8.8-1.37v3.48h1.54V15.17S29.26,15.14,29.26,15.13ZM18.93,16.7c-5.25,0-8.4-1-8.79-1.63.39-.6,3.54-1.62,8.79-1.62s8.39,1,8.79,1.62C27.32,15.68,24.18,16.7,18.93,16.7Z" fill="#2c5967"/><path d="M21,34.89h20.1V21.48H21ZM22.51,23h17V33.35h-17Z" fill="#2c5967"/><path d="M26.87,28.62l.87.29v1a4.63,4.63,0,0,1-.65,0,1.46,1.46,0,0,1-1.16-.44,2,2,0,0,1-.38-1.34A1.67,1.67,0,0,1,26,26.94a1.74,1.74,0,0,1,1.25-.43,3.66,3.66,0,0,1,.57,0,4.25,4.25,0,0,1,.64.16v-.93a2.39,2.39,0,0,0-.61-.17,3.47,3.47,0,0,0-.64-.06,3.26,3.26,0,0,0-1.5.31,2.1,2.1,0,0,0-.95.89,2.83,2.83,0,0,0-.33,1.41,2.8,2.8,0,0,0,.67,2,2.57,2.57,0,0,0,2,.7,4,4,0,0,0,1.72-.36V28H26.87Z" fill="#2c5967"/><path d="M32.08,30A1.39,1.39,0,0,1,31,29.49a2.05,2.05,0,0,1-.38-1.32A1.75,1.75,0,0,1,31,27a1.42,1.42,0,0,1,1.12-.44,2.37,2.37,0,0,1,.52.06,5.09,5.09,0,0,1,.65.2v-.94a2.44,2.44,0,0,0-.56-.19,2.51,2.51,0,0,0-.69-.08,2.8,2.8,0,0,0-1.37.31,2.12,2.12,0,0,0-.88.9,3.41,3.41,0,0,0,.32,3.43,2.41,2.41,0,0,0,1.88.71,3.32,3.32,0,0,0,.8-.09,3,3,0,0,0,.64-.22v-.92a4.49,4.49,0,0,1-.71.21A2.52,2.52,0,0,1,32.08,30Z" fill="#2c5967"/><path d="M36,25.66H34.12v5.15h1.09V29.14H36a2,2,0,0,0,1.43-.44,2,2,0,0,0,0-2.6A2,2,0,0,0,36,25.66Zm.58,2.39a1.3,1.3,0,0,1-.81.19h-.52V26.56h.52a1.3,1.3,0,0,1,.81.19.81.81,0,0,1,.23.65A.83.83,0,0,1,36.54,28.05Z" fill="#2c5967"/></svg>