<svg id="Layer_1" data-name="Layer 1" xmlns="http://www.w3.org/2000/svg" viewBox="0 0 37.82 42"><metadata><?xpacket begin="﻿" id="W5M0MpCehiHzreSzNTczkc9d"?>
<x:xmpmeta xmlns:x="adobe:ns:meta/" x:xmptk="Adobe XMP Core 6.0-c006 79.164648, 2021/01/12-15:52:29        ">
   <rdf:RDF xmlns:rdf="http://www.w3.org/1999/02/22-rdf-syntax-ns#">
      <rdf:Description rdf:about=""
            xmlns:dc="http://purl.org/dc/elements/1.1/"
            xmlns:xmp="http://ns.adobe.com/xap/1.0/"
            xmlns:xmpMM="http://ns.adobe.com/xap/1.0/mm/"
            xmlns:stEvt="http://ns.adobe.com/xap/1.0/sType/ResourceEvent#">
         <dc:subject>
            <rdf:Bag>
               <rdf:li>date lake</rdf:li>
               <rdf:li>database</rdf:li>
               <rdf:li>Lakehouse</rdf:li>
               <rdf:li>water</rdf:li>
               <rdf:li>icon</rdf:li>
            </rdf:Bag>
         </dc:subject>
         <xmp:MetadataDate>2022-12-05T11:48:24-06:00</xmp:MetadataDate>
         <xmpMM:InstanceID>xmp.iid:3921b702-9a6e-43b8-9485-52b336de718f</xmpMM:InstanceID>
         <xmpMM:DocumentID>xmp.did:e65242f1-e151-4ee3-b659-b2949c515bd7</xmpMM:DocumentID>
         <xmpMM:OriginalDocumentID>xmp.did:e65242f1-e151-4ee3-b659-b2949c515bd7</xmpMM:OriginalDocumentID>
         <xmpMM:History>
            <rdf:Seq>
               <rdf:li>
                  <rdf:Description>
                     <stEvt:action>saved</stEvt:action>
                     <stEvt:instanceID>xmp.iid:e65242f1-e151-4ee3-b659-b2949c515bd7</stEvt:instanceID>
                     <stEvt:when>2022-12-05T11:42:37-06:00</stEvt:when>
                     <stEvt:softwareAgent>Adobe Bridge 2021 (Macintosh)</stEvt:softwareAgent>
                     <stEvt:changed>/metadata</stEvt:changed>
                  </rdf:Description>
               </rdf:li>
               <rdf:li>
                  <rdf:Description>
                     <stEvt:action>saved</stEvt:action>
                     <stEvt:instanceID>xmp.iid:3921b702-9a6e-43b8-9485-52b336de718f</stEvt:instanceID>
                     <stEvt:when>2022-12-05T11:48:24-06:00</stEvt:when>
                     <stEvt:softwareAgent>Adobe Bridge 2021 (Macintosh)</stEvt:softwareAgent>
                     <stEvt:changed>/metadata</stEvt:changed>
                  </rdf:Description>
               </rdf:li>
            </rdf:Seq>
         </xmpMM:History>
      </rdf:Description>
   </rdf:RDF>
</x:xmpmeta>
                                                                                                    
                                                                                                    
                                                                                                    
                                                                                                    
                                                                                                    
                                                                                                    
                                                                                                    
                                                                                                    
                                                                                                    
                                                                                                    
                                                                                                    
                                                                                                    
                                                                                                    
                                                                                                    
                                                                                       
<?xpacket end="w"?></metadata>
<path d="M18.91,0C15.75,0,0,.29,0,6.06v30C0,41.71,15.75,42,18.91,42s18.91-.29,18.91-5.93v-30C37.82.29,22.07,0,18.91,0Z" fill="#fff"/><path d="M18.91,41.5C17,41.5.5,41.35.5,36.07V6.48a1.21,1.21,0,0,1,0-.19,1.69,1.69,0,0,1,0-.23C.5,2,10.42.5,18.91.5S37.32,2,37.32,6.06a1.79,1.79,0,0,1,0,.23,1.23,1.23,0,0,1,0,.19V36.07C37.32,41.35,20.79,41.5,18.91,41.5Z" fill="#fff"/><path d="M18.91,1c8.62,0,17.91,1.58,17.91,5.06a2.29,2.29,0,0,1,0,.25.88.88,0,0,1,0,.17V36.07C36.82,40,25.1,41,18.91,41S1,40,1,36.07V6.48a.88.88,0,0,1,0-.17,2.29,2.29,0,0,1,0-.25C1,2.58,10.28,1,18.91,1m0-1C15.75,0,0,.29,0,6.06a1.85,1.85,0,0,0,0,.23,1.15,1.15,0,0,0,0,.19V36.07C0,41.71,15.75,42,18.91,42s18.91-.29,18.91-5.93V6.48c0-.07,0-.13,0-.19s0-.16,0-.23C37.82.29,22.07,0,18.91,0Z" fill="#fff"/><path d="M18.91,1C10.28,1,1,2.58,1,6.06v30C1,40,12.71,41,18.91,41s17.91-1,17.91-4.93v-30C36.82,2.58,27.53,1,18.91,1ZM7,3.9A52,52,0,0,1,18.91,2.69,51.86,51.86,0,0,1,30.77,3.9c3.58.88,4.36,1.85,4.36,2.16s-.78,1.28-4.36,2.16A51.86,51.86,0,0,1,18.91,9.43,52,52,0,0,1,7,8.22C3.47,7.33,2.69,6.36,2.69,6.06S3.47,4.78,7,3.9ZM2.69,20a8.09,8.09,0,0,0,4.84,1.63,8.48,8.48,0,0,0,5.7-2.33,8.26,8.26,0,0,0,5.68,2.33,8.5,8.5,0,0,0,5.7-2.33,8.25,8.25,0,0,0,5.67,2.33A8.57,8.57,0,0,0,35.13,20v7.42a6.43,6.43,0,0,1-9.87-.22l-.66-.83-.66.83a6.66,6.66,0,0,1-5,2.42,6.65,6.65,0,0,1-5-2.42l-.66-.83-.66.83a6.66,6.66,0,0,1-5,2.42,6.55,6.55,0,0,1-4.84-2.21Zm32.44-2.26a6.41,6.41,0,0,1-9.87-.22l-.66-.82-.66.82a6.64,6.64,0,0,1-5,2.43,6.61,6.61,0,0,1-5-2.43l-.66-.82-.66.82a6.64,6.64,0,0,1-5,2.43,6.59,6.59,0,0,1-4.84-2.21V8.37c3.06,1.87,9.82,2.74,16.22,2.74s13.16-.87,16.22-2.74Zm-4.35,20.4a53.31,53.31,0,0,1-11.87,1.17A53.25,53.25,0,0,1,7,38.14c-3.55-.85-4.35-1.8-4.35-2.07V29.69a8.09,8.09,0,0,0,4.84,1.63A8.48,8.48,0,0,0,13.23,29a8.26,8.26,0,0,0,5.68,2.33A8.5,8.5,0,0,0,24.61,29a8.25,8.25,0,0,0,5.67,2.33,8.57,8.57,0,0,0,4.85-1.61v6.36C35.13,36.34,34.33,37.29,30.78,38.14Z" fill="#2c5967"/></svg>