<svg id="Layer_1" data-name="Layer 1" xmlns="http://www.w3.org/2000/svg" viewBox="0 0 42.08 34.65"><metadata><?xpacket begin="﻿" id="W5M0MpCehiHzreSzNTczkc9d"?>
<x:xmpmeta xmlns:x="adobe:ns:meta/" x:xmptk="Adobe XMP Core 6.0-c006 79.164648, 2021/01/12-15:52:29        ">
   <rdf:RDF xmlns:rdf="http://www.w3.org/1999/02/22-rdf-syntax-ns#">
      <rdf:Description rdf:about=""
            xmlns:xmp="http://ns.adobe.com/xap/1.0/"
            xmlns:xmpMM="http://ns.adobe.com/xap/1.0/mm/"
            xmlns:stEvt="http://ns.adobe.com/xap/1.0/sType/ResourceEvent#"
            xmlns:dc="http://purl.org/dc/elements/1.1/">
         <xmp:MetadataDate>2022-11-28T16:50:55-06:00</xmp:MetadataDate>
         <xmpMM:InstanceID>xmp.iid:590a2f0d-55d6-41d6-a869-057f2f47529c</xmpMM:InstanceID>
         <xmpMM:DocumentID>xmp.did:87f05746-bda9-4bc4-a876-a88bab41b5d0</xmpMM:DocumentID>
         <xmpMM:OriginalDocumentID>xmp.did:87f05746-bda9-4bc4-a876-a88bab41b5d0</xmpMM:OriginalDocumentID>
         <xmpMM:History>
            <rdf:Seq>
               <rdf:li>
                  <rdf:Description>
                     <stEvt:action>saved</stEvt:action>
                     <stEvt:instanceID>xmp.iid:87f05746-bda9-4bc4-a876-a88bab41b5d0</stEvt:instanceID>
                     <stEvt:when>2022-11-10T17:09:07-06:00</stEvt:when>
                     <stEvt:softwareAgent>Adobe Bridge 2021 (Macintosh)</stEvt:softwareAgent>
                     <stEvt:changed>/metadata</stEvt:changed>
                  </rdf:Description>
               </rdf:li>
               <rdf:li>
                  <rdf:Description>
                     <stEvt:action>saved</stEvt:action>
                     <stEvt:instanceID>xmp.iid:590a2f0d-55d6-41d6-a869-057f2f47529c</stEvt:instanceID>
                     <stEvt:when>2022-11-28T16:50:55-06:00</stEvt:when>
                     <stEvt:softwareAgent>Adobe Bridge 2021 (Macintosh)</stEvt:softwareAgent>
                     <stEvt:changed>/metadata</stEvt:changed>
                  </rdf:Description>
               </rdf:li>
            </rdf:Seq>
         </xmpMM:History>
         <dc:subject>
            <rdf:Bag>
               <rdf:li>icon</rdf:li>
               <rdf:li>service</rdf:li>
               <rdf:li>aws</rdf:li>
               <rdf:li>amazon</rdf:li>
               <rdf:li>partner</rdf:li>
            </rdf:Bag>
         </dc:subject>
      </rdf:Description>
   </rdf:RDF>
</x:xmpmeta>
                                                                                                    
                                                                                                    
                                                                                                    
                                                                                                    
                                                                                                    
                                                                                                    
                                                                                                    
                                                                                                    
                                                                                                    
                                                                                                    
                                                                                                    
                                                                                                    
                                                                                                    
                                                                                                    
                                                                                    
<?xpacket end="w"?></metadata>
<path d="M18.27,34.15c-2.45,0-10.46-.25-10.46-3.45v-12H.54l.1-1.33a8.57,8.57,0,0,1,4.58-7A2,2,0,0,0,6.27,9a6.59,6.59,0,0,1,3.81-4.76,6.7,6.7,0,0,1,2.65-.56c.2,0,.41,0,.61,0h.21a1.87,1.87,0,0,0,1.38-.59A8.06,8.06,0,0,1,28.05,5,2,2,0,0,0,29.44,6a8.35,8.35,0,0,1,2.62,1.08A8.26,8.26,0,0,1,34.92,18l-.35.65H28.73v1.58H41.58v13.9H18.27Z" fill="#fff"/><path d="M20.84,1A7.52,7.52,0,0,1,27.6,5.18a2.57,2.57,0,0,0,1.74,1.35,7.61,7.61,0,0,1,2.45,1,7.77,7.77,0,0,1,2.69,10.22l-.21.39h-6v2.58H41.08v12.9H18.27c-1,0-10-.08-10-2.95V18.15H1.08l.06-.8a8,8,0,0,1,4.32-6.57,2.52,2.52,0,0,0,1.3-1.73,6.1,6.1,0,0,1,6-4.92,5.44,5.44,0,0,1,.57,0h.25a2.39,2.39,0,0,0,1.75-.75A7.57,7.57,0,0,1,20.84,1m0-1a8.58,8.58,0,0,0-6.27,2.74,1.38,1.38,0,0,1-1,.43h-.16q-.33,0-.66,0a7.1,7.1,0,0,0-7,5.73,1.46,1.46,0,0,1-.78,1A9.07,9.07,0,0,0,.14,17.28l-.06.79L0,19.15H7.31V30.7c0,1.47,1.43,3.95,11,3.95H42.08V19.73H29.23v-.58h5.64l.28-.53.21-.39a8.76,8.76,0,0,0-3-11.54,8.63,8.63,0,0,0-2.77-1.14,1.55,1.55,0,0,1-1.05-.81A8.51,8.51,0,0,0,20.84,0Z" fill="#fff"/><path d="M34.27,18.15l.21-.39A7.77,7.77,0,0,0,31.79,7.54a7.61,7.61,0,0,0-2.45-1A2.57,2.57,0,0,1,27.6,5.18,7.55,7.55,0,0,0,15.3,3.42a2.39,2.39,0,0,1-2,.74A6.09,6.09,0,0,0,6.76,9.05a2.5,2.5,0,0,1-1.31,1.73,8,8,0,0,0-4.31,6.57l-.06.8H7V16.67H2.71a6.64,6.64,0,0,1,3.43-4.59A3.94,3.94,0,0,0,8.2,9.33,4.62,4.62,0,0,1,10.87,6a4.51,4.51,0,0,1,2.29-.37,3.86,3.86,0,0,0,3.22-1.21,6.08,6.08,0,0,1,9.9,1.42A4,4,0,0,0,29,8a6,6,0,0,1,2,.82,6.27,6.27,0,0,1,2.37,7.88h-4v1.48Z" fill="#2c5967"/><path d="M28.22,14.61s0,0,0-.06c0-2.4-6.26-3-10-3-.35,0-.72,0-1.1,0-3.72.11-8.86.84-8.86,3,0,0,0,0,0,.06V30.7c0,2.87,8.94,2.95,10,2.95h.87V32.17h-.87c-5.07,0-8.14-1-8.48-1.53V27.18c2.58,1.2,7.72,1.25,8.48,1.25h.87V26.94h-.87c-5.07,0-8.14-1-8.48-1.52V21.76C12.37,23,17.51,23,18.27,23h.87V21.53h-.87c-5.07,0-8.14-1-8.48-1.53V16.28c2.08,1,5.9,1.31,8.48,1.31s6.4-.31,8.48-1.31v3.34h1.48v-5ZM9.81,14.55C10.18,14,13.21,13,18.27,13s8.09,1,8.46,1.56c-.37.59-3.4,1.57-8.46,1.57S10.18,15.14,9.81,14.55Z" fill="#2c5967"/><path d="M20.24,20.73v12.9H41.08V20.73ZM39.6,32.16H21.72v-10H39.6Z" fill="#2c5967"/><path d="M26.91,29.71H28.1l-1.89-5h-1l-1.89,5h1.14l.33-1h1.83Zm-1.86-1.92.62-1.95.62,1.95Z" fill="#2c5967"/><polygon points="30.11 29.71 31.08 26.37 32.09 29.71 33.12 29.71 34.21 24.75 33.16 24.75 32.47 28.05 31.54 25.02 30.66 25.02 29.77 28.09 29.07 24.75 27.99 24.75 29.09 29.71 30.11 29.71" fill="#2c5967"/><path d="M37,26.84l-.52-.18a2.84,2.84,0,0,1-.6-.26.38.38,0,0,1-.16-.32c0-.33.28-.49.84-.49a3.25,3.25,0,0,1,.67.07,4.44,4.44,0,0,1,.71.21v-.95a3,3,0,0,0-.64-.2,4.53,4.53,0,0,0-.74-.07,2.66,2.66,0,0,0-1,.18,1.54,1.54,0,0,0-.67.52,1.4,1.4,0,0,0-.23.8,1.33,1.33,0,0,0,.29.88,2,2,0,0,0,.92.56l.52.18a2.44,2.44,0,0,1,.61.27.38.38,0,0,1,.16.3.45.45,0,0,1-.25.39,1.28,1.28,0,0,1-.67.15,4.18,4.18,0,0,1-1.51-.3v1a2.17,2.17,0,0,0,.43.14,4.83,4.83,0,0,0,.59.1l.61,0a2.13,2.13,0,0,0,1.39-.4,1.34,1.34,0,0,0,.5-1.1,1.4,1.4,0,0,0-.28-.9A2.2,2.2,0,0,0,37,26.84Z" fill="#2c5967"/></svg>