<svg id="Layer_1" data-name="Layer 1" xmlns="http://www.w3.org/2000/svg" viewBox="0 0 43.15 42"><metadata><?xpacket begin="﻿" id="W5M0MpCehiHzreSzNTczkc9d"?>
<x:xmpmeta xmlns:x="adobe:ns:meta/" x:xmptk="Adobe XMP Core 6.0-c006 79.164648, 2021/01/12-15:52:29        ">
   <rdf:RDF xmlns:rdf="http://www.w3.org/1999/02/22-rdf-syntax-ns#">
      <rdf:Description rdf:about=""
            xmlns:dc="http://purl.org/dc/elements/1.1/"
            xmlns:xmp="http://ns.adobe.com/xap/1.0/"
            xmlns:xmpMM="http://ns.adobe.com/xap/1.0/mm/"
            xmlns:stEvt="http://ns.adobe.com/xap/1.0/sType/ResourceEvent#">
         <dc:subject>
            <rdf:Bag>
               <rdf:li>icon</rdf:li>
               <rdf:li>world</rdf:li>
               <rdf:li>globe</rdf:li>
               <rdf:li>international</rdf:li>
               <rdf:li>region</rdf:li>
               <rdf:li>time</rdf:li>
               <rdf:li>difference</rdf:li>
            </rdf:Bag>
         </dc:subject>
         <xmp:MetadataDate>2022-11-11T13:19:35-06:00</xmp:MetadataDate>
         <xmpMM:InstanceID>xmp.iid:8071c819-b99a-4545-bd88-26c11710b472</xmpMM:InstanceID>
         <xmpMM:DocumentID>xmp.did:8071c819-b99a-4545-bd88-26c11710b472</xmpMM:DocumentID>
         <xmpMM:OriginalDocumentID>xmp.did:8071c819-b99a-4545-bd88-26c11710b472</xmpMM:OriginalDocumentID>
         <xmpMM:History>
            <rdf:Seq>
               <rdf:li>
                  <rdf:Description>
                     <stEvt:action>saved</stEvt:action>
                     <stEvt:instanceID>xmp.iid:8071c819-b99a-4545-bd88-26c11710b472</stEvt:instanceID>
                     <stEvt:when>2022-11-11T13:19:35-06:00</stEvt:when>
                     <stEvt:softwareAgent>Adobe Bridge 2021 (Macintosh)</stEvt:softwareAgent>
                     <stEvt:changed>/metadata</stEvt:changed>
                  </rdf:Description>
               </rdf:li>
            </rdf:Seq>
         </xmpMM:History>
      </rdf:Description>
   </rdf:RDF>
</x:xmpmeta>
                                                                                                    
                                                                                                    
                                                                                                    
                                                                                                    
                                                                                                    
                                                                                                    
                                                                                                    
                                                                                                    
                                                                                                    
                                                                                                    
                                                                                                    
                                                                                                    
                                                                                                    
                                                                                                    
                                                                                                    
                                                                                                    
                                                                                                    
                                                                                                    
                                                                                                    
                                                                                                    
                           
<?xpacket end="w"?></metadata>
<path d="M33.51,30.06a9.18,9.18,0,0,0,6-2.61,8.88,8.88,0,0,0,2.66-6.36h0a8.88,8.88,0,0,1-2.66,6.36A9.18,9.18,0,0,1,33.51,30.06Z" fill="none"/><path d="M32.67,30.06l-.24,0Z" fill="none"/><polygon points="24.4 18.4 24.37 18.4 24.37 18.4 24.4 18.4 25.98 18.4 29.18 18.4 29.18 18.4 25.98 18.4 24.4 18.4" fill="none"/><path d="M32.65,28.57l.35,0Z" fill="none"/><path d="M38.45,15.79a7.61,7.61,0,0,0-11.69,1.13h0a7.09,7.09,0,0,1,.93-1.12,7.68,7.68,0,0,1,10.76,0,7.38,7.38,0,0,1,2.22,5.29h0A7.42,7.42,0,0,0,38.45,15.79Z" fill="none"/><polygon points="30.29 15.44 30.29 15.44 30.3 15.44 30.29 15.44" fill="#fff"/><path d="M28.39,8.27l2.82-.9.94-1.16A18.33,18.33,0,0,0,28.36,4a.63.63,0,0,1,0,.19Z" fill="none"/><polygon points="32.57 28.57 32.57 28.57 32.57 28.57 32.57 28.57" fill="none"/><path d="M33.07,12.12a9.11,9.11,0,0,0-6.42,2.62,9.83,9.83,0,0,0-.8.91h0V13.4H24.37v5h4.8V16.92H26.76a7.68,7.68,0,0,1,11.69-1.13,7.42,7.42,0,0,1,2.22,5.3h0a7.4,7.4,0,0,1-2.22,5.3,7.61,7.61,0,0,1-5.38,2.2H33l-.35,0h-.33V30h.11l.24,0h.84a9.18,9.18,0,0,0,6-2.61,8.92,8.92,0,0,0,0-12.71A9.11,9.11,0,0,0,33.07,12.12Z" fill="#2c5967"/><path d="M43.15,21.09a9.75,9.75,0,0,0-1.46-5.15l-1.3-3.09a21,21,0,1,0-.13,16.6l1.35-3.06A9.82,9.82,0,0,0,43.15,21.09Zm-3.66,6.36a9.18,9.18,0,0,1-6,2.61h-.84l-.24,0h-.11V28.55h.33l.35,0h.07a7.61,7.61,0,0,0,5.38-2.2,7.4,7.4,0,0,0,2.22-5.3h0a7.42,7.42,0,0,0-2.22-5.3,7.61,7.61,0,0,0-11.69,1.13h2.41V18.4h-4.8v-5h1.48v2.24h0a9.83,9.83,0,0,1,.8-.91,9.18,9.18,0,0,1,12.84,0,8.92,8.92,0,0,1,0,12.71ZM21,41A20,20,0,1,1,39.46,13.24a10,10,0,0,0-2.34-1.41A18.8,18.8,0,0,0,33.3,7.14L32.22,8.48a.79.79,0,0,1-.35.24l-4,1.27a.83.83,0,0,1-.22,0,.77.77,0,0,1-.44-.14.74.74,0,0,1-.3-.6V4.52L25.34,3.11,25.21,3a18.29,18.29,0,0,0-3.87-.47L21.2,4a.79.79,0,0,1-.37.58l-3.38,2-.56.84.77.46L20,6.47a.67.67,0,0,1,.38-.11.74.74,0,0,1,.49.18l1.45,1.27a.78.78,0,0,1,.26.56V9.83a.75.75,0,0,1-.34.62L18.4,13v1.42a.73.73,0,0,1-.22.52l-1.33,1.33.43,1.43a.75.75,0,0,1-.47.91.67.67,0,0,1-.24,0,.73.73,0,0,1-.69-.48l-.75-1.93H12l.3,1.48.87.44a.73.73,0,0,1,.33.32l.69,1.3,2,2.05.06.07h0l0,0,.35.59,3-.16h0a.8.8,0,0,1,.33.08l1.09.54.08.05,5.63,3.82a.74.74,0,0,1,.3.82l-.74,2.45a.72.72,0,0,1-.09.2l-1.46,2.2-2.5,4.56L21,39.52h0a18.55,18.55,0,0,0,16-9.1,10.37,10.37,0,0,0,2.37-1.37A20,20,0,0,1,21,41Z" fill="#fff"/><path d="M21,39.52h0l1.28-2.45,2.5-4.56,1.46-2.2a.72.72,0,0,0,.09-.2l.74-2.45a.74.74,0,0,0-.3-.82L21.16,23,21.08,23,20,22.43a.8.8,0,0,0-.33-.08h0l-3,.16-.35-.59,0,0h0l-.06-.07-2-2.05-.69-1.3a.73.73,0,0,0-.33-.32l-.87-.44L12,16.2h3.11l.75,1.93a.73.73,0,0,0,.69.48.67.67,0,0,0,.24,0,.75.75,0,0,0,.47-.91l-.43-1.43,1.33-1.33a.73.73,0,0,0,.22-.52V13l3.84-2.5a.75.75,0,0,0,.34-.62V8.37a.78.78,0,0,0-.26-.56L20.87,6.54a.74.74,0,0,0-.49-.18.67.67,0,0,0-.38.11l-2.34,1.4-.77-.46.56-.84,3.38-2A.79.79,0,0,0,21.2,4l.14-1.54A18.29,18.29,0,0,1,25.21,3l.13.15,1.57,1.41V9.28a.74.74,0,0,0,.3.6.77.77,0,0,0,.44.14.83.83,0,0,0,.22,0l4-1.27a.79.79,0,0,0,.35-.24L33.3,7.14a18.8,18.8,0,0,1,3.82,4.69,10,10,0,0,1,2.34,1.41,20,20,0,1,0-.12,15.81A10.37,10.37,0,0,1,37,30.42,18.55,18.55,0,0,1,21,39.52ZM32.15,6.21l-.94,1.16-2.82.9V4.19a.63.63,0,0,0,0-.19A18.33,18.33,0,0,1,32.15,6.21ZM19.44,39.34l-.28-.05,0-3.13h0q-.75-.16-1.47-.39l0,3.46A18.52,18.52,0,0,1,3.85,14l0,.51a.74.74,0,0,0,.34.65l2.21,1.42c.13-.49.29-1,.47-1.46l-1.52-1L5.45,11V11A18.54,18.54,0,0,1,19.84,2.52l-.09,1L16.56,5.37a.92.92,0,0,0-.25.23L15.22,7.23a.74.74,0,0,0-.1.58.68.68,0,0,0,.34.47l1.81,1.09a.73.73,0,0,0,.77,0L20.3,8l.79.7v.71l-3.84,2.51a.74.74,0,0,0-.33.62v1.51l-.82.81a.73.73,0,0,0-.46-.16H11.11A11.37,11.37,0,0,0,10.48,16l.45,2.29a.78.78,0,0,0,.4.52l1,.49.36.69-1.53-.44-1.42-1a10.64,10.64,0,0,0-.17,1.69l.84.58a.65.65,0,0,0,.22.11L14.33,22l.72.72.33.56L14.05,27a.74.74,0,0,0,0,.6L15.37,30a.72.72,0,0,0,.17.22l1.8,1.51a14.51,14.51,0,0,0,1.79.62v-.7a.73.73,0,0,0-.26-.57l-2.25-1.9-1-1.95L16.71,24l2.79-.15.87.44,5.14,3.48L25,29.58l-1.42,2.13a.21.21,0,0,0,0,.06L21,36.37Z" fill="#2c5967"/><path d="M28.39,8.27l2.82-.9.94-1.16A18.33,18.33,0,0,0,28.36,4a.63.63,0,0,1,0,.19Z" fill="#fff"/><path d="M23.55,31.71,25,29.58l.54-1.82-5.14-3.48-.87-.44L16.71,24l-1.15,3.22,1,1.95,2.25,1.9a.73.73,0,0,1,.26.57v.7a14.51,14.51,0,0,1-1.79-.62l-1.8-1.51a.72.72,0,0,1-.17-.22L14.1,27.62a.74.74,0,0,1,0-.6l1.33-3.7-.33-.56L14.33,22,10.62,21a.65.65,0,0,1-.22-.11l-.84-.58a10.64,10.64,0,0,1,.17-1.69l1.42,1,1.53.44-.36-.69-1-.49a.78.78,0,0,1-.4-.52L10.48,16a11.37,11.37,0,0,1,.63-1.32h4.53a.73.73,0,0,1,.46.16l.82-.81V12.55a.74.74,0,0,1,.33-.62l3.84-2.51V8.71L20.3,8,18,9.37a.73.73,0,0,1-.77,0L15.46,8.28a.68.68,0,0,1-.34-.47.74.74,0,0,1,.1-.58L16.31,5.6a.92.92,0,0,1,.25-.23l3.19-1.85.09-1A18.54,18.54,0,0,0,5.45,11V11l-.12,3.13,1.52,1c-.18.48-.34,1-.47,1.46L4.17,15.17a.74.74,0,0,1-.34-.65l0-.51A18.52,18.52,0,0,0,17.68,39.22l0-3.46q.72.23,1.47.39h0l0,3.13.28.05,1.56-3,2.51-4.6A.21.21,0,0,1,23.55,31.71Z" fill="#fff"/><path d="M33.15,14.8a6.38,6.38,0,0,0-2.86.68v1.73a4.86,4.86,0,0,1,2.86-.93,4.89,4.89,0,1,1-4.62,3.23H27a6.67,6.67,0,0,0-.22,1.68,6.39,6.39,0,0,0,4.45,6.09h0a7.72,7.72,0,0,0,1.87.22,6.51,6.51,0,0,0,4.59-1.9,6.39,6.39,0,0,0,1.75-3.18,6.26,6.26,0,0,0,.12-1.23A6.4,6.4,0,0,0,33.15,14.8Z" fill="#2c5967"/><path d="M17.52,34.55h0a.74.74,0,0,1-.47-.94h0a.75.75,0,0,1,.94-.46h0a.74.74,0,0,1,.47.94h0a.74.74,0,0,1-.7.5h0A.67.67,0,0,1,17.52,34.55Zm-2.15-.88a.74.74,0,0,1-.33-1h0a.74.74,0,0,1,1-.34h0a.74.74,0,0,1,.34,1h0a.75.75,0,0,1-.67.42h0A.8.8,0,0,1,15.37,33.67Zm-2-1.18a.73.73,0,0,1-.19-1h0a.75.75,0,0,1,1-.19h0a.75.75,0,0,1,.19,1h0a.75.75,0,0,1-.61.32h0A.72.72,0,0,1,13.37,32.49ZM11.55,31a.74.74,0,0,1,0-1.05h0a.74.74,0,0,1,1,0h0a.74.74,0,0,1,0,1.05h0a.78.78,0,0,1-.54.23h0A.7.7,0,0,1,11.55,31ZM10,29.31a.74.74,0,0,1,.14-1h0a.72.72,0,0,1,1,.13h0a.74.74,0,0,1-.13,1h0a.74.74,0,0,1-.45.15h0A.77.77,0,0,1,10,29.31Zm-1.28-2a.75.75,0,0,1,.3-1H9a.74.74,0,0,1,1,.3h0a.74.74,0,0,1-.29,1h0a.8.8,0,0,1-.36.09h0A.75.75,0,0,1,8.69,27.35Zm-.95-2.14a.74.74,0,0,1,.46-.94h0a.74.74,0,0,1,.94.45h0a.74.74,0,0,1-.46,1h0a1,1,0,0,1-.24,0h0A.74.74,0,0,1,7.74,25.21Zm-.58-2.27a.73.73,0,0,1,.61-.85h0a.74.74,0,0,1,.85.6h0a.74.74,0,0,1-.61.86H7.89A.74.74,0,0,1,7.16,22.94ZM7,20.61a.75.75,0,0,1,.74-.75h0a.74.74,0,0,1,.74.74h0a.74.74,0,0,1-.74.74h0A.73.73,0,0,1,7,20.61Zm.8-1.49a.75.75,0,0,1-.61-.85h0A.74.74,0,0,1,8,17.66H8a.74.74,0,0,1,.61.85h0a.73.73,0,0,1-.73.62H7.76Zm.43-2.18A.74.74,0,0,1,7.72,16h0a.73.73,0,0,1,.94-.46h0a.74.74,0,0,1,.47.93h0a.76.76,0,0,1-.71.51h0A.62.62,0,0,1,8.19,16.94ZM9,14.85a.75.75,0,0,1-.32-1h0a.74.74,0,0,1,1-.31h0a.72.72,0,0,1,.32,1h0a.73.73,0,0,1-.66.4h0A.71.71,0,0,1,9,14.85ZM10,12.9a.74.74,0,0,1-.17-1h0a.74.74,0,0,1,1-.17h0a.74.74,0,0,1,.18,1h0a.75.75,0,0,1-.61.31h0A.69.69,0,0,1,10,12.9Z" fill="#2c5967"/><path d="M35.07,24a.7.7,0,0,1-.52-.22l-1.95-2a.74.74,0,0,1-.22-.52V18a.74.74,0,0,1,1.48,0V21l1.73,1.75a.75.75,0,0,1,0,1.05A.79.79,0,0,1,35.07,24Z" fill="#2c5967"/></svg>