<?xml version="1.0" encoding="UTF-8" standalone="no"?>
<!-- Generator: Adobe Illustrator 27.8.1, SVG Export Plug-In . SVG Version: 6.00 Build 0)  -->

<svg
   version="1.1"
   id="Layer_1"
   x="0px"
   y="0px"
   viewBox="0 0 288 288"
   style="enable-background:new 0 0 288 288;"
   xml:space="preserve"
   sodipodi:docname="OCI-Migration-Workbench.svg"
   inkscape:version="1.3.2 (091e20e, 2023-11-25, custom)"
   inkscape:export-filename="OCI-Migration-Workbench.png"
   inkscape:export-xdpi="300"
   inkscape:export-ydpi="300"
   xmlns:inkscape="http://www.inkscape.org/namespaces/inkscape"
   xmlns:sodipodi="http://sodipodi.sourceforge.net/DTD/sodipodi-0.dtd"
   xmlns="http://www.w3.org/2000/svg"
   xmlns:svg="http://www.w3.org/2000/svg"><defs
   id="defs12">
	
	
	
	
	
	
	
	
	
	
	
	
	
	
	
</defs><sodipodi:namedview
   id="namedview12"
   pagecolor="#ffffff"
   bordercolor="#666666"
   borderopacity="1.0"
   inkscape:showpageshadow="2"
   inkscape:pageopacity="0.0"
   inkscape:pagecheckerboard="0"
   inkscape:deskcolor="#d1d1d1"
   inkscape:zoom="1.3902478"
   inkscape:cx="148.17503"
   inkscape:cy="144.2189"
   inkscape:window-width="1080"
   inkscape:window-height="1849"
   inkscape:window-x="-8"
   inkscape:window-y="-8"
   inkscape:window-maximized="1"
   inkscape:current-layer="Layer_1" />
<style
   type="text/css"
   id="style1">
	.st0{fill:#312D2A;}
</style>
<path
   id="path12-5"
   style="fill:#fcfbfa;fill-opacity:1;stroke:none;stroke-opacity:1"
   class="st0"
   d="m 222.69531,6.0097656 c -11.40691,0.1710037 -22.49709,6.4052954 -28.61328,16.0292964 -1.83697,2.849193 -3.25051,5.969344 -4.19531,9.22461 -1.49469,0.730803 -2.94314,1.58551 -4.48047,2.21289 -1.10968,0.02438 -2.39604,-0.186399 -3.38867,-0.08594 -8.36638,0.164596 -16.58808,4.30579 -21.55762,11.064589 -2.57421,3.393103 -4.25248,7.409701 -5.20801,11.533067 -0.98953,0.74192 -2.1916,1.159308 -3.1799,1.917618 -8.88721,5.762045 -14.83194,15.813954 -15.54641,26.388276 -0.27448,3.155627 -0.412,6.37347 -0.70337,9.494887 -1.87836,-3.54021 -5.20083,-6.037077 -8.73754,-7.769912 -5.76477,-2.890955 -12.16408,-4.161044 -18.47999,-5.197292 -9.207696,-1.416227 -18.543705,-1.903786 -27.852728,-1.774158 -10.992516,0.2941 -22.071827,1.187836 -32.701003,4.155925 -4.966829,1.446167 -9.950176,3.54472 -13.657236,7.260463 -2.674283,2.766151 -4.25818,6.622606 -3.993403,10.490605 0.01025,25.6901 -0.0317,51.38159 0.03676,77.07081 0.313073,4.87096 3.69876,9.05786 7.819234,11.41967 6.061352,3.65638 13.114569,5.09218 20.009704,6.24518 11.267992,1.74139 22.717594,2.1834 34.100568,1.68068 9.066074,-0.43608 18.157144,-1.41557 26.955634,-3.71673 4.5339,-1.2693 9.05498,-3.01703 12.76114,-5.98734 3.09417,-2.55071 5.34946,-6.3594 5.29159,-10.45219 0.0571,-5.50413 0.007,-11.0102 0.0267,-16.51516 2.2e-4,-1.56654 4.5e-4,-3.13307 6.7e-4,-4.69961 15.48373,0.001 30.96747,-0.012 46.45118,0.0195 -2.55015,2.5052 -5.10005,5.01063 -7.6504,7.51563 6.66535,6.74675 13.33214,13.49208 19.99805,20.23828 -13.96678,-3.97271 -27.93369,-7.94495 -41.90039,-11.91797 v 92.43555 c -2.66667,1.33333 -5.33333,2.66666 -8,4 v 13.70898 h 120 v -13.68555 c -2.63375,-1.33341 -5.26689,-2.66803 -7.90039,-4.00195 v -44.0625 c -0.43802,-0.32746 -1.20921,-0.52424 -1.44994,-0.92921 3.21163,-10.27718 1.34219,-22.01213 -5.01048,-30.72286 -6.14197,-8.58519 -16.3148,-14.19296 -26.89043,-14.56111 -3.18739,-0.151 -6.39441,0.15334 -9.50071,0.88115 3.74927,-3.79435 7.49941,-7.58784 11.24805,-11.38281 -4.75542,-4.67102 -9.51016,-9.34272 -14.26563,-14.01368 -0.88999,0.90364 -1.77996,1.80728 -2.66992,2.71094 -2.272,-6.30339 -7.19837,-11.62939 -13.38867,-14.23633 6.15682,-2.64896 11.17589,-7.88454 13.38476,-14.23242 0.89264,0.90489 1.7852,1.80985 2.67774,2.71485 4.75261,-4.67254 9.50759,-9.34268 14.26172,-14.01368 -5.7498,-5.81985 -11.50143,-11.63789 -17.25196,-17.457031 16.45833,-0.01266 32.91667,-0.0086 49.375,-0.0078 2.46924,-4.672107 5.21491,-9.354604 6.10704,-14.640484 1.86898,-9.406889 -0.62664,-19.522907 -6.50398,-27.080655 -0.50441,-0.713396 -1.00881,-1.426793 -1.51321,-2.140189 3.1163,-10.202302 1.26234,-21.810739 -5.01257,-30.458745 -6.17864,-8.696263 -16.49072,-14.3553789 -27.18139,-14.6512199 -0.7065,-0.025627 -1.41359,-0.027682 -2.1205,-0.018942 z M 137.89648,95 h 55.56446 c -5.75251,5.82171 -11.5059,11.64254 -17.25782,17.46484 2.55758,2.51209 5.11457,5.02476 7.67188,7.53711 -15.4908,-0.006 -30.98318,7.4e-4 -46.47461,-0.002 -0.0173,-7.06739 0.0352,-14.13771 -0.0597,-21.203209 -0.10659,-1.305074 -0.435,-2.591363 -0.94425,-3.796791 h 1.5 z"
   sodipodi:nodetypes="scccccccccccccccccccccccccccccccccccccccccccccccccccccssccccccccc" /><g
   id="g12"
   style="fill:#2c5967;fill-opacity:1">
	<path
   class="st0"
   d="M250.3,81H203c-5.5,0-9.9-4.5-9.9-10.1h-8c0,10,8,18.1,17.9,18.1h52.3l1.1-2.1c5.1-9.5,4-20.9-2.1-29.2   c-1.4,2.5-3.1,4.9-5,7C251.9,69.6,252.4,75.6,250.3,81z"
   id="path1"
   style="fill:#2c5967;fill-opacity:1" />
	<path
   class="st0"
   d="M159.7,89h27.6c-3.1-2.2-5.8-4.9-8-8h-19.7h-3h-5.2c1.6-5.2,5.2-9.8,10.2-12.4c3.9-2,6.7-5.8,7.6-10.3   c0.9-4.4,3.9-8,7.9-9.8c2.2-1,4.7-1.3,7-1.1c1.6,0.2,3.2,0.1,4.8-0.3c-0.3-2-0.5-4-0.5-6.1c0-0.8,0-1.5,0.1-2.3   c-1.1,0.6-2.3,0.9-3.4,0.8c-3.8-0.4-7.7,0.2-11.2,1.7c-6.4,2.8-11.1,8.6-12.6,15.5c-0.4,2.2-1.7,3.9-3.5,4.8   c-8.8,4.6-14.5,13.3-15.3,23.2l-0.3,4.3h14.3H159.7z"
   id="path2"
   style="fill:#2c5967;fill-opacity:1" />
	<path
   class="st0"
   d="M194.5,41c0,16,13,29,29,29s29-13,29-29s-13-29-29-29S194.5,25,194.5,41z M244.5,41c0,11.6-9.4,21-21,21   s-21-9.4-21-21s9.4-21,21-21S244.5,29.4,244.5,41z"
   id="path3"
   style="fill:#2c5967;fill-opacity:1" />
	<polygon
   class="st0"
   points="219.6,40.6 216.2,37.2 210.5,42.9 219.6,52 235.4,36.3 229.7,30.6  "
   id="polygon3"
   style="fill:#2c5967;fill-opacity:1" />
	<path
   class="st0"
   d="M252.4,268L252.4,268L252.4,268l0-39.2c-2.2,3.2-4.9,6-8,8.3V268h-20v-24c-0.3,0-0.6,0-0.9,0   c-2.4,0-4.8-0.3-7.1-0.7V268h-13v-20h-22v20h-13v-77.6l22.3,6.4c1-2.6,2.2-5,3.7-7.3l-34.1-9.7V268l-8,4v4h8h0h0h21h22h13h8h28h0h0   h8v-4L252.4,268z M189.4,268v-12h6v12H189.4z"
   id="path4"
   style="fill:#2c5967;fill-opacity:1" />
	<path
   class="st0"
   d="M174.4,226h18.6c-1.4-2.5-2.5-5.2-3.2-8h-15.3V226z"
   id="path5"
   style="fill:#2c5967;fill-opacity:1" />
	<path
   class="st0"
   d="M174.4,212h14.3c-0.1-1-0.1-2-0.1-3c0-1.7,0.1-3.4,0.4-5h-14.5V212z"
   id="path6"
   style="fill:#2c5967;fill-opacity:1" />
	<path
   class="st0"
   d="M174.4,240h32.9c-3.9-2-7.3-4.7-10.1-8h-22.8V240z"
   id="path7"
   style="fill:#2c5967;fill-opacity:1" />
	<path
   class="st0"
   d="M238.4,248v-7.3c-2.5,1.2-5.2,2.1-8,2.6v4.7H238.4z"
   id="path8"
   style="fill:#2c5967;fill-opacity:1" />
	<rect
   x="230.4"
   y="254"
   class="st0"
   width="8"
   height="8"
   id="rect8"
   style="fill:#2c5967;fill-opacity:1" />
	<path
   class="st0"
   d="M194.5,209c0,16,13,29,29,29s29-13,29-29s-13-29-29-29S194.5,193,194.5,209z M244.5,209c0,11.6-9.4,21-21,21   s-21-9.4-21-21s9.4-21,21-21S244.5,197.4,244.5,209z"
   id="path9"
   style="fill:#2c5967;fill-opacity:1" />
	<polygon
   class="st0"
   points="219.6,208.6 216.2,205.2 210.5,210.9 219.6,220 235.4,204.3 229.7,198.6  "
   id="polygon9"
   style="fill:#2c5967;fill-opacity:1" />
	<path
   class="st0"
   d="M186.8,134c10.2,0,18.5-8.3,18.5-18.5v-4.9l7.3,7.4l5.7-5.6l-16.8-17l-16.8,17l5.7,5.6l6.9-7v4.5   c0,5.8-4.7,10.5-10.5,10.5h-49.5v8H186.8z"
   id="path10"
   style="fill:#2c5967;fill-opacity:1" />
	<path
   class="st0"
   d="M186.8,150c5.8,0,10.5,4.7,10.5,10.5v4.5l-6.9-7l-5.7,5.6l16.8,17l16.8-17l-5.7-5.6l-7.3,7.4v-4.9   c0-10.2-8.3-18.5-18.5-18.5h-49.5v8H186.8z"
   id="path11"
   style="fill:#2c5967;fill-opacity:1" />
	<path
   class="st0"
   d="M131.4,177.1v-25.4V151v-25.5V125v-25c0-14.6-42.6-15-47.5-15s-47.5,0.4-47.5,15v25v0.5V151v0.7v25.4   c0,14.1,42.6,14.5,47.5,14.5S131.4,191.2,131.4,177.1z M123.4,151.3c-2.1,2.5-16.6,6.8-39.5,6.8s-37.4-4.3-39.5-6.8v-17   c12.6,5.5,36,5.7,39.5,5.7s26.9-0.2,39.5-5.7V151.3z M83.9,115c3.5,0,26.9-0.2,39.5-5.9v16c-2.1,2.5-16.6,6.8-39.5,6.8   s-37.4-4.3-39.5-6.8v-16C57,114.8,80.4,115,83.9,115z M123.2,100c-2.6,2.7-16.8,7-39.3,7s-36.7-4.3-39.3-7c2.6-2.7,16.8-7,39.3-7   S120.6,97.3,123.2,100z M44.4,160.5c12.6,5.5,36,5.7,39.5,5.7s26.9-0.2,39.5-5.7v16.3c-2.1,2.5-16.6,6.8-39.5,6.8   s-37.4-4.3-39.5-6.8V160.5z"
   id="path12"
   style="fill:#2c5967;fill-opacity:1" />
</g>
</svg>
