<?xml version="1.0" encoding="UTF-8" standalone="no"?>
<!-- Generator: Adobe Illustrator 27.8.1, SVG Export Plug-In . SVG Version: 6.00 Build 0)  -->

<svg
   version="1.1"
   id="Layer_1"
   x="0px"
   y="0px"
   viewBox="0 0 288 288"
   style="enable-background:new 0 0 288 288;"
   xml:space="preserve"
   sodipodi:docname="OCI-Estate-Explorer.svg"
   inkscape:version="1.3.2 (091e20e, 2023-11-25, custom)"
   inkscape:export-filename="OCI-Estate-Explorer.png"
   inkscape:export-xdpi="300"
   inkscape:export-ydpi="300"
   xmlns:inkscape="http://www.inkscape.org/namespaces/inkscape"
   xmlns:sodipodi="http://sodipodi.sourceforge.net/DTD/sodipodi-0.dtd"
   xmlns="http://www.w3.org/2000/svg"
   xmlns:svg="http://www.w3.org/2000/svg"><defs
   id="defs4">
	
	
	
	
</defs><sodipodi:namedview
   id="namedview4"
   pagecolor="#ffffff"
   bordercolor="#666666"
   borderopacity="1.0"
   inkscape:showpageshadow="2"
   inkscape:pageopacity="0.0"
   inkscape:pagecheckerboard="0"
   inkscape:deskcolor="#d1d1d1"
   inkscape:zoom="2.6770833"
   inkscape:cx="144"
   inkscape:cy="144"
   inkscape:window-width="1920"
   inkscape:window-height="1009"
   inkscape:window-x="1072"
   inkscape:window-y="425"
   inkscape:window-maximized="1"
   inkscape:current-layer="Layer_1" />
<style
   type="text/css"
   id="style1">
	.st0{fill:#312D2A;}
</style>
<path
   id="path4-0"
   style="fill:#fcfbfa;stroke:none;stroke-opacity:1"
   class="st0"
   d="M 141.57227,34.416016 C 127.4648,34.77333 113.56609,40.450301 103.27088,50.108223 93.165859,59.51126 86.624986,72.620266 85.155305,86.342607 c -1.197236,10.817028 0.654441,21.971393 5.383757,31.780443 -7.370528,5.17212 -14.795925,10.26393 -22.110805,15.51433 -8.729971,6.46596 -16.933985,13.62333 -24.647609,21.26894 -4.279016,4.13222 -8.558831,8.26362 -12.837289,12.39641 11.585118,11.98515 23.174704,23.96598 34.759766,35.95118 7.187955,-6.99311 14.486696,-13.87145 21.588911,-20.9519 0.640259,-0.65946 1.277622,-1.32186 1.907183,-1.99146 0.01028,19.64893 -0.03014,39.29931 0.02958,58.94732 0.244233,4.20582 3.180358,7.76938 6.660775,9.89481 5.146766,3.2516 11.151916,4.74141 17.054456,5.93388 10.90838,2.06712 22.03404,2.73705 33.12042,2.80211 10.29298,-0.0683 20.6051,-0.7554 30.7582,-2.4923 5.91504,-1.0659 11.86442,-2.51097 17.20375,-5.34978 3.47513,-1.87336 6.7274,-4.77632 7.79782,-8.70284 0.66114,-2.68135 0.27593,-5.46135 0.375,-8.18984 V 217.375 c 8.00921,-0.55001 16.0979,-1.48154 23.70693,-4.16592 4.05076,-1.46361 8.14848,-3.70487 10.37652,-7.54235 1.19615,-2.09254 1.45085,-4.5591 1.31694,-6.92532 v -14.5793 c 5.9407,-0.63732 12.0042,-1.62318 17.35536,-4.41952 3.12577,-1.67218 5.94987,-4.4904 6.4962,-8.1254 0.3236,-2.32494 0.0592,-4.67913 0.14856,-7.01719 -0.01,-14.74933 0.0292,-29.50009 -0.0295,-44.24851 -0.21809,-4.03013 -3.18453,-7.38649 -6.63971,-9.18219 -5.14059,-2.79609 -11.01936,-3.74695 -16.75638,-4.45944 -8.9843,-0.9692 -18.08055,-0.93911 -27.05834,0.0845 -3.9269,0.47289 -7.82712,1.24066 -11.60015,2.43028 4.26604,-14.730525 2.59299,-31.165389 -4.94143,-44.567033 -6.39798,-11.581363 -16.7883,-20.935315 -29.06925,-25.902038 -7.56229,-3.088955 -15.76766,-4.571266 -23.93267,-4.339523 z"
   sodipodi:nodetypes="cccccccccccccccccccccccccccccccccsc" /><g
   id="g4">
	
	
	
	<g
   id="g5"><path
     class="st0"
     d="M225,110c-4.7,0-15.8,0.3-23.8,2.9c-2.1,6.2-5.1,12-9.1,17.1c18.2,0.1,29.4,3.2,32.7,5.3   c-3.3,2.1-14.7,5.3-33.3,5.3c-3.4,0-6.5-0.1-9.4-0.3c-4.1,3.3-8.4,6.1-13,8.2c12.1,1.7,19.4,4.6,20.9,6.5c-2.2,3-18.2,8.1-44.4,8.1   c-15.7,0-27.8-1.8-35.3-3.9l-5,6.7c11.4,3.9,28.4,5.2,40.4,5.2c13.5,0,33.5-1.6,44.5-6.8v18.3c-2.1,2.8-18.3,7.7-44.5,7.7   s-42.4-4.9-44.5-7.7v-11.4c-2.6,3.2-5.3,6.3-8,9.2v1.5v1V210v1v27.5c0,15,47.1,15.4,52.5,15.4s52.5-0.4,52.5-15.4v-24.9   c11.6-0.5,35.4-2.7,35.4-13v-20.1c10.4-0.7,24-3.1,24-10.5v-49C257.5,110.8,232.7,110,225,110z M249.5,136.4c-1.5,1-6.7,2.8-16,3.5   v-4.6c0-1.3-0.4-2.5-1.1-3.6c5.4-0.3,12-1.1,17.1-2.9V136.4z M249.5,152.7c-1.5,1-6.7,2.8-16,3.5v-8.2c5.2-0.4,11.3-1.2,16-2.8   V152.7z M145.7,245.9c-26.2,0-42.4-4.9-44.5-7.7v-18.3c13.7,6.2,40.5,6.4,44.5,6.4s30.8-0.2,44.5-6.4v18.3   C188.1,241,171.9,245.9,145.7,245.9z M190.2,191.8v18.9c-2.1,2.8-18.3,7.7-44.5,7.7s-42.4-4.9-44.5-7.7v-18.9   c13.7,6.2,40.5,6.4,44.5,6.4S176.5,198,190.2,191.8z M198.2,182.8v-1v-11.7c6.9-0.3,19.2-1.3,27.4-4.6v12.7   c-1.7,1.8-11,4.9-27.4,5.7V182.8z M247.7,120.9c-3.7,1.4-11.5,3-22.6,3s-18.9-1.6-22.6-3c3.7-1.4,11.5-2.9,22.6-2.9   S244,119.6,247.7,120.9z M225.5,143.8v12.7c-1.7,1.8-10.9,4.9-27.4,5.7V155c0-2.5-1.3-4.7-3.6-6.5   C201.8,148.3,216.4,147.5,225.5,143.8z M198.2,205.6v-13.7c7.3-0.3,19.4-1.3,27.4-4.6v12.8C223.7,201.9,214.4,204.9,198.2,205.6z    M233.5,172.5v-8.3c5.2-0.4,11.3-1.2,16-2.8v7.7C247.9,170.1,242.8,171.8,233.5,172.5z"
     id="path1"
     style="fill:#2c5967" /><path
     class="st0"
     d="M95.7,119.4l-23.2,16.2c-7.8,5.7-15,11.7-21.4,17.8l-14.5,14l29.2,30.2l14.5-14c6.4-6.1,12.6-13.1,18.6-20.8   l17.1-22.8c7.9,4.6,16.9,7.2,26.4,7.3c0.3,0,0.7,0,1,0c14.2,0,27.6-5.4,37.8-15.3c10.5-10.1,16.4-23.7,16.6-38.2   c0.3-14.6-5.2-28.3-15.3-38.8c-20.9-21.6-55.4-22.2-77.1-1.4C87.3,71.1,83.9,98.3,95.7,119.4z M92.5,157.9   c-5.7,7.3-11.7,14-17.8,19.9l-8.8,8.4l-18.1-18.7l8.8-8.4c6.1-5.9,13-11.6,20.4-17l23-16c1.2,1.6,2.6,3.2,4,4.6   c1.7,1.7,3.4,3.3,5.3,4.8L92.5,157.9z M194.5,93L194.5,93L194.5,93z M140.5,46.4V57h8V46.7c10.4,1.2,20.4,5.8,28.2,13.9   c7.5,7.8,12,17.8,12.9,28.5h-10.1v8h10c-1,11.1-5.9,21.4-14,29.3c-7.5,7.2-16.9,11.6-27,12.7v-10h-8v10.3   c-11.7-0.7-22.5-5.6-30.7-14.1c-7.7-7.9-11.9-17.9-12.8-28.1h12.5v-4v-4H97c0.9-10.9,5.6-21.5,14-29.6   C119.3,51.4,129.8,47.1,140.5,46.4z"
     id="path2"
     style="fill:#2c5967" /><path
     class="st0"
     d="M144.2,83.5c5.5,0,10,4.5,10,10c0,1.7-0.4,3.4-1.2,4.8l4.2,4.2l12.2-34.9l-34.9,12.2l5,5   C140.9,83.9,142.5,83.5,144.2,83.5z"
     id="path3"
     style="fill:#2c5967" /><path
     class="st0"
     d="M153,106.8l-4.3-4.3c-1.3,0.7-2.9,1.1-4.5,1.1c-5.5,0-10-4.5-10-10c0-1.6,0.4-3.1,1.1-4.5l-5-5L118,118.9   L153,106.8z"
     id="path4"
     style="fill:#2c5967" /></g>
</g>
</svg>
