<svg id="Layer_1" data-name="Layer 1" xmlns="http://www.w3.org/2000/svg" viewBox="0 0 42 37.4"><metadata><?xpacket begin="﻿" id="W5M0MpCehiHzreSzNTczkc9d"?>
<x:xmpmeta xmlns:x="adobe:ns:meta/" x:xmptk="Adobe XMP Core 6.0-c006 79.164648, 2021/01/12-15:52:29        ">
   <rdf:RDF xmlns:rdf="http://www.w3.org/1999/02/22-rdf-syntax-ns#">
      <rdf:Description rdf:about=""
            xmlns:dc="http://purl.org/dc/elements/1.1/"
            xmlns:xmp="http://ns.adobe.com/xap/1.0/"
            xmlns:xmpMM="http://ns.adobe.com/xap/1.0/mm/"
            xmlns:stEvt="http://ns.adobe.com/xap/1.0/sType/ResourceEvent#"
            xmlns:xmpRights="http://ns.adobe.com/xap/1.0/rights/">
         <dc:subject>
            <rdf:Bag>
               <rdf:li>icon</rdf:li>
               <rdf:li>Golden Gate</rdf:li>
               <rdf:li>database</rdf:li>
               <rdf:li>replicate</rdf:li>
               <rdf:li>filter</rdf:li>
               <rdf:li>data</rdf:li>
               <rdf:li>heterogeneous</rdf:li>
               <rdf:li>DB</rdf:li>
            </rdf:Bag>
         </dc:subject>
         <dc:rights>
            <rdf:Alt>
               <rdf:li xml:lang="x-default">Oracle All Rights Reserved</rdf:li>
            </rdf:Alt>
         </dc:rights>
         <xmp:MetadataDate>2023-02-01T15:06:16-06:00</xmp:MetadataDate>
         <xmpMM:InstanceID>xmp.iid:2a9aceed-7185-4777-aadc-06278d5b0820</xmpMM:InstanceID>
         <xmpMM:DocumentID>xmp.did:f83d68b1-af2c-43b2-8ba3-1782b014e263</xmpMM:DocumentID>
         <xmpMM:OriginalDocumentID>xmp.did:f83d68b1-af2c-43b2-8ba3-1782b014e263</xmpMM:OriginalDocumentID>
         <xmpMM:History>
            <rdf:Seq>
               <rdf:li>
                  <rdf:Description>
                     <stEvt:action>saved</stEvt:action>
                     <stEvt:instanceID>xmp.iid:f83d68b1-af2c-43b2-8ba3-1782b014e263</stEvt:instanceID>
                     <stEvt:when>2023-02-01T15:06:06-06:00</stEvt:when>
                     <stEvt:softwareAgent>Adobe Bridge 2021 (Macintosh)</stEvt:softwareAgent>
                     <stEvt:changed>/metadata</stEvt:changed>
                  </rdf:Description>
               </rdf:li>
               <rdf:li>
                  <rdf:Description>
                     <stEvt:action>saved</stEvt:action>
                     <stEvt:instanceID>xmp.iid:2a9aceed-7185-4777-aadc-06278d5b0820</stEvt:instanceID>
                     <stEvt:when>2023-02-01T15:06:16-06:00</stEvt:when>
                     <stEvt:softwareAgent>Adobe Bridge 2021 (Macintosh)</stEvt:softwareAgent>
                     <stEvt:changed>/metadata</stEvt:changed>
                  </rdf:Description>
               </rdf:li>
            </rdf:Seq>
         </xmpMM:History>
         <xmpRights:Marked>True</xmpRights:Marked>
      </rdf:Description>
   </rdf:RDF>
</x:xmpmeta>
                                                                                                    
                                                                                                    
                                                                                                    
                                                                                                    
                                                                                                    
                                                                                                    
                                                                                                    
                                                                                                    
                                                                                                    
                                                                                                    
                                                                                                    
                                                                                                    
                                         
<?xpacket end="w"?></metadata>
<path d="M41,34.23a3.12,3.12,0,0,1-2-.73c-.28-.21-.36-.27-.64-.27s-.35.06-.63.27a3.2,3.2,0,0,1-4.07,0c-.28-.21-.35-.27-.63-.27s-.35.06-.63.27a3.2,3.2,0,0,1-4.07,0c-.28-.21-.36-.27-.63-.27s-.36.06-.64.27a3.19,3.19,0,0,1-4.06,0c-.28-.21-.36-.27-.64-.27s-.35.06-.63.27a3.2,3.2,0,0,1-4.07,0c-.28-.21-.35-.27-.63-.27s-.35.06-.63.27a3.2,3.2,0,0,1-4.07,0c-.28-.21-.36-.27-.63-.27s-.36.06-.64.27A3.19,3.19,0,0,1,7,33.5c-.28-.21-.36-.27-.64-.27s-.35.06-.63.27a3.12,3.12,0,0,1-2,.73,3.13,3.13,0,0,1-2-.73c-.28-.21-.35-.27-.63-.27H.5V30.9H1a3.12,3.12,0,0,1,2,.73c.28.21.36.27.64.27s.35-.06.63-.27a3.2,3.2,0,0,1,4.07,0c.28.21.35.27.63.27s.35-.06.63-.27l.37-.26V29.23H.5V26.9h41v2.33H32.17V31a3.2,3.2,0,0,1,.83-.1,3.12,3.12,0,0,1,2,.73c.28.21.36.27.64.27s.35-.06.63-.27a3.2,3.2,0,0,1,4.07,0c.28.21.35.27.63.27h.5v2.33Z" fill="#fff"/><path d="M41,27.4v1.33H31.67v3A2.45,2.45,0,0,1,33,31.4a2.59,2.59,0,0,1,1.73.63,1.33,1.33,0,0,0,.94.37A1.31,1.31,0,0,0,36.6,32a2.61,2.61,0,0,1,1.73-.63,2.64,2.64,0,0,1,1.74.63,1.31,1.31,0,0,0,.93.37v1.33a2.64,2.64,0,0,1-1.73-.63,1.33,1.33,0,0,0-.94-.37,1.31,1.31,0,0,0-.93.37,2.67,2.67,0,0,1-1.73.63,2.7,2.7,0,0,1-1.74-.63,1.35,1.35,0,0,0-1.86,0,2.7,2.7,0,0,1-1.74.63,2.67,2.67,0,0,1-1.73-.63,1.31,1.31,0,0,0-.93-.37,1.33,1.33,0,0,0-.94.37,2.69,2.69,0,0,1-3.46,0,1.33,1.33,0,0,0-.94-.37,1.31,1.31,0,0,0-.93.37,2.67,2.67,0,0,1-1.73.63,2.7,2.7,0,0,1-1.74-.63,1.35,1.35,0,0,0-1.86,0,2.7,2.7,0,0,1-1.74.63,2.67,2.67,0,0,1-1.73-.63,1.31,1.31,0,0,0-.93-.37,1.33,1.33,0,0,0-.94.37,2.69,2.69,0,0,1-3.46,0,1.33,1.33,0,0,0-.94-.37,1.31,1.31,0,0,0-.93.37,2.67,2.67,0,0,1-1.73.63,2.7,2.7,0,0,1-1.74-.63A1.31,1.31,0,0,0,1,32.73V31.4A2.59,2.59,0,0,1,2.73,32a1.33,1.33,0,0,0,.94.37A1.31,1.31,0,0,0,4.6,32a2.61,2.61,0,0,1,1.73-.63A2.64,2.64,0,0,1,8.07,32a1.35,1.35,0,0,0,1.86,0,4,4,0,0,1,.57-.37V28.73H1V27.4H41m1-1H0v3.33H9.5v1.38l-.17.12c-.22.17-.22.17-.33.17s-.11,0-.33-.17a3.7,3.7,0,0,0-4.67,0c-.22.17-.22.17-.33.17s-.11,0-.34-.17A3.59,3.59,0,0,0,1,30.4H0v3.33H1c.11,0,.11,0,.33.17a3.62,3.62,0,0,0,2.34.83A3.61,3.61,0,0,0,6,33.9c.22-.17.22-.17.33-.17s.11,0,.34.17a3.69,3.69,0,0,0,4.66,0c.23-.17.23-.17.34-.17s.11,0,.33.17a3.7,3.7,0,0,0,4.67,0c.22-.17.22-.17.33-.17s.11,0,.33.17a3.7,3.7,0,0,0,4.67,0c.22-.17.22-.17.33-.17s.11,0,.34.17a3.69,3.69,0,0,0,4.66,0c.23-.17.23-.17.34-.17s.11,0,.33.17a3.7,3.7,0,0,0,4.67,0c.22-.17.22-.17.33-.17s.11,0,.33.17a3.7,3.7,0,0,0,4.67,0c.22-.17.22-.17.33-.17s.11,0,.34.17a3.59,3.59,0,0,0,2.33.83h1V31.4H41c-.11,0-.11,0-.33-.17a3.7,3.7,0,0,0-4.67,0c-.22.17-.22.17-.33.17s-.11,0-.34-.17A3.59,3.59,0,0,0,33,30.4h-.33v-.68H42V26.4Z" fill="#fff"/><path d="M.5,26.56V24.23H1.83C8,24.23,10,17.29,10,14.9V13.73h2.33V14.9A10.91,10.91,0,0,0,14,20.49a8,8,0,0,0,7.15,3.57,7.76,7.76,0,0,0,7-3.73,11.38,11.38,0,0,0,1.61-5.43V13.73h2.34V14.9c0,2.39,2,9.33,8.16,9.33H41.5v2.33Z" fill="#fff"/><path d="M31.67,14.23v.67c0,2.52,2.13,9.83,8.66,9.83H41v1.33H1V24.73h.83c6.54,0,8.67-7.31,8.67-9.83v-.67h1.33v.67a11.52,11.52,0,0,0,1.77,5.86,8.47,8.47,0,0,0,7.57,3.8,8.21,8.21,0,0,0,7.47-4,11.8,11.8,0,0,0,1.69-5.69v-.67h1.34m1-1H29.33V14.9a10.9,10.9,0,0,1-1.54,5.16,7.18,7.18,0,0,1-6.62,3.5c-3.06,0-5.26-1.09-6.73-3.35a10.34,10.34,0,0,1-1.61-5.31V13.23H9.5V14.9a11.38,11.38,0,0,1-1.73,5.33,6.76,6.76,0,0,1-5.94,3.5H0v3.33H42V23.73H40.33a6.76,6.76,0,0,1-5.93-3.5,11.38,11.38,0,0,1-1.73-5.33V13.23Z" fill="#fff"/><path d="M41,36.9a3.07,3.07,0,0,1-2-.74.91.91,0,0,0-1.27,0,3.17,3.17,0,0,1-4.07,0c-.28-.21-.35-.26-.63-.26s-.35.05-.63.26a3.17,3.17,0,0,1-4.07,0,.91.91,0,0,0-1.27,0,3.15,3.15,0,0,1-4.06,0,.91.91,0,0,0-1.27,0,3.17,3.17,0,0,1-4.07,0c-.28-.21-.35-.26-.63-.26s-.35.05-.63.26a3.17,3.17,0,0,1-4.07,0,.91.91,0,0,0-1.27,0,3.15,3.15,0,0,1-4.06,0,.91.91,0,0,0-1.27,0,3.07,3.07,0,0,1-2,.74,3.07,3.07,0,0,1-2-.74C1.35,36,1.28,35.9,1,35.9H.5V33.56H1a3.07,3.07,0,0,1,2,.74.85.85,0,0,0,.64.26.84.84,0,0,0,.63-.26,3.07,3.07,0,0,1,2-.74,3.07,3.07,0,0,1,2,.74c.28.21.35.26.63.26s.35-.05.63-.26a3.17,3.17,0,0,1,4.07,0c.28.21.35.26.63.26A.85.85,0,0,0,15,34.3a3.15,3.15,0,0,1,4.06,0,.91.91,0,0,0,1.27,0,3.17,3.17,0,0,1,4.07,0c.28.21.35.26.63.26s.35-.05.63-.26a3.17,3.17,0,0,1,4.07,0c.28.21.35.26.63.26A.85.85,0,0,0,31,34.3a3.15,3.15,0,0,1,4.06,0,.91.91,0,0,0,1.27,0,3.17,3.17,0,0,1,4.07,0c.28.21.35.26.63.26h.5V36.9Z" fill="#fff"/><path d="M38.33,34.06a2.64,2.64,0,0,1,1.74.64,1.3,1.3,0,0,0,.93.36V36.4a2.59,2.59,0,0,1-1.73-.64,1.37,1.37,0,0,0-.94-.36,1.34,1.34,0,0,0-.93.36,2.61,2.61,0,0,1-1.73.64,2.64,2.64,0,0,1-1.74-.64,1.38,1.38,0,0,0-1.86,0,2.64,2.64,0,0,1-1.74.64,2.61,2.61,0,0,1-1.73-.64,1.34,1.34,0,0,0-.93-.36,1.37,1.37,0,0,0-.94.36,2.66,2.66,0,0,1-3.46,0,1.37,1.37,0,0,0-.94-.36,1.34,1.34,0,0,0-.93.36,2.61,2.61,0,0,1-1.73.64,2.64,2.64,0,0,1-1.74-.64,1.38,1.38,0,0,0-1.86,0,2.64,2.64,0,0,1-1.74.64,2.61,2.61,0,0,1-1.73-.64,1.34,1.34,0,0,0-.93-.36,1.37,1.37,0,0,0-.94.36,2.66,2.66,0,0,1-3.46,0,1.37,1.37,0,0,0-.94-.36,1.34,1.34,0,0,0-.93.36,2.61,2.61,0,0,1-1.73.64,2.64,2.64,0,0,1-1.74-.64A1.34,1.34,0,0,0,1,35.4V34.06a2.59,2.59,0,0,1,1.73.64,1.32,1.32,0,0,0,.94.36,1.3,1.3,0,0,0,.93-.36,2.61,2.61,0,0,1,1.73-.64,2.64,2.64,0,0,1,1.74.64,1.38,1.38,0,0,0,1.86,0,2.64,2.64,0,0,1,1.74-.64,2.61,2.61,0,0,1,1.73.64,1.3,1.3,0,0,0,.93.36,1.32,1.32,0,0,0,.94-.36,2.66,2.66,0,0,1,3.46,0,1.32,1.32,0,0,0,.94.36,1.3,1.3,0,0,0,.93-.36,2.61,2.61,0,0,1,1.73-.64,2.64,2.64,0,0,1,1.74.64,1.38,1.38,0,0,0,1.86,0,2.64,2.64,0,0,1,1.74-.64,2.61,2.61,0,0,1,1.73.64,1.3,1.3,0,0,0,.93.36,1.32,1.32,0,0,0,.94-.36,2.66,2.66,0,0,1,3.46,0,1.32,1.32,0,0,0,.94.36,1.3,1.3,0,0,0,.93-.36,2.61,2.61,0,0,1,1.73-.64m0-1A3.61,3.61,0,0,0,36,33.9c-.22.16-.22.16-.33.16s-.11,0-.34-.16a3.65,3.65,0,0,0-4.66,0c-.23.16-.23.16-.34.16s-.11,0-.33-.16a3.67,3.67,0,0,0-4.67,0c-.22.16-.22.16-.33.16s-.11,0-.33-.16a3.67,3.67,0,0,0-4.67,0c-.22.16-.22.16-.33.16s-.11,0-.34-.16a3.65,3.65,0,0,0-4.66,0c-.23.16-.23.16-.34.16s-.11,0-.33-.16a3.67,3.67,0,0,0-4.67,0c-.22.16-.22.16-.33.16s-.11,0-.33-.16A3.67,3.67,0,0,0,4,33.9c-.22.16-.22.16-.33.16s-.11,0-.34-.16A3.58,3.58,0,0,0,1,33.06H0V36.4H1c.11,0,.11,0,.33.16a3.56,3.56,0,0,0,2.34.84A3.55,3.55,0,0,0,6,36.56c.22-.16.22-.16.33-.16s.11,0,.34.16a3.65,3.65,0,0,0,4.66,0c.23-.16.23-.16.34-.16s.11,0,.33.16a3.67,3.67,0,0,0,4.67,0c.22-.16.22-.16.33-.16s.11,0,.33.16a3.67,3.67,0,0,0,4.67,0c.22-.16.22-.16.33-.16s.11,0,.34.16a3.65,3.65,0,0,0,4.66,0c.23-.16.23-.16.34-.16s.11,0,.33.16a3.67,3.67,0,0,0,4.67,0c.22-.16.22-.16.33-.16s.11,0,.33.16a3.67,3.67,0,0,0,4.67,0c.22-.16.22-.16.33-.16s.11,0,.34.16A3.53,3.53,0,0,0,41,37.4h1V34.06H41c-.11,0-.11,0-.33-.16a3.61,3.61,0,0,0-2.34-.84Z" fill="#fff"/><path d="M14.58,17.89V9.22H13.25V4.56h1.3a3,3,0,0,1-.12-.84A3.28,3.28,0,0,1,15,1.87,3.16,3.16,0,0,1,17.64.5a3.2,3.2,0,0,1,3,2.06l.46,1.19.45-1.2a3.23,3.23,0,0,1,3-2,3.16,3.16,0,0,1,2.63,1.37,3.28,3.28,0,0,1,.59,1.85,3,3,0,0,1-.12.84h1.27V9.22H27.58v8.67Z" fill="#fff"/><path d="M24.56,1a2.66,2.66,0,0,1,2.21,1.15,2.81,2.81,0,0,1,.5,1.57,2.6,2.6,0,0,1-.37,1.34h1.52V8.72H27.08v8.67h-12V8.72H13.75V5.06H15.3a2.6,2.6,0,0,1-.37-1.34,2.81,2.81,0,0,1,.5-1.57A2.64,2.64,0,0,1,17.64,1h0a2.72,2.72,0,0,1,2.53,1.73l.88,2.33h.08L22,2.73A2.72,2.72,0,0,1,24.55,1h0m0-1h0A3.7,3.7,0,0,0,21.1,2.34,3.71,3.71,0,0,0,17.65,0a3.66,3.66,0,0,0-3,1.58,3.77,3.77,0,0,0-.68,2.14c0,.11,0,.22,0,.34h-1.2V9.72h1.33v8.67h14V9.72h1.34V4.06H28.25c0-.12,0-.23,0-.34a3.77,3.77,0,0,0-.68-2.14,3.65,3.65,0,0,0-3-1.58Z" fill="#fff"/><path d="M1,28.73h9.5v2.93a4,4,0,0,0-.57.37,1.35,1.35,0,0,1-1.86,0,2.64,2.64,0,0,0-1.74-.63A2.61,2.61,0,0,0,4.6,32a1.31,1.31,0,0,1-.93.37A1.33,1.33,0,0,1,2.73,32,2.59,2.59,0,0,0,1,31.4v1.33a1.31,1.31,0,0,1,.93.37,2.7,2.7,0,0,0,1.74.63A2.67,2.67,0,0,0,5.4,33.1a1.31,1.31,0,0,1,.93-.37,1.33,1.33,0,0,1,.94.37,2.69,2.69,0,0,0,3.46,0,1.33,1.33,0,0,1,.94-.37,1.31,1.31,0,0,1,.93.37,2.67,2.67,0,0,0,1.73.63,2.7,2.7,0,0,0,1.74-.63,1.35,1.35,0,0,1,1.86,0,2.7,2.7,0,0,0,1.74.63,2.67,2.67,0,0,0,1.73-.63,1.31,1.31,0,0,1,.93-.37,1.33,1.33,0,0,1,.94.37,2.69,2.69,0,0,0,3.46,0,1.33,1.33,0,0,1,.94-.37,1.31,1.31,0,0,1,.93.37,2.67,2.67,0,0,0,1.73.63,2.7,2.7,0,0,0,1.74-.63,1.35,1.35,0,0,1,1.86,0,2.7,2.7,0,0,0,1.74.63,2.67,2.67,0,0,0,1.73-.63,1.31,1.31,0,0,1,.93-.37,1.33,1.33,0,0,1,.94.37,2.64,2.64,0,0,0,1.73.63V32.4a1.31,1.31,0,0,1-.93-.37,2.64,2.64,0,0,0-1.74-.63A2.61,2.61,0,0,0,36.6,32a1.31,1.31,0,0,1-.93.37,1.33,1.33,0,0,1-.94-.37A2.59,2.59,0,0,0,33,31.4a2.45,2.45,0,0,0-1.33.36v-3H41V27.4H1Zm10.83,0h18.5V32.4A1.31,1.31,0,0,1,29.4,32a2.61,2.61,0,0,0-1.73-.63,2.64,2.64,0,0,0-1.74.63,1.35,1.35,0,0,1-1.86,0,2.64,2.64,0,0,0-1.74-.63A2.61,2.61,0,0,0,20.6,32a1.31,1.31,0,0,1-.93.37,1.33,1.33,0,0,1-.94-.37,2.69,2.69,0,0,0-3.46,0,1.33,1.33,0,0,1-.94.37A1.31,1.31,0,0,1,13.4,32a2.64,2.64,0,0,0-1.57-.62Z" fill="#2c5967"/><path d="M40.5,24.73h-.17c-6.53,0-8.66-7.31-8.66-9.83v-.67H30.33v.67a11.8,11.8,0,0,1-1.69,5.69,8.21,8.21,0,0,1-7.47,4,8.47,8.47,0,0,1-7.57-3.8,11.52,11.52,0,0,1-1.77-5.86v-.67H10.5v.67c0,2.52-2.13,9.83-8.67,9.83H1v1.33H41V24.73Zm-30,0H6.58a10.34,10.34,0,0,0,3.11-3.16,15.11,15.11,0,0,0,.81-1.47Zm1.33,0V20.35a12.86,12.86,0,0,0,.65,1.14A9.55,9.55,0,0,0,16,24.73Zm18.5,0H26.17a9.62,9.62,0,0,0,3.61-3.44c.2-.34.39-.68.55-1Zm1.34,0V20.1a11.79,11.79,0,0,0,.81,1.47,10.3,10.3,0,0,0,3.1,3.16Z" fill="#2c5967"/><path d="M38.33,34.06a2.61,2.61,0,0,0-1.73.64,1.3,1.3,0,0,1-.93.36,1.32,1.32,0,0,1-.94-.36,2.66,2.66,0,0,0-3.46,0,1.32,1.32,0,0,1-.94.36,1.3,1.3,0,0,1-.93-.36,2.61,2.61,0,0,0-1.73-.64,2.64,2.64,0,0,0-1.74.64,1.38,1.38,0,0,1-1.86,0,2.64,2.64,0,0,0-1.74-.64,2.61,2.61,0,0,0-1.73.64,1.3,1.3,0,0,1-.93.36,1.32,1.32,0,0,1-.94-.36,2.66,2.66,0,0,0-3.46,0,1.32,1.32,0,0,1-.94.36,1.3,1.3,0,0,1-.93-.36,2.61,2.61,0,0,0-1.73-.64,2.64,2.64,0,0,0-1.74.64,1.38,1.38,0,0,1-1.86,0,2.64,2.64,0,0,0-1.74-.64,2.61,2.61,0,0,0-1.73.64,1.3,1.3,0,0,1-.93.36,1.32,1.32,0,0,1-.94-.36A2.59,2.59,0,0,0,1,34.06V35.4a1.34,1.34,0,0,1,.93.36,2.64,2.64,0,0,0,1.74.64,2.61,2.61,0,0,0,1.73-.64,1.34,1.34,0,0,1,.93-.36,1.37,1.37,0,0,1,.94.36,2.66,2.66,0,0,0,3.46,0,1.37,1.37,0,0,1,.94-.36,1.34,1.34,0,0,1,.93.36,2.61,2.61,0,0,0,1.73.64,2.64,2.64,0,0,0,1.74-.64,1.38,1.38,0,0,1,1.86,0,2.64,2.64,0,0,0,1.74.64,2.61,2.61,0,0,0,1.73-.64,1.34,1.34,0,0,1,.93-.36,1.37,1.37,0,0,1,.94.36,2.66,2.66,0,0,0,3.46,0,1.37,1.37,0,0,1,.94-.36,1.34,1.34,0,0,1,.93.36,2.61,2.61,0,0,0,1.73.64,2.64,2.64,0,0,0,1.74-.64,1.38,1.38,0,0,1,1.86,0,2.64,2.64,0,0,0,1.74.64,2.61,2.61,0,0,0,1.73-.64,1.34,1.34,0,0,1,.93-.36,1.37,1.37,0,0,1,.94.36A2.59,2.59,0,0,0,41,36.4V35.06a1.3,1.3,0,0,1-.93-.36A2.64,2.64,0,0,0,38.33,34.06Z" fill="#2c5967"/><path d="M15.08,17.39h12V8.72h1.34V5.06H26.9a2.6,2.6,0,0,0,.37-1.34,2.81,2.81,0,0,0-.5-1.57A2.66,2.66,0,0,0,24.56,1h0A2.72,2.72,0,0,0,22,2.73l-.88,2.33h-.08l-.88-2.33A2.72,2.72,0,0,0,17.65,1h0a2.64,2.64,0,0,0-2.21,1.15,2.81,2.81,0,0,0-.5,1.57,2.6,2.6,0,0,0,.37,1.34H13.75V8.72h1.33Zm4.17-1.33H16.42V8.72h2.83Zm2.33,0h-1V8.72h1Zm4.17,0H22.92V8.72h2.83ZM23.27,3.2a1.36,1.36,0,0,1,1.28-.87h0a1.38,1.38,0,0,1,1.12.58,1.44,1.44,0,0,1,.26.81,1.3,1.3,0,0,1-.38.93,1.4,1.4,0,0,1-1,.4h-2Zm-6.74-.29a1.37,1.37,0,0,1,2.4.29l.7,1.85h-2a1.36,1.36,0,0,1-1-.4,1.3,1.3,0,0,1-.38-.93A1.44,1.44,0,0,1,16.53,2.91ZM15.08,6.39h12v1h-12Z" fill="#2c5967"/><path d="M1,28.73h9.5v2.93a4,4,0,0,0-.57.37,1.35,1.35,0,0,1-1.86,0,2.64,2.64,0,0,0-1.74-.63A2.61,2.61,0,0,0,4.6,32a1.31,1.31,0,0,1-.93.37A1.33,1.33,0,0,1,2.73,32,2.59,2.59,0,0,0,1,31.4v1.33a1.31,1.31,0,0,1,.93.37,2.7,2.7,0,0,0,1.74.63A2.67,2.67,0,0,0,5.4,33.1a1.31,1.31,0,0,1,.93-.37,1.33,1.33,0,0,1,.94.37,2.69,2.69,0,0,0,3.46,0,1.33,1.33,0,0,1,.94-.37,1.31,1.31,0,0,1,.93.37,2.67,2.67,0,0,0,1.73.63,2.7,2.7,0,0,0,1.74-.63,1.35,1.35,0,0,1,1.86,0,2.7,2.7,0,0,0,1.74.63,2.67,2.67,0,0,0,1.73-.63,1.31,1.31,0,0,1,.93-.37,1.33,1.33,0,0,1,.94.37,2.69,2.69,0,0,0,3.46,0,1.33,1.33,0,0,1,.94-.37,1.31,1.31,0,0,1,.93.37,2.67,2.67,0,0,0,1.73.63,2.7,2.7,0,0,0,1.74-.63,1.35,1.35,0,0,1,1.86,0,2.7,2.7,0,0,0,1.74.63,2.67,2.67,0,0,0,1.73-.63,1.31,1.31,0,0,1,.93-.37,1.33,1.33,0,0,1,.94.37,2.64,2.64,0,0,0,1.73.63V32.4a1.31,1.31,0,0,1-.93-.37,2.64,2.64,0,0,0-1.74-.63A2.61,2.61,0,0,0,36.6,32a1.31,1.31,0,0,1-.93.37,1.33,1.33,0,0,1-.94-.37A2.59,2.59,0,0,0,33,31.4a2.45,2.45,0,0,0-1.33.36v-3H41V27.4H1Zm10.83,0h18.5V32.4A1.31,1.31,0,0,1,29.4,32a2.61,2.61,0,0,0-1.73-.63,2.64,2.64,0,0,0-1.74.63,1.35,1.35,0,0,1-1.86,0,2.64,2.64,0,0,0-1.74-.63A2.61,2.61,0,0,0,20.6,32a1.31,1.31,0,0,1-.93.37,1.33,1.33,0,0,1-.94-.37,2.69,2.69,0,0,0-3.46,0,1.33,1.33,0,0,1-.94.37A1.31,1.31,0,0,1,13.4,32a2.64,2.64,0,0,0-1.57-.62Z" fill="#2c5967"/><path d="M40.5,24.73h-.17c-6.53,0-8.66-7.31-8.66-9.83v-.67H30.33v.67a11.8,11.8,0,0,1-1.69,5.69,8.21,8.21,0,0,1-7.47,4,8.47,8.47,0,0,1-7.57-3.8,11.52,11.52,0,0,1-1.77-5.86v-.67H10.5v.67c0,2.52-2.13,9.83-8.67,9.83H1v1.33H41V24.73Zm-30,0H6.58a10.34,10.34,0,0,0,3.11-3.16,15.11,15.11,0,0,0,.81-1.47Zm1.33,0V20.35a12.86,12.86,0,0,0,.65,1.14A9.55,9.55,0,0,0,16,24.73Zm18.5,0H26.17a9.62,9.62,0,0,0,3.61-3.44c.2-.34.39-.68.55-1Zm1.34,0V20.1a11.79,11.79,0,0,0,.81,1.47,10.3,10.3,0,0,0,3.1,3.16Z" fill="#2c5967"/><path d="M38.33,34.06a2.61,2.61,0,0,0-1.73.64,1.3,1.3,0,0,1-.93.36,1.32,1.32,0,0,1-.94-.36,2.66,2.66,0,0,0-3.46,0,1.32,1.32,0,0,1-.94.36,1.3,1.3,0,0,1-.93-.36,2.61,2.61,0,0,0-1.73-.64,2.64,2.64,0,0,0-1.74.64,1.38,1.38,0,0,1-1.86,0,2.64,2.64,0,0,0-1.74-.64,2.61,2.61,0,0,0-1.73.64,1.3,1.3,0,0,1-.93.36,1.32,1.32,0,0,1-.94-.36,2.66,2.66,0,0,0-3.46,0,1.32,1.32,0,0,1-.94.36,1.3,1.3,0,0,1-.93-.36,2.61,2.61,0,0,0-1.73-.64,2.64,2.64,0,0,0-1.74.64,1.38,1.38,0,0,1-1.86,0,2.64,2.64,0,0,0-1.74-.64,2.61,2.61,0,0,0-1.73.64,1.3,1.3,0,0,1-.93.36,1.32,1.32,0,0,1-.94-.36A2.59,2.59,0,0,0,1,34.06V35.4a1.34,1.34,0,0,1,.93.36,2.64,2.64,0,0,0,1.74.64,2.61,2.61,0,0,0,1.73-.64,1.34,1.34,0,0,1,.93-.36,1.37,1.37,0,0,1,.94.36,2.66,2.66,0,0,0,3.46,0,1.37,1.37,0,0,1,.94-.36,1.34,1.34,0,0,1,.93.36,2.61,2.61,0,0,0,1.73.64,2.64,2.64,0,0,0,1.74-.64,1.38,1.38,0,0,1,1.86,0,2.64,2.64,0,0,0,1.74.64,2.61,2.61,0,0,0,1.73-.64,1.34,1.34,0,0,1,.93-.36,1.37,1.37,0,0,1,.94.36,2.66,2.66,0,0,0,3.46,0,1.37,1.37,0,0,1,.94-.36,1.34,1.34,0,0,1,.93.36,2.61,2.61,0,0,0,1.73.64,2.64,2.64,0,0,0,1.74-.64,1.38,1.38,0,0,1,1.86,0,2.64,2.64,0,0,0,1.74.64,2.61,2.61,0,0,0,1.73-.64,1.34,1.34,0,0,1,.93-.36,1.37,1.37,0,0,1,.94.36A2.59,2.59,0,0,0,41,36.4V35.06a1.3,1.3,0,0,1-.93-.36A2.64,2.64,0,0,0,38.33,34.06Z" fill="#2c5967"/><path d="M15.08,17.39h12V8.72h1.34V5.06H26.9a2.6,2.6,0,0,0,.37-1.34,2.81,2.81,0,0,0-.5-1.57A2.66,2.66,0,0,0,24.56,1h0A2.72,2.72,0,0,0,22,2.73l-.88,2.33h-.08l-.88-2.33A2.72,2.72,0,0,0,17.65,1h0a2.64,2.64,0,0,0-2.21,1.15,2.81,2.81,0,0,0-.5,1.57,2.6,2.6,0,0,0,.37,1.34H13.75V8.72h1.33Zm4.17-1.33H16.42V8.72h2.83Zm2.33,0h-1V8.72h1Zm4.17,0H22.92V8.72h2.83ZM23.27,3.2a1.36,1.36,0,0,1,1.28-.87h0a1.38,1.38,0,0,1,1.12.58,1.44,1.44,0,0,1,.26.81,1.3,1.3,0,0,1-.38.93,1.4,1.4,0,0,1-1,.4h-2Zm-6.74-.29a1.37,1.37,0,0,1,2.4.29l.7,1.85h-2a1.36,1.36,0,0,1-1-.4,1.3,1.3,0,0,1-.38-.93A1.44,1.44,0,0,1,16.53,2.91ZM15.08,6.39h12v1h-12Z" fill="#2c5967"/></svg>