<svg id="Layer_1" data-name="Layer 1" xmlns="http://www.w3.org/2000/svg" viewBox="0 0 41.29 41.84"><metadata><?xpacket begin="﻿" id="W5M0MpCehiHzreSzNTczkc9d"?>
<x:xmpmeta xmlns:x="adobe:ns:meta/" x:xmptk="Adobe XMP Core 6.0-c006 79.164648, 2021/01/12-15:52:29        ">
   <rdf:RDF xmlns:rdf="http://www.w3.org/1999/02/22-rdf-syntax-ns#">
      <rdf:Description rdf:about=""
            xmlns:dc="http://purl.org/dc/elements/1.1/"
            xmlns:xmp="http://ns.adobe.com/xap/1.0/"
            xmlns:xmpMM="http://ns.adobe.com/xap/1.0/mm/"
            xmlns:stEvt="http://ns.adobe.com/xap/1.0/sType/ResourceEvent#"
            xmlns:xmpRights="http://ns.adobe.com/xap/1.0/rights/"
            xmlns:lr="http://ns.adobe.com/lightroom/1.0/">
         <dc:subject>
            <rdf:Bag>
               <rdf:li>SQL</rdf:li>
               <rdf:li>cache</rdf:li>
               <rdf:li>icon</rdf:li>
            </rdf:Bag>
         </dc:subject>
         <dc:rights>
            <rdf:Alt>
               <rdf:li xml:lang="x-default">Oracle All Rights</rdf:li>
            </rdf:Alt>
         </dc:rights>
         <xmp:MetadataDate>2023-08-02T14:36:32-06:00</xmp:MetadataDate>
         <xmpMM:InstanceID>xmp.iid:63a394ca-51f7-4336-a19e-ad2c584242bb</xmpMM:InstanceID>
         <xmpMM:DocumentID>xmp.did:089e6c7e-7bd1-48d2-88e9-fcba0049ab31</xmpMM:DocumentID>
         <xmpMM:OriginalDocumentID>xmp.did:089e6c7e-7bd1-48d2-88e9-fcba0049ab31</xmpMM:OriginalDocumentID>
         <xmpMM:History>
            <rdf:Seq>
               <rdf:li>
                  <rdf:Description>
                     <stEvt:action>saved</stEvt:action>
                     <stEvt:instanceID>xmp.iid:089e6c7e-7bd1-48d2-88e9-fcba0049ab31</stEvt:instanceID>
                     <stEvt:when>2023-08-02T14:27:41-06:00</stEvt:when>
                     <stEvt:softwareAgent>Adobe Bridge 2021 (Macintosh)</stEvt:softwareAgent>
                     <stEvt:changed>/metadata</stEvt:changed>
                  </rdf:Description>
               </rdf:li>
               <rdf:li>
                  <rdf:Description>
                     <stEvt:action>saved</stEvt:action>
                     <stEvt:instanceID>xmp.iid:63a394ca-51f7-4336-a19e-ad2c584242bb</stEvt:instanceID>
                     <stEvt:when>2023-08-02T14:36:32-06:00</stEvt:when>
                     <stEvt:softwareAgent>Adobe Bridge 2021 (Macintosh)</stEvt:softwareAgent>
                     <stEvt:changed>/metadata</stEvt:changed>
                  </rdf:Description>
               </rdf:li>
            </rdf:Seq>
         </xmpMM:History>
         <xmpRights:Marked>True</xmpRights:Marked>
         <lr:hierarchicalSubject>
            <rdf:Bag>
               <rdf:li>Other Keywords|icon</rdf:li>
            </rdf:Bag>
         </lr:hierarchicalSubject>
      </rdf:Description>
   </rdf:RDF>
</x:xmpmeta>
                                                                                                    
                                                                                                    
                                                                                                    
                                                                                                    
                                                                                                    
                                                                                                    
                                                                                                    
                                                                                                    
                                                                                                    
                                                                                            
<?xpacket end="w"?></metadata>
<path d="M10.18,41.34A6.14,6.14,0,0,1,4,35.21V33.12a17.21,17.21,0,0,1-3.9-.72l.22-1a16.13,16.13,0,0,0,2.56.2c.38,0,.75,0,1.12,0V13.83A13.35,13.35,0,0,1,17.37.5h2a6.43,6.43,0,0,1,2.69.59A5.92,5.92,0,0,1,24.67.5h4.5A7.52,7.52,0,0,1,36.69,8V18.63c2.72.6,4.1,1.59,4.1,2.94V37.76c0,3.31-8.08,3.56-10.56,3.56s-10.55-.25-10.55-3.47v-.94h-.17a5.08,5.08,0,0,1-5.05,4.43Z" fill="#fff"/><path d="M29.17,1a7,7,0,0,1,7,7V19c2.27.45,4.1,1.24,4.1,2.54a.43.43,0,0,1,0,.05s0,0,0,.05V37.85c0,2.89-9,3-10.06,3s-10-.08-10-3V36.41H19.05a4.6,4.6,0,0,1-4.59,4.43H10.18a5.64,5.64,0,0,1-5.64-5.63V32.64H4.25a16.86,16.86,0,0,1-4-.7,17.81,17.81,0,0,0,2.63.2c.44,0,.88,0,1.31-.05l.31,0V13.83A12.84,12.84,0,0,1,17.37,1h2a6,6,0,0,1,2.5.55l.2.1A5.37,5.37,0,0,1,24.67,1h4.5m0-1h-4.5a6.57,6.57,0,0,0-2.59.54A7.1,7.1,0,0,0,19.39,0h-2A13.84,13.84,0,0,0,3.54,13.83V31.12H2.92a16.31,16.31,0,0,1-2.48-.19L0,32.88a18.2,18.2,0,0,0,3.54.71v1.62a6.64,6.64,0,0,0,6.64,6.63h4.28a5.55,5.55,0,0,0,4.95-3c.69,1.39,3.16,3,10.82,3,9.62,0,11.06-2.49,11.06-4V21.62h0v0c0-1.54-1.38-2.66-4.1-3.34V8a8,8,0,0,0-8-8Z" fill="#fff"/><path d="M6,13.83A11.36,11.36,0,0,1,17.37,2.49h2a4.47,4.47,0,0,1,1.87.41l.93.43.34-.22a4,4,0,0,1,2.14-.62h4.5A5.54,5.54,0,0,1,34.7,8v9.55c.49.06,1,.14,1.49.23V8a7,7,0,0,0-7-7h-4.5a5.37,5.37,0,0,0-2.58.65l-.2-.1A6,6,0,0,0,19.39,1h-2A12.84,12.84,0,0,0,4.54,13.83V31A11.41,11.41,0,0,0,6,30.46Z" fill="#2c5967"/><path d="M16.2,31H14.7a2.73,2.73,0,0,0-1.61.54,4.62,4.62,0,0,1-.58.59A2.66,2.66,0,0,0,12,33.69v1.38h1.49V33.69a1.23,1.23,0,0,1,1.22-1.23h1.5a1.37,1.37,0,0,1,1.37,1.38v2.4a3.11,3.11,0,0,1-3.11,3.11H10.18A4.15,4.15,0,0,1,6,35.21V33.79a12.32,12.32,0,0,1-1.49-.14v1.56a5.64,5.64,0,0,0,5.64,5.63h4.28a4.6,4.6,0,0,0,4.6-4.6v-2.4A2.87,2.87,0,0,0,16.2,31Z" fill="#2c5967"/><path d="M14.84,26.69a1.12,1.12,0,1,0-2-1h0l-.38.8,0,.12-.11.23,0,.06,0,.05,0,.08-.2.38a8.15,8.15,0,0,1-1.06,1.45,9.44,9.44,0,0,1-3,2.19,10.13,10.13,0,0,1-1.8.64,12.12,12.12,0,0,1-1.91.34,16.81,16.81,0,0,1-3.94-.15,16.86,16.86,0,0,0,4,.7,12.84,12.84,0,0,0,2.05-.06,12.15,12.15,0,0,0,2-.43,10.69,10.69,0,0,0,3.73-2,10.22,10.22,0,0,0,1.52-1.56c.12-.15.23-.3.34-.46L14,28l0-.05,0-.06.14-.2.07-.11.47-.71A.64.64,0,0,0,14.84,26.69Z" fill="#2c5967"/><path d="M11.61,13.46a1.6,1.6,0,0,0-.55,1.35,1.46,1.46,0,0,0,.2.58,1.65,1.65,0,0,0,.15.25,1.55,1.55,0,0,0,.21.25,1.57,1.57,0,0,0,.2-.25,1,1,0,0,0,.16-.25,4.49,4.49,0,0,1,.24-.43,2.36,2.36,0,0,1,.38-.39,2.39,2.39,0,0,1,.43-.32,2.94,2.94,0,0,0,1-.58,2.44,2.44,0,0,0-1-.59A1.58,1.58,0,0,0,11.61,13.46Z" fill="#2c5967"/><path d="M40.29,37.76V21.67s0,0,0-.05a.43.43,0,0,0,0-.05c0-2.42-6.32-3.07-10.06-3.07s-10,.65-10,3.07a.07.07,0,0,0,0,.05.09.09,0,0,0,0,.05V37.85c0,2.89,9,3,10.05,3s10.06-.08,10.06-3Zm-1.49,0c-.36.56-3.45,1.53-8.57,1.53s-8.21-1-8.56-1.53V34.29c2.61,1.21,7.8,1.26,8.56,1.26s6,0,8.57-1.26ZM30.23,24.64c2.61,0,6.47-.31,8.57-1.33v3.75c-.36.56-3.45,1.53-8.57,1.53s-8.21-1-8.56-1.53V23.31C23.77,24.33,27.63,24.64,30.23,24.64Zm8.55-3.07c-.38.59-3.44,1.58-8.55,1.58s-8.16-1-8.54-1.58C22.07,21,25.13,20,30.23,20S38.4,21,38.78,21.57Zm-8.55,8.51c.77,0,6,0,8.57-1.26v3.71c-.36.56-3.45,1.53-8.57,1.53s-8.21-1-8.56-1.53V28.82C24.28,30,29.47,30.08,30.23,30.08Z" fill="#2c5967"/></svg>