<svg id="Layer_1" data-name="Layer 1" xmlns="http://www.w3.org/2000/svg" viewBox="0 0 38.74 42"><metadata><?xpacket begin="﻿" id="W5M0MpCehiHzreSzNTczkc9d"?>
<x:xmpmeta xmlns:x="adobe:ns:meta/" x:xmptk="Adobe XMP Core 6.0-c006 79.164648, 2021/01/12-15:52:29        ">
   <rdf:RDF xmlns:rdf="http://www.w3.org/1999/02/22-rdf-syntax-ns#">
      <rdf:Description rdf:about=""
            xmlns:dc="http://purl.org/dc/elements/1.1/"
            xmlns:xmp="http://ns.adobe.com/xap/1.0/"
            xmlns:xmpMM="http://ns.adobe.com/xap/1.0/mm/"
            xmlns:stEvt="http://ns.adobe.com/xap/1.0/sType/ResourceEvent#"
            xmlns:xmpRights="http://ns.adobe.com/xap/1.0/rights/"
            xmlns:lr="http://ns.adobe.com/lightroom/1.0/">
         <dc:subject>
            <rdf:Bag>
               <rdf:li>exadata</rdf:li>
               <rdf:li>server</rdf:li>
               <rdf:li>hardware</rdf:li>
               <rdf:li>update</rdf:li>
               <rdf:li>icon</rdf:li>
            </rdf:Bag>
         </dc:subject>
         <dc:rights>
            <rdf:Alt>
               <rdf:li xml:lang="x-default">Oracle All Rights</rdf:li>
            </rdf:Alt>
         </dc:rights>
         <xmp:MetadataDate>2023-08-02T14:36:31-06:00</xmp:MetadataDate>
         <xmpMM:InstanceID>xmp.iid:28a7c411-e858-4822-9839-ee46dff01f3b</xmpMM:InstanceID>
         <xmpMM:DocumentID>xmp.did:84ec8dea-2449-4067-9c1b-cc39f4524978</xmpMM:DocumentID>
         <xmpMM:OriginalDocumentID>xmp.did:84ec8dea-2449-4067-9c1b-cc39f4524978</xmpMM:OriginalDocumentID>
         <xmpMM:History>
            <rdf:Seq>
               <rdf:li>
                  <rdf:Description>
                     <stEvt:action>saved</stEvt:action>
                     <stEvt:instanceID>xmp.iid:84ec8dea-2449-4067-9c1b-cc39f4524978</stEvt:instanceID>
                     <stEvt:when>2023-08-02T13:50:32-06:00</stEvt:when>
                     <stEvt:softwareAgent>Adobe Bridge 2021 (Macintosh)</stEvt:softwareAgent>
                     <stEvt:changed>/metadata</stEvt:changed>
                  </rdf:Description>
               </rdf:li>
               <rdf:li>
                  <rdf:Description>
                     <stEvt:action>saved</stEvt:action>
                     <stEvt:instanceID>xmp.iid:28a7c411-e858-4822-9839-ee46dff01f3b</stEvt:instanceID>
                     <stEvt:when>2023-08-02T14:36:31-06:00</stEvt:when>
                     <stEvt:softwareAgent>Adobe Bridge 2021 (Macintosh)</stEvt:softwareAgent>
                     <stEvt:changed>/metadata</stEvt:changed>
                  </rdf:Description>
               </rdf:li>
            </rdf:Seq>
         </xmpMM:History>
         <xmpRights:Marked>True</xmpRights:Marked>
         <lr:hierarchicalSubject>
            <rdf:Bag>
               <rdf:li>Other Keywords|icon</rdf:li>
            </rdf:Bag>
         </lr:hierarchicalSubject>
      </rdf:Description>
   </rdf:RDF>
</x:xmpmeta>
                                                                                                    
                                                                                                    
                                                                                                    
                                                                                                    
                                                                                                    
                                                                                                    
                                                                                                    
                                                                                                    
                                                                                                    
                                                                                            
<?xpacket end="w"?></metadata>
<path d="M8.14,41.5v-25H.54L.64,15a7.54,7.54,0,0,1,4-6.14,1.48,1.48,0,0,0,.76-1A5.86,5.86,0,0,1,8.83,3.66a6,6,0,0,1,2.36-.49,4.87,4.87,0,0,1,.54,0h.15a1.32,1.32,0,0,0,1-.43,7.12,7.12,0,0,1,8.82-1.29l1,.53A7.9,7.9,0,0,1,27.26.59,8.05,8.05,0,0,1,34,4.35l.24.39h0a8.8,8.8,0,0,1,.62,1.51L38,9.41l-1.85,1.85-1.11-1.11a8,8,0,0,1-7.81,6.39,7.81,7.81,0,0,1-2.36-.36V41.5Z" fill="#fff"/><path d="M18.09,1a6.58,6.58,0,0,1,3.35.91l1.32.69a7.46,7.46,0,0,1,10.84,2h0a7,7,0,0,1,.84,1.9L35.9,8l1.42,1.42-1.14,1.14-.42-.42-1-1.05A7.47,7.47,0,0,1,24.4,15.47V41H8.64V16H1.08l.06-.87A7,7,0,0,1,4.91,9.34,2,2,0,0,0,5.93,8a5.35,5.35,0,0,1,5.26-4.32,4.26,4.26,0,0,1,.5,0h.19a1.84,1.84,0,0,0,1.36-.59A6.64,6.64,0,0,1,18.09,1m0-1a7.65,7.65,0,0,0-5.58,2.43.87.87,0,0,1-.63.27h-.1l-.59,0A6.33,6.33,0,0,0,5,7.8a.94.94,0,0,1-.5.65A8.05,8.05,0,0,0,.14,15l-.06.87L0,17H7.64V42H25.4V16.83a8.29,8.29,0,0,0,1.86.21,8.52,8.52,0,0,0,8.08-5.92l.13.14.71.7.71-.7L38,10.12l.71-.71L38,8.7,36.61,7.28,35.32,6a8.53,8.53,0,0,0-.48-1.2l0,0-.42-.67a8.54,8.54,0,0,0-7.19-4,8.36,8.36,0,0,0-4.57,1.34L21.91,1a7.51,7.51,0,0,0-3.82-1Z" fill="#fff"/><path d="M22.78,39.38H10.26V10.7h8.19L16.84,9.08H8.64V41H24.4V16.69a8.56,8.56,0,0,1-1.62-.76Z" fill="#2c5967"/><path d="M11.47,13.53h8.7a9.26,9.26,0,0,1-.92-1.62H11.47Z" fill="#2c5967"/><path d="M12.68,19.18h7.68V17.77h1.21V16.15H20.36V14.74H12.68v1.41H11.47v1.62h1.21Zm1.62-2.83h4.44v1.22H14.3Z" fill="#2c5967"/><path d="M21.5,2A6.55,6.55,0,0,0,18.09,1a6.64,6.64,0,0,0-4.85,2.11,1.82,1.82,0,0,1-1.55.58A5.36,5.36,0,0,0,5.93,8a2,2,0,0,1-1,1.35,7,7,0,0,0-3.77,5.74L1.08,16H7.43V14.33H2.89a5.45,5.45,0,0,1,2.77-3.56A3.56,3.56,0,0,0,7.51,8.31,3.75,3.75,0,0,1,9.68,5.6a3.68,3.68,0,0,1,1.85-.3,3.45,3.45,0,0,0,2.89-1.09,5,5,0,0,1,3.67-1.59,5,5,0,0,1,2.27.54A9.33,9.33,0,0,1,21.5,2Z" fill="#2c5967"/><polygon points="20.72 27.56 18.5 27.56 16.61 30.8 14.67 27.56 12.36 27.56 15.11 32.08 12.22 36.96 14.44 36.96 16.46 33.4 18.55 36.96 20.87 36.96 17.96 32.12 20.72 27.56" fill="#2c5967"/><rect x="11.47" y="20.39" width="1.62" height="1.62" fill="#2c5967"/><rect x="14.3" y="20.39" width="1.62" height="1.62" fill="#2c5967"/><rect x="17.13" y="20.39" width="1.62" height="1.62" fill="#2c5967"/><rect x="19.96" y="20.39" width="1.62" height="1.62" fill="#2c5967"/><rect x="11.47" y="23.22" width="1.62" height="1.62" fill="#2c5967"/><rect x="14.3" y="23.22" width="1.62" height="1.62" fill="#2c5967"/><rect x="17.13" y="23.22" width="1.62" height="1.62" fill="#2c5967"/><rect x="19.96" y="23.22" width="1.62" height="1.62" fill="#2c5967"/><path d="M20.59,11.12,24,7.72,22.85,6.58,21.43,8a5.86,5.86,0,0,1,11-2.2L33.6,4.62A7.47,7.47,0,0,0,19.8,8.05L18.33,6.58,17.19,7.72Z" fill="#2c5967"/><path d="M37.32,9.41,35.9,8l-2-2-3.4,3.4,1.15,1.14,1.42-1.42a5.86,5.86,0,0,1-11,2.2l-1.18,1.18a7.47,7.47,0,0,0,13.8-3.43l1,1.05.42.42Z" fill="#2c5967"/><path d="M28.84,12.16V10.3L28,9.83V8.12a2.32,2.32,0,0,0,1.41-2.27v-.2h0L28.64,4h-.81V5.54l-.6.7-.61-.7V4h-.81L25,5.65h0v.2a2.32,2.32,0,0,0,1.41,2.27V9.83l-.81.47v1.86l1.62.93Z" fill="#2c5967"/></svg>