<svg id="Layer_1" data-name="Layer 1" xmlns="http://www.w3.org/2000/svg" viewBox="0 0 39.22 42"><title>Other - Flashback</title><metadata><?xpacket begin="﻿" id="W5M0MpCehiHzreSzNTczkc9d"?>
<x:xmpmeta xmlns:x="adobe:ns:meta/" x:xmptk="Adobe XMP Core 6.0-c006 79.164648, 2021/01/12-15:52:29        ">
   <rdf:RDF xmlns:rdf="http://www.w3.org/1999/02/22-rdf-syntax-ns#">
      <rdf:Description rdf:about=""
            xmlns:dc="http://purl.org/dc/elements/1.1/"
            xmlns:lr="http://ns.adobe.com/lightroom/1.0/"
            xmlns:xmp="http://ns.adobe.com/xap/1.0/"
            xmlns:xmpMM="http://ns.adobe.com/xap/1.0/mm/"
            xmlns:stEvt="http://ns.adobe.com/xap/1.0/sType/ResourceEvent#"
            xmlns:xmpRights="http://ns.adobe.com/xap/1.0/rights/">
         <dc:title>
            <rdf:Alt>
               <rdf:li xml:lang="x-default">Other - Flashback</rdf:li>
            </rdf:Alt>
         </dc:title>
         <dc:subject>
            <rdf:Bag>
               <rdf:li>icon</rdf:li>
               <rdf:li>data</rdf:li>
               <rdf:li>database</rdf:li>
            </rdf:Bag>
         </dc:subject>
         <dc:rights>
            <rdf:Alt>
               <rdf:li xml:lang="x-default">Oracle All Rights Reserved</rdf:li>
            </rdf:Alt>
         </dc:rights>
         <lr:hierarchicalSubject>
            <rdf:Bag>
               <rdf:li>icon</rdf:li>
               <rdf:li>data</rdf:li>
               <rdf:li>database</rdf:li>
            </rdf:Bag>
         </lr:hierarchicalSubject>
         <xmp:MetadataDate>2021-11-23T13:28:03-06:00</xmp:MetadataDate>
         <xmpMM:InstanceID>xmp.iid:d855be3b-7866-46e4-93c4-78a2ce7add30</xmpMM:InstanceID>
         <xmpMM:DocumentID>xmp.did:37289334-aabe-db40-b19e-38c222df3c40</xmpMM:DocumentID>
         <xmpMM:OriginalDocumentID>xmp.did:37289334-aabe-db40-b19e-38c222df3c40</xmpMM:OriginalDocumentID>
         <xmpMM:History>
            <rdf:Seq>
               <rdf:li>
                  <rdf:Description>
                     <stEvt:action>saved</stEvt:action>
                     <stEvt:instanceID>xmp.iid:37289334-aabe-db40-b19e-38c222df3c40</stEvt:instanceID>
                     <stEvt:when>2021-11-22T15:44:56-06:00</stEvt:when>
                     <stEvt:softwareAgent>Adobe Bridge 2020 (Windows)</stEvt:softwareAgent>
                     <stEvt:changed>/metadata</stEvt:changed>
                  </rdf:Description>
               </rdf:li>
               <rdf:li>
                  <rdf:Description>
                     <stEvt:action>saved</stEvt:action>
                     <stEvt:instanceID>xmp.iid:d855be3b-7866-46e4-93c4-78a2ce7add30</stEvt:instanceID>
                     <stEvt:when>2021-11-23T13:28:03-06:00</stEvt:when>
                     <stEvt:softwareAgent>Adobe Bridge 2021 (Macintosh)</stEvt:softwareAgent>
                     <stEvt:changed>/metadata</stEvt:changed>
                  </rdf:Description>
               </rdf:li>
            </rdf:Seq>
         </xmpMM:History>
         <xmpRights:Marked>True</xmpRights:Marked>
      </rdf:Description>
   </rdf:RDF>
</x:xmpmeta>
                                                                                                    
                                                                                                    
                                                                                                    
                                                                                                    
                                                                                                    
                                                                                                    
                                                                                                    
                                                                                                    
                                                                                                    
                                                                                                    
                                                                                       
<?xpacket end="w"?></metadata>
<path d="M24.64,41.5c-1.44,0-14.08-.12-14.08-4.24V31.68l-.43,0c-1-.09-2.88-.35-3-.36l-.53-.09h0l-.47-.1L4.5,30.72a10.26,10.26,0,0,1-2.34-.89l-.06,0a3.77,3.77,0,0,1-.59-.39l-.16-.14.24-.46-.33.37A2.47,2.47,0,0,1,1,28.89c-.06-.08-.11-.17-.16-.25l.36-.38-.42.26a1,1,0,0,1-.13-.23,1.94,1.94,0,0,1-.12-.59h0V4.83C.5,2,6.22,1.07,9.62.73c1.59-.15,3.26-.23,5-.23,1.42,0,2.83.06,4.2.17,3.69.29,9.88,1.24,9.88,4.16a1.09,1.09,0,0,1,0,.18.71.71,0,0,1,0,.14v5.17h.18c3.69.3,9.88,1.24,9.88,4.17a1.09,1.09,0,0,1,0,.18.61.61,0,0,1,0,.14V37.26C38.72,41.38,26.08,41.5,24.64,41.5Z" fill="#fff"/><path d="M14.58,1c1.39,0,2.8.05,4.16.16,5.05.41,9.42,1.6,9.42,3.67a1.15,1.15,0,0,1,0,.19.62.62,0,0,1,0,.13v5.64l.64,0c5.05.41,9.42,1.59,9.42,3.67a1.21,1.21,0,0,1,0,.19.53.53,0,0,1,0,.13V37.26c0,3-8.88,3.74-13.58,3.74s-13.58-.78-13.58-3.74v-6l-.89-.07h0c-1-.09-2.93-.36-2.93-.36l-1-.17h0l-1.63-.38a9.54,9.54,0,0,1-2.23-.85h0A4.48,4.48,0,0,1,1.82,29a1.45,1.45,0,0,1-.18-.17,3.31,3.31,0,0,1-.27-.26c-.06-.08-.1-.17-.15-.25a1.55,1.55,0,0,1-.12-.22A1.36,1.36,0,0,1,1,27.63v0H1V4.83c0-2,4-3.14,8.67-3.6C11.26,1.08,12.94,1,14.58,1m0-1c-1.72,0-3.4.08-5,.24C5.21.66,0,1.81,0,4.83v23a2.5,2.5,0,0,0,.15.68,1.57,1.57,0,0,0,.18.33l0,.08a2.11,2.11,0,0,0,.21.34,3.42,3.42,0,0,0,.33.33l0,0c.1.09.16.16.24.22a7.33,7.33,0,0,0,.65.43l0,0,.07,0a11.57,11.57,0,0,0,2.43.93l1.7.39,1,.2v0h0c.09,0,1.92.27,3,.37v5.11c0,4.4,11.16,4.74,14.58,4.74s14.58-.34,14.58-4.74V14.82a.76.76,0,0,0,0-.15,1,1,0,0,0,0-.17c0-3.1-5.4-4.24-10.06-4.64v-5c0-3.16-5.62-4.28-10.34-4.66C17.45.06,16,0,14.58,0Z" fill="#fff"/><rect x="1" y="22.55" width="1.28" height="2.9" fill="#2c5967"/><path d="M3.36,29.83a17.86,17.86,0,0,0,2.91.79l.24-1.25a17.53,17.53,0,0,1-2.69-.73Z" fill="#2c5967"/><path d="M2.28,27.6V26.42H1V27.6c0,.68.47,1.28,1.41,1.79L3,28.27C2.43,28,2.28,27.7,2.28,27.6Z" fill="#2c5967"/><rect x="1" y="7.07" width="1.28" height="2.87" fill="#2c5967"/><rect x="1" y="14.81" width="1.28" height="2.9" fill="#2c5967"/><rect x="26.88" y="7.08" width="1.28" height="2.86" fill="#2c5967"/><path d="M7.24,30.8c.91.14,1.9.26,2.93.35l.11-1.27c-1-.09-1.95-.2-2.83-.35Z" fill="#2c5967"/><path d="M1,19.2v2.38h.9a7.33,7.33,0,0,0,1.94.92l.4-1.21c-1.85-.62-2-1.15-2-1.17h0V18.73H1Z" fill="#2c5967"/><path d="M8.09,22.13a25.17,25.17,0,0,1-2.91-.56L4.85,22.8a26.36,26.36,0,0,0,3.06.6Z" fill="#2c5967"/><path d="M1,10.94v2.9h.5a5.79,5.79,0,0,0,2.36,1.29l.41-1.22c-1.48-.49-1.95-1-2-1.17h0V10.9H1Z" fill="#2c5967"/><path d="M5.2,14.19l-.32,1.23a25.75,25.75,0,0,0,3.05.6l.18-1.27A25.17,25.17,0,0,1,5.2,14.19Z" fill="#2c5967"/><path d="M2.1,6.48l.71-1.06c-.39-.26-.53-.47-.53-.59s.14-.32.53-.58L2.1,3.18A2.15,2.15,0,0,0,1,4.66H1V6.1h.62A3.22,3.22,0,0,0,2.1,6.48Z" fill="#2c5967"/><path d="M18.07,8.55,18,7.28c-.95.06-1.94.1-2.93.11V8.67C16.08,8.66,17.09,8.62,18.07,8.55Z" fill="#2c5967"/><path d="M22.09,1.58c-.94-.16-1.95-.29-3-.39L19,2.47c1,.09,2,.22,2.9.37Z" fill="#2c5967"/><path d="M18.08,1.11c-1-.06-2-.1-3-.11V2.28c1,0,2,0,2.93.11Z" fill="#2c5967"/><path d="M22.07,8.09l-.21-1.26C21,7,20,7.11,19,7.2l.11,1.27C20.13,8.38,21.14,8.25,22.07,8.09Z" fill="#2c5967"/><path d="M26.05,2.65a15.69,15.69,0,0,0-3-.88L22.82,3a14.32,14.32,0,0,1,2.73.81Z" fill="#2c5967"/><path d="M6.31,6.64a15.67,15.67,0,0,1-2.73-.81L3.07,7a16.09,16.09,0,0,0,3,.89Z" fill="#2c5967"/><path d="M10.17,2.47,10.05,1.2c-1.06.09-2.07.22-3,.38l.22,1.26C8.17,2.69,9.14,2.56,10.17,2.47Z" fill="#2c5967"/><path d="M10.16,7.2c-1-.1-2-.23-2.9-.38L7,8.08c.93.16,1.94.29,3,.39Z" fill="#2c5967"/><path d="M6.32,3,6.05,1.78a16.15,16.15,0,0,0-3,.88l.51,1.18A14.1,14.1,0,0,1,6.32,3Z" fill="#2c5967"/><path d="M26.32,5.44,27,6.51a3.25,3.25,0,0,0,.52-.41h.62V4.66h0A2.16,2.16,0,0,0,27,3.16l-.7,1.07c.41.27.55.49.55.6S26.74,5.17,26.32,5.44Z" fill="#2c5967"/><path d="M14.08,2.28V1c-1,0-2,.05-3,.12l.09,1.27C12.09,2.33,13.08,2.29,14.08,2.28Z" fill="#2c5967"/><path d="M14.07,7.39c-1,0-2,0-2.94-.12L11,8.55c1,.07,2,.1,3,.11Z" fill="#2c5967"/><path d="M26,7l-.5-1.18a14.32,14.32,0,0,1-2.73.81l.26,1.25A17,17,0,0,0,26,7Z" fill="#2c5967"/><path d="M38.22,14.5c0-2.08-4.37-3.26-9.42-3.67-1.36-.11-2.77-.17-4.16-.17-1.64,0-3.32.08-4.91.24-4.73.46-8.67,1.63-8.67,3.6a1.21,1.21,0,0,0,0,.19.53.53,0,0,0,0,.13v.23c-.68,0-1.33-.1-2-.17L9,16.15c.68.07,1.38.14,2.11.18v6.11q-1-.07-2-.18l-.15,1.27c.69.08,1.4.14,2.13.19V37.26c0,3,8.88,3.74,13.58,3.74s13.58-.78,13.58-3.74V14.82a.53.53,0,0,0,0-.13A1.21,1.21,0,0,0,38.22,14.5ZM33.64,38.83a40.11,40.11,0,0,1-9,.89,40.11,40.11,0,0,1-9-.89c-2.7-.64-3.3-1.36-3.3-1.57V31.49c2.63,1.55,8.7,2,12.3,2s9.67-.46,12.3-2v5.77C36.94,37.47,36.34,38.19,33.64,38.83Zm-9-26.89a39.45,39.45,0,0,1,9,.92c2.71.67,3.3,1.41,3.3,1.64s-.59,1-3.3,1.64a39.45,39.45,0,0,1-9,.92,39.45,39.45,0,0,1-9-.92c-2.71-.67-3.3-1.41-3.3-1.64s.59-1,3.3-1.64A39.45,39.45,0,0,1,24.64,11.94Zm-12.3,4.32c2.32,1.41,7.45,2.07,12.3,2.07s10-.66,12.3-2.07v6.12c0,.2-.6.92-3.3,1.57a40.71,40.71,0,0,1-9,.89,40.71,40.71,0,0,1-9-.89c-2.7-.65-3.3-1.37-3.3-1.57Zm12.3,9.86c3.61,0,9.67-.46,12.3-2v5.66c0,.2-.6.92-3.3,1.56a40.11,40.11,0,0,1-9,.89,40.11,40.11,0,0,1-9-.89c-2.7-.64-3.3-1.36-3.3-1.56V24.11C15,25.66,21,26.12,24.64,26.12Z" fill="#2c5967"/></svg>