<svg id="Layer_1" data-name="Layer 1" xmlns="http://www.w3.org/2000/svg" viewBox="0 0 39.96 42"><metadata><?xpacket begin="﻿" id="W5M0MpCehiHzreSzNTczkc9d"?>
<x:xmpmeta xmlns:x="adobe:ns:meta/" x:xmptk="Adobe XMP Core 6.0-c006 79.164648, 2021/01/12-15:52:29        ">
   <rdf:RDF xmlns:rdf="http://www.w3.org/1999/02/22-rdf-syntax-ns#">
      <rdf:Description rdf:about=""
            xmlns:dc="http://purl.org/dc/elements/1.1/"
            xmlns:xmp="http://ns.adobe.com/xap/1.0/"
            xmlns:xmpMM="http://ns.adobe.com/xap/1.0/mm/"
            xmlns:stEvt="http://ns.adobe.com/xap/1.0/sType/ResourceEvent#"
            xmlns:xmpRights="http://ns.adobe.com/xap/1.0/rights/"
            xmlns:lr="http://ns.adobe.com/lightroom/1.0/">
         <dc:subject>
            <rdf:Bag>
               <rdf:li>migrate</rdf:li>
               <rdf:li>migration</rdf:li>
               <rdf:li>database</rdf:li>
               <rdf:li>icon</rdf:li>
            </rdf:Bag>
         </dc:subject>
         <dc:rights>
            <rdf:Alt>
               <rdf:li xml:lang="x-default">Oracle All Rights</rdf:li>
            </rdf:Alt>
         </dc:rights>
         <xmp:MetadataDate>2023-08-02T14:36:32-06:00</xmp:MetadataDate>
         <xmpMM:InstanceID>xmp.iid:b50b7572-eeac-40a5-8283-c131746769bd</xmpMM:InstanceID>
         <xmpMM:DocumentID>xmp.did:d6751d1a-1f3d-4c90-bc26-f14e2a1b675f</xmpMM:DocumentID>
         <xmpMM:OriginalDocumentID>xmp.did:d6751d1a-1f3d-4c90-bc26-f14e2a1b675f</xmpMM:OriginalDocumentID>
         <xmpMM:History>
            <rdf:Seq>
               <rdf:li>
                  <rdf:Description>
                     <stEvt:action>saved</stEvt:action>
                     <stEvt:instanceID>xmp.iid:d6751d1a-1f3d-4c90-bc26-f14e2a1b675f</stEvt:instanceID>
                     <stEvt:when>2023-08-02T14:24:37-06:00</stEvt:when>
                     <stEvt:softwareAgent>Adobe Bridge 2021 (Macintosh)</stEvt:softwareAgent>
                     <stEvt:changed>/metadata</stEvt:changed>
                  </rdf:Description>
               </rdf:li>
               <rdf:li>
                  <rdf:Description>
                     <stEvt:action>saved</stEvt:action>
                     <stEvt:instanceID>xmp.iid:b50b7572-eeac-40a5-8283-c131746769bd</stEvt:instanceID>
                     <stEvt:when>2023-08-02T14:36:32-06:00</stEvt:when>
                     <stEvt:softwareAgent>Adobe Bridge 2021 (Macintosh)</stEvt:softwareAgent>
                     <stEvt:changed>/metadata</stEvt:changed>
                  </rdf:Description>
               </rdf:li>
            </rdf:Seq>
         </xmpMM:History>
         <xmpRights:Marked>True</xmpRights:Marked>
         <lr:hierarchicalSubject>
            <rdf:Bag>
               <rdf:li>Other Keywords|icon</rdf:li>
            </rdf:Bag>
         </lr:hierarchicalSubject>
      </rdf:Description>
   </rdf:RDF>
</x:xmpmeta>
                                                                                                    
                                                                                                    
                                                                                                    
                                                                                                    
                                                                                                    
                                                                                                    
                                                                                                    
                                                                                                    
                                                                                                    
                                                                                            
<?xpacket end="w"?></metadata>
<path d="M9.63,41.5V38.26a4.57,4.57,0,0,1,4.53-4.6h1.25v-.77a4.52,4.52,0,0,1-1.22-3.08V27c0-2.28,1.3-3.7,3.39-3.7H23.4v6.36a4.71,4.71,0,0,1-1.22,3.12v.87h1.1A4.44,4.44,0,0,1,26.46,35a4.56,4.56,0,0,1,1.34,3.28V41.5Z" fill="#fff"/><path d="M22.9,23.81v5.86a4.19,4.19,0,0,1-1.22,2.92v1.57h1.6a4.06,4.06,0,0,1,4,4.1V41H10.13V38.26a4.07,4.07,0,0,1,4-4.1H15.9V32.68a4,4,0,0,1-1.21-2.87V27c0-2,1.08-3.2,2.89-3.2H22.9m1-1H17.58c-2.36,0-3.89,1.65-3.89,4.2v2.8a5.06,5.06,0,0,0,1.21,3.27v.08h-.74a5.07,5.07,0,0,0-5,5.1V42H28.3V38.26a5.1,5.1,0,0,0-1.48-3.63,5,5,0,0,0-3.54-1.47h-.6V33a5.18,5.18,0,0,0,1.22-3.3V22.81Z" fill="#fff"/><path d="M31.34,27.78c-2,0-5.44-.28-5.44-2.14V20.83H22.11l.08-1.19A4.47,4.47,0,0,1,24.6,16a.4.4,0,0,0,.2-.29,3.54,3.54,0,0,1,2.06-2.55,4.24,4.24,0,0,1,.5-.18,14,14,0,0,0-2.74-2.25h0v3.83A1.42,1.42,0,0,1,23.21,16h-9a1.41,1.41,0,0,1-1.41-1.41V10.65l-.19.11a11.61,11.61,0,0,0-4.63,5L7.92,16c2.3.25,3.47,1,3.47,2.06v7.62c0,1.76-3,2.13-5.45,2.13-2,0-5.44-.28-5.44-2.14V18c0-1.77,3-2.13,5-2.16.11-.27.24-.57.25-.58a14.17,14.17,0,0,1,6.36-6.81l.67-.33V3.28a1.41,1.41,0,0,1,1.41-1.41h1.71a.81.81,0,0,1,.73-.46h.71a1.41,1.41,0,0,1,2.64,0h.75a.81.81,0,0,1,.73.46h1.71a1.41,1.41,0,0,1,1.41,1.41V8.2l.51.26a14,14,0,0,1,4.5,3.68,4.23,4.23,0,0,1,6.17,1.59.45.45,0,0,0,.28.23,3.91,3.91,0,0,1,1.37.57,4.31,4.31,0,0,1,1.5,5.7l-.34.59H36.78v4.82C36.78,27.5,33.37,27.78,31.34,27.78Z" fill="#fff"/><path d="M18.7,1a.92.92,0,0,1,.92.91h1.15a.31.31,0,0,1,.31.31v.15h2.13a.91.91,0,0,1,.91.91V8.51l.76.38a13.49,13.49,0,0,1,4.66,4A3.73,3.73,0,0,1,35.36,14a.92.92,0,0,0,.61.48,3.77,3.77,0,0,1,1.21.51A3.84,3.84,0,0,1,38.51,20l-.19.32h-2v5.32c0,1.52-3.79,1.64-4.95,1.64s-4.94-.12-4.94-1.64V20.33H22.64l.05-.65a4,4,0,0,1,2.14-3.24.92.92,0,0,0,.46-.64,3,3,0,0,1,1.76-2.19,3.09,3.09,0,0,1,1.23-.26h.07a13.87,13.87,0,0,0-3.46-3,4.6,4.6,0,0,0-.77-.42v4.66a.91.91,0,0,1-.91.91h-9a.91.91,0,0,1-.91-.91V9.85a5.13,5.13,0,0,0-1,.48,12.27,12.27,0,0,0-4.82,5.24s-.26.58-.38.83c1.56.11,3.72.46,3.72,1.63v7.62c0,1.52-3.79,1.63-4.95,1.63S1,27.16,1,25.64V18c0-1.52,3.65-1.66,4.88-1.67l.36-.87a13.72,13.72,0,0,1,6.15-6.57l.93-.46V3.28a.91.91,0,0,1,.91-.91h2.13V2.22a.31.31,0,0,1,.31-.31h1.12A.91.91,0,0,1,18.7,1m0-1a1.94,1.94,0,0,0-1.63.91h-.4a1.28,1.28,0,0,0-1,.46H14.23a1.92,1.92,0,0,0-1.91,1.91V7.84l-.4.19a14.76,14.76,0,0,0-6.59,7.06,2.92,2.92,0,0,0-.12.28C1.8,15.49,0,16.4,0,18v7.61c0,2.18,3.23,2.64,5.94,2.64,4.91,0,6-1.43,6-2.63V18c0-1.27-1.08-2.1-3.22-2.46a11.13,11.13,0,0,1,3.65-4v3a1.92,1.92,0,0,0,1.91,1.91h8.91a5,5,0,0,0-1.45,3.15l0,.66-.08,1.07H25.4v4.31c0,2.18,3.23,2.64,5.94,2.64s5.95-.46,5.95-2.64V21.32H38.9l.29-.51.18-.32a4.82,4.82,0,0,0-3.13-7,4.73,4.73,0,0,0-6.5-2A14.59,14.59,0,0,0,25.34,8l-.22-.11V3.28a1.92,1.92,0,0,0-1.91-1.91H21.76a1.3,1.3,0,0,0-1-.46h-.44A1.92,1.92,0,0,0,18.7,0Zm6.42,13.87V11.66a14.86,14.86,0,0,1,1.35,1.12,3.87,3.87,0,0,0-1.35,1.09Z" fill="#fff"/><path d="M23.28,34.16h-1.6V32.59a4.19,4.19,0,0,0,1.22-2.92V23.81H17.58c-1.81,0-2.89,1.21-2.89,3.2v2.8a4,4,0,0,0,1.21,2.87v1.48H14.16a4.07,4.07,0,0,0-4,4.1V41h1.21V38.26a2.9,2.9,0,0,1,2.82-2.89h2l2.6,2.77,2.6-2.77h1.89a2.9,2.9,0,0,1,2.81,2.89V41H27.3V38.26A4.06,4.06,0,0,0,23.28,34.16ZM17.58,25h4.06c-.2,1.37-1.08,1.37-1.39,1.37H16A1.5,1.5,0,0,1,17.58,25Zm2.67,2.59a2.55,2.55,0,0,0,1.43-.4v2.46a3,3,0,0,1-2.67,3,2.86,2.86,0,0,1-2.21-.77,2.75,2.75,0,0,1-.9-2.05V27.62Zm-1.47,8.74L17.12,34.6V33.5a4.1,4.1,0,0,0,1.67.35h.29a3.87,3.87,0,0,0,1.39-.37v1.11Z" fill="#2c5967"/><path d="M27.6,12.48a3.86,3.86,0,0,1,1,0l.32-.31A13.88,13.88,0,0,0,25,9v1.4A13.1,13.1,0,0,1,27.6,12.48Z" fill="#2c5967"/><path d="M6.2,15.59c.28,0,.75,0,1.31.06a12.34,12.34,0,0,1,4.9-5.34V8.91A13.68,13.68,0,0,0,6.2,15.59Z" fill="#2c5967"/><path d="M38.51,20A3.84,3.84,0,0,0,37.18,15,3.77,3.77,0,0,0,36,14.44a.92.92,0,0,1-.61-.48,3.73,3.73,0,0,0-6.09-.85.79.79,0,0,1-.67.26,3,3,0,0,0-1.55.24,3,3,0,0,0-1.76,2.19.92.92,0,0,1-.46.64,4,4,0,0,0-2.14,3.24l-.05.65h2.85V19.11H24a2.76,2.76,0,0,1,1.35-1.59,2.51,2.51,0,0,0,.46-.32,1.83,1.83,0,0,1,.36-.44,3.1,3.1,0,0,0,.28-.7,1.88,1.88,0,0,1,1.06-1.33,2,2,0,0,1,.93-.15,2,2,0,0,0,1.69-.64,2.53,2.53,0,0,1,1.85-.8,2.5,2.5,0,0,1,2.25,1.38,2.13,2.13,0,0,0,1.45,1.13,2.72,2.72,0,0,1,.83.33,2.62,2.62,0,0,1,1.05,3.12H37.2v1.22h1.12Z" fill="#2c5967"/><path d="M31.34,16.36c-1.15,0-4.94.12-4.94,1.67v7.61c0,1.52,3.79,1.64,4.94,1.64s4.95-.12,4.95-1.64V18C36.29,16.48,32.5,16.36,31.34,16.36Zm3.73,9.14a8.7,8.7,0,0,1-3.73.56,9,9,0,0,1-3.72-.56V24.29a13.07,13.07,0,0,0,3.72.47,13.17,13.17,0,0,0,3.73-.47Zm-3.73-1.94A8.7,8.7,0,0,1,27.62,23V21.76a12.72,12.72,0,0,0,3.72.47,12.82,12.82,0,0,0,3.73-.47V23A8.8,8.8,0,0,1,31.34,23.56Zm3.73-3.14a8.7,8.7,0,0,1-3.73.56,9,9,0,0,1-3.72-.56v-1.2a12.72,12.72,0,0,0,3.72.47,12.82,12.82,0,0,0,3.73-.47Zm-3.73-2.84a10.63,10.63,0,0,1,3.45.45,10.27,10.27,0,0,1-3.45.46A10.36,10.36,0,0,1,27.89,18,10.73,10.73,0,0,1,31.34,17.58Z" fill="#2c5967"/><path d="M5.94,16.36C4.79,16.36,1,16.48,1,18v7.61c0,1.52,3.79,1.64,4.94,1.64s5-.11,5-1.63V18C10.89,16.48,7.1,16.36,5.94,16.36Zm0,1.22A10.75,10.75,0,0,1,9.4,18a10.39,10.39,0,0,1-3.46.46A10.36,10.36,0,0,1,2.49,18,10.73,10.73,0,0,1,5.94,17.58Zm0,6A8.7,8.7,0,0,1,2.22,23V21.76a12.72,12.72,0,0,0,3.72.47,12.82,12.82,0,0,0,3.73-.47V23A8.8,8.8,0,0,1,5.94,23.56Zm3.73-3.14A8.7,8.7,0,0,1,5.94,21a9,9,0,0,1-3.72-.56v-1.2a12.72,12.72,0,0,0,3.72.47,12.82,12.82,0,0,0,3.73-.47ZM2.22,24.3a12.72,12.72,0,0,0,3.72.47,12.82,12.82,0,0,0,3.73-.47v1.22a8.7,8.7,0,0,1-3.73.56,9,9,0,0,1-3.72-.56Z" fill="#2c5967"/><path d="M24.12,14.54V3.28a.91.91,0,0,0-.91-.91H22V3.59h.91V14.23H14.54V3.59h.91V2.37H14.23a.91.91,0,0,0-.91.91V14.54a.91.91,0,0,0,.91.91h9A.91.91,0,0,0,24.12,14.54Z" fill="#2c5967"/><path d="M16.36,2.22V3.74h4.72V2.22a.31.31,0,0,0-.31-.31H19.62a.92.92,0,0,0-1.83,0H16.67A.31.31,0,0,0,16.36,2.22Z" fill="#2c5967"/><rect x="15.45" y="5.56" width="6.39" height="1.22" fill="#2c5967"/><rect x="15.45" y="7.39" width="6.39" height="1.22" fill="#2c5967"/><polygon points="21.18 10.25 20.33 9.39 17.94 11.78 16.98 10.84 16.12 11.69 17.94 13.5 21.18 10.25" fill="#2c5967"/></svg>