<svg id="Layer_1" data-name="Layer 1" xmlns="http://www.w3.org/2000/svg" viewBox="0 0 36.52 42"><title>Other - ASM-Storage-opt1</title><metadata><?xpacket begin="﻿" id="W5M0MpCehiHzreSzNTczkc9d"?>
<x:xmpmeta xmlns:x="adobe:ns:meta/" x:xmptk="Adobe XMP Core 6.0-c006 79.164648, 2021/01/12-15:52:29        ">
   <rdf:RDF xmlns:rdf="http://www.w3.org/1999/02/22-rdf-syntax-ns#">
      <rdf:Description rdf:about=""
            xmlns:xmp="http://ns.adobe.com/xap/1.0/"
            xmlns:xmpMM="http://ns.adobe.com/xap/1.0/mm/"
            xmlns:stEvt="http://ns.adobe.com/xap/1.0/sType/ResourceEvent#"
            xmlns:xmpRights="http://ns.adobe.com/xap/1.0/rights/"
            xmlns:dc="http://purl.org/dc/elements/1.1/"
            xmlns:lr="http://ns.adobe.com/lightroom/1.0/">
         <xmp:MetadataDate>2022-03-02T18:24:52-06:00</xmp:MetadataDate>
         <xmpMM:InstanceID>xmp.iid:333cfb68-8143-4bc3-b24c-2a9af2f7e058</xmpMM:InstanceID>
         <xmpMM:DocumentID>xmp.did:1370d2aa-8e62-4287-b06f-27ebbc29b5bf</xmpMM:DocumentID>
         <xmpMM:OriginalDocumentID>xmp.did:1370d2aa-8e62-4287-b06f-27ebbc29b5bf</xmpMM:OriginalDocumentID>
         <xmpMM:History>
            <rdf:Seq>
               <rdf:li>
                  <rdf:Description>
                     <stEvt:action>saved</stEvt:action>
                     <stEvt:instanceID>xmp.iid:1370d2aa-8e62-4287-b06f-27ebbc29b5bf</stEvt:instanceID>
                     <stEvt:when>2021-11-22T11:59:50-06:00</stEvt:when>
                     <stEvt:softwareAgent>Adobe Bridge 2021 (Macintosh)</stEvt:softwareAgent>
                     <stEvt:changed>/metadata</stEvt:changed>
                  </rdf:Description>
               </rdf:li>
               <rdf:li>
                  <rdf:Description>
                     <stEvt:action>saved</stEvt:action>
                     <stEvt:instanceID>xmp.iid:333cfb68-8143-4bc3-b24c-2a9af2f7e058</stEvt:instanceID>
                     <stEvt:when>2022-03-02T18:24:52-06:00</stEvt:when>
                     <stEvt:softwareAgent>Adobe Bridge 2021 (Macintosh)</stEvt:softwareAgent>
                     <stEvt:changed>/metadata</stEvt:changed>
                  </rdf:Description>
               </rdf:li>
            </rdf:Seq>
         </xmpMM:History>
         <xmpRights:Marked>True</xmpRights:Marked>
         <dc:title>
            <rdf:Alt>
               <rdf:li xml:lang="x-default">Other - ASM-Storage-opt1</rdf:li>
            </rdf:Alt>
         </dc:title>
         <dc:subject>
            <rdf:Bag>
               <rdf:li>icon</rdf:li>
               <rdf:li>database</rdf:li>
               <rdf:li>server</rdf:li>
               <rdf:li>technology</rdf:li>
               <rdf:li>automatic storage management</rdf:li>
               <rdf:li>disk</rdf:li>
               <rdf:li>group</rdf:li>
               <rdf:li>administration</rdf:li>
               <rdf:li>server</rdf:li>
               <rdf:li>platform</rdf:li>
            </rdf:Bag>
         </dc:subject>
         <dc:rights>
            <rdf:Alt>
               <rdf:li xml:lang="x-default">Oracle All Rights Reserved</rdf:li>
            </rdf:Alt>
         </dc:rights>
         <lr:hierarchicalSubject>
            <rdf:Bag>
               <rdf:li>Other Keywords|technology</rdf:li>
            </rdf:Bag>
         </lr:hierarchicalSubject>
      </rdf:Description>
   </rdf:RDF>
</x:xmpmeta>
                                                                                                    
                                                                                                    
                                                                                                    
                                                                                                    
                                                                                                    
                                                                                                    
                               
<?xpacket end="w"?></metadata>
<path d="M18.26,41.5c-2.28,0-7.6-.26-7.6-2.7V27.46c0-2,3.41-2.62,6.47-2.74V24a2.4,2.4,0,0,1-1-1H6V19.08H.5V17.63L1.79,17V.5H12.15V17l.47.23.46-.23V.5H23.44V17l.47.23.46-.23V.5H34.73V17l1.29.65v1.45H30.54V23H20.41a2.48,2.48,0,0,1-1,1v.78c3,.12,6.44.7,6.44,2.66V38.8C25.86,41.24,20.54,41.5,18.26,41.5Z" fill="#fff"/><path d="M34.23,1V17.29l1.29.65v.64H30v3.87h-10a2,2,0,0,1-1.16,1.17V25.2c1.94.05,6.44.36,6.44,2.18,0,0,0,0,0,0s0,0,0,0V38.8c0,2.14-6.37,2.2-7.1,2.2s-7.1-.06-7.1-2.2V27.46s0,0,0,0,0,0,0,0c0-1.83,4.56-2.13,6.47-2.18V23.64a2,2,0,0,1-1.19-1.19h-10V18.58H1v-.64l1.29-.65V1h9.36V17.29l1,.48,1-.48V1h9.36V17.29l1,.48,1-.48V1h9.36m1-1H1.29V16.67L.55,17,0,17.32v2.26H5.49v3.87H15.83a3.16,3.16,0,0,0,.8.79c-4.29.23-6.47,1.29-6.47,3.14h0V38.8c0,2.78,5.08,3.2,8.1,3.2s8.1-.42,8.1-3.2V27.39h0c0-1.85-2.17-2.9-6.44-3.14v0a2.69,2.69,0,0,0,.77-.77H31V19.58h5.49V17.32L36,17l-.74-.37V0Z" fill="#fff"/><rect x="15.84" y="3.9" width="4.84" height="1.29" fill="#2c5967"/><circle cx="18.26" cy="14.55" r="0.65" fill="#2c5967"/><rect x="15.84" y="6.48" width="4.84" height="1.29" fill="#2c5967"/><rect x="15.84" y="9.06" width="4.84" height="1.29" fill="#2c5967"/><rect x="27.13" y="3.9" width="4.84" height="1.29" fill="#2c5967"/><path d="M34.23,17.29V1H24.87V17.29l-1,.48-1-.48V1H13.58V17.29l-1,.48-1-.48V1H2.29V17.29L1,17.94v.64H6.49v3.87h10a2,2,0,0,0,1.19,1.19V25.2c-1.91.05-6.47.35-6.47,2.18,0,0,0,0,0,0s0,0,0,0V38.8c0,2.14,6.37,2.2,7.1,2.2s7.1-.06,7.1-2.2V27.46s0,0,0,0,0,0,0,0c0-1.82-4.5-2.13-6.44-2.18V23.62a2,2,0,0,0,1.16-1.17H30V18.58h5.49v-.64Zm-19.36-15h6.78v15H14.87Zm2.75,19.52a.64.64,0,0,1,.64-.65.65.65,0,1,1,0,1.29A.64.64,0,0,1,17.62,21.81ZM3.58,2.29h6.78v15H3.58Zm4.2,16.29h9.85V20a2,2,0,0,0-1.19,1.18H7.78ZM18.26,39.71c-3.47,0-5.47-.63-5.81-1V36.37a19,19,0,0,0,5.81.83,19,19,0,0,0,5.81-.83v2.35C23.73,39.08,21.73,39.71,18.26,39.71Zm5.81-4.79c-.34.35-2.34,1-5.81,1s-5.47-.64-5.81-1V32.63a18.93,18.93,0,0,0,5.81.82,18.9,18.9,0,0,0,5.81-.82Zm0-3.75c-.34.36-2.34,1-5.81,1s-5.47-.63-5.81-1V28.76a18.58,18.58,0,0,0,5.81.8,18.58,18.58,0,0,0,5.81-.8ZM24,27.38c-.55.36-2.5.89-5.71.89s-5.16-.53-5.7-.89c.54-.36,2.49-.9,5.7-.9S23.42,27,24,27.38Zm4.77-6.22H20.08A2,2,0,0,0,18.92,20V18.58h9.82Zm-2.58-3.87v-15h6.78v15Z" fill="#2c5967"/><circle cx="29.47" cy="14.55" r="0.65" fill="#2c5967"/><rect x="27.13" y="6.48" width="4.84" height="1.29" fill="#2c5967"/><rect x="27.13" y="9.06" width="4.84" height="1.29" fill="#2c5967"/><rect x="4.55" y="3.9" width="4.84" height="1.29" fill="#2c5967"/><circle cx="7.05" cy="14.55" r="0.65" fill="#2c5967"/><rect x="4.55" y="6.48" width="4.84" height="1.29" fill="#2c5967"/><rect x="4.55" y="9.06" width="4.84" height="1.29" fill="#2c5967"/></svg>