<svg id="Layer_1" data-name="Layer 1" xmlns="http://www.w3.org/2000/svg" viewBox="0 0 40.18 42"><metadata><?xpacket begin="﻿" id="W5M0MpCehiHzreSzNTczkc9d"?>
<x:xmpmeta xmlns:x="adobe:ns:meta/" x:xmptk="Adobe XMP Core 6.0-c006 79.164648, 2021/01/12-15:52:29        ">
   <rdf:RDF xmlns:rdf="http://www.w3.org/1999/02/22-rdf-syntax-ns#">
      <rdf:Description rdf:about=""
            xmlns:dc="http://purl.org/dc/elements/1.1/"
            xmlns:xmp="http://ns.adobe.com/xap/1.0/"
            xmlns:xmpMM="http://ns.adobe.com/xap/1.0/mm/"
            xmlns:stEvt="http://ns.adobe.com/xap/1.0/sType/ResourceEvent#"
            xmlns:xmpRights="http://ns.adobe.com/xap/1.0/rights/">
         <dc:subject>
            <rdf:Bag>
               <rdf:li>icon</rdf:li>
               <rdf:li>technology</rdf:li>
               <rdf:li>data</rdf:li>
               <rdf:li>computer</rdf:li>
               <rdf:li>hardware</rdf:li>
               <rdf:li>server</rdf:li>
               <rdf:li>database</rdf:li>
               <rdf:li>OLTP</rdf:li>
               <rdf:li>analytics</rdf:li>
               <rdf:li>storage</rdf:li>
               <rdf:li>service</rdf:li>
            </rdf:Bag>
         </dc:subject>
         <dc:rights>
            <rdf:Alt>
               <rdf:li xml:lang="x-default">Oracle All Rights</rdf:li>
            </rdf:Alt>
         </dc:rights>
         <xmp:MetadataDate>2023-08-10T12:29:25-06:00</xmp:MetadataDate>
         <xmpMM:InstanceID>xmp.iid:38dada72-a0c8-443b-bd62-cb0bbe2ddd41</xmpMM:InstanceID>
         <xmpMM:DocumentID>xmp.did:8327f111-357d-44de-90a3-9382ef436612</xmpMM:DocumentID>
         <xmpMM:OriginalDocumentID>xmp.did:8327f111-357d-44de-90a3-9382ef436612</xmpMM:OriginalDocumentID>
         <xmpMM:History>
            <rdf:Seq>
               <rdf:li>
                  <rdf:Description>
                     <stEvt:action>saved</stEvt:action>
                     <stEvt:instanceID>xmp.iid:8327f111-357d-44de-90a3-9382ef436612</stEvt:instanceID>
                     <stEvt:when>2023-08-10T12:29-06:00</stEvt:when>
                     <stEvt:softwareAgent>Adobe Bridge 2021 (Macintosh)</stEvt:softwareAgent>
                     <stEvt:changed>/metadata</stEvt:changed>
                  </rdf:Description>
               </rdf:li>
               <rdf:li>
                  <rdf:Description>
                     <stEvt:action>saved</stEvt:action>
                     <stEvt:instanceID>xmp.iid:38dada72-a0c8-443b-bd62-cb0bbe2ddd41</stEvt:instanceID>
                     <stEvt:when>2023-08-10T12:29:25-06:00</stEvt:when>
                     <stEvt:softwareAgent>Adobe Bridge 2021 (Macintosh)</stEvt:softwareAgent>
                     <stEvt:changed>/metadata</stEvt:changed>
                  </rdf:Description>
               </rdf:li>
            </rdf:Seq>
         </xmpMM:History>
         <xmpRights:Marked>True</xmpRights:Marked>
      </rdf:Description>
   </rdf:RDF>
</x:xmpmeta>
                                                                                                    
                                                                                                    
                                                                                                    
                                                                                                    
                                                                                                    
                                                                                                    
                                                                                                    
                                                                                                    
                                                                                                    
                                                                                                    
                                                                                                    
                                                                                                    
                                                                                                    
                                                                                                    
    
<?xpacket end="w"?></metadata>
<path d="M.5,41.5V21.91H11.61V16.45H4L4.11,15a7.54,7.54,0,0,1,4-6.14,1.46,1.46,0,0,0,.75-1,5.85,5.85,0,0,1,5.75-4.73,5,5,0,0,1,.55,0h.14a1.32,1.32,0,0,0,1-.43A7.12,7.12,0,0,1,27.92,4.44a1.49,1.49,0,0,0,1,.78,7.28,7.28,0,0,1,4.83,10.54l-.37.69h-5V18.5h1.06l10.25-2.38V41.5Z" fill="#fff"/><path d="M21.55,1a6.57,6.57,0,0,1,5.92,3.66,2,2,0,0,0,1.35,1,6.76,6.76,0,0,1,4.5,9.81l-.23.43H27.87V19h1.62l9.69-2.25V41H1V22.41H12.11V16H4.55l.06-.87A7,7,0,0,1,8.38,9.34,2,2,0,0,0,9.4,8a5.35,5.35,0,0,1,5.25-4.32,4.1,4.1,0,0,1,.5,0h.19a1.84,1.84,0,0,0,1.37-.59A6.62,6.62,0,0,1,21.55,1m0-1A7.67,7.67,0,0,0,16,2.43a.84.84,0,0,1-.63.27h-.09l-.6,0A6.33,6.33,0,0,0,8.41,7.8a.9.9,0,0,1-.49.65A8.05,8.05,0,0,0,3.61,15l-.06.87L3.47,17h7.64v4.46H0V42H40.18V15.49L39,15.78,29.38,18h-.51V17h4.82l.28-.53L34.2,16A7.8,7.8,0,0,0,31.5,5.74a7.66,7.66,0,0,0-2.46-1,1,1,0,0,1-.68-.52A7.55,7.55,0,0,0,21.55,0Z" fill="#fff"/><path d="M12.11,41H27.87V9.08H12.11Zm1.62-30.3H26.25V39.38H13.73Z" fill="#2c5967"/><rect x="14.94" y="11.91" width="10.1" height="1.62" fill="#2c5967"/><path d="M23.83,14.74H16.15v1.41H14.94v1.62h1.21v1.41h7.68V17.77H25V16.15H23.83Zm-1.62,2.83H17.77V16.35h4.44Z" fill="#2c5967"/><rect x="3.83" y="25.24" width="7.07" height="1.62" fill="#2c5967"/><rect x="3.83" y="28.07" width="7.07" height="1.62" fill="#2c5967"/><rect x="3.83" y="30.9" width="7.07" height="1.62" fill="#2c5967"/><rect x="3.83" y="33.73" width="7.07" height="1.62" fill="#2c5967"/><rect x="29.08" y="22.41" width="1.62" height="1.62" fill="#2c5967"/><rect x="29.08" y="25.24" width="1.62" height="1.62" fill="#2c5967"/><rect x="31.91" y="22.41" width="1.62" height="1.62" fill="#2c5967"/><rect x="31.91" y="25.24" width="1.62" height="1.62" fill="#2c5967"/><rect x="31.91" y="28.07" width="1.62" height="1.62" fill="#2c5967"/><rect x="31.91" y="30.9" width="1.62" height="1.62" fill="#2c5967"/><rect x="34.74" y="22.41" width="1.62" height="1.62" fill="#2c5967"/><rect x="34.74" y="25.24" width="1.62" height="1.62" fill="#2c5967"/><rect x="34.74" y="28.07" width="1.62" height="1.62" fill="#2c5967"/><rect x="34.74" y="30.9" width="1.62" height="1.62" fill="#2c5967"/><rect x="31.91" y="33.73" width="1.62" height="1.62" fill="#2c5967"/><rect x="29.08" y="28.07" width="1.62" height="1.62" fill="#2c5967"/><rect x="29.08" y="30.9" width="1.62" height="1.62" fill="#2c5967"/><rect x="29.08" y="33.73" width="1.62" height="1.62" fill="#2c5967"/><rect x="34.74" y="33.73" width="1.62" height="1.62" fill="#2c5967"/><polygon points="29.08 19.09 29.08 20.75 37.57 18.79 37.57 39.38 33.52 39.38 33.52 37.16 31.91 37.16 31.91 39.38 29.08 39.38 29.08 41 39.18 41 39.18 40.19 39.18 39.38 39.18 16.75 29.08 19.09" fill="#2c5967"/><polygon points="8.07 37.16 6.45 37.16 6.45 39.38 2.62 39.38 2.62 24.03 10.9 24.03 10.9 22.41 1 22.41 1 39.38 1 40.19 1 41 11.1 41 11.1 39.38 8.07 39.38 8.07 37.16" fill="#2c5967"/><path d="M32.1,14.33h-3V16h4l.23-.43a6.76,6.76,0,0,0-4.5-9.81,2,2,0,0,1-1.35-1A6.61,6.61,0,0,0,16.71,3.11a1.83,1.83,0,0,1-1.56.58,5.25,5.25,0,0,0-2.65.43A5.35,5.35,0,0,0,9.39,8a1.93,1.93,0,0,1-1,1.35,7,7,0,0,0-3.77,5.74L4.55,16H10.9V14.33H6.36a5.42,5.42,0,0,1,2.77-3.56A3.56,3.56,0,0,0,11,8.31,3.75,3.75,0,0,1,13.15,5.6,3.68,3.68,0,0,1,15,5.3a3.46,3.46,0,0,0,2.89-1.09,5,5,0,0,1,3.66-1.59A5,5,0,0,1,26,5.38a3.6,3.6,0,0,0,2.45,1.91A4.85,4.85,0,0,1,30.1,8,5.16,5.16,0,0,1,32.1,14.33Z" fill="#2c5967"/><polygon points="24.19 27.56 21.97 27.56 20.08 30.8 18.14 27.56 15.83 27.56 18.58 32.08 15.69 36.96 17.91 36.96 19.93 33.4 22.02 36.96 24.34 36.96 21.43 32.12 24.19 27.56" fill="#2c5967"/><rect x="14.94" y="20.39" width="10.1" height="1.62" fill="#2c5967"/><rect x="14.94" y="23.22" width="10.1" height="1.62" fill="#2c5967"/></svg>