<svg id="Layer_1" data-name="Layer 1" xmlns="http://www.w3.org/2000/svg" viewBox="0 0 50.89 42"><metadata><?xpacket begin="﻿" id="W5M0MpCehiHzreSzNTczkc9d"?>
<x:xmpmeta xmlns:x="adobe:ns:meta/" x:xmptk="Adobe XMP Core 6.0-c006 79.164648, 2021/01/12-15:52:29        ">
   <rdf:RDF xmlns:rdf="http://www.w3.org/1999/02/22-rdf-syntax-ns#">
      <rdf:Description rdf:about=""
            xmlns:dc="http://purl.org/dc/elements/1.1/"
            xmlns:xmp="http://ns.adobe.com/xap/1.0/"
            xmlns:xmpMM="http://ns.adobe.com/xap/1.0/mm/"
            xmlns:stEvt="http://ns.adobe.com/xap/1.0/sType/ResourceEvent#">
         <dc:subject>
            <rdf:Bag>
               <rdf:li>Storage</rdf:li>
               <rdf:li>Block</rdf:li>
               <rdf:li>Clone</rdf:li>
               <rdf:li>icon</rdf:li>
            </rdf:Bag>
         </dc:subject>
         <xmp:MetadataDate>2022-11-11T13:21:42-06:00</xmp:MetadataDate>
         <xmpMM:InstanceID>xmp.iid:d4c0f723-58cd-440e-aa64-361931418cad</xmpMM:InstanceID>
         <xmpMM:DocumentID>xmp.did:d4c0f723-58cd-440e-aa64-361931418cad</xmpMM:DocumentID>
         <xmpMM:OriginalDocumentID>xmp.did:d4c0f723-58cd-440e-aa64-361931418cad</xmpMM:OriginalDocumentID>
         <xmpMM:History>
            <rdf:Seq>
               <rdf:li>
                  <rdf:Description>
                     <stEvt:action>saved</stEvt:action>
                     <stEvt:instanceID>xmp.iid:d4c0f723-58cd-440e-aa64-361931418cad</stEvt:instanceID>
                     <stEvt:when>2022-11-11T13:21:42-06:00</stEvt:when>
                     <stEvt:softwareAgent>Adobe Bridge 2021 (Macintosh)</stEvt:softwareAgent>
                     <stEvt:changed>/metadata</stEvt:changed>
                  </rdf:Description>
               </rdf:li>
            </rdf:Seq>
         </xmpMM:History>
      </rdf:Description>
   </rdf:RDF>
</x:xmpmeta>
                                                                                                    
                                                                                                    
                                                                                                    
                                                                                                    
                                                                                                    
                                                                                                    
                                                                                                    
                                                                                                    
                                                                                                    
                                                                                                    
                                                                                                    
                                                                                                    
                                                                                                    
                                                                                                    
                                                                                                    
                                                                                                    
                                                                                                    
                                                                                                    
                                                                                                    
                                                                                                    
                           
<?xpacket end="w"?></metadata>
<rect x="0.5" y="0.5" width="49.89" height="41" rx="2.17" fill="#fff"/><path d="M48.22,1a1.67,1.67,0,0,1,1.67,1.67V39.33A1.67,1.67,0,0,1,48.22,41H2.67A1.67,1.67,0,0,1,1,39.33V2.67A1.67,1.67,0,0,1,2.67,1H48.22m0-1H2.67A2.68,2.68,0,0,0,0,2.67V39.33A2.68,2.68,0,0,0,2.67,42H48.22a2.68,2.68,0,0,0,2.67-2.67V2.67A2.68,2.68,0,0,0,48.22,0Z" fill="#fff"/><path d="M4.34,39.52H2.67a.18.18,0,0,1-.19-.19V6.47H4.33V5H1V39.33A1.67,1.67,0,0,0,2.67,41H4.89A2.84,2.84,0,0,1,4.34,39.52Z" fill="#2c5967"/><path d="M4.33,2.67A2.75,2.75,0,0,1,4.89,1H2.67A1.67,1.67,0,0,0,1,2.67v1.2H4.33Z" fill="#2c5967"/><path d="M8.79,39.52H7.11a.18.18,0,0,1-.18-.19V6.47H8.78V5H5.44V39.33A1.67,1.67,0,0,0,7.11,41H9.34A2.68,2.68,0,0,1,8.79,39.52Z" fill="#2c5967"/><path d="M5.44,2.67v1.2H8.78V2.67A2.75,2.75,0,0,1,9.34,1H7.11A1.67,1.67,0,0,0,5.44,2.67Z" fill="#2c5967"/><path d="M45.44,5H9.89V39.33A1.67,1.67,0,0,0,11.56,41H48.22a1.67,1.67,0,0,0,1.67-1.67V5H45.44Zm3,34.34a.19.19,0,0,1-.19.19H11.56a.18.18,0,0,1-.19-.19V6.47h37Z" fill="#2c5967"/><path d="M28.74,21.7V9.46H16.29V21.7Zm-11-10.76h9.48v9.28H17.78Z" fill="#2c5967"/><path d="M43.54,21.7V9.46H31.1V21.7Zm-11-10.76h9.48v9.28H32.58Z" fill="#2c5967"/><path d="M28.74,24H16.29V36.23H28.74ZM27.26,34.75H17.78V25.47h9.48Z" fill="#2c5967"/><path d="M43.54,36.23V24H31.1V36.23Zm-1.48-1.48H32.58V25.47h9.48Z" fill="#2c5967"/><path d="M48.22,1H11.56A1.67,1.67,0,0,0,9.89,2.67v1.2h40V2.67A1.67,1.67,0,0,0,48.22,1Z" fill="#2c5967"/></svg>