<?xml version="1.0" encoding="UTF-8" standalone="no"?>
<svg
   id="Layer_1"
   data-name="Layer 1"
   viewBox="0 0 41.67 40"
   version="1.1"
   sodipodi:docname="File Storage Clone.svg"
   inkscape:version="1.3.2 (091e20e, 2023-11-25, custom)"
   xmlns:inkscape="http://www.inkscape.org/namespaces/inkscape"
   xmlns:sodipodi="http://sodipodi.sourceforge.net/DTD/sodipodi-0.dtd"
   xmlns="http://www.w3.org/2000/svg"
   xmlns:svg="http://www.w3.org/2000/svg">
  <defs
     id="defs5" />
  <sodipodi:namedview
     id="namedview5"
     pagecolor="#ffffff"
     bordercolor="#666666"
     borderopacity="1.0"
     inkscape:showpageshadow="2"
     inkscape:pageopacity="0.0"
     inkscape:pagecheckerboard="0"
     inkscape:deskcolor="#d1d1d1"
     inkscape:zoom="19.275"
     inkscape:cx="20.830091"
     inkscape:cy="20"
     inkscape:window-width="1920"
     inkscape:window-height="1009"
     inkscape:window-x="1072"
     inkscape:window-y="425"
     inkscape:window-maximized="1"
     inkscape:current-layer="Layer_1" />
  <path
     id="path4-1"
     style="fill:#fcfbfa"
     d="M 3.015625,-1.9746094 C 1.6864809,-1.8869242 0.45927968,-0.98768988 -0.03515625,0.24804688 -0.55724461,1.5431176 -0.2425243,3.002963 -0.33007812,4.3703125 V 25 C -0.83205579,25.12133 -1.8273712,24.749322 -2,25.2 V 42 c 14.085205,-0.01068 28.173862,0.02139 42.256908,-0.01604 1.352562,-0.07977 2.615954,-0.971203 3.116139,-2.23396 0.530888,-1.328508 0.206752,-2.819904 0.296875,-4.219922 -0.0138,-11.425934 0.02745,-22.853443 -0.02031,-34.2784058 C 43.466329,-0.70752188 41.542036,-2.2120556 39.6,-2 27.424822,-1.989298 15.246189,-2.021398 3.0731697,-1.98396 Z"
     sodipodi:nodetypes="ccccccccccccc" />
  <path
     id="path5"
     d="M 5.74,35.28 A 1.33,1.33 0 0 1 4.65,34.83 1.93,1.93 0 0 1 4.28,33.55 1.66,1.66 0 0 1 4.66,32.37 1.37,1.37 0 0 1 5.74,32 a 3.14,3.14 0 0 1 0.51,0.05 4.37,4.37 0 0 1 0.63,0.2 V 31.34 A 2.53,2.53 0 0 0 6.33,31.15 2.8,2.8 0 0 0 5.66,31 2.74,2.74 0 0 0 4.34,31.31 2.06,2.06 0 0 0 3.48,32.18 3.34,3.34 0 0 0 3.8,35.5 2.34,2.34 0 0 0 5.61,36.18 3.1,3.1 0 0 0 6.39,36.09 3,3 0 0 0 7,35.9 V 35 A 5.47,5.47 0 0 1 6.31,35.2 2.3,2.3 0 0 1 5.74,35.28 Z M 10.37,27 H 0 V 40 H 10.37 Z M 1.48,38.52 v -10 h 7.41 v 10 z M 9.2600002,13.33 H 15 v 1.48 H 9.2600002 Z M 36.67,14.82 A 1.51,1.51 0 0 0 35.15,13.33 H 18.26 l -1.58,-2 A 1.5,1.5 0 0 0 15.49,10.76 H 8 A 1.48,1.48 0 0 0 6.5,12.22 V 25.93 H 8 v -8.52 h 7.86 A 1.57,1.57 0 0 0 17,16.83 l 1.59,-2 h 16.6 V 32 H 11.48 v 1.48 h 25.19 z m -20.81,1.09 c 0,0 0,0 0,0 H 8 v -3.69 h 7.55 l 1.63,2.07 z M 40,0 H 3.33 A 1.66,1.66 0 0 0 1.67,1.67 V 3 h 40 V 1.67 A 1.67,1.67 0 0 0 40,0 Z M 1.67,25.93 H 3.15 V 5.56 h 37 v 32.77 a 0.19,0.19 0 0 1 -0.19,0.19 H 11.48 V 40 H 40 a 1.67,1.67 0 0 0 1.67,-1.67 V 4.07 h -40 z"
     style="fill:#2c5967" />
</svg>
