<?xml version="1.0" encoding="UTF-8" standalone="no"?>
<svg
   id="Layer_1"
   data-name="Layer 1"
   viewBox="0 0 44.039188 44.026714"
   version="1.1"
   sodipodi:docname="File Storage Replication Process.svg"
   width="44.039188"
   height="44.026714"
   inkscape:version="1.3.2 (091e20e, 2023-11-25, custom)"
   xmlns:inkscape="http://www.inkscape.org/namespaces/inkscape"
   xmlns:sodipodi="http://sodipodi.sourceforge.net/DTD/sodipodi-0.dtd"
   xmlns="http://www.w3.org/2000/svg"
   xmlns:svg="http://www.w3.org/2000/svg">
  <defs
     id="defs7" />
  <sodipodi:namedview
     id="namedview7"
     pagecolor="#ffffff"
     bordercolor="#666666"
     borderopacity="1.0"
     inkscape:showpageshadow="2"
     inkscape:pageopacity="0.0"
     inkscape:pagecheckerboard="0"
     inkscape:deskcolor="#d1d1d1"
     inkscape:zoom="17.512093"
     inkscape:cx="22.013359"
     inkscape:cy="22.013359"
     inkscape:window-width="1920"
     inkscape:window-height="1009"
     inkscape:window-x="1072"
     inkscape:window-y="425"
     inkscape:window-maximized="1"
     inkscape:current-layer="Layer_1" />
  <path
     id="path7-5"
     style="fill:#fcfbfa"
     d="m 23.086801,0.14541407 c -1.324242,0.3606691 -2.265149,1.66099293 -2.289062,3.01953123 -0.0912,1.4884896 -0.01298,3.1463934 -0.03906,4.7 0.11882,0.9009245 -0.0682,1.0554236 -0.631513,0.2915704 -0.712672,-0.7231125 -1.42423,-1.4473212 -2.136065,-2.1712579 -1.327132,1.2530057 -2.654998,2.5052351 -3.984375,3.7558594 0.628516,0.4460088 0.790638,0.8105658 -0.09047,0.9900218 -2.182001,1.035305 -3.884518,3.033809 -4.5997176,5.336043 -0.3848428,1.154845 -0.4569341,2.378629 -0.4387218,3.587998 -2.1043878,0.02429 -4.2265778,-0.04823 -6.3200197,0.03558 -1.0099038,0.259124 -1.86675202,0.948382 -2.28704262,1.908412 -0.4711645,1.366178 -0.1649686,2.861391 -0.2523127,4.285308 0.013111,5.088415 -0.026198,10.182021 0.019612,15.267199 0.075532,0.830628 0.4920294,1.627499 1.13888012,2.141556 1.19337,1.042241 2.8621519,0.642327 4.3114298,0.721323 5.0182795,-0.01448 10.0382195,0.02886 15.0554695,-0.02148 1.68353,-0.199188 2.932403,-1.869894 2.734375,-3.538672 V 24.295809 c 1.701014,0.197774 3.435832,0.03466 5.15039,0.08789 4.281686,-0.01452 8.565072,0.02892 12.845703,-0.02148 1.686099,-0.191735 2.943179,-1.866381 2.744141,-3.536726 -0.0088,-6.030821 0.01696,-12.0659719 -0.01172,-18.0941414 C 43.889953,1.7385745 43.21137,0.82383437 42.348604,0.37673147 41.256165,-0.21083973 40.004732,0.08280767 38.818442,0.01455467 H 23.430551 Z M 20.758676,19.684477 c -2.117057,-0.06863 -4.258405,-0.0096 -6.384765,-0.0293 -0.0267,-1.09392 0.105965,-2.280904 0.890625,-3.113281 0.908349,0.856616 1.816681,1.71325 2.724609,2.570312 0.923089,-0.936285 1.846269,-1.872479 2.769531,-2.808594 v 3.38086 z"
     sodipodi:nodetypes="ccccccccccccccccccccccccccscccccs" />
  <path
     d="m 12.388442,18.824555 a 5.51,5.51 0 0 1 5.51,-5.51 h 0.92 l -1.94,2 1.06,1 3.71,-3.76 v 0 l -3.71,-3.7700003 -1.06,1 2,2.0000003 h -1 a 7,7 0 0 0 -7,7 v 1.71 h 1.48 z"
     fill="#2c5967"
     id="path1" />
  <path
     d="M 3.1884416,42.014555 H 20.108442 a 1.16,1.16 0 0 0 1.17,-1.16 v -16.06 H 2.0184416 v 16.06 a 1.16,1.16 0 0 0 1.17,1.16 z m 16.6100004,-1.48 H 3.4984416 v -14.26 H 19.798442 Z"
     fill="#2c5967"
     id="path2" />
  <path
     d="m 21.138442,22.204555 a 1.21,1.21 0 0 0 -0.83,-0.55 H 3.0184416 a 1.24,1.24 0 0 0 -1,1.19 v 0.84 H 21.278442 v -0.76 a 1.07,1.07 0 0 0 -0.14,-0.72 z"
     fill="#2c5967"
     id="path3" />
  <path
     d="m 18.688442,30.434555 a 1.2,1.2 0 0 0 -1.2,-1.2 h -6.37 l -0.73,-1.09 a 1.28,1.28 0 0 0 -1.0700004,-0.57 h -3.51 a 1.2,1.2 0 0 0 -1.2,1.2 v 10.65 H 18.688442 Z m -1.48,7.51 H 6.0884416 v -8.93 h 3.13 l 1.1100004,1.7 h 6.88 z"
     fill="#2c5967"
     id="path4" />
  <path
     d="m 23.928442,22.384555 h 16.92 a 1.16,1.16 0 0 0 1.17,-1.16 V 5.1645547 h -19.26 V 21.224555 a 1.16,1.16 0 0 0 1.17,1.16 z m 16.61,-1.48 h -16.3 V 6.6445547 h 16.3 z"
     fill="#2c5967"
     id="path5" />
  <path
     d="m 41.878442,2.5745547 a 1.21,1.21 0 0 0 -0.86,-0.56 h -17.22 a 1.24,1.24 0 0 0 -1,1.19 v 0.81 h 19.22 v -0.72 a 1.07,1.07 0 0 0 -0.14,-0.72 z"
     fill="#2c5967"
     id="path6" />
  <path
     d="m 39.428442,10.804555 a 1.2,1.2 0 0 0 -1.2,-1.2000003 h -6.37 l -0.73,-1.09 a 1.28,1.28 0 0 0 -1.11,-0.57 h -3.47 a 1.2,1.2 0 0 0 -1.2,1.2 V 19.794555 h 14.08 z m -1.48,7.51 h -11.12 V 9.4245547 h 3.13 l 1.11,1.6600003 h 6.88 z"
     fill="#2c5967"
     id="path7" />
</svg>
