<svg id="Layer_1" data-name="Layer 1" xmlns="http://www.w3.org/2000/svg" viewBox="0 0 42 42"><metadata><?xpacket begin="﻿" id="W5M0MpCehiHzreSzNTczkc9d"?>
<x:xmpmeta xmlns:x="adobe:ns:meta/" x:xmptk="Adobe XMP Core 6.0-c006 79.164648, 2021/01/12-15:52:29        ">
   <rdf:RDF xmlns:rdf="http://www.w3.org/1999/02/22-rdf-syntax-ns#">
      <rdf:Description rdf:about=""
            xmlns:dc="http://purl.org/dc/elements/1.1/"
            xmlns:xmp="http://ns.adobe.com/xap/1.0/"
            xmlns:xmpMM="http://ns.adobe.com/xap/1.0/mm/"
            xmlns:stEvt="http://ns.adobe.com/xap/1.0/sType/ResourceEvent#">
         <dc:subject>
            <rdf:Bag>
               <rdf:li>Storage</rdf:li>
               <rdf:li>Folder</rdf:li>
               <rdf:li>File</rdf:li>
               <rdf:li>icon</rdf:li>
               <rdf:li>cloning</rdf:li>
               <rdf:li>duplicate</rdf:li>
               <rdf:li>clone</rdf:li>
            </rdf:Bag>
         </dc:subject>
         <xmp:MetadataDate>2022-11-11T13:21:56-06:00</xmp:MetadataDate>
         <xmpMM:InstanceID>xmp.iid:44063236-6560-4ae5-9ad2-c6aecb6068b0</xmpMM:InstanceID>
         <xmpMM:DocumentID>xmp.did:44063236-6560-4ae5-9ad2-c6aecb6068b0</xmpMM:DocumentID>
         <xmpMM:OriginalDocumentID>xmp.did:44063236-6560-4ae5-9ad2-c6aecb6068b0</xmpMM:OriginalDocumentID>
         <xmpMM:History>
            <rdf:Seq>
               <rdf:li>
                  <rdf:Description>
                     <stEvt:action>saved</stEvt:action>
                     <stEvt:instanceID>xmp.iid:44063236-6560-4ae5-9ad2-c6aecb6068b0</stEvt:instanceID>
                     <stEvt:when>2022-11-11T13:21:56-06:00</stEvt:when>
                     <stEvt:softwareAgent>Adobe Bridge 2021 (Macintosh)</stEvt:softwareAgent>
                     <stEvt:changed>/metadata</stEvt:changed>
                  </rdf:Description>
               </rdf:li>
            </rdf:Seq>
         </xmpMM:History>
      </rdf:Description>
   </rdf:RDF>
</x:xmpmeta>
                                                                                                    
                                                                                                    
                                                                                                    
                                                                                                    
                                                                                                    
                                                                                                    
                                                                                                    
                                                                                                    
                                                                                                    
                                                                                                    
                                                                                                    
                                                                                                    
                                                                                                    
                                                                                                    
                                                                                                    
                                                                                                    
                                                                                                    
                                                                                                    
                                                                                                    
                                                                                                    
                           
<?xpacket end="w"?></metadata>
<rect x="0.5" y="0.5" width="41" height="41" rx="2.17" fill="#fff"/><path d="M39.33,1A1.67,1.67,0,0,1,41,2.67V39.33A1.67,1.67,0,0,1,39.33,41H2.67A1.67,1.67,0,0,1,1,39.33V2.67A1.67,1.67,0,0,1,2.67,1H39.33m0-1H2.67A2.68,2.68,0,0,0,0,2.67V39.33A2.68,2.68,0,0,0,2.67,42H39.33A2.68,2.68,0,0,0,42,39.33V2.67A2.68,2.68,0,0,0,39.33,0Z" fill="#fff"/><path d="M19.89,16.74h1.48V12.85H32.85v9.82H27.11v1.48h6.17a1,1,0,0,0,1-1V11.37H19.89Z" fill="#2c5967"/><path d="M34.33,9.48a1.1,1.1,0,0,0-.91-1.06H20.88a1.29,1.29,0,0,0-.93.77l-.06.14v.93H34.33Z" fill="#2c5967"/><path d="M24,15.44h1.77l.57,1.12h4v3.51H27.11v1.49h4.63V15.07H27.21l-.31-.6a.94.94,0,0,0-.83-.51H23.41a.93.93,0,0,0-.93.93v1.85H24Z" fill="#2c5967"/><path d="M6.74,21V37.06a1.16,1.16,0,0,0,1.17,1.16H24.83A1.16,1.16,0,0,0,26,37.06V21ZM24.52,36.74H8.22V22.48h16.3Z" fill="#2c5967"/><path d="M26,19.89v-.75a1.09,1.09,0,0,0-.14-.73,1.28,1.28,0,0,0-.83-.55H7.78a1.24,1.24,0,0,0-1,1.2v.83Z" fill="#2c5967"/><polygon points="27.11 28.13 28.09 29.12 29.15 28.08 29.15 30.59 27.15 30.59 27.15 32.07 30.63 32.07 30.63 28.09 31.69 29.12 32.73 28.07 29.89 25.28 27.11 28 27.05 28.07 27.11 28.13" fill="#2c5967"/><path d="M1,39.33A1.67,1.67,0,0,0,2.67,41H39.33A1.67,1.67,0,0,0,41,39.33V5.07H1ZM2.48,6.56h37V39.33a.18.18,0,0,1-.19.19H2.67a.18.18,0,0,1-.19-.19Z" fill="#2c5967"/><path d="M39.33,1H2.67A1.67,1.67,0,0,0,1,2.67V4H41V2.67A1.67,1.67,0,0,0,39.33,1Z" fill="#2c5967"/><path d="M22.21,25.44H15.84l-.73-1.08A1.27,1.27,0,0,0,14,23.78H10.53A1.2,1.2,0,0,0,9.33,25V35.63H23.41v-9A1.2,1.2,0,0,0,22.21,25.44Zm-.28,8.71H10.81V25.26h3.13l1.11,1.67h6.88Z" fill="#2c5967"/></svg>