<svg id="Layer_1" data-name="Layer 1" xmlns="http://www.w3.org/2000/svg" viewBox="0 0 42 42"><metadata><?xpacket begin="﻿" id="W5M0MpCehiHzreSzNTczkc9d"?>
<x:xmpmeta xmlns:x="adobe:ns:meta/" x:xmptk="Adobe XMP Core 6.0-c006 79.164648, 2021/01/12-15:52:29        ">
   <rdf:RDF xmlns:rdf="http://www.w3.org/1999/02/22-rdf-syntax-ns#">
      <rdf:Description rdf:about=""
            xmlns:dc="http://purl.org/dc/elements/1.1/"
            xmlns:xmp="http://ns.adobe.com/xap/1.0/"
            xmlns:xmpMM="http://ns.adobe.com/xap/1.0/mm/"
            xmlns:stEvt="http://ns.adobe.com/xap/1.0/sType/ResourceEvent#">
         <dc:subject>
            <rdf:Bag>
               <rdf:li>icon</rdf:li>
               <rdf:li>file</rdf:li>
               <rdf:li>folder</rdf:li>
               <rdf:li>camera</rdf:li>
               <rdf:li>storage</rdf:li>
            </rdf:Bag>
         </dc:subject>
         <xmp:MetadataDate>2022-11-11T13:22:16-06:00</xmp:MetadataDate>
         <xmpMM:InstanceID>xmp.iid:5c21cc30-0c57-4c79-8394-7f806517e18c</xmpMM:InstanceID>
         <xmpMM:DocumentID>xmp.did:5c21cc30-0c57-4c79-8394-7f806517e18c</xmpMM:DocumentID>
         <xmpMM:OriginalDocumentID>xmp.did:5c21cc30-0c57-4c79-8394-7f806517e18c</xmpMM:OriginalDocumentID>
         <xmpMM:History>
            <rdf:Seq>
               <rdf:li>
                  <rdf:Description>
                     <stEvt:action>saved</stEvt:action>
                     <stEvt:instanceID>xmp.iid:5c21cc30-0c57-4c79-8394-7f806517e18c</stEvt:instanceID>
                     <stEvt:when>2022-11-11T13:22:16-06:00</stEvt:when>
                     <stEvt:softwareAgent>Adobe Bridge 2021 (Macintosh)</stEvt:softwareAgent>
                     <stEvt:changed>/metadata</stEvt:changed>
                  </rdf:Description>
               </rdf:li>
            </rdf:Seq>
         </xmpMM:History>
      </rdf:Description>
   </rdf:RDF>
</x:xmpmeta>
                                                                                                    
                                                                                                    
                                                                                                    
                                                                                                    
                                                                                                    
                                                                                                    
                                                                                                    
                                                                                                    
                                                                                                    
                                                                                                    
                                                                                                    
                                                                                                    
                                                                                                    
                                                                                                    
                                                                                                    
                                                                                                    
                                                                                                    
                                                                                                    
                                                                                                    
                                                                                                    
                           
<?xpacket end="w"?></metadata>
<rect x="0.5" y="0.5" width="41" height="41" rx="2.17" fill="#fff"/><path d="M39.33,1A1.67,1.67,0,0,1,41,2.67V39.33A1.67,1.67,0,0,1,39.33,41H2.67A1.67,1.67,0,0,1,1,39.33V2.67A1.67,1.67,0,0,1,2.67,1H39.33m0-1H2.67A2.68,2.68,0,0,0,0,2.67V39.33A2.68,2.68,0,0,0,2.67,42H39.33A2.68,2.68,0,0,0,42,39.33V2.67A2.68,2.68,0,0,0,39.33,0Z" fill="#fff"/><path d="M2.67,39.52a.18.18,0,0,1-.19-.19V6.56h37v17a2.84,2.84,0,0,1,1.48.55V5.07H1V39.33A1.67,1.67,0,0,0,2.67,41H17.12a2.77,2.77,0,0,1-.56-1.48Z" fill="#2c5967"/><path d="M41,2.67A1.67,1.67,0,0,0,39.33,1H2.67A1.67,1.67,0,0,0,1,2.67V4H41Z" fill="#2c5967"/><path d="M34.48,14.33H17.6l-1.59-2a1.5,1.5,0,0,0-1.18-.57H7.31a1.48,1.48,0,0,0-1.5,1.46V34.52H16.56V33H7.3V18.41h7.86a1.56,1.56,0,0,0,1.2-.58l1.6-2H34.52v4.53a3.14,3.14,0,0,1,1.26,1.45l.21.5h0V15.82A1.51,1.51,0,0,0,34.48,14.33ZM15.2,16.91l0,0H7.3V13.22h7.55l1.62,2.07Z" fill="#2c5967"/><rect x="8.59" y="14.33" width="5.74" height="1.48" fill="#2c5967"/><path d="M39.33,24.7h-.92V23.41H36.93V24.7H35.87l-1.06-2.46A2,2,0,0,0,32.94,21H29a2.05,2.05,0,0,0-1.93,1.35l-.84,2.35h-1.7v-.81a1.78,1.78,0,0,0-1.78-1.78H21.67a1.78,1.78,0,0,0-1.78,1.78v.81h-.56a1.66,1.66,0,0,0-1.66,1.67v13A1.66,1.66,0,0,0,19.33,41h20A1.67,1.67,0,0,0,41,39.33v-13A1.67,1.67,0,0,0,39.33,24.7ZM28.46,22.85a.56.56,0,0,1,.53-.37h3.95a.55.55,0,0,1,.51.34l.81,1.88H27.8Zm-7.09,1a.3.3,0,0,1,.3-.3h1.07a.31.31,0,0,1,.3.3v.81H21.37ZM39.52,39.33a.18.18,0,0,1-.19.19h-20a.18.18,0,0,1-.18-.19v-13a.18.18,0,0,1,.18-.18h20a.18.18,0,0,1,.19.18Z" fill="#2c5967"/><path d="M30.81,27.48a5.37,5.37,0,1,0,5.38,5.37A5.38,5.38,0,0,0,30.81,27.48Zm0,9.26a3.89,3.89,0,1,1,3.89-3.89A3.89,3.89,0,0,1,30.81,36.74Z" fill="#2c5967"/><circle cx="37.48" cy="28.22" r="0.74" fill="#2c5967"/><rect x="20.44" y="27.48" width="3.52" height="1.48" fill="#2c5967"/><path d="M30.81,33.41h1.3a.74.74,0,0,0,0-1.48h-.55V30.81a.75.75,0,0,0-1.49,0v1.86A.74.74,0,0,0,30.81,33.41Z" fill="#2c5967"/></svg>