<svg id="Layer_1" data-name="Layer 1" xmlns="http://www.w3.org/2000/svg" viewBox="0 0 42.44 40"><metadata><?xpacket begin="﻿" id="W5M0MpCehiHzreSzNTczkc9d"?>
<x:xmpmeta xmlns:x="adobe:ns:meta/" x:xmptk="Adobe XMP Core 6.0-c006 79.164648, 2021/01/12-15:52:29        ">
   <rdf:RDF xmlns:rdf="http://www.w3.org/1999/02/22-rdf-syntax-ns#">
      <rdf:Description rdf:about=""
            xmlns:xmp="http://ns.adobe.com/xap/1.0/"
            xmlns:xmpMM="http://ns.adobe.com/xap/1.0/mm/"
            xmlns:stEvt="http://ns.adobe.com/xap/1.0/sType/ResourceEvent#"
            xmlns:dc="http://purl.org/dc/elements/1.1/">
         <xmp:MetadataDate>2022-11-11T13:46:52-06:00</xmp:MetadataDate>
         <xmpMM:InstanceID>xmp.iid:71f73981-37de-44ab-b3f7-27aed5247f4c</xmpMM:InstanceID>
         <xmpMM:DocumentID>xmp.did:4bde35e2-b897-48ff-8d8a-7a9fb9cd3ea6</xmpMM:DocumentID>
         <xmpMM:OriginalDocumentID>xmp.did:4bde35e2-b897-48ff-8d8a-7a9fb9cd3ea6</xmpMM:OriginalDocumentID>
         <xmpMM:History>
            <rdf:Seq>
               <rdf:li>
                  <rdf:Description>
                     <stEvt:action>saved</stEvt:action>
                     <stEvt:instanceID>xmp.iid:4bde35e2-b897-48ff-8d8a-7a9fb9cd3ea6</stEvt:instanceID>
                     <stEvt:when>2022-11-11T13:22-06:00</stEvt:when>
                     <stEvt:softwareAgent>Adobe Bridge 2021 (Macintosh)</stEvt:softwareAgent>
                     <stEvt:changed>/metadata</stEvt:changed>
                  </rdf:Description>
               </rdf:li>
               <rdf:li>
                  <rdf:Description>
                     <stEvt:action>saved</stEvt:action>
                     <stEvt:instanceID>xmp.iid:71f73981-37de-44ab-b3f7-27aed5247f4c</stEvt:instanceID>
                     <stEvt:when>2022-11-11T13:46:52-06:00</stEvt:when>
                     <stEvt:softwareAgent>Adobe Bridge 2021 (Macintosh)</stEvt:softwareAgent>
                     <stEvt:changed>/metadata</stEvt:changed>
                  </rdf:Description>
               </rdf:li>
            </rdf:Seq>
         </xmpMM:History>
         <dc:subject>
            <rdf:Bag>
               <rdf:li>icon</rdf:li>
               <rdf:li>file</rdf:li>
               <rdf:li>folder</rdf:li>
               <rdf:li>storage</rdf:li>
               <rdf:li>target</rdf:li>
               <rdf:li>container</rdf:li>
            </rdf:Bag>
         </dc:subject>
      </rdf:Description>
   </rdf:RDF>
</x:xmpmeta>
                                                                                                    
                                                                                                    
                                                                                                    
                                                                                                    
                                                                                                    
                                                                                                    
                                                                                                    
                                                                                                    
                                                                                                    
                                                                                                    
                                                                                                    
                                                                                                    
                                                                                                    
                                                                                                    
                                        
<?xpacket end="w"?></metadata>
<path d="M1.67,38.52a.18.18,0,0,1-.19-.19V5.56h37V21.3L40,19.61V4.07H0V38.33A1.67,1.67,0,0,0,1.67,40H27.89a9,9,0,0,1-2-1.48Z" fill="#2c5967"/><path d="M40,1.67A1.67,1.67,0,0,0,38.33,0H1.67A1.67,1.67,0,0,0,0,1.67V3H40Z" fill="#2c5967"/><path d="M33.48,13.33H16.6l-1.59-2a1.5,1.5,0,0,0-1.18-.57H6.31a1.48,1.48,0,0,0-1.5,1.46V33.52H23.33a8.25,8.25,0,0,1-.09-1.22,2.26,2.26,0,0,1,0-.26H6.3V17.41h7.86a1.56,1.56,0,0,0,1.2-.58l1.6-2H33.52v8.92a9.25,9.25,0,0,1,1.48.41V14.82A1.51,1.51,0,0,0,33.48,13.33ZM14.2,15.91l0,0H6.3V12.22h7.55l1.62,2.07Z" fill="#2c5967"/><rect x="7.59" y="13.33" width="5.74" height="1.48" fill="#2c5967"/><path d="M40,21.3l-2.78,3.17v1.37l-1,1-.15.15,0,0h0l-3.49,3.7a1.63,1.63,0,0,0-1.72.39,1.67,1.67,0,1,0,2.76.67l2.47-2.62L37.22,28v0l1-1h1.86l.87-1,1.51-1.77H40Z" fill="#2c5967"/><path d="M31.94,27.67a4.63,4.63,0,1,0,4.63,4.63,4.57,4.57,0,0,0-.32-1.69l-1.2,1.2a2.7,2.7,0,0,1,0,.49,3.15,3.15,0,1,1-3.15-3.15,3.89,3.89,0,0,1,.49,0l1.2-1.2A4.7,4.7,0,0,0,31.94,27.67Z" fill="#2c5967"/><path d="M31.94,24.71a7.6,7.6,0,0,0-7.59,7.59,7.44,7.44,0,0,0,.24,1.9,7.6,7.6,0,0,0,14.71,0,7.91,7.91,0,0,0,.24-1.9,7.58,7.58,0,0,0-1.08-3.89L37.9,29l-.53.52a6.11,6.11,0,1,1-5.43-3.3,6,6,0,0,1,2.81.69l.53-.53.56-.56A7.49,7.49,0,0,0,31.94,24.71Z" fill="#2c5967"/></svg>