<svg id="Layer_1" data-name="Layer 1" xmlns="http://www.w3.org/2000/svg" viewBox="0 0 26.34 42"><title>Local Storage</title><metadata><?xpacket begin="﻿" id="W5M0MpCehiHzreSzNTczkc9d"?>
<x:xmpmeta xmlns:x="adobe:ns:meta/" x:xmptk="Adobe XMP Core 6.0-c006 79.164648, 2021/01/12-15:52:29        ">
   <rdf:RDF xmlns:rdf="http://www.w3.org/1999/02/22-rdf-syntax-ns#">
      <rdf:Description rdf:about=""
            xmlns:xmp="http://ns.adobe.com/xap/1.0/"
            xmlns:xmpMM="http://ns.adobe.com/xap/1.0/mm/"
            xmlns:stEvt="http://ns.adobe.com/xap/1.0/sType/ResourceEvent#"
            xmlns:dc="http://purl.org/dc/elements/1.1/">
         <xmp:MetadataDate>2022-11-11T13:52:07-06:00</xmp:MetadataDate>
         <xmpMM:InstanceID>xmp.iid:ccc0cfdb-c401-443d-b8ef-42a597639d15</xmpMM:InstanceID>
         <xmpMM:DocumentID>xmp.did:828d2415-c24f-4c83-bebc-f07160134008</xmpMM:DocumentID>
         <xmpMM:OriginalDocumentID>xmp.did:828d2415-c24f-4c83-bebc-f07160134008</xmpMM:OriginalDocumentID>
         <xmpMM:History>
            <rdf:Seq>
               <rdf:li>
                  <rdf:Description>
                     <stEvt:action>saved</stEvt:action>
                     <stEvt:instanceID>xmp.iid:828d2415-c24f-4c83-bebc-f07160134008</stEvt:instanceID>
                     <stEvt:when>2021-08-31T15:44:57-05:00</stEvt:when>
                     <stEvt:softwareAgent>Adobe Bridge 2021 (Macintosh)</stEvt:softwareAgent>
                     <stEvt:changed>/metadata</stEvt:changed>
                  </rdf:Description>
               </rdf:li>
               <rdf:li>
                  <rdf:Description>
                     <stEvt:action>saved</stEvt:action>
                     <stEvt:instanceID>xmp.iid:ccc0cfdb-c401-443d-b8ef-42a597639d15</stEvt:instanceID>
                     <stEvt:when>2022-11-11T13:52:07-06:00</stEvt:when>
                     <stEvt:softwareAgent>Adobe Bridge 2021 (Macintosh)</stEvt:softwareAgent>
                     <stEvt:changed>/metadata</stEvt:changed>
                  </rdf:Description>
               </rdf:li>
            </rdf:Seq>
         </xmpMM:History>
         <dc:title>
            <rdf:Alt>
               <rdf:li xml:lang="x-default">Local Storage</rdf:li>
            </rdf:Alt>
         </dc:title>
         <dc:subject>
            <rdf:Bag>
               <rdf:li>Compute</rdf:li>
               <rdf:li>Container</rdf:li>
               <rdf:li>Data</rdf:li>
               <rdf:li>Local</rdf:li>
               <rdf:li>Storage</rdf:li>
               <rdf:li>On Premises</rdf:li>
               <rdf:li>icon</rdf:li>
               <rdf:li>machine</rdf:li>
               <rdf:li>server</rdf:li>
               <rdf:li>location</rdf:li>
               <rdf:li>pin</rdf:li>
               <rdf:li>gps</rdf:li>
            </rdf:Bag>
         </dc:subject>
      </rdf:Description>
   </rdf:RDF>
</x:xmpmeta>
                                                                                                    
                                                                                                    
                                                                                                    
                                                                                                    
                                                                                                    
                                                                                                    
                                                                                                    
                                                                                                    
                                                                                                    
                                                                                                    
                                                                                                    
                   
<?xpacket end="w"?></metadata>
<path d="M2.77,41.5A2.27,2.27,0,0,1,.5,39.23V13.72a2.27,2.27,0,0,1,2.27-2.27H8.19l-.55-.8a6.47,6.47,0,0,1,1.54-9A6.64,6.64,0,0,1,13,.5a6.35,6.35,0,0,1,5.26,2.79,6.51,6.51,0,0,1,0,7.36l-.55.8h5.87a2.27,2.27,0,0,1,2.27,2.27V39.23a2.27,2.27,0,0,1-2.27,2.27Z" fill="#fff"/><path d="M13,1A5.87,5.87,0,0,1,17.8,3.57a6,6,0,0,1,0,6.8L16.75,12h6.82a1.77,1.77,0,0,1,1.77,1.77V39.23A1.77,1.77,0,0,1,23.57,41H2.77A1.77,1.77,0,0,1,1,39.23V13.72A1.77,1.77,0,0,1,2.77,12H9.14L8.05,10.37a6,6,0,0,1,1.42-8.3A6.12,6.12,0,0,1,13,1m0-1a7.08,7.08,0,0,0-4,1.25,7,7,0,0,0-1.67,9.69H2.77A2.77,2.77,0,0,0,0,13.72V39.23A2.77,2.77,0,0,0,2.77,42h20.8a2.77,2.77,0,0,0,2.77-2.77V13.72A2.77,2.77,0,0,0,23.57,11H18.65v0a7,7,0,0,0,0-7.93A6.86,6.86,0,0,0,13,0Z" fill="#fff"/><path d="M23.57,12H18.18L17.1,13.52h6.47a.2.2,0,0,1,.2.2V39.23a.2.2,0,0,1-.2.2H2.77a.2.2,0,0,1-.2-.2V13.72a.2.2,0,0,1,.2-.2h6L7.71,12H2.77A1.77,1.77,0,0,0,1,13.72V39.23A1.77,1.77,0,0,0,2.77,41h20.8a1.77,1.77,0,0,0,1.77-1.77V13.72A1.77,1.77,0,0,0,23.57,12Z" fill="#2c5967"/><polygon points="3.75 21.77 22.59 21.77 22.59 14.7 16.3 14.7 15.22 16.27 21.02 16.27 21.02 20.2 5.32 20.2 5.32 16.27 10.67 16.27 9.6 14.7 3.75 14.7 3.75 21.77" fill="#2c5967"/><circle cx="19.06" cy="18.23" r="0.79" fill="#2c5967"/><path d="M3.75,30H22.59V22.94H3.75Zm1.57-5.5H21v3.93H5.32Z" fill="#2c5967"/><circle cx="19.06" cy="26.48" r="0.79" fill="#2c5967"/><path d="M3.75,38.25H22.59V31.19H3.75Zm1.57-5.49H21v3.92H5.32Z" fill="#2c5967"/><circle cx="19.06" cy="34.72" r="0.79" fill="#2c5967"/><path d="M13,17.5l4.89-7.13a6,6,0,0,0,0-6.8A5.87,5.87,0,0,0,13,1,6.12,6.12,0,0,0,9.47,2.07a6,6,0,0,0-1.42,8.3Zm3.56-13a4.43,4.43,0,0,1,0,5L13,14.72,9.35,9.48h0a4.38,4.38,0,0,1,1-6.11A4.65,4.65,0,0,1,13,2.57,4.3,4.3,0,0,1,16.51,4.47Z" fill="#2c5967"/><path d="M13,9.61a2.52,2.52,0,1,0-2.53-2.52A2.52,2.52,0,0,0,13,9.61Zm0-3.47a1,1,0,1,1-1,1A1,1,0,0,1,13,6.14Z" fill="#2c5967"/></svg>