<svg id="Layer_1" data-name="Layer 1" xmlns="http://www.w3.org/2000/svg" viewBox="0 0 42.43 41.89"><metadata><?xpacket begin="﻿" id="W5M0MpCehiHzreSzNTczkc9d"?>
<x:xmpmeta xmlns:x="adobe:ns:meta/" x:xmptk="Adobe XMP Core 6.0-c006 79.164648, 2021/01/12-15:52:29        ">
   <rdf:RDF xmlns:rdf="http://www.w3.org/1999/02/22-rdf-syntax-ns#">
      <rdf:Description rdf:about=""
            xmlns:dc="http://purl.org/dc/elements/1.1/"
            xmlns:xmp="http://ns.adobe.com/xap/1.0/"
            xmlns:xmpMM="http://ns.adobe.com/xap/1.0/mm/"
            xmlns:stEvt="http://ns.adobe.com/xap/1.0/sType/ResourceEvent#"
            xmlns:xmpRights="http://ns.adobe.com/xap/1.0/rights/"
            xmlns:lr="http://ns.adobe.com/lightroom/1.0/">
         <dc:subject>
            <rdf:Bag>
               <rdf:li>file</rdf:li>
               <rdf:li>folder</rdf:li>
               <rdf:li>storage</rdf:li>
               <rdf:li>mount</rdf:li>
               <rdf:li>icon</rdf:li>
            </rdf:Bag>
         </dc:subject>
         <dc:rights>
            <rdf:Alt>
               <rdf:li xml:lang="x-default">Oracle All Rights</rdf:li>
            </rdf:Alt>
         </dc:rights>
         <xmp:MetadataDate>2023-08-02T14:36:32-06:00</xmp:MetadataDate>
         <xmpMM:InstanceID>xmp.iid:87410fd9-308e-4f9a-8db3-3ac8af324d7b</xmpMM:InstanceID>
         <xmpMM:DocumentID>xmp.did:92868277-6b1a-4c30-956c-4d72851b85d2</xmpMM:DocumentID>
         <xmpMM:OriginalDocumentID>xmp.did:92868277-6b1a-4c30-956c-4d72851b85d2</xmpMM:OriginalDocumentID>
         <xmpMM:History>
            <rdf:Seq>
               <rdf:li>
                  <rdf:Description>
                     <stEvt:action>saved</stEvt:action>
                     <stEvt:instanceID>xmp.iid:92868277-6b1a-4c30-956c-4d72851b85d2</stEvt:instanceID>
                     <stEvt:when>2023-08-02T14:26:03-06:00</stEvt:when>
                     <stEvt:softwareAgent>Adobe Bridge 2021 (Macintosh)</stEvt:softwareAgent>
                     <stEvt:changed>/metadata</stEvt:changed>
                  </rdf:Description>
               </rdf:li>
               <rdf:li>
                  <rdf:Description>
                     <stEvt:action>saved</stEvt:action>
                     <stEvt:instanceID>xmp.iid:87410fd9-308e-4f9a-8db3-3ac8af324d7b</stEvt:instanceID>
                     <stEvt:when>2023-08-02T14:36:32-06:00</stEvt:when>
                     <stEvt:softwareAgent>Adobe Bridge 2021 (Macintosh)</stEvt:softwareAgent>
                     <stEvt:changed>/metadata</stEvt:changed>
                  </rdf:Description>
               </rdf:li>
            </rdf:Seq>
         </xmpMM:History>
         <xmpRights:Marked>True</xmpRights:Marked>
         <lr:hierarchicalSubject>
            <rdf:Bag>
               <rdf:li>Other Keywords|icon</rdf:li>
            </rdf:Bag>
         </lr:hierarchicalSubject>
      </rdf:Description>
   </rdf:RDF>
</x:xmpmeta>
                                                                                                    
                                                                                                    
                                                                                                    
                                                                                                    
                                                                                                    
                                                                                                    
                                                                                                    
                                                                                                    
                                                                                                    
                                                                                            
<?xpacket end="w"?></metadata>
<path d="M37,41.39V39h.23l-3.71-3.7A11.17,11.17,0,0,1,32,39.14c-1.22,1.72-2.45,2.07-3.28,2.07a2.56,2.56,0,0,1-.62-.07,3.52,3.52,0,0,1-1.58-.83H2.62A2.12,2.12,0,0,1,.5,38.2V2.62A2.12,2.12,0,0,1,2.62.5H38.2a2.12,2.12,0,0,1,2.11,2.12v19.8h1.07v4.37H39v-.28l-4.18,4.18H37l-.23-.23,1.69-1.76,3.27,3.15-3.25,3.26-1.72-1.73.25-.25H34.86L39,37.21V37h2.43v4.36Z" fill="#fff"/><path d="M38.2,1a1.62,1.62,0,0,1,1.61,1.62v20.3h1.07v3.37H39.45v-1l-5.89,5.89h4.67l-.78-.74,1-1L41,31.86,38.46,34.4l-1-1,.76-.75H33.66l5.79,5.79v-.89h1.43v3.36H37.52V39.45h.93l-5.24-5.24a11.65,11.65,0,0,1-1.6,4.66l0,0a3.54,3.54,0,0,1-2.84,1.81,2.18,2.18,0,0,1-.52-.06,3.19,3.19,0,0,1-1.48-.84H2.62A1.62,1.62,0,0,1,1,38.2V2.62A1.63,1.63,0,0,1,2.62,1H38.2m0-1H2.62A2.62,2.62,0,0,0,0,2.62V38.2a2.61,2.61,0,0,0,2.62,2.61H26.37a4,4,0,0,0,1.65.82,3.63,3.63,0,0,0,.73.08,4.52,4.52,0,0,0,3.66-2.23v0l0,0a11.58,11.58,0,0,0,1.37-3.18l2.7,2.7v3h5.36V36.53H39l-2.9-2.9h.2l.47.46,1,1,.71.7.71-.7,2.54-2.54.72-.73-.74-.7-2.55-2.45L38.42,28l-.69.72-1,1-.41.44H36l2.9-2.9h3V21.92H40.81V2.62A2.61,2.61,0,0,0,38.2,0Z" fill="#fff"/><path d="M2.62,38.38a.18.18,0,0,1-.18-.18V6.39H38.38V21.84h1.43V5H1V38.2a1.62,1.62,0,0,0,1.62,1.61H25.28a8,8,0,0,1-.87-1.43Z" fill="#2c5967"/><path d="M39.81,2.62A1.62,1.62,0,0,0,38.2,1H2.62A1.63,1.63,0,0,0,1,2.62V3.88H39.81Z" fill="#2c5967"/><path d="M33.81,27.24H34l1-1V15.38a1.45,1.45,0,0,0-1.47-1.44H17.1l-1.53-2a1.46,1.46,0,0,0-1.15-.56H7.12a1.44,1.44,0,0,0-1.45,1.42V33.52H21.84V32.09H7.11V17.89h7.63a1.48,1.48,0,0,0,1.16-.56l1.55-1.95H33.52v11C33.62,26.64,33.72,26.93,33.81,27.24Zm-19-10.8H7.11V12.86h7.33l1.57,2Z" fill="#2c5967"/><rect x="8.37" y="13.94" width="5.57" height="1.44" fill="#2c5967"/><path d="M39.45,38.42l-5.79-5.79H38.2l-.76.75,1,1L41,31.86l-2.55-2.45-1,1,.78.74H33.56l5.89-5.89v1h1.43V22.92H37.52v1.44h.84l-5.17,5.17q-.09-.64-.21-1.2c-1.14-4.8-3.33-5.3-4.21-5.29-1.88,0-3.53,2.06-4.2,5.19a15,15,0,0,0-.37,3H22.92v1.44H24.2a15.54,15.54,0,0,0,.34,2.76c.6,2.85,2.05,4.92,3.69,5.26a2.18,2.18,0,0,0,.52.06,3.54,3.54,0,0,0,2.84-1.81l0,0a11.65,11.65,0,0,0,1.6-4.66l5.24,5.24h-.93v1.44h3.36V37.53H39.45Zm-9-.34c-.45.62-1.14,1.32-1.88,1.17C27.47,39,26.41,37.32,26,35.09a14.35,14.35,0,0,1-.32-2.46h2.25l-.76.75,1,1,2.54-2.54-2.63-2.53-1,1,.86.82H25.63A14.3,14.3,0,0,1,26,28.55h0c.6-2.77,1.88-4.05,2.81-4.06h0c.86,0,2.05,1.1,2.78,4.16C32.19,31.48,32.06,35.49,30.41,38.08Z" fill="#2c5967"/></svg>